<?xml version="1.0" encoding="UTF-8" standalone="no"?>
<!-- Created with Inkscape (http://www.inkscape.org/) -->

<svg
   xmlns:dc="http://purl.org/dc/elements/1.1/"
   xmlns:cc="http://creativecommons.org/ns#"
   xmlns:rdf="http://www.w3.org/1999/02/22-rdf-syntax-ns#"
   xmlns:svg="http://www.w3.org/2000/svg"
   xmlns="http://www.w3.org/2000/svg"
   xmlns:xlink="http://www.w3.org/1999/xlink"
   xmlns:sodipodi="http://sodipodi.sourceforge.net/DTD/sodipodi-0.dtd"
   xmlns:inkscape="http://www.inkscape.org/namespaces/inkscape"
   version="1.0"
   width="96"
   height="96"
   id="svg2408"
   inkscape:version="0.91 r"
   sodipodi:docname="applications-science.svg">
  <sodipodi:namedview
     pagecolor="#ffffff"
     bordercolor="#666666"
     borderopacity="1"
     objecttolerance="10"
     gridtolerance="10"
     guidetolerance="10"
     inkscape:pageopacity="0"
     inkscape:pageshadow="2"
     inkscape:window-width="1280"
     inkscape:window-height="965"
     id="namedview77"
     showgrid="false"
     inkscape:zoom="3.47661"
     inkscape:cx="22.9948"
     inkscape:cy="40.7482"
     inkscape:window-x="0"
     inkscape:window-y="27"
     inkscape:window-maximized="1"
     inkscape:current-layer="svg2408" />
  <defs
     id="defs2410">
    <linearGradient
       x1="45.447727"
       y1="92.539597"
       x2="45.447727"
       y2="7.0165396"
       id="ButtonShadow"
       gradientUnits="userSpaceOnUse"
       gradientTransform="scale(1.0058652,0.994169)">
      <stop
         id="stop3750"
         style="stop-color:#000000;stop-opacity:1"
         offset="0" />
      <stop
         id="stop3752"
         style="stop-color:#000000;stop-opacity:0.58823532"
         offset="1" />
    </linearGradient>
    <linearGradient
       id="linearGradient3737">
      <stop
         id="stop3739"
         style="stop-color:#ffffff;stop-opacity:1"
         offset="0" />
      <stop
         id="stop3741"
         style="stop-color:#ffffff;stop-opacity:0"
         offset="1" />
    </linearGradient>
    <filter
       color-interpolation-filters="sRGB"
       id="filter3174">
      <feGaussianBlur
         id="feGaussianBlur3176"
         stdDeviation="1.71" />
    </filter>
    <linearGradient
       x1="36.357143"
       y1="6"
       x2="36.357143"
       y2="63.893143"
       id="linearGradient3188"
       xlink:href="#linearGradient3737"
       gradientUnits="userSpaceOnUse" />
    <filter
       x="-0.192"
       y="-0.192"
       width="1.3839999"
       height="1.3839999"
       color-interpolation-filters="sRGB"
       id="filter3794">
      <feGaussianBlur
         id="feGaussianBlur3796"
         stdDeviation="5.28" />
    </filter>
    <linearGradient
       x1="48"
       y1="20.220806"
       x2="48"
       y2="138.66119"
       id="linearGradient3613"
       xlink:href="#linearGradient3737"
       gradientUnits="userSpaceOnUse" />
    <radialGradient
       cx="48"
       cy="90.171875"
       r="42"
       fx="48"
       fy="90.171875"
       id="radialGradient3619"
       xlink:href="#linearGradient3737"
       gradientUnits="userSpaceOnUse"
       gradientTransform="matrix(1.15731,0,0,0.995908,-7.55102,0.197132)" />
    <clipPath
       id="clipPath3613">
      <rect
         width="84"
         height="84"
         rx="6"
         ry="6"
         x="6"
         y="6"
         id="rect3615"
         style="fill:#ffffff;fill-opacity:1;fill-rule:nonzero;stroke:none" />
    </clipPath>
    <linearGradient
       x1="48"
       y1="90"
       x2="48"
       y2="5.9877172"
       id="linearGradient3617"
       xlink:href="#linearGradient3187"
       gradientUnits="userSpaceOnUse" />
    <linearGradient
       id="linearGradient3187">
      <stop
         id="stop3189"
         style="stop-color:#bf8445;stop-opacity:1"
         offset="0" />
      <stop
         id="stop3191"
         style="stop-color:#e8bd81;stop-opacity:1"
         offset="1" />
    </linearGradient>
    <linearGradient
       id="linearGradient3465">
      <stop
         id="stop3467"
         style="stop-color:#a17135;stop-opacity:1"
         offset="0" />
      <stop
         id="stop3469"
         style="stop-color:#d8b279;stop-opacity:1"
         offset="1" />
    </linearGradient>
    <linearGradient
       id="linearGradient3437">
      <stop
         id="stop3439"
         style="stop-color:#275a39;stop-opacity:1"
         offset="0" />
      <stop
         id="stop5117"
         style="stop-color:#448459;stop-opacity:1"
         offset="1" />
    </linearGradient>
    <linearGradient
       x1="4.1767769"
       y1="11"
       x2="18"
       y2="11"
       id="linearGradient3795"
       xlink:href="#linearGradient3437"
       gradientUnits="userSpaceOnUse"
       gradientTransform="matrix(4.2857143,0,0,4.2857143,-95.14286,0.857143)" />
    <linearGradient
       x1="16"
       y1="48"
       x2="80"
       y2="48"
       id="linearGradient3843"
       xlink:href="#linearGradient3465"
       gradientUnits="userSpaceOnUse"
       gradientTransform="matrix(0,1,-1,0,96,0)" />
    <clipPath
       id="clipPath3853">
      <rect
         width="60"
         height="60"
         rx="5"
         ry="5"
         x="-78"
         y="48"
         id="rect3855"
         style="fill:#ffffff;stroke:none;display:inline" />
    </clipPath>
    <filter
       color-interpolation-filters="sRGB"
       id="filter3865">
      <feGaussianBlur
         id="feGaussianBlur3867"
         stdDeviation="2.4" />
    </filter>
    <linearGradient
       id="linearGradient5149-7">
      <stop
         id="stop5151-5"
         style="stop-color:#d8e8c2;stop-opacity:1"
         offset="0" />
      <stop
         id="stop5153-1"
         style="stop-color:#d8e8c2;stop-opacity:0"
         offset="1" />
    </linearGradient>
    <linearGradient
       x1="77"
       y1="92.866791"
       x2="81.5"
       y2="45.616791"
       id="linearGradient5169-4"
       xlink:href="#linearGradient5149-7"
       gradientUnits="userSpaceOnUse"
       gradientTransform="translate(-5.25,-43.250002)" />
    <linearGradient
       x1="27.5"
       y1="62.08614"
       x2="99.467018"
       y2="62.08614"
       id="linearGradient3950"
       xlink:href="#linearGradient5149-7"
       gradientUnits="userSpaceOnUse"
       gradientTransform="translate(-1.75,-32.750002)" />
    <filter
       color-interpolation-filters="sRGB"
       id="filter4005">
      <feGaussianBlur
         id="feGaussianBlur4007"
         stdDeviation="1.2531246" />
    </filter>
    <filter
       color-interpolation-filters="sRGB"
       id="filter4009">
      <feGaussianBlur
         id="feGaussianBlur4011"
         stdDeviation="1.2531246" />
    </filter>
    <linearGradient
       x1="45.447727"
       y1="92.539597"
       x2="45.447727"
       y2="7.0165396"
       id="ButtonShadow-0"
       gradientUnits="userSpaceOnUse"
       gradientTransform="matrix(1.0058652,0,0,0.994169,100,0)">
      <stop
         id="stop3750-8"
         style="stop-color:#000000;stop-opacity:1"
         offset="0" />
      <stop
         id="stop3752-5"
         style="stop-color:#000000;stop-opacity:0.58823532"
         offset="1" />
    </linearGradient>
    <linearGradient
       x1="32.251034"
       y1="6.1317081"
       x2="32.251034"
       y2="90.238609"
       id="linearGradient3780"
       xlink:href="#ButtonShadow-0"
       gradientUnits="userSpaceOnUse"
       gradientTransform="matrix(1.0238095,0,0,1.0119048,-1.1428571,-98.071429)" />
    <linearGradient
       x1="32.251034"
       y1="6.1317081"
       x2="32.251034"
       y2="90.238609"
       id="linearGradient3772"
       xlink:href="#ButtonShadow-0"
       gradientUnits="userSpaceOnUse"
       gradientTransform="matrix(1.0238095,0,0,1.0119048,-1.1428571,-98.071429)" />
    <linearGradient
       x1="32.251034"
       y1="6.1317081"
       x2="32.251034"
       y2="90.238609"
       id="linearGradient3725"
       xlink:href="#ButtonShadow-0"
       gradientUnits="userSpaceOnUse"
       gradientTransform="matrix(1.0238095,0,0,1.0119048,-1.1428571,-98.071429)" />
    <linearGradient
       x1="32.251034"
       y1="6.1317081"
       x2="32.251034"
       y2="90.238609"
       id="linearGradient3721"
       xlink:href="#ButtonShadow-0"
       gradientUnits="userSpaceOnUse"
       gradientTransform="translate(0,-97)" />
    <linearGradient
       x1="32.251034"
       y1="6.1317081"
       x2="32.251034"
       y2="90.238609"
       id="linearGradient3811"
       xlink:href="#ButtonShadow-0"
       gradientUnits="userSpaceOnUse"
       gradientTransform="matrix(1.0238095,0,0,1.0119048,-1.1428571,-98.071429)" />
  </defs>
  <metadata
     id="metadata2413">
    <rdf:RDF>
      <cc:Work
         rdf:about="">
        <dc:format>image/svg+xml</dc:format>
        <dc:type
           rdf:resource="http://purl.org/dc/dcmitype/StillImage" />
      </cc:Work>
    </rdf:RDF>
  </metadata>
  <g
     id="layer2"
     style="display:none">
    <rect
       width="86"
       height="85"
       rx="6"
       ry="6"
       x="5"
       y="7"
       id="rect3745"
       style="opacity:0.9;fill:url(#ButtonShadow);fill-opacity:1;fill-rule:nonzero;stroke:none;filter:url(#filter3174)" />
  </g>
  <g
     id="layer4"
     style="display:inline">
    <path
       d="m 12,-95.03125 c -5.5110903,0 -10.03125,4.52016 -10.03125,10.03125 l 0,71 c 0,5.5110902 4.5201598,10.03125 10.03125,10.03125 l 72,0 c 5.51109,0 10.03125,-4.5201597 10.03125,-10.03125 l 0,-71 c 0,-5.51109 -4.52016,-10.03125 -10.03125,-10.03125 l -72,0 z"
       transform="scale(1,-1)"
       id="path3786"
       style="opacity:0.07999998;fill:url(#linearGradient3811);fill-opacity:1;fill-rule:nonzero;stroke:none;display:inline" />
    <path
       d="m 12,-94.03125 c -4.971633,0 -9.03125,4.059617 -9.03125,9.03125 l 0,71 c 0,4.9716329 4.0596171,9.03125 9.03125,9.03125 l 72,0 c 4.971633,0 9.03125,-4.059617 9.03125,-9.03125 l 0,-71 c 0,-4.971633 -4.059617,-9.03125 -9.03125,-9.03125 l -72,0 z"
       transform="scale(1,-1)"
       id="path3778"
       style="opacity:0.1;fill:url(#linearGradient3780);fill-opacity:1;fill-rule:nonzero;stroke:none;display:inline" />
    <path
       d="m 12,-93 c -4.4091333,0 -8,3.590867 -8,8 l 0,71 c 0,4.4091333 3.5908667,8 8,8 l 72,0 c 4.409133,0 8,-3.5908667 8,-8 l 0,-71 c 0,-4.409133 -3.590867,-8 -8,-8 l -72,0 z"
       transform="scale(1,-1)"
       id="path3770"
       style="opacity:0.2;fill:url(#linearGradient3772);fill-opacity:1;fill-rule:nonzero;stroke:none;display:inline" />
    <rect
       width="86"
       height="85"
       rx="7"
       ry="7"
       x="5"
       y="-92"
       transform="scale(1,-1)"
       id="rect3723"
       style="opacity:0.3;fill:url(#linearGradient3725);fill-opacity:1;fill-rule:nonzero;stroke:none;display:inline" />
    <rect
       width="84"
       height="84"
       rx="6"
       ry="6"
       x="6"
       y="-91"
       transform="scale(1,-1)"
       id="rect3716"
       style="opacity:0.45;fill:url(#linearGradient3721);fill-opacity:1;fill-rule:nonzero;stroke:none;display:inline" />
  </g>
  <g
     id="layer1">
    <rect
       width="84"
       height="84"
       rx="6"
       ry="6"
       x="6"
       y="6"
       id="rect2419"
       style="fill:url(#linearGradient3617);fill-opacity:1;fill-rule:nonzero;stroke:none" />
    <path
       d="M 80,22.9375 C 80,19.13984 76.86016,16 73.0625,16 l -50.125,0 C 19.13984,16 16,19.13984 16,22.9375 l 0,50.125 C 16,76.86016 19.13984,80 22.9375,80 l 50.125,0 C 76.86016,80 80,76.86016 80,73.0625 l 0,-50.125 z M 78,23 78,73 c 0,2.77 -2.23,5 -5,5 l -50,0 c -2.77,0 -5,-2.23 -5,-5 l 0,-50 c 0,-2.77 2.23,-5 5,-5 l 50,0 c 2.77,0 5,2.23 5,5 z"
       inkscape:connector-curvature="0"
       id="path3832"
       style="fill:url(#linearGradient3843);fill-opacity:1;fill-rule:evenodd;stroke:none;display:inline" />
    <path
       style="display:inline;opacity:0.5;fill:#593a19;fill-opacity:1;fill-rule:evenodd;stroke:none"
       d="m 84,6 c -6.8478,0.24648 -13.695,0.5228 -20.5312,1 4.8751,0.0146 9.749,-0.23479 14.625,-0.0937 -4.1244,0.095 -8.251,0.0393 -12.375,0.125 3.2455,0.0108 11.1352,-0.0863 11.5437,-0.048 -2.6051,0.0613 -8.4959,0.0884 -3.1927,0.0792 3.0808,0.015 6.1632,-0.0335 9.2427,0.0312 -3.239,0.0627 -6.4792,0.0177 -9.7187,0.0312 4.5777,-0.0321 9.7745,0.26542 13.9687,0.25 -1.4269,-0.18727 -5.9274,-0.31026 -2.0473,-0.15553 3.5323,0.12619 0.4669,-0.24405 -1.109,-0.12572 2.058,0.22477 3.8155,-0.38369 0.5635,-0.25416 -2.0012,0.13074 -9.4392,0.147 -4.1454,-0.0144 C 81.9112,6.67249 89.107,6.6211 84,6 Z M 65.7188,7.03125 C 58.7438,7.02059 51.829,8.13877 44.9062,8.875 51.8293,8.14109 58.7445,7.20036 65.7188,7.03125 Z M 45.25,8.875 c -3.5709,0.3864 3.7253,0.0586 5.0175,0.13 C 63.2522,8.90257 76.2401,8.92929 89.2188,9.375 87.0609,7.53596 83.0137,9.19598 80.0916,8.73828 68.4806,9.04338 56.8632,8.94371 45.25,8.875 Z m -0.3438,0 C 32.273,8.71581 19.5333,8.42753 6.96875,9.0625 19.3287,9.10648 31.7039,9.33762 44.0561,8.96877 L 44.9062,8.875 Z M 62.9375,7.03125 c -1.2204,-0.0636 -7.0391,0.013 -10.0313,0 3.0679,0.0543 -1.5543,0.023 -2.6327,0.0312 -7.362,0 -14.724,0 -22.086,0 11.5797,0.13925 23.1684,0.0197 34.75,-0.0312 z M 30.0625,7.125 c 8.0406,0.23101 16.0833,0.005 24.125,0 -8.0417,0 -16.0833,0 -24.125,0 z M 28.1875,7.0625 C 35.9583,7.0618 43.7292,7.04444 51.5,7.03125 39.8541,6.90193 28.2088,6.73051 16.5625,6.65625 20.4411,6.69999 24.313,6.90314 28.1875,7.0625 Z M 16.5625,6.65625 C 15.2318,6.6209 8.94139,6.50953 10.5477,6.59856 c 2.005,0.0111 4.01,0.0228 6.0148,0.0577 z M 9,6.96875 c 2.1201,0.21581 8.6859,0.0304 9.2274,0.0947 C 15.1514,7.06509 12.0756,7.01658 9,6.96875 Z M 8.8125,7.125 c 1.3619,0.11537 7.4992,-0.0556 2.4686,9.6e-4 -0.8229,1.8e-4 -1.64574,4e-5 -2.4686,-9.6e-4 z m 21.125,2.71875 c -4.6686,0.0458 -9.3345,0.20685 -14,0.37505 4.6655,-0.171 9.3329,-0.2651 14,-0.37505 z m -14,0.37505 c -2.5594,0.041 -8.53385,0.2694 -9.05184,0.3462 3.01623,-0.1413 6.03404,-0.2455 9.05184,-0.3462 z m 73.6875,0.062 c -6.8951,0.6722 -13.8283,0.7903 -20.75,0.9376 6.9532,-0.012 13.9007,-0.3405 20.8438,-0.6876 l -0.094,-0.25 z m -20.9062,0.9376 c -15.8851,0.1151 -31.7712,-0.072 -47.6563,0.125 15.8863,0.075 31.7711,0.1612 47.6563,-0.125 z m -47.6563,0.125 c -1.6969,-0.011 -8.635,-0.052 -3.7501,-0.019 1.25,0.01 2.5,0.022 3.7501,0.019 z m -6,-0.031 c -2.3174,0.05 -8.11064,-0.1181 -8.37815,0.057 2.79266,-0.026 5.58535,-0.052 8.37815,-0.057 z m -9,0.3125 c 17.0539,0.7792 34.4001,0.4026 51.5626,0.8665 10.7901,0.072 21.5905,0.3182 32.3749,0.1647 -3.9846,-0.3128 -8.7944,0.045 -13.093,-0.072 C 56.4151,12.4873 35.9259,12.086 15.4349,11.9018 12.3101,11.836 9.18566,11.7474 6.0625,11.625 Z m 81.5625,1.1562 c -2.5419,0.1107 -8.9165,0.1255 -8.9638,0.125 2.7693,-0.2986 10.6541,0.6529 10.7455,-0.08 -0.5938,-0.018 -1.1877,-0.035 -1.7817,-0.045 z M 37.3438,12.7188 C 26.9056,12.7986 16.386,12.8429 6,12.8438 c 12.5954,0.2425 25.2097,0.216 37.8132,0.1985 5.239,-0.081 10.4784,-0.1392 15.718,-0.1361 -7.3965,0 -14.7908,-0.2238 -22.1874,-0.1874 z M 10.1875,13 C 8.30733,12.7096 3.67329,13.3887 8.09269,13.4536 10.2765,13.4352 16.7704,13.62 15.9082,13.506 13.9962,13.3994 12.0931,13.1829 10.1875,13 Z m 6.6563,0.5625 c 1.5811,0.092 1.7491,0.01 0,0 z m 1.25,0.031 c 17.2702,0.1674 34.5418,0.097 51.8124,0.031 -17.2705,0.028 -34.5429,-0.3157 -51.8124,-0.031 z m 51.8124,0.031 c -16.0722,0.1906 -32.1462,0.01 -48.2187,0.1562 1.2927,0.061 5.9247,0.1615 2.2031,0.1114 -4.9635,-0.1028 -9.927,-0.062 -14.8906,0.014 21.1578,1.0434 42.3424,0.075 63.5124,0.5567 5.6731,0.031 11.3599,0.3048 17.0188,-0.2441 -19.7735,2.0188 -39.6637,0.5131 -59.4836,0.2972 -1.792,-0.042 -6.542,-0.1633 -2.2304,-0.052 20.3935,0.4122 40.826,1.6101 61.1985,-0.018 3.0514,-0.8823 -3.5281,-0.555 -4.5782,-0.6025 -19.5398,0.2733 -39.0843,0.4085 -58.625,0.062 19.9582,0.02 39.9174,-0.1768 59.875,-0.094 1.9245,-0.049 6.6926,-0.5192 1.8906,-0.4384 -2.284,0.079 -7.7258,0.2457 -8.0551,0.1778 1.5617,-0.041 6.0382,-0.1662 2.1242,-0.073 -3.9131,0.072 -7.827,0.1529 -11.741,0.1457 z M 83.625,13.4375 c 1.6756,-0.012 6.886,-0.183 2.6118,-0.056 -0.8706,0.021 -1.7412,0.038 -2.6118,0.056 z M 13.75,14.125 c -2.4627,-0.01 -3.6338,0 -0.5321,0.024 1.6511,0.021 3.454,0.065 0.5321,-0.024 z m 1.875,0.062 c 1.848,0.1068 6.3744,0.1651 2.2033,0.063 -0.7343,-0.024 -1.4687,-0.048 -2.2033,-0.063 z m -4.8125,-0.062 c -1.87737,-0.045 -7.29316,-0.011 -2.40543,-0.014 0.80183,0 1.60363,0.01 2.40543,0.014 z M 9,13.9062 c -2.24866,-0.2073 -4.27388,0.067 -0.75067,0.01 L 9,13.9062 Z m 8.4688,-0.094 c 2.195,-0.02 5.6968,-0.01 1.5698,-0.1194 -4.341,-0.2028 -8.6925,0.063 -13.0386,0.026 3.82311,-0 7.6461,0.042 11.4688,0.094 z M 59.625,12.9062 c 6.0104,-0 12.0209,0.064 18.0312,0 -6.0104,-0 -12.0208,0.01 -18.0312,0 z M 90,15.9688 c -9.2709,0.7946 -18.5799,0.9345 -27.875,1.25 9.2827,-0.2501 18.6709,-0.3949 27.875,-1.25 z M 62.6875,17.25 c -4.3341,0.1351 -8.6662,0.3391 -13,0.4688 2.8614,0.1262 8.5704,0.093 12.9376,0.1484 C 68.4272,17.9066 74.229,17.979 80.0312,18 70.5212,17.8854 61.0105,17.8212 51.5,17.75 c 4.5299,-0.1541 9.0624,-0.056 13.5938,-0.094 -1.6952,-0.012 -9.3332,-0.01 -4.3023,-0.076 5.7147,-0.1313 11.4331,-0.054 17.146,-0.2366 -5.0836,0.068 -10.1667,-0.071 -15.25,-0.094 z m 12.4063,0.1875 c -1.9757,0.1317 -9.7133,0.2205 -4.1559,0.173 6.355,-0 12.7071,-0.2372 19.0621,-0.2355 -3.2101,-0.7639 -7.8731,0.087 -11.6756,0.021 -1.0767,0.024 -2.1536,0.044 -3.2306,0.042 z m 8.1562,-0.25 c 4.3551,-0.3031 0.8417,-0.042 -1.4688,0.031 l 0.7338,-0.016 0.735,-0.015 z m -32.4375,0.5937 c -1.7971,-0.148 -9.1579,0.3825 -3.9657,0.1212 1.3217,-0.047 2.6437,-0.085 3.9657,-0.1212 z M 49.25,17.75 c 1.8216,-0.1093 -2.8391,0.044 0,0 z m -0.8438,0 c -3.1265,-0.049 -8.8228,-0.078 -10.3373,0.25 3.451,0.026 6.8931,0.01 10.3373,-0.25 z m -7.0312,-0.031 c 1.5053,-0.134 -3.804,-0.03 -5.1412,-0.066 -2.2523,-0 -4.9855,8e-4 -1.1713,0.034 2.1041,0.013 4.2083,0.038 6.3125,0.031 z m -8.75,-0.063 c -2.156,-0.01 -7.3926,-0.08 -7.5538,-0.082 1.9553,0.051 6.1847,0.098 1.8367,0.09 -6.9589,0.04 -14.0019,0.023 -20.9079,0.2414 9.1971,-0.1456 18.3956,-0.1861 27.5938,-0.2187 -2.2683,-0.016 -5.9285,-0.041 -0.9688,-0.031 z m 9.625,0 c 6.6302,0.1059 13.2518,-0.1679 19.875,-0.4374 -6.6248,0.017 -13.2669,-0.099 -19.875,0.4374 z m 8.0312,0 c -1.9768,0 -7.8884,0.03 -7.1801,0.035 2.3931,-0.02 4.7892,0.09 7.1801,-0.035 z M 90,16.5938 c -2.4385,0.2418 -2.2481,0.2874 0,0 z M 6,16.9062 c 1.6756,0.5266 6.8354,0.258 7.2659,0.4169 C 10.8422,17.2158 8.42163,17.0509 6,16.9062 Z m 84,0.9688 c -2.5542,0.06 -2.3528,0.1029 0,0 z m -2.5,0.062 c -2.8717,0.046 -4.432,0.1339 0,0 z M 6,18.3125 c 4.8253,0.1705 9.8392,0.3587 14.6875,0.2813 C 15.7906,18.5555 10.8945,18.4715 6,18.3125 Z m 14.5312,0.3437 c -4.8337,0.095 -9.7492,0.1124 -14.5312,0.25 4.844,-0.066 9.6874,-0.1727 14.5312,-0.25 z M 6,18.9688 c 1.6601,1.3529 5.9176,0.097 8.5312,0.4687 2.0042,0.04 8.2937,-0.4493 2.9588,-0.4525 -3.83,0.02 -7.66007,0.01 -11.49,-0.016 z m 8.5312,0.4687 c -1.8769,0.3433 -8.77271,-0.1121 -7.92916,0.754 4.33396,-0.2906 8.81366,-0.347 13.05416,-0.879 -1.708,0.054 -3.4163,0.097 -5.125,0.125 z m 61.5313,-0.375 c 3.9444,1.0512 8.599,0.1812 12.81,0.7388 3.1091,-0.2334 -3.7498,-0.5304 -4.7315,-0.542 -2.6917,-0.1051 -5.3851,-0.1594 -8.0785,-0.1968 z m 0.5,0.4375 c 3.4785,0.5475 11.8292,1.488 12.7332,1.3216 C 85.038,20.5219 80.8072,19.9346 76.5625,19.5 Z M 6,20.5938 c 3.23403,1.0357 8.4644,0.066 12.4375,0.375 C 15.4578,20.2556 9.89597,20.8058 6,20.5938 Z m 78.5938,0.6874 c -1.9044,0.3511 -6.6253,0.4169 -2.1298,0.3351 0.6212,-0.3309 1.7429,0.43 2.1298,-0.3351 z m -0.3126,0.3126 c -0.7297,0.3924 -2.5069,-0.1124 -4.4062,0.5 1.2457,0.3424 7.899,0.011 4.4062,-0.5 z m 0.6876,0.6874 c 1.7825,0.1642 7.7838,0.014 2.5165,0.029 -0.8389,-4e-4 -1.6778,-0.01 -2.5165,-0.029 z m -0.031,0.031 c -0.6871,-0.4018 -1.0445,1.6264 0,0 z m -0.625,0.5313 C 82.9057,22.3454 79.6203,23.1978 78,23.875 c 2.011,-0.3348 4.8029,0.1024 6.3125,-1.0312 z m -2.2187,-0.063 c 1.8191,-0.6104 -7.4128,-0.4895 -2.5774,-0.1038 0.8597,0.018 1.7193,0.047 2.5774,0.1038 z m -3.9376,-0.5 c 2.0349,-0.028 0.5864,-0.4424 -0.2187,-0.031 l 0.2187,0.031 z m 1.2813,-0.1562 c 0.9065,-0.1112 -3.6524,-0.1247 0,0 z m 0.25,0 c 2.3175,0.2952 5.1126,0.1888 1.1563,0 l -0.5766,5e-4 -0.5797,-5e-4 z m 3.375,0.3125 c -0.6414,0.2391 0.3096,0.075 0,0 z m 0.062,0.031 c 0.1932,0.4358 0.4472,-0.355 0,0 z m 0.25,-0.094 c 0.4471,-0.026 -0.1141,-0.2736 0,0 z m 0.1562,-0.094 c 1.5662,0.029 1.3344,-0.043 0,0 z m -3.4374,-0.625 c -2.8828,-0.046 -2.893,0.1654 0,0 z M 6,21.5938 c 3.05092,0.1267 10.9467,0.033 11.4549,-1e-4 -3.8183,-2e-4 -7.63659,-3e-4 -11.4549,1e-4 z m 0,0.7812 c 0.81422,1.6984 8.1716,0.7913 2.59369,0.4535 C 7.72895,22.6783 6.86423,22.5281 6,22.375 Z m 5.1875,0.9062 c 1.4421,0.4588 7.2911,0.5231 6.2817,-0.224 -1.7454,-0.1066 -5.3718,-0.4152 -1.6731,-0.095 5.9407,0.3063 -4.0399,0.1525 -4.6086,0.319 z M 13.25,23.625 c -2.2186,0.018 -3.162,0.053 -0.4519,0.459 1.9677,0.2848 5.5557,0.2024 1.6709,-0.2415 L 13.8622,23.7342 13.25,23.625 Z m 3.4375,0.5938 c 1.3195,0.1893 1.742,-0.086 0,0 z m 0.2813,0.062 c -2.0528,-0.03 -4.3393,-0.068 -1.0082,0.4061 1.1469,0.6328 3.4905,0.045 1.0082,-0.4061 z m -3.1563,0 c -1.8028,-0.018 -7.77877,-0.316 -7.23861,0.082 2.41256,-0.061 4.82521,-0.1005 7.23861,-0.082 z m -3.125,-0.5937 c -2.01764,-0.988 -7.42524,0.3236 -2.34415,0.07 0.7813,-0.026 1.56269,-0.049 2.34415,-0.07 z M 90,23.8438 c -4,0.051 -7.9998,0.1225 -12,0.1562 2.1564,1.2527 6.6473,0.2073 9.654,0.6222 0.8223,-0.2732 2.8016,0.7504 2.346,-0.7784 z m 0,1.7812 c -1.7944,0.3169 -9.173,1.0071 -3.9758,0.5661 C 87.3201,26.0237 88.8676,26.0003 90,25.625 Z m -6.375,0.75 c -2.0201,0.1418 -8.5137,0.3367 -2.9688,0.25 0.99,-0.079 1.9798,-0.1596 2.9688,-0.25 z m -2.9688,0.25 c -1.7763,-0.4092 -4.3001,1.1597 -0.9825,0.771 2.6553,-0.095 9.0565,-0.812 9.7423,-1.0008 -2.9192,0.1 -5.8393,0.1766 -8.7598,0.2298 z M 6,26.625 c 3.8721,0.5078 8.0111,0.6304 12,0.8125 C 14.9412,26.6323 10.4653,27.2181 6.89049,26.7039 L 6,26.625 Z m 84,1.3125 c -4.0009,0.094 -7.9998,0.2571 -12,0.375 2.321,1.0495 6.713,-0 9.8195,0.3086 0.6917,-0.3042 2.6007,0.6952 2.1805,-0.6836 z M 18,28.75 c -3.7131,0.033 -8.94762,-0.02 -11.71875,0.062 C 10.1668,28.7621 14.2186,28.8985 18,28.75 Z m -11.71875,0.062 c 0.49766,1.5734 6.47625,0.9367 8.97305,1.1742 1.6045,0.1701 4.4547,-0.4281 0.9019,-0.3617 -3.3051,-0.059 -6.59787,-0.3973 -9.87495,-0.8125 z M 7.25,30.6875 c -3.86332,1.2335 2.09164,1.7931 3.7731,1.315 1.9277,-0.804 6.7975,1.361 6.9769,-1.1275 -3.5845,-0.029 -7.1651,-0.2013 -10.75,-0.1875 z M 90,31.125 c -3.8675,0.2688 -8.7601,-0.4759 -12,0.4375 3.7829,-0.3196 9.1194,0.7954 12,-0.4375 z m 0,0.9688 c -1.9402,0.2292 -7.2182,0.6977 -6.9529,0.6696 2.3015,-0.2012 4.7595,-0.3278 6.9529,-0.6696 z m -7.625,0.7187 c -1.4095,0.032 -2.2225,0.1606 0,0 z m -0.7812,0.062 c -1.9757,-0.2937 -5.7082,0.9446 -1.5953,0.7407 2.6136,-0.3486 9.2875,0.6798 9.5953,-0.7407 -2.6667,0.012 -5.3334,0.013 -8,0 z m 7.0624,0.6875 c -1.5615,0.1707 -7.0578,0.6733 -2.6198,0.311 0.6507,-0.076 5.8511,-0.3853 2.6198,-0.311 z m -4.75,0.4687 c -1.6467,0.1463 -8.9318,0.556 -3.5292,0.2732 1.1778,-0.072 2.3531,-0.1787 3.5292,-0.2732 z m -2.875,-1.1562 c -2.2975,-0.1427 -4.3113,0.2987 -0.7574,0.05 l 0.7574,-0.05 z M 6.4375,33.8125 c 3.23878,0.14 9.9312,0.3895 11.0313,0.036 -3.6782,0.081 -7.3539,-0.043 -11.0313,-0.036 z M 18,34.0312 c -3.7185,0.4715 -9.43103,-0.87 -12,0.875 3.86125,-0.5654 8.6022,-0.033 12,-0.875 z m -12,1.25 c 2.91457,0.2408 10.2149,0.01 11.4297,0.031 C 13.6198,35.2992 9.80945,35.3485 6,35.2812 Z m 72,0 c 3.8024,0.1761 8.0933,0.042 12,0.031 -4,0 -8,-0.011 -12,-0.031 z M 90,36.25 c -3.8996,0.1756 -8.523,-0.3359 -12,0.2812 3.8944,-0.1638 8.5794,0.3692 12,-0.2812 z m -84,0.094 c 2.91672,0.1801 9.9529,-0.033 10.6639,0.031 -3.5547,-2e-4 -7.10939,0 -10.6639,-0.031 z m 12,0.5937 C 14.7899,37.0426 8.91127,37.2892 7.375,37.5 10.9023,37.2247 14.5177,37.1271 18,36.9375 Z M 7.375,37.5 c -3.84873,0.6317 3.0853,0.418 4.176,0.3881 2.085,0.044 9.702,-0.178 3.746,-0.2904 -2.6408,-0.021 -5.281,-0.098 -7.922,-0.098 z M 90,37.375 c -3.9899,0.048 -8.0619,-0.018 -12,0.062 4,-0.017 8,-0.034 12,-0.062 z M 6.78125,37.5 c -1.04451,-1.0011 -1.03962,1.1286 0,0 z M 90,37.625 c -3.9899,0.061 -8.0619,0.01 -12,0.094 3.9899,-0.032 8.0622,0.018 12,-0.094 z m -72,1.3125 c -3.9301,0.2203 -8.62278,-0.3246 -12,0.7813 3.94302,-0.5485 8.1896,-0.4869 12,-0.7813 z m -12,1.125 c -0.0417,0.6246 2.33477,-0.5215 0,0 z m 0.875,0.031 c 3.6954,0.1288 7.4791,0.1211 11.125,0.094 -3.7084,-0.022 -7.4167,-0.054 -11.125,-0.094 z m 1.3125,0.062 c -1.87639,-0.2715 -3.294,0.4606 -0.31275,0.3587 2.75875,0.1337 8.72035,-0.045 9.62675,-0.2038 -3.1052,-0 -6.211,-0.026 -9.314,-0.1549 z M 90,40.2188 c -3.3544,0.1326 -10.0992,-0.095 -11.4798,0.2298 1.7248,0.025 5.248,0.1876 1.6178,0.01 -4.5775,-0.1621 3.1167,-0.026 4.6671,-0.039 1.6142,-0.1518 4.0095,0.3636 5.1949,-0.1991 z m 0,0.25 c -2.2431,0.2295 -4.1831,0.4045 -0.783,0.4825 1.0186,0.6462 0.7418,-0.088 0.783,-0.4825 z m -3.125,0.3437 c -2.2434,-0.1179 -6.7662,-0.3769 -2.1205,-0.091 0.7069,0.02 1.4128,0.1846 2.1205,0.091 z m -0.5625,0.031 C 83.615,41.3252 80.3986,41.0878 78,41.625 81.9779,41.5188 86.125,41.4015 90,41.25 88.7718,41.1063 87.545,40.9469 86.3125,40.8438 Z M 18,41.6875 c -3.9798,0.06 -8.12435,-0.029 -12,0.1563 3.27342,0.01 10.4181,-0.182 11.2294,-0.019 -2.1468,0.2594 -7.37818,0.4506 -2.6391,0.5083 2.2258,0.031 3.6015,0.2668 2.8305,-0 0.8046,0.3197 0.5355,-0.2989 0.5792,-0.6427 z m -1.4688,0.7187 c -2.8437,0.1007 -9.3719,-0.6604 -10.2187,0.75 3.41333,-0.1367 6.8215,-0.393 10.2187,-0.75 z m -5,-0.125 c 0.9687,-0.089 -9.11155,0 -3.43639,-0.014 1.14549,-0 2.29099,-9e-4 3.43639,0.014 z M 90,43.25 c -1.9599,0.1285 -7.018,0.2289 -2.4063,0.1505 C 88.3102,43.2996 89.5026,43.5551 90,43.25 Z m -9.0312,0.2812 c -2.1635,0 -4.229,0.091 -0.7413,0.017 l 0.7413,-0.017 z M 78,43.7188 c 1.6167,0.2271 3.8287,0.038 0.8438,0.062 3.1998,0.011 1.2847,-0.01 -0.8438,-0.062 z M 6,43.75 c 1.94935,0.1176 7.5894,0.047 2.57823,0.032 C 7.71884,43.7701 6.85945,43.7573 6,43.75 Z m 5.1562,0.062 c 1.3735,0 7.533,0.023 6.0001,-0.031 -2,0.01 -3.9999,0.053 -6.0001,0.031 z m 71.0938,0 c 2.0108,-0.035 7.0009,0.1207 7.2658,-0 -2.4219,-0.011 -4.8439,0 -7.2658,0 z M 78,43.9062 c 3.384,0.7791 8.4065,0.2689 12,0.125 -4.0004,0.021 -8.0002,-0.073 -12,-0.125 z m 3.7188,0.4063 c -1.4656,-0.3252 -6.0628,0.677 -2.015,0.6213 3.3335,-0.1599 7.3795,0.2521 10.2962,-0.4026 -2.7607,-0.077 -5.5243,-0.04 -8.2812,-0.2187 z M 15.1562,44.75 c -1.6759,0.086 -7.97812,0.6944 -6.56405,0.5603 2.18515,-0.2191 4.37345,-0.4056 6.56405,-0.5603 z m -7.49995,0.6562 c -4.84272,0.239 3.51245,0.4292 0.66111,0.1012 L 7.65625,45.4062 Z m -0.15625,0 c -1.24705,-0.5849 -2.70495,0.3525 0,0 z M 90,44.8125 c -2.0559,0.065 -9.7625,0.1458 -4.0625,0.125 1.2879,-0.068 3.0396,0.2248 4.0625,-0.125 z m 0,0.4063 c -2.5936,0.5411 -7.0973,1.1985 -8.4688,1.375 2.7257,-0.4767 6.2056,-0.5105 8.4688,-1.375 z m -8.4688,1.375 c -1.3274,0.1704 -5.6341,0.702 -1.7503,0.5724 2.9922,-0.7927 8.7161,1.2867 10.2191,-0.885 -2.8236,0.085 -5.6457,0.2115 -8.4688,0.3126 z m -0.375,0.031 c -1.7915,-0.1709 -4.9849,0.6743 -1.2094,0.1514 l 0.5989,-0.075 0.6105,-0.076 z M 18,45.625 c -2.163,0.023 -8.25283,-0.01 -7.9976,0.061 2.6558,-0.027 5.3939,0.017 7.9976,-0.061 z m -8.53125,0.062 c -1.44641,-0.1929 -5.41734,0.095 -1.92255,0.7586 3.0254,0.9954 8.4974,1.4024 10.4538,-0.2586 -2.8425,-0.1472 -5.7207,0.021 -8.53125,-0.5 z m 7.25005,1.3437 C 13.4455,47.8596 8.23957,46.5762 6.125,47.8125 9.90867,47.2399 14.9952,48.1012 18,47 l -0.6411,0.015 -0.6401,0.016 z M 78,49.2188 c 1.3117,1.916 6.2742,0.075 8.8775,0.6861 1.8326,0.5039 4.9601,-0.7566 1.3708,-0.6493 -3.4164,0.03 -6.8321,-0.047 -10.2483,-0.037 z M 6,49.75 c 1.66356,0.3206 4.0977,-0.062 0.71774,0.015 L 6,49.75 Z m 12,0.4375 C 14.7654,50.3047 7.87731,50.3327 6.55476,50.4387 10.2428,50.2572 15.0347,50.9564 18,50.1875 Z m 72,0.1875 c -3.9868,0.2371 -8.0604,0.2816 -12,0.4374 3.9912,-0.1049 8.0652,-0.1539 12,-0.4374 z m -84,0.5 c 2.93183,0.1592 10.7622,0.034 11.2496,0.032 -3.7498,0 -7.50004,0 -11.2496,-0.032 z m 72,0.1562 c 0.01,1.08 3.5871,0.028 0.6562,0.375 3.7455,-0.093 7.8515,0.1445 11.3438,-0.1874 -4.0004,-0.01 -8.0025,-0.023 -12,-0.1876 z m 12,0.3438 c -2.7005,0.044 -8.7513,0.044 -9.3761,0.07 3.0443,-0.099 6.7001,0.3923 9.3761,-0.07 z M 6,51.2188 c 2.2752,1.0981 6.622,0.1006 9.6817,0.4395 2.4846,0.3365 3.0384,-0.7295 0.2313,-0.4415 -3.3043,0.01 -6.6088,0.02 -9.913,0 z m 12,0.8437 C 14.8113,52.5283 7.70657,52.3703 6.59357,52.5357 10.1726,52.1553 15.4363,53.5368 18,52.0625 Z M 11.375,52.75 c -1.3073,-0.2847 -8.30575,0.3341 -3.6802,0.5636 3.264,-0.2873 7.8207,0.5597 10.3052,-0.5323 -2.2083,-0 -4.4166,-0.053 -6.625,-0.031 z m 1.3125,0.5625 c -2.0418,0.01 -4.12442,0.09 -0.9688,0.048 1.926,0 9.4219,-0.031 3.6258,-0.048 -0.8857,-10e-5 -1.7715,2e-4 -2.657,5e-4 z M 9.625,53.375 c -1.72875,-0.1328 -5.54097,0.3041 -1.67794,0.07 0.55831,-0.044 1.11827,-0.057 1.67794,-0.07 z M 88.1875,52.9375 C 84.8444,53.0623 81.0824,52.7873 78,53.1874 c 3.9161,-0.081 8.4793,0.4168 12,-0.2063 0.043,-0.6617 -1.7704,0.5277 -1.8125,-0.044 z M 78,53.3125 c 3.1646,0.5552 7.2828,0.1412 10.8125,0.331 2.8227,-0.3147 -4.6406,-0.1669 -6.0541,-0.2477 C 81.1722,53.3709 79.586,53.3491 78,53.3125 Z M 6,54.1562 c 3.18863,0.7913 8.3888,0.1838 12,0.125 -4.0001,-0.034 -7.9998,-0.1027 -12,-0.125 z m 12,0.4376 c -3.3099,0 -10.11252,0.05 -11.3829,0.091 3.779,-0.015 7.7097,0.056 11.3829,-0.091 z m 70.0938,0.4687 c -2.9448,0.084 -7.1344,0.085 -9.3438,0.1874 3.1161,0.012 6.23,-0.081 9.3438,-0.1874 z M 78.75,55.25 c -2.1479,0.7618 4.0277,0.7507 5.1329,1.1464 1.2107,0.034 7.8558,1.8158 5.4149,0.1099 C 85.7845,56.0664 82.2742,55.5966 78.75,55.25 Z m 10.9688,2.1562 c -2.3304,0.053 -7.5529,0.089 -8.0379,0.095 2.4187,-0 6.7905,0.1413 8.0379,-0.095 z M 78.5312,55.2188 c -0.7077,-0.7518 -0.71,0.7088 0,0 z M 18,57.375 c -4.0015,0.1902 -8.00786,0.3055 -12,0.6562 3.01638,0.4762 8.6154,-0.051 12,-0.5813 l 0,-0.075 z M 78,58 c 3.9343,0.3079 8.0736,0.6999 12,1 -3.9956,-0.3806 -7.9948,-0.7366 -12,-1 z m -60,0.4375 c -3.9469,0.2898 -8.31267,0.1349 -12,0.6563 3.9418,-0.3481 8.3111,-0.2855 12,-0.6563 z m 66.75,1.5 c -1.7002,0.2384 -8.8405,-0.5457 -5.9859,1.3904 2.8282,-0.062 8.4585,0.056 9.3996,0.4831 -1.9041,0.2197 -5.5904,0.5276 -1.6632,0.1941 1.6151,-0.054 5.3939,-0.6676 1.4967,-0.576 -4.3221,-0.053 4.9615,0.2589 1.0207,-0.8399 C 87.6027,60.3379 86.1854,60.04 84.75,59.9375 Z m 4.0625,1.8125 c 1.4008,0.6016 1.9672,-0.4212 0,0 z M 18,60.2812 C 14.0136,60.5868 9.94288,60.7945 6,61 9.99426,60.8441 14.0659,60.6346 18,60.2812 Z M 6,61.125 c 2.73756,0.3376 10.9944,0.2234 11.2498,10e-4 C 13.4999,61.1311 9.74983,61.1386 6,61.125 Z m 0,0.1875 c 3.31276,0.6464 8.3695,0.1934 12,0.094 -4,-0.029 -8.00013,-0.071 -12,-0.094 z m 73.4688,1.125 c -3.6934,0.1401 -0.3539,0.079 0,0 z m 0.1562,0.031 C 83.0606,62.6221 86.7288,63.2556 90,63.3438 86.5453,63.048 83.0819,62.6265 79.625,62.4687 Z M 6,62.5 c 2.99121,0.08 10.8049,0.089 11.2494,0 -3.7498,0.015 -7.49965,0.026 -11.2494,-0 z m 0,0.25 c 2.21939,1.5967 7.0838,0.502 10.1705,1.033 C 21.1631,63.3459 13.5131,62.8412 11.9979,62.99 9.99804,62.9259 7.99847,62.8496 6,62.75 Z m 3.9375,0.8438 c -2.1768,-0.026 -5.77015,0.046 -1.47568,0.011 0.49188,-0.01 0.98377,-0.01 1.47568,-0.011 z M 90,63.75 c -1.7141,0.3872 -6.7924,0.8965 -2.5625,0.7188 0.7378,-0.3267 2.947,0.6977 2.5625,-0.7188 z m -0.5625,0.7188 c -1.751,0.3125 -7.6984,0.5736 -6.5625,0.8746 1.4535,0.1268 5.0998,0.8309 1.4974,0.4853 -1.7096,-0.3991 -8.416,-0.5057 -3.5598,0.1079 3.5365,0.2954 0.6797,0.4646 0.2812,0.5633 0.9848,0.06 5.1951,0.1771 2.1562,-0.2187 2.401,-0.753 5.354,0.4584 6.75,-1.5564 l 0,-0.2248 -0.5625,-0.031 0,0 z m -2.3437,1.4374 c -0.795,0.7807 5.6741,-0.064 1.4375,-0.058 l -0.7196,0.037 -0.7179,0.021 0,0 z m 1.9374,0.4376 c -1.2343,0.1615 -6.3927,0.023 -2.75,0.4687 -2.0537,-0.1915 -6.0953,-0.3204 -1.7808,-0.082 2.2783,-0.1548 3.3787,0.7481 5.4996,-0.175 0.053,-0.3912 -0.9172,0.089 -0.9688,-0.2122 z m -2.125,0.5312 c 1.2152,0.3954 5.0328,0.34 1.547,0.092 l -0.773,-0.046 -0.774,-0.046 z m -4.8124,-0.2812 c -2.1791,-0.2345 -6.0225,0.2489 -1.5939,0.048 0.5313,-0.016 1.0625,-0.034 1.5939,-0.048 z m -1.625,-0.094 c -1.0695,-0.1544 -4.5016,-0.1267 0,0 z m -1.9376,-0.9063 c -0.7145,-0.8579 -0.7252,0.8096 0,0 z m 1.8126,-0.1875 c 3.1407,-0.098 0.017,-0.4889 -1.3126,-0.125 l 0.6563,0.063 0.6563,0.062 z m -1.3126,-0.125 c -1.405,-0.3066 -1.4041,0.2241 0,0 z m 1.5938,-0.1875 c 2.004,-0.2485 6.9578,-0.7427 2.1588,-0.6013 -1.6207,-0.1736 -7.4576,-0.1311 -2.8148,0.518 l 0.656,0.083 z M 6,64.1562 c 2.97042,0.9495 8.6089,0.4349 12,0.2812 -3.9988,-0.137 -7.9994,-0.2199 -12,-0.2812 z m 0,1.375 c 2.66755,0.6626 10.2863,-0.1 11.3555,0.1253 C 13.5692,65.6909 9.78543,65.587 6,65.5312 Z m 7.0312,1.1876 C 11.1261,66.9222 6.80776,66.4581 6.09375,66.9373 10.0329,67.174 14.201,67.7404 18,67.2499 14.0707,67.176 10.1417,67.0509 6.21875,66.8124 c 2.49106,-0.028 9.12165,-0.081 9.11245,-0.072 -0.7666,-0.01 -1.5333,-0.021 -2.3,-0.022 z m 1.7188,0.75 c -2.1411,0.049 -4.2319,0.1102 -0.9688,0.1248 -2.5306,0.06 -5.5708,-0.11 -7.7812,0.5 4.0017,0.1043 7.9973,-0.2329 12,-0.1875 0.2476,-0.9687 -2.7482,-0.043 -3.25,-0.4373 z m -5.5,0.6562 c -3.43707,0.1486 4.092,0.2537 5.7773,0.4595 1.7944,0.4068 4.6185,-0.2051 1.1085,-0.2448 C 13.8416,68.2328 11.5459,68.1752 9.25,68.125 Z m -1.625,0.094 c -2.23069,-0.054 -2.21924,0.2229 0,0 z m 3.4375,-0.625 c 1.0962,-0.099 -8.39769,-0.043 -3.16365,8e-4 1.05454,-0 2.10915,-0.01 3.16365,-8e-4 z m 75.7187,-0.1563 c -1.6145,0.2541 1.3103,0.2412 0,0 z m 0.3438,0.125 c 0.2248,0.7408 1.0366,-0.587 0,0 z m 0.3438,0.1875 c 1.556,0.2908 3.8171,-0.079 0.6333,1e-4 l -0.6333,-2e-4 0,1e-4 z m -0.063,0.094 c -0.4033,-0.2953 -0.2927,0.8177 0,0 z m -0.25,0.25 c -0.268,0.1559 0.1275,0.1808 0,0 z m -0.031,0.125 c 0.2456,0.7783 5.0814,0.261 1.4382,0.1024 l -0.7198,-0.052 -0.7184,-0.05 0,0 z m -0.094,0.25 c -1.2749,-0.085 -0.5934,1.1038 0,0 z m -0.7187,0.375 c -3.1254,-0.8077 -5.7127,-0.3329 -4.96,-0.7412 -1.8648,-0.3021 -5.2593,0.1748 -1.2656,0.1907 1.6813,-0.071 -4.691,0.2979 -0.4662,0.3739 2.1852,-0.1677 4.647,0.5686 6.6918,0.1766 z m -3.8437,-0.6875 c 2.0038,0.2686 6.8518,0.2134 2.2234,-0.1194 -0.7454,-0.1339 -1.4808,0.1026 -2.2234,0.1194 z M 84.0312,68 c 5.0952,-0.3469 -4.0823,-0.078 -1.0624,-0.2499 -1.763,-0 -5.871,0.059 -1.9583,0.062 1.8383,-0.014 -2.218,0.042 0.4313,0.067 0.8632,0.038 1.7266,0.078 2.5894,0.1208 z M 80.625,67.8438 c -1.93,-0.1207 -3.7524,0.1178 -0.6551,0.019 l 0.6551,-0.019 z m -1.7188,-0.063 c -1.208,-1.251 -1.2093,1.2087 0,0 z m 6.875,0.031 c 1.7387,0.1582 2.0535,-0.2211 0,0 z m 0.125,-0.062 c 1.0405,-0.3509 -4.8079,0.1553 -1.3124,-3e-4 l 0.656,1e-4 0.6564,2e-4 z M 18,70.25 c -1.8523,0.095 -3.6186,0.2444 -0.5625,0.062 L 18,70.2813 l 0,-0.031 0,-1e-4 z m -2.1875,0.1562 c 0.1178,0.088 4.4087,-0.019 0,0 z m -0.3437,0.031 c -2.3714,0.1625 -8.92124,0.4789 -8.71423,0.5016 2.9079,-0.1082 5.81213,-0.2912 8.71423,-0.5016 z m -0.4063,0 C 13.3484,70.4534 8.54965,70.2623 6,70.5001 c 3.02061,-0.041 6.0418,-0.06 9.0625,-0.063 z M 78,70.4686 c 3.8703,0.1572 8.0792,0.146 12,0.1562 -4,-0.052 -7.9997,-0.1287 -12,-0.1562 z m 0,0.375 c 0.565,1.1929 4.165,0.1721 0.6328,0.1172 L 78,70.8438 l 0,-2e-4 z m 2.5312,0.4688 c 2.8345,0.1517 7.7884,1.5433 9.4688,-0.088 -2.8288,-0.2881 -6.3738,0.1457 -9.4688,0.088 z m 2.375,0.4062 c -6.6084,-0.2547 4.7657,0.8203 0,0 z M 84.375,72 c 1.7388,0.089 8.4455,-0.01 3.2349,0 -1.0783,1e-4 -2.1566,1e-4 -3.2349,0 z m 0.25,0.031 c -4.8017,-0.1502 3.4644,0.617 0,0 z m 1.1875,0.2187 c 1.6297,0.1839 6.3627,-0.028 2.0937,4e-4 -0.6979,-6e-4 -1.3958,-0 -2.0937,-4e-4 z m 0.2187,0.062 c -5.3147,-0.134 3.008,0.336 0,0 z m 0.75,0.094 c 1.9214,0.8826 5.1071,-0.047 1.3126,-0.01 l -0.656,0 -0.6566,0.01 z m -1.3437,0.031 C 83.2679,73.0106 78.9934,71.4399 78,73.1562 c 3.9264,-0.137 8.4452,0.2532 12,0 -1.5221,-0.2315 -3.0408,-0.486 -4.5625,-0.7189 z m -0.9687,-0.125 c -1.7339,-0.047 -5.4227,-0.058 -6.2188,0 2.0729,-9e-4 4.1458,0 6.2188,0 z M 82.875,72.0312 c -1.7949,-0.091 -7.4014,0.013 -2.5182,0 0.8394,0 1.6788,0 2.5182,0 z m -2.25,-0.3124 c -2.0552,-0.6869 -3.9315,0.029 -0.6579,-0.01 l 0.6579,0.01 0,1e-4 z M 18,71.4375 c -1.9174,0.098 -8.93384,0.094 -3.7026,0.092 1.1526,-0.093 2.8214,0.2327 3.7026,-0.092 z M 6,71.5 c -0.0836,0.3724 1.17706,-0.1716 0,0 z m 0.4375,0.062 c 2.11159,0.055 7.6248,-0.081 2.61021,-0.019 -0.87007,0.01 -1.74032,0.011 -2.61021,0.019 z m 0.40625,0.031 c 1.34964,0.1866 6.74335,0.586 9.66265,0.6875 -2.4958,-0.1469 -6.56938,-0.4217 -9.66265,-0.6875 z m 9.84375,0.6875 c 1.5207,0.099 2.0692,-0.048 0,0 z m 0.5,0.031 c -2.3215,-0.03 2.6875,0.1198 0,0 z m -0.7187,0 c -3.4772,-0.053 -7.04173,-0.079 -10.4688,0 3.48962,0.025 6.9791,0 10.4688,0 z M 6.375,71.5938 c -0.1877,-0.064 -0.81041,0.025 0,0 z M 6,72.7812 c 3.92906,0.049 8.0713,0.055 12,0 -4,8e-4 -8,1e-4 -12,0 z m 84,0.9376 c -4.0461,0.4705 -8.2022,0.5634 -12.2188,0.6874 4.0726,-0.086 8.1449,-0.2139 12.2188,-0.1875 0,-0.1661 0,-0.334 0,-0.4999 z M 6,74.4062 c 1.80735,0.382 6.7472,0.7398 2.28107,0.2672 C 7.52081,74.5836 6.76061,74.4931 6,74.4062 Z m 4.5625,0.5313 c 2.0023,0.4012 7.5008,0.2394 7.324,-0.086 -2.4412,0.037 -4.8826,0.075 -7.324,0.086 z m 2.0313,0.25 c 0.06,0.1923 3.9396,0.384 0.5605,0.062 l -0.5605,-0.062 0,-1e-4 z m 2.25,0.25 c 1.6123,0.1878 5.9214,-0.038 1.7565,-2e-4 -0.5855,-5e-4 -1.171,-0 -1.7565,2e-4 z m 0.1874,0.062 c -0.6032,0 7.0118,0.8344 1.9408,0.2204 -0.6447,-0.092 -1.2933,-0.1527 -1.9408,-0.2204 z m -2.75,-0.3125 c -1.631,-0.6028 -9.4446,0 -4.17324,0.094 1.39111,-0.031 2.78234,-0.06 4.17324,-0.094 z M 90,75.0312 c -4.1295,0.3731 -9.1937,-0.5456 -12.7812,0.6874 4.26,0.08 8.52,0.1738 12.7812,0.1562 0,-0.281 0,-0.563 0,-0.8436 z M 6,75.4375 c 1.87706,0.1251 8.7056,-0.011 3.34373,0.023 C 8.22915,75.4545 7.11445,75.4337 6,75.4375 Z m 0,0.5313 c 4.3279,-0.011 8.8598,0.131 13.0625,0.094 C 14.7085,75.9994 10.3543,75.9955 6,75.9688 Z M 90,77.375 C 82.3795,77.9427 74.734,78.344 67.0938,78 74.72,78.4749 82.4457,78.0057 90,77.375 Z M 20.9375,77.5312 C 15.9596,77.8691 10.9673,78.0203 6,78.5 c 0.60286,0.8442 2.4565,-0.07 0,0.4688 14.3355,-0.4707 28.7103,-0.3465 43.0625,-0.3125 -13.8299,-0.1519 -27.6687,-0.062 -41.5,0.1249 4.0465,-0.4143 11.2727,-0.6817 13.375,-1.25 z m 26.9375,1.0626 c 0.055,-0.056 -7.4538,-0.5367 -5.879,-0.4376 1.9596,0.1468 3.9187,0.3001 5.879,0.4376 z m 0.375,0 c 13.9115,0.16 27.8469,0.2257 41.75,0.2186 -2.9947,-1.1954 -8.5218,0.021 -12.5059,-0.3577 -9.748,0.059 -19.4963,0.09 -29.2441,0.1391 z m 40.2812,0.3437 C 80.871,79.5503 73.1799,79.5945 65.5,79.5 73.6663,79.641 81.8344,79.4889 90,79.375 90.2611,78.4718 88.881,79.2486 88.5312,78.9375 Z M 49.4688,78.6562 c 0.066,0.086 9.2995,0.6697 3.2805,0.2445 -1.0931,-0.087 -2.1867,-0.1679 -3.2805,-0.2445 z M 6.5,79.0312 c 2.18214,0.2225 9.7769,0.7943 10.0265,0.8608 C 13.1896,79.5463 9.84696,79.2596 6.5,79.0312 Z m -0.1875,0.031 c -0.41563,-0.4612 -0.41958,0.4176 0,0 z M 6,80.625 c 2.75174,0.4671 9.6175,0.9995 10.1072,0.8924 C 12.7326,81.2885 9.36053,81.0113 6,80.625 Z m 10.7812,0.9375 c -0.2743,0.088 5.5848,0.2845 1.0817,0.073 -1.547,-0.1824 9.61,-0.2975 4.0587,-0.2351 -1.7147,0.01 -3.4277,0.086 -5.1404,0.1617 z m -0.125,0.031 c -2.0298,0.049 -7.30069,0.3924 -2.5003,0.1174 0.8332,-0.043 1.6666,-0.084 2.5003,-0.1174 z M 52.25,80.6562 c -3.3145,0.147 4.0468,-0.071 0,0 z m 1.5,0 c 2.1957,-0.052 8.0127,0.1745 8.0621,0.1594 -2.6864,-0.1134 -5.3729,-0.1988 -8.0621,-0.1594 z m -30.1562,0.031 c 1.8073,0.2602 6.7876,0.958 2.2819,0.3057 -0.76,-0.1067 -1.5203,-0.2112 -2.2819,-0.3057 z m 25.0624,0.125 c -2.7057,0.1474 -6.6045,0.3852 -6.9168,0.5013 9.9513,0.07 19.9044,0 29.8544,0.1237 -9.3385,-0.5719 -18.7098,-0.1827 -28.0626,-0.2812 1.7081,-0.1186 3.4151,-0.254 5.125,-0.3438 z m 19.375,0.375 c 1.7898,-0.02 -3.5656,-0.2426 -4.7271,-0.3073 -1.9495,-0.1096 3.8725,0.2323 4.7271,0.3073 z m 0.9063,0 c 5.5567,0.3242 11.1174,0.7671 16.6875,0.6251 -5.5642,-0.1621 -11.1218,-0.5113 -16.6875,-0.6251 z m 11.6875,0.6563 c -1.6795,0.01 -4.7123,-0.057 -1.3838,0.1618 2.927,0.4233 8.4997,0.2692 9.6758,0.2932 -2.7663,-0.1024 -5.5282,-0.3005 -8.292,-0.455 z m 8.8125,0.4687 c 0.7494,0.7933 0.7517,-0.7505 0,0 z m -7.0313,-0.031 c 0.8157,0.1389 6.8402,0.5775 7.1189,0.617 -2.3736,-0.1976 -4.746,-0.4103 -7.1189,-0.617 z m -0.3124,0 c -9.8434,-0.8965 -19.754,-0.3263 -29.6267,-0.3835 -6.1206,0.1347 -12.4491,-0.038 -18.4359,0.2272 4.4313,0.6046 8.887,1.0305 13.3438,1.4062 -3.7612,-0.3688 -10.98,-0.9908 -12.4329,-1.3988 15.7176,0.138 31.434,0.1799 47.1517,0.1489 z M 34.0312,82.125 c -0.1142,-0.1154 -0.6296,0.1127 0,0 z m -0.2812,0 c -8.9141,-0.028 -17.722,1.9916 -26.65625,1.9062 -2.0876,0.6965 5.25955,0.3196 7.11395,0.2119 2.0348,-0.1312 7.3159,-0.4305 2.3732,0.059 -1.6136,0.1613 3.7232,-0.015 4.9363,-0.01 3.7956,-0.093 7.5924,-0.1294 11.389,-0.1395 -3.7125,-0.1487 -11.8535,-0.061 -12.749,-0.2663 4.5357,-0.5514 9.0679,-1.1396 13.5928,-1.765 z m -0.8438,2.0312 c 2.0014,0.053 9.4251,0.039 3.9379,-0.01 -1.3126,-0 -2.6252,9e-4 -3.9379,0.01 z M 15.7188,84.375 c -2.1176,-0.01 -10.23576,0.1087 -4.3125,0.087 1.4383,-0.014 2.8782,0.056 4.3125,-0.087 z m -1.5313,0.094 c -1.8135,0.089 -1.1691,0.1024 -3.9033,0.1577 -1.82407,-0.4483 -6.28835,0.7288 -2.25234,0.5569 2.34604,-0.2635 8.22494,-0.5941 8.26524,-0.7184 -0.7032,-1e-4 -1.4065,0.01 -2.1096,0 z m 2.8125,0 c 14.3,0.4793 28.6042,0.1071 42.9062,-1e-4 C 45.6069,84.2645 31.296,83.9868 17,84.4687 Z m 42.9062,0 c 9.4716,0.1348 18.9493,0.3813 28.4063,0.8125 -2.0678,-0.132 -9.005,-0.3816 -3.4375,-0.2186 1.9495,0.054 7.0054,0.069 2.2549,-0.014 -5.6749,-0.01 -11.334,-0.4455 -17.0049,-0.5795 2.3307,0.066 7.2827,0.3044 7.8918,0.3616 -6.0359,-0.1502 -12.073,-0.3315 -18.1106,-0.3619 z m 1.7188,0 c 2.3077,-0.027 7.4625,0.043 7.9531,-0.032 -3.0019,-0.066 -10.1828,-0.018 -10.4357,-0.016 0.8276,0.015 1.6551,0.033 2.4826,0.048 z m 9.0312,0 c 6.4057,0.067 12.8197,-0.2163 19.2188,0.1563 -2.2891,-0.6995 -6.4712,0.033 -9.5064,-0.2183 -3.602,4e-4 -7.2041,9e-4 -10.8061,-5e-4 l 0.5469,0.031 0.5468,0.032 0,-1e-4 z m 18.9063,0.625 c 0.1246,0.2062 0.5336,-0.2791 0,0 z m -0.1563,0.031 c -3.2706,0.2297 1.4632,0.2682 0,0 z m -1.375,0.1875 c -2.9644,0.3979 -9.6507,0.7562 -10.086,0.7779 3.6759,-0.4228 8.8673,0.1492 11.6173,-0.7154 l -0.7656,-0.031 -0.7657,-0.032 z M 77.1875,86.125 c -8.2454,0.3775 -16.4988,0.5278 -24.75,0.7188 8.2525,-0.065 16.5056,-0.3516 24.75,-0.7188 z M 57.25,86.8125 c -1.8758,0.087 -6.5997,0.095 -2.25,0.375 7.0948,-0.035 14.1941,-0.039 21.2812,-0.4063 -6.3438,-0.025 -12.6876,0.026 -19.0312,0.031 z M 55,87.1875 c -0.3439,0.073 2.1292,0.1947 0,0 z m 1.0938,0.125 c 7.4959,0.3942 15.0264,0.3158 22.5311,0.6194 2.3547,-0.1309 9.23,0.1405 8.7506,0.017 -1.8251,-0.065 -7.5487,-0.097 -6.9442,-0.091 2.8008,-0.2566 6.002,0.107 8.5375,-0.8273 -10.9521,0.4991 -21.9165,0.3485 -32.875,0.2811 z M 58.0625,87.5 c 0.4208,0.099 6.4763,0.5991 6.3021,0.526 C 62.263,87.8613 60.1627,87.6814 58.0625,87.5 Z m 6.7813,0.5625 c 1.8957,0.064 6.8478,-0.084 2.3454,-0.016 -0.7818,0.01 -1.5638,0.01 -2.3454,0.016 z m 0.3437,0.031 c 2.8009,0.3509 9.7152,0.5632 14.0991,0.5642 2.733,-0.078 5.5854,0.1721 8.2446,-0.064 -7.4507,0.1037 -14.9097,0.056 -22.3437,-0.5 z m -0.4687,0 c -1.9229,-0.064 -6.938,0.081 -2.3763,0.011 0.7921,-0 1.5844,-0.01 2.3763,-0.011 z M 57.75,87.5 c -4.2546,-0.3967 -8.5434,-0.1303 -12.8125,-0.25 4.2705,0.099 8.5418,0.1687 12.8125,0.25 z M 44.9375,87.25 c 4.1705,-0.1048 -3.1074,-0.087 -4.504,-0.1674 -5.5173,-0.033 7.2825,0.2342 0.9998,0.162 -1.8949,-0.039 -9.4068,0.092 -4.019,-0.1232 1.3031,-0.053 -4.0593,-0.2282 -5.4604,-0.1688 -8.0566,0.011 -16.1049,0.4488 -24.1414,0.9848 8.8234,-0.3215 17.8912,-0.7521 26.8125,-0.6875 -8.5002,0.5878 -16.9738,1.5917 -25.5,1.7812 3.5634,0.4956 5.0597,0.067 9.2045,0.1937 4.5151,-0.019 9.0303,-0.03 13.5455,-0.037 -6.2708,0.01 -12.5417,-0 -18.8125,0.031 9.6806,-0.5023 19.2889,-2.0841 29.007,-1.9047 0.9559,-0.016 1.912,-0.07 2.868,-0.064 z m -32.5,2 c -2.2321,-0.098 -3.96535,0.1946 -0.6682,0.032 L 12.4375,89.25 Z M 33.875,86.9375 C 32.9103,86.86 27.0025,86.5981 24.0476,86.4053 20.3226,86.19 16.5986,85.958 12.875,85.7188 c 6.9965,0.464 13.993,0.9399 21,1.2187 z m -21,-1.2187 c -1.6778,-0.16 -10.00922,-0.557 -4.12006,-0.2247 1.37416,0.06 2.74756,0.1363 4.12006,0.2247 z m 21.5938,1.2187 c 5.5711,0.2208 11.147,0.054 16.7187,-0.062 -5.5684,-0.073 -11.1468,0.046 -16.7187,0.062 z m 16.5,-0.094 c -2.4186,-0.321 -7.0445,-0.6867 -10.3057,-0.9266 -8.5345,-0.5913 -17.0753,-1.1659 -25.6319,-1.2921 12.0012,0.3239 23.9836,1.1211 35.9376,2.2187 z m 0.25,0 c 0.45,0.1216 1.7143,-0.1212 0,0 z m 0.2187,0.031 c -0.4469,0.017 2.0677,0.1519 0,0 z m 1.0625,0.094 c -1.6904,0.057 -8.0046,0.2552 -3.2616,0.2249 1.6681,-0.043 8.2322,0.1201 3.2616,-0.2249 z m -40,-2.4063 c -1.9051,-0.088 -7.03953,-0.099 -2.3906,-0.038 0.7969,0.01 1.5938,0.02 2.3906,0.038 z M 7.71875,84.5 c -1.9627,-0.1244 -2.3294,0.1355 0,0 z M 31.125,82.0625 c 2.1878,-0.1278 -3.8887,-0.058 -5.2227,-0.1457 -1.9407,-0.046 -3.8676,-0.1017 -0.8445,-0.01 2.022,0.064 4.0444,0.1178 6.0672,0.152 z M 32.2188,82 c 1.7571,0.2306 0.317,-0.2335 0,0 z m 0.4374,-0.062 c -1.1475,-0.2958 -6.9544,-0.9478 -2.1334,-0.3064 0.7113,0.1012 1.4222,0.2055 2.1334,0.3064 z m -4.1874,-0.625 c 4.8743,-0.1257 9.7582,0.163 14.625,-0.1563 -4.8752,0.038 -9.7502,0.09 -14.625,0.1563 z m 12.0937,0 c -2.0107,0.216 -6.8646,0.3636 -7.3437,0.6874 2.0288,0.075 7.3935,-0.756 7.3437,-0.6874 z M 33.2188,82 c -1.0689,-0.033 2.1392,0.2333 0,0 z m 43.8437,-0.1562 c -0.2511,-0.1314 -8.3003,-0.6358 -3.4167,-0.2586 1.1393,0.081 2.2785,0.1635 3.4167,0.2586 z M 90,81.7812 c -1.5279,0.017 -5.8166,0.017 -1.9943,0.079 0.5242,-0.1176 1.7054,0.2574 1.9943,-0.079 z m -83.34375,0.375 c -0.87843,-0.8345 -0.87251,0.9626 0,0 z m 40.74995,1.375 c 2.6548,0.2597 8.0194,0.4988 9.0406,0.513 -3.0149,-0.1419 -6.031,-0.2824 -9.0406,-0.513 z M 89.25,86.5625 c -2.398,0.09 -8.5158,0.1445 -8.483,0.2042 2.8108,3e-4 5.7576,0.097 8.483,-0.2042 z M 80.0312,86.75 c -1.3519,-0.098 -5.4229,0.083 -1.7967,0.024 l 0.896,-0.011 0.9007,-0.013 0,-1e-4 z m -20.2187,1.375 c -6.4024,0.081 -12.7999,0.4162 -19.1875,0.8437 6.3905,-0.3799 12.7864,-0.7151 19.1875,-0.8437 z m 27.25,0.8125 C 82.94,89.0407 74.2072,89.1695 73.003,89.194 77.63,88.9038 82.6429,89.9862 87.0625,88.9375 Z M 39.6875,89 c -1.5727,0.074 -4.7708,0.308 -1.3914,0.094 l 0.6944,-0.049 0.697,-0.045 z m -2.7813,0.1875 c 11.698,-0 23.396,-0.01 35.0938,0 -11.6977,-0.067 -23.3959,0 -35.0938,0 z m -0.4687,0 c -8.8407,0.2423 -17.6872,0.2577 -26.53125,0.2499 3.70015,1.1798 7.70975,0.2663 11.53775,0.4659 5.0033,-0.1 9.9988,-0.4237 14.9935,-0.7158 z"
       id="path3313-8"
       inkscape:connector-curvature="0" />
    <path
       style="opacity:0.5;fill:url(#linearGradient3188);fill-opacity:1;fill-rule:nonzero;stroke:none"
       d="M 12,6 C 8.11425,5.86322 5.41842,9.7916 6,13.4226 6.01818,37.1117 5.96366,60.8028 6.02722,84.4906 5.28212,86.832 10.5383,90.304 9.3125,89.2188 6.06854,87.1931 7.20932,83.0939 7,79.9177 7.01709,57.4405 6.96584,34.9616 7.02559,12.4854 7.23709,9.18494 10.6966,7.53688 13.6597,8 c 23.6181,0.0171 47.2379,-0.0342 70.8549,0.0256 3.3005,0.2115 4.9485,3.67101 4.4854,6.63411 -0.023,23.6263 0.047,47.2557 -0.035,70.8801 0.6394,2.1759 -4.9496,5.3488 -1.4521,3.2816 C 91.0463,86.3401 89.75,81.8397 90,78.2064 89.9794,55.9328 90.0412,33.6571 89.9691,11.3848 89.7161,7.60949 85.8108,5.47598 82.3403,6 58.8935,6 35.4468,6 12,6 Z"
       id="rect3728"
       inkscape:connector-curvature="0" />
    <path
       style="opacity:0.2;fill:url(#radialGradient3619);fill-opacity:1;fill-rule:nonzero;stroke:none"
       d="M 12,90 C 8.11425,90.1368 5.41842,86.2084 6,82.5774 6.01818,58.8883 5.96366,35.1972 6.02722,11.5094 5.28212,9.16796 10.5383,5.696 9.3125,6.78125 6.06854,8.80692 7.20932,12.9061 7,16.0823 c 0.0171,22.4772 -0.0342,44.9561 0.0256,67.4323 0.2115,3.3005 3.67101,4.9485 6.63411,4.4854 23.6181,-0.017 47.2379,0.034 70.8549,-0.026 C 87.8151,87.7629 89.4631,84.3034 89,81.3403 88.9765,57.714 89.0469,34.0846 88.9648,10.4602 89.6042,8.28431 84.0152,5.11138 87.5127,7.17856 91.0463,9.65991 89.75,14.1603 90,17.7936 89.9794,40.0672 90.0412,62.3429 89.9691,84.6152 89.7161,88.3905 85.8108,90.524 82.3403,90 58.8935,90 35.4468,90 12,90 Z"
       id="path3615"
       inkscape:connector-curvature="0" />
    <rect
       width="60"
       height="60"
       rx="5"
       ry="5"
       x="-78"
       y="18"
       transform="matrix(0,-1,1,0,0,0)"
       id="rect3427"
       style="fill:url(#linearGradient3795);fill-opacity:1;fill-rule:evenodd;stroke:none;display:inline" />
    <path
       d="m -73,46.5 c -3.575054,0 -6.5,2.924946 -6.5,6.5 l 0,50 c 0,3.57505 2.924946,6.5 6.5,6.5 l 50,0 c 3.575054,0 6.5,-2.92495 6.5,-6.5 l 0,-50 c 0,-3.575054 -2.924946,-6.5 -6.5,-6.5 l -50,0 z m 0,3 50,0 c 1.964946,0 3.5,1.535054 3.5,3.5 l 0,50 c 0,1.96495 -1.535054,3.5 -3.5,3.5 l -50,0 c -1.964946,0 -3.5,-1.53505 -3.5,-3.5 l 0,-50 c 0,-1.964946 1.535054,-3.5 3.5,-3.5 z"
       inkscape:connector-curvature="0"
       transform="matrix(0,-1,1,0,-130,0)"
       clip-path="url(#clipPath3853)"
       id="path2953"
       style="font-size:medium;font-style:normal;font-variant:normal;font-weight:normal;font-stretch:normal;text-indent:0;text-align:start;text-decoration:none;line-height:normal;letter-spacing:normal;word-spacing:normal;text-transform:none;direction:ltr;block-progression:tb;writing-mode:lr-tb;text-anchor:start;opacity:0.4;color:#000000;fill:#000000;fill-opacity:1;stroke:none;stroke-width:3;marker:none;visibility:visible;display:inline;overflow:visible;filter:url(#filter3865);enable-background:accumulate;font-family:Abandoned Bitplane;-inkscape-font-specification:Abandoned Bitplane" />
    <path
       d="m 23,18 c -2.77,0 -5,2.23 -5,5 l 0,50 c 0,2.77 2.23,5 5,5 l 50,0 c 2.77,0 5,-2.23 5,-5 l 0,-50 c 0,-2.77 -2.23,-5 -5,-5 l -50,0 z m 0,2.0625 50,0 c 1.661245,0 2.9375,1.276255 2.9375,2.9375 l 0,50 c 0,1.661245 -1.276255,2.9375 -2.9375,2.9375 l -50,0 c -1.661245,0 -2.9375,-1.276255 -2.9375,-2.9375 l 0,-50 c 0,-1.661245 1.276255,-2.9375 2.9375,-2.9375 z"
       inkscape:connector-curvature="0"
       id="rect3734"
       style="opacity:0.1;fill:#000000;fill-opacity:1;fill-rule:evenodd;stroke:none;display:inline" />
    <path
       d="m 23,18 c -2.77,0 -5,2.23 -5,5 l 0,50 c 0,2.77 2.23,5 5,5 l 50,0 c 2.77,0 5,-2.23 5,-5 l 0,-50 c 0,-2.77 -2.23,-5 -5,-5 l -50,0 z m 0,1.0625 50,0 c 2.191519,0 3.9375,1.745981 3.9375,3.9375 l 0,50 c 0,2.191519 -1.745981,3.9375 -3.9375,3.9375 l -50,0 c -2.191519,0 -3.9375,-1.745981 -3.9375,-3.9375 l 0,-50 c 0,-2.191519 1.745981,-3.9375 3.9375,-3.9375 z"
       inkscape:connector-curvature="0"
       id="rect2955"
       style="opacity:0.2;fill:#000000;fill-opacity:1;fill-rule:evenodd;stroke:none;display:inline" />
  </g>
  <g
     id="layer5">
    <rect
       width="66"
       height="66"
       rx="12"
       ry="12"
       x="15"
       y="15"
       clip-path="url(#clipPath3613)"
       id="rect3171"
       style="opacity:0.1;fill:url(#linearGradient3613);fill-opacity:1;fill-rule:nonzero;stroke:#ffffff;stroke-width:0.5;stroke-linecap:round;stroke-linejoin:miter;stroke-miterlimit:4;stroke-opacity:1;stroke-dasharray:none;stroke-dashoffset:0;filter:url(#filter3794)" />
  </g>
  <g
     id="layer3">
    <path
       d="m 33.872047,41.136428 -0.192312,3.077003 c -0.455861,9e-6 -1.225111,0.007 -2.307751,0.02136 -1.01143,0.0285 -1.78068,0.04275 -2.307752,0.04274 -0.854728,9e-6 -1.623979,-0.02849 -2.307753,-0.08548 l -0.0641,1.495764 c 1.794913,-0.08547 3.098365,-0.320512 3.910357,-0.705145 l 0.363258,2.927425 c -0.954449,0.470109 -2.49295,0.755016 -4.615506,0.85473 l -0.256417,1.132508 0.811986,0 c 2.122558,3e-6 4.316343,0.05698 6.581367,0.170944 L 33.231008,53.14528 C 31.079947,53.031317 28.451677,52.974335 25.346188,52.974335 24.448729,52.974335 24,52.418766 24,51.307626 c 0,-0.284907 0.156699,-1.232223 0.470097,-2.841955 0.142453,-0.641036 0.235048,-1.474391 0.277785,-2.500064 0.05698,-1.510002 0.0926,-2.343356 0.10684,-2.500064 0.07122,-0.726504 0.156699,-1.225092 0.256418,-1.495766 0.199433,-0.541312 0.562691,-0.811974 1.08977,-0.811986 0.24217,1.2e-5 0.612549,0.03562 1.11114,0.106839 0.498584,0.07123 0.868965,0.106852 1.11114,0.106842 0.612546,1e-5 1.524251,-0.03561 2.735114,-0.106842 1.225095,-0.08546 2.129676,-0.128196 2.713745,-0.128208 m 7.434088,2.457329 -0.363259,3.077002 c -1.182373,-0.11395 -2.898941,-0.270649 -5.149709,-0.470092 l 0.299153,-3.077003 c 1.182366,0.08548 2.920299,0.242182 5.213812,0.470099 m 0.170944,3.888989 -0.277786,3.077003 c -1.481525,-0.113961 -2.478701,-0.170942 -2.991529,-0.170944 -1.082652,2e-6 -2.037092,0.113965 -2.863323,0.341888 l -0.128208,-3.034266 c 0.911703,-0.256411 1.96586,-0.38462 3.162475,-0.384626 0.612547,6e-6 1.645335,0.05698 3.098371,0.170945 m 11.328084,1.346189 c -1.2e-5,0.59831 -0.04275,1.360437 -0.128209,2.286384 -0.113973,1.267839 -0.178078,2.022845 -0.192312,2.265016 l -1.88039,0 c 0.01423,-0.1567 0.09259,-0.804864 0.235047,-1.944495 0.09971,-0.797739 0.149568,-1.453026 0.149577,-1.965863 -9e-6,-1.566986 -0.427369,-2.350482 -1.282085,-2.350489 -0.398877,7e-6 -0.890341,0.163829 -1.474396,0.491467 0.113958,0.726519 0.170938,1.531382 0.170945,2.414592 -7e-6,0.569818 -0.05698,1.773552 -0.170945,3.611205 l -1.880391,0 c 0.11396,-1.766427 0.170941,-2.906056 0.170945,-3.418892 -4e-6,-1.139627 -0.106844,-1.937368 -0.320521,-2.393225 -0.142458,-0.05697 -0.284912,-0.08547 -0.427363,-0.08548 -0.541325,6e-6 -0.990056,0.277791 -1.346187,0.833355 -0.05698,1.709449 -0.299156,3.518611 -0.726514,5.42749 l -1.730812,-0.769249 c 0.242171,-1.153875 0.420237,-2.528553 0.534201,-4.124038 0.07122,-1.381797 0.149577,-2.763597 0.235048,-4.145407 l 1.880391,0 -0.02136,0.128209 c 0.512831,-0.256409 1.004297,-0.384617 1.474396,-0.384626 0.470095,9e-6 0.85472,0.13534 1.153877,0.405994 0.797736,-0.68377 1.730808,-1.025659 2.799217,-1.025668 1.851891,9e-6 2.777839,1.581245 2.77785,4.743713 m 12.241236,-3.974461 -0.44873,3.034266 c -1.666718,-0.398865 -4.024326,-0.598301 -7.072831,-0.598307 -1.025671,6e-6 -1.510014,0.612558 -1.453031,1.837655 l 0.04274,0.683778 c 1.367554,0.44161 2.678128,0.662413 3.931726,0.66241 0.527073,3e-6 1.787787,-0.09259 3.782148,-0.277784 l -0.128207,3.077002 c -2.67814,0.156699 -4.373339,0.235049 -5.085602,0.235049 -1.410296,0 -2.464454,-0.235049 -3.162476,-0.705146 -0.840477,-0.58406 -1.260716,-1.545622 -1.260716,-2.88469 0,-1.510006 0.220804,-2.749354 0.662411,-3.718046 0.598304,-1.324811 1.552743,-1.987221 2.863323,-1.98723 3.09124,9e-6 5.534321,0.213689 7.329248,0.641043 m 6.953591,-1.939917 c -6e-6,1.300405 -0.380053,2.106285 -1.140139,2.417644 -0.119056,0.04579 -0.883728,0.119056 -2.294015,0.219787 -0.915778,0.0641 -1.488135,0.444153 -1.717078,1.14014 0.329678,-0.0092 0.874563,-0.04579 1.634657,-0.109894 0.695986,-0.0641 1.24087,-0.09616 1.634658,-0.09616 0.63188,2e-6 1.19508,0.06868 1.689605,0.20605 l -0.288468,1.964336 c -0.412106,-0.09158 -0.915781,-0.137367 -1.511029,-0.137367 -0.393788,0 -0.979883,0.02748 -1.758288,0.08243 -0.769253,0.05495 -1.350768,0.08242 -1.744551,0.08242 -0.357152,0 -0.618146,-0.2381 -0.782987,-0.714304 -0.11905,-0.338835 -0.178574,-0.737197 -0.178575,-1.195086 10e-7,-1.217977 0.325098,-2.046752 0.975298,-2.486328 0.412099,-0.274727 1.121824,-0.439567 2.129176,-0.494518 1.053138,-0.05494 1.758284,-0.18315 2.11544,-0.384626 0.04578,-0.494512 -0.421261,-0.741771 -1.401136,-0.741777 -0.467048,6e-6 -1.053142,0.06411 -1.758287,0.192313 -0.760092,0.137371 -1.327872,0.297632 -1.703341,0.480781 L 65.66742,41.444739 c 1.071456,-0.521985 2.229908,-0.782981 3.475366,-0.782988 0.833348,7e-6 1.497285,0.160269 1.991809,0.480781 0.576934,0.384633 0.8654,0.975307 0.865407,1.772024"
       inkscape:connector-curvature="0"
       id="text5124"
       style="font-size:28px;font-style:normal;font-variant:normal;font-weight:normal;font-stretch:normal;text-align:start;line-height:125%;writing-mode:lr-tb;text-anchor:start;fill:#c2dca8;fill-opacity:1;stroke:none;display:inline;font-family:Field Day Filter;-inkscape-font-specification:Field Day Filter" />
    <path
       d="m 30.75,40.761723 c 3.565538,-4.634878 7.275947,-9.169139 11.032425,-13.637169 1.452285,-2.114017 3.252379,-7.761581 5.349628,-6.722975 -0.306666,3.934457 -2.221919,7.53437 -2.567028,11.478146 -0.780494,4.220651 -1.470779,8.466721 -1.773593,12.751813 1.656627,4.242254 5.714172,-0.805782 6.553121,-3.180192 4.234865,-7.13377 5.171904,-15.981204 10.798894,-22.326413 3.825389,-5.775628 6.781815,-12.113971 11.071604,-17.582348 2.64891,3.82531 -1.262406,7.940981 -0.792921,11.979324 -2.13941,13.455853 -3.805371,27.038161 -7.461345,40.193114 -0.773785,4.302425 4.933414,4.512645 5.810635,0.780482 9.843488,-11.151008 14.793858,-25.452263 19.637564,-39.245507 1.277092,-2.856443 0.715912,-6.694493 3.473767,-8.755925 1.519306,4.540136 0.500562,9.400817 0.492909,14.072643 -0.729533,6.870966 -2.979281,13.459387 -4.112007,20.261178 -0.155202,0.648712 -0.324387,1.294183 -0.513653,1.933829"
       inkscape:connector-curvature="0"
       transform="matrix(0.67476106,0,0,0.67476106,5.001097,25.72406)"
       id="path5141"
       style="fill:none;stroke:url(#linearGradient3950);stroke-width:11.85604858;stroke-linecap:round;stroke-linejoin:round;stroke-miterlimit:4;stroke-opacity:0.29090905;stroke-dasharray:none;display:inline;filter:url(#filter4005)" />
    <path
       d="m 43.75,46.749998 c 0,-0.333333 0,-0.333333 0,0 0,12.26357 1.373705,-7.739643 2,-12.75 1.466509,-11.732076 4.567454,-30.567454 12.75,-38.7500005 1.62743,-1.62743 0.510796,7.9460185 -1,15.5000005 -0.151043,0.755214 -10.946643,53.3755 -2,32.5 5.804522,-13.543886 14.533014,-25.066027 21,-38 0.484481,-0.968963 0,2.166667 0,3.25 0,12.618641 -0.641136,27.665227 0.25,39.25 0.24277,3.156012 1.148717,-5.797434 3.5,-10.5 0.305508,-0.611016 13.75,-32.193642 13.75,-18 0,9 0,18 0,27"
       inkscape:connector-curvature="0"
       transform="matrix(0.67476106,0,0,0.67476106,5.001097,25.72406)"
       id="path5161"
       style="opacity:0.2;fill:none;stroke:url(#linearGradient5169-4);stroke-width:11.85604858;stroke-linecap:round;stroke-linejoin:round;stroke-miterlimit:4;stroke-opacity:1;stroke-dasharray:none;display:inline;filter:url(#filter4009)" />
  </g>
</svg>
