<?xml version="1.0" encoding="UTF-8" standalone="no"?>
<!-- Created with Inkscape (http://www.inkscape.org/) -->

<svg
   xmlns:dc="http://purl.org/dc/elements/1.1/"
   xmlns:cc="http://creativecommons.org/ns#"
   xmlns:rdf="http://www.w3.org/1999/02/22-rdf-syntax-ns#"
   xmlns:svg="http://www.w3.org/2000/svg"
   xmlns="http://www.w3.org/2000/svg"
   xmlns:xlink="http://www.w3.org/1999/xlink"
   xmlns:sodipodi="http://sodipodi.sourceforge.net/DTD/sodipodi-0.dtd"
   xmlns:inkscape="http://www.inkscape.org/namespaces/inkscape"
   version="1.0"
   width="96"
   height="96"
   id="svg2408"
   sodipodi:docname="contact-new.svg"
   inkscape:version="0.92+devel (unknown)">
  <sodipodi:namedview
     pagecolor="#ffffff"
     bordercolor="#666666"
     inkscape:document-rotation="0"
     borderopacity="1"
     objecttolerance="10"
     gridtolerance="10"
     guidetolerance="10"
     inkscape:pageopacity="0"
     inkscape:pageshadow="2"
     inkscape:window-width="1280"
     inkscape:window-height="965"
     id="namedview152"
     showgrid="false"
     inkscape:zoom="6.95322"
     inkscape:cx="15.6757"
     inkscape:cy="32.0529"
     inkscape:window-x="0"
     inkscape:window-y="29"
     inkscape:window-maximized="1"
     inkscape:current-layer="svg2408" />
  <defs
     id="defs2410">
    <linearGradient
       id="linearGradient3897">
      <stop
         id="stop3899"
         style="stop-color:#aec6e9;stop-opacity:1"
         offset="0" />
      <stop
         id="stop3901"
         style="stop-color:#aac3e8;stop-opacity:0"
         offset="1" />
    </linearGradient>
    <linearGradient
       id="linearGradient3690">
      <stop
         id="stop3692"
         style="stop-color:#000000;stop-opacity:1"
         offset="0" />
      <stop
         id="stop3694"
         style="stop-color:#000000;stop-opacity:0"
         offset="1" />
    </linearGradient>
    <linearGradient
       id="linearGradient3778">
      <stop
         id="stop3780"
         style="stop-color:#98b5e3;stop-opacity:1"
         offset="0" />
      <stop
         id="stop3782"
         style="stop-color:#bed1ed;stop-opacity:1"
         offset="1" />
    </linearGradient>
    <linearGradient
       x1="45.447727"
       y1="92.539597"
       x2="45.447727"
       y2="7.0165396"
       id="ButtonShadow"
       gradientUnits="userSpaceOnUse"
       gradientTransform="scale(1.0058652,0.994169)">
      <stop
         id="stop3750"
         style="stop-color:#000000;stop-opacity:1"
         offset="0" />
      <stop
         id="stop3752"
         style="stop-color:#000000;stop-opacity:0.58823532"
         offset="1" />
    </linearGradient>
    <linearGradient
       id="linearGradient3737">
      <stop
         id="stop3739"
         style="stop-color:#ffffff;stop-opacity:1"
         offset="0" />
      <stop
         id="stop3741"
         style="stop-color:#ffffff;stop-opacity:0"
         offset="1" />
    </linearGradient>
    <filter
       color-interpolation-filters="sRGB"
       id="filter3174">
      <feGaussianBlur
         id="feGaussianBlur3176"
         stdDeviation="1.71" />
    </filter>
    <linearGradient
       x1="36.357143"
       y1="6"
       x2="36.357143"
       y2="63.893143"
       id="linearGradient3188"
       xlink:href="#linearGradient3737"
       gradientUnits="userSpaceOnUse" />
    <filter
       x="-0.192"
       y="-0.192"
       width="1.3839999"
       height="1.3839999"
       color-interpolation-filters="sRGB"
       id="filter3794">
      <feGaussianBlur
         id="feGaussianBlur3796"
         stdDeviation="5.28" />
    </filter>
    <linearGradient
       x1="48"
       y1="20.220806"
       x2="48"
       y2="138.66119"
       id="linearGradient3613"
       xlink:href="#linearGradient3737"
       gradientUnits="userSpaceOnUse" />
    <radialGradient
       cx="48"
       cy="90.171875"
       r="42"
       fx="48"
       fy="90.171875"
       id="radialGradient3619"
       xlink:href="#linearGradient3737"
       gradientUnits="userSpaceOnUse"
       gradientTransform="matrix(1.15731,0,0,0.995908,-7.55102,0.197132)" />
    <clipPath
       id="clipPath3613">
      <rect
         width="84"
         height="84"
         rx="6"
         ry="6"
         x="6"
         y="6"
         id="rect3615"
         style="fill:#ffffff;fill-opacity:1;fill-rule:nonzero;stroke:none" />
    </clipPath>
    <linearGradient
       x1="48"
       y1="90"
       x2="48"
       y2="5.9877172"
       id="linearGradient3617"
       xlink:href="#ButtonColor-0"
       gradientUnits="userSpaceOnUse" />
    <linearGradient
       x1="58.650177"
       y1="122"
       x2="58.650177"
       y2="5.4252338"
       id="ButtonColor-0"
       gradientUnits="userSpaceOnUse"
       gradientTransform="matrix(1.0172414,0,0,1.0172414,-1.1034483,-1.1034483)">
      <stop
         id="stop3189-4"
         style="stop-color:#dcdcdc;stop-opacity:1"
         offset="0" />
      <stop
         id="stop3191-8"
         style="stop-color:#f0f0f0;stop-opacity:1"
         offset="1" />
    </linearGradient>
    <linearGradient
       x1="24.333759"
       y1="55.889599"
       x2="24.333759"
       y2="28.220181"
       id="linearGradient3784"
       xlink:href="#linearGradient3778"
       gradientUnits="userSpaceOnUse"
       gradientTransform="translate(0,-84)" />
    <linearGradient
       x1="26.606602"
       y1="25.705502"
       x2="26.606602"
       y2="42.884689"
       id="linearGradient3799"
       xlink:href="#linearGradient3737"
       gradientUnits="userSpaceOnUse" />
    <linearGradient
       x1="44.638336"
       y1="6.805913"
       x2="44.638336"
       y2="36.612774"
       id="linearGradient3903"
       xlink:href="#linearGradient3897"
       gradientUnits="userSpaceOnUse" />
    <radialGradient
       cx="40.637058"
       cy="55.726189"
       r="14"
       fx="40.637058"
       fy="55.726189"
       id="radialGradient3767"
       xlink:href="#linearGradient3690"
       gradientUnits="userSpaceOnUse"
       gradientTransform="matrix(-3.0154454e-7,-2.4635793,3.3190782,-3.8166508e-7,-144.32251,158.78014)" />
    <linearGradient
       x1="47.868935"
       y1="91.174545"
       x2="47.868935"
       y2="5.8992176"
       id="linearGradient3707"
       xlink:href="#ButtonShadow-2"
       gradientUnits="userSpaceOnUse" />
    <linearGradient
       x1="45.447727"
       y1="92.539597"
       x2="45.447727"
       y2="7.0165396"
       id="ButtonShadow-2"
       gradientUnits="userSpaceOnUse"
       gradientTransform="scale(1.0058652,0.994169)">
      <stop
         id="stop3750-1"
         style="stop-color:#000000;stop-opacity:1"
         offset="0" />
      <stop
         id="stop3752-9"
         style="stop-color:#000000;stop-opacity:0.58823532"
         offset="1" />
    </linearGradient>
    <linearGradient
       x1="46.965103"
       y1="93.415817"
       x2="46.965103"
       y2="8.3638449"
       id="linearGradient3722"
       xlink:href="#ButtonShadow-2"
       gradientUnits="userSpaceOnUse"
       gradientTransform="translate(-1,-1.0000001)" />
    <linearGradient
       x1="46.965103"
       y1="93.415817"
       x2="46.965103"
       y2="8.3638449"
       id="linearGradient3736"
       xlink:href="#ButtonShadow-2"
       gradientUnits="userSpaceOnUse"
       gradientTransform="translate(-1,-1.0000001)" />
    <linearGradient
       x1="46.965103"
       y1="93.415817"
       x2="46.965103"
       y2="8.3638449"
       id="linearGradient3752"
       xlink:href="#ButtonShadow-2"
       gradientUnits="userSpaceOnUse"
       gradientTransform="translate(-1,-1.0000001)" />
    <linearGradient
       x1="46.965103"
       y1="93.415817"
       x2="46.965103"
       y2="8.3638449"
       id="linearGradient3811"
       xlink:href="#ButtonShadow-2"
       gradientUnits="userSpaceOnUse"
       gradientTransform="translate(-1,-1)" />
  </defs>
  <metadata
     id="metadata2413">
    <rdf:RDF>
      <cc:Work
         rdf:about="">
        <dc:format>image/svg+xml</dc:format>
        <dc:type
           rdf:resource="http://purl.org/dc/dcmitype/StillImage" />
      </cc:Work>
    </rdf:RDF>
  </metadata>
  <g
     id="layer2"
     style="display:none">
    <path
       d="M 11,7 C 7.676,7 5,9.676 5,13 l 0,73 c 0,3.324 2.676,6 6,6 l 74,0 c 3.324,0 6,-2.676 6,-6 L 91,13 C 91,9.676 88.324,7 85,7 l -15,0 0,2.5625 c 1.19379,0.692085 2,1.958291 2,3.4375 0,2.209139 -1.79086,4 -4,4 -2.20914,0 -4,-1.790861 -4,-4 0,-1.479209 0.80621,-2.745415 2,-3.4375 L 66,7 30,7 30,9.5625 c 1.19379,0.692085 2,1.958291 2,3.4375 0,2.209139 -1.79086,4 -4,4 -2.20914,0 -4,-1.790861 -4,-4 0,-1.479209 0.80621,-2.745415 2,-3.4375 L 26,7 11,7 z"
       inkscape:connector-curvature="0"
       id="rect3745"
       style="opacity:0.9;fill:url(#ButtonShadow);fill-opacity:1;fill-rule:nonzero;stroke:none;filter:url(#filter3174)" />
  </g>
  <g
     id="layer4"
     style="display:inline">
    <path
       d="M 12,4.09375 C 5.958559,3.9197191 1.4013336,9.7548505 2.125,15.53125 l -0.03125,0 c 0.0309,23.462972 -0.077155,46.904914 0.03125,70.375 a 0.89898646,0.89898646 0 0 0 0,0.0625 c 0.4135931,5.805998 6.1890583,9.610267 11.65625,8.9375 0.04186,-0.0052 0.08318,0.0057 0.125,0 23.670234,-0.03037 47.322706,0.07697 71,-0.03125 a 0.89898646,0.89898646 0 0 0 0.0625,0 c 5.805997,-0.413599 9.610267,-6.189058 8.9375,-11.65625 -0.0052,-0.04186 0.0057,-0.08318 0,-0.125 -0.03035,-23.336851 0.07696,-46.655962 -0.03125,-70 a 0.89898646,0.89898646 0 0 0 0,-0.0625 C 93.461407,7.2252516 87.685942,3.4209829 82.21875,4.09375 c -0.04121,6.156e-4 -0.08378,-5.689e-4 -0.125,0 C 77.816605,4.1527751 73.471998,3.9644816 69.125,4.1875 A 0.89898646,0.89898646 0 0 0 68.5,4.5 C 68.258195,4.7716239 68.114165,4.8160828 68.125,4.8125 67.945266,4.7390723 67.326189,4.2742446 66.375,4.125 A 0.89898646,0.89898646 0 0 0 66.25,4.09375 C 53.952869,4.1146989 41.647271,4.0518794 29.34375,4.125 a 0.89898646,0.89898646 0 0 0 -0.5625,0.21875 C 28.488372,4.5801621 28.293078,4.7029151 28.1875,4.75 28.081922,4.7970849 28.092979,4.7854347 28.0625,4.78125 28.001543,4.7728806 27.606489,4.5517268 26.875,4.1875 A 0.89898646,0.89898646 0 0 0 26.46875,4.09375 l -14.4375,0 -0.03125,0 z m 16.09375,8.6875 c 0.226923,0.244044 0.358574,0.498158 0.375,0.75 0.02604,0.39918 -0.161138,0.861966 -0.40625,1.125 -0.114331,0.12269 -0.223886,0.196155 -0.28125,0.21875 0.02231,0.0073 -0.27871,-0.3392 -0.3125,-1.40625 0.01928,-0.126056 0.06772,-0.162919 0.3125,-0.375 0.07441,-0.06447 0.212783,-0.230306 0.3125,-0.3125 z m 40,0 c 0.226923,0.244044 0.358574,0.498158 0.375,0.75 0.02604,0.39918 -0.161138,0.861966 -0.40625,1.125 -0.114331,0.12269 -0.223886,0.196155 -0.28125,0.21875 0.02232,0.0073 -0.27871,-0.3392 -0.3125,-1.40625 0.01928,-0.126056 0.06772,-0.162919 0.3125,-0.375 0.07441,-0.06447 0.212783,-0.230306 0.3125,-0.3125 z"
       id="path3758"
       style="opacity:0.07999998;fill:url(#linearGradient3811);fill-opacity:1;fill-rule:nonzero;stroke:none;display:inline" />
    <path
       d="M 12,5 C 6.5057413,4.8226625 2.2688151,10.242553 3,15.51889 3.0309044,38.985409 2.9381256,62.455054 3.0465048,85.919616 3.4221938,91.193519 8.7597,94.680368 13.772038,94 37.487508,93.96909 61.206104,94.06189 84.919616,93.9535 90.193519,93.577806 93.680368,88.2403 93,83.227962 92.9691,59.845825 93.06187,36.460563 92.9535,13.080384 92.577811,7.8064809 87.240305,4.3196317 82.227967,5 77.875341,5.0650149 73.487528,4.8715384 69.156255,5.09375 67.96388,6.4331658 67.68292,5.2248289 66.250005,5 53.948794,5.0209559 41.640652,4.9581688 29.343755,5.03125 28.049946,6.0756153 27.841451,5.6834995 26.468755,5 21.645838,5 16.822922,5 12.000005,5 z m 16,6.5625 c 3.752455,2.026235 -1.381779,7.249395 -1.430983,1.851426 C 26.677832,12.5193 27.639226,12.271287 28,11.5625 z m 40,0 c 3.752455,2.026235 -1.381779,7.249395 -1.430983,1.851426 C 66.677832,12.5193 67.639226,12.271287 68,11.5625 z"
       inkscape:connector-curvature="0"
       id="path3744-9"
       style="opacity:0.1;fill:url(#linearGradient3752);fill-opacity:1;fill-rule:nonzero;stroke:none;display:inline" />
    <path
       d="M 12,5.96875 C 7.56281,5.96875 3.96875,9.5628 3.96875,14 v 71 c 0,4.4372 3.59406,8.0313 8.03125,8.0313 h 72 c 4.4372,0 8.0313,-3.5941 8.0313,-8.0313 V 14 C 92.0313,9.5628 88.4372,5.96875 84,5.96875 H 69.75 C 69.1829,5.97458 68.7246,6.43289 68.7188,7 v 3.5625 c 1.1431,0.8638 1.7268,2.1364 1.75,3.4375 0,1.7176 -1.1746,2.9688 -2.4688,2.9688 -1.2942,0 -2.4687,-1.2512 -2.4687,-2.9688 0.037,-1.5848 0.4029,-2.3861 1.75,-3.4375 V 7 C 67.2754,6.43289 66.8171,5.97458 66.25,5.96875 H 29.75 C 29.1829,5.97458 28.7246,6.43289 28.7188,7 v 3.5625 c 0.9993,1.0795 1.7268,2.1364 1.75,3.4375 0,1.7176 -1.1746,2.9688 -2.4688,2.9688 -1.2942,0 -2.4687,-1.2512 -2.4687,-2.9688 0.037,-1.5848 0.4748,-2.3861 1.75,-3.4375 V 7 C 27.2754,6.43289 26.8171,5.97458 26.25,5.96875 Z"
       inkscape:connector-curvature="0"
       id="path3734-9"
       style="display:inline;opacity:0.2;fill:url(#linearGradient3736);fill-opacity:1;fill-rule:nonzero;stroke:none"
       sodipodi:nodetypes="ssssssssccccsccccccccsccccs" />
    <path
       d="M 12,6.9999999 C 8.122,6.9999999 5,10.122 5,14 l 0,71 c 0,3.878 3.122,7 7,7 l 72,0 c 3.878,0 7,-3.122 7,-7 L 91,14 C 91,10.122 87.878,6.9999999 84,6.9999999 l -14.25,0 0,3.5625001 c 1.046496,0.692085 1.75,1.958291 1.75,3.4375 0,2.209139 -1.563432,4 -3.5,4 -1.936568,0 -3.5,-1.790861 -3.5,-4 0,-1.479209 0.703504,-2.745415 1.75,-3.4375 l 0,-3.5625001 -36.5,0 0,3.5625001 c 1.046496,0.692085 1.75,1.958291 1.75,3.4375 0,2.209139 -1.563432,4 -3.5,4 -1.936568,0 -3.5,-1.790861 -3.5,-4 0,-1.479209 0.703504,-2.745415 1.75,-3.4375 l 0,-3.5625001 -14.25,0 z"
       inkscape:connector-curvature="0"
       id="rect3713"
       style="opacity:0.3;fill:url(#linearGradient3722);fill-opacity:1;fill-rule:nonzero;stroke:none;display:inline" />
    <path
       d="m 12,6.9999999 c -3.324,0 -6,2.676 -6,6.0000001 l 0,72 c 0,3.324 2.676,6 6,6 l 72,0 c 3.324,0 6,-2.676 6,-6 L 90,13 C 90,9.6759999 87.324,6.9999999 84,6.9999999 l -14,0 0,2.5625 C 71.193791,10.254585 72,11.520791 72,13 c 0,2.209139 -1.790861,4 -4,4 -2.209139,0 -4,-1.790861 -4,-4 0,-1.479209 0.806209,-2.745415 2,-3.4375001 l 0,-2.5625 -36,0 0,2.5625 C 31.193791,10.254585 32,11.520791 32,13 c 0,2.209139 -1.790861,4 -4,4 -2.209139,0 -4,-1.790861 -4,-4 0,-1.479209 0.806209,-2.745415 2,-3.4375001 l 0,-2.5625 -14,0 z"
       inkscape:connector-curvature="0"
       id="path3693"
       style="opacity:0.45;fill:url(#linearGradient3707);fill-opacity:1;fill-rule:nonzero;stroke:none;display:inline" />
  </g>
  <g
     id="layer1">
    <path
       d="M 12,6 C 8.676,6 6,8.676 6,12 l 0,72 c 0,3.324 2.676,6 6,6 l 72,0 c 3.324,0 6,-2.676 6,-6 L 90,12 C 90,8.676 87.324,6 84,6 l -14,0 0,2.5625 c 1.193791,0.6920851 2,1.958291 2,3.4375 0,2.209139 -1.790861,4 -4,4 -2.209139,0 -4,-1.790861 -4,-4 0,-1.479209 0.806209,-2.7454149 2,-3.4375 L 66,6 30,6 30,8.5625 c 1.193791,0.6920851 2,1.958291 2,3.4375 0,2.209139 -1.790861,4 -4,4 -2.209139,0 -4,-1.790861 -4,-4 0,-1.479209 0.806209,-2.7454149 2,-3.4375 L 26,6 12,6 z"
       inkscape:connector-curvature="0"
       id="rect2419"
       style="fill:url(#linearGradient3617);fill-opacity:1;fill-rule:nonzero;stroke:none" />
    <path
       style="opacity:0.3;fill:url(#radialGradient3619);fill-opacity:1;fill-rule:nonzero;stroke:none"
       d="M 12,90 C 8.11425,90.1368 5.41842,86.2084 6,82.5774 6.01818,58.8883 5.96366,35.1972 6.02722,11.5094 5.28212,9.16796 10.5383,5.696 9.3125,6.78125 6.06854,8.80692 7.20932,12.9061 7,16.0823 c 0.0171,22.4772 -0.0342,44.9561 0.0256,67.4323 0.2115,3.3005 3.67101,4.9485 6.63411,4.4854 23.6181,-0.017 47.2379,0.034 70.8549,-0.026 C 87.8151,87.7629 89.4631,84.3034 89,81.3403 88.9765,57.714 89.0469,34.0846 88.9648,10.4602 89.6042,8.28431 84.0152,5.11138 87.5127,7.17856 91.0463,9.65991 89.75,14.1603 90,17.7936 89.9794,40.0672 90.0412,62.3429 89.9691,84.6152 89.7161,88.3905 85.8108,90.524 82.3403,90 58.8935,90 35.4468,90 12,90 Z"
       id="path3615"
       inkscape:connector-curvature="0" />
    <rect
       width="84"
       height="84"
       rx="6"
       ry="6"
       x="6"
       y="116"
       id="rect3781"
       style="fill:#808080;fill-opacity:1;fill-rule:nonzero;stroke:none" />
    <path
       d="M 12,6 C 8.676,6 6,8.676 6,12 l 0,24.90625 84,0 L 90,12 C 90,8.676 87.324,6 84,6 l -14,0 0,2.5625 c 1.193791,0.6920851 2,1.958291 2,3.4375 0,2.209139 -1.790861,4 -4,4 -2.209139,0 -4,-1.790861 -4,-4 0,-1.479209 0.806209,-2.7454149 2,-3.4375 L 66,6 30,6 30,8.5625 c 1.193791,0.6920851 2,1.958291 2,3.4375 0,2.209139 -1.790861,4 -4,4 -2.209139,0 -4,-1.790861 -4,-4 0,-1.479209 0.806209,-2.7454149 2,-3.4375 L 26,6 12,6 z"
       inkscape:connector-curvature="0"
       id="path3890"
       style="fill:url(#linearGradient3903);fill-opacity:1;fill-rule:nonzero;stroke:none" />
    <path
       style="opacity:0.5;fill:url(#linearGradient3188);fill-opacity:1;fill-rule:nonzero;stroke:none"
       d="M 12,6 C 8.11425,5.86322 5.41842,9.7916 6,13.4226 6.01818,37.1117 5.96366,60.8028 6.02722,84.4906 5.28212,86.832 10.5383,90.304 9.3125,89.2188 6.06854,87.1931 7.20932,83.0939 7,79.9177 7.01709,57.4405 6.96584,34.9616 7.02559,12.4854 7.23709,9.18494 10.6966,7.53688 13.6597,8 17.7731,8 21.8866,8 26,8 26.5557,5.98729 25.3645,5.72153 23.629,6 19.7527,6 15.8763,6 12,6 Z M 30,6 C 29.4443,8.01271 30.6355,8.27847 32.371,8 43.5807,8 54.7903,8 66,8 66.5557,5.98729 65.3645,5.72153 63.629,6 52.4193,6 41.2097,6 30,6 Z m 40,0 c -0.5557,2.01271 0.6355,2.27847 2.371,2 4.2124,0.0618 8.4405,-0.12704 12.6425,0.10074 3.0644,0.50506 4.377,3.77096 3.9865,6.55896 -0.023,23.6263 0.047,47.2557 -0.035,70.8801 0.6394,2.1759 -4.9496,5.3488 -1.4521,3.2816 C 91.0463,86.3401 89.75,81.8397 90,78.2064 89.9794,55.9328 90.0412,33.6571 89.9691,11.3848 89.7161,7.60949 85.8108,5.47598 82.3403,6 78.2269,6 74.1134,6 70,6 Z"
       id="rect3728"
       inkscape:connector-curvature="0" />
    <path
       d="M 24.03125,12.40625 C 24.001249,12.602572 24,12.794487 24,13 c 0,2.209139 1.79086,4 4,4 2.20914,0 4,-1.790861 4,-4 0,-0.205513 -0.0012,-0.397428 -0.03125,-0.59375 C 31.764726,14.424122 30.071673,16 28,16 25.928327,16 24.235274,14.424122 24.03125,12.40625 z m 40,0 C 64.001249,12.602572 64,12.794487 64,13 c 0,2.209139 1.79086,4 4,4 2.20914,0 4,-1.790861 4,-4 0,-0.205513 -0.0012,-0.397428 -0.03125,-0.59375 C 71.764726,14.424122 70.071673,16 68,16 65.928327,16 64.235274,14.424122 64.03125,12.40625 z"
       inkscape:connector-curvature="0"
       id="path3739"
       style="opacity:0.3;fill:#ffffff;fill-opacity:1;stroke:none" />
  </g>
  <g
     id="layer5">
    <rect
       width="66"
       height="66"
       rx="12"
       ry="12"
       x="15"
       y="15"
       clip-path="url(#clipPath3613)"
       id="rect3171"
       style="opacity:0.6;fill:url(#linearGradient3613);fill-opacity:1;fill-rule:nonzero;stroke:#ffffff;stroke-width:0.5;stroke-linecap:round;stroke-linejoin:miter;stroke-miterlimit:4;stroke-opacity:1;stroke-dasharray:none;stroke-dashoffset:0;filter:url(#filter3794)" />
  </g>
  <g
     id="layer3">
    <rect
       width="28"
       height="34"
       rx="0.9333334"
       ry="0.94444448"
       x="13"
       y="25"
       id="rect3702"
       style="opacity:0.2;fill:url(#radialGradient3767);fill-opacity:1;stroke:none" />
    <rect
       width="26"
       height="32"
       x="14"
       y="26"
       id="rect3764"
       style="fill:#ffffff;fill-opacity:1;stroke:none" />
    <rect
       width="22"
       height="28"
       x="16"
       y="-56"
       transform="scale(1,-1)"
       id="rect3766"
       style="fill:url(#linearGradient3784);fill-opacity:1;stroke:none" />
    <path
       d="m 27,30.5962 c -2.3442,0 -4.2446,1.7581 -4.2446,3.9269 0.01,0.2486 0.01,0.5324 0.035,0.8415 -0.371,0.196 -0.4194,0.9627 -0.088,1.7356 0.1277,0.298 0.3017,0.5401 0.4776,0.7362 0.01,0.01 0.012,0.011 0.018,0.018 0.042,0.2042 0.073,0.3657 0.1238,0.596 0.1572,0.4677 0.8071,1.3474 1.3794,2.1037 0.057,0.5834 0.062,1.1596 -0.053,1.8232 -1.6473,1.3547 -5.8603,1.9635 -5.854,3.3659 l -0.566,3.6464 c 0,0.7471 1.1259,1.4312 2.9182,1.8934 l 0.2476,0.9992 c 0.144,0.3828 0.5163,0.4219 0.7428,0.561 1.1485,0.3305 2.8973,0.561 4.8636,0.561 1.9663,0 3.7328,-0.2305 4.8813,-0.561 0.3556,-0.044 0.5293,-0.3732 0.7251,-0.5434 l 0.3006,-1.0519 c 1.7485,-0.4615 2.8651,-1.1217 2.8651,-1.8583 l -0.5659,-3.6464 c -0.01,-1.2003 -4.2446,-1.9634 -5.8717,-3.3659 -0.066,-0.5372 -0.069,-1.0662 -0.035,-1.5953 0.5204,-0.7956 1.2054,-1.8138 1.3795,-2.3316 0.064,-0.2681 0.092,-0.4535 0.1415,-0.6837 0.1537,-0.1862 0.2934,-0.4013 0.4068,-0.6662 0.3142,-0.7339 0.2849,-1.4446 -0.035,-1.6829 0.022,-0.3189 0.044,-0.6215 0.053,-0.8941 0,-2.1688 -1.9004,-3.9269 -4.2446,-3.9269 z"
       inkscape:connector-curvature="0"
       id="path3798"
       style="display:inline;fill:#4d74ad;fill-opacity:1;stroke:none;enable-background:new"
       sodipodi:nodetypes="ccccccccccccccscccccccccccccc" />
    <path
       d="m 16,28 0,28 22,0 0,-28 -1,0 0,27 -20,0 0,-27 -1,0 z"
       inkscape:connector-curvature="0"
       id="rect3708"
       style="fill:#a3bee6;fill-opacity:1;stroke:none" />
    <g
       transform="translate(-0.19043,0.347252)"
       id="text3704"
       style="font-size:5px;font-style:normal;font-variant:normal;font-weight:bold;font-stretch:normal;text-align:start;line-height:125%;writing-mode:lr-tb;text-anchor:start;fill:#333333;fill-opacity:1;stroke:none;font-family:Liberation Sans;-inkscape-font-specification:Abandoned Bitplane Bold">
      <path
         d="m 50.409668,29.60392 0,-1.474609 -1.499023,0 0,1.474609 -0.720215,0 0,-3.439941 0.720215,0 0,1.369628 1.499023,0 0,-1.369628 0.720215,0 0,3.439941 -0.720215,0"
         inkscape:connector-curvature="0"
         id="path3878" />
      <path
         d="m 55.1484,27.8681 c 0.01,0.5524 -0.1983,1.1407 -0.6628,1.4691 -0.4712,0.3355 -1.0968,0.3801 -1.646,0.2474 -0.4732,-0.1186 -0.8743,-0.4797 -1.0363,-0.9406 -0.167,-0.4735 -0.1727,-1.0043 -0.024,-1.4831 0.1376,-0.4375 0.4904,-0.7965 0.9268,-0.9388 0.4375,-0.1445 0.9231,-0.147 1.3638,-0.014 0.4476,0.1353 0.8168,0.493 0.9634,0.9374 0.082,0.2312 0.1148,0.478 0.1147,0.7227 z m -0.7348,0 c 0,-0.3947 -0.118,-0.8463 -0.4811,-1.0575 -0.3255,-0.1831 -0.7549,-0.1781 -1.0758,0.013 -0.3587,0.2241 -0.4668,0.6807 -0.457,1.0779 -0,0.4078 0.1445,0.8663 0.525,1.0708 0.2995,0.1568 0.6815,0.1537 0.9812,-6e-4 0.3932,-0.211 0.511,-0.6903 0.5077,-1.1036 z"
         id="path3880"
         inkscape:connector-curvature="0" />
      <path
         d="m 55.69043,29.60392 0,-3.439941 0.720215,0 0,2.8833 1.845703,0 0,0.556641 -2.565918,0"
         inkscape:connector-curvature="0"
         id="path3882" />
      <path
         d="m 61.6035,29.6039 c -0.01,-1.0301 -0.01,-1.8708 0.013,-2.8104 -0.2752,1.0228 -0.5741,1.8944 -0.87,2.8104 h -0.5127 c -0.3327,-1.0149 -0.6174,-1.899 -0.8814,-2.8345 0.045,1.0418 0.029,1.8369 0.029,2.8345 H 58.7417 V 26.164 h 0.9644 c 0.311,0.9219 0.5465,1.728 0.7861,2.5708 0.2616,-0.9278 0.5233,-1.7305 0.7862,-2.5708 h 0.9594 v 3.4399 h -0.6396"
         id="path3884"
         inkscape:connector-curvature="0"
         sodipodi:nodetypes="cccccccccccccc" />
      <path
         d="m 62.916992,29.60392 0,-3.439941 2.705078,0 0,0.55664 -1.984863,0 0,0.864258 1.835938,0 0,0.556641 -1.835938,0 0,0.905761 2.084961,0 0,0.556641 -2.805176,0"
         inkscape:connector-curvature="0"
         id="path3886" />
      <path
         d="m 69.062,28.6127 c 0.01,0.3176 -0.1433,0.6405 -0.422,0.8035 -0.4049,0.2431 -0.8973,0.2555 -1.3553,0.2231 -0.4131,-0.033 -0.8638,-0.1899 -1.08,-0.569 -0.035,-0.1 -0.1961,-0.3173 -0.093,-0.3699 0.2166,-0.036 0.4333,-0.071 0.65,-0.1072 0.048,0.2343 0.2325,0.428 0.4677,0.4784 0.2807,0.062 0.5838,0.062 0.8577,-0.031 0.2015,-0.061 0.3171,-0.2848 0.2627,-0.4855 -0.068,-0.2388 -0.3368,-0.3178 -0.5516,-0.3746 -0.4227,-0.1056 -0.8793,-0.1471 -1.2483,-0.3987 -0.3199,-0.225 -0.3849,-0.6726 -0.2744,-1.0251 0.1174,-0.3553 0.4862,-0.5481 0.8354,-0.603 0.4073,-0.064 0.8351,-0.063 1.2319,0.059 0.2849,0.085 0.508,0.3219 0.5882,0.6067 0.054,0.1061 0.049,0.1846 -0.079,0.1713 -0.1929,0.026 -0.3858,0.053 -0.5788,0.079 -0.043,-0.2316 -0.2486,-0.4071 -0.4804,-0.431 -0.2493,-0.028 -0.5338,-0.034 -0.7457,0.1207 -0.1808,0.152 -0.1532,0.4807 0.061,0.5908 0.2797,0.1541 0.6065,0.1739 0.9102,0.2568 0.347,0.081 0.7371,0.1939 0.9282,0.5229 0.084,0.146 0.1168,0.3156 0.1153,0.4828"
         id="path3888"
         inkscape:connector-curvature="0" />
    </g>
    <g
       transform="translate(0,0.347252)"
       id="text3712"
       style="font-size:5px;font-style:normal;font-variant:normal;font-weight:bold;font-stretch:normal;text-align:start;line-height:125%;writing-mode:lr-tb;text-anchor:start;fill:#333333;fill-opacity:1;stroke:none;font-family:Liberation Sans;-inkscape-font-specification:Abandoned Bitplane Bold">
      <path
         d="m 50.9956,34.6127 c 0.01,0.3176 -0.1433,0.6405 -0.422,0.8035 -0.4049,0.2431 -0.8973,0.2555 -1.3553,0.2231 -0.4131,-0.033 -0.8638,-0.1899 -1.08,-0.569 -0.035,-0.1 -0.1961,-0.3173 -0.093,-0.3699 0.2166,-0.036 0.4333,-0.072 0.65,-0.1072 0.048,0.2343 0.2325,0.428 0.4677,0.4784 0.2807,0.062 0.5838,0.062 0.8577,-0.031 0.2015,-0.061 0.3171,-0.2848 0.2627,-0.4855 -0.068,-0.2388 -0.3368,-0.3178 -0.5516,-0.3745 -0.4227,-0.1056 -0.8793,-0.1471 -1.2483,-0.3988 -0.3199,-0.225 -0.3849,-0.6726 -0.2744,-1.0251 0.1174,-0.3553 0.4862,-0.5481 0.8354,-0.603 0.4073,-0.064 0.8351,-0.063 1.2319,0.059 0.2849,0.085 0.508,0.3219 0.5882,0.6067 0.054,0.1061 0.049,0.1846 -0.079,0.1713 -0.1929,0.026 -0.3859,0.053 -0.5788,0.079 -0.043,-0.2316 -0.2486,-0.4071 -0.4804,-0.4309 -0.2493,-0.028 -0.5338,-0.034 -0.7457,0.1206 -0.1808,0.152 -0.1532,0.4807 0.061,0.5908 0.2797,0.1541 0.6065,0.1739 0.9102,0.2568 0.347,0.081 0.7371,0.1939 0.9281,0.5229 0.084,0.146 0.1169,0.3156 0.1154,0.4828 z"
         id="path3861"
         inkscape:connector-curvature="0" />
      <path
         d="m 52.2212,33.4897 c 0.1154,-0.27 0.3427,-0.5089 0.643,-0.557 0.3181,-0.061 0.6966,0.01 0.8909,0.291 0.2091,0.2902 0.1843,0.6608 0.1848,1.0008 0,0.4598 0,0.9196 0,1.3794 -0.2278,0 -0.4557,0 -0.6835,0 -0,-0.5303 0,-1.0608 -0,-1.591 -0.01,-0.221 -0.084,-0.4924 -0.3213,-0.5642 -0.2338,-0.076 -0.4962,0.053 -0.5973,0.2732 -0.1441,0.2674 -0.094,0.5771 -0.1033,0.868 0,0.338 0,0.676 0,1.014 -0.2287,0 -0.4574,0 -0.6861,0 0,-1.2077 0,-2.4153 0,-3.623 0.2287,0 0.4574,0 0.6861,0 -0,0.5029 0.013,1.0065 -0.02,1.5088 h 0.01 0"
         id="path3863"
         inkscape:connector-curvature="0" />
      <path
         d="m 55.6831,35.6527 c -0.3474,0 -0.7178,-0.1034 -0.9424,-0.384 -0.2707,-0.3332 -0.3141,-0.7879 -0.285,-1.2012 0.023,-0.379 0.1916,-0.7729 0.5271,-0.975 0.3022,-0.1788 0.6754,-0.2142 1.0159,-0.148 0.3179,0.065 0.5897,0.2973 0.7128,0.5964 0.1187,0.2744 0.1508,0.5777 0.1508,0.8741 -0.5648,0 -1.1296,0 -1.6943,0 0,0.2437 0.037,0.5287 0.2453,0.6871 0.1617,0.1186 0.3931,0.1176 0.5697,0.034 0.1043,-0.048 0.1586,-0.1665 0.2005,-0.2563 0.2133,0.019 0.4265,0.037 0.6397,0.056 -0.1034,0.2662 -0.2984,0.5051 -0.5693,0.6118 -0.1783,0.082 -0.3764,0.1061 -0.5708,0.1059 z m 0,-2.3071 c -0.1956,-0.01 -0.3849,0.1155 -0.4474,0.3025 -0.044,0.1066 -0.059,0.2226 -0.063,0.3372 0.3418,0 0.6836,0 1.0254,0 -0.011,-0.229 -0.083,-0.497 -0.3112,-0.5994 -0.064,-0.029 -0.1342,-0.04 -0.2039,-0.04 z"
         id="path3865"
         inkscape:connector-curvature="0" />
      <path
         d="m 57.3848,35.6039 c -0,-0.7261 0,-1.4523 -0,-2.1785 -0,-0.1544 -0,-0.3092 -0.018,-0.4631 0.2181,0 0.4362,0 0.6543,0 0.02,0.1873 0.026,0.3759 0.032,0.564 0.049,-0.073 0.072,-0.1855 0.1188,-0.2706 0.071,-0.1685 0.2183,-0.3139 0.4061,-0.3362 0.1099,-0.016 0.2248,-0.01 0.3296,0.028 0,0.1912 0,0.3825 0,0.5737 -0.1947,-0.043 -0.4257,-0.075 -0.5924,0.062 -0.2,0.1643 -0.2363,0.4439 -0.2423,0.6868 -7e-4,0.4448 -10e-5,0.8895 -3e-4,1.3342 -0.2287,0 -0.4573,0 -0.686,0"
         id="path3867"
         inkscape:connector-curvature="0" />
      <path
         d="m 59.328125,35.60392 0,-3.623047 0.686035,0 0,3.623047 -0.686035,0"
         inkscape:connector-curvature="0"
         id="path3869" />
      <path
         d="m 63.2246,34.2807 c 0,0.4123 -0.1322,0.8581 -0.4749,1.1133 -0.3398,0.2585 -0.7975,0.3002 -1.2065,0.2271 -0.3668,-0.068 -0.7017,-0.3131 -0.849,-0.66 -0.1612,-0.3733 -0.1713,-0.8046 -0.062,-1.1935 0.097,-0.3426 0.356,-0.6355 0.6921,-0.7579 0.3276,-0.1212 0.6932,-0.1219 1.0307,-0.043 0.3502,0.085 0.6528,0.3472 0.7693,0.6904 0.071,0.1996 0.101,0.4123 0.1007,0.6238 z m -0.7178,0 c -0,-0.265 -0.021,-0.5727 -0.2277,-0.7664 -0.1839,-0.1614 -0.4729,-0.1672 -0.6824,-0.054 -0.2351,0.1364 -0.298,0.4297 -0.3115,0.6807 -0.011,0.2998 -0,0.6386 0.2007,0.8795 0.1754,0.1983 0.4947,0.2073 0.7145,0.082 0.2692,-0.1709 0.3033,-0.5335 0.3064,-0.8217 z"
         id="path3871"
         inkscape:connector-curvature="0" />
      <path
         d="m 64.8726,35.6527 c -0.3602,0.01 -0.7425,-0.1163 -0.971,-0.4075 -0.2666,-0.3352 -0.3124,-0.7905 -0.2698,-1.2031 0.038,-0.3741 0.2136,-0.7578 0.5479,-0.9542 0.3142,-0.1854 0.7031,-0.2103 1.0542,-0.136 0.3344,0.075 0.6319,0.315 0.747,0.6419 0.013,0.071 0.117,0.231 -0.017,0.2047 -0.2058,0.01 -0.4117,0.02 -0.6176,0.031 -0.021,-0.2032 -0.1607,-0.413 -0.3772,-0.4367 -0.1921,-0.038 -0.4134,0.037 -0.5042,0.2194 -0.1416,0.2747 -0.1359,0.5974 -0.1162,0.898 0.023,0.2266 0.081,0.4923 0.2928,0.6172 0.2241,0.1236 0.5507,0.046 0.6594,-0.1968 0.071,-0.062 0.01,-0.26 0.126,-0.2341 0.2099,0.01 0.4199,0.019 0.6298,0.029 -0.044,0.3696 -0.3042,0.6989 -0.6516,0.8318 -0.1677,0.071 -0.3514,0.096 -0.5324,0.096 z"
         id="path3873"
         inkscape:connector-curvature="0" />
      <path
         d="m 68.2417,35.6039 c -0.2352,-0.3987 -0.4704,-0.7975 -0.7056,-1.1963 -0.098,0.068 -0.1969,0.1367 -0.2954,0.2051 0,0.3304 0,0.6608 0,0.9912 -0.2287,0 -0.4573,0 -0.686,0 0,-1.2077 0,-2.4153 0,-3.623 0.2287,0 0.4573,0 0.686,0 0,0.6917 0,1.3834 0,2.0752 0.3142,-0.3646 0.6283,-0.7292 0.9424,-1.0938 0.2458,0 0.4915,0 0.7373,0 -0.3092,0.3434 -0.6185,0.6869 -0.9277,1.0303 0.3328,0.5371 0.6657,1.0742 0.9985,1.6113 -0.2498,0 -0.4997,0 -0.7495,0 z"
         id="path3875"
         inkscape:connector-curvature="0" />
    </g>
    <g
       transform="translate(-0.057129,-0.433994)"
       id="text3716"
       style="font-size:4px;font-style:normal;font-variant:normal;font-weight:normal;font-stretch:normal;text-align:start;line-height:125%;writing-mode:lr-tb;text-anchor:start;fill:#333333;fill-opacity:1;stroke:none;font-family:Liberation Sans;-inkscape-font-specification:Liberation Sans">
      <path
         d="m 48.0571,43.6039 c 0,-0.083 0,-0.1653 0,-0.248 0.1778,-0.4266 0.543,-0.733 0.896,-1.0127 0.2059,-0.1707 0.4376,-0.3553 0.507,-0.6264 0.048,-0.205 -0.01,-0.4637 -0.2154,-0.5592 -0.2472,-0.114 -0.5967,-0.066 -0.7419,0.1846 -0.074,0.051 -0.018,0.2361 -0.1172,0.2184 -0.1043,-0.01 -0.2085,-0.019 -0.3128,-0.029 0.026,-0.2797 0.2117,-0.5363 0.4735,-0.6413 0.2555,-0.1051 0.5494,-0.1017 0.8119,-0.024 0.2456,0.071 0.4366,0.2917 0.467,0.5464 0.044,0.2314 -0.031,0.4701 -0.1724,0.6543 -0.308,0.416 -0.7933,0.6545 -1.1083,1.0638 -0.019,0.044 -0.1507,0.179 -0.061,0.1745 0.4651,0 0.9303,0 1.3955,0 0,0.1 0,0.1992 0,0.2988 -0.6074,0 -1.2148,0 -1.8223,0"
         id="path3804"
         inkscape:connector-curvature="0" />
      <path
         d="m 50.2837,43.6039 c 0,-0.083 0,-0.1653 0,-0.248 0.1778,-0.4266 0.543,-0.733 0.896,-1.0127 0.2058,-0.1707 0.4375,-0.3553 0.507,-0.6264 0.048,-0.205 -0.01,-0.4637 -0.2154,-0.5592 -0.2472,-0.114 -0.5967,-0.066 -0.7419,0.1846 -0.074,0.051 -0.018,0.2361 -0.1172,0.2184 -0.1043,-0.01 -0.2086,-0.019 -0.3129,-0.029 0.026,-0.2797 0.2118,-0.5363 0.4735,-0.6413 0.2555,-0.1051 0.5494,-0.1017 0.812,-0.024 0.2456,0.071 0.4365,0.2917 0.467,0.5464 0.044,0.2314 -0.031,0.4701 -0.1724,0.6543 -0.3081,0.416 -0.7934,0.6545 -1.1083,1.0638 -0.019,0.044 -0.1508,0.179 -0.061,0.1745 0.4652,0 0.9304,0 1.3956,0 0,0.1 0,0.1992 0,0.2988 -0.6075,0 -1.2149,0 -1.8223,0"
         id="path3806"
         inkscape:connector-curvature="0" />
      <path
         d="m 52.61377,43.60392 0,-0.298828 0.701171,0 0,-2.117188 -0.621093,0.44336 0,-0.332032 0.65039,-0.447265 0.324219,0 0,2.453125 0.669922,0 0,0.298828 -1.724609,0"
         inkscape:connector-curvature="0"
         id="path3808" />
      <path
         d="m 56.5923,42.5375 c -0,0.3098 -0.035,0.6497 -0.246,0.8939 -0.2027,0.228 -0.5469,0.2501 -0.8238,0.171 -0.1665,-0.045 -0.2905,-0.1833 -0.3697,-0.3266 -0.022,0.097 0.027,0.2779 -0.047,0.3281 -0.1041,0 -0.2082,0 -0.3123,0 0.02,-0.4226 0.01,-0.8461 0.012,-1.2691 0,-0.5431 0,-1.0862 0,-1.6293 0.1172,0 0.2344,0 0.3516,0 -0,0.375 0.01,0.7502 -0.01,1.125 0.068,-0.1034 0.143,-0.2319 0.2656,-0.291 0.2172,-0.1085 0.482,-0.1145 0.71,-0.036 0.2549,0.09 0.3879,0.3576 0.4314,0.6089 0.027,0.14 0.036,0.283 0.036,0.4254 m -0.3691,0.012 c -0.01,-0.2375 -0,-0.5066 -0.1653,-0.6993 -0.1422,-0.1528 -0.3809,-0.1506 -0.5653,-0.087 -0.2109,0.078 -0.2925,0.3155 -0.3183,0.52 -0.028,0.2795 -0.038,0.5779 0.079,0.8397 0.07,0.1641 0.2445,0.2575 0.4178,0.2595 0.1727,0.018 0.3655,-0.049 0.4442,-0.2138 0.097,-0.1892 0.1046,-0.4107 0.108,-0.6187"
         id="path3810"
         inkscape:connector-curvature="0" />
      <path
         d="m 60.3286,42.8285 c 0.012,0.2637 -0.1377,0.5237 -0.3749,0.6405 -0.3074,0.1637 -0.6624,0.1317 -0.9987,0.1349 -0.2517,0 -0.5035,0 -0.7553,0 0,-0.9173 0,-1.8346 0,-2.7519 0.3793,0 0.7588,-0 1.1381,0 0.263,0.017 0.5662,0.072 0.7282,0.3027 0.187,0.2813 0.1183,0.7206 -0.1801,0.8987 -0.055,0.049 -0.2207,0.083 -0.2203,0.098 0.2569,0.028 0.5266,0.1675 0.6181,0.4232 0.031,0.079 0.045,0.1649 0.045,0.25 z m -0.5351,-1.2636 c 0.01,-0.1566 -0.083,-0.3145 -0.2371,-0.3603 -0.2239,-0.08 -0.4648,-0.046 -0.6977,-0.054 -0.095,0 -0.1906,0 -0.2859,0 0,0.2904 0,0.5807 0,0.8711 0.2535,-0 0.5075,0.01 0.7607,-0.01 0.1866,-0.012 0.3992,-0.1047 0.4424,-0.3049 0.013,-0.048 0.018,-0.097 0.018,-0.1461 z m 0.1582,1.2343 c 0.01,-0.1848 -0.1072,-0.3654 -0.2847,-0.4238 -0.2434,-0.091 -0.5068,-0.055 -0.7608,-0.062 -0.1111,0 -0.2223,0 -0.3334,0 0,0.3307 0,0.6615 0,0.9922 0.2816,-0 0.5634,0 0.8448,-0 0.1962,-0.01 0.4198,-0.083 0.4967,-0.2824 0.028,-0.069 0.037,-0.1447 0.037,-0.219 z"
         id="path3812"
         inkscape:connector-curvature="0" />
      <path
         d="m 61.3521,43.643 c -0.204,0.01 -0.4303,-0.063 -0.541,-0.2475 -0.1146,-0.187 -0.1214,-0.4264 -0.061,-0.6328 0.078,-0.2313 0.3095,-0.3711 0.5412,-0.4068 0.2669,-0.047 0.5389,-0.032 0.8086,-0.041 -10e-5,-0.1726 0.012,-0.3723 -0.1259,-0.5 -0.1484,-0.1177 -0.3549,-0.1059 -0.531,-0.076 -0.1486,0.023 -0.2577,0.157 -0.2673,0.3042 -0.016,0.026 -0.075,-0 -0.1093,0 -0.087,-0.01 -0.173,-0.016 -0.2595,-0.023 0.027,-0.2088 0.1581,-0.4067 0.3583,-0.4847 0.2389,-0.098 0.5088,-0.1039 0.7605,-0.06 0.2215,0.039 0.4276,0.1928 0.4912,0.4141 0.059,0.191 0.032,0.3927 0.038,0.5895 0,0.2273 -0,0.4548 0,0.6819 0,0.1036 0.056,0.2315 0.1791,0.2239 0.058,0.01 0.1547,-0.048 0.1294,0.047 0,0.053 0,0.1058 0,0.1587 -0.1554,0.031 -0.3274,0.057 -0.477,-0.01 -0.1385,-0.072 -0.1718,-0.241 -0.1793,-0.3832 -0.054,0.048 -0.088,0.1378 -0.1451,0.1938 -0.1475,0.181 -0.388,0.2532 -0.6146,0.2496 m 0.08,-0.2637 c 0.2839,0.013 0.5553,-0.1853 0.6366,-0.4559 0.042,-0.1166 0.029,-0.2412 0.031,-0.3625 -0.2335,0.01 -0.4699,-0.01 -0.7002,0.04 -0.1623,0.032 -0.3089,0.1635 -0.3202,0.3348 -0.023,0.1507 0.015,0.3386 0.1681,0.4066 0.057,0.027 0.1214,0.037 0.1843,0.037"
         id="path3814"
         inkscape:connector-curvature="0" />
      <path
         d="m 64.36377,43.60392 -0.714844,-0.964844 -0.257813,0.212891 0,0.751953 -0.351562,0 0,-2.898438 0.351562,0 0,1.810547 0.927735,-1.02539 0.412109,0 -0.857422,0.908203 0.902344,1.205078 -0.412109,0"
         inkscape:connector-curvature="0"
         id="path3816" />
      <path
         d="m 65.3091,42.6215 c 5e-4,0.2345 0.046,0.5036 0.2442,0.6546 0.1623,0.1225 0.3843,0.1221 0.5737,0.074 0.145,-0.042 0.2749,-0.1505 0.3247,-0.2952 0.1028,0.029 0.2057,0.059 0.3086,0.088 -0.07,0.1915 -0.2192,0.354 -0.413,0.4235 -0.2271,0.089 -0.4819,0.095 -0.7196,0.049 -0.2534,-0.049 -0.4782,-0.2251 -0.5776,-0.4645 -0.1189,-0.2794 -0.1277,-0.5939 -0.092,-0.8915 0.039,-0.2857 0.1868,-0.5769 0.4563,-0.7071 0.2575,-0.12 0.5617,-0.1313 0.8318,-0.049 0.2339,0.075 0.4137,0.2735 0.489,0.5044 0.065,0.1971 0.083,0.4065 0.081,0.6131 -0.5026,0 -1.0052,0 -1.5078,0 z m 1.1445,-0.2695 c -0.018,-0.2099 -0.075,-0.4525 -0.2698,-0.5677 -0.1835,-0.101 -0.4236,-0.098 -0.6042,0.01 -0.1861,0.118 -0.2633,0.3483 -0.2666,0.5596 0.3802,0 0.7604,0 1.1406,0 z"
         id="path3818"
         inkscape:connector-curvature="0" />
      <path
         d="m 67.2739,43.6039 c -7e-4,-0.5739 0,-1.1479 -0,-1.7218 -0,-0.1305 -0.01,-0.261 -0.011,-0.3915 0.1107,0 0.2214,0 0.3321,0 0.01,0.1439 0.015,0.2876 0.016,0.4317 0.037,-0.06 0.052,-0.152 0.091,-0.2201 0.056,-0.1225 0.1671,-0.223 0.3037,-0.2414 0.085,-0.015 0.1734,-0.011 0.2573,0.01 0,0.1074 0,0.2148 0,0.3223 -0.1484,-0.031 -0.3264,-0.039 -0.4442,0.074 -0.1524,0.1444 -0.1808,0.3683 -0.1913,0.5674 -0,0.3898 -5e-4,0.7797 -0,1.1696 -0.1172,0 -0.2344,0 -0.3516,0"
         id="path3820"
         inkscape:connector-curvature="0" />
      <path
         d="m 71.9263,42.8442 c 0.01,0.2682 -0.148,0.531 -0.3913,0.647 -0.3292,0.1667 -0.7128,0.1719 -1.0718,0.1305 -0.309,-0.036 -0.6312,-0.1879 -0.7704,-0.4812 -0.017,-0.066 -0.1306,-0.2141 -0,-0.2096 0.099,-0.02 0.1979,-0.04 0.2969,-0.059 0.044,0.2117 0.2167,0.3796 0.4246,0.4312 0.2535,0.068 0.5276,0.067 0.7813,8e-4 0.1881,-0.048 0.3637,-0.2021 0.3654,-0.4081 0.019,-0.1595 -0.074,-0.3165 -0.2197,-0.3822 -0.2359,-0.1135 -0.5004,-0.1426 -0.7514,-0.2086 -0.2628,-0.063 -0.5482,-0.1488 -0.7185,-0.373 -0.1474,-0.2121 -0.1522,-0.513 -0.026,-0.7357 0.1635,-0.2705 0.4979,-0.3597 0.794,-0.3792 0.3119,-0.014 0.6503,-0.01 0.9221,0.1646 0.1601,0.1047 0.2533,0.2832 0.3049,0.4625 -0.1224,0.021 -0.2448,0.043 -0.3672,0.064 -0.044,-0.1958 -0.2081,-0.3493 -0.4049,-0.3851 -0.2418,-0.049 -0.5036,-0.049 -0.7352,0.044 -0.1792,0.063 -0.2725,0.2669 -0.2303,0.4471 0.047,0.203 0.2683,0.2805 0.447,0.3312 0.3504,0.098 0.7269,0.1325 1.0461,0.3198 0.2051,0.1169 0.3161,0.3472 0.309,0.5792 z"
         id="path3822"
         inkscape:connector-curvature="0" />
      <path
         d="m 73.1958,43.5883 c -0.1748,0.041 -0.3651,0.075 -0.54,0.017 -0.167,-0.057 -0.2341,-0.2425 -0.2364,-0.4048 -0,-0.4847 -3e-4,-0.9694 -9e-4,-1.454 -0.081,0 -0.1628,0 -0.2442,0 0,-0.085 0,-0.1706 0,-0.2559 0.086,0 0.1719,0 0.2578,0 0.034,-0.1575 0.069,-0.3151 0.1035,-0.4726 0.078,0 0.1563,0 0.2344,0 0,0.1575 0,0.3151 0,0.4726 0.1302,0 0.2604,0 0.3906,0 0,0.085 0,0.1706 0,0.2559 -0.1302,0 -0.2604,0 -0.3906,0 0,0.4626 -0,0.9254 0,1.3879 -0,0.099 0.052,0.2139 0.164,0.2177 0.087,0.012 0.1748,-0.01 0.2601,-0.024 0,0.087 0,0.1732 0,0.2598"
         id="path3824"
         inkscape:connector-curvature="0" />
      <path
         d="m 73.588379,43.60392 0,-0.427734 0.380859,0 0,0.427734 -0.380859,0"
         inkscape:connector-curvature="0"
         id="path3826" />
      <path
         d="m 49.9692,48.6039 c -0.4908,-0.7812 -0.9817,-1.5625 -1.4726,-2.3437 0.031,0.846 0.02,1.506 0.02,2.3437 h -0.332 V 45.852 h 0.4335 c 0.4961,0.7864 0.9922,1.5729 1.4883,2.3593 -0.037,-0.8492 -0.023,-1.5154 -0.023,-2.3593 h 0.3359 v 2.7519 h -0.4492"
         id="path3828"
         inkscape:connector-curvature="0"
         sodipodi:nodetypes="ccccccccccc" />
      <path
         d="m 53.6978,48.6039 h -0.4454 c -0.228,-0.8335 -0.4267,-1.5632 -0.6199,-2.3077 -0.1938,0.8355 -0.4079,1.5532 -0.6129,2.3077 H 51.5743 C 51.3041,47.6866 51.034,46.7693 50.7638,45.852 h 0.3886 c 0.2479,0.8707 0.4494,1.5893 0.6636,2.3902 0.2038,-0.8718 0.4284,-1.6127 0.6431,-2.3902 h 0.3574 c 0.2474,0.8815 0.4459,1.5934 0.6558,2.4072 0.2065,-0.8739 0.4302,-1.6211 0.6469,-2.4072 h 0.3887 c -0.2702,0.9173 -0.5404,1.8346 -0.8105,2.7519 z"
         id="path3830"
         inkscape:connector-curvature="0"
         sodipodi:nodetypes="ccccccccccccccc" />
      <path
         d="m 54.824707,48.60392 0,-0.298828 0.701172,0 0,-2.117188 -0.621094,0.44336 0,-0.332032 0.650391,-0.447265 0.324219,0 0,2.453125 0.669921,0 0,0.298828 -1.724609,0"
         inkscape:connector-curvature="0"
         id="path3832" />
      <path
         d="m 59.9048,47.7035 c 0.01,0.3158 -0.1193,0.6611 -0.4075,0.822 -0.2496,0.1408 -0.5641,0.1521 -0.8316,0.057 -0.2978,-0.1106 -0.4746,-0.4066 -0.5442,-0.7032 -0.085,-0.3742 -0.08,-0.7665 -0.015,-1.1435 0.062,-0.3265 0.2128,-0.6711 0.523,-0.831 0.2446,-0.1205 0.5421,-0.1229 0.7949,-0.026 0.2071,0.084 0.3496,0.2802 0.4043,0.4927 -0.112,0.02 -0.2239,0.04 -0.3359,0.061 -0.044,-0.1822 -0.2084,-0.3212 -0.3952,-0.3331 -0.2086,-0.028 -0.4193,0.087 -0.5189,0.2706 -0.1435,0.2463 -0.1679,0.5392 -0.1699,0.8184 0.1388,-0.2742 0.4672,-0.391 0.7595,-0.3595 0.2863,0.015 0.5575,0.1996 0.6606,0.4697 0.054,0.1279 0.076,0.2671 0.076,0.4054 m -0.3574,0.016 c 0,-0.2195 -0.075,-0.4686 -0.2891,-0.5668 -0.2458,-0.1138 -0.5892,-0.059 -0.7385,0.1816 -0.111,0.1854 -0.086,0.4201 -0.027,0.6185 0.067,0.2214 0.2699,0.4147 0.5112,0.4073 0.2078,0.01 0.4135,-0.1185 0.4852,-0.3157 0.042,-0.1026 0.058,-0.2145 0.058,-0.3249 z"
         id="path3834"
         inkscape:connector-curvature="0" />
      <path
         d="m 62.254395,48.60392 -0.826172,-1.203125 -0.84375,1.203125 -0.41211,0 1.046875,-1.429688 -0.966797,-1.322265 0.41211,0 0.765625,1.080078 0.74414,-1.080078 0.41211,0 -0.941406,1.308594 1.021484,1.443359 -0.412109,0"
         inkscape:connector-curvature="0"
         id="path3836" />
      <path
         d="m 63.08252,48.60392 0,-2.751953 2.08789,0 0,0.304687 -1.714844,0 0,0.882813 1.597657,0 0,0.300781 -1.597657,0 0,0.958984 1.794922,0 0,0.304688 -2.167968,0"
         inkscape:connector-curvature="0"
         id="path3838" />
      <path
         d="m 48.184082,53.60392 0,-2.751953 0.373047,0 0,2.447265 1.390625,0 0,0.304688 -1.763672,0"
         inkscape:connector-curvature="0"
         id="path3840" />
      <path
         d="m 52.1392,52.5453 c -7e-4,0.3027 -0.051,0.6363 -0.2756,0.8591 -0.2271,0.2247 -0.5709,0.2664 -0.8742,0.224 -0.2449,-0.033 -0.4773,-0.1757 -0.5925,-0.3981 -0.1529,-0.2811 -0.1622,-0.6148 -0.1334,-0.9263 0.029,-0.279 0.1416,-0.5747 0.3949,-0.7232 0.2414,-0.1416 0.5379,-0.1508 0.8075,-0.1051 0.2326,0.04 0.4486,0.1856 0.5487,0.4031 0.1005,0.2058 0.1231,0.4406 0.1246,0.6665 z m -0.3692,0 c -0,-0.2304 -0.014,-0.4832 -0.1595,-0.6738 -0.1252,-0.1576 -0.3498,-0.1767 -0.5353,-0.1499 -0.1621,0.019 -0.3047,0.1287 -0.3667,0.2793 -0.1,0.2334 -0.096,0.4949 -0.081,0.7437 0.02,0.2103 0.078,0.45 0.2686,0.5696 0.1685,0.092 0.3798,0.087 0.5566,0.021 0.1994,-0.087 0.2758,-0.3157 0.3009,-0.5154 0.012,-0.091 0.016,-0.183 0.016,-0.2748"
         id="path3842"
         inkscape:connector-curvature="0" />
      <path
         d="m 53.9204,53.6039 c -9e-4,-0.4712 0,-0.9426 -0,-1.4138 -0.01,-0.1495 -0.026,-0.3319 -0.1706,-0.4152 -0.1391,-0.065 -0.3056,-0.067 -0.4511,-0.022 -0.1932,0.06 -0.314,0.2507 -0.344,0.4434 -0.026,0.1768 -0.011,0.3561 -0.015,0.5342 0,0.2912 0,0.5824 0,0.8736 -0.1172,0 -0.2344,0 -0.3516,0 -9e-4,-0.5942 0,-1.1885 -0,-1.7828 -0,-0.1102 -0,-0.2205 -0.01,-0.3305 0.1107,0 0.2214,0 0.3321,0 0.01,0.1203 0.014,0.2408 0.016,0.3614 0.042,-0.051 0.076,-0.1233 0.1248,-0.1752 0.1537,-0.1861 0.4108,-0.2423 0.6417,-0.2225 0.1903,0.01 0.3975,0.084 0.49,0.2618 0.1228,0.2362 0.09,0.5081 0.095,0.7648 0,0.3743 0,0.7487 0,1.123 -0.1179,0 -0.2357,0 -0.3536,0"
         id="path3844"
         inkscape:connector-curvature="0" />
      <path
         d="m 56.1392,53.2641 c -0.085,0.1986 -0.2757,0.342 -0.4905,0.3665 -0.2656,0.042 -0.5786,-0.01 -0.7455,-0.2406 -0.1889,-0.2701 -0.2035,-0.6157 -0.1979,-0.9342 0.013,-0.3016 0.064,-0.6382 0.302,-0.8488 0.2158,-0.1812 0.5311,-0.1884 0.789,-0.106 0.1552,0.051 0.2716,0.1814 0.3468,0.3178 -0.01,-0.371 -0,-0.7422 -0,-1.1133 0.1171,0 0.2343,0 0.3515,0 9e-4,0.8868 -0,1.7737 0,2.6604 -0.021,0.071 0.06,0.237 -0.031,0.238 -0.098,0 -0.1964,0 -0.2946,0 -0.022,-0.1101 -0.01,-0.2419 -0.027,-0.3398 m -1.0664,-0.7188 c 0.01,0.2301 0.01,0.4854 0.1476,0.6793 0.1369,0.1712 0.39,0.1744 0.5812,0.1074 0.2116,-0.078 0.2938,-0.317 0.32,-0.522 0.027,-0.274 0.038,-0.5653 -0.072,-0.8236 -0.069,-0.1696 -0.2461,-0.2698 -0.4244,-0.2736 -0.1726,-0.018 -0.3654,0.049 -0.4441,0.2138 -0.099,0.189 -0.1049,0.4103 -0.1079,0.6187 z"
         id="path3846"
         inkscape:connector-curvature="0" />
      <path
         d="m 58.8188,52.5453 c -6e-4,0.3027 -0.051,0.6363 -0.2755,0.8591 -0.2271,0.2247 -0.571,0.2664 -0.8742,0.224 -0.2449,-0.033 -0.4773,-0.1757 -0.5925,-0.3981 -0.1529,-0.2811 -0.1622,-0.6148 -0.1334,-0.9263 0.029,-0.279 0.1416,-0.5747 0.3949,-0.7232 0.2414,-0.1416 0.5379,-0.1508 0.8075,-0.1051 0.2326,0.04 0.4486,0.1856 0.5487,0.4031 0.1004,0.2058 0.1231,0.4406 0.1246,0.6665 z m -0.3691,0 c -0,-0.2304 -0.014,-0.4832 -0.1595,-0.6738 -0.1252,-0.1576 -0.3498,-0.1767 -0.5353,-0.1499 -0.1621,0.019 -0.3047,0.1287 -0.3667,0.2793 -0.1,0.2334 -0.096,0.4949 -0.081,0.7437 0.02,0.2103 0.078,0.45 0.2687,0.5696 0.1685,0.092 0.3798,0.087 0.5566,0.021 0.1994,-0.087 0.2758,-0.3157 0.3009,-0.5154 0.012,-0.091 0.016,-0.183 0.016,-0.2748"
         id="path3848"
         inkscape:connector-curvature="0" />
      <path
         d="m 60.6001,53.6039 c -9e-4,-0.4712 0,-0.9426 -0,-1.4138 -0.01,-0.1495 -0.026,-0.3319 -0.1707,-0.4152 -0.139,-0.065 -0.3055,-0.067 -0.451,-0.022 -0.1932,0.06 -0.314,0.2507 -0.344,0.4434 -0.026,0.1768 -0.011,0.3561 -0.015,0.5342 0,0.2912 0,0.5824 0,0.8736 -0.1172,0 -0.2344,0 -0.3516,0 -9e-4,-0.5942 0,-1.1885 -0,-1.7828 -0,-0.1102 -0,-0.2205 -0.01,-0.3305 0.1107,0 0.2214,0 0.332,0 0.01,0.1203 0.014,0.2408 0.016,0.3614 0.042,-0.051 0.076,-0.1233 0.1249,-0.1752 0.1537,-0.1861 0.4108,-0.2423 0.6417,-0.2225 0.1902,0.01 0.3975,0.084 0.49,0.2618 0.1228,0.2362 0.09,0.5081 0.095,0.7648 10e-5,0.3743 0,0.7487 0,1.123 -0.1178,0 -0.2356,0 -0.3535,0"
         id="path3850"
         inkscape:connector-curvature="0" />
      <path
         d="m 63.8716,51.1156 c -0.323,-0.011 -0.6598,0.1452 -0.8135,0.4385 -0.1759,0.3309 -0.1888,0.7332 -0.093,1.0902 0.089,0.3211 0.347,0.5985 0.6792,0.6661 0.3034,0.07 0.6477,0.01 0.8738,-0.2172 0.1,-0.093 0.1762,-0.2083 0.2383,-0.3291 0.1015,0.051 0.2031,0.1015 0.3046,0.1523 -0.1609,0.3518 -0.4896,0.6214 -0.8709,0.6958 -0.4243,0.079 -0.906,0.016 -1.2364,-0.282 -0.3326,-0.2957 -0.4411,-0.7651 -0.4245,-1.1945 0.01,-0.4056 0.1586,-0.835 0.4988,-1.0789 0.3612,-0.2605 0.8426,-0.2932 1.2658,-0.1973 0.3315,0.074 0.6209,0.3136 0.7419,0.6331 -0.1179,0.039 -0.2357,0.078 -0.3536,0.1172 -0.1047,-0.2845 -0.3919,-0.4659 -0.6871,-0.4884 -0.041,-0 -0.082,-0.01 -0.1234,-0.01 z"
         id="path3852"
         inkscape:connector-curvature="0" />
      <path
         d="m 65.48291,51.04142 0,-0.335938 0.351563,0 0,0.335938 -0.351563,0 m 0,2.5625 0,-2.113281 0.351563,0 0,2.113281 -0.351563,0"
         inkscape:connector-curvature="0"
         id="path3854" />
      <path
         d="m 67.188,53.5883 c -0.1748,0.041 -0.3651,0.075 -0.5401,0.017 -0.1669,-0.057 -0.234,-0.2425 -0.2363,-0.4048 -0,-0.4847 -4e-4,-0.9694 -0,-1.454 -0.081,0 -0.1627,0 -0.2441,0 0,-0.085 0,-0.1706 0,-0.2559 0.086,0 0.1719,0 0.2578,0 0.034,-0.1575 0.069,-0.3151 0.1035,-0.4726 0.078,0 0.1563,0 0.2344,0 0,0.1575 0,0.3151 0,0.4726 0.1302,0 0.2604,0 0.3906,0 0,0.085 0,0.1706 0,0.2559 -0.1302,0 -0.2604,0 -0.3906,0 0,0.4626 -0,0.9254 0,1.3879 -0,0.099 0.051,0.2139 0.164,0.2177 0.087,0.012 0.1747,-0.01 0.2601,-0.024 0,0.087 0,0.1732 0,0.2598"
         id="path3856"
         inkscape:connector-curvature="0" />
      <path
         d="m 68.395,53.6039 c -0.1145,0.2744 -0.2277,0.585 -0.4939,0.7484 -0.1655,0.101 -0.3708,0.094 -0.5549,0.06 0,-0.088 0,-0.1758 0,-0.2637 0.1493,0.025 0.3163,0.017 0.4345,-0.09 0.1446,-0.1181 0.2169,-0.2956 0.2823,-0.4652 -0.2793,-0.7011 -0.5586,-1.4023 -0.8379,-2.1035 0.125,0 0.25,0 0.375,0 0.1593,0.4226 0.3249,0.8428 0.4801,1.2669 0.051,0.1547 0.1096,0.3074 0.1566,0.4636 0.1053,-0.3046 0.2172,-0.607 0.3191,-0.9128 0.094,-0.2726 0.187,-0.5451 0.2805,-0.8177 0.1237,0 0.2474,0 0.3711,0 -0.2708,0.7045 -0.5417,1.4089 -0.8125,2.1133 z"
         id="path3858"
         inkscape:connector-curvature="0" />
    </g>
    <g
       transform="translate(-0.036618,1.078102)"
       id="text3724"
       style="font-size:3.5px;font-style:normal;font-variant:normal;font-weight:normal;font-stretch:normal;text-align:start;line-height:125%;writing-mode:lr-tb;text-anchor:start;fill:#333333;fill-opacity:1;stroke:none;font-family:Liberation Sans;-inkscape-font-specification:Liberation Sans">
      <path
         style="font-weight:bold;-inkscape-font-specification:'Abandoned Bitplane Bold';fill:#333333"
         d="m 49.2517,71.8179 c 0.2439,0.012 0.4823,-0.1331 0.5861,-0.354 0.022,-0.088 0.06,-0.1202 0.1363,-0.071 0.117,0.044 0.2339,0.088 0.3509,0.1325 -0.104,0.2635 -0.3035,0.4955 -0.5722,0.5984 -0.281,0.1144 -0.5989,0.111 -0.8915,0.047 -0.308,-0.072 -0.5823,-0.2869 -0.7056,-0.581 -0.1397,-0.3279 -0.1485,-0.7022 -0.072,-1.0468 0.068,-0.3068 0.2788,-0.585 0.5744,-0.7028 0.2948,-0.1217 0.6286,-0.1283 0.938,-0.066 0.2855,0.06 0.5427,0.2535 0.6566,0.5253 0.048,0.072 0.049,0.127 -0.043,0.1298 -0.1199,0.033 -0.2398,0.066 -0.3597,0.098 -0.077,-0.2579 -0.353,-0.4023 -0.6102,-0.3948 -0.2392,-0.01 -0.4936,0.1061 -0.5965,0.3315 -0.1202,0.2557 -0.119,0.554 -0.065,0.8262 0.049,0.2406 0.2305,0.4599 0.4783,0.5074 0.064,0.014 0.1294,0.02 0.1947,0.02 z"
         id="path3734"
         inkscape:connector-curvature="0" />
      <path
         style="font-weight:bold;-inkscape-font-specification:'Abandoned Bitplane Bold';fill:#333333"
         d="m 52.4236,71.2539 c 0,0.2886 -0.093,0.6007 -0.3325,0.7793 -0.2378,0.181 -0.5582,0.2102 -0.8445,0.159 -0.2568,-0.048 -0.4912,-0.2191 -0.5943,-0.462 -0.1128,-0.2613 -0.1199,-0.5632 -0.044,-0.8355 0.068,-0.2397 0.2491,-0.4448 0.4844,-0.5304 0.2293,-0.085 0.4852,-0.085 0.7215,-0.03 0.2451,0.059 0.4569,0.2431 0.5385,0.4833 0.05,0.1397 0.071,0.2886 0.071,0.4366 m -0.5024,0 c -0,-0.1855 -0.015,-0.4008 -0.1595,-0.5364 -0.1287,-0.113 -0.331,-0.1171 -0.4777,-0.038 -0.1645,0.095 -0.2086,0.3007 -0.218,0.4764 -0.01,0.2099 -0,0.447 0.1405,0.6157 0.1228,0.1388 0.3463,0.1451 0.5002,0.057 0.1884,-0.1196 0.2122,-0.3734 0.2145,-0.5752 z"
         id="path3736"
         inkscape:connector-curvature="0" />
      <path
         style="font-weight:bold;-inkscape-font-specification:'Abandoned Bitplane Bold';fill:#333333"
         d="m 54.0044,72.1802 c -10e-4,-0.3676 0,-0.7353 -0,-1.1028 -0.01,-0.1478 -0.044,-0.3238 -0.1906,-0.3941 -0.1489,-0.068 -0.3384,-0.01 -0.4241,0.13 -0.1013,0.1432 -0.1048,0.3236 -0.1014,0.4921 0,0.2916 0,0.5832 0,0.8748 -0.1601,0 -0.3201,0 -0.4802,0 -0,-0.5299 0,-1.0599 -0,-1.5898 -0,-0.086 -0,-0.1732 -0.012,-0.2593 0.1527,0 0.3053,0 0.458,0 0.014,0.1219 0.018,0.2448 0.022,0.3674 0.041,-0.056 0.072,-0.1366 0.1243,-0.1923 0.1297,-0.1674 0.3535,-0.2299 0.5577,-0.2076 0.1977,0.01 0.3847,0.1352 0.4592,0.3202 0.093,0.2187 0.064,0.4598 0.069,0.6911 0,0.2901 0,0.5802 0,0.8703 -0.1595,0 -0.319,0 -0.4785,0"
         id="path3738"
         inkscape:connector-curvature="0" />
      <path
         style="font-weight:bold;-inkscape-font-specification:'Abandoned Bitplane Bold';fill:#333333"
         d="m 56.5046,71.6402 c 0.01,0.2071 -0.1304,0.3996 -0.3189,0.4785 -0.2522,0.1134 -0.5394,0.1102 -0.8082,0.073 -0.1997,-0.028 -0.4003,-0.1316 -0.4939,-0.3174 -0.011,-0.048 -0.1078,-0.1674 -0.014,-0.1625 0.1256,-0.019 0.2512,-0.038 0.3767,-0.056 0.022,0.1156 0.1158,0.2123 0.2344,0.227 0.1515,0.019 0.3115,0.027 0.4583,-0.022 0.1145,-0.032 0.1633,-0.1854 0.091,-0.2783 -0.1028,-0.1061 -0.261,-0.1123 -0.3962,-0.1471 -0.2116,-0.052 -0.4478,-0.083 -0.6096,-0.2433 -0.1452,-0.1424 -0.1587,-0.3778 -0.082,-0.5576 0.093,-0.2072 0.3255,-0.3012 0.5378,-0.3269 0.2491,-0.028 0.5203,-0.017 0.7377,0.1209 0.1273,0.081 0.216,0.2173 0.2432,0.3656 -0.1418,0.015 -0.2837,0.03 -0.4255,0.044 -0.013,-0.1197 -0.1215,-0.2096 -0.2391,-0.2161 -0.1307,-0.013 -0.2748,-0.019 -0.3928,0.048 -0.097,0.063 -0.085,0.2323 0.024,0.2768 0.1367,0.067 0.2916,0.077 0.4367,0.117 0.202,0.048 0.4297,0.1021 0.5561,0.2827 0.062,0.084 0.084,0.19 0.083,0.2929"
         id="path3740"
         inkscape:connector-curvature="0" />
      <path
         style="font-weight:bold;-inkscape-font-specification:'Abandoned Bitplane Bold';fill:#333333"
         d="m 57.3472,70.3311 c 10e-4,0.3676 -0,0.7354 0,1.103 0.01,0.1474 0.043,0.3229 0.1889,0.3939 0.1488,0.067 0.3375,0.01 0.4242,-0.1286 0.098,-0.1429 0.1054,-0.321 0.1013,-0.4885 0,-0.2932 0,-0.5865 0,-0.8798 0.1601,0 0.3202,0 0.4803,0 9e-4,0.5402 -0,1.0804 0,1.6205 -0.01,0.073 0.02,0.1727 0,0.2286 -0.1493,0 -0.2986,0 -0.4479,0 -0.013,-0.122 -0.018,-0.2448 -0.02,-0.3674 -0.043,0.053 -0.072,0.1363 -0.1251,0.191 -0.1305,0.1662 -0.3537,0.2296 -0.5579,0.2072 -0.2077,-0.011 -0.406,-0.1474 -0.472,-0.3477 -0.08,-0.2172 -0.051,-0.4507 -0.057,-0.677 0,-0.2851 0,-0.5702 0,-0.8552 0.1601,0 0.3202,0 0.4802,0"
         id="path3742"
         inkscape:connector-curvature="0" />
      <path
         d="m 59.033936,72.180199 0,-2.536133 0.480224,0 0,2.536133 -0.480224,0"
         inkscape:connector-curvature="0"
         id="path3744"
         style="font-weight:bold;fill:#333333;-inkscape-font-specification:Abandoned Bitplane Bold" />
      <path
         style="font-weight:bold;-inkscape-font-specification:'Abandoned Bitplane Bold';fill:#333333"
         d="m 60.478,72.211 c -0.154,0.01 -0.3254,-0.059 -0.3916,-0.2084 -0.072,-0.154 -0.043,-0.3272 -0.049,-0.4914 0,-0.2852 0,-0.5703 0,-0.8554 -0.078,0 -0.1561,0 -0.2341,0 0,-0.1083 0,-0.2165 0,-0.3247 0.086,0 0.172,0 0.258,0 0.05,-0.1447 0.1003,-0.2894 0.1504,-0.4341 0.1003,0 0.2005,0 0.3008,0 0,0.1447 0,0.2894 0,0.4341 0.1168,0 0.2336,0 0.3503,0 0,0.1082 0,0.2164 0,0.3247 -0.1167,0 -0.2335,0 -0.3503,0 0,0.3362 -0,0.6725 0,1.0086 0,0.09 0.048,0.1934 0.1466,0.2088 0.07,0.026 0.1717,-0.021 0.2225,-0.01 0,0.096 0,0.1915 0,0.2872 -0.1304,0.042 -0.2685,0.058 -0.4051,0.058"
         id="path3746"
         inkscape:connector-curvature="0" />
      <path
         d="m 61.173584,69.997826 0,-0.35376 0.480225,0 0,0.35376 -0.480225,0 m 0,2.182373 0,-1.849121 0.480225,0 0,1.849121 -0.480225,0"
         inkscape:connector-curvature="0"
         id="path3749"
         style="font-weight:bold;fill:#333333;-inkscape-font-specification:Abandoned Bitplane Bold" />
      <path
         style="font-weight:bold;-inkscape-font-specification:'Abandoned Bitplane Bold';fill:#333333"
         d="m 63.3423,72.1802 c -0,-0.3676 0,-0.7353 -0,-1.1028 -0.01,-0.1478 -0.044,-0.3238 -0.1906,-0.3941 -0.1489,-0.068 -0.3384,-0.01 -0.4241,0.13 -0.1013,0.1432 -0.1048,0.3236 -0.1014,0.4921 0,0.2916 0,0.5832 0,0.8748 -0.1601,0 -0.3201,0 -0.4802,0 -0,-0.5299 0,-1.0599 -0,-1.5898 -0,-0.086 -0,-0.1732 -0.012,-0.2593 0.1527,0 0.3053,0 0.458,0 0.014,0.1219 0.018,0.2448 0.022,0.3674 0.041,-0.056 0.072,-0.1366 0.1243,-0.1923 0.1297,-0.1674 0.3535,-0.2299 0.5577,-0.2076 0.1977,0.01 0.3847,0.1352 0.4592,0.3202 0.093,0.2187 0.063,0.4598 0.069,0.6911 0,0.2901 0,0.5802 0,0.8703 -0.1595,0 -0.319,0 -0.4785,0"
         id="path3751"
         inkscape:connector-curvature="0" />
      <path
         style="font-weight:bold;-inkscape-font-specification:'Abandoned Bitplane Bold';fill:#333333"
         d="m 65.0581,72.9219 c -0.2579,0 -0.5534,-0.061 -0.7101,-0.2859 -0.036,-0.06 -0.096,-0.1589 -0.075,-0.2129 0.1559,-0.018 0.3117,-0.037 0.4676,-0.055 0.026,0.1463 0.171,0.2422 0.3147,0.2373 0.1405,0.01 0.2946,-0.052 0.3485,-0.1909 0.08,-0.1822 0.043,-0.3854 0.056,-0.5779 -0.067,0.137 -0.1864,0.2593 -0.3389,0.3021 -0.236,0.072 -0.5287,0.053 -0.7048,-0.1387 -0.2108,-0.2265 -0.2406,-0.556 -0.2309,-0.8514 0.013,-0.2747 0.086,-0.586 0.3289,-0.7482 0.2207,-0.141 0.5261,-0.1422 0.749,-0.01 0.092,0.052 0.1475,0.1557 0.2018,0.2334 0.018,-0.089 -0.024,-0.253 0.049,-0.2973 0.1431,0 0.2862,0 0.4293,0 -0.018,0.4288 -0.01,0.8581 -0.01,1.2872 -0,0.2164 0.01,0.4334 -0.01,0.6493 -0.021,0.2425 -0.1685,0.4762 -0.3986,0.5689 -0.1469,0.064 -0.309,0.085 -0.4682,0.085 M 65.4596,71.23 c -4e-4,-0.1951 -0.031,-0.4227 -0.1981,-0.5484 -0.163,-0.1097 -0.42,-0.058 -0.5002,0.1305 -0.092,0.2008 -0.088,0.4319 -0.062,0.6469 0.022,0.1588 0.1034,0.3397 0.2763,0.375 0.1627,0.042 0.3471,-0.041 0.4099,-0.2003 0.06,-0.1253 0.074,-0.2664 0.074,-0.4037"
         id="path3753"
         inkscape:connector-curvature="0" />
      <path
         style="font-weight:bold;-inkscape-font-specification:'Abandoned Bitplane Bold';fill:#333333"
         d="m 68.5923,72.1802 c -0.023,-0.097 -0.016,-0.214 -0.032,-0.3008 -0.075,0.1805 -0.2516,0.3022 -0.4434,0.3242 -0.2094,0.035 -0.4464,-0.01 -0.5918,-0.1728 -0.2044,-0.2299 -0.2375,-0.5556 -0.2297,-0.8511 0.01,-0.2822 0.083,-0.5984 0.3261,-0.7716 0.2003,-0.1386 0.4775,-0.1442 0.6951,-0.044 0.1119,0.027 0.218,0.2213 0.2501,0.2381 -0.01,-0.3194 -0,-0.6389 -0,-0.9583 0.1601,0 0.3202,0 0.4802,0 0,0.7585 -0,1.517 0,2.2755 -0.011,0.081 0.036,0.2129 -0.01,0.2606 -0.1487,0 -0.2974,0 -0.4461,0 m -0.022,-0.9348 c -0,-0.2006 -0.028,-0.4361 -0.1998,-0.5663 -0.157,-0.1022 -0.4041,-0.065 -0.4903,0.1128 -0.1,0.1986 -0.092,0.4307 -0.077,0.6466 0.017,0.1698 0.078,0.3762 0.2597,0.4324 0.1654,0.055 0.3587,-0.032 0.4256,-0.1934 0.065,-0.134 0.082,-0.285 0.081,-0.4321 z"
         id="path3755"
         inkscape:connector-curvature="0" />
      <path
         style="font-weight:bold;-inkscape-font-specification:'Abandoned Bitplane Bold';fill:#333333"
         d="m 70.291,72.2144 c -0.2431,0 -0.5025,-0.072 -0.6597,-0.2688 -0.1894,-0.2333 -0.2199,-0.5516 -0.1995,-0.8409 0.016,-0.2653 0.1341,-0.541 0.369,-0.6825 0.2115,-0.1251 0.4728,-0.15 0.7112,-0.1036 0.2225,0.046 0.4127,0.2081 0.4989,0.4175 0.083,0.1921 0.1056,0.4044 0.1056,0.6118 -0.3954,0 -0.7907,0 -1.1861,0 0,0.1707 0.026,0.3702 0.1718,0.481 0.1132,0.083 0.2751,0.082 0.3987,0.024 0.073,-0.034 0.1111,-0.1165 0.1404,-0.1794 0.1493,0.013 0.2986,0.026 0.4478,0.039 -0.072,0.1864 -0.2089,0.3536 -0.3985,0.4284 -0.1248,0.057 -0.2635,0.074 -0.3996,0.074 z m 0,-1.615 c -0.1369,-0.01 -0.2694,0.081 -0.3132,0.2118 -0.031,0.075 -0.042,0.1557 -0.044,0.2359 0.2393,0 0.4786,0 0.7178,0 -0.01,-0.1602 -0.058,-0.3478 -0.2179,-0.4195 -0.045,-0.02 -0.094,-0.028 -0.1427,-0.028 z"
         id="path3757"
         inkscape:connector-curvature="0" />
      <path
         style="font-weight:bold;-inkscape-font-specification:'Abandoned Bitplane Bold';fill:#333333"
         d="m 71.9556,72.211 c -0.154,0.01 -0.3255,-0.059 -0.3916,-0.2084 -0.071,-0.154 -0.044,-0.3272 -0.049,-0.4914 0,-0.2852 0,-0.5703 0,-0.8554 -0.078,0 -0.156,0 -0.2341,0 0,-0.1083 0,-0.2165 0,-0.3247 0.086,0 0.1721,0 0.2581,0 0.05,-0.1447 0.1002,-0.2894 0.1504,-0.4341 0.1002,0 0.2005,0 0.3007,0 0,0.1447 0,0.2894 0,0.4341 0.1168,0 0.2336,0 0.3504,0 0,0.1082 0,0.2164 0,0.3247 -0.1168,0 -0.2336,0 -0.3504,0 0,0.3362 -0,0.6725 0,1.0086 0,0.09 0.048,0.1934 0.1467,0.2088 0.07,0.026 0.1716,-0.021 0.2224,-0.01 0,0.096 0,0.1915 0,0.2872 -0.1304,0.042 -0.2685,0.058 -0.405,0.058"
         id="path3759"
         inkscape:connector-curvature="0" />
      <path
         style="font-weight:bold;-inkscape-font-specification:'Abandoned Bitplane Bold';fill:#333333"
         d="m 73.4082,72.2144 c -0.2432,0 -0.5025,-0.072 -0.6597,-0.2688 -0.1894,-0.2333 -0.2199,-0.5516 -0.1995,-0.8409 0.016,-0.2653 0.1341,-0.541 0.369,-0.6825 0.2115,-0.1251 0.4728,-0.15 0.7111,-0.1036 0.2226,0.046 0.4128,0.2081 0.499,0.4175 0.083,0.1921 0.1056,0.4044 0.1055,0.6118 -0.3953,0 -0.7906,0 -1.186,0 0,0.1707 0.026,0.3702 0.1718,0.481 0.1132,0.083 0.2751,0.082 0.3987,0.024 0.073,-0.034 0.111,-0.1165 0.1404,-0.1794 0.1493,0.013 0.2985,0.026 0.4478,0.039 -0.072,0.1864 -0.2089,0.3536 -0.3985,0.4284 -0.1248,0.057 -0.2635,0.074 -0.3996,0.074 z m 0,-1.615 c -0.1369,-0.01 -0.2694,0.081 -0.3132,0.2118 -0.031,0.075 -0.042,0.1557 -0.044,0.2359 0.2393,0 0.4785,0 0.7178,0 -0.01,-0.1602 -0.058,-0.3478 -0.2179,-0.4195 -0.045,-0.02 -0.094,-0.028 -0.1427,-0.028 z"
         id="path3761"
         inkscape:connector-curvature="0" />
      <path
         style="font-weight:bold;-inkscape-font-specification:'Abandoned Bitplane Bold';fill:#333333"
         d="m 75.3701,72.2144 c -0.2521,0 -0.5197,-0.081 -0.6797,-0.2853 -0.1866,-0.2347 -0.2186,-0.5534 -0.1888,-0.8422 0.027,-0.2619 0.1495,-0.5305 0.3835,-0.6679 0.22,-0.1298 0.4922,-0.1472 0.7379,-0.095 0.2342,0.052 0.4424,0.2205 0.5229,0.4493 0.01,0.049 0.082,0.1617 -0.012,0.1433 -0.1441,0.01 -0.2882,0.014 -0.4323,0.021 -0.015,-0.1423 -0.1125,-0.2891 -0.2641,-0.3057 -0.1344,-0.026 -0.2894,0.026 -0.3529,0.1536 -0.099,0.1923 -0.095,0.4182 -0.081,0.6285 0.017,0.1587 0.056,0.3447 0.205,0.4321 0.1569,0.087 0.3855,0.032 0.4616,-0.1378 0.05,-0.043 0.01,-0.182 0.088,-0.1639 0.1469,0.01 0.2939,0.014 0.4409,0.02 -0.031,0.2587 -0.213,0.4892 -0.4562,0.5822 -0.1174,0.05 -0.2459,0.067 -0.3727,0.067 z"
         id="path3763"
         inkscape:connector-curvature="0" />
      <path
         style="font-weight:bold;-inkscape-font-specification:'Abandoned Bitplane Bold';fill:#333333"
         d="m 77.021,72.211 c -0.154,0.01 -0.3255,-0.059 -0.3916,-0.2084 -0.072,-0.154 -0.044,-0.3272 -0.049,-0.4914 0,-0.2852 0,-0.5703 0,-0.8554 -0.078,0 -0.1561,0 -0.2342,0 0,-0.1083 0,-0.2165 0,-0.3247 0.086,0 0.1721,0 0.2581,0 0.05,-0.1447 0.1003,-0.2894 0.1504,-0.4341 0.1003,0 0.2005,0 0.3008,0 0,0.1447 0,0.2894 0,0.4341 0.1168,0 0.2335,0 0.3503,0 0,0.1082 0,0.2164 0,0.3247 -0.1168,0 -0.2335,0 -0.3503,0 0,0.3362 -0,0.6725 0,1.0086 0,0.09 0.048,0.1934 0.1466,0.2088 0.071,0.026 0.1716,-0.021 0.2224,-0.01 0,0.096 0,0.1915 0,0.2872 -0.1303,0.042 -0.2684,0.058 -0.405,0.058"
         id="path3765"
         inkscape:connector-curvature="0" />
      <path
         d="m 77.716553,69.997826 0,-0.35376 0.480224,0 0,0.35376 -0.480224,0 m 0,2.182373 0,-1.849121 0.480224,0 0,1.849121 -0.480224,0"
         inkscape:connector-curvature="0"
         id="path3767"
         style="font-weight:bold;fill:#333333;-inkscape-font-specification:Abandoned Bitplane Bold" />
      <path
         style="font-weight:bold;-inkscape-font-specification:'Abandoned Bitplane Bold';fill:#333333"
         d="M 79.1179,72.1802 C 78.8975,71.5638 78.677,70.9475 78.4565,70.3311 h 0.5076 c 0.1674,0.5286 0.2999,0.9701 0.4471,1.4507 0.1509,-0.5189 0.3076,-0.9772 0.4605,-1.4507 h 0.5024 c -0.2273,0.6163 -0.5265,1.5383 -0.6402,1.8465 z"
         id="path3769"
         inkscape:connector-curvature="0"
         sodipodi:nodetypes="cccccccc" />
      <path
         style="font-weight:bold;-inkscape-font-specification:'Abandoned Bitplane Bold';fill:#333333"
         d="m 81.3926,72.2144 c -0.2432,0 -0.5025,-0.072 -0.6597,-0.2688 -0.1895,-0.2333 -0.2199,-0.5516 -0.1995,-0.8409 0.016,-0.2653 0.1341,-0.541 0.369,-0.6825 0.2115,-0.1251 0.4727,-0.15 0.7111,-0.1036 0.2225,0.046 0.4128,0.2081 0.499,0.4175 0.083,0.1921 0.1055,0.4044 0.1055,0.6118 -0.3953,0 -0.7907,0 -1.186,0 0,0.1707 0.026,0.3702 0.1717,0.481 0.1132,0.083 0.2752,0.082 0.3988,0.024 0.073,-0.034 0.111,-0.1165 0.1404,-0.1794 0.1493,0.013 0.2985,0.026 0.4478,0.039 -0.072,0.1864 -0.209,0.3536 -0.3985,0.4284 -0.1249,0.057 -0.2635,0.074 -0.3996,0.074 z m 0,-1.615 c -0.137,-0.01 -0.2694,0.081 -0.3132,0.2118 -0.031,0.075 -0.042,0.1557 -0.044,0.2359 0.2393,0 0.4785,0 0.7178,0 -0.01,-0.1602 -0.058,-0.3478 -0.2179,-0.4195 -0.045,-0.02 -0.094,-0.028 -0.1427,-0.028 z"
         id="path3771"
         inkscape:connector-curvature="0" />
    </g>
    <g
       transform="translate(-0.180174,0.09348)"
       id="text3728"
       style="font-size:3.5px;font-style:normal;font-variant:normal;font-weight:normal;font-stretch:normal;text-align:start;line-height:125%;writing-mode:lr-tb;text-anchor:start;fill:#333333;fill-opacity:1;stroke:none;font-family:Liberation Sans;-inkscape-font-specification:Abandoned Bitplane">
      <path
         style="-inkscape-font-specification:'Abandoned Bitplane';fill:#333333"
         d="m 50.043,66.5017 c 0.011,0.2308 -0.1205,0.4582 -0.3281,0.5605 -0.269,0.1432 -0.5796,0.1152 -0.8738,0.118 -0.2203,0 -0.4406,0 -0.6609,0 0,-0.8027 0,-1.6053 0,-2.408 0.3319,0 0.664,-0 0.9958,0 0.2302,0.015 0.4955,0.063 0.6372,0.2648 0.1636,0.2462 0.1034,0.6306 -0.1577,0.7864 -0.048,0.043 -0.193,0.073 -0.1927,0.086 0.2248,0.025 0.4608,0.1465 0.5409,0.3703 0.027,0.07 0.039,0.1443 0.039,0.2187 z M 49.5747,65.396 c 0.01,-0.1369 -0.073,-0.2751 -0.2074,-0.3152 -0.196,-0.07 -0.4067,-0.041 -0.6105,-0.047 -0.083,0 -0.1668,0 -0.2502,0 0,0.2541 0,0.5082 0,0.7622 0.2219,-0 0.4441,0.01 0.6657,-0.01 0.1632,-0.01 0.3492,-0.092 0.387,-0.2668 0.011,-0.042 0.015,-0.085 0.015,-0.1279 z m 0.1384,1.0801 c 0.01,-0.1617 -0.094,-0.3197 -0.2491,-0.3708 -0.2129,-0.08 -0.4434,-0.048 -0.6656,-0.055 -0.097,0 -0.1946,0 -0.2918,0 0,0.2893 0,0.5787 0,0.8681 0.2464,-0 0.493,0 0.7393,-0 0.1716,-0.01 0.3673,-0.073 0.4345,-0.2471 0.025,-0.06 0.033,-0.1266 0.033,-0.1916"
         id="path3774"
         inkscape:connector-curvature="0" />
      <path
         style="-inkscape-font-specification:'Abandoned Bitplane';fill:#333333"
         d="m 50.4736,67.1802 c -6e-4,-0.5022 0,-1.0044 -9e-4,-1.5066 -0,-0.1142 -0,-0.2284 -0.01,-0.3425 0.097,0 0.1937,0 0.2906,0 0,0.1259 0.013,0.2516 0.014,0.3777 0.032,-0.053 0.046,-0.133 0.08,-0.1926 0.049,-0.1072 0.1462,-0.1951 0.2657,-0.2112 0.075,-0.013 0.1517,-0.01 0.2251,0.01 0,0.094 0,0.188 0,0.282 -0.1298,-0.027 -0.2856,-0.034 -0.3886,0.064 -0.1334,0.1264 -0.1582,0.3223 -0.1674,0.4965 -0,0.3411 -4e-4,0.6823 -0,1.0234 -0.1025,0 -0.2051,0 -0.3076,0"
         id="path3776"
         inkscape:connector-curvature="0" />
      <path
         d="m 51.634033,64.938011 0,-0.293945 0.307617,0 0,0.293945 -0.307617,0 m 0,2.242188 0,-1.849121 0.307617,0 0,1.849121 -0.307617,0"
         inkscape:connector-curvature="0"
         id="path3778"
         style="fill:#333333;-inkscape-font-specification:Abandoned Bitplane" />
      <path
         style="-inkscape-font-specification:'Abandoned Bitplane';fill:#333333"
         d="m 53.126,67.1665 c -0.153,0.036 -0.3195,0.065 -0.4726,0.015 -0.146,-0.05 -0.2048,-0.2122 -0.2068,-0.3542 -0,-0.4241 -3e-4,-0.8482 -8e-4,-1.2722 -0.071,0 -0.1424,-1e-4 -0.2136,0 0,-0.075 0,-0.1493 0,-0.2239 0.075,0 0.1504,0 0.2256,0 0.03,-0.1379 0.06,-0.2757 0.09,-0.4136 0.068,0 0.1368,0 0.2051,0 0,0.1379 0,0.2757 0,0.4136 0.114,0 0.2279,0 0.3418,0 0,0.075 0,0.1492 0,0.2239 -0.1139,0 -0.2278,-1e-4 -0.3418,0 10e-4,0.4048 -0,0.8097 0,1.2144 -0,0.087 0.045,0.1871 0.1435,0.1904 0.076,0.011 0.1529,-0.01 0.2276,-0.02 0,0.076 0,0.1515 0,0.2273"
         id="path3780"
         inkscape:connector-curvature="0" />
      <path
         d="m 53.384033,64.938011 0,-0.293945 0.307617,0 0,0.293945 -0.307617,0 m 0,2.242188 0,-1.849121 0.307617,0 0,1.849121 -0.307617,0"
         inkscape:connector-curvature="0"
         id="path3782"
         style="fill:#333333;-inkscape-font-specification:Abandoned Bitplane" />
      <path
         style="-inkscape-font-specification:'Abandoned Bitplane';fill:#333333"
         d="m 55.5527,66.6692 c 0.01,0.1875 -0.1032,0.3719 -0.2745,0.4503 -0.2265,0.1097 -0.4892,0.1089 -0.7333,0.075 -0.1934,-0.026 -0.3921,-0.1284 -0.4729,-0.315 -0.012,-0.048 -0.087,-0.1481 0,-0.143 0.075,-0.015 0.1492,-0.029 0.2237,-0.044 0.03,0.139 0.1515,0.2408 0.2884,0.2655 0.1558,0.031 0.3209,0.032 0.4747,-0.01 0.1175,-0.029 0.2038,-0.1438 0.1921,-0.2654 0,-0.1299 -0.1143,-0.215 -0.2263,-0.2503 -0.2189,-0.073 -0.4515,-0.107 -0.661,-0.2065 -0.1489,-0.071 -0.2706,-0.2188 -0.2659,-0.3899 -0.01,-0.1665 0.066,-0.3408 0.2146,-0.4246 0.2007,-0.1168 0.4448,-0.1207 0.6698,-0.099 0.1887,0.021 0.3928,0.1023 0.4809,0.2824 0.01,0.044 0.097,0.1612 0.021,0.1641 -0.081,0.01 -0.1619,0.02 -0.2429,0.03 -0.027,-0.1512 -0.1818,-0.2349 -0.3234,-0.2469 -0.145,-0.013 -0.3061,-0.017 -0.4337,0.064 -0.1237,0.086 -0.1164,0.3019 0.02,0.372 0.1611,0.091 0.3505,0.1064 0.5243,0.1629 0.1796,0.051 0.3776,0.1255 0.4692,0.3004 0.037,0.07 0.053,0.1491 0.052,0.228"
         id="path3784"
         inkscape:connector-curvature="0" />
      <path
         style="-inkscape-font-specification:'Abandoned Bitplane';fill:#333333"
         d="m 56.2209,65.6472 c 0.091,-0.1788 0.2614,-0.3243 0.4669,-0.3423 0.2038,-0.023 0.4461,-0.01 0.5861,0.1641 0.1324,0.1657 0.124,0.3894 0.1245,0.5905 0,0.3736 0,0.7471 0,1.1207 -0.1031,0 -0.2062,0 -0.3093,0 -0,-0.4189 0,-0.8379 -0,-1.2567 -0.01,-0.1312 -0.03,-0.292 -0.1659,-0.3505 -0.1963,-0.08 -0.4558,-0.042 -0.5838,0.1398 -0.1075,0.1437 -0.1118,0.3285 -0.1078,0.5003 0,0.3224 0,0.6447 0,0.9671 -0.1025,0 -0.2051,0 -0.3076,0 0,-0.8454 0,-1.6908 0,-2.5361 0.1025,0 0.2051,0 0.3076,0 -0,0.3344 0.01,0.6693 -0.014,1.0031 h 0.01"
         id="path3786"
         inkscape:connector-curvature="0" />
      <path
         style="-inkscape-font-specification:'Abandoned Bitplane';fill:#333333"
         d="m 60.2217,66.6692 c 0.01,0.1875 -0.1033,0.3719 -0.2746,0.4503 -0.2264,0.1097 -0.4891,0.1089 -0.7332,0.075 -0.1935,-0.026 -0.3921,-0.1284 -0.4729,-0.315 -0.012,-0.048 -0.087,-0.1481 0,-0.143 0.075,-0.015 0.1491,-0.029 0.2237,-0.044 0.03,0.139 0.1515,0.2408 0.2883,0.2655 0.1559,0.031 0.3209,0.032 0.4748,-0.01 0.1175,-0.029 0.2037,-0.1438 0.1921,-0.2654 0,-0.1299 -0.1143,-0.215 -0.2263,-0.2503 -0.219,-0.073 -0.4515,-0.107 -0.6611,-0.2065 -0.1489,-0.071 -0.2706,-0.2188 -0.2659,-0.3899 -0.01,-0.1665 0.066,-0.3408 0.2147,-0.4246 0.2007,-0.1168 0.4448,-0.1207 0.6698,-0.099 0.1887,0.021 0.3928,0.1023 0.4809,0.2824 0.01,0.044 0.097,0.1612 0.021,0.1641 -0.081,0.01 -0.1619,0.02 -0.2429,0.03 -0.027,-0.1512 -0.1818,-0.2349 -0.3234,-0.2469 -0.1449,-0.013 -0.306,-0.017 -0.4337,0.064 -0.1237,0.086 -0.1163,0.3019 0.021,0.372 0.161,0.091 0.3505,0.1064 0.5243,0.1629 0.1795,0.051 0.3775,0.1255 0.4691,0.3004 0.037,0.07 0.053,0.1491 0.053,0.228"
         id="path3788"
         inkscape:connector-curvature="0" />
      <path
         style="-inkscape-font-specification:'Abandoned Bitplane';fill:#333333"
         d="m 60.8848,65.3311 c 7e-4,0.4123 -0,0.8247 0,1.2371 0.01,0.1314 0.023,0.2905 0.1488,0.3641 0.1061,0.053 0.2326,0.052 0.3472,0.033 0.1804,-0.034 0.3101,-0.1972 0.3433,-0.372 0.031,-0.1558 0.015,-0.3155 0.019,-0.4734 0,-0.2628 0,-0.5256 0,-0.7884 0.1025,0 0.2051,0 0.3076,0 9e-4,0.5464 -0,1.0929 0,1.6393 -0.01,0.063 0.026,0.1705 -0.01,0.2098 -0.092,0 -0.1841,0 -0.2761,0 -0.01,-0.1052 -0.013,-0.2107 -0.014,-0.3162 -0.037,0.045 -0.066,0.1078 -0.1092,0.1533 -0.1333,0.1645 -0.3598,0.211 -0.5615,0.1947 -0.1666,-0.01 -0.3473,-0.074 -0.4291,-0.2287 -0.1058,-0.1968 -0.079,-0.4256 -0.083,-0.6408 0,-0.3371 0,-0.6743 0,-1.0114 0.1031,0 0.2062,0 0.3093,0"
         id="path3790"
         inkscape:connector-curvature="0" />
      <path
         style="-inkscape-font-specification:'Abandoned Bitplane';fill:#333333"
         d="m 64.0959,66.2471 c -0,0.271 -0.031,0.5684 -0.2152,0.7821 -0.1773,0.1996 -0.4785,0.2189 -0.7208,0.1496 -0.1457,-0.039 -0.2542,-0.1603 -0.3235,-0.2857 -0.02,0.085 0.024,0.2431 -0.041,0.2871 -0.091,0 -0.1821,0 -0.2732,0 0.018,-0.3698 0.01,-0.7403 0.01,-1.1105 0,-0.4752 0,-0.9504 0,-1.4256 0.1025,0 0.2051,0 0.3076,0 -0,0.3281 0.01,0.6564 -0.01,0.9843 0.059,-0.091 0.1252,-0.2029 0.2324,-0.2546 0.1901,-0.095 0.4217,-0.1001 0.6212,-0.032 0.2231,0.079 0.3395,0.313 0.3776,0.5328 0.024,0.1226 0.032,0.2477 0.032,0.3723 m -0.323,0.01 c -0.01,-0.2078 -0,-0.4433 -0.1446,-0.6119 -0.1244,-0.1337 -0.3333,-0.1318 -0.4947,-0.076 -0.1845,0.068 -0.2559,0.2761 -0.2785,0.455 -0.024,0.2446 -0.034,0.5057 0.069,0.7348 0.061,0.1436 0.2139,0.2253 0.3656,0.227 0.1511,0.016 0.3198,-0.043 0.3887,-0.1871 0.085,-0.1655 0.091,-0.3593 0.094,-0.5414 z"
         id="path3792"
         inkscape:connector-curvature="0" />
      <path
         style="-inkscape-font-specification:'Abandoned Bitplane';fill:#333333"
         d="m 64.4788,64.938 c 0,-0.098 0,-0.196 0,-0.2939 0.1025,0 0.205,0 0.3076,0 0,0.098 0,0.1959 0,0.2939 -0.1026,0 -0.2051,0 -0.3076,0 z m 0.3076,2.4712 c 0,0.1701 -0.033,0.3824 -0.2085,0.458 -0.1312,0.059 -0.2804,0.041 -0.4187,0.024 0,-0.079 0,-0.1584 0,-0.2376 0.1137,0.025 0.2831,0.017 0.3058,-0.1279 0.025,-0.1702 0.01,-0.3433 0.014,-0.5148 0,-0.56 0,-1.1199 0,-1.6799 0.1026,0 0.2051,0 0.3076,0 0,0.6928 0,1.3855 0,2.0782"
         id="path3794"
         inkscape:connector-curvature="0" />
      <path
         style="-inkscape-font-specification:'Abandoned Bitplane';fill:#333333"
         d="m 65.4956,66.3206 c 5e-4,0.2052 0.04,0.4406 0.2137,0.5728 0.142,0.1072 0.3363,0.1068 0.502,0.065 0.1269,-0.036 0.2405,-0.1317 0.2841,-0.2583 0.09,0.026 0.18,0.051 0.27,0.077 -0.061,0.1676 -0.1917,0.3097 -0.3613,0.3705 -0.1988,0.078 -0.4217,0.083 -0.6297,0.043 -0.2217,-0.043 -0.4184,-0.1969 -0.5054,-0.4065 -0.104,-0.2444 -0.1118,-0.5196 -0.08,-0.78 0.034,-0.2499 0.1635,-0.5048 0.3993,-0.6187 0.2253,-0.105 0.4915,-0.1149 0.7279,-0.043 0.2046,0.066 0.3619,0.2392 0.4279,0.4414 0.057,0.1724 0.073,0.3556 0.071,0.5364 -0.4397,0 -0.8795,0 -1.3193,0 z m 1.0015,-0.2359 c -0.016,-0.1835 -0.065,-0.3959 -0.2361,-0.4967 -0.1637,-0.09 -0.3796,-0.087 -0.5382,0.013 -0.1564,0.1055 -0.2206,0.3021 -0.2238,0.4835 0.3327,0 0.6654,0 0.9981,0 z"
         id="path3796"
         inkscape:connector-curvature="0" />
      <path
         style="-inkscape-font-specification:'Abandoned Bitplane';fill:#333333"
         d="m 67.4421,66.2471 c 0,0.2056 0.015,0.4346 0.1553,0.5985 0.1245,0.1416 0.3463,0.1572 0.511,0.084 0.1259,-0.056 0.1958,-0.1885 0.2104,-0.3203 0.1037,0.01 0.2074,0.014 0.3111,0.021 -0.027,0.2272 -0.1757,0.4371 -0.3894,0.5238 -0.1891,0.078 -0.4063,0.077 -0.6017,0.023 -0.2012,-0.06 -0.3648,-0.2202 -0.436,-0.4169 -0.089,-0.2415 -0.097,-0.5068 -0.065,-0.76 0.032,-0.2331 0.1398,-0.4727 0.35,-0.5956 0.2055,-0.1175 0.462,-0.1352 0.6872,-0.069 0.2113,0.064 0.3793,0.2431 0.4311,0.4573 0.038,0.063 -0.013,0.062 -0.06,0.063 -0.081,0.01 -0.1621,0.012 -0.2431,0.018 -0.018,-0.1558 -0.1323,-0.3053 -0.2941,-0.3261 -0.1606,-0.027 -0.3547,8e-4 -0.4523,0.1457 -0.1097,0.1611 -0.1113,0.3668 -0.115,0.5547"
         id="path3799"
         inkscape:connector-curvature="0" />
      <path
         style="-inkscape-font-specification:'Abandoned Bitplane';fill:#333333"
         d="m 69.6689,67.1665 c -0.1529,0.036 -0.3194,0.065 -0.4725,0.015 -0.146,-0.05 -0.2048,-0.2122 -0.2068,-0.3542 -0,-0.4241 -3e-4,-0.8482 -8e-4,-1.2722 -0.071,0 -0.1424,-1e-4 -0.2137,0 0,-0.075 0,-0.1493 0,-0.2239 0.075,0 0.1504,0 0.2256,0 0.03,-0.1379 0.06,-0.2757 0.091,-0.4136 0.068,0 0.1367,0 0.2051,0 0,0.1379 0,0.2757 0,0.4136 0.1139,0 0.2279,0 0.3418,0 0,0.075 0,0.1492 0,0.2239 -0.1139,0 -0.2279,-1e-4 -0.3418,0 10e-4,0.4048 -0,0.8097 0,1.2144 -0,0.087 0.045,0.1871 0.1434,0.1904 0.076,0.011 0.153,-0.01 0.2276,-0.02 0,0.076 0,0.1515 0,0.2273"
         id="path3801"
         inkscape:connector-curvature="0" />
    </g>
    <path
       d="m 48,78 c 0.028,2 0.038,3.9999 0.036,6 h 0.9106 c -0,-2 -0.015,-4 -0.031,-6 H 48 Z m 1.5558,0 c 0.01,2 0.01,4 0.031,6 h 0.3955 c -0.011,-2 -0.02,-4 -0.031,-6 h -0.3955 z m 1.5819,0 c 0.029,2.05 0.053,3.9999 0.026,6 h 1.4205 c -1e-4,-2 -0,-4 -0.016,-6 h -1.4309 0 z m 2.5653,0 c 0.017,2 0.01,4 0.026,6 h 0.9262 c 10e-5,-1.5992 -0.01,-3.9579 -0.021,-6 H 53.703 Z m 2.1333,0 c -0.028,0.5297 -0.027,2.1751 0.01,6 h 0.3487 c 0.013,-1.5731 8e-4,-3.9444 -0.021,-6 h -0.3331 10e-5 0 0 z m 2.045,0 c 0.01,2 0.01,4 0.031,6 h 0.3174 c 0.021,-2 0.016,-4 0.011,-6 h -0.359 -10e-5 z m 1.5506,0 c 0.015,2 0.013,4 0.042,6 h 0.9158 c -0.023,-2 -0.04,-4 -0.052,-6 h -0.9054 0 z m 2.0762,0 c 0,2 0.012,4 0.042,6 h 0.3694 c -0.01,-2 -0.029,-4 -0.036,-6 h -0.3746 z m 1.5506,0 c 0.019,2.2114 0.034,4.8685 0.036,5.9238 10e-5,0.03 -1e-4,0.047 0,0.076 h 1.4517 c -0.013,-2 -0.029,-4 -0.052,-6 z m 2.149,0 c 0.01,2 0.011,4 0.031,6 h 0.8846 c -0,-2 -0.01,-4 -0.021,-6 h -0.895 z m 1.587,0 c -0.01,2 -0.01,4 0,6 h 0.9002 c 0,-2 -0.012,-4 -0.031,-6 z m 1.5767,0 c 0.013,2 0.014,4 0.036,6 h 0.8742 c -0.018,-2 -0.036,-4 -0.052,-6 z m 2.5861,0 c 0.01,2 0.027,4 0.042,6 h 0.895 c -0.01,-2 -0.01,-4 -0.016,-6 h -0.921 0 0 z m 2.6433,0 c 0.023,2 -0.019,4.0001 0.016,6 h 0.385 c -0,-2 -0.023,-4 -0.047,-6 h -0.3538 z m 1.0198,0 c 0.029,2 0.027,4 0.052,6 h 0.333 c 0.011,-1.5296 0.01,-3.925 -0.01,-6 h -0.3799 0 0 0 z m 2.1595,0 c 0.01,2.4984 0.029,5.0845 0.057,6 h 0.8794 c -3e-4,-2 -0.017,-4 -0.026,-6 h -0.9106 z m 2.6537,0 c 0.025,2 0.017,4 0.036,6 h 0.3643 c -0.01,-2 -0.028,-4 -0.037,-6 z m 1.0355,0 c 0.018,2 0.035,4 0.047,6 h 1.4309 c -0.018,-2 -0.026,-4 -0.031,-6 h -1.4465 0 z m 2.1178,0 c 0.01,2 0.034,4 0.047,6 h 1.3633 c 0.01,-1.6007 0,-3.9551 -0.01,-6 h -1.4049 0 -1e-4 0 z"
       inkscape:connector-curvature="0"
       id="path3748"
       style="fill:#333333;fill-opacity:1"
       sodipodi:nodetypes="cccccccccccccccccccccccccccccccccccccccccccccccccccccccccccccccccccccccccccccccccccccccccccccccccccccccccccccccccccccccccccccc" />
    <path
       d="m 108.02047,79.656611 c 0.0147,1.938142 0.0202,3.87621 0.0191,5.814517 l 0.47884,0 c -0.002,-1.938186 -0.008,-3.876353 -0.0164,-5.814517 l -0.48158,0 z m 0.81813,0 c 0.005,1.938177 0.005,3.876362 0.0164,5.814517 l 0.20796,0 c -0.005,-1.938173 -0.0104,-3.876346 -0.0164,-5.814517 l -0.20796,0 z m 0.83182,0 c 0.0821,1.937331 0.0279,3.876296 0.0137,5.814517 l 0.74699,0 c -5e-5,-1.93818 -0.002,-3.876349 -0.008,-5.814517 l -0.75246,0 -10e-6,0 z m 1.34897,0 c 0.009,1.938154 0.005,3.876367 0.0137,5.814517 l 0.48705,0 c 5e-5,-1.549749 -0.004,-3.835538 -0.0109,-5.814517 l -0.48979,0 z m 1.12186,0 c -0.0146,0.51337 -0.0141,2.107856 0.003,5.814517 l 0.18333,0 c 0.007,-1.524447 4.3e-4,-3.822431 -0.011,-5.814517 l -0.17512,0 0,0 z m 1.07534,0 c 0.003,1.938181 0.004,3.876367 0.0164,5.814517 l 0.16691,0 c 0.0113,-1.938154 0.008,-3.876346 0.006,-5.814517 l -0.1888,0 z m 0.8154,0 c 0.008,1.938164 0.007,3.876387 0.0219,5.814517 l 0.48158,0 c -0.0123,-1.938157 -0.0208,-3.876332 -0.0274,-5.814517 l -0.4761,0 z m 1.09176,0 c 0.001,1.938186 0.007,3.876387 0.0219,5.814517 l 0.19428,0 c -0.005,-1.938176 -0.015,-3.876332 -0.0191,-5.814517 l -0.19701,0 z m 0.8154,0 c 0.01,2.143009 0.0178,4.71798 0.0191,5.740639 4e-5,0.02931 -4e-5,0.04538 0,0.07388 l 0.76342,0 c -0.007,-1.938186 -0.0154,-3.876359 -0.0274,-5.814518 l -0.75521,0 z m 1.13007,0 c 0.003,1.938178 0.006,3.876362 0.0164,5.814517 l 0.46516,0 c -0.001,-1.938179 -0.005,-3.876348 -0.0109,-5.814517 l -0.47063,0 z m 0.83456,0 c -0.004,1.938171 -0.004,3.876346 0,5.814517 l 0.47337,0 c 0.002,-1.938189 -0.006,-3.876361 -0.0164,-5.814517 l -0.45696,0 z m 0.82908,0 c 0.007,1.938171 0.007,3.876365 0.0192,5.814517 l 0.45969,0 c -0.01,-1.938171 -0.0191,-3.87634 -0.0274,-5.814517 l -0.45148,0 z m 1.35991,0 c 0.003,1.938183 0.0142,3.876346 0.0219,5.814517 l 0.47064,0 c -0.004,-1.938169 -0.004,-3.876349 -0.008,-5.814517 l -0.48432,0 0,0 z m 1.39001,0 c 0.0121,1.938124 -0.01,3.87643 0.008,5.814517 l 0.20249,0 c -0.002,-1.938194 -0.0123,-3.876366 -0.0246,-5.814517 l -0.18607,0 10e-6,0 z m 0.53631,0 c 0.015,1.938137 0.014,3.876376 0.0274,5.814517 l 0.17512,0 c 0.006,-1.482272 0.004,-3.80369 -0.003,-5.814517 l -0.19975,0 0,0 z m 1.13554,0 c 0.004,2.421194 0.015,4.927306 0.0301,5.814517 l 0.46242,0 c -1.7e-4,-1.938178 -0.009,-3.876346 -0.0137,-5.814517 l -0.47885,0 z m 1.39548,0 c 0.0129,1.938148 0.009,3.876362 0.0191,5.814517 l 0.19154,0 c -0.005,-1.938176 -0.0145,-3.876337 -0.0191,-5.814517 l -0.19154,0 z m 0.54452,0 c 0.01,1.938166 0.0185,3.876336 0.0246,5.814517 l 0.75246,0 c -0.009,-1.93816 -0.0136,-3.876337 -0.0164,-5.814517 l -0.76067,0 0,0 z m 1.11365,0 c 0.005,1.938182 0.0178,3.876338 0.0246,5.814517 l 0.71689,0 c 0.003,-1.551194 0.001,-3.832851 -0.003,-5.814517 l -0.73878,0 -10e-6,0 z m 1.11912,0 c -1.7e-4,1.938176 -4.4e-4,3.876357 0.008,5.814517 l 1.02336,0 c -0.008,-1.938164 -0.0127,-3.87634 -0.0164,-5.814517 l -1.01515,0 0,0 z m 1.39275,0 c 0.003,1.938177 0.002,3.876358 0.0109,5.814517 l 0.20522,0 c -0.004,-1.93818 -0.008,-3.876354 -0.0164,-5.814517 l -0.19975,0 z m 0.53904,0 c 0.0101,2.135701 0.0201,4.716206 0.0219,5.743375 l 0,0.07114 0.20522,0 c -0.0122,-1.938161 -0.0226,-3.876331 -0.0301,-5.814517 l -0.19701,0 z m 0.59376,0 c 8e-5,1.938173 -0.001,3.876346 0.003,5.814517 l 0.45148,0 -0.008,-5.814517 -0.446,0 z m 1.65543,0 c 8.9e-4,1.938177 -0.004,3.876354 0.005,5.814517 l 0.20248,0 c -5.2e-4,-1.938192 -0.0117,-3.876359 -0.0219,-5.814517 l -0.18606,0 z m 0.85097,0 c 0.001,1.984115 0.007,4.26712 0.0164,5.814517 l 0.20522,0 c -0.009,-1.938169 -0.0143,-3.876355 -0.0246,-5.814517 l -0.19701,0 z m 0.57735,0 c 0.004,1.938175 0.01,3.876348 0.0164,5.814517 l 0.18333,0 c -0.01,-1.938166 -0.0141,-3.876357 -0.0246,-5.814517 l -0.17512,0 z m 0.82634,0 0.0137,5.814517 1.06714,0 c -0.0103,-1.938176 -0.0209,-3.876351 -0.0328,-5.814517 l -1.04798,0 z m 1.65817,0 c 0.009,1.938163 0.0161,3.87634 0.0219,5.814517 l 0.51715,0 c -0.0138,-1.93816 -0.0254,-3.876334 -0.0356,-5.814517 l -0.50347,0 0,0 z m 0.84276,0 0.0191,5.814517 1.05072,0 c -0.0109,-1.938173 -0.0201,-3.876355 -0.0328,-5.814517 l -1.03704,0 z m 1.40643,0 c 0.002,1.98325 0.0103,4.267448 0.0191,5.814517 l 0.50073,0 c -0.01,-1.938171 -0.0185,-3.876344 -0.0274,-5.814517 l -0.49252,0 z m 0.86192,0 c 0.002,1.963495 0.008,4.22527 0.0191,5.814517 l 0.22437,0 c -0.0175,-1.938123 -0.0227,-3.87633 -0.0274,-5.814517 l -0.21616,0 z m 0.84002,0 c 3.5e-4,1.49608 0.002,3.29927 0.008,5.814517 l 0.51442,0 c -0.0135,-1.938159 -0.0249,-3.876328 -0.0328,-5.814517 l -0.48979,0 0,0 z m 0.85371,0 c 0.0111,1.921744 0.009,3.84351 0.0164,5.765264 9e-5,0.02111 -8e-5,0.02862 0,0.04926 l 0.17786,0 c -0.004,-1.938171 -0.003,-3.876349 -0.008,-5.814517 l -0.18606,0 -1e-5,0 z m 1.37633,0 c 0.006,1.938176 0.006,3.876374 0.0192,5.814517 l 0.50894,0 c -0.009,-1.938172 -0.0184,-3.876344 -0.0274,-5.814517 l -0.50073,0 z m 1.4037,0 0.0164,5.814517 0.76067,0 c -0.009,-1.938166 -0.014,-3.876357 -0.0246,-5.814517 l -0.75246,0 z m 1.11912,0 0.0164,5.814517 0.21616,0 c -0.008,-1.938172 -0.0151,-3.876351 -0.0246,-5.814517 l -0.20795,0 z m 0.54178,0 c 0.005,1.938192 0.0133,3.876368 0.0274,5.814517 l 0.48978,0 c -0.0101,-1.938152 -0.013,-3.876343 -0.0164,-5.814517 l -0.50073,0 z"
       inkscape:connector-curvature="0"
       id="path3762"
       style="fill:#000000;fill-opacity:1" />
    <path
       d="m 16,28 0,13.59375 C 22.364558,39.414237 29.835665,37.807394 38,37 l 0,-9 -22,0 z"
       inkscape:connector-curvature="0"
       id="rect3786"
       style="opacity:0.7;fill:url(#linearGradient3799);fill-opacity:1;stroke:none" />
    <rect
       width="36"
       height="2"
       rx="1"
       ry="0.66666669"
       x="48"
       y="58"
       id="rect3731"
       style="opacity:0.1;fill:#000000;fill-opacity:1;stroke:none" />
  </g>
</svg>
