<?xml version="1.0" encoding="UTF-8" standalone="no"?>
<svg
   xmlns:dc="http://purl.org/dc/elements/1.1/"
   xmlns:cc="http://creativecommons.org/ns#"
   xmlns:rdf="http://www.w3.org/1999/02/22-rdf-syntax-ns#"
   xmlns:svg="http://www.w3.org/2000/svg"
   xmlns="http://www.w3.org/2000/svg"
   xmlns:xlink="http://www.w3.org/1999/xlink"
   xmlns:sodipodi="http://sodipodi.sourceforge.net/DTD/sodipodi-0.dtd"
   xmlns:inkscape="http://www.inkscape.org/namespaces/inkscape"
   viewBox="0 0 96 96"
   id="svg2"
   version="1.1"
   inkscape:version="0.91 r"
   sodipodi:docname="abiword.svg">
  <title
     id="title155">abiword</title>
  <metadata
     id="metadata148">
    <rdf:RDF>
      <cc:Work
         rdf:about="">
        <dc:format>image/svg+xml</dc:format>
        <dc:type
           rdf:resource="http://purl.org/dc/dcmitype/StillImage" />
        <dc:title>abiword</dc:title>
        <dc:subject>
          <rdf:Bag>
            <rdf:li>abiword</rdf:li>
            <rdf:li>office</rdf:li>
            <rdf:li>editor</rdf:li>
          </rdf:Bag>
        </dc:subject>
        <dc:description>abiword, office, editor</dc:description>
      </cc:Work>
    </rdf:RDF>
  </metadata>
  <sodipodi:namedview
     pagecolor="#ffffff"
     bordercolor="#666666"
     borderopacity="1"
     objecttolerance="10"
     gridtolerance="10"
     guidetolerance="10"
     inkscape:pageopacity="0"
     inkscape:pageshadow="2"
     inkscape:window-width="1280"
     inkscape:window-height="965"
     id="namedview146"
     showgrid="false"
     inkscape:zoom="4.91667"
     inkscape:cx="38.8011"
     inkscape:cy="74.1123"
     inkscape:window-x="0"
     inkscape:window-y="27"
     inkscape:window-maximized="1"
     inkscape:current-layer="svg2" />
  <defs
     id="defs4">
    <clipPath
       id="clipPath3613">
      <path
         fill="#fff"
         d="m12,6h72a6,6 0 0,1 6,6v72a6,6 0 0,1 -6,6h-72a6,6 0 0,1 -6-6v-72a6,6 0 0,1 6-6"
         id="path7" />
    </clipPath>
    <filter
       width="1.384"
       x="-.192"
       y="-.192"
       height="1.384"
       color-interpolation-filters="sRGB"
       id="filter3794">
      <feGaussianBlur
         stdDeviation="5.28"
         id="feGaussianBlur10" />
    </filter>
    <linearGradient
       gradientTransform="matrix(.84443 .12131 -.12943 .79144 26.34167 12.19718)"
       id="linearGradient10454"
       xlink:href="#linearGradient11508"
       y1="82.474"
       x1="43.7"
       y2="6.208"
       x2="87.732"
       gradientUnits="userSpaceOnUse" />
    <linearGradient
       id="linearGradient11508">
      <stop
         offset="0"
         id="stop15" />
      <stop
         offset="1"
         stop-opacity="0"
         id="stop17" />
    </linearGradient>
    <linearGradient
       gradientTransform="matrix(1.50268 0 0 1.51896 11.13064 11.16563)"
       id="linearGradient3715"
       xlink:href="#linearGradient3719"
       y1="4.714"
       x1="25.071"
       y2="44.5"
       x2="35.095"
       gradientUnits="userSpaceOnUse" />
    <linearGradient
       gradientTransform="matrix(.81423 0 0 .81423 16.89508 15.45345)"
       id="linearGradient10400"
       xlink:href="#linearGradient10394"
       y1="35.606"
       x1="60.899"
       y2="39.534"
       x2="68.223"
       gradientUnits="userSpaceOnUse" />
    <linearGradient
       id="linearGradient10386">
      <stop
         offset="0"
         stop-color="#fff"
         id="stop22" />
      <stop
         offset="1"
         stop-color="#fff"
         stop-opacity="0"
         id="stop24" />
    </linearGradient>
    <linearGradient
       gradientTransform="matrix(.81423 0 0 .81423 16.89508 15.45345)"
       id="linearGradient10392"
       xlink:href="#linearGradient10386"
       y1="68.172"
       x1="58.652"
       y2="57.993"
       x2="47.451"
       gradientUnits="userSpaceOnUse" />
    <linearGradient
       gradientTransform="matrix(.86655 .18119 -.27629 .5683 37.5682 28.21342)"
       id="linearGradient3010"
       xlink:href="#linearGradient11508"
       y1="82.474"
       x1="43.7"
       y2="16.212"
       x2="77.924"
       gradientUnits="userSpaceOnUse" />
    <linearGradient
       id="linearGradient6531">
      <stop
         offset="0"
         stop-color="#c38125"
         id="stop29" />
      <stop
         offset=".63"
         stop-color="#c68d31"
         id="stop31" />
      <stop
         offset="1"
         stop-color="#fffce6"
         id="stop33" />
    </linearGradient>
    <linearGradient
       id="linearGradient10394">
      <stop
         offset="0"
         stop-color="#1a1a1a"
         id="stop36" />
      <stop
         offset=".352"
         stop-color="#636363"
         id="stop38" />
      <stop
         offset=".5"
         stop-color="#c7c7c7"
         id="stop40" />
      <stop
         offset=".65"
         stop-color="#636363"
         id="stop42" />
      <stop
         offset="1"
         id="stop44" />
    </linearGradient>
    <linearGradient
       gradientTransform="matrix(.59072 -.15822 .15862 .59174 38.27202 30.32767)"
       id="linearGradient8183"
       xlink:href="#linearGradient6531"
       y1="77.502"
       x1="24.249"
       y2="67.674"
       x2="13.406"
       gradientUnits="userSpaceOnUse" />
    <linearGradient
       gradientTransform="translate(0 -96)"
       id="linearGradient3617"
       xlink:href="#linearGradient7668"
       y1="90"
       y2="5.988"
       x2="0"
       gradientUnits="userSpaceOnUse" />
    <linearGradient
       id="linearGradient3188"
       xlink:href="#linearGradient3737"
       y1="6"
       y2="63.893"
       x2="0"
       gradientUnits="userSpaceOnUse" />
    <linearGradient
       id="linearGradient3719">
      <stop
         offset="0"
         stop-color="#eaedf1"
         id="stop55" />
      <stop
         offset="1"
         stop-color="#c1ccdb"
         id="stop57" />
    </linearGradient>
    <linearGradient
       id="linearGradient3737">
      <stop
         offset="0"
         stop-color="#fff"
         id="stop60" />
      <stop
         offset="1"
         stop-color="#fff"
         stop-opacity="0"
         id="stop62" />
    </linearGradient>
    <linearGradient
       id="linearGradient3613"
       xlink:href="#linearGradient3737"
       y1="20.221"
       y2="138.661"
       x2="0"
       gradientUnits="userSpaceOnUse" />
    <linearGradient
       id="linearGradient7668">
      <stop
         offset="0"
         stop-color="#94b6db"
         id="stop66" />
      <stop
         offset="1"
         stop-color="#3465a4"
         id="stop68" />
    </linearGradient>
    <linearGradient
       gradientTransform="matrix(1.02381 0 0 1.0119 -1.14286 -98.07143)"
       id="linearGradient3780"
       xlink:href="#ButtonShadow-0"
       y1="6.132"
       y2="90.239"
       x2="0"
       gradientUnits="userSpaceOnUse" />
    <linearGradient
       gradientTransform="translate(0 -97)"
       id="linearGradient3721"
       xlink:href="#ButtonShadow-0"
       y1="6.132"
       y2="90.239"
       x2="0"
       gradientUnits="userSpaceOnUse" />
    <linearGradient
       gradientTransform="matrix(1.00587 0 0 .99417 100 0)"
       id="ButtonShadow-0"
       y1="92.54"
       y2="7.017"
       x2="0"
       gradientUnits="userSpaceOnUse">
      <stop
         offset="0"
         id="stop73" />
      <stop
         offset="1"
         stop-opacity=".588"
         id="stop75" />
    </linearGradient>
    <radialGradient
       cx="59.852"
       cy="41.704"
       gradientTransform="matrix(1 0 0 .125 0 36.49126)"
       r="18.183"
       id="radialGradient10416"
       gradientUnits="userSpaceOnUse">
      <stop
         offset="0"
         stop-color="#fff"
         id="stop83" />
      <stop
         offset="1"
         stop-color="#fff"
         stop-opacity="0"
         id="stop85" />
    </radialGradient>
    <radialGradient
       cx="48"
       cy="90.172"
       gradientTransform="matrix(1.15731,0,0,0.99591,-7.55102,0.19713)"
       r="42"
       id="radialGradient3619"
       xlink:href="#linearGradient3737"
       gradientUnits="userSpaceOnUse" />
  </defs>
  <path
     opacity=".08"
     fill="url(#linearGradient3780)"
     d="m12-95.0312c-5.5111,0-10.0312,4.5202-10.0312,10.0312v71c0,5.5111 4.5202,10.0312 10.0312,10.0312h72c5.5111,0 10.0312-4.5202 10.0312-10.0312v-71c0-5.5111-4.5202-10.0312-10.0312-10.0312h-72z"
     transform="scale(1 -1)"
     id="path88" />
  <path
     opacity=".1"
     fill="url(#linearGradient3780)"
     d="m12-94.0312c-4.9716,0-9.0312,4.0596-9.0312,9.0312v71c0,4.9716 4.0596,9.0312 9.0312,9.0312h72c4.9716,0 9.0312-4.0596 9.0312-9.0312v-71c0-4.9716-4.0596-9.0312-9.0312-9.0312h-72z"
     transform="scale(1 -1)"
     id="path90" />
  <path
     opacity=".2"
     fill="url(#linearGradient3780)"
     d="m12-93c-4.4091,0-8,3.5909-8,8v71c0,4.4091 3.5909,8 8,8h72c4.4091,0 8-3.5909 8-8v-71c0-4.4091-3.5909-8-8-8h-72z"
     transform="scale(1 -1)"
     id="path92" />
  <path
     opacity=".3"
     fill="url(#linearGradient3780)"
     d="m12-92h72a7,7 0 0,1 7,7v71a7,7 0 0,1 -7,7h-72a7,7 0 0,1 -7-7v-71a7,7 0 0,1 7-7"
     transform="scale(1 -1)"
     id="path94" />
  <path
     opacity=".45"
     fill="url(#linearGradient3721)"
     d="m12-91h72a6,6 0 0,1 6,6v72a6,6 0 0,1 -6,6h-72a6,6 0 0,1 -6-6v-72a6,6 0 0,1 6-6"
     transform="scale(1 -1)"
     id="path96" />
  <path
     fill="url(#linearGradient3617)"
     d="m12-90h72a6,6 0 0,1 6,6v72a6,6 0 0,1 -6,6h-72a6,6 0 0,1 -6-6v-72a6,6 0 0,1 6-6"
     transform="scale(1 -1)"
     id="path98" />
  <path
     style="opacity:0.4;fill:url(#linearGradient3188)"
     d="M 12,6 C 8.11425,5.86322 5.41842,9.7916 6,13.4226 6.01817,37.1117 5.96368,60.8028 6.02721,84.4906 5.28209,86.8321 10.5384,90.3041 9.3125,89.2189 6.06848,87.1934 7.20936,83.0941 7,79.918 7.01709,57.4408 6.96584,34.9619 7.02559,12.4857 7.23712,9.18528 10.6966,7.53718 13.6597,8.0003 37.2778,8.01738 60.8976,7.96615 84.5146,8.02589 87.815,8.23742 89.4631,11.6969 89,14.66 c -0.023,23.6263 0.047,47.2557 -0.035,70.8801 0.6395,2.1759 -4.9497,5.3487 -1.452,3.2815 3.5336,-2.4814 2.2373,-6.9817 2.4873,-10.6151 -0.021,-22.2736 0.041,-44.5493 -0.031,-66.8216 C 89.7162,7.60958 85.8109,5.47608 82.3404,6.0001 58.8936,6.00003 35.4467,6.00023 12,6 Z"
     id="path100"
     inkscape:connector-curvature="0" />
  <path
     style="opacity:0.2;fill:url(#radialGradient3619)"
     d="M 12,90 C 8.11425,90.1368 5.41842,86.2084 6,82.5774 6.01817,58.8883 5.96368,35.1972 6.02721,11.5094 5.28209,9.16789 10.5384,5.69592 9.3125,6.7811 6.06848,8.80663 7.20936,12.9059 7,16.082 c 0.0171,22.4772 -0.0342,44.9561 0.0256,67.4323 0.21153,3.3004 3.67101,4.9485 6.63411,4.4854 23.6181,-0.017 47.2379,0.034 70.8549,-0.026 3.3004,-0.2115 4.9485,-3.671 4.4854,-6.6341 -0.023,-23.6263 0.047,-47.2557 -0.035,-70.8801 0.6395,-2.17591 -4.9497,-5.34874 -1.452,-3.28154 3.5336,2.48139 2.2373,6.98174 2.4873,10.61514 -0.021,22.2736 0.041,44.5493 -0.031,66.8216 -0.253,3.7753 -4.1583,5.9088 -7.6288,5.3848 C 58.8936,90 35.4467,89.9998 12,90 Z"
     id="path102"
     inkscape:connector-curvature="0" />
  <path
     opacity=".1"
     fill="url(#linearGradient3613)"
     filter="url(#filter3794)"
     stroke="#fff"
     stroke-linecap="round"
     stroke-width=".5"
     d="m27,15h42a12,12 0 0,1 12,12v42a12,12 0 0,1 -12,12h-42a12,12 0 0,1 -12-12v-42a12,12 0 0,1 12-12"
     clip-path="url(#clipPath3613)"
     id="path108" />
  <g
     fill-rule="evenodd"
     id="g110">
    <path
       style="opacity:0.05"
       d="m 48.4062,17.0312 c -4.5312,0.4511 -7.5826,4.3742 -10.3438,7.5937 -7.5684,9.9162 -13.1271,21.24 -17.6926,32.8055 -2.0824,5.907 -4.4242,12.0044 -4.2925,18.3596 0.3839,3.588 4.2419,5.3291 7.4885,5.1509 3.0285,0.097 5.9129,-1.2696 8.7939,-2.0583 11.2593,-3.9825 21.8588,-9.7192 31.7706,-16.3447 1.5296,-0.9047 2.8918,-3.1841 3.5454,-0.3771 3.0288,5.3927 5.8611,10.9034 8.8554,16.3077 1.1253,1.3512 3.567,0.3867 3.437,-1.3747 C 79.4119,64.3575 74.7586,52.1896 69.3021,40.8105 65.3105,33.0445 60.9364,25.1161 54.2389,19.3387 c -1.659,-1.309 -3.6668,-2.3676 -5.8327,-2.3075 z m 0.125,16.1875 c 3.4434,2.4794 5.4681,6.4062 7.8993,9.7958 2.9389,4.6411 6.1052,9.5938 8.4756,14.2979 -10.3406,3.1689 -20.7067,6.5438 -31.4085,8.3026 -1.9366,0.5123 -4.1232,0.4167 -2.6623,-2.0478 3.1816,-9.2949 7.735,-18.1557 13.4773,-26.1298 1.2375,-1.5393 2.4568,-3.2432 4.2186,-4.2187 z"
       id="path112"
       inkscape:connector-curvature="0" />
    <path
       opacity=".1"
       d="m48.4375,17.9062c-1.5976,.036-3.1539,.8604-4.75,2.125-1.5961,1.2646-3.2468,3.0059-4.9375,5.125-3.3813,4.2381-6.8967,9.9704-10.125,16.125-3.2283,6.1546-6.1626,12.7337-8.2812,18.7188-2.1187,5.9851-3.4471,11.3243-3.4375,15.1875a1.0931,1.0931 0 0,0 0,.0625c.1286,2.2534 1.5792,3.6817 3.1562,4.25 1.577,.5683 3.2928,.5581 4.5625,.5938a1.0931,1.0931 0 0,0 .25-.0312c8.74-1.8151 18.7543-6.4972 26.7188-10.875 3.9822-2.1889 7.4399-4.2928 9.9688-5.9375 1.2644-.8223 2.2811-1.5479 3.0312-2.0938 .3751-.2729 .6984-.4905 .9375-.6875 .2391-.197 .3512-.2514 .5938-.625a1.0931,1.0931 0 0,0 -1.25-1.625c0,0-8.6858,2.827-17.5938,5.2188-4.454,1.1959-8.9784,2.2852-12.4375,2.8438-1.7296,.2793-3.1775,.4299-4.1875,.4062-.505-.0118-.9199-.0931-1.125-.1562-.2051-.0632-.1385-.0803-.0625,.0625 .0683,.1282-.0943-.6981 .1562-1.8438 .2506-1.1457 .7495-2.6659 1.4062-4.4062 1.3135-3.4807 3.3105-7.8628 5.5625-12.0938 2.252-4.2309 4.7652-8.3431 7.0312-11.3438 1.133-1.5003 2.2089-2.7003 3.125-3.5 .9161-.7997 1.6623-1.0993 1.9062-1.0938 .0271,.0006 1.0513,.4596 2.1875,1.6562 1.1362,1.1967 2.5064,2.9935 4,5.125 2.9872,4.2629 6.4601,9.9687 9.75,15.6875 6.5797,11.4376 12.4375,22.875 12.4375,22.875a1.0931,1.0931 0 0,0 2.0625-.5312c-.2395-10.9865-5.2725-25.6176-11.4375-37.625-3.0826-6.004-6.4531-11.3469-9.7188-15.2188-3.2657-3.8718-6.3722-6.4455-9.5-6.375z"
       id="path114" />
    <path
       opacity=".3"
       d="m18,75.2026c-.0358-14.394 20.7895-55.9831 30.483-56.2016 4.8476-.1093 12.1106,9.0949 18.2198,20.9936 6.1092,11.8987 11.0646,26.492 11.2972,37.1609 0,0-23.4526-45.813-29.3023-45.9486-5.9571-.1356-22.126,32.2773-20.2027,35.8879 1.8784,3.5262 36.7322-7.8413 36.7322-7.8413-.7513,1.1573-23.5062,16.2023-40.5724,19.7465-2.576-.0723-6.4401-.0362-6.6547-3.7974z"
       id="path116" />
    <path
       fill="url(#linearGradient3715)"
       d="m18,74.2026c-.0358-14.394 20.7895-55.9831 30.483-56.2016 4.8476-.1093 12.1106,9.0949 18.2198,20.9936 6.1092,11.8987 11.0646,26.492 11.2972,37.1609 0,0-23.4526-45.813-29.3023-45.9486-5.9571-.1356-22.126,32.2773-20.2027,35.8879 1.8784,3.5262 36.7322-7.8413 36.7322-7.8413-.7513,1.1573-23.5062,16.2023-40.5724,19.7465-2.576-.0723-6.4401-.0362-6.6547-3.7974z"
       id="path118" />
    <path
       style="opacity:0.6;fill:#ffffff"
       d="m 47.5,20.0312 c -3.3019,0.9421 -5.442,3.9799 -7.5809,6.4729 -7.2666,9.6763 -12.6778,20.6401 -17.0068,31.9063 -1.7949,5.1854 -3.7975,10.5106 -3.8473,16.0609 0.1007,2.1186 7.1898,1.431 3.06,1.0913 -2.3178,-1.3435 -0.4132,-4.8695 -0.3177,-7.0422 2.7118,-10.9918 7.5132,-21.3658 13.0176,-31.2191 3.4909,-5.8028 6.9867,-11.9188 12.3613,-16.1998 0.426,-0.6041 2.6711,-0.8647 0.3138,-1.0703 z m 2.2188,8.1562 c -2.3739,-0.1242 1.7234,1.0093 1.9685,2.1942 5.6482,6.1905 9.7072,13.6135 14.0017,20.757 2.6364,4.4924 5.0929,9.086 7.4985,13.7051 -1.0299,-3.8924 -1.8581,-7.9334 -4.1337,-11.3274 -4.5197,-7.7093 -8.8789,-15.6206 -14.7104,-22.437 -1.243,-1.3476 -2.612,-2.9549 -4.6246,-2.8919 z m 1.2188,36.125 c -6.5085,1.9591 -13.1297,3.76 -19.9063,4.4686 6.0974,0.032 12.0029,-1.842 17.8749,-3.2813 0.7159,-0.3179 1.3427,-0.8165 2.0314,-1.1873 z"
       id="path120"
       inkscape:connector-curvature="0" />
    <path
       style="opacity:0.1"
       d="m 48.4688,18 c -3.8886,0.5929 -6.4365,4.0603 -8.8552,6.8474 C 31.7993,35.0785 26.0935,46.7951 21.5815,58.8092 19.8705,63.7797 18.141,68.8835 18,74.1875 c 0.1706,3.8121 5.0035,4.2072 7.8652,3.5447 11.8144,-2.9964 22.6955,-8.8048 33.0502,-15.1026 1.7771,-1.1999 5.5335,-3.3385 5.9116,-4.2528 -10.2274,3.159 -20.4807,6.463 -31.0723,8.1676 -3.0688,1.0869 -7.0173,-0.2523 -4.9402,-4.0177 2.7394,-8.673 7.0564,-16.7937 11.9392,-24.4391 2.0819,-2.8603 4.0093,-6.2714 7.3462,-7.7881 3.0839,0.046 4.665,3.5488 6.5248,5.6065 8.4172,11.9433 15.2349,24.9145 22.0975,37.7874 0.6128,1.1004 1.6262,3.6557 1.2141,0.9374 C 76.9059,62.1024 72.2457,50.1641 66.6874,39.0001 63.0058,32.1362 59.0827,25.0679 53.0524,19.972 51.728,18.9643 50.1913,17.993 48.4688,18 Z m 0.031,0.9375 c 3.5139,0.4817 5.9647,3.514 8.199,6.0071 7.8057,9.9323 13.1511,21.6238 16.9373,33.6198 1.2627,4.1712 2.2892,8.4243 2.8637,12.7481 -6.6142,-12.39 -13.2324,-24.8541 -21.3943,-36.3128 -1.8329,-2.1202 -3.4206,-5.1697 -6.387,-5.7185 -3.1727,0.3614 -5.0601,3.4388 -6.9413,5.7035 -5.4498,7.6799 -9.8281,16.1329 -13.128,24.9479 -0.6112,2.2906 -2.8495,6.6944 0.6659,7.6318 5.283,0.436 10.4543,-1.2591 15.5541,-2.4152 5.1819,-1.3275 10.3246,-2.8072 15.4118,-4.4615 -10.4359,6.4856 -21.3935,12.4601 -33.278,15.808 -2.4615,0.7214 -5.8524,1.0841 -7.729,-0.988 -0.8421,-2.4864 0.1418,-5.1798 0.5449,-7.6749 3.0752,-12.1152 8.5386,-23.5232 14.9,-34.2362 3.1926,-4.9488 6.3887,-10.2079 11.2464,-13.7043 0.7685,-0.4718 1.6154,-0.9121 2.5345,-0.9548 z"
       id="path122"
       inkscape:connector-curvature="0" />
  </g>
  <path
     opacity=".3"
     fill="url(#linearGradient3010)"
     d="m90.1761,53.5952c-3.6858,2.0006-7.2847,3.9883-10.5341,6.2085-4.365,2.9824-7.4244,5.9688-8.8293,8.2441-.0064,.0104-.0191,.0151-.0254,.0254-.8552,.5127-6.9873,4.2125-10.1016,6.3612-3.4,2.3458-9.1347,8.3459-9.1347,8.3459l.6616,.4071c5.6356-2.6277 16.9717-5.2416 16.9717-5.2416l.3817-.1018-.1018-.2544c0,0-.0496-.1062 0-.4326 .0496-.3264 .2176-.8398 .6361-1.5267 .9094-1.4926 3.2069-3.0679 4.7582-4.0203 3.5779-.8832 8.6396-3.2387 13.3585-6.463 .6703-.458 1.3132-.9254 1.9592-1.3995v-10.1525z"
     id="path124" />
  <path
     opacity=".2"
     fill="url(#linearGradient10454)"
     d="m90.1761,28.1758c-5.8298,7.2724-12.5781,13.1529-17.7605,20.1268-3.3838,4.5536-5.5404,8.9528-6.3358,12.1626-.0036,.0147-.0219,.0363-.0255,.0509-.679,.7972-5.5292,6.4943-7.9388,9.7708-2.6306,3.577-6.6156,12.3153-6.6156,12.3153l.7125,.458c4.6419-4.2576 14.5544-9.2619 14.5544-9.2619l.3308-.1781-.1272-.3308c0,0-.075-.1457-.1018-.5852-.0268-.4396-.0059-1.1437 .229-2.1119 .5104-2.1039 2.3102-4.5039 3.5368-5.9795 3.1223-1.6622 7.2831-5.4587 10.9413-10.3815 3.1444-4.2314 5.7662-8.8272 8.6003-13.5621v-12.4934z"
     id="path126" />
  <path
     fill="url(#linearGradient10400)"
     stroke="#000"
     d="m75.0647,49.5472c-4.0496,8.2509-9.7641,14.1187-11.8445,13.001-2.2191-1.1922-1.1463-8.7964 3.0089-17.2625 4.1542-8.4641 10.6273-15.8001 14.8817-25.2504 .8108-1.801 2.3809-4.4618 4.6101-3.3316 2.3106,1.1714 1.6837,3.3635 .4629,5.8534-4.7142,9.6155-7.0695,18.7392-11.1191,26.9901z"
     id="path128" />
  <path
     fill="none"
     stroke="#2e3436"
     stroke-linecap="round"
     stroke-width="4.345"
     d="m60.4576,78.052a5.4801,7.7782 0 1,1 -10.9602,0 5.4801,7.7782 0 1,1 10.9602,0z"
     transform="matrix(.51543 -.13805 .18765 .34819 22.03479 39.12119)"
     id="path130" />
  <g
     stroke="#c17d11"
     id="g132">
    <path
       fill="url(#linearGradient8183)"
       fill-rule="evenodd"
       d="m51.8616,82.6934c0,0 2.4075-9.3899 4.2814-13.2553 1.8738-3.8654 6.3041-11.5547 6.3041-11.5547 0,0 1.2782-1.912 3.3416-.895 2.0634,1.017 1.4678,2.9704 1.4678,2.9704 0,0-3.1117,4.6864-3.3706,8.3025-.1492,2.0844 .3394,2.9362 .3394,2.9362 0,0-8.5696,6.4436-12.3637,11.496z"
       id="path134" />
    <path
       fill-opacity=".6"
       stroke-linecap="round"
       stroke-width=".784"
       d="m-27.9307,71.8649a1.2374,3.0052 0 1,1 -2.4749,0 1.2374,3.0052 0 1,1 2.4749,0z"
       transform="matrix(.40562 .17374 -.18617 .36893 82.84338 47.7058)"
       id="path136" />
  </g>
  <g
     fill-rule="evenodd"
     id="g138">
    <path
       fill="#c17d11"
       stroke="#c17d11"
       stroke-width=".343"
       d="m51.9099,82.4563c1.6988-4.3791 2.9113-8.0673 5.0356-12.1119"
       id="path140" />
    <path
       fill="url(#linearGradient10392)"
       d="m65.4946,58.3279c-.1782,.1447-.2968,.2952-.3053,.3053-.0001,.0001-.0254-.0001-.0254,0-.0614,.1066-4.405,7.6789-6.2085,11.3993-.6145,1.2676-1.3455,3.3136-2.0101,5.4197 2.7494-2.4747 5.1081-4.2482 5.7505-4.7327-.1227-.6032-.2077-1.4465-.1272-2.5699 .1536-2.1448 1.0634-4.3076 1.9084-6.005 .7648-1.5364 1.367-2.4403 1.5012-2.6463 .009-.0359 .0442-.1719 0-.4326-.041-.2416-.0862-.4776-.4835-.7379z"
       id="path142" />
  </g>
  <path
     fill="url(#radialGradient10416)"
     d="m78.0343,41.7043a18.1827,2.2728 0 1,1 -36.3655,0 18.1827,2.2728 0 1,1 36.3655,0z"
     transform="matrix(.37707 -.72166 .72166 .37707 17.69296 71.94249)"
     id="path144" />
</svg>
