<?xml version="1.0" encoding="UTF-8" standalone="no"?>
<!-- Created with Inkscape (http://www.inkscape.org/) -->

<svg
   xmlns:dc="http://purl.org/dc/elements/1.1/"
   xmlns:cc="http://creativecommons.org/ns#"
   xmlns:rdf="http://www.w3.org/1999/02/22-rdf-syntax-ns#"
   xmlns:svg="http://www.w3.org/2000/svg"
   xmlns="http://www.w3.org/2000/svg"
   xmlns:xlink="http://www.w3.org/1999/xlink"
   xmlns:sodipodi="http://sodipodi.sourceforge.net/DTD/sodipodi-0.dtd"
   xmlns:inkscape="http://www.inkscape.org/namespaces/inkscape"
   version="1.0"
   width="96"
   height="96"
   id="svg2408"
   inkscape:version="0.92+devel (unknown)"
   sodipodi:docname="accessories-character-map.svg">
  <title
     id="title79">accessories-character-map</title>
  <sodipodi:namedview
     pagecolor="#ffffff"
     bordercolor="#666666"
     borderopacity="1"
     objecttolerance="10"
     gridtolerance="10"
     guidetolerance="10"
     inkscape:pageopacity="0"
     inkscape:pageshadow="2"
     inkscape:window-width="1280"
     inkscape:window-height="965"
     id="namedview75"
     showgrid="false"
     inkscape:zoom="13.9064"
     inkscape:cx="38.1163"
     inkscape:cy="48.2339"
     inkscape:window-x="0"
     inkscape:window-y="29"
     inkscape:window-maximized="1"
     inkscape:current-layer="svg2408"
     inkscape:document-rotation="0" />
  <defs
     id="defs2410">
    <linearGradient
       id="linearGradient3672">
      <stop
         id="stop3674"
         style="stop-color:#ffffff;stop-opacity:0"
         offset="0" />
      <stop
         id="stop3676"
         style="stop-color:#ffffff;stop-opacity:0"
         offset="0.30000001" />
      <stop
         id="stop3678"
         style="stop-color:#ffffff;stop-opacity:0.48387095"
         offset="0.5" />
      <stop
         id="stop3680"
         style="stop-color:#ffffff;stop-opacity:0"
         offset="0.75264549" />
      <stop
         id="stop3682"
         style="stop-color:#ffffff;stop-opacity:0"
         offset="1" />
    </linearGradient>
    <linearGradient
       id="linearGradient3650">
      <stop
         id="stop3652"
         style="stop-color:#000000;stop-opacity:0"
         offset="0" />
      <stop
         id="stop3660"
         style="stop-color:#000000;stop-opacity:0"
         offset="0.30000001" />
      <stop
         id="stop3658"
         style="stop-color:#000000;stop-opacity:0.11764706"
         offset="0.5" />
      <stop
         id="stop3662"
         style="stop-color:#000000;stop-opacity:0"
         offset="0.69999999" />
      <stop
         id="stop3654"
         style="stop-color:#000000;stop-opacity:0"
         offset="1" />
    </linearGradient>
    <linearGradient
       id="linearGradient3622">
      <stop
         id="stop3624"
         style="stop-color:#d6d6d6;stop-opacity:1"
         offset="0" />
      <stop
         id="stop3626"
         style="stop-color:#eaeaea;stop-opacity:1"
         offset="1" />
    </linearGradient>
    <linearGradient
       id="linearGradient3614">
      <stop
         id="stop3616"
         style="stop-color:#b3b3b3;stop-opacity:1"
         offset="0" />
      <stop
         id="stop3618"
         style="stop-color:#d2d2d2;stop-opacity:1"
         offset="1" />
    </linearGradient>
    <linearGradient
       x1="45.447727"
       y1="92.539597"
       x2="45.447727"
       y2="7.0165396"
       id="ButtonShadow"
       gradientUnits="userSpaceOnUse"
       gradientTransform="scale(1.0058652,0.994169)">
      <stop
         id="stop3750"
         style="stop-color:#000000;stop-opacity:1"
         offset="0" />
      <stop
         id="stop3752"
         style="stop-color:#000000;stop-opacity:0.58823532"
         offset="1" />
    </linearGradient>
    <linearGradient
       id="linearGradient3737">
      <stop
         id="stop3739"
         style="stop-color:#ffffff;stop-opacity:1"
         offset="0" />
      <stop
         id="stop3741"
         style="stop-color:#ffffff;stop-opacity:0"
         offset="1" />
    </linearGradient>
    <filter
       color-interpolation-filters="sRGB"
       id="filter3174">
      <feGaussianBlur
         id="feGaussianBlur3176"
         stdDeviation="1.71" />
    </filter>
    <linearGradient
       x1="36.357143"
       y1="6"
       x2="36.357143"
       y2="63.893143"
       id="linearGradient3188"
       xlink:href="#linearGradient3737"
       gradientUnits="userSpaceOnUse" />
    <filter
       x="-0.192"
       y="-0.192"
       width="1.3839999"
       height="1.3839999"
       color-interpolation-filters="sRGB"
       id="filter3794">
      <feGaussianBlur
         id="feGaussianBlur3796"
         stdDeviation="5.28" />
    </filter>
    <linearGradient
       x1="48"
       y1="20.220806"
       x2="48"
       y2="138.66119"
       id="linearGradient3613"
       xlink:href="#linearGradient3737"
       gradientUnits="userSpaceOnUse" />
    <radialGradient
       cx="48"
       cy="90.171875"
       r="42"
       fx="48"
       fy="90.171875"
       id="radialGradient3619"
       xlink:href="#linearGradient3737"
       gradientUnits="userSpaceOnUse"
       gradientTransform="matrix(1.15731,0,0,0.995908,-7.55102,0.197132)" />
    <clipPath
       id="clipPath3613">
      <rect
         width="84"
         height="84"
         rx="6"
         ry="6"
         x="6"
         y="6"
         id="rect3615"
         style="fill:#ffffff;fill-opacity:1;fill-rule:nonzero;stroke:none" />
    </clipPath>
    <linearGradient
       x1="63.535717"
       y1="90"
       x2="32.07143"
       y2="6"
       id="linearGradient3617"
       xlink:href="#linearGradient3614"
       gradientUnits="userSpaceOnUse" />
    <linearGradient
       x1="16"
       y1="46"
       x2="80"
       y2="46"
       id="linearGradient3628"
       xlink:href="#linearGradient3622"
       gradientUnits="userSpaceOnUse"
       gradientTransform="translate(-2,-94)" />
    <linearGradient
       x1="67.071426"
       y1="78"
       x2="48"
       y2="14"
       id="linearGradient3641"
       xlink:href="#linearGradient3737"
       gradientUnits="userSpaceOnUse" />
    <linearGradient
       x1="6"
       y1="48"
       x2="48"
       y2="81.071426"
       id="linearGradient3656"
       xlink:href="#linearGradient3650"
       gradientUnits="userSpaceOnUse" />
    <linearGradient
       x1="6"
       y1="48"
       x2="48"
       y2="81.071426"
       id="linearGradient3666"
       xlink:href="#linearGradient3650"
       gradientUnits="userSpaceOnUse"
       gradientTransform="matrix(-1,0,0,1,96,0)" />
    <linearGradient
       x1="13.321428"
       y1="48"
       x2="48"
       y2="84.285713"
       id="linearGradient3670"
       xlink:href="#linearGradient3672"
       gradientUnits="userSpaceOnUse"
       gradientTransform="matrix(1,0,0,-1,0,96)" />
    <linearGradient
       x1="13.321428"
       y1="48"
       x2="48"
       y2="84.285713"
       id="linearGradient3686"
       xlink:href="#linearGradient3672"
       gradientUnits="userSpaceOnUse"
       gradientTransform="matrix(-1,0,0,-1,96,96)" />
    <linearGradient
       x1="45.447727"
       y1="92.539597"
       x2="45.447727"
       y2="7.0165396"
       id="ButtonShadow-0"
       gradientUnits="userSpaceOnUse"
       gradientTransform="matrix(1.0058652,0,0,0.994169,100,0)">
      <stop
         id="stop3750-8"
         style="stop-color:#000000;stop-opacity:1"
         offset="0" />
      <stop
         id="stop3752-5"
         style="stop-color:#000000;stop-opacity:0.58823532"
         offset="1" />
    </linearGradient>
    <linearGradient
       x1="32.251034"
       y1="6.1317081"
       x2="32.251034"
       y2="90.238609"
       id="linearGradient3780"
       xlink:href="#ButtonShadow-0"
       gradientUnits="userSpaceOnUse"
       gradientTransform="matrix(1.0238095,0,0,1.0119048,-1.1428571,-98.071429)" />
    <linearGradient
       x1="32.251034"
       y1="6.1317081"
       x2="32.251034"
       y2="90.238609"
       id="linearGradient3772"
       xlink:href="#ButtonShadow-0"
       gradientUnits="userSpaceOnUse"
       gradientTransform="matrix(1.0238095,0,0,1.0119048,-1.1428571,-98.071429)" />
    <linearGradient
       x1="32.251034"
       y1="6.1317081"
       x2="32.251034"
       y2="90.238609"
       id="linearGradient3725"
       xlink:href="#ButtonShadow-0"
       gradientUnits="userSpaceOnUse"
       gradientTransform="matrix(1.0238095,0,0,1.0119048,-1.1428571,-98.071429)" />
    <linearGradient
       x1="32.251034"
       y1="6.1317081"
       x2="32.251034"
       y2="90.238609"
       id="linearGradient3721"
       xlink:href="#ButtonShadow-0"
       gradientUnits="userSpaceOnUse"
       gradientTransform="translate(0,-97)" />
    <linearGradient
       x1="32.251034"
       y1="6.1317081"
       x2="32.251034"
       y2="90.238609"
       id="linearGradient2969"
       xlink:href="#ButtonShadow-0"
       gradientUnits="userSpaceOnUse"
       gradientTransform="matrix(1.0238095,0,0,1.0119048,-1.1428571,-98.071429)" />
  </defs>
  <metadata
     id="metadata2413">
    <rdf:RDF>
      <cc:Work
         rdf:about="">
        <dc:format>image/svg+xml</dc:format>
        <dc:type
           rdf:resource="http://purl.org/dc/dcmitype/StillImage" />
        <dc:title>accessories-character-map</dc:title>
        <dc:subject>
          <rdf:Bag>
            <rdf:li>accessories</rdf:li>
            <rdf:li>character-map</rdf:li>
          </rdf:Bag>
        </dc:subject>
        <dc:description>accessories, character-map</dc:description>
      </cc:Work>
    </rdf:RDF>
  </metadata>
  <g
     id="layer2"
     style="display:none">
    <rect
       width="86"
       height="85"
       rx="6"
       ry="6"
       x="5"
       y="7"
       id="rect3745"
       style="opacity:0.9;fill:url(#ButtonShadow);fill-opacity:1;fill-rule:nonzero;stroke:none;filter:url(#filter3174)" />
  </g>
  <g
     id="layer3"
     style="display:inline">
    <path
       d="m 12,-95.03125 c -5.5110903,0 -10.03125,4.52016 -10.03125,10.03125 l 0,71 c 0,5.5110902 4.5201598,10.03125 10.03125,10.03125 l 72,0 c 5.51109,0 10.03125,-4.5201597 10.03125,-10.03125 l 0,-71 c 0,-5.51109 -4.52016,-10.03125 -10.03125,-10.03125 l -72,0 z"
       transform="scale(1,-1)"
       id="path3786"
       style="opacity:0.07999998;fill:url(#linearGradient2969);fill-opacity:1;fill-rule:nonzero;stroke:none;display:inline" />
    <path
       d="m 12,-94.03125 c -4.971633,0 -9.03125,4.059617 -9.03125,9.03125 l 0,71 c 0,4.9716329 4.0596171,9.03125 9.03125,9.03125 l 72,0 c 4.971633,0 9.03125,-4.059617 9.03125,-9.03125 l 0,-71 c 0,-4.971633 -4.059617,-9.03125 -9.03125,-9.03125 l -72,0 z"
       transform="scale(1,-1)"
       id="path3778"
       style="opacity:0.1;fill:url(#linearGradient3780);fill-opacity:1;fill-rule:nonzero;stroke:none;display:inline" />
    <path
       d="m 12,-93 c -4.4091333,0 -8,3.590867 -8,8 l 0,71 c 0,4.4091333 3.5908667,8 8,8 l 72,0 c 4.409133,0 8,-3.5908667 8,-8 l 0,-71 c 0,-4.409133 -3.590867,-8 -8,-8 l -72,0 z"
       transform="scale(1,-1)"
       id="path3770"
       style="opacity:0.2;fill:url(#linearGradient3772);fill-opacity:1;fill-rule:nonzero;stroke:none;display:inline" />
    <rect
       width="86"
       height="85"
       rx="7"
       ry="7"
       x="5"
       y="-92"
       transform="scale(1,-1)"
       id="rect3723"
       style="opacity:0.3;fill:url(#linearGradient3725);fill-opacity:1;fill-rule:nonzero;stroke:none;display:inline" />
    <rect
       width="84"
       height="84"
       rx="6"
       ry="6"
       x="6"
       y="-91"
       transform="scale(1,-1)"
       id="rect3716"
       style="opacity:0.45;fill:url(#linearGradient3721);fill-opacity:1;fill-rule:nonzero;stroke:none;display:inline" />
  </g>
  <g
     id="layer1">
    <rect
       width="84"
       height="84"
       rx="6"
       ry="6"
       x="6"
       y="6"
       id="rect2419"
       style="fill:url(#linearGradient3617);fill-opacity:1;fill-rule:nonzero;stroke:none" />
    <path
       d="M 90,48 90,12 C 90,8.676 87.324,6 84,6 l -36,0 0,42 42,0 z"
       inkscape:connector-curvature="0"
       id="path3684"
       style="fill:url(#linearGradient3686);fill-opacity:1;fill-rule:nonzero;stroke:none" />
    <path
       d="M 6,48 6,12 C 6,8.676 8.676,6 12,6 l 36,0 0,42 -42,0 z"
       inkscape:connector-curvature="0"
       id="path3668"
       style="fill:url(#linearGradient3670);fill-opacity:1;fill-rule:nonzero;stroke:none" />
    <path
       d="m 6,48 0,36 c 0,3.324 2.676,6 6,6 l 36,0 0,-42 -42,0 z"
       inkscape:connector-curvature="0"
       id="rect3643"
       style="fill:url(#linearGradient3656);fill-opacity:1;fill-rule:nonzero;stroke:none" />
    <path
       style="opacity:0.5;fill:url(#linearGradient3188);fill-opacity:1;fill-rule:nonzero;stroke:none"
       d="M 12,6 C 8.11425,5.86322 5.41842,9.7916 6,13.4226 6.01818,37.1117 5.96366,60.8028 6.02722,84.4906 5.28212,86.832 10.5383,90.304 9.3125,89.2188 6.06854,87.1931 7.20932,83.0939 7,79.9177 7.01709,57.4405 6.96584,34.9616 7.02559,12.4854 7.23709,9.18494 10.6966,7.53688 13.6597,8 c 23.6181,0.0171 47.2379,-0.0342 70.8549,0.0256 3.3005,0.2115 4.9485,3.67101 4.4854,6.63411 -0.023,23.6263 0.047,47.2557 -0.035,70.8801 0.6394,2.1759 -4.9496,5.3488 -1.4521,3.2816 C 91.0463,86.3401 89.75,81.8397 90,78.2064 89.9794,55.9328 90.0412,33.6571 89.9691,11.3848 89.7161,7.60949 85.8108,5.47598 82.3403,6 58.8935,6 35.4468,6 12,6 Z"
       id="rect3728"
       inkscape:connector-curvature="0" />
    <path
       d="m 90,48 0,36 c 0,3.324 -2.676,6 -6,6 l -36,0 0,-42 42,0 z"
       inkscape:connector-curvature="0"
       id="path3664"
       style="fill:url(#linearGradient3666);fill-opacity:1;fill-rule:nonzero;stroke:none" />
    <path
       style="opacity:0.2;fill:url(#radialGradient3619);fill-opacity:1;fill-rule:nonzero;stroke:none"
       d="M 12,90 C 8.11425,90.1368 5.41842,86.2084 6,82.5774 6.01818,58.8883 5.96366,35.1972 6.02722,11.5094 5.28212,9.16796 10.5383,5.696 9.3125,6.78125 6.06854,8.80692 7.20932,12.9061 7,16.0823 c 0.0171,22.4772 -0.0342,44.9561 0.0256,67.4323 0.2115,3.3005 3.67101,4.9485 6.63411,4.4854 23.6181,-0.017 47.2379,0.034 70.8549,-0.026 C 87.8151,87.7629 89.4631,84.3034 89,81.3403 88.9765,57.714 89.0469,34.0846 88.9648,10.4602 89.6042,8.28431 84.0152,5.11138 87.5127,7.17856 91.0463,9.65991 89.75,14.1603 90,17.7936 89.9794,40.0672 90.0412,62.3429 89.9691,84.6152 89.7161,88.3905 85.8108,90.524 82.3403,90 58.8935,90 35.4468,90 12,90 Z"
       id="path3615"
       inkscape:connector-curvature="0" />
    <rect
       width="64"
       height="64"
       rx="5.818182"
       ry="5.818182"
       x="14"
       y="-80"
       transform="matrix(0,1,-1,0,0,0)"
       id="rect3620"
       style="fill:url(#linearGradient3628);fill-opacity:1;fill-rule:nonzero;stroke:none" />
    <path
       d="M 21.8125,14 C 18.589227,14 16,16.589227 16,19.8125 l 0,52.375 C 16,75.410773 18.589227,78 21.8125,78 l 52.375,0 C 77.410773,78 80,75.410773 80,72.1875 l 0,-52.375 C 80,16.589227 77.410773,14 74.1875,14 l -52.375,0 z M 23,16 73,16 c 2.77,0 5,2.23 5,5 l 0,50 c 0,2.77 -2.23,5 -5,5 l -50,0 c -2.77,0 -5,-2.23 -5,-5 l 0,-50 c 0,-2.77 2.23,-5 5,-5 z"
       inkscape:connector-curvature="0"
       id="rect3630"
       style="fill:url(#linearGradient3641);fill-opacity:1;fill-rule:nonzero;stroke:none" />
    <g
       id="text3688"
       style="font-size:51.59928131px;font-style:normal;font-variant:normal;font-weight:normal;font-stretch:normal;text-align:start;line-height:125%;writing-mode:lr-tb;text-anchor:start;opacity:0.9;fill:#000000;fill-opacity:1;stroke:none;font-family:DejaVu Sans;-inkscape-font-specification:DejaVu Sans">
      <path
         d="m 50.6707,53.0846 c -3.7457,0 -6.3408,0.4283 -7.7853,1.2849 -1.4445,0.8567 -2.1668,2.318 -2.1667,4.384 -10e-5,1.646 0.5374,2.9562 1.6124,3.9304 1.0918,0.9574 2.5699,1.4361 4.4343,1.4361 2.5699,0 4.6275,-0.907 6.1728,-2.7211 1.9286,-2.9073 2.3431,-5.3364 2.3431,-8.3143 h -4.6106 m 9.2465,-1.9148 v 16.0995 h -4.6359 v -4.2831 c -1.0582,1.7133 -2.3767,2.9814 -3.9556,3.8044 C 49.7468,67.5969 47.8152,68 45.5309,68 c -2.889,0 -5.1902,-0.8062 -6.9034,-2.4187 -1.6965,-1.6293 -2.5447,-3.8044 -2.5447,-6.5255 0,-3.1746 1.0582,-5.5681 3.1745,-7.1806 2.1332,-1.6124 5.3078,-2.4187 9.5237,-2.4187 h 6.5003 c -0.067,-2.9034 -0.8125,-4.2823 -2.1163,-5.3917 -1.3942,-1.1758 -3.3594,-1.7636 -5.8957,-1.7637 -3.2865,0.044 -6.4514,0.8726 -9.1205,2.318 v -4.2832 c 3.168,-1.1768 6.4382,-1.9516 9.5993,-1.9652 4.0815,1e-4 7.1301,1.0582 9.1457,3.1746 2.0156,2.1164 3.0234,5.3245 3.0234,9.6245 M 44.2963,26 l 7.105,9.4229 H 47.5465 L 39.3329,26 h 4.9634"
         inkscape:connector-curvature="0"
         id="path3693"
         sodipodi:nodetypes="csscsccccccccscscsccccccccccccc" />
    </g>
  </g>
  <g
     id="layer5"
     style="display:inline">
    <rect
       width="66"
       height="66"
       rx="12"
       ry="12"
       x="15"
       y="15"
       clip-path="url(#clipPath3613)"
       id="rect3171"
       style="opacity:0.1;fill:url(#linearGradient3613);fill-opacity:1;fill-rule:nonzero;stroke:#ffffff;stroke-width:0.5;stroke-linecap:round;stroke-linejoin:miter;stroke-miterlimit:4;stroke-opacity:1;stroke-dasharray:none;stroke-dashoffset:0;filter:url(#filter3794)" />
  </g>
</svg>
