<?xml version="1.0" encoding="UTF-8" standalone="no"?>
<!-- Created with Inkscape (http://www.inkscape.org/) -->

<svg
   xmlns:dc="http://purl.org/dc/elements/1.1/"
   xmlns:cc="http://creativecommons.org/ns#"
   xmlns:rdf="http://www.w3.org/1999/02/22-rdf-syntax-ns#"
   xmlns:svg="http://www.w3.org/2000/svg"
   xmlns="http://www.w3.org/2000/svg"
   xmlns:xlink="http://www.w3.org/1999/xlink"
   xmlns:sodipodi="http://sodipodi.sourceforge.net/DTD/sodipodi-0.dtd"
   xmlns:inkscape="http://www.inkscape.org/namespaces/inkscape"
   version="1.0"
   width="96"
   height="96"
   id="svg2408"
   inkscape:version="0.91 r"
   sodipodi:docname="access.svg">
  <title
     id="title64">access</title>
  <sodipodi:namedview
     pagecolor="#ffffff"
     bordercolor="#666666"
     borderopacity="1"
     objecttolerance="10"
     gridtolerance="10"
     guidetolerance="10"
     inkscape:pageopacity="0"
     inkscape:pageshadow="2"
     inkscape:window-width="1280"
     inkscape:window-height="965"
     id="namedview62"
     showgrid="false"
     inkscape:zoom="8"
     inkscape:cx="57.9269"
     inkscape:cy="62.0339"
     inkscape:window-x="0"
     inkscape:window-y="27"
     inkscape:window-maximized="1"
     inkscape:current-layer="svg2408" />
  <defs
     id="defs2410">
    <linearGradient
       id="ButtonColor">
      <stop
         id="stop3189"
         style="stop-color:#1d5282;stop-opacity:1"
         offset="0" />
      <stop
         id="stop3191"
         style="stop-color:#568ec2;stop-opacity:1"
         offset="1" />
    </linearGradient>
    <linearGradient
       x1="45.447727"
       y1="92.539597"
       x2="45.447727"
       y2="7.0165396"
       id="ButtonShadow"
       gradientUnits="userSpaceOnUse"
       gradientTransform="scale(1.0058652,0.994169)">
      <stop
         id="stop3750"
         style="stop-color:#000000;stop-opacity:1"
         offset="0" />
      <stop
         id="stop3752"
         style="stop-color:#000000;stop-opacity:0.58823532"
         offset="1" />
    </linearGradient>
    <linearGradient
       id="linearGradient3737">
      <stop
         id="stop3739"
         style="stop-color:#ffffff;stop-opacity:1"
         offset="0" />
      <stop
         id="stop3741"
         style="stop-color:#ffffff;stop-opacity:0"
         offset="1" />
    </linearGradient>
    <linearGradient
       x1="48"
       y1="90"
       x2="48"
       y2="5.9877172"
       id="linearGradient3706"
       xlink:href="#ButtonColor"
       gradientUnits="userSpaceOnUse" />
    <filter
       color-interpolation-filters="sRGB"
       id="filter3218">
      <feGaussianBlur
         id="feGaussianBlur3220"
         stdDeviation="1.71" />
    </filter>
    <linearGradient
       x1="124.39286"
       y1="6"
       x2="124.39286"
       y2="63.606895"
       id="linearGradient3230"
       xlink:href="#linearGradient3737"
       gradientUnits="userSpaceOnUse"
       gradientTransform="translate(-100,0)" />
    <linearGradient
       id="linearGradient3737-6">
      <stop
         id="stop3739-6"
         style="stop-color:#ffffff;stop-opacity:1"
         offset="0" />
      <stop
         id="stop3741-4"
         style="stop-color:#ffffff;stop-opacity:0"
         offset="1" />
    </linearGradient>
    <radialGradient
       cx="48"
       cy="90.171875"
       r="42"
       fx="48"
       fy="90.171875"
       id="radialGradient2874"
       xlink:href="#linearGradient3737-6"
       gradientUnits="userSpaceOnUse"
       gradientTransform="matrix(1.15731,0,0,0.995908,-7.55102,0.197132)" />
    <linearGradient
       id="linearGradient3737-2">
      <stop
         id="stop3739-5"
         style="stop-color:#ffffff;stop-opacity:1"
         offset="0" />
      <stop
         id="stop3741-8"
         style="stop-color:#ffffff;stop-opacity:0"
         offset="1" />
    </linearGradient>
    <clipPath
       id="clipPath3613">
      <rect
         width="84"
         height="84"
         rx="6"
         ry="6"
         x="6"
         y="6"
         id="rect3615"
         style="fill:#ffffff;fill-opacity:1;fill-rule:nonzero;stroke:none" />
    </clipPath>
    <filter
       x="-0.192"
       y="-0.192"
       width="1.3839999"
       height="1.3839999"
       color-interpolation-filters="sRGB"
       id="filter3794">
      <feGaussianBlur
         id="feGaussianBlur3796"
         stdDeviation="5.28" />
    </filter>
    <linearGradient
       x1="48"
       y1="20.220806"
       x2="48"
       y2="138.66119"
       id="linearGradient2908"
       xlink:href="#linearGradient3737-2"
       gradientUnits="userSpaceOnUse" />
    <linearGradient
       x1="45.447727"
       y1="92.539597"
       x2="45.447727"
       y2="7.0165396"
       id="ButtonShadow-0"
       gradientUnits="userSpaceOnUse"
       gradientTransform="matrix(1.0058652,0,0,0.994169,100,0)">
      <stop
         id="stop3750-8"
         style="stop-color:#000000;stop-opacity:1"
         offset="0" />
      <stop
         id="stop3752-5"
         style="stop-color:#000000;stop-opacity:0.58823532"
         offset="1" />
    </linearGradient>
    <linearGradient
       x1="32.251034"
       y1="6.1317081"
       x2="32.251034"
       y2="90.238609"
       id="linearGradient3780"
       xlink:href="#ButtonShadow-0"
       gradientUnits="userSpaceOnUse"
       gradientTransform="matrix(1.0238095,0,0,1.0119048,-1.1428571,-98.071429)" />
    <linearGradient
       x1="32.251034"
       y1="6.1317081"
       x2="32.251034"
       y2="90.238609"
       id="linearGradient3772"
       xlink:href="#ButtonShadow-0"
       gradientUnits="userSpaceOnUse"
       gradientTransform="matrix(1.0238095,0,0,1.0119048,-1.1428571,-98.071429)" />
    <linearGradient
       x1="32.251034"
       y1="6.1317081"
       x2="32.251034"
       y2="90.238609"
       id="linearGradient3725"
       xlink:href="#ButtonShadow-0"
       gradientUnits="userSpaceOnUse"
       gradientTransform="matrix(1.0238095,0,0,1.0119048,-1.1428571,-98.071429)" />
    <linearGradient
       x1="32.251034"
       y1="6.1317081"
       x2="32.251034"
       y2="90.238609"
       id="linearGradient3721"
       xlink:href="#ButtonShadow-0"
       gradientUnits="userSpaceOnUse"
       gradientTransform="translate(0,-97)" />
    <linearGradient
       x1="32.251034"
       y1="6.1317081"
       x2="32.251034"
       y2="90.238609"
       id="linearGradient3071"
       xlink:href="#ButtonShadow-0"
       gradientUnits="userSpaceOnUse"
       gradientTransform="matrix(1.0238095,0,0,1.0119048,-1.1428571,-98.071429)" />
  </defs>
  <metadata
     id="metadata2413">
    <rdf:RDF>
      <cc:Work
         rdf:about="">
        <dc:format>image/svg+xml</dc:format>
        <dc:type
           rdf:resource="http://purl.org/dc/dcmitype/StillImage" />
        <dc:title>access</dc:title>
        <dc:subject>
          <rdf:Bag>
            <rdf:li>access</rdf:li>
          </rdf:Bag>
        </dc:subject>
        <dc:description>access</dc:description>
      </cc:Work>
    </rdf:RDF>
  </metadata>
  <g
     id="layer2"
     style="display:none">
    <rect
       width="86"
       height="85"
       rx="7"
       ry="7"
       x="5"
       y="7"
       id="rect3745"
       style="opacity:0.9;fill:url(#ButtonShadow);fill-opacity:1;fill-rule:nonzero;stroke:none;filter:url(#filter3218)" />
  </g>
  <g
     id="layer5"
     style="display:inline">
    <path
       d="m 12,-95.03125 c -5.5110903,0 -10.03125,4.52016 -10.03125,10.03125 l 0,71 c 0,5.5110902 4.5201598,10.03125 10.03125,10.03125 l 72,0 c 5.51109,0 10.03125,-4.5201597 10.03125,-10.03125 l 0,-71 c 0,-5.51109 -4.52016,-10.03125 -10.03125,-10.03125 l -72,0 z"
       transform="scale(1,-1)"
       id="path3786"
       style="opacity:0.07999998;fill:url(#linearGradient3071);fill-opacity:1;fill-rule:nonzero;stroke:none;display:inline" />
    <path
       d="m 12,-94.03125 c -4.971633,0 -9.03125,4.059617 -9.03125,9.03125 l 0,71 c 0,4.9716329 4.0596171,9.03125 9.03125,9.03125 l 72,0 c 4.971633,0 9.03125,-4.059617 9.03125,-9.03125 l 0,-71 c 0,-4.971633 -4.059617,-9.03125 -9.03125,-9.03125 l -72,0 z"
       transform="scale(1,-1)"
       id="path3778"
       style="opacity:0.1;fill:url(#linearGradient3780);fill-opacity:1;fill-rule:nonzero;stroke:none;display:inline" />
    <path
       d="m 12,-93 c -4.4091333,0 -8,3.590867 -8,8 l 0,71 c 0,4.4091333 3.5908667,8 8,8 l 72,0 c 4.409133,0 8,-3.5908667 8,-8 l 0,-71 c 0,-4.409133 -3.590867,-8 -8,-8 l -72,0 z"
       transform="scale(1,-1)"
       id="path3770"
       style="opacity:0.2;fill:url(#linearGradient3772);fill-opacity:1;fill-rule:nonzero;stroke:none;display:inline" />
    <rect
       width="86"
       height="85"
       rx="7"
       ry="7"
       x="5"
       y="-92"
       transform="scale(1,-1)"
       id="rect3723"
       style="opacity:0.3;fill:url(#linearGradient3725);fill-opacity:1;fill-rule:nonzero;stroke:none;display:inline" />
    <rect
       width="84"
       height="84"
       rx="6"
       ry="6"
       x="6"
       y="-91"
       transform="scale(1,-1)"
       id="rect3716"
       style="opacity:0.45;fill:url(#linearGradient3721);fill-opacity:1;fill-rule:nonzero;stroke:none;display:inline" />
  </g>
  <g
     id="layer1">
    <rect
       width="84"
       height="84"
       rx="6"
       ry="6"
       x="6"
       y="6"
       id="rect2419"
       style="fill:url(#linearGradient3706);fill-opacity:1;fill-rule:nonzero;stroke:none" />
    <path
       d="M 12,6 C 8.676,6 6,8.676 6,12 l 0,2 0,68 0,2 c 0,3.324 2.676,6 6,6 l 2,0 68,0 2,0 c 3.324,0 6,-2.676 6,-6 l 0,-2 0,-68 0,-2 C 90,8.676 87.324,6 84,6 L 82,6 14,6 12,6 z m 4,6 64,0 c 2.216,0 4,1.784 4,4 l 0,64 c 0,2.216 -1.784,4 -4,4 l -64,0 c -2.216,0 -4,-1.784 -4,-4 l 0,-64 c 0,-2.216 1.784,-4 4,-4 z"
       inkscape:connector-curvature="0"
       id="rect3312"
       style="opacity:0.7;fill:#ffffff;fill-opacity:1;fill-rule:nonzero;stroke:none" />
    <path
       d="M 12,6 C 8.676,6 6,8.676 6,12 l 0,72 c 0,2.677766 1.7440348,4.881826 4.15625,5.65625 C 8.2956908,88.928428 7,87.129852 7,85 L 7,13 C 7,10.218152 9.2181517,8 12,8 l 72,0 c 2.781848,0 5,2.218152 5,5 l 0,72 c 0,2.129852 -1.295691,3.928428 -3.15625,4.65625 C 88.255965,88.881826 90,86.677766 90,84 L 90,12 C 90,8.676 87.324,6 84,6 L 12,6 z"
       inkscape:connector-curvature="0"
       id="rect3728"
       style="opacity:0.5;fill:url(#linearGradient3230);fill-opacity:1;fill-rule:nonzero;stroke:none" />
    <path
       style="opacity:0.4;fill:url(#radialGradient2874);fill-opacity:1;fill-rule:nonzero;stroke:none"
       d="M 12,90 C 8.11425,90.1368 5.41842,86.2084 6,82.5774 6.01818,58.8883 5.96366,35.1972 6.02722,11.5094 5.28212,9.16796 10.5383,5.696 9.3125,6.78125 6.06854,8.80692 7.20932,12.9061 7,16.0823 c 0.0171,22.4772 -0.0342,44.9561 0.0256,67.4323 0.2115,3.3005 3.67101,4.9485 6.63411,4.4854 23.6181,-0.017 47.2379,0.034 70.8549,-0.026 C 87.8151,87.7629 89.4631,84.3034 89,81.3403 88.9765,57.714 89.0469,34.0846 88.9648,10.4602 89.6042,8.28431 84.0152,5.11138 87.5127,7.17856 91.0463,9.65991 89.75,14.1603 90,17.7936 89.9794,40.0672 90.0412,62.3429 89.9691,84.6152 89.7161,88.3905 85.8108,90.524 82.3403,90 58.8935,90 35.4468,90 12,90 Z"
       id="path3615"
       inkscape:connector-curvature="0" />
    <g
       transform="translate(100,0)"
       id="g3716">
      <path
         d="m -84,12 c -2.216,0 -4,1.784 -4,4 l 0,64 c 0,2.216 1.784,4 4,4 l 64,0 c 2.216,0 4,-1.784 4,-4 l 0,-64 c 0,-2.216 -1.784,-4 -4,-4 l -64,0 z m 0,3.03125 64,0 c 0.587885,0 0.96875,0.380865 0.96875,0.96875 l 0,64 c 0,0.587885 -0.380865,0.96875 -0.96875,0.96875 l -64,0 c -0.587885,0 -0.96875,-0.380865 -0.96875,-0.96875 l 0,-64 c 0,-0.587885 0.380865,-0.96875 0.96875,-0.96875 z"
         inkscape:connector-curvature="0"
         id="path3703"
         style="opacity:0.05;fill:#1a3854;fill-opacity:1;fill-rule:nonzero;stroke:none" />
      <path
         d="m -84,12 c -2.216,0 -4,1.784 -4,4 l 0,64 c 0,2.216 1.784,4 4,4 l 64,0 c 2.216,0 4,-1.784 4,-4 l 0,-64 c 0,-2.216 -1.784,-4 -4,-4 l -64,0 z m 0,1.9375 64,0 c 1.172336,0 2.0625,0.890164 2.0625,2.0625 l 0,64 c 0,1.172336 -0.890164,2.0625 -2.0625,2.0625 l -64,0 c -1.172336,0 -2.0625,-0.890164 -2.0625,-2.0625 l 0,-64 c 0,-1.172336 0.890164,-2.0625 2.0625,-2.0625 z"
         inkscape:connector-curvature="0"
         id="path3662"
         style="opacity:0.1;fill:#1a3854;fill-opacity:1;fill-rule:nonzero;stroke:none" />
      <path
         d="m -84,12 c -2.216,0 -4,1.784 -4,4 l 0,64 c 0,2.216 1.784,4 4,4 l 64,0 c 2.216,0 4,-1.784 4,-4 l 0,-64 c 0,-2.216 -1.784,-4 -4,-4 l -64,0 z m 0,1.03125 64,0 c 1.664921,0 2.96875,1.303829 2.96875,2.96875 l 0,64 c 0,1.664921 -1.303829,2.96875 -2.96875,2.96875 l -64,0 c -1.664921,0 -2.96875,-1.303829 -2.96875,-2.96875 l 0,-64 c 0,-1.664921 1.303829,-2.96875 2.96875,-2.96875 z"
         inkscape:connector-curvature="0"
         id="path3636"
         style="opacity:0.22000002;fill:#1a3854;fill-opacity:1;fill-rule:nonzero;stroke:none" />
    </g>
  </g>
  <g
     id="layer3">
    <rect
       width="66"
       height="66"
       rx="12"
       ry="12"
       x="15"
       y="15"
       clip-path="url(#clipPath3613)"
       id="rect3171"
       style="opacity:0.1;fill:url(#linearGradient2908);fill-opacity:1;fill-rule:nonzero;stroke:#ffffff;stroke-width:0.5;stroke-linecap:round;stroke-linejoin:miter;stroke-miterlimit:4;stroke-opacity:1;stroke-dasharray:none;stroke-dashoffset:0;filter:url(#filter3794)" />
  </g>
  <g
     id="layer4">
    <path
       d="m 48.2813,19.125 c -4.4966,0 -8.125,3.7536 -8.125,8.2813 0,4.5276 3.6284,8.2812 8.125,8.2812 4.4956,0 8.1562,-3.7439 8.1562,-8.2812 0,-4.5374 -3.6606,-8.2813 -8.1562,-8.2813 z M 21.8438,36 c 0.2398,1.5668 1.1287,2.9814 2.3435,3.374 l 15.375,4.9688 -0.094,10.7812 -5.8125,18.3438 c -0.4613,2.4702 -0.079,4.1465 1.8539,4.8559 1.9114,0.529 3.7312,0.3394 4.7079,-1.4189 C 42.7886,71.4123 45.4025,65.9234 48,60.4375 l 7.625,16.4063 c 1.2324,2.1846 3.4002,2.5091 5.1862,1.5312 1.7875,-0.9787 2.1682,-2.647 1.5313,-4.6562 L 56.655,55.375 l 0,-0.062 -0.031,-10.6562 15.4375,-5.3438 c 1.5782,-0.5463 2.4815,-3.2068 1.844,-4.5927 -1.2317,-2.1847 -2.3697,-2.5541 -4.8433,-2.156 L 48,36.0938 27,32.4063 C 24.5464,31.9252 21.5496,33.5683 21.8438,36 Z"
       id="path3648"
       style="display:inline;opacity:0.08;fill:#000000;fill-opacity:1;stroke:none"
       inkscape:connector-curvature="0"
       sodipodi:nodetypes="ssssscscccccccsccccsccccc" />
    <path
       d="m 48.2813,20.0313 c -4.003,0 -7.2188,3.3193 -7.2188,7.375 0,4.0556 3.2158,7.375 7.2188,7.375 4.0029,0 7.25,-3.3136 7.25,-7.375 0,-4.0615 -3.2471,-7.375 -7.25,-7.375 z M 25.6875,33.125 c -0.4327,-0.01 -0.8979,0.077 -1.375,0.3125 -0.9988,0.4923 -1.5493,1.4968 -1.5625,2.5625 -0.013,1.1034 0.65,2.0071 1.5313,2.4688 0.05,0.025 0.1024,0.046 0.1562,0.062 l 16.0313,5.1875 -0.094,11.5 -5.875,18.5312 c -0.5755,1.8084 -0.2315,3.0372 0.8745,3.6247 1.6869,0.896 3.2035,0.3518 4.0308,-0.8437 L 48,58.3125 56.4375,76.4688 c 0.9629,1.5334 2.7438,1.7593 3.9375,1.125 1.3596,-0.7224 1.7965,-1.9757 1.125,-3.625 L 55.75,55.375 55.7188,44.0313 71.7813,38.4688 c 1.3337,-0.4619 1.8335,-2.4352 1.2812,-3.4375 -0.9544,-1.732 -1.7921,-2.0221 -3.8434,-1.5938 L 48,37 26.8438,33.2813 c -0.3336,-0.059 -0.7236,-0.1494 -1.1563,-0.1563 z"
       id="path3644"
       style="display:inline;opacity:0.15;fill:#000000;fill-opacity:1;stroke:none"
       inkscape:connector-curvature="0"
       sodipodi:nodetypes="ssssscsccccccscccscccsscccc" />
    <path
       d="m 54.5657,27.4124 c 0,3.5397 -2.8086,6.4125 -6.2691,6.4125 -3.4605,0 -6.2691,-2.8728 -6.2691,-6.4125 0,-3.5396 2.8086,-6.4124 6.2691,-6.4124 3.4605,0 6.2691,2.8728 6.2691,6.4124 z m 14.8205,6.9948 -21.3869,3.5807 -21.299,-3.735 c -2.7388,-0.4803 -3.3199,2.8179 -1.4399,3.5463 L 41.4503,43.0116 41.3362,55.444 35.447,74.0636 c -0.5516,1.5509 -0.3943,1.9367 0.4564,2.5019 0.8508,0.5654 2.0573,0.3931 2.6246,-0.4548 l 9.504,-20.098 9.3245,20.0632 c 0.5042,0.8795 1.5479,1.0981 2.5105,0.6825 0.9705,-0.4191 1.1498,-1.279 0.6846,-2.5021 l -5.7798,-18.6997 -0.01,-12.2542 15.4003,-5.2978 c 2.7534,-0.9472 1.4686,-3.9732 -0.7759,-3.5974 z"
       inkscape:connector-curvature="0"
       id="path2868"
       style="display:inline;opacity:0.4;fill:#000000;fill-opacity:1;stroke:none"
       sodipodi:nodetypes="sssssscsccccccccscccss" />
    <path
       d="m 54.5657,26.4124 c 0,3.5397 -2.8086,6.4125 -6.2691,6.4125 -3.4605,0 -6.2691,-2.8728 -6.2691,-6.4125 0,-3.5396 2.8086,-6.4124 6.2691,-6.4124 3.4605,0 6.2691,2.8728 6.2691,6.4124 z m 14.8205,6.9948 -21.3869,3.5807 -21.299,-3.735 c -0.6752,-0.1185 -1.3246,-0.2586 -1.9399,0.045 -0.6152,0.3032 -1.0185,1.022 -1.027,1.7059 -0.01,0.6841 0.4195,1.274 1.027,1.5923 L 41.4503,42.0116 41.3362,54.444 35.447,73.0636 c -0.5125,1.3165 -0.3943,1.9367 0.4564,2.5019 0.8508,0.5654 2.112,0.4322 2.6246,-0.4548 l 9.504,-20.098 9.3245,20.0632 c 0.5042,0.8795 1.6281,1.185 2.5105,0.6825 0.8823,-0.5025 1.1732,-1.193 0.6846,-2.5021 l -5.7798,-18.6997 -0.01,-12.2542 16.704,-5.7729 c 0.6838,-0.478 1.013,-1.3957 0.6847,-2.1609 -0.5312,-1.238 -1.5899,-1.2174 -2.7643,-0.9614 z"
       inkscape:connector-curvature="0"
       id="path6668"
       style="display:inline;fill:#ffffff;fill-opacity:1;stroke:none"
       sodipodi:nodetypes="sssssccssccccccccccccccsc" />
  </g>
</svg>
