<?xml version="1.0" encoding="UTF-8" standalone="no"?>
<!-- Created with Inkscape (http://www.inkscape.org/) -->

<svg
   xmlns:dc="http://purl.org/dc/elements/1.1/"
   xmlns:cc="http://creativecommons.org/ns#"
   xmlns:rdf="http://www.w3.org/1999/02/22-rdf-syntax-ns#"
   xmlns:svg="http://www.w3.org/2000/svg"
   xmlns="http://www.w3.org/2000/svg"
   xmlns:xlink="http://www.w3.org/1999/xlink"
   xmlns:sodipodi="http://sodipodi.sourceforge.net/DTD/sodipodi-0.dtd"
   xmlns:inkscape="http://www.inkscape.org/namespaces/inkscape"
   version="1.0"
   width="96"
   height="96"
   id="svg2408"
   inkscape:version="0.92+devel (unknown)"
   sodipodi:docname="accessories-dictionary.svg">
  <title
     id="title120">accessories-dictionary</title>
  <sodipodi:namedview
     pagecolor="#ffffff"
     bordercolor="#666666"
     borderopacity="1"
     objecttolerance="10"
     gridtolerance="10"
     guidetolerance="10"
     inkscape:pageopacity="0"
     inkscape:pageshadow="2"
     inkscape:window-width="1280"
     inkscape:window-height="965"
     id="namedview116"
     showgrid="false"
     inkscape:zoom="45.2548"
     inkscape:cx="52.6155"
     inkscape:cy="43.4842"
     inkscape:window-x="0"
     inkscape:window-y="29"
     inkscape:window-maximized="1"
     inkscape:current-layer="svg2408"
     inkscape:document-rotation="0" />
  <defs
     id="defs2410">
    <linearGradient
       id="linearGradient3914">
      <stop
         id="stop3916"
         style="stop-color:#9f7043;stop-opacity:1"
         offset="0" />
      <stop
         id="stop3918"
         style="stop-color:#9f7043;stop-opacity:0.53488374"
         offset="1" />
    </linearGradient>
    <linearGradient
       x1="45.447727"
       y1="92.539597"
       x2="45.447727"
       y2="7.0165396"
       id="ButtonShadow"
       gradientUnits="userSpaceOnUse"
       gradientTransform="scale(1.0058652,0.994169)">
      <stop
         id="stop3750"
         style="stop-color:#000000;stop-opacity:1"
         offset="0" />
      <stop
         id="stop3752"
         style="stop-color:#000000;stop-opacity:0.58823532"
         offset="1" />
    </linearGradient>
    <linearGradient
       id="linearGradient3737">
      <stop
         id="stop3739"
         style="stop-color:#ffffff;stop-opacity:1"
         offset="0" />
      <stop
         id="stop3741"
         style="stop-color:#ffffff;stop-opacity:0"
         offset="1" />
    </linearGradient>
    <filter
       color-interpolation-filters="sRGB"
       id="filter3174">
      <feGaussianBlur
         id="feGaussianBlur3176"
         stdDeviation="1.71" />
    </filter>
    <linearGradient
       x1="36.357143"
       y1="6"
       x2="36.357143"
       y2="63.893143"
       id="linearGradient3188"
       xlink:href="#linearGradient3737"
       gradientUnits="userSpaceOnUse" />
    <filter
       x="-0.192"
       y="-0.192"
       width="1.3839999"
       height="1.3839999"
       color-interpolation-filters="sRGB"
       id="filter3794">
      <feGaussianBlur
         id="feGaussianBlur3796"
         stdDeviation="5.28" />
    </filter>
    <linearGradient
       x1="48"
       y1="20.220806"
       x2="48"
       y2="138.66119"
       id="linearGradient3613"
       xlink:href="#linearGradient3737"
       gradientUnits="userSpaceOnUse" />
    <radialGradient
       cx="48"
       cy="90.171875"
       r="42"
       fx="48"
       fy="90.171875"
       id="radialGradient3619"
       xlink:href="#linearGradient3737"
       gradientUnits="userSpaceOnUse"
       gradientTransform="matrix(1.15731,0,0,0.995908,-7.55102,0.197132)" />
    <clipPath
       id="clipPath3613">
      <rect
         width="84"
         height="84"
         rx="6"
         ry="6"
         x="6"
         y="6"
         id="rect3615"
         style="fill:#ffffff;fill-opacity:1;fill-rule:nonzero;stroke:none" />
    </clipPath>
    <linearGradient
       x1="48"
       y1="90"
       x2="48"
       y2="5.9877172"
       id="linearGradient3617"
       xlink:href="#ButtonColor"
       gradientUnits="userSpaceOnUse" />
    <linearGradient
       x1="58.650177"
       y1="122"
       x2="58.650177"
       y2="5.4252338"
       id="ButtonColor"
       gradientUnits="userSpaceOnUse"
       gradientTransform="matrix(1.0172414,0,0,1.0172414,-1.1034483,-1.1034483)">
      <stop
         id="stop3189"
         style="stop-color:#cda060;stop-opacity:1"
         offset="0" />
      <stop
         id="stop3191"
         style="stop-color:#dbbb8e;stop-opacity:1"
         offset="1" />
    </linearGradient>
    <linearGradient
       x1="5"
       y1="64"
       x2="11.227473"
       y2="64"
       id="linearGradient3300"
       xlink:href="#linearGradient3294"
       gradientUnits="userSpaceOnUse"
       gradientTransform="translate(1,-15.321429)" />
    <linearGradient
       id="linearGradient3294">
      <stop
         id="stop3296"
         style="stop-color:#72401f;stop-opacity:1"
         offset="0" />
      <stop
         id="stop3298"
         style="stop-color:#72401f;stop-opacity:0"
         offset="1" />
    </linearGradient>
    <linearGradient
       id="linearGradient3238">
      <stop
         id="stop3240"
         style="stop-color:#784421;stop-opacity:1"
         offset="0" />
      <stop
         id="stop3242"
         style="stop-color:#784421;stop-opacity:0"
         offset="1" />
    </linearGradient>
    <linearGradient
       id="linearGradient3250">
      <stop
         id="stop3252"
         style="stop-color:#c4875e;stop-opacity:1"
         offset="0" />
      <stop
         id="stop3254"
         style="stop-color:#c4875e;stop-opacity:0"
         offset="1" />
    </linearGradient>
    <linearGradient
       x1="45.447727"
       y1="92.539597"
       x2="45.447727"
       y2="7.0165396"
       id="ButtonShadow-0"
       gradientUnits="userSpaceOnUse"
       gradientTransform="matrix(1.0058652,0,0,0.994169,100,0)">
      <stop
         id="stop3750-8"
         style="stop-color:#000000;stop-opacity:1"
         offset="0" />
      <stop
         id="stop3752-5"
         style="stop-color:#000000;stop-opacity:0.58823532"
         offset="1" />
    </linearGradient>
    <linearGradient
       x1="32.251034"
       y1="6.1317081"
       x2="32.251034"
       y2="90.238609"
       id="linearGradient3780"
       xlink:href="#ButtonShadow-0"
       gradientUnits="userSpaceOnUse"
       gradientTransform="matrix(1.0238095,0,0,1.0119048,-1.1428571,-98.071429)" />
    <linearGradient
       x1="32.251034"
       y1="6.1317081"
       x2="32.251034"
       y2="90.238609"
       id="linearGradient3772"
       xlink:href="#ButtonShadow-0"
       gradientUnits="userSpaceOnUse"
       gradientTransform="matrix(1.0238095,0,0,1.0119048,-1.1428571,-98.071429)" />
    <linearGradient
       x1="32.251034"
       y1="6.1317081"
       x2="32.251034"
       y2="90.238609"
       id="linearGradient3725"
       xlink:href="#ButtonShadow-0"
       gradientUnits="userSpaceOnUse"
       gradientTransform="matrix(1.0238095,0,0,1.0119048,-1.1428571,-98.071429)" />
    <linearGradient
       x1="32.251034"
       y1="6.1317081"
       x2="32.251034"
       y2="90.238609"
       id="linearGradient3721"
       xlink:href="#ButtonShadow-0"
       gradientUnits="userSpaceOnUse"
       gradientTransform="translate(0,-97)" />
    <linearGradient
       x1="32.251034"
       y1="6.1317081"
       x2="32.251034"
       y2="90.238609"
       id="linearGradient2969"
       xlink:href="#ButtonShadow-0"
       gradientUnits="userSpaceOnUse"
       gradientTransform="matrix(1.0238095,0,0,1.0119048,-1.1428571,-98.071429)" />
    <linearGradient
       x1="32"
       y1="80"
       x2="16"
       y2="80"
       id="linearGradient4089"
       xlink:href="#linearGradient4075"
       gradientUnits="userSpaceOnUse" />
    <linearGradient
       id="linearGradient4075">
      <stop
         id="stop4077"
         style="stop-color:#ffffff;stop-opacity:1"
         offset="0" />
      <stop
         id="stop4079"
         style="stop-color:#ffffff;stop-opacity:0"
         offset="1" />
    </linearGradient>
    <linearGradient
       x1="40"
       y1="88"
       x2="40"
       y2="80"
       id="linearGradient3896"
       xlink:href="#linearGradient3890"
       gradientUnits="userSpaceOnUse" />
    <linearGradient
       id="linearGradient3890">
      <stop
         id="stop3892"
         style="stop-color:#ffffff;stop-opacity:1"
         offset="0" />
      <stop
         id="stop3898"
         style="stop-color:#eceadb;stop-opacity:1"
         offset="0.5" />
      <stop
         id="stop3894"
         style="stop-color:#d8d3a6;stop-opacity:1"
         offset="1" />
    </linearGradient>
    <linearGradient
       x1="88"
       y1="80"
       x2="88"
       y2="88"
       id="linearGradient3118"
       xlink:href="#linearGradient3914"
       gradientUnits="userSpaceOnUse" />
    <linearGradient
       x1="6"
       y1="67"
       x2="24"
       y2="67"
       id="linearGradient3979"
       xlink:href="#linearGradient3250"
       gradientUnits="userSpaceOnUse"
       gradientTransform="translate(0,-1)" />
    <linearGradient
       x1="6"
       y1="67"
       x2="24"
       y2="67"
       id="linearGradient3982"
       xlink:href="#linearGradient3250"
       gradientUnits="userSpaceOnUse"
       gradientTransform="translate(0,-2)" />
    <linearGradient
       x1="6"
       y1="67"
       x2="24"
       y2="67"
       id="linearGradient3984"
       xlink:href="#linearGradient3238"
       gradientUnits="userSpaceOnUse"
       gradientTransform="translate(0,1)" />
    <linearGradient
       x1="6"
       y1="67"
       x2="24"
       y2="67"
       id="linearGradient3986"
       xlink:href="#linearGradient3238"
       gradientUnits="userSpaceOnUse" />
    <linearGradient
       x1="6"
       y1="67"
       x2="24"
       y2="67"
       id="linearGradient4000"
       xlink:href="#linearGradient3250"
       gradientUnits="userSpaceOnUse"
       gradientTransform="translate(0,-1)" />
    <linearGradient
       x1="6"
       y1="67"
       x2="24"
       y2="67"
       id="linearGradient4002"
       xlink:href="#linearGradient3250"
       gradientUnits="userSpaceOnUse"
       gradientTransform="translate(0,-2)" />
    <linearGradient
       x1="6"
       y1="67"
       x2="24"
       y2="67"
       id="linearGradient4004"
       xlink:href="#linearGradient3238"
       gradientUnits="userSpaceOnUse"
       gradientTransform="translate(0,1)" />
    <linearGradient
       x1="6"
       y1="67"
       x2="24"
       y2="67"
       id="linearGradient4006"
       xlink:href="#linearGradient3238"
       gradientUnits="userSpaceOnUse" />
    <linearGradient
       x1="6"
       y1="67"
       x2="24"
       y2="67"
       id="linearGradient4020"
       xlink:href="#linearGradient3250"
       gradientUnits="userSpaceOnUse"
       gradientTransform="translate(0,-1)" />
    <linearGradient
       x1="6"
       y1="67"
       x2="24"
       y2="67"
       id="linearGradient4022"
       xlink:href="#linearGradient3250"
       gradientUnits="userSpaceOnUse"
       gradientTransform="translate(0,-2)" />
    <linearGradient
       x1="6"
       y1="67"
       x2="24"
       y2="67"
       id="linearGradient4024"
       xlink:href="#linearGradient3238"
       gradientUnits="userSpaceOnUse"
       gradientTransform="translate(0,1)" />
    <linearGradient
       x1="6"
       y1="67"
       x2="24"
       y2="67"
       id="linearGradient4026"
       xlink:href="#linearGradient3238"
       gradientUnits="userSpaceOnUse" />
  </defs>
  <metadata
     id="metadata2413">
    <rdf:RDF>
      <cc:Work
         rdf:about="">
        <dc:format>image/svg+xml</dc:format>
        <dc:type
           rdf:resource="http://purl.org/dc/dcmitype/StillImage" />
        <dc:title>accessories-dictionary</dc:title>
        <dc:subject>
          <rdf:Bag>
            <rdf:li>accessories</rdf:li>
            <rdf:li>dictionary</rdf:li>
          </rdf:Bag>
        </dc:subject>
        <dc:description>accessories, dictionary</dc:description>
      </cc:Work>
    </rdf:RDF>
  </metadata>
  <g
     id="layer2"
     style="display:none">
    <rect
       width="86"
       height="85"
       rx="6"
       ry="6"
       x="5"
       y="7"
       id="rect3745"
       style="opacity:0.9;fill:url(#ButtonShadow);fill-opacity:1;fill-rule:nonzero;stroke:none;filter:url(#filter3174)" />
  </g>
  <g
     id="layer3"
     style="display:inline">
    <path
       d="m 12,-95.03125 c -5.5110903,0 -10.03125,4.52016 -10.03125,10.03125 l 0,71 c 0,5.5110902 4.5201598,10.03125 10.03125,10.03125 l 72,0 c 5.51109,0 10.03125,-4.5201597 10.03125,-10.03125 l 0,-71 c 0,-5.51109 -4.52016,-10.03125 -10.03125,-10.03125 l -72,0 z"
       transform="scale(1,-1)"
       id="path3786"
       style="opacity:0.07999998;fill:url(#linearGradient2969);fill-opacity:1;fill-rule:nonzero;stroke:none;display:inline" />
    <path
       d="m 12,-94.03125 c -4.971633,0 -9.03125,4.059617 -9.03125,9.03125 l 0,71 c 0,4.9716329 4.0596171,9.03125 9.03125,9.03125 l 72,0 c 4.971633,0 9.03125,-4.059617 9.03125,-9.03125 l 0,-71 c 0,-4.971633 -4.059617,-9.03125 -9.03125,-9.03125 l -72,0 z"
       transform="scale(1,-1)"
       id="path3778"
       style="opacity:0.1;fill:url(#linearGradient3780);fill-opacity:1;fill-rule:nonzero;stroke:none;display:inline" />
    <path
       d="m 12,-93 c -4.4091333,0 -8,3.590867 -8,8 l 0,71 c 0,4.4091333 3.5908667,8 8,8 l 72,0 c 4.409133,0 8,-3.5908667 8,-8 l 0,-71 c 0,-4.409133 -3.590867,-8 -8,-8 l -72,0 z"
       transform="scale(1,-1)"
       id="path3770"
       style="opacity:0.2;fill:url(#linearGradient3772);fill-opacity:1;fill-rule:nonzero;stroke:none;display:inline" />
    <rect
       width="86"
       height="85"
       rx="7"
       ry="7"
       x="5"
       y="-92"
       transform="scale(1,-1)"
       id="rect3723"
       style="opacity:0.3;fill:url(#linearGradient3725);fill-opacity:1;fill-rule:nonzero;stroke:none;display:inline" />
    <rect
       width="84"
       height="84"
       rx="6"
       ry="6"
       x="6"
       y="-91"
       transform="scale(1,-1)"
       id="rect3716"
       style="opacity:0.45;fill:url(#linearGradient3721);fill-opacity:1;fill-rule:nonzero;stroke:none;display:inline" />
  </g>
  <g
     id="layer1">
    <rect
       width="74.121559"
       height="84"
       rx="6"
       ry="6"
       x="15.87842"
       y="6"
       id="rect2419"
       style="fill:url(#linearGradient3617);fill-opacity:1;fill-rule:nonzero;stroke:none" />
    <path
       d="M 12,6 C 8.676,6 6,8.676 6,12 l 0,72 c 0,3.324 2.676,6 6,6 L 24,90 24,6 12,6 z"
       inkscape:connector-curvature="0"
       id="rect3170"
       style="fill:#a05a2c;fill-opacity:1;fill-rule:nonzero;stroke:none;display:inline" />
    <g
       id="g4028">
      <g
         transform="translate(0,2)"
         id="g3972">
        <g
           transform="translate(0,-2)"
           id="g3958">
          <path
             d="m 11,63 c -2.77,0 -5,2.23 -5,5 l 0,1 c 0,-2.77 2.23,-5 5,-5 l 13,0 0,-1 -13,0 z"
             inkscape:connector-curvature="0"
             id="rect3922"
             style="opacity:0.5;color:#000000;fill:url(#linearGradient3979);fill-opacity:1;fill-rule:nonzero;stroke:none;stroke-width:2;marker:none;visibility:visible;display:inline;overflow:visible;enable-background:accumulate" />
          <path
             d="m 11,62 c -2.77,0 -5,2.23 -5,5 l 0,1 c 0,-2.77 2.23,-5 5,-5 l 13,0 0,-1 -13,0 z"
             inkscape:connector-curvature="0"
             id="path3946"
             style="opacity:0.2;color:#000000;fill:url(#linearGradient3982);fill-opacity:1;fill-rule:nonzero;stroke:none;stroke-width:2;marker:none;visibility:visible;display:inline;overflow:visible;enable-background:accumulate" />
          <path
             d="m 11,65 c -2.77,0 -5,2.23 -5,5 l 0,1 c 0,-2.77 2.23,-5 5,-5 l 13,0 0,-1 -13,0 z"
             inkscape:connector-curvature="0"
             id="path3950"
             style="opacity:0.3;color:#000000;fill:url(#linearGradient3984);fill-opacity:1;fill-rule:nonzero;stroke:none;stroke-width:2;marker:none;visibility:visible;display:inline;overflow:visible;enable-background:accumulate" />
          <path
             d="m 11,64 c -2.77,0 -5,2.23 -5,5 l 0,1 c 0,-2.77 2.23,-5 5,-5 l 13,0 0,-1 -13,0 z"
             inkscape:connector-curvature="0"
             id="path3952"
             style="opacity:0.6;color:#000000;fill:url(#linearGradient3986);fill-opacity:1;fill-rule:nonzero;stroke:none;stroke-width:2;marker:none;visibility:visible;display:inline;overflow:visible;enable-background:accumulate" />
        </g>
      </g>
      <g
         transform="translate(0,-18)"
         id="g3988">
        <g
           transform="translate(0,-2)"
           id="g3990">
          <path
             d="m 11,63 c -2.77,0 -5,2.23 -5,5 l 0,1 c 0,-2.77 2.23,-5 5,-5 l 13,0 0,-1 -13,0 z"
             inkscape:connector-curvature="0"
             id="path3992"
             style="opacity:0.5;color:#000000;fill:url(#linearGradient4000);fill-opacity:1;fill-rule:nonzero;stroke:none;stroke-width:2;marker:none;visibility:visible;display:inline;overflow:visible;enable-background:accumulate" />
          <path
             d="m 11,62 c -2.77,0 -5,2.23 -5,5 l 0,1 c 0,-2.77 2.23,-5 5,-5 l 13,0 0,-1 -13,0 z"
             inkscape:connector-curvature="0"
             id="path3994"
             style="opacity:0.2;color:#000000;fill:url(#linearGradient4002);fill-opacity:1;fill-rule:nonzero;stroke:none;stroke-width:2;marker:none;visibility:visible;display:inline;overflow:visible;enable-background:accumulate" />
          <path
             d="m 11,65 c -2.77,0 -5,2.23 -5,5 l 0,1 c 0,-2.77 2.23,-5 5,-5 l 13,0 0,-1 -13,0 z"
             inkscape:connector-curvature="0"
             id="path3996"
             style="opacity:0.3;color:#000000;fill:url(#linearGradient4004);fill-opacity:1;fill-rule:nonzero;stroke:none;stroke-width:2;marker:none;visibility:visible;display:inline;overflow:visible;enable-background:accumulate" />
          <path
             d="m 11,64 c -2.77,0 -5,2.23 -5,5 l 0,1 c 0,-2.77 2.23,-5 5,-5 l 13,0 0,-1 -13,0 z"
             inkscape:connector-curvature="0"
             id="path3998"
             style="opacity:0.6;color:#000000;fill:url(#linearGradient4006);fill-opacity:1;fill-rule:nonzero;stroke:none;stroke-width:2;marker:none;visibility:visible;display:inline;overflow:visible;enable-background:accumulate" />
        </g>
      </g>
      <g
         transform="translate(0,-38)"
         id="g4008">
        <g
           transform="translate(0,-2)"
           id="g4010">
          <path
             d="m 11,63 c -2.77,0 -5,2.23 -5,5 l 0,1 c 0,-2.77 2.23,-5 5,-5 l 13,0 0,-1 -13,0 z"
             inkscape:connector-curvature="0"
             id="path4012"
             style="opacity:0.5;color:#000000;fill:url(#linearGradient4020);fill-opacity:1;fill-rule:nonzero;stroke:none;stroke-width:2;marker:none;visibility:visible;display:inline;overflow:visible;enable-background:accumulate" />
          <path
             d="m 11,62 c -2.77,0 -5,2.23 -5,5 l 0,1 c 0,-2.77 2.23,-5 5,-5 l 13,0 0,-1 -13,0 z"
             inkscape:connector-curvature="0"
             id="path4014"
             style="opacity:0.2;color:#000000;fill:url(#linearGradient4022);fill-opacity:1;fill-rule:nonzero;stroke:none;stroke-width:2;marker:none;visibility:visible;display:inline;overflow:visible;enable-background:accumulate" />
          <path
             d="m 11,65 c -2.77,0 -5,2.23 -5,5 l 0,1 c 0,-2.77 2.23,-5 5,-5 l 13,0 0,-1 -13,0 z"
             inkscape:connector-curvature="0"
             id="path4016"
             style="opacity:0.3;color:#000000;fill:url(#linearGradient4024);fill-opacity:1;fill-rule:nonzero;stroke:none;stroke-width:2;marker:none;visibility:visible;display:inline;overflow:visible;enable-background:accumulate" />
          <path
             d="m 11,64 c -2.77,0 -5,2.23 -5,5 l 0,1 c 0,-2.77 2.23,-5 5,-5 l 13,0 0,-1 -13,0 z"
             inkscape:connector-curvature="0"
             id="path4018"
             style="opacity:0.6;color:#000000;fill:url(#linearGradient4026);fill-opacity:1;fill-rule:nonzero;stroke:none;stroke-width:2;marker:none;visibility:visible;display:inline;overflow:visible;enable-background:accumulate" />
        </g>
      </g>
    </g>
    <path
       style="opacity:0.2;fill:url(#radialGradient3619);fill-opacity:1;fill-rule:nonzero;stroke:none"
       d="M 12,90 C 8.11425,90.1368 5.41842,86.2084 6,82.5774 6.01818,58.8883 5.96366,35.1972 6.02722,11.5094 5.28212,9.16796 10.5383,5.696 9.3125,6.78125 6.06854,8.80692 7.20932,12.9061 7,16.0823 c 0.0171,22.4772 -0.0342,44.9561 0.0256,67.4323 0.2115,3.3005 3.67101,4.9485 6.63411,4.4854 23.6181,-0.017 47.2379,0.034 70.8549,-0.026 C 87.8151,87.7629 89.4631,84.3034 89,81.3403 88.9765,57.714 89.0469,34.0846 88.9648,10.4602 89.6042,8.28431 84.0152,5.11138 87.5127,7.17856 91.0463,9.65991 89.75,14.1603 90,17.7936 89.9794,40.0672 90.0412,62.3429 89.9691,84.6152 89.7161,88.3905 85.8108,90.524 82.3403,90 58.8935,90 35.4468,90 12,90 Z"
       id="path3615"
       inkscape:connector-curvature="0" />
    <path
       d="M 12,6 C 8.676,6 6,8.676 6,12 l 0,72 c 0,3.324 2.676,6 6,6 l 9.125,0 0,-84 L 12,6 z"
       inkscape:connector-curvature="0"
       id="path3292"
       style="fill:url(#linearGradient3300);fill-opacity:1;fill-rule:nonzero;stroke:none;display:inline" />
    <path
       style="opacity:0.4;fill:url(#linearGradient3188);fill-opacity:1;fill-rule:nonzero;stroke:none"
       d="M 12,6 C 8.11425,5.86322 5.41842,9.7916 6,13.4226 6.01818,37.1117 5.96366,60.8028 6.02722,84.4906 5.28212,86.832 10.5383,90.304 9.3125,89.2188 6.06854,87.1931 7.20932,83.0939 7,79.9177 7.01709,57.4405 6.96584,34.9616 7.02559,12.4854 7.23709,9.18494 10.6966,7.53688 13.6597,8 c 23.6181,0.0171 47.2379,-0.0342 70.8549,0.0256 3.3005,0.2115 4.9485,3.67101 4.4854,6.63411 -0.023,23.6263 0.047,47.2557 -0.035,70.8801 0.6394,2.1759 -4.9496,5.3488 -1.4521,3.2816 C 91.0463,86.3401 89.75,81.8397 90,78.2064 89.9794,55.9328 90.0412,33.6571 89.9691,11.3848 89.7161,7.60949 85.8108,5.47598 82.3403,6 58.8935,6 35.4468,6 12,6 Z"
       id="rect3728"
       inkscape:connector-curvature="0" />
    <rect
       width="1"
       height="84"
       x="24"
       y="6"
       id="rect3941"
       style="opacity:0.1;fill:#ffffff;fill-opacity:1;stroke:none" />
    <rect
       width="1"
       height="84"
       x="23"
       y="6"
       id="rect3943"
       style="opacity:0.1;fill:#000000;fill-opacity:1;stroke:none" />
    <path
       d="m 28,10 0,0.498361 0,5.201639 0,0.498361 0.49948,0 4.557752,0 0,4.142623 -1.498439,0 0,-2.118033 0,-0.498361 -0.49948,0 -2.559833,0 -0.49948,0 0,0.498361 0,2.616393 0,0.498361 0.49948,0 2.060354,0 0,43.32459 -2.060354,0 -0.49948,0 0,0.498361 0,2.647541 0,0.49836 0.49948,0 2.559833,0 0.49948,0 0,-0.49836 0,-2.149181 1.498439,0 0,4.142623 -4.557752,0 -0.49948,0 L 28,70.3 28,75.501639 28,76 l 0.49948,0 5.057232,0 0.499479,0 0,-0.498361 0,-4.703278 4.245578,0 0,1.650819 -2.154006,0 -0.49948,0 0,0.498361 0,2.554098 0,0.498361 0.49948,0 2.653486,0 0.499479,0 0,-0.498361 0,-2.055737 35.398544,0 0,2.055737 0,0.498361 0.499479,0 2.684704,0 0.499479,0 0,-0.498361 0,-2.554098 0,-0.498361 -0.499479,0 -2.185224,0 0,-1.650819 4.245578,0 0,4.703278 0,0.498361 0.499479,0 5.057232,0 L 86,76 86,75.501639 86,70.3 l 0,-0.498361 -0.49948,0 -4.557752,0 0,-4.142623 1.529657,0 0,2.149181 0,0.49836 0.499479,0 2.528616,0 0.49948,0 0,-0.49836 0,-2.647541 0,-0.498361 -0.49948,0 -2.029136,0 0,-43.32459 2.029136,0 0.49948,0 0,-0.498361 0,-2.616393 0,-0.498361 -0.49948,0 -2.528616,0 -0.499479,0 0,0.498361 0,2.118033 -1.529657,0 0,-4.142623 4.557752,0 0.49948,0 L 86,15.7 86,10.498361 86,10 l -0.49948,0 -5.057232,0 -0.499479,0 0,0.498361 0,4.703278 -4.245578,0 0,-1.650819 2.185224,0 0.499479,0 0,-0.467213 0,-2.585246 0,-0.498361 -0.499479,0 -2.684704,0 -0.499479,0 0,0.498361 0,2.086885 -35.398544,0 0,-2.086885 0,-0.498361 -0.499479,0 -2.653486,0 -0.49948,0 0,0.498361 0,2.585246 0,0.467213 0.49948,0 2.154006,0 0,1.650819 -4.245578,0 0,-4.703278 0,-0.498361 -0.499479,0 -5.057232,0 z m 0.998959,0.996721 4.058273,0 0,4.204918 -4.058273,0 z m 7.648283,0 1.654527,0 0,1.588525 -1.654527,0 z m 39.050989,0 1.685744,0 0,1.588525 -1.685744,0 z m 5.244537,0 4.058273,0 0,4.204918 -4.058273,0 z m -41.64204,2.554099 35.398544,0 0,1.650819 -2.091572,0 -0.499479,0 0,0.498361 0,2.585246 0,0.467213 0.499479,0 2.591051,0 0.49948,0 0,-0.467213 0,-2.086885 4.245578,0 0,4.142623 -2.154007,0 -0.499479,0 0,0.49836 0,2.585246 0,0.467213 0.499479,0 2.653486,0 0.49948,0 0,-0.467213 0,-2.086885 1.529657,0 0,43.32459 -1.529657,0 0,-2.055738 0,-0.49836 -0.49948,0 -2.653486,0 -0.499479,0 0,0.49836 0,2.554099 0,0.49836 0.499479,0 2.154007,0 0,4.142623 -4.245578,0 0,-2.055737 0,-0.498361 -0.49948,0 -2.591051,0 -0.499479,0 0,0.498361 0,2.554098 0,0.498361 0.499479,0 2.091572,0 0,1.650819 -35.398544,0 0,-1.650819 2.122789,0 0.49948,0 0,-0.498361 0,-2.554098 0,-0.498361 -0.49948,0 -2.622268,0 -0.49948,0 0,0.498361 0,2.055737 -4.245578,0 0,-4.142623 2.185224,0 0.49948,0 0,-0.49836 0,-2.554099 0,-0.49836 -0.49948,0 -2.684703,0 -0.49948,0 0,0.49836 0,2.055738 -1.498439,0 0,-43.32459 1.498439,0 0,2.086885 0,0.467213 0.49948,0 2.684703,0 0.49948,0 0,-0.467213 0,-2.585246 0,-0.49836 -0.49948,0 -2.185224,0 0,-4.142623 4.245578,0 0,2.086885 0,0.467213 0.49948,0 2.622268,0 0.49948,0 0,-0.467213 0,-2.585246 0,-0.498361 -0.49948,0 -2.122789,0 z m 0,2.647541 1.623309,0 0,1.588524 -1.623309,0 z m 33.806452,0 1.592092,0 0,1.588524 -1.592092,0 z m -44.108221,2.491803 1.560875,0 0,1.65082 -1.560875,0 z m 54.472425,0 1.529657,0 0,1.65082 -1.529657,0 z m -49.415193,2.647541 1.685744,0 0,1.588525 -1.685744,0 z m 44.233091,0 1.654527,0 0,1.588525 -1.654527,0 z m -44.233091,41.767213 1.685744,0 0,1.557377 -1.685744,0 z m 44.233091,0 1.654527,0 0,1.557377 -1.654527,0 z m -49.290323,2.554098 1.560875,0 0,1.65082 -1.560875,0 z m 54.472425,0 1.529657,0 0,1.65082 -1.529657,0 z m -44.170656,2.585246 1.623309,0 0,1.557377 -1.623309,0 z m 33.806452,0 1.592092,0 0,1.557377 -1.592092,0 z m -44.108221,2.554099 4.058273,0 0,4.204918 -4.058273,0 z m 51.943809,0 4.058273,0 0,4.204918 -4.058273,0 z m -44.295526,2.647541 1.654527,0 0,1.557377 -1.654527,0 z m 39.050989,0 1.685744,0 0,1.557377 -1.685744,0 z"
       inkscape:connector-curvature="0"
       id="path3189"
       style="opacity:0.55870445;fill:#784421;fill-opacity:1;fill-rule:evenodd;stroke:none;display:inline" />
    <path
       d="m 45.605903,25.720536 -1.016793,0 -5.568154,14.11406 c -0.484187,1.258885 -0.581026,1.428353 -0.944166,1.815702 -0.38735,0.459978 -1.065213,0.75049 -1.718865,0.75049 l -0.09684,0 0,1.137841 6.415481,0 0,-1.137841 -0.484187,0 c -1.307304,0 -1.960959,-0.459978 -1.960959,-1.379934 0,-0.290512 0.07263,-0.629444 0.217884,-1.016792 l 0.79891,-2.130425 6.415481,0 1.307306,3.244055 c 0.145256,0.36314 0.193674,0.532606 0.193674,0.653653 0,0.387349 -0.605234,0.629443 -1.50098,0.629443 l -1.016793,0 0,1.137841 7.504904,0 0,-1.137841 -0.338933,0 c -1.210466,0 -1.47677,-0.193676 -2.033585,-1.549399 L 45.605903,25.720536 m -1.186259,3.970335 2.735658,6.87546 -5.422898,0 2.68724,-6.87546 m 13.887855,-3.994546 -4.164011,0.266304 0,1.041002 0.847327,0 c 0.895746,0 1.041003,0.169468 1.041003,1.210469 l 0,9.417444 c 0,3.244051 -0.121047,4.817664 -0.435769,6.246016 l 0.919956,0 1.186257,-1.888331 c 0.992584,1.307304 2.130427,1.91254 3.631406,1.91254 2.977749,0 5.205014,-2.590405 5.205014,-6.076551 0,-3.486145 -2.03359,-5.931294 -4.93871,-5.931294 -1.476771,0 -2.372519,0.508398 -3.292474,1.88833 l 0,-8.085929 m 2.856705,7.432276 c 1.815701,0 2.832496,1.767287 2.832496,4.938711 0,3.050377 -0.992586,4.793454 -2.759868,4.793454 -1.912538,0 -3.05038,-1.767287 -3.05038,-4.745035 0,-3.219843 1.041004,-4.98713 2.977752,-4.98713 m 15.630545,6.851251 c -0.774697,1.743072 -1.597817,2.445146 -2.8567,2.445146 -1.936749,0 -3.147219,-1.767287 -3.147219,-4.59978 0,-2.92933 1.186261,-4.890292 2.977755,-4.890292 0.726276,0 1.35572,0.338933 1.35572,0.726281 0,0.07263 -0.0484,0.145257 -0.145258,0.290513 -0.387343,0.459977 -0.484185,0.702072 -0.484185,1.11363 0,0.798909 0.605239,1.355725 1.452563,1.355725 0.847324,0 1.476769,-0.677863 1.476769,-1.646237 0,-1.622026 -1.622028,-2.880914 -3.776657,-2.880914 -3.147216,0 -5.39869,2.590405 -5.39869,6.197597 0,3.437726 2.0578,5.810248 5.059758,5.810248 2.154635,0 3.389308,-0.992587 4.430312,-3.558777 l -0.944167,-0.36314"
       inkscape:connector-curvature="0"
       id="text3202"
       style="font-size:36px;font-style:normal;font-variant:normal;font-weight:normal;font-stretch:normal;text-align:start;line-height:100%;writing-mode:lr-tb;text-anchor:start;fill:#784421;fill-opacity:1;stroke:none;display:inline;font-family:Century Schoolbook L;-inkscape-font-specification:Century Schoolbook L" />
    <path
       d="m 44.307,47.3996 h -0.1345 l -0.1379,0.2158 c -0.2299,-0.184 -0.3855,-0.2441 -0.6437,-0.2441 -0.2795,0 -0.4988,0.078 -0.7216,0.2582 -0.3501,0.283 -0.5128,0.6402 -0.5128,1.1177 0,0.3608 0.1061,0.6614 0.3112,0.8913 0.2193,0.2476 0.5447,0.3926 0.8843,0.3926 0.2971,0 0.5058,-0.092 0.7357,-0.3218 l 0.1308,0.3183 h 0.1486 c 5e-4,-0.3172 -0.018,-0.9502 0.021,-0.9974 0.062,-0.076 0.1847,-0.045 0.3501,-0.05 V 48.814 h -1.1248 v 0.1662 c 0.1438,0 0.2701,-0.011 0.3536,0.045 0.046,0.04 0.04,0.4162 -0.036,0.5458 -0.098,0.1677 -0.3148,0.2936 -0.5447,0.2936 -0.2263,0 -0.4562,-0.1167 -0.5765,-0.2936 -0.1309,-0.1945 -0.1875,-0.4456 -0.1875,-0.8241 0,-0.7888 0.2618,-1.2097 0.7534,-1.2097 0.4032,0 0.6827,0.2901 0.8277,0.856 h 0.1521 l -0.05,-0.9939 m 1.1579,0.9302 -0.6119,0.039 v 0.1521 h 0.1273 c 0.1309,0 0.1521,0.025 0.1521,0.1769 v 0.9868 c 0,0.1415 -0.039,0.1662 -0.2653,0.1662 h -0.014 v 0.1274 h 0.8948 v -0.1274 h -0.014 c -0.2299,0 -0.2688,-0.025 -0.2688,-0.1662 -0.01,-0.4033 -0.018,-0.699 0.064,-0.9232 0.074,-0.1591 0.2335,-0.2688 0.3856,-0.2688 0.092,0 0.198,0.053 0.2511,0.1238 0.053,0.074 0.078,0.1839 0.078,0.3537 v 0.7145 c 0,0.1415 -0.039,0.1662 -0.2688,0.1662 h -0.014 v 0.1274 h 0.8949 v -0.1274 h -0.014 c -0.2264,0 -0.2653,-0.025 -0.2653,-0.1662 v -0.6968 c 0,-0.2547 -0.011,-0.3183 -0.074,-0.4386 -0.088,-0.1698 -0.2688,-0.2723 -0.4775,-0.2723 -0.2264,0 -0.4032,0.1061 -0.5588,0.3395 v -0.2865 m 2.3462,-0.053 c -0.4316,0 -0.7711,0.3855 -0.7711,0.8807 0,0.4846 0.3395,0.8736 0.764,0.8736 0.4244,0 0.764,-0.389 0.764,-0.8772 0,-0.4845 -0.3396,-0.8771 -0.7569,-0.8771 m 0,0.1521 c 0.2475,0 0.3855,0.2582 0.3855,0.725 0,0.4705 -0.138,0.7251 -0.3926,0.7251 -0.2547,0 -0.3926,-0.2546 -0.3926,-0.7215 0,-0.481 0.1344,-0.7286 0.3997,-0.7286 m 1.5881,-0.099 -0.6296,0.039 v 0.1521 h 0.145 c 0.1309,0 0.1521,0.025 0.1521,0.1769 v 0.9832 c 0,0.1451 -0.039,0.1698 -0.2653,0.1698 h -0.014 v 0.1274 h 0.8913 v -0.1274 h -0.014 c -0.2263,0 -0.2652,-0.025 -0.2652,-0.1698 v -0.6401 c 0,-0.3148 0.1733,-0.5483 0.4032,-0.5483 0.092,0 0.191,0.05 0.2334,0.1167 0.05,0.067 0.071,0.1698 0.071,0.3148 v 0.7605 c 0,0.1415 -0.039,0.1662 -0.2688,0.1662 h -0.014 v 0.1274 h 0.8949 v -0.1274 h -0.014 c -0.2264,0 -0.2653,-0.025 -0.2653,-0.1662 v -0.6119 c 0,-0.3537 0.1592,-0.5801 0.4068,-0.5801 0.1167,0 0.2122,0.067 0.2582,0.1769 0.032,0.078 0.042,0.1556 0.042,0.2935 v 0.7216 c -0.038,0.1758 -0.074,0.1591 -0.2828,0.1662 v 0.1274 h 0.8948 v -0.1274 c -0.1964,0.01 -0.2709,-0.011 -0.2793,-0.1698 v -0.7887 c 0,-0.2193 -0.021,-0.2936 -0.1132,-0.4138 -0.1025,-0.1309 -0.2475,-0.2016 -0.4173,-0.2016 -0.2299,0 -0.3997,0.1096 -0.5518,0.3537 -0.06,-0.2123 -0.2511,-0.3537 -0.4881,-0.3537 -0.2122,0 -0.3714,0.1025 -0.5093,0.3254 v -0.2724 m 4.077,0.8524 c 0,-0.5305 -0.2971,-0.9054 -0.7286,-0.9054 -0.4528,0 -0.7923,0.3926 -0.7923,0.9231 0,0.4952 0.3218,0.8312 0.7993,0.8312 0.336,0 0.5766,-0.1662 0.7216,-0.5022 l -0.1238,-0.067 c -0.145,0.2723 -0.2936,0.3784 -0.5306,0.3784 -0.1804,0 -0.3112,-0.078 -0.4032,-0.2334 -0.064,-0.1061 -0.092,-0.2299 -0.088,-0.4245 h 1.146 m -1.1425,-0.152 c 0,-0.1097 0.014,-0.1875 0.05,-0.2865 0.074,-0.2123 0.1875,-0.3148 0.3573,-0.3148 0.2157,0 0.3572,0.1874 0.3572,0.4704 0,0.1026 -0.032,0.1309 -0.145,0.1309 h -0.619 m 2.7318,0.5128 v 0.1026 c -0.037,0.2146 -0.1258,0.1461 -0.3818,0.1662 v 0.1663 h 1.1884 c 0.3148,0 0.5554,-0.05 0.7428,-0.1557 0.3573,-0.2016 0.5553,-0.6048 0.5553,-1.1353 0,-0.4846 -0.1768,-0.8701 -0.5022,-1.0824 -0.1946,-0.1238 -0.4563,-0.1803 -0.8595,-0.1803 h -1.1248 v 0.1662 c 0.3554,0.01 0.3787,0.08 0.3818,0.2688 v 1.6836 m 0.5978,0.2688 c -0.1769,0 -0.2016,-0.021 -0.2016,-0.1945 v -1.8286 c 0,-0.1733 0.025,-0.1981 0.2016,-0.1981 h 0.1839 c 0.6048,0 0.8559,0.3289 0.8559,1.1106 0,0.7923 -0.2299,1.1106 -0.7993,1.1106 h -0.2405 m 2.3957,-1.482 -0.6649,0.039 v 0.1521 h 0.1804 c 0.1308,0 0.152,0.025 0.152,0.1769 v 0.8453 0.1415 c 0,0.1415 -0.039,0.1662 -0.2652,0.1662 h -0.025 v 0.1274 h 0.9161 V 49.851 h -0.025 c -0.2299,0 -0.2688,-0.025 -0.2688,-0.1662 V 49.543 48.3298 m -0.1662,-0.8807 c -0.1132,0 -0.2052,0.092 -0.2052,0.2052 0,0.1096 0.092,0.2051 0.2016,0.2051 0.1168,0 0.2087,-0.092 0.2087,-0.2051 0,-0.1132 -0.092,-0.2052 -0.2051,-0.2052 m 1.9186,2.009 c -0.1131,0.2547 -0.2334,0.3573 -0.4173,0.3573 -0.283,0 -0.4598,-0.2582 -0.4598,-0.6721 0,-0.4279 0.1733,-0.7144 0.435,-0.7144 0.1061,0 0.1981,0.05 0.1981,0.1061 -0.048,0.058 -0.084,0.147 -0.092,0.2047 -0.016,0.1156 0.089,0.1981 0.2122,0.1981 0.1238,0 0.2158,-0.099 0.2158,-0.2405 0,-0.237 -0.237,-0.4209 -0.5518,-0.4209 -0.4598,0 -0.7887,0.3784 -0.7887,0.9054 0,0.5023 0.3006,0.8489 0.7392,0.8489 0.3148,0 0.4952,-0.145 0.6473,-0.5199 l -0.138,-0.053 m 0.8856,-1.1283 V 47.6292 H 60.553 c -0.035,0.4598 -0.191,0.6932 -0.4775,0.7145 v 0.1379 h 0.2901 v 0.9019 c 0,0.2476 0.01,0.3361 0.042,0.4174 0.057,0.1486 0.1981,0.2299 0.4032,0.2299 0.138,0 0.2582,-0.042 0.3396,-0.1202 0.1965,-0.1702 0.1744,-0.3463 0.1839,-0.5762 h -0.1485 c -0.011,0.3184 -0.1026,0.4811 -0.2759,0.4811 -0.081,0 -0.1521,-0.042 -0.1769,-0.1026 -0.021,-0.05 -0.032,-0.138 -0.032,-0.2653 V 48.482 h 0.5199 V 48.3299 H 60.701 m 1.4172,0 -0.665,0.039 v 0.1521 h 0.1804 c 0.1309,0 0.1521,0.025 0.1521,0.1769 v 0.8453 0.1415 c 0,0.1415 -0.039,0.1662 -0.2653,0.1662 h -0.025 v 0.1274 h 0.9161 v -0.1274 h -0.025 c -0.2299,0 -0.2688,-0.025 -0.2688,-0.1662 V 49.543 48.3298 m -0.1663,-0.8807 c -0.1132,0 -0.2051,0.092 -0.2051,0.2051 0,0.1097 0.092,0.2052 0.2016,0.2052 0.1167,0 0.2087,-0.092 0.2087,-0.2052 0,-0.1131 -0.092,-0.2051 -0.2052,-0.2051 m 1.4412,0.8277 c -0.4315,0 -0.7711,0.3855 -0.7711,0.8807 0,0.4845 0.3396,0.8736 0.764,0.8736 0.4244,0 0.764,-0.3891 0.764,-0.8772 0,-0.4845 -0.3396,-0.8771 -0.7569,-0.8771 m 0,0.1521 c 0.2476,0 0.3855,0.2582 0.3855,0.725 0,0.4705 -0.1379,0.7251 -0.3926,0.7251 -0.2547,0 -0.3926,-0.2546 -0.3926,-0.7215 0,-0.4811 0.1344,-0.7286 0.3997,-0.7286 m 1.5846,-0.099 -0.6119,0.039 v 0.1521 h 0.1273 c 0.1309,0 0.1521,0.025 0.1521,0.1769 v 0.9868 c 0,0.1415 -0.039,0.1662 -0.2653,0.1662 h -0.014 v 0.1273 h 0.8948 v -0.1273 h -0.014 c -0.2299,0 -0.2688,-0.025 -0.2688,-0.1662 v -0.5096 c 0,-0.1733 0.025,-0.3324 0.064,-0.4138 0.074,-0.1591 0.2335,-0.2688 0.3856,-0.2688 0.092,0 0.198,0.053 0.2511,0.1238 0.053,0.074 0.078,0.1839 0.078,0.3537 v 0.7145 c 0,0.1415 -0.039,0.1662 -0.2688,0.1662 h -0.014 v 0.1273 h 0.8949 v -0.1273 h -0.014 c -0.2264,0 -0.2653,-0.025 -0.2653,-0.1662 v -0.6968 c 0,-0.2547 -0.011,-0.3183 -0.074,-0.4386 -0.088,-0.1698 -0.2688,-0.2724 -0.4775,-0.2724 -0.2264,0 -0.4032,0.1062 -0.5588,0.3396 v -0.2865 m 3.0535,0.5093 c 0,-0.2228 -0.039,-0.336 -0.1414,-0.4209 -0.1168,-0.092 -0.2901,-0.1415 -0.5164,-0.1415 -0.3962,0 -0.6897,0.1875 -0.6897,0.4422 0,0.1344 0.081,0.2193 0.2051,0.2193 0.1096,0 0.191,-0.074 0.191,-0.1804 0,-0.046 -0.018,-0.096 -0.053,-0.145 -0.021,-0.025 -0.025,-0.035 -0.025,-0.046 0,-0.074 0.145,-0.138 0.3148,-0.138 0.1096,0 0.2334,0.035 0.29,0.088 0.067,0.057 0.092,0.1415 0.092,0.3006 v 0.138 c -0.3714,0.064 -0.4846,0.092 -0.6579,0.1591 -0.3042,0.1132 -0.4527,0.2794 -0.4527,0.5023 0,0.2511 0.2016,0.4138 0.5128,0.4138 0.2441,0 0.4634,-0.099 0.6155,-0.2794 0.056,0.1804 0.145,0.2511 0.3112,0.2511 0.1592,0 0.3254,-0.1026 0.3254,-0.2051 0,-0.025 -0.018,-0.042 -0.035,-0.042 -0.014,0 -0.028,0 -0.053,0.014 -0.057,0.021 -0.071,0.025 -0.099,0.025 -0.099,0 -0.1344,-0.067 -0.1344,-0.244 v -0.711 m -0.3325,0.4316 c 0,0.2122 -0.011,0.2617 -0.071,0.3537 -0.088,0.1308 -0.2511,0.2193 -0.4032,0.2193 -0.1591,0 -0.2794,-0.1168 -0.2794,-0.2759 0,-0.1486 0.074,-0.2547 0.2299,-0.329 0.1096,-0.049 0.2476,-0.085 0.5235,-0.1308 v 0.1627 m 1.4029,-0.9409 -0.6261,0.039 v 0.1521 h 0.1451 c 0.1308,0 0.152,0.025 0.152,0.1769 v 0.9868 c 0,0.1415 -0.039,0.1662 -0.2688,0.1662 h -0.014 v 0.1274 h 0.9444 v -0.1274 h -0.067 c -0.2264,0 -0.2653,-0.025 -0.2653,-0.1662 -0.029,-0.3172 0.032,-0.6862 0.1379,-0.9122 0.091,-0.1952 0.2052,-0.3077 0.3537,-0.3254 -0.05,0.057 -0.064,0.092 -0.064,0.1592 0,0.1132 0.081,0.1945 0.1945,0.1945 0.1273,0 0.2158,-0.095 0.2158,-0.2405 0,-0.1698 -0.1203,-0.2829 -0.3078,-0.2829 -0.2228,0 -0.4173,0.1803 -0.5305,0.4916 v -0.4386 m 1.9289,1.1991 -0.389,-0.9091 c -0.014,-0.032 -0.021,-0.056 -0.021,-0.074 0,-0.064 0.042,-0.089 0.1627,-0.089 h 0.074 v -0.1273 h -0.8418 v 0.1273 h 0.039 c 0.1132,0 0.1769,0.05 0.2405,0.191 l 0.5766,1.3052 c -0.089,0.2288 -0.3225,0.5871 -0.4667,0.5801 -0.032,0 -0.057,-0.014 -0.057,-0.035 0,-0.01 0,-0.018 0.01,-0.032 0.011,-0.032 0.018,-0.064 0.018,-0.092 0,-0.092 -0.078,-0.1592 -0.1804,-0.1592 -0.1238,0 -0.2122,0.092 -0.2122,0.2193 0,0.1556 0.1379,0.2724 0.3218,0.2724 0.1875,0 0.3467,-0.092 0.4881,-0.283 0.1097,-0.1486 0.1719,-0.2935 0.336,-0.6826 0.3414,-0.8098 0.4722,-1.2662 0.7004,-1.284 h 0.021 V 48.3303 H 71.144 v 0.1273 h 0.057 c 0.1344,0 0.191,0.039 0.191,0.1309 -0.073,0.3108 -0.2313,0.6292 -0.3568,0.9408"
       inkscape:connector-curvature="0"
       id="text3210"
       style="font-style:normal;font-variant:normal;font-weight:normal;font-stretch:normal;font-size:6px;line-height:100%;font-family:'Century Schoolbook L';-inkscape-font-specification:'Century Schoolbook L';text-align:start;writing-mode:lr-tb;text-anchor:start;display:inline;fill:#784421;fill-opacity:1;stroke:none"
       sodipodi:nodetypes="cccscscscccscccccsscssccccccsccsccccsccscccsccccscccscccsssccsssccccsccsccccsccscccsccccsccsccccccccccscscccsssccscccccssscccccscscscccccssssssccccsscssccccsscccsssccssscssssssccccccccscscccscscccccccsscssccccsscccsssccsssccsssccccsccsccccscccscccsccccscccsccccsssscsscsccsscssscsscccssccccccsccsccccscscssssccccssccccscccscsssscscccccscc" />
    <path
       d="m 90,76 c 0,2.216 -1.784,4 -4,4 l -4,0 -69,0 c -2.77,0 -5,2.23 -5,5 0,2.42375 1.71748,4.441543 4,4.90625 0.125327,0.02075 0.247127,0.04959 0.375,0.0625 0.04116,0.0052 0.08352,-0.0042 0.125,0 C 12.662806,89.981893 12.833696,90 13,90 L 82.09375,90 84,90 c 3.324,0 6,-2.676 6,-6 z"
       inkscape:connector-curvature="0"
       id="rect3964"
       style="fill:url(#linearGradient3118);fill-opacity:1;fill-rule:nonzero;stroke:none;display:inline" />
    <path
       d="m 13,80.03125 c -2.229947,0 -3.96875,1.738803 -3.96875,3.96875 0,2.229947 1.738803,3.96875 3.96875,3.96875 l 70.3125,0 C 84.821315,87.808459 86,86.552718 86,85 l 0,-4.96875 z"
       inkscape:connector-curvature="0"
       id="path3073"
       style="color:#000000;fill:url(#linearGradient3896);fill-opacity:1;fill-rule:nonzero;stroke:none;stroke-width:2;marker:none;visibility:visible;display:inline;overflow:visible;enable-background:accumulate" />
    <path
       d="m 90,75 c 0,2.216 -1.784,4 -4,4 l -5,0 0,0.03125 -69,0 c -2.2299467,0 -3.96875,1.738803 -3.96875,3.96875 0,0.171722 0.042447,0.334673 0.0625,0.5 C 8.3340994,81.518422 9.9417755,80.03125 12,80.03125 l 74,0 L 86,80 c 2.216,0 4,-1.784 4,-4 l 0,-1 z"
       inkscape:connector-curvature="0"
       id="path3853"
       style="opacity:0.1;color:#000000;fill:#000000;fill-opacity:1;fill-rule:nonzero;stroke:none;stroke-width:2;marker:none;visibility:visible;display:inline;overflow:visible;enable-background:accumulate" />
    <path
       d="m 90,74 c 0,2.216 -1.784,4 -4,4 l -5,0 0,0.03125 -69,0 c -2.229947,0 -3.96875,1.738803 -3.96875,3.96875 0,0.171722 0.04245,0.334673 0.0625,0.5 C 8.334099,80.518422 9.941775,79.03125 12,79.03125 l 74,0 L 86,79 c 2.216,0 4,-1.784 4,-4 l 0,-1 z"
       inkscape:connector-curvature="0"
       id="path3880"
       style="opacity:0.1;color:#000000;fill:url(#linearGradient4089);fill-opacity:1;fill-rule:nonzero;stroke:none;stroke-width:2;marker:none;visibility:visible;display:inline;overflow:visible;enable-background:accumulate" />
    <path
       d="m 12,80.03125 c -2.2299467,0 -3.96875,1.738803 -3.96875,3.96875 0,2.229947 1.7388033,3.96875 3.96875,3.96875 l 1,0 c -2.229947,0 -3.96875,-1.738803 -3.96875,-3.96875 0,-2.229947 1.738803,-3.96875 3.96875,-3.96875 l -1,0 z"
       inkscape:connector-curvature="0"
       id="path3885"
       style="opacity:0.5;color:#000000;fill:#000000;fill-opacity:1;fill-rule:nonzero;stroke:none;stroke-width:2;marker:none;visibility:visible;display:inline;overflow:visible;enable-background:accumulate" />
    <path
       d="M 86,80.15625 11.28125,80.4375 86,80.5625 86,80.15625 z m 0,0.65625 -76.4375,1.21875 c -0.0023,0.004 -0.02899,-0.0041 -0.03125,0 -0.0045,0.0081 0.0045,0.02311 0,0.03125 L 86,81.84375 86,80.8125 z m 0,2.03125 -76.84375,0.25 76.84375,0.125 0,-0.375 z m -76.96875,1.25 76.96875,1 C 86.00099,85.06206 86,85.03195 86,85 l 0,-0.53125 -76.96875,-0.375 z M 9.1875,85.0625 c 0.02576,0.09633 0.06124,0.188194 0.09375,0.28125 L 62.4375,85.25 9.1875,85.0625 z m 76.71875,0.625 -76.125,0.65625 c 0.0087,0.01204 0.02244,0.01931 0.03125,0.03125 L 85.71875,86.25 c 0.02323,-0.05009 0.04269,-0.104045 0.0625,-0.15625 0.05145,-0.129933 0.09209,-0.26788 0.125,-0.40625 z M 85.4375,86.75 10.40625,87 l 74.3125,0.125 0.5,-0.125 c 0.07541,-0.0824 0.15293,-0.159508 0.21875,-0.25 z"
       inkscape:connector-curvature="0"
       id="path3918"
       style="opacity:0.15;fill:#000000;stroke:none" />
    <path
       d="M 86,80.03125 86,85 c 0,1.552718 -1.178685,2.808459 -2.6875,2.96875 l 1,0 C 85.821315,87.808459 87,86.552718 87,85 l 0,-4.96875 -1,0 z"
       inkscape:connector-curvature="0"
       id="path4001"
       style="opacity:0.2;color:#000000;fill:#000000;fill-opacity:1;fill-rule:nonzero;stroke:none;stroke-width:2;marker:none;visibility:visible;display:inline;overflow:visible;enable-background:accumulate" />
    <path
       d="m 90,76 c 0,2.216 -1.784,4 -4,4 l -5,0 0,0.03125 -68,0 c -2.229947,0 -3.96875,1.738803 -3.96875,3.96875 0,0.171722 0.04245,0.334673 0.0625,0.5 C 9.334099,82.518422 10.941775,81.03125 13,81.03125 l 73,0 L 86,81 c 2.216,0 4,-1.784 4,-4 z"
       inkscape:connector-curvature="0"
       id="path4010"
       style="opacity:0.25;color:#000000;fill:#000000;fill-opacity:1;fill-rule:nonzero;stroke:none;stroke-width:2;marker:none;visibility:visible;display:inline;overflow:visible;enable-background:accumulate" />
    <path
       d="m 90,77 c 0,2.216 -1.784,4 -4,4 l -5,0 0,0.03125 -68,0 c -2.229947,0 -3.96875,1.738803 -3.96875,3.96875 0,0.171722 0.04245,0.334673 0.0625,0.5 C 9.334099,83.518422 10.941775,82.03125 13,82.03125 l 73,0 L 86,82 c 2.216,0 4,-1.784 4,-4 z"
       inkscape:connector-curvature="0"
       id="path4093"
       style="opacity:0.1;color:#000000;fill:#000000;fill-opacity:1;fill-rule:nonzero;stroke:none;stroke-width:2;marker:none;visibility:visible;display:inline;overflow:visible;enable-background:accumulate" />
  </g>
  <g
     id="layer5"
     style="display:none">
    <rect
       width="66"
       height="66"
       rx="12"
       ry="12"
       x="15"
       y="15"
       clip-path="url(#clipPath3613)"
       id="rect3171"
       style="opacity:0.1;fill:url(#linearGradient3613);fill-opacity:1;fill-rule:nonzero;stroke:#ffffff;stroke-width:0.5;stroke-linecap:round;stroke-linejoin:miter;stroke-miterlimit:4;stroke-opacity:1;stroke-dasharray:none;stroke-dashoffset:0;filter:url(#filter3794)" />
  </g>
</svg>
