<?xml version="1.0" encoding="UTF-8" standalone="no"?>
<!-- Created with Inkscape (http://www.inkscape.org/) -->

<svg
   xmlns:dc="http://purl.org/dc/elements/1.1/"
   xmlns:cc="http://creativecommons.org/ns#"
   xmlns:rdf="http://www.w3.org/1999/02/22-rdf-syntax-ns#"
   xmlns:svg="http://www.w3.org/2000/svg"
   xmlns="http://www.w3.org/2000/svg"
   xmlns:xlink="http://www.w3.org/1999/xlink"
   xmlns:sodipodi="http://sodipodi.sourceforge.net/DTD/sodipodi-0.dtd"
   xmlns:inkscape="http://www.inkscape.org/namespaces/inkscape"
   version="1.0"
   width="96"
   height="96"
   id="svg2408"
   style="enable-background:new"
   inkscape:version="0.92+devel (unknown)"
   sodipodi:docname="acroread.svg">
  <title
     id="title81">acroread</title>
  <sodipodi:namedview
     pagecolor="#ffffff"
     bordercolor="#666666"
     borderopacity="1"
     objecttolerance="10"
     gridtolerance="10"
     guidetolerance="10"
     inkscape:pageopacity="0"
     inkscape:pageshadow="2"
     inkscape:window-width="1280"
     inkscape:window-height="965"
     id="namedview70"
     showgrid="false"
     inkscape:zoom="4.91667"
     inkscape:cx="0.924171"
     inkscape:cy="29.7381"
     inkscape:window-x="0"
     inkscape:window-y="29"
     inkscape:window-maximized="1"
     inkscape:current-layer="svg2408"
     inkscape:document-rotation="0" />
  <defs
     id="defs2410">
    <linearGradient
       id="linearGradient3826">
      <stop
         id="stop3828"
         style="stop-color:#ff3920;stop-opacity:1"
         offset="0" />
      <stop
         id="stop3830"
         style="stop-color:#ff3920;stop-opacity:0"
         offset="1" />
    </linearGradient>
    <linearGradient
       id="linearGradient3737">
      <stop
         id="stop3739"
         style="stop-color:#ffffff;stop-opacity:1"
         offset="0" />
      <stop
         id="stop3741"
         style="stop-color:#ffffff;stop-opacity:0"
         offset="1" />
    </linearGradient>
    <linearGradient
       id="linearGradient3700">
      <stop
         id="stop3702"
         style="stop-color:#970303;stop-opacity:1"
         offset="0" />
      <stop
         id="stop3704"
         style="stop-color:#f31d0c;stop-opacity:1"
         offset="1" />
    </linearGradient>
    <linearGradient
       x1="48"
       y1="90"
       x2="48"
       y2="5.9877172"
       id="linearGradient3706"
       xlink:href="#linearGradient3700"
       gradientUnits="userSpaceOnUse" />
    <linearGradient
       x1="36.357143"
       y1="6"
       x2="36.357143"
       y2="63.893143"
       id="linearGradient3188"
       xlink:href="#linearGradient3737"
       gradientUnits="userSpaceOnUse" />
    <radialGradient
       cx="48"
       cy="-14.78724"
       r="42"
       fx="48"
       fy="-14.78724"
       id="radialGradient3832"
       xlink:href="#linearGradient3826"
       gradientUnits="userSpaceOnUse"
       gradientTransform="matrix(0,0.992921,-1.00171,0,33.1875,-41.5538)" />
    <linearGradient
       id="linearGradient3737-1">
      <stop
         id="stop3739-0"
         style="stop-color:#ffffff;stop-opacity:1"
         offset="0" />
      <stop
         id="stop3741-5"
         style="stop-color:#ffffff;stop-opacity:0"
         offset="1" />
    </linearGradient>
    <linearGradient
       x1="36.357143"
       y1="6"
       x2="36.357143"
       y2="63.893143"
       id="linearGradient2956"
       xlink:href="#linearGradient3737-1"
       gradientUnits="userSpaceOnUse" />
    <linearGradient
       x1="45.447727"
       y1="92.539597"
       x2="45.447727"
       y2="7.0165396"
       id="ButtonShadow"
       gradientUnits="userSpaceOnUse"
       gradientTransform="scale(1.0058652,0.994169)">
      <stop
         id="stop3750"
         style="stop-color:#000000;stop-opacity:1"
         offset="0" />
      <stop
         id="stop3752"
         style="stop-color:#000000;stop-opacity:0.58823532"
         offset="1" />
    </linearGradient>
    <filter
       color-interpolation-filters="sRGB"
       id="filter3174">
      <feGaussianBlur
         id="feGaussianBlur3176"
         stdDeviation="1.71" />
    </filter>
    <linearGradient
       x1="45.447727"
       y1="92.539597"
       x2="45.447727"
       y2="7.0165396"
       id="linearGradient2964"
       xlink:href="#ButtonShadow"
       gradientUnits="userSpaceOnUse"
       gradientTransform="scale(1.0058652,0.994169)" />
    <linearGradient
       id="linearGradient3737-8">
      <stop
         id="stop3739-1"
         style="stop-color:#ffffff;stop-opacity:1"
         offset="0" />
      <stop
         id="stop3741-2"
         style="stop-color:#ffffff;stop-opacity:0"
         offset="1" />
    </linearGradient>
    <radialGradient
       cx="48"
       cy="90.171875"
       r="42"
       fx="48"
       fy="90.171875"
       id="radialGradient2855"
       xlink:href="#linearGradient3737-8"
       gradientUnits="userSpaceOnUse"
       gradientTransform="matrix(1.15731,0,0,0.995908,-7.55102,0.197132)" />
    <linearGradient
       id="linearGradient3737-11">
      <stop
         id="stop3739-5"
         style="stop-color:#ffffff;stop-opacity:1"
         offset="0" />
      <stop
         id="stop3741-9"
         style="stop-color:#ffffff;stop-opacity:0"
         offset="1" />
    </linearGradient>
    <clipPath
       id="clipPath3613">
      <rect
         width="84"
         height="84"
         rx="6"
         ry="6"
         x="6"
         y="6"
         id="rect3615"
         style="fill:#ffffff;fill-opacity:1;fill-rule:nonzero;stroke:none" />
    </clipPath>
    <filter
       x="-0.192"
       y="-0.192"
       width="1.3839999"
       height="1.3839999"
       color-interpolation-filters="sRGB"
       id="filter3794-7">
      <feGaussianBlur
         id="feGaussianBlur3796-7"
         stdDeviation="5.28" />
    </filter>
    <linearGradient
       x1="48"
       y1="20.220806"
       x2="48"
       y2="138.66119"
       id="linearGradient2862"
       xlink:href="#linearGradient3737-11"
       gradientUnits="userSpaceOnUse" />
    <linearGradient
       x1="45.447727"
       y1="92.539597"
       x2="45.447727"
       y2="7.0165396"
       id="ButtonShadow-0"
       gradientUnits="userSpaceOnUse"
       gradientTransform="matrix(1.0058652,0,0,0.994169,100,0)">
      <stop
         id="stop3750-8"
         style="stop-color:#000000;stop-opacity:1"
         offset="0" />
      <stop
         id="stop3752-5"
         style="stop-color:#000000;stop-opacity:0.58823532"
         offset="1" />
    </linearGradient>
    <linearGradient
       x1="32.251034"
       y1="6.1317081"
       x2="32.251034"
       y2="90.238609"
       id="linearGradient3780"
       xlink:href="#ButtonShadow-0"
       gradientUnits="userSpaceOnUse"
       gradientTransform="matrix(1.0238095,0,0,1.0119048,-1.1428571,-98.071429)" />
    <linearGradient
       x1="32.251034"
       y1="6.1317081"
       x2="32.251034"
       y2="90.238609"
       id="linearGradient3772"
       xlink:href="#ButtonShadow-0"
       gradientUnits="userSpaceOnUse"
       gradientTransform="matrix(1.0238095,0,0,1.0119048,-1.1428571,-98.071429)" />
    <linearGradient
       x1="32.251034"
       y1="6.1317081"
       x2="32.251034"
       y2="90.238609"
       id="linearGradient3725"
       xlink:href="#ButtonShadow-0"
       gradientUnits="userSpaceOnUse"
       gradientTransform="matrix(1.0238095,0,0,1.0119048,-1.1428571,-98.071429)" />
    <linearGradient
       x1="32.251034"
       y1="6.1317081"
       x2="32.251034"
       y2="90.238609"
       id="linearGradient3721"
       xlink:href="#ButtonShadow-0"
       gradientUnits="userSpaceOnUse"
       gradientTransform="translate(0,-97)" />
    <linearGradient
       x1="32.251034"
       y1="6.1317081"
       x2="32.251034"
       y2="90.238609"
       id="linearGradient3059"
       xlink:href="#ButtonShadow-0"
       gradientUnits="userSpaceOnUse"
       gradientTransform="matrix(1.0238095,0,0,1.0119048,-1.1428571,-98.071429)" />
  </defs>
  <metadata
     id="metadata2413">
    <rdf:RDF>
      <cc:Work
         rdf:about="">
        <dc:format>image/svg+xml</dc:format>
        <dc:type
           rdf:resource="http://purl.org/dc/dcmitype/StillImage" />
        <dc:title>acroread</dc:title>
        <dc:subject>
          <rdf:Bag>
            <rdf:li>acroread</rdf:li>
          </rdf:Bag>
        </dc:subject>
        <dc:description>acroread</dc:description>
      </cc:Work>
    </rdf:RDF>
  </metadata>
  <g
     id="layer2"
     style="display:none">
    <rect
       width="86"
       height="85"
       rx="6"
       ry="6"
       x="5"
       y="7"
       id="rect3745"
       style="opacity:0.9;fill:url(#linearGradient2964);fill-opacity:1;fill-rule:nonzero;stroke:none;filter:url(#filter3174)" />
  </g>
  <g
     id="layer5"
     style="display:inline">
    <path
       d="m 12,-95.03125 c -5.5110903,0 -10.03125,4.52016 -10.03125,10.03125 l 0,71 c 0,5.5110902 4.5201598,10.03125 10.03125,10.03125 l 72,0 c 5.51109,0 10.03125,-4.5201597 10.03125,-10.03125 l 0,-71 c 0,-5.51109 -4.52016,-10.03125 -10.03125,-10.03125 l -72,0 z"
       transform="scale(1,-1)"
       id="path3786"
       style="opacity:0.07999998;fill:url(#linearGradient3059);fill-opacity:1;fill-rule:nonzero;stroke:none;display:inline" />
    <path
       d="m 12,-94.03125 c -4.971633,0 -9.03125,4.059617 -9.03125,9.03125 l 0,71 c 0,4.9716329 4.0596171,9.03125 9.03125,9.03125 l 72,0 c 4.971633,0 9.03125,-4.059617 9.03125,-9.03125 l 0,-71 c 0,-4.971633 -4.059617,-9.03125 -9.03125,-9.03125 l -72,0 z"
       transform="scale(1,-1)"
       id="path3778"
       style="opacity:0.1;fill:url(#linearGradient3780);fill-opacity:1;fill-rule:nonzero;stroke:none;display:inline" />
    <path
       d="m 12,-93 c -4.4091333,0 -8,3.590867 -8,8 l 0,71 c 0,4.4091333 3.5908667,8 8,8 l 72,0 c 4.409133,0 8,-3.5908667 8,-8 l 0,-71 c 0,-4.409133 -3.590867,-8 -8,-8 l -72,0 z"
       transform="scale(1,-1)"
       id="path3770"
       style="opacity:0.2;fill:url(#linearGradient3772);fill-opacity:1;fill-rule:nonzero;stroke:none;display:inline" />
    <rect
       width="86"
       height="85"
       rx="7"
       ry="7"
       x="5"
       y="-92"
       transform="scale(1,-1)"
       id="rect3723"
       style="opacity:0.3;fill:url(#linearGradient3725);fill-opacity:1;fill-rule:nonzero;stroke:none;display:inline" />
    <rect
       width="84"
       height="84"
       rx="6"
       ry="6"
       x="6"
       y="-91"
       transform="scale(1,-1)"
       id="rect3716"
       style="opacity:0.45;fill:url(#linearGradient3721);fill-opacity:1;fill-rule:nonzero;stroke:none;display:inline" />
  </g>
  <rect
     style="fill:url(#linearGradient3706);fill-opacity:1;fill-rule:nonzero;stroke:none"
     id="rect2419"
     y="6"
     x="6"
     ry="6"
     rx="6"
     height="84"
     width="84" />
  <path
     style="display:inline;opacity:0.3;fill:#640000;fill-opacity:1;fill-rule:evenodd;stroke:none"
     id="path4144"
     inkscape:connector-curvature="0"
     d="M 58.7621,6.00057 C 54.814,14.6925 51.8222,23.6338 49.8372,32.6441 c -1.0303,0.82 -2.0773,1.5861 -3.15,2.3625 C 34.449,43.8652 19.7685,49.6533 6,49.3128 l 0,6.5624 c 12.1835,1.1502 20.1436,5.3208 24.8061,11.5499 4.2168,5.6338 5.9671,13.3091 5.5124,22.5749 l 4.2,0 C 40.9675,80.1311 39.156,71.5279 34.2186,64.9314 29.8768,59.1308 23.2642,55.0697 14.2687,52.9877 26.2982,51.3772 38.2423,46.0285 48.5247,38.6816 45.5593,55.9021 46.0426,73.3896 49.7059,90 L 78.712,90 C 64.2183,76.8589 57.9486,53.3028 57.9746,31.0691 66.1475,23.4611 72.4987,14.7381 75.8245,6.00057 l -4.4624,0 C 68.5969,12.401 63.9621,18.9689 58.1059,25.0317 58.4625,18.3329 59.5311,11.9208 60.9934,6.00057 l -2.2313,0 z" />
  <path
     inkscape:connector-curvature="0"
     id="rect3728"
     d="M 12,6 C 8.114,5.86322 5.418,9.7916 6,13.4226 6.02,37.1117 5.96,60.8028 6.03,84.4906 5.285,86.832 10.541,90.304 9.315,89.2188 6.072,87.1931 7.212,83.0939 7.003,79.9177 7.023,57.4405 6.973,34.9616 7.033,12.4854 7.244,9.18494 10.704,7.53688 13.667,8 37.285,8.0171 60.905,7.9658 84.522,8.0256 c 3.3,0.2115 4.948,3.671 4.485,6.6341 -0.02,23.6263 0.05,47.2557 -0.03,70.8801 0.639,2.1759 -4.95,5.3488 -1.452,3.2816 3.533,-2.4813 2.237,-6.9817 2.487,-10.615 -0.02,-22.2736 0.04,-44.5493 -0.03,-66.8216 C 89.716,7.60949 85.811,5.47598 82.34,6 58.894,6 35.447,6 12,6 Z"
     style="opacity:0.5;fill:url(#linearGradient3188);fill-opacity:1;fill-rule:nonzero;stroke:none" />
  <path
     inkscape:connector-curvature="0"
     id="rect3728-1"
     d="M 12,6 C 8.11425,5.86322 5.41842,9.7916 6,13.4226 6.01818,37.1117 5.96366,60.8028 6.02722,84.4906 5.28212,86.832 10.5383,90.304 9.3125,89.2188 6.06854,87.1931 7.20932,83.0939 7,79.9177 7.01709,57.4405 6.96584,34.9616 7.02559,12.4854 7.23709,9.18494 10.6966,7.53688 13.6597,8 37.2778,8.0171 60.8976,7.9658 84.5146,8.0256 c 3.3005,0.2115 4.9485,3.671 4.4854,6.6341 -0.023,23.6263 0.047,47.2557 -0.035,70.8801 0.6394,2.1759 -4.9496,5.3488 -1.4521,3.2816 C 91.0463,86.3401 89.75,81.8397 90,78.2064 89.9794,55.9328 90.0412,33.6571 89.9691,11.3848 89.7161,7.60949 85.8108,5.47598 82.3403,6 58.8935,6 35.4468,6 12,6 Z"
     style="display:inline;opacity:0.4;fill:url(#linearGradient2956);fill-opacity:1;fill-rule:nonzero;stroke:none" />
  <path
     style="opacity:0.8;fill:url(#radialGradient3832);fill-opacity:1;fill-rule:nonzero;stroke:none"
     id="rect3819"
     inkscape:connector-curvature="0"
     d="M 12,6 C 8.676,6 6,8.676 6,12 l 0,36 84,0 0,-36 C 90,8.676 87.324,6 84,6 L 12,6 Z" />
  <path
     inkscape:connector-curvature="0"
     id="path3615"
     d="M 12,90 C 8.11425,90.1368 5.41842,86.2084 6,82.5774 6.01818,58.8883 5.96366,35.1972 6.02722,11.5094 5.28212,9.16796 10.5383,5.696 9.3125,6.78125 6.06854,8.80692 7.20932,12.9061 7,16.0823 7.0171,38.5595 6.9658,61.0384 7.0256,83.5146 7.2371,86.8151 10.6966,88.4631 13.6597,88 37.2778,87.983 60.8976,88.034 84.5146,87.974 87.8151,87.7629 89.4631,84.3034 89,81.3403 88.9765,57.714 89.0469,34.0846 88.9648,10.4602 89.6042,8.28431 84.0152,5.11138 87.5127,7.17856 91.0463,9.65991 89.75,14.1603 90,17.7936 89.9794,40.0672 90.0412,62.3429 89.9691,84.6152 89.7161,88.3905 85.8108,90.524 82.3403,90 58.8935,90 35.4468,90 12,90 Z"
     style="opacity:0.2;fill:url(#radialGradient2855);fill-opacity:1;fill-rule:nonzero;stroke:none" />
  <g
     id="layer4"
     style="display:inline">
    <rect
       width="66"
       height="66"
       rx="12"
       ry="12"
       x="15"
       y="15"
       clip-path="url(#clipPath3613)"
       id="rect3171"
       style="opacity:0.1;fill:url(#linearGradient2862);fill-opacity:1;fill-rule:nonzero;stroke:#ffffff;stroke-width:0.5;stroke-linecap:round;stroke-linejoin:miter;stroke-miterlimit:4;stroke-opacity:1;stroke-dasharray:none;stroke-dashoffset:0;filter:url(#filter3794-7)" />
  </g>
  <g
     id="layer3"
     style="display:inline">
    <path
       d="m 44.0938,12.9687 c -1.912,-0.1611 -3.5187,0.7657 -4.5,2.0938 -1.0193,1.3794 -1.5216,3.1274 -1.5625,4.75 h 0.031 c -0.65,5.8512 0.6093,11.5842 2.0313,17.0625 -3.1077,10.1072 -7.8284,19.6927 -13.2813,28.7813 -0.7776,-0.1739 -1.5641,-0.2011 -2.2812,0 -0.9563,0.268 -1.813,0.788 -2.625,1.375 -1.5978,1.0673 -2.9468,2.2787 -4.4063,3.5625 -1.4021,1.2332 -2.9244,2.9534 -4.0625,4.8437 -1.1381,1.8903 -1.7937,4.1278 -1.0313,6.4375 0.024,0.066 0.055,0.1291 0.094,0.1875 2.4087,3.5353 7.6233,3.7318 10.75,1.125 0.018,-0.013 0.044,-0.018 0.062,-0.031 5.624,-4.1485 8.8456,-10.3743 12.4375,-15.8438 7.9772,-2.4251 16.1554,-4.1855 24.4375,-5.0937 5.8079,2.7555 12.3799,5.4579 19.1875,4.5312 0.01,2e-4 0.021,2e-4 0.031,0 1.718,-0.3124 3.0262,-1.3022 3.7812,-2.5937 0.755,-1.2916 0.982,-2.8556 0.75,-4.375 -0.3227,-2.3152 -1.9036,-3.7846 -3.7187,-4.625 C 78.4036,54.3158 76.3129,54.0012 74.625,53.8125 70.501,53.413 66.3839,53.668 62.3438,53.9063 56.6147,50.8573 52.2365,45.5097 50,39.375 c -0.023,-0.066 -0.055,-0.1291 -0.094,-0.1875 -1.5206,-2.2561 -0.837,-4.8343 -0.5625,-7.8125 9e-4,-0.011 -0,-0.02 0,-0.031 0.3861,-3.5674 0.2423,-7.276 0.4062,-10.5625 0.5344,-1.8456 0.3852,-3.8228 -0.5312,-5.3751 -0.9251,-1.5668 -2.6924,-2.6194 -4.9063,-2.4375 -0.077,0.01 -0.1406,-0.01 -0.2187,0 z m 1.0937,35.1876 c 1.7123,2.8738 3.8133,5.4782 6.2813,7.75 -3.8418,0.8479 -7.6263,1.9196 -11.3438,3.2187 1.8626,-3.5537 3.5889,-7.2075 5.0625,-10.9687 z"
       id="path3717"
       style="opacity:0.05;fill:#000000;fill-opacity:1;fill-rule:nonzero;stroke:none"
       inkscape:connector-curvature="0"
       sodipodi:nodetypes="csccccscssccccccccscscccccccscccccc" />
    <path
       d="M 44.1875,13.8125 C 40.7864,13.3754 38.992,16.941 38.9187,19.8477 38.264,25.6184 39.5526,31.3522 41,36.9063 37.8062,47.3833 32.9031,57.2706 27.25,66.625 c -3.3659,-1.4437 -6.7267,2.554 -9.1405,4.5521 -2.8675,2.3736 -6.2229,6.3828 -4.8929,10.4119 2.0929,3.0718 6.792,3.2285 9.5267,0.9019 5.5408,-4.0624 8.7612,-10.3201 12.4755,-15.9284 8.1924,-2.5082 16.6031,-4.3017 25.125,-5.2187 5.8302,2.7756 12.3211,5.4566 18.9093,4.5598 2.9688,-0.5399 4.2488,-3.3126 3.8386,-5.9993 -0.5565,-3.9929 -5.2432,-4.884 -8.5575,-5.2546 C 70.3939,54.2487 66.235,54.5058 62.0938,54.75 56.0741,51.6059 51.4989,46.0379 49.1728,39.6572 47.4143,37.0481 48.2423,34.1798 48.5048,31.2946 48.8857,27.8054 48.75,24.09 48.9172,20.7382 50.0217,17.361 48.2433,13.3239 44.1875,13.8125 Z m 0.8438,32.5313 c 2.04,3.81 4.7716,7.2584 8.0937,10.0312 -5.0035,1.0292 -9.9355,2.423 -14.7187,4.2188 2.4752,-4.6176 4.8219,-9.324 6.625,-14.25 z"
       inkscape:connector-curvature="0"
       id="path3711"
       style="opacity:0.1;fill:#000000;fill-opacity:1;fill-rule:nonzero;stroke:none"
       sodipodi:nodetypes="ccccscccccccccccccccc" />
    <path
       d="m 44.1875,14.8437 c -1.0205,-0.072 -1.7454,0.2192 -2.5625,0.7188 -0.8142,0.6824 -1.1647,1.6759 -1.4375,2.9063 -0.2728,1.2303 -0.409,2.7316 -0.4062,4.5 0.2326,5.5247 1.0726,9.1031 2.2812,13.9375 C 39.2521,45.5761 35.4416,53.9787 32,60.4375 30.2395,63.7217 28.6026,66.5468 27.0625,69 27.4043,67.978 26.7913,67.0021 25.75,67.1875 24.0159,67.825 22.3525,69.0808 21.125,70 c -3.2497,2.4456 -5.896,5.4702 -6.8438,8.1563 -0.3069,0.87 -0.5507,1.5651 -0.375,2.375 0.1758,0.8098 0.8456,1.4174 1.5,1.75 0.9943,0.5052 1.8715,0.8068 2.7813,0.8437 0.9098,0.037 1.749,-0.2214 2.625,-0.6562 7.1998,-5.1348 9.768,-10.6421 13.8125,-16.8125 1.0245,-0.2505 2.1414,-0.577 3.0625,-0.8438 6.1229,-1.8452 13.4847,-3.3745 20.7188,-4.25 l 2.0937,-0.25 c 3.9612,1.8213 8.1985,3.5695 12.1563,4.375 2.2532,0.3451 4.5809,0.5954 6.6562,0.125 0.9455,-0.3523 1.6787,-0.9116 2.3438,-1.4375 0.4631,-0.5912 0.2163,-0.8931 0.094,-1.5 0.4162,-0.3842 0.3657,-0.9386 0.375,-1.4375 -0.026,-0.5457 -0.08,-1.084 -0.4375,-1.6875 C 80.7199,57.1183 78.6961,56.3765 76,55.875 70.8945,55.2753 66.8264,55.2297 61.8438,55.7813 l -0.9063,-0.5 c -0.013,-0.01 -0.018,-0.023 -0.031,-0.031 -7.7146,-5.2193 -11.9069,-11.7965 -14,-18.8125 -0.026,-0.1641 -0.015,-0.2239 0.062,-0.625 0.3281,-1.6943 0.5909,-4.9868 0.75,-8 0.1,-2.0109 0.191,-3.9853 0.031,-5.875 -0.032,-0.3633 -0.3318,-0.5862 -0.5,-0.8125 0.1937,-0.1007 0.4318,-0.1428 0.5313,-0.2812 0.3525,-0.5904 0.3309,-1.3556 0.375,-1.9063 0.047,-1.2432 -0.062,-2.3176 -0.8438,-3.125 -0.7817,-0.8074 -1.8773,-0.9688 -3.125,-0.9688 z m 0.625,3.8126 c 0.3952,0.3406 0.6731,0.8097 0.7813,1.7187 0.023,0.2579 0.1334,0.5003 0.3125,0.6875 -0.2371,0.1622 -0.4044,0.4076 -0.4688,0.6875 -0.3263,1.4615 -0.6128,2.7673 -0.9062,4.1875 -0.1366,-1.3005 -0.2074,-2.7451 -0.1563,-4.0625 0.058,-1.4857 0.2897,-2.8235 0.4375,-3.2187 z m 0.062,25.3125 c 2.5646,5.016 6.4369,10.0538 10.2813,12.9687 -6.537,1.1818 -13.8132,3.3675 -18.8125,5.4688 4.0963,-7.3577 6.8924,-13.3899 8.5312,-18.4375 z M 70.2188,59.625 c 2.7526,-0.048 5.5274,-0.2621 8.0625,0.75 0.9105,0.3743 1.3225,0.7927 1.4375,1.1875 -0.9671,0.2706 -2.2237,0.1954 -3.0625,0.031 -2.3096,-0.5547 -4.3578,-1.1799 -6.4375,-1.9688 z M 26.75,69.4375 c -1.2804,2.0113 -2.5102,3.8338 -3.625,5.25 -1.8956,2.4081 -3.4425,3.6333 -4.6875,4.3125 0.028,-0.057 4e-4,-0.066 0.031,-0.125 2.0036,-3.7613 5.077,-6.9 8.2812,-9.4375 z"
       id="path3707"
       style="opacity:0.15;fill:#000000;fill-opacity:1;fill-rule:nonzero;stroke:none"
       inkscape:connector-curvature="0"
       sodipodi:nodetypes="ccscccccccsscccccccccccccccccccccccsccccccccccccccccccsccc" />
    <path
       d="m 44.196,16 c -1.1379,0 -1.3624,0.053 -1.8201,0.4369 -0.9114,0.7639 -1.4307,3.1143 -1.4254,6.5316 0.01,3.5333 0.4892,6.8961 1.6008,11.2718 l 0.7017,2.7306 C 40.6057,45.9662 36.5196,54.3956 33.0121,60.9783 26.2465,73.599 21.018,80.2246 17.3764,80.8133 c -0.5859,0.095 -0.614,0.07 -0.614,-0.3495 0,-2.1301 4.0389,-7.4562 8.5305,-11.2501 2.2945,-1.938 -0.3756,-0.6427 -3.4648,1.6821 -3.1131,2.3428 -5.6919,5.3805 -6.4911,7.6456 -0.5683,1.6107 -0.4481,2.1802 0.5921,2.7088 1.8585,0.9445 2.8043,0.9816 4.3859,0.1966 3.0744,-1.526 7.1401,-6.3555 11.6664,-13.8496 1.4676,-2.4299 1.9281,-3.0364 2.3026,-3.0364 9.3203,-2.6856 17.673,-4.3152 26.4467,-5.4175 l 1.228,0.6117 c 3.1982,1.6043 7.6545,3.161 10.9208,3.8009 2.2092,0.4328 5.086,0.5126 6.0525,0.1748 0.6091,-0.2128 1.8778,-0.9649 1.8778,-1.2121 -2.4791,1.1627 -6.2157,-0.274 -9.0267,-1.1034 -1.8534,-0.5839 -5.9321,-2.1786 -6.1622,-2.403 4.9384,-0.9558 14.2017,-1.1678 15.1971,2.25 0.2916,0 0.2167,-1.372 -0.1097,-1.9223 -0.6112,-1.0307 -2.3823,-1.8628 -4.9341,-2.3374 -2.066,-0.3842 -6.9614,-0.4918 -10.7892,-0.2403 l -3.399,0.2185 C 53.793,53.0561 46.9072,42.2612 45.8407,35.5947 c 0.5897,-3.045 1.1369,-13.333 0.7237,-13.5874 -0.7526,3.3712 -1.3612,6.7431 -2.1272,9.7864 -0.1582,0 -0.6218,-2.3721 -0.9868,-5.1335 -0.3971,-3.0043 -0.2529,-7.0687 0.2851,-8.4539 0.2156,-0.5551 0.4968,-1.0609 0.6359,-1.1141 1.3791,0.3956 2.1466,1.4877 2.3465,3.1675 0.1956,0 0.2459,-0.321 0.2851,-1.3544 C 47.0891,16.6326 46.48,16 44.196,16 Z m 0.5482,25.0777 c 3.0594,6.2698 7.7483,12.6678 12.9164,16.4491 -8.1443,1.7859 -16.6868,3.6751 -23.4863,6.5192 4.4381,-7.8036 8.0401,-14.6662 10.5699,-22.9683 z"
       inkscape:connector-curvature="0"
       id="path3703"
       style="opacity:0.3;fill:#000000;fill-opacity:1;fill-rule:nonzero;stroke:none"
       sodipodi:nodetypes="sccccccssscssscccsccccccccccccscccsscccc" />
    <path
       d="m 44.196,15 c -1.1379,0 -1.3624,0.053 -1.8201,0.4369 -0.9114,0.7639 -1.4307,3.1143 -1.4254,6.5316 0.222,5.5759 1.0352,9.0709 2.3025,14.0024 -2.5991,9.2128 -6.7334,17.4247 -10.2409,24.0074 -6.7656,12.6207 -11.9941,19.2463 -15.6357,19.835 -0.5859,0.095 -0.614,0.07 -0.614,-0.3495 0,-2.1301 4.0389,-7.4562 8.5305,-11.2501 2.2945,-1.938 -0.3756,-0.6427 -3.4648,1.6821 -3.1131,2.3428 -5.6919,5.3805 -6.4911,7.6456 -0.5683,1.6107 -0.4481,2.1802 0.5921,2.7088 1.8585,0.9445 2.8043,0.9816 4.3859,0.1966 3.0744,-1.526 7.1401,-6.3555 11.6664,-13.8496 1.4676,-2.4299 1.9281,-3.0364 2.3026,-3.0364 8.5865,-2.4064 18.6139,-4.418 26.4467,-5.4175 3.922,1.8668 8.1573,3.5998 12.1488,4.4126 2.9325,0.5348 5.6702,0.7349 7.9303,-1.0373 -2.4791,1.1627 -6.2157,-0.274 -9.0267,-1.1034 -1.8534,-0.5839 -5.9321,-2.1786 -6.1622,-2.403 4.9384,-0.9558 14.2017,-1.1678 15.1971,2.25 0.2916,0 0.2167,-1.372 -0.1097,-1.9223 -0.6112,-1.0307 -2.3823,-1.8628 -4.9341,-2.3374 -2.066,-0.3842 -6.9614,-0.4918 -10.7892,-0.2403 l -3.399,0.2185 C 57.9669,54.377 49.7929,48.6506 45.8407,34.5947 c 0.5897,-3.045 1.1369,-13.333 0.7237,-13.5874 -0.7526,3.3712 -1.3612,6.7431 -2.1272,9.7864 -0.1582,0 -0.7165,-2.3613 -0.9868,-5.1335 -0.2978,-3.0534 -0.8249,-6.8668 0.921,-9.568 1.3791,0.3956 2.1466,1.4877 2.3465,3.1675 0.1956,0 0.2459,-0.321 0.2851,-1.3544 C 47.0891,15.6326 46.48,15 44.196,15 Z m 0.5482,25.0777 c 3.5975,6.2141 7.7789,12.6753 12.9164,16.4491 -8.1595,1.8475 -16.2229,3.9238 -23.4863,6.6845 0,-0.1183 0.4438,-1.0429 1.0088,-2.0534 4.2553,-7.6116 7.1147,-13.7635 8.7278,-18.8302 0.5117,-1.6073 0.7031,-2.2085 0.8333,-2.25 z"
       inkscape:connector-curvature="0"
       id="rect3364"
       style="fill:#ffffff;fill-opacity:1;fill-rule:nonzero;stroke:none"
       sodipodi:nodetypes="scccccssscsssccccccccccccccsccsscccssc" />
  </g>
</svg>
