<?xml version="1.0" encoding="UTF-8" standalone="no"?>
<svg
   xmlns:dc="http://purl.org/dc/elements/1.1/"
   xmlns:cc="http://creativecommons.org/ns#"
   xmlns:rdf="http://www.w3.org/1999/02/22-rdf-syntax-ns#"
   xmlns:svg="http://www.w3.org/2000/svg"
   xmlns="http://www.w3.org/2000/svg"
   xmlns:xlink="http://www.w3.org/1999/xlink"
   xmlns:sodipodi="http://sodipodi.sourceforge.net/DTD/sodipodi-0.dtd"
   xmlns:inkscape="http://www.inkscape.org/namespaces/inkscape"
   viewBox="0 0 96 96"
   id="svg2"
   version="1.1"
   inkscape:version="0.91 r"
   sodipodi:docname="alien-arena.svg">
  <title
     id="title126">alien-arena</title>
  <metadata
     id="metadata122">
    <rdf:RDF>
      <cc:Work
         rdf:about="">
        <dc:format>image/svg+xml</dc:format>
        <dc:type
           rdf:resource="http://purl.org/dc/dcmitype/StillImage" />
        <dc:title>alien-arena</dc:title>
        <dc:subject>
          <rdf:Bag>
            <rdf:li>alien-arena</rdf:li>
            <rdf:li>game</rdf:li>
            <rdf:li>shooter</rdf:li>
          </rdf:Bag>
        </dc:subject>
        <dc:description>alien-arena, game, shooter</dc:description>
      </cc:Work>
    </rdf:RDF>
  </metadata>
  <sodipodi:namedview
     pagecolor="#ffffff"
     bordercolor="#666666"
     borderopacity="1"
     objecttolerance="10"
     gridtolerance="10"
     guidetolerance="10"
     inkscape:pageopacity="0"
     inkscape:pageshadow="2"
     inkscape:window-width="1280"
     inkscape:window-height="965"
     id="namedview120"
     showgrid="false"
     inkscape:zoom="4.91667"
     inkscape:cx="40.2865"
     inkscape:cy="31.6502"
     inkscape:window-x="0"
     inkscape:window-y="27"
     inkscape:window-maximized="1"
     inkscape:current-layer="svg2" />
  <defs
     id="defs4">
    <linearGradient
       gradientTransform="translate(114.19774 100.76272)"
       xlink:href="#linearGradient4046"
       id="linearGradient4317"
       x1="-117.158"
       gradientUnits="userSpaceOnUse"
       x2="-91.038" />
    <linearGradient
       gradientTransform="matrix(1.02381 0 0 1.0119 -1.14286 -98.07143)"
       id="linearGradient3780"
       xlink:href="#ButtonShadow-0"
       y1="6.132"
       y2="90.239"
       x2="0"
       gradientUnits="userSpaceOnUse" />
    <linearGradient
       xlink:href="#linearGradient4379"
       id="linearGradient4391"
       y1="55.532"
       x1="23.052"
       y2="13"
       x2="7"
       gradientUnits="userSpaceOnUse" />
    <linearGradient
       gradientTransform="translate(0 -97)"
       id="linearGradient3721"
       xlink:href="#ButtonShadow-0"
       y1="6.132"
       y2="90.239"
       x2="0"
       gradientUnits="userSpaceOnUse" />
    <linearGradient
       gradientTransform="matrix(-1 0 0 1 -195.75466 0)"
       xlink:href="#linearGradient4060"
       id="linearGradient4078"
       y1="358.633"
       x1="-95.714"
       y2="340.206"
       gradientUnits="userSpaceOnUse"
       x2="-72.077" />
    <linearGradient
       gradientTransform="translate(114.19774 100.76272)"
       xlink:href="#linearGradient4038"
       id="linearGradient4315"
       y1="350.538"
       x1="-144.296"
       y2="340.296"
       gradientUnits="userSpaceOnUse"
       x2="-87.185" />
    <linearGradient
       xlink:href="#linearGradient4060"
       id="linearGradient4076"
       y1="358.633"
       x1="-95.714"
       y2="340.206"
       gradientUnits="userSpaceOnUse"
       x2="-72.077" />
    <linearGradient
       gradientTransform="matrix(1.00587 0 0 .99417 100 0)"
       id="ButtonShadow-0"
       y1="92.54"
       y2="7.017"
       x2="0"
       gradientUnits="userSpaceOnUse">
      <stop
         offset="0"
         id="stop18" />
      <stop
         offset="1"
         stop-opacity=".588"
         id="stop20" />
    </linearGradient>
    <linearGradient
       id="linearGradient4379">
      <stop
         offset="0"
         stop-color="#fff"
         stop-opacity="0"
         id="stop23" />
      <stop
         offset=".128"
         stop-color="#fff"
         stop-opacity="0"
         id="stop25" />
      <stop
         offset="1"
         stop-color="#fff"
         stop-opacity=".795"
         id="stop27" />
    </linearGradient>
    <linearGradient
       id="linearGradient4060">
      <stop
         offset="0"
         stop-color="#eeeeec"
         id="stop30" />
      <stop
         offset="1"
         stop-color="#eeeeec"
         stop-opacity=".339"
         id="stop32" />
    </linearGradient>
    <linearGradient
       id="linearGradient4046">
      <stop
         offset="0"
         stop-color="#2eff25"
         id="stop35" />
      <stop
         offset="1"
         id="stop37" />
    </linearGradient>
    <linearGradient
       id="linearGradient4092">
      <stop
         offset="0"
         stop-color="#97f593"
         id="stop40" />
      <stop
         offset="1"
         stop-color="#33a41d"
         stop-opacity=".008"
         id="stop42" />
    </linearGradient>
    <linearGradient
       id="linearGradient3188"
       xlink:href="#linearGradient3737"
       y1="6"
       y2="63.893"
       x2="0"
       gradientUnits="userSpaceOnUse" />
    <linearGradient
       id="linearGradient4038">
      <stop
         offset="0"
         stop-color="#1bc513"
         id="stop46" />
      <stop
         offset="1"
         id="stop48" />
    </linearGradient>
    <linearGradient
       id="linearGradient3737">
      <stop
         offset="0"
         stop-color="#fff"
         id="stop51" />
      <stop
         offset="1"
         stop-color="#fff"
         stop-opacity="0"
         id="stop53" />
    </linearGradient>
    <radialGradient
       cx="48"
       cy="90.172"
       gradientTransform="matrix(1.15731,0,0,0.99591,-7.55102,0.19713)"
       r="42"
       id="radialGradient3619"
       xlink:href="#linearGradient3737"
       gradientUnits="userSpaceOnUse" />
    <radialGradient
       cx="-115.961"
       cy="337.419"
       gradientTransform="matrix(.39071 0 0 .47692 36.12696 279.19433)"
       xlink:href="#linearGradient4092"
       id="radialGradient4389"
       r="39.234"
       gradientUnits="userSpaceOnUse" />
    <radialGradient
       cx="48"
       cy="81.301"
       gradientTransform="matrix(1.20838 0 0 1.20838 -10.0023 -18.7543)"
       id="radialGradient4353"
       r="42"
       gradientUnits="userSpaceOnUse">
      <stop
         offset="0"
         stop-color="#43ff2a"
         id="stop58" />
      <stop
         offset="1"
         stop-color="#062f04"
         id="stop60" />
    </radialGradient>
  </defs>
  <path
     opacity=".08"
     fill="url(#linearGradient3780)"
     d="m12-95.0312c-5.5111,0-10.0312,4.5202-10.0312,10.0312v71c0,5.5111 4.5202,10.0312 10.0312,10.0312h72c5.5111,0 10.0312-4.5202 10.0312-10.0312v-71c0-5.5111-4.5202-10.0312-10.0312-10.0312h-72z"
     transform="scale(1 -1)"
     id="path62" />
  <path
     opacity=".1"
     fill="url(#linearGradient3780)"
     d="m12-94.0312c-4.9716,0-9.0312,4.0596-9.0312,9.0312v71c0,4.9716 4.0596,9.0312 9.0312,9.0312h72c4.9716,0 9.0312-4.0596 9.0312-9.0312v-71c0-4.9716-4.0596-9.0312-9.0312-9.0312h-72z"
     transform="scale(1 -1)"
     id="path64" />
  <path
     opacity=".2"
     fill="url(#linearGradient3780)"
     d="m12-93c-4.4091,0-8,3.5909-8,8v71c0,4.4091 3.5909,8 8,8h72c4.4091,0 8-3.5909 8-8v-71c0-4.4091-3.5909-8-8-8h-72z"
     transform="scale(1 -1)"
     id="path66" />
  <path
     opacity=".3"
     fill="url(#linearGradient3780)"
     d="m12-92h72a7,7 0 0,1 7,7v71a7,7 0 0,1 -7,7h-72a7,7 0 0,1 -7-7v-71a7,7 0 0,1 7-7"
     transform="scale(1 -1)"
     id="path68" />
  <path
     opacity=".45"
     fill="url(#linearGradient3721)"
     d="m12-91h72a6,6 0 0,1 6,6v72a6,6 0 0,1 -6,6h-72a6,6 0 0,1 -6-6v-72a6,6 0 0,1 6-6"
     transform="scale(1 -1)"
     id="path70" />
  <path
     fill="url(#radialGradient4353)"
     d="m12,6h72a6,6 0 0,1 6,6v72a6,6 0 0,1 -6,6h-72a6,6 0 0,1 -6-6v-72a6,6 0 0,1 6-6"
     id="path72" />
  <path
     d="m48,7.5312c-21.6713,0-39.25,14.7536-39.25,32.9375-0,.0103 0,.0209 0,.0312 .0008,.6824 .0441,1.3593 .0938,2.0312 .0008,.0103-.0008,.0209 0,.0312 .0504,.6718 .1209,1.3399 .2188,2 .0015,.0102-.0015,.0211 0,.0312 .1986,1.3301 .4927,2.6308 .875,3.9062 .0029,.0096-.0029,.0217 0,.0312 .1904,.6329 .4227,1.2573 .6562,1.875 .0035,.0092-.0035,.0221 0,.0312 .4719,1.2444 1.0496,2.4498 1.6875,3.625 .0044,.0082-.0044,.0231 0,.0312 .3175,.5836 .6437,1.1541 1,1.7188 .0049,.0077-.0049,.0235 0,.0312 .3571,.5649 .7618,1.1115 1.1562,1.6562 .005,.007-.005,.0243 0,.0312 .3951,.5448 .8189,1.0703 1.25,1.5938 .0053,.0064-.0053,.0249 0,.0312 2.1788,2.6422 4.8292,4.9939 7.8125,7 .598,.4021 1.1867,.8146 1.8125,1.1875 .7668-.0842 1.5809-.125 2.375-.125 .3581,0 .7097,.0138 1.0625,.0312 .1904,.0143 .3738,.0167 .5625,.0312 .6194,6.9726 5.2595,12.01 11.1875,14.4062-3.1484-2.7949-4.1599-7.0044-4.375-12.6562 .419,.1902 .852,.3769 1.25,.5938 .1142,.0615 .2313,.1239 .3438,.1875 .1386,.0794 .2704,.1675 .4062,.25 1.3723,.8228 2.5828,1.7883 3.625,2.9062 .0051,.0055-.0051,.0258 0,.0312 .5073,.0679 1.0471,.1054 1.5625,.1562 1.0308,.1016 2.0714,.185 3.125,.2188 .5268,.0169 1.0324,.0312 1.5625,.0312 .5297,0 1.0698-.0144 1.5938-.0312 1.0478-.0338 2.0999-.1171 3.125-.2188 .5125-.0508 1.0243-.0884 1.5312-.1562 .0051-.0055-.0051-.0258 0-.0312 .1317-.1413 .2686-.2697 .4062-.4062 .2558-.2548 .5063-.5101 .7812-.75 1.2844-1.1044 2.8009-2.0377 4.4375-2.7812-.3844,5.6637-2.0318,9.8956-5.1875,12.6875 5.938-2.3907 11.282-7.4546 12-14.4375 .1887-.0146 .3721-.0169 .5625-.0312 .3528-.0174 .7044-.0312 1.0625-.0312 .8049,0 1.5982,.0385 2.375,.125 .6254-.3729 1.2463-.7853 1.8438-1.1875 8.9622-6.0327 14.7188-15.2953 14.7188-25.6875-.0099-9.0797-4.4123-17.3266-11.5-23.2812-.887-.7452-1.8129-1.4536-2.7812-2.125-.4842-.3357-.9655-.6525-1.4688-.9688-1.0066-.6324-2.0781-1.2309-3.1562-1.7812-.5391-.2752-1.0693-.5276-1.625-.7812-2.2229-1.0144-4.5746-1.8582-7.0312-2.5-3.0708-.8023-6.3124-1.2951-9.6562-1.4375-.6688-.0285-1.354-.0625-2.0312-.0625zm9.25,76.75c-2.8319,1.3243-6.0683,2.0938-9.5,2.0938-3.2932,0-6.3768-.7114-9.125-1.9375l-2.25,2.8125c2.1783,1.3403 4.5702,2.2474 7.0625,2.75h9.125c2.4923-.5026 4.8842-1.4097 7.0625-2.75l-2.375-2.9688z"
     id="path74" />
  <g
     transform="translate(32.06788 -401.39378)"
     id="g76">
    <path
       fill="url(#linearGradient4315)"
       d="m15.9477,407.9375c-21.6713,0-39.25,14.7536-39.25,32.9375 0,11.0892 6.5492,20.8778 16.5625,26.8438 .7668-.0842 1.5497-.125 2.3438-.125 .5585,0 1.1111,.0516 1.6562,.0937 .6194,6.9726 5.2595,12.01 11.1875,14.4062-3.1543-2.8002-4.1939-7.0195-4.4062-12.6875 2.1979,.9928 4.1272,2.3285 5.6562,3.9688 2.0291,.2716 4.1298,.4062 6.25,.4062 2.1188,0 4.191-.135 6.2188-.4062 1.5203-1.6308 3.4429-2.9461 5.625-3.9375-.3844,5.6637-2.0318,9.8956-5.1875,12.6875 5.938-2.3908 11.282-7.4546 12-14.4375 .5452-.0421 1.0978-.0937 1.6562-.0937 .8049,0 1.5982,.0385 2.375,.125 10.0069-5.9666 16.5312-15.7587 16.5312-26.8438 0-18.1839-17.5475-32.9375-39.2188-32.9375z"
       id="path78" />
    <path
       opacity=".5"
       fill="url(#linearGradient4317)"
       d="m11.7274,470.6258-1.8224,0c-7.6626-5.3591-18.0605-3.6666-18.6798-9.2032-.6194-5.5367 .2734-7.4264-.729-9.7955-1.375-5.6762-8.1094-7.5244-7.6542-11.6179 2.4515-20.0624 17.0165-26.3107 38.9998-27.9742v58.7731z"
       id="path80" />
    <path
       fill="url(#radialGradient4389)"
       d="m15.9477,407.9458c-21.6713,0-39.25,14.7536-39.25,32.9375 0,11.0892 6.5492,20.8778 16.5625,26.8438 .7668-.0842 1.5497-.125 2.3438-.125 5.7293,0 10.8158,2.265 14.0938,5.7812 2.0291,.2716 4.1298,.4062 6.25,.4062 2.1188,0 4.191-.135 6.2188-.4062 3.2779-3.5162 8.3645-5.7812 14.0938-5.7812 .8049,0 1.5982,.0385 2.375,.125 10.0069-5.9666 16.5312-15.7587 16.5312-26.8438 0-18.1839-17.5475-32.9375-39.2188-32.9375z"
       id="path82" />
    <path
       fill="#0e640a"
       d="m25.1977,484.6646c-2.8319,1.3243-6.0683,2.0938-9.5,2.0938-3.2932,0-6.3768-.7114-9.125-1.9375l-2.25,2.8125c6.9706,4.289 16.2482,4.289 23.2188,0l-2.3438-2.9688z"
       id="path84" />
    <path
       fill="#fff"
       d="m13.5834,467.6988c0,0 .0805,1.4497 .6443,1.9491 .6705,.7529 .6654,1.844 .3705,2.8672-.1128,.4832-1.4658,.3222-1.4658-.0967-.4097-2.0147-.0176-3.0712 .0644-4.7841z"
       id="path86" />
    <path
       fill="#fff"
       d="m18.2934,467.6988c0,0-.0805,1.4497-.6443,1.9491-.6705,.7529-.6654,1.844-.3705,2.8672 .1128,.4832 1.4658,.3222 1.4658-.0967 .4097-2.0147 .0176-3.0712-.0644-4.7841z"
       id="path88" />
  </g>
  <g
     transform="translate(145.87733 -300.63106)"
     id="g90">
    <path
       opacity=".5"
       fill="url(#linearGradient4076)"
       d="m-96.7447,362.7114 0,1.4579c8.0891-.8162 17.4375-3.6257 25.1494-16.8118 .1827-5.2037-.2783-7.6781-4.0093-12.3014-.8317,18.7355-12.0391,27.0023-21.1401,27.6553z"
       id="path92" />
    <path
       opacity=".5"
       fill="url(#linearGradient4078)"
       d="m-99.01,362.7114 0,1.4579c-8.0891-.8162-17.4375-3.6257-25.1494-16.8118-.1827-5.2037 .2783-7.6781 4.0093-12.3014 .8317,18.7355 12.0391,27.0023 21.1401,27.6553z"
       id="path94" />
  </g>
  <g
     transform="translate(146.26562 -401.39378)"
     id="g96">
    <path
       d="m-116.4669,457.3283-.1831,4.9175c3.2568,3.2541 5.6377,3.8633 11.4943,3.853l.082-.8319c-6.5779-2.5011-10.0833-6.4336-11.3932-7.9386z"
       id="path98" />
    <path
       fill="#fff"
       d="m-116.1876,458.2756 0,4.6552c3.1934,2.9616 5.4657,3.4537 11.0018,3.2377l.0483-.7893c-6.3065-2.1329-9.7588-5.727-11.0502-7.1037z"
       id="path100" />
    <path
       d="m-80.0217,457.3981 .1831,4.9175c-3.2568,3.2541-5.6377,3.8633-11.4943,3.853l-.082-.8319c6.5779-2.5011 10.0833-6.4336 11.3932-7.9386z"
       id="path102" />
    <path
       opacity=".12"
       fill="#fff"
       stroke="#fff"
       stroke-width="4"
       d="m-80.301,458.3453 0,4.6552c-3.1934,2.9616-5.4657,3.4537-11.0018,3.2377l-.0483-.7893c6.3065-2.1329 9.7588-5.727 11.0502-7.1037z"
       id="path104" />
    <path
       fill="#fff"
       d="m-80.301,458.3453 0,4.6552c-3.1934,2.9616-5.4657,3.4537-11.0018,3.2377l-.0483-.7893c6.3065-2.1329 9.7588-5.727 11.0502-7.1037z"
       id="path106" />
    <path
       opacity=".2"
       fill="#fff"
       stroke="#fff"
       stroke-linejoin="round"
       stroke-linecap="round"
       stroke-width="2"
       d="m-80.301,458.3453 0,4.6552c-3.1934,2.9616-5.4657,3.4537-11.0018,3.2377l-.0483-.7893c6.3065-2.1329 9.7588-5.727 11.0502-7.1037z"
       id="path108" />
    <path
       opacity=".12"
       fill="#fff"
       stroke="#fff"
       stroke-linejoin="round"
       stroke-linecap="round"
       stroke-width="4"
       d="m-116.1876,458.2756 0,4.6552c3.1934,2.9616 5.4657,3.4537 11.0018,3.2377l.0483-.7893c-6.3065-2.1329-9.7588-5.727-11.0502-7.1037z"
       id="path110" />
    <path
       opacity=".2"
       fill="#fff"
       stroke="#fff"
       stroke-linejoin="round"
       stroke-linecap="round"
       stroke-width="2"
       d="m-116.1876,458.2756 0,4.6552c3.1934,2.9616 5.4657,3.4537 11.0018,3.2377l.0483-.7893c-6.3065-2.1329-9.7588-5.727-11.0502-7.1037z"
       id="path112" />
  </g>
  <path
     style="opacity:0.35;fill:url(#linearGradient3188)"
     d="M 12,6 C 8.11425,5.86322 5.41842,9.7916 6,13.4226 6.01817,37.1117 5.96368,60.8028 6.02721,84.4906 5.28209,86.8321 10.5384,90.3041 9.3125,89.2189 6.06848,87.1934 7.20936,83.0941 7,79.918 7.01709,57.4408 6.96584,34.9619 7.02559,12.4857 7.23712,9.18528 10.6966,7.53718 13.6597,8.0003 37.2778,8.01738 60.8976,7.96615 84.5146,8.02589 87.815,8.23742 89.4631,11.6969 89,14.66 c -0.023,23.6263 0.047,47.2557 -0.035,70.8801 0.6395,2.1759 -4.9497,5.3487 -1.452,3.2815 3.5336,-2.4814 2.2373,-6.9817 2.4873,-10.6151 -0.021,-22.2736 0.041,-44.5493 -0.031,-66.8216 C 89.7162,7.60958 85.8109,5.47608 82.3404,6.0001 58.8936,6.00003 35.4467,6.00023 12,6 Z"
     id="path114"
     inkscape:connector-curvature="0" />
  <path
     style="opacity:0.2;fill:url(#radialGradient3619)"
     d="M 12,90 C 8.11425,90.1368 5.41842,86.2084 6,82.5774 6.01817,58.8883 5.96368,35.1972 6.02721,11.5094 5.28209,9.16789 10.5384,5.69592 9.3125,6.7811 6.06848,8.80663 7.20936,12.9059 7,16.082 c 0.0171,22.4772 -0.0342,44.9561 0.0256,67.4323 0.21153,3.3004 3.67101,4.9485 6.63411,4.4854 23.6181,-0.017 47.2379,0.034 70.8549,-0.026 3.3004,-0.2115 4.9485,-3.671 4.4854,-6.6341 -0.023,-23.6263 0.047,-47.2557 -0.035,-70.8801 0.6395,-2.17591 -4.9497,-5.34874 -1.452,-3.28154 3.5336,2.48139 2.2373,6.98174 2.4873,10.61514 -0.021,22.2736 0.041,44.5493 -0.031,66.8216 -0.253,3.7753 -4.1583,5.9088 -7.6288,5.3848 C 58.8936,90 35.4467,89.9998 12,90 Z"
     id="path116"
     inkscape:connector-curvature="0" />
  <path
     fill="url(#linearGradient4391)"
     d="m12,6c-3.324,0-6,2.676-6,6v69.7812c4.42-.1358 10.0634,.1586 14.25-3.2812 14.6917-12.0713 35.0659-29.5355 44.5659-33.5355 12.9646-6.1291 21.0645,3.9137 25.1841,9.723v-42.6875c0-3.324-2.676-6-6-6z"
     id="path118" />
</svg>
