<?xml version="1.0" encoding="UTF-8" standalone="no"?>
<!-- Created with Inkscape (http://www.inkscape.org/) -->

<svg
   xmlns:dc="http://purl.org/dc/elements/1.1/"
   xmlns:cc="http://creativecommons.org/ns#"
   xmlns:rdf="http://www.w3.org/1999/02/22-rdf-syntax-ns#"
   xmlns:svg="http://www.w3.org/2000/svg"
   xmlns="http://www.w3.org/2000/svg"
   xmlns:xlink="http://www.w3.org/1999/xlink"
   xmlns:sodipodi="http://sodipodi.sourceforge.net/DTD/sodipodi-0.dtd"
   xmlns:inkscape="http://www.inkscape.org/namespaces/inkscape"
   version="1.0"
   width="96"
   height="96"
   id="svg2408"
   inkscape:version="0.91 r"
   sodipodi:docname="amarok.svg">
  <title
     id="title162">amarok</title>
  <sodipodi:namedview
     pagecolor="#ffffff"
     bordercolor="#666666"
     borderopacity="1"
     objecttolerance="10"
     gridtolerance="10"
     guidetolerance="10"
     inkscape:pageopacity="0"
     inkscape:pageshadow="2"
     inkscape:window-width="1280"
     inkscape:window-height="965"
     id="namedview156"
     showgrid="false"
     inkscape:zoom="4.91667"
     inkscape:cx="47.9827"
     inkscape:cy="30.2253"
     inkscape:window-x="0"
     inkscape:window-y="27"
     inkscape:window-maximized="1"
     inkscape:current-layer="svg2408" />
  <defs
     id="defs2410">
    <radialGradient
       cx="622.72803"
       cy="621.17328"
       r="510.71881"
       fx="622.72803"
       fy="621.17328"
       id="radialGradient3809"
       gradientUnits="userSpaceOnUse">
      <stop
         id="stop3811"
         style="stop-color:#f0f0f0;stop-opacity:1"
         offset="0" />
      <stop
         id="stop3813"
         style="stop-color:#e1e1e1;stop-opacity:1"
         offset="0.2814" />
      <stop
         id="stop3815"
         style="stop-color:#c0c0c0;stop-opacity:1"
         offset="0.75150001" />
      <stop
         id="stop3817"
         style="stop-color:#b2b2b2;stop-opacity:1"
         offset="1" />
    </radialGradient>
    <linearGradient
       id="linearGradient3985">
      <stop
         id="stop3987"
         style="stop-color:#000000;stop-opacity:1"
         offset="0" />
      <stop
         id="stop3989"
         style="stop-color:#000000;stop-opacity:0"
         offset="1" />
    </linearGradient>
    <linearGradient
       x1="45.447727"
       y1="92.539597"
       x2="45.447727"
       y2="7.0165396"
       id="ButtonShadow"
       gradientUnits="userSpaceOnUse"
       gradientTransform="scale(1.0058652,0.994169)">
      <stop
         id="stop3750"
         style="stop-color:#000000;stop-opacity:1"
         offset="0" />
      <stop
         id="stop3752"
         style="stop-color:#000000;stop-opacity:0.58823532"
         offset="1" />
    </linearGradient>
    <linearGradient
       id="linearGradient3737">
      <stop
         id="stop3739"
         style="stop-color:#ffffff;stop-opacity:1"
         offset="0" />
      <stop
         id="stop3741"
         style="stop-color:#ffffff;stop-opacity:0"
         offset="1" />
    </linearGradient>
    <filter
       color-interpolation-filters="sRGB"
       id="filter3174">
      <feGaussianBlur
         id="feGaussianBlur3176"
         stdDeviation="1.71" />
    </filter>
    <linearGradient
       x1="36.357143"
       y1="6"
       x2="36.357143"
       y2="63.893143"
       id="linearGradient3188"
       xlink:href="#linearGradient3737"
       gradientUnits="userSpaceOnUse" />
    <filter
       x="-0.192"
       y="-0.192"
       width="1.3839999"
       height="1.3839999"
       color-interpolation-filters="sRGB"
       id="filter3794">
      <feGaussianBlur
         id="feGaussianBlur3796"
         stdDeviation="5.28" />
    </filter>
    <linearGradient
       x1="48"
       y1="20.220806"
       x2="48"
       y2="138.66119"
       id="linearGradient3613"
       xlink:href="#linearGradient3737"
       gradientUnits="userSpaceOnUse" />
    <radialGradient
       cx="48"
       cy="90.171875"
       r="42"
       fx="48"
       fy="90.171875"
       id="radialGradient3619"
       xlink:href="#linearGradient3737"
       gradientUnits="userSpaceOnUse"
       gradientTransform="matrix(1.15731,0,0,0.995908,-7.55102,0.197132)" />
    <clipPath
       id="clipPath3613">
      <rect
         width="84"
         height="84"
         rx="6"
         ry="6"
         x="6"
         y="6"
         id="rect3615"
         style="fill:#ffffff;fill-opacity:1;fill-rule:nonzero;stroke:none" />
    </clipPath>
    <linearGradient
       x1="48"
       y1="90"
       x2="48"
       y2="5.9877172"
       id="linearGradient3617"
       xlink:href="#radialGradient3809"
       gradientUnits="userSpaceOnUse"
       gradientTransform="translate(0,-96)" />
    <radialGradient
       cx="622.72803"
       cy="621.17328"
       r="510.71881"
       fx="622.72803"
       fy="621.17328"
       id="XMLID_22_"
       gradientUnits="userSpaceOnUse">
      <stop
         id="stop14"
         style="stop-color:#ffffff;stop-opacity:1"
         offset="0" />
      <stop
         id="stop16"
         style="stop-color:#e6e6e6;stop-opacity:1"
         offset="0.2814" />
      <stop
         id="stop18"
         style="stop-color:#c0c0c0;stop-opacity:1"
         offset="0.75150001" />
      <stop
         id="stop20"
         style="stop-color:#b2b2b2;stop-opacity:1"
         offset="1" />
    </radialGradient>
    <mask
       id="XMLID_23_">
      <g
         id="g31"
         style="filter:url(#Adobe_OpacityMaskFilter)">
        <radialGradient
           cx="88.977501"
           cy="-20.899401"
           r="673.11609"
           fx="88.977501"
           fy="-20.899401"
           id="XMLID_24_"
           gradientUnits="userSpaceOnUse">
          <stop
             id="stop34"
             style="stop-color:#ffffff;stop-opacity:1"
             offset="0.30899999" />
          <stop
             id="stop36"
             style="stop-color:#000000;stop-opacity:1"
             offset="1" />
        </radialGradient>
        <ellipse
           cx="295.89499"
           cy="286.172"
           rx="512.93402"
           ry="349.10599"
           id="ellipse38"
           style="fill:url(#XMLID_24_) #000000" />
      </g>
    </mask>
    <mask
       id="XMLID_13_">
      <g
         id="g193"
         style="filter:url(#Adobe_OpacityMaskFilter_4_)">
        <linearGradient
           x1="340.0488"
           y1="266.93359"
           x2="372.38071"
           y2="417.81519"
           id="XMLID_14_"
           gradientUnits="userSpaceOnUse">
          <stop
             id="stop196"
             style="stop-color:#ffffff;stop-opacity:1"
             offset="0" />
          <stop
             id="stop198"
             style="stop-color:#f8f8f8;stop-opacity:1"
             offset="0.0867" />
          <stop
             id="stop200"
             style="stop-color:#e4e4e4;stop-opacity:1"
             offset="0.2156" />
          <stop
             id="stop202"
             style="stop-color:#c2c2c2;stop-opacity:1"
             offset="0.37079999" />
          <stop
             id="stop204"
             style="stop-color:#949494;stop-opacity:1"
             offset="0.54650003" />
          <stop
             id="stop206"
             style="stop-color:#595959;stop-opacity:1"
             offset="0.73940003" />
          <stop
             id="stop208"
             style="stop-color:#151515;stop-opacity:1"
             offset="0.94379997" />
          <stop
             id="stop210"
             style="stop-color:#000000;stop-opacity:1"
             offset="0.99440002" />
        </linearGradient>
        <ellipse
           cx="363.052"
           cy="374.28201"
           rx="215.32401"
           ry="183.32201"
           id="ellipse212"
           style="fill:url(#XMLID_14_) #000000" />
      </g>
    </mask>
    <mask
       id="XMLID_10_">
      <g
         id="g159">
        <radialGradient
           cx="657.2124"
           cy="155.23289"
           r="606.95343"
           fx="657.2124"
           fy="155.23289"
           id="XMLID_11_"
           gradientUnits="userSpaceOnUse"
           gradientTransform="matrix(0.931,0,0,0.9299,28.7459,21.6629)">
          <stop
             id="stop162"
             style="stop-color:#c9c9c8;stop-opacity:1"
             offset="0" />
          <stop
             id="stop164"
             style="stop-color:#c4c4c4;stop-opacity:1"
             offset="0.0881" />
          <stop
             id="stop166"
             style="stop-color:#b8b8b7;stop-opacity:1"
             offset="0.2192" />
          <stop
             id="stop168"
             style="stop-color:#a1a0a0;stop-opacity:1"
             offset="0.37689999" />
          <stop
             id="stop170"
             style="stop-color:#7f7f7e;stop-opacity:1"
             offset="0.55559999" />
          <stop
             id="stop172"
             style="stop-color:#4f4f4e;stop-opacity:1"
             offset="0.75169998" />
          <stop
             id="stop174"
             style="stop-color:#121212;stop-opacity:1"
             offset="0.95950001" />
          <stop
             id="stop176"
             style="stop-color:#000000;stop-opacity:1"
             offset="1" />
        </radialGradient>
        <circle
           cx="408.427"
           cy="444.22601"
           r="302.95401"
           id="circle178"
           style="fill:url(#XMLID_11_) #000000" />
      </g>
    </mask>
    <linearGradient
       x1="220.9512"
       y1="634.63232"
       x2="278.14471"
       y2="560.35498"
       id="XMLID_5_"
       gradientUnits="userSpaceOnUse">
      <stop
         id="stop119"
         style="stop-color:#ffffff;stop-opacity:1"
         offset="0" />
      <stop
         id="stop121"
         style="stop-color:#193d6b;stop-opacity:1"
         offset="1" />
    </linearGradient>
    <linearGradient
       x1="429.84909"
       y1="815.45459"
       x2="480.12021"
       y2="643.30768"
       id="XMLID_4_"
       gradientUnits="userSpaceOnUse"
       gradientTransform="matrix(-1.12563,0,0,1.12563,1028.91,-39.5467)">
      <stop
         id="stop112"
         style="stop-color:#ffffff;stop-opacity:1"
         offset="0" />
      <stop
         id="stop114"
         style="stop-color:#e5eaf2;stop-opacity:1"
         offset="1" />
    </linearGradient>
    <mask
       id="XMLID_2_">
      <g
         id="g86">
        <linearGradient
           x1="206.09081"
           y1="397.62061"
           x2="186.92191"
           y2="563.47321"
           id="XMLID_3_"
           gradientUnits="userSpaceOnUse">
          <stop
             id="stop89"
             style="stop-color:#ffffff;stop-opacity:1"
             offset="0" />
          <stop
             id="stop91"
             style="stop-color:#cbcbcb;stop-opacity:1"
             offset="0.1111" />
          <stop
             id="stop93"
             style="stop-color:#969696;stop-opacity:1"
             offset="0.2396" />
          <stop
             id="stop95"
             style="stop-color:#686868;stop-opacity:1"
             offset="0.3698" />
          <stop
             id="stop97"
             style="stop-color:#424242;stop-opacity:1"
             offset="0.4991" />
          <stop
             id="stop99"
             style="stop-color:#252525;stop-opacity:1"
             offset="0.62730002" />
          <stop
             id="stop101"
             style="stop-color:#111111;stop-opacity:1"
             offset="0.75419998" />
          <stop
             id="stop103"
             style="stop-color:#040404;stop-opacity:1"
             offset="0.87919998" />
          <stop
             id="stop105"
             style="stop-color:#000000;stop-opacity:1"
             offset="1" />
        </linearGradient>
        <ellipse
           cx="194.76401"
           cy="495.62299"
           rx="160.94"
           ry="123.604"
           id="ellipse107"
           style="fill:url(#XMLID_3_) #000000" />
      </g>
    </mask>
    <mask
       id="XMLID_26_">
      <g
         id="g69">
        <linearGradient
           x1="211.7222"
           y1="562.85791"
           x2="200.0733"
           y2="466.75449"
           id="XMLID_1_"
           gradientUnits="userSpaceOnUse">
          <stop
             id="stop72"
             style="stop-color:#ffffff;stop-opacity:1"
             offset="0" />
          <stop
             id="stop74"
             style="stop-color:#000000;stop-opacity:1"
             offset="1" />
        </linearGradient>
        <ellipse
           cx="203.617"
           cy="495.98801"
           rx="80.542"
           ry="59.682999"
           id="ellipse76"
           style="fill:url(#XMLID_1_) #000000" />
      </g>
    </mask>
    <linearGradient
       id="linearGradient5498">
      <stop
         id="stop5500"
         style="stop-color:#eeeeee;stop-opacity:1"
         offset="0" />
      <stop
         id="stop5502"
         style="stop-color:#eeeeee;stop-opacity:0"
         offset="1" />
    </linearGradient>
    <radialGradient
       cx="375.21439"
       cy="783.16357"
       r="300.5752"
       fx="375.21439"
       fy="783.16357"
       id="radialGradient29545"
       gradientUnits="userSpaceOnUse"
       gradientTransform="matrix(1.12563,0,0,1.12563,-41.8734,-39.5467)">
      <stop
         id="stop29547"
         style="stop-color:#eeeeef;stop-opacity:0.941176"
         offset="0.0112" />
      <stop
         id="stop29549"
         style="stop-color:#6193cf;stop-opacity:1"
         offset="0.29210001" />
      <stop
         id="stop29551"
         style="stop-color:#2c72c7;stop-opacity:1"
         offset="0.45750001" />
      <stop
         id="stop29553"
         style="stop-color:#0057ae;stop-opacity:1"
         offset="0.6767" />
      <stop
         id="stop29555"
         style="stop-color:#004d9a;stop-opacity:1"
         offset="0.8653" />
      <stop
         id="stop29557"
         style="stop-color:#00438a;stop-opacity:1"
         offset="1" />
    </radialGradient>
    <linearGradient
       x1="220.36789"
       y1="756.76105"
       x2="185.21225"
       y2="491.06723"
       id="linearGradient3928"
       xlink:href="#linearGradient5498"
       gradientUnits="userSpaceOnUse"
       gradientTransform="matrix(0.084286,0,0,0.084286,12.0025,12.0075)" />
    <linearGradient
       x1="247.47713"
       y1="274.88394"
       x2="130.31757"
       y2="580.54669"
       id="linearGradient3931"
       xlink:href="#linearGradient5498"
       gradientUnits="userSpaceOnUse"
       gradientTransform="matrix(0.08428564,0,0,0.08428564,12.002509,12.007535)" />
    <linearGradient
       x1="370.62177"
       y1="-309.6048"
       x2="370.20648"
       y2="458.38397"
       id="linearGradient3934"
       xlink:href="#linearGradient5498"
       gradientUnits="userSpaceOnUse"
       gradientTransform="matrix(0.084286,0,0,0.084286,12.0025,12.0075)" />
    <linearGradient
       x1="1508.4957"
       y1="-363.42487"
       x2="361.1441"
       y2="630.52039"
       id="linearGradient3937"
       xlink:href="#linearGradient5498"
       gradientUnits="userSpaceOnUse"
       gradientTransform="matrix(0.08428564,0,0,0.08428564,12.002509,12.007535)" />
    <linearGradient
       x1="331.49609"
       y1="790.51508"
       x2="409.85471"
       y2="688.75092"
       id="linearGradient3940"
       xlink:href="#XMLID_5_"
       gradientUnits="userSpaceOnUse"
       gradientTransform="matrix(0.09487444,0,0,0.09487444,8.473189,8.6743156)" />
    <linearGradient
       x1="319.186"
       y1="713.54639"
       x2="373.12509"
       y2="626.00598"
       id="linearGradient3943"
       xlink:href="#XMLID_5_"
       gradientUnits="userSpaceOnUse"
       gradientTransform="matrix(0.09487444,0,0,0.09487444,8.473189,8.6743156)" />
    <linearGradient
       x1="264.5405"
       y1="704.23578"
       x2="335.09619"
       y2="612.60522"
       id="linearGradient3946"
       xlink:href="#XMLID_5_"
       gradientUnits="userSpaceOnUse"
       gradientTransform="matrix(0.09487444,0,0,0.09487444,8.473189,8.6743156)" />
    <linearGradient
       x1="237.20799"
       y1="684.01898"
       x2="328.18469"
       y2="565.86761"
       id="linearGradient3949"
       xlink:href="#XMLID_5_"
       gradientUnits="userSpaceOnUse"
       gradientTransform="matrix(0.09487444,0,0,0.09487444,8.473189,8.6743156)" />
    <linearGradient
       x1="220.9512"
       y1="634.63232"
       x2="278.14471"
       y2="560.35498"
       id="linearGradient3952"
       xlink:href="#XMLID_5_"
       gradientUnits="userSpaceOnUse"
       gradientTransform="matrix(0.09487444,0,0,0.09487444,8.473189,8.6743156)" />
    <linearGradient
       x1="429.84909"
       y1="815.45459"
       x2="480.12021"
       y2="643.30768"
       id="linearGradient3955"
       xlink:href="#XMLID_4_"
       gradientUnits="userSpaceOnUse"
       gradientTransform="matrix(-0.09487444,0,0,0.09487444,98.72485,8.6743156)" />
    <radialGradient
       cx="375.21439"
       cy="783.16357"
       r="300.5752"
       fx="375.21439"
       fy="783.16357"
       id="radialGradient3959"
       xlink:href="#radialGradient29545"
       gradientUnits="userSpaceOnUse"
       gradientTransform="matrix(0.09487444,0,0,0.09487444,8.473189,8.6743156)" />
    <radialGradient
       cx="663.91144"
       cy="649.22662"
       r="427.12018"
       fx="663.91144"
       fy="649.22662"
       id="radialGradient3972"
       xlink:href="#XMLID_22_"
       gradientUnits="userSpaceOnUse"
       gradientTransform="matrix(0.08428564,0,0,0.08428564,12.002509,12.007534)" />
    <linearGradient
       x1="13.1875"
       y1="48"
       x2="82.8125"
       y2="48"
       id="linearGradient3991"
       xlink:href="#linearGradient3985"
       gradientUnits="userSpaceOnUse"
       gradientTransform="matrix(0,1,-1,0,96,0)" />
    <linearGradient
       x1="45.447727"
       y1="92.539597"
       x2="45.447727"
       y2="7.0165396"
       id="ButtonShadow-0"
       gradientUnits="userSpaceOnUse"
       gradientTransform="matrix(1.0058652,0,0,0.994169,100,0)">
      <stop
         id="stop3750-8"
         style="stop-color:#000000;stop-opacity:1"
         offset="0" />
      <stop
         id="stop3752-5"
         style="stop-color:#000000;stop-opacity:0.58823532"
         offset="1" />
    </linearGradient>
    <linearGradient
       x1="32.251034"
       y1="6.1317081"
       x2="32.251034"
       y2="90.238609"
       id="linearGradient3780"
       xlink:href="#ButtonShadow-0"
       gradientUnits="userSpaceOnUse"
       gradientTransform="matrix(1.0238095,0,0,1.0119048,-1.1428571,-98.071429)" />
    <linearGradient
       x1="32.251034"
       y1="6.1317081"
       x2="32.251034"
       y2="90.238609"
       id="linearGradient3772"
       xlink:href="#ButtonShadow-0"
       gradientUnits="userSpaceOnUse"
       gradientTransform="matrix(1.0238095,0,0,1.0119048,-1.1428571,-98.071429)" />
    <linearGradient
       x1="32.251034"
       y1="6.1317081"
       x2="32.251034"
       y2="90.238609"
       id="linearGradient3725"
       xlink:href="#ButtonShadow-0"
       gradientUnits="userSpaceOnUse"
       gradientTransform="matrix(1.0238095,0,0,1.0119048,-1.1428571,-98.071429)" />
    <linearGradient
       x1="32.251034"
       y1="6.1317081"
       x2="32.251034"
       y2="90.238609"
       id="linearGradient3721"
       xlink:href="#ButtonShadow-0"
       gradientUnits="userSpaceOnUse"
       gradientTransform="translate(0,-97)" />
    <linearGradient
       x1="32.251034"
       y1="6.1317081"
       x2="32.251034"
       y2="90.238609"
       id="linearGradient3059"
       xlink:href="#ButtonShadow-0"
       gradientUnits="userSpaceOnUse"
       gradientTransform="matrix(1.0238095,0,0,1.0119048,-1.1428571,-98.071429)" />
  </defs>
  <metadata
     id="metadata2413">
    <rdf:RDF>
      <cc:Work
         rdf:about="">
        <dc:format>image/svg+xml</dc:format>
        <dc:type
           rdf:resource="http://purl.org/dc/dcmitype/StillImage" />
        <dc:title>amarok</dc:title>
        <dc:subject>
          <rdf:Bag>
            <rdf:li>amarok</rdf:li>
            <rdf:li>audio</rdf:li>
            <rdf:li>audioplayer</rdf:li>
            <rdf:li>sound</rdf:li>
          </rdf:Bag>
        </dc:subject>
        <dc:description>amarok, audio, audioplayer, sound</dc:description>
      </cc:Work>
    </rdf:RDF>
  </metadata>
  <g
     id="layer2"
     style="display:none">
    <rect
       width="86"
       height="85"
       rx="6"
       ry="6"
       x="5"
       y="7"
       id="rect3745"
       style="opacity:0.9;fill:url(#ButtonShadow);fill-opacity:1;fill-rule:nonzero;stroke:none;filter:url(#filter3174)" />
  </g>
  <g
     id="layer4"
     style="display:inline">
    <path
       d="m 12,-95.03125 c -5.5110903,0 -10.03125,4.52016 -10.03125,10.03125 l 0,71 c 0,5.5110902 4.5201598,10.03125 10.03125,10.03125 l 72,0 c 5.51109,0 10.03125,-4.5201597 10.03125,-10.03125 l 0,-71 c 0,-5.51109 -4.52016,-10.03125 -10.03125,-10.03125 l -72,0 z"
       transform="scale(1,-1)"
       id="path3786"
       style="opacity:0.07999998;fill:url(#linearGradient3059);fill-opacity:1;fill-rule:nonzero;stroke:none;display:inline" />
    <path
       d="m 12,-94.03125 c -4.971633,0 -9.03125,4.059617 -9.03125,9.03125 l 0,71 c 0,4.9716329 4.0596171,9.03125 9.03125,9.03125 l 72,0 c 4.971633,0 9.03125,-4.059617 9.03125,-9.03125 l 0,-71 c 0,-4.971633 -4.059617,-9.03125 -9.03125,-9.03125 l -72,0 z"
       transform="scale(1,-1)"
       id="path3778"
       style="opacity:0.1;fill:url(#linearGradient3780);fill-opacity:1;fill-rule:nonzero;stroke:none;display:inline" />
    <path
       d="m 12,-93 c -4.4091333,0 -8,3.590867 -8,8 l 0,71 c 0,4.4091333 3.5908667,8 8,8 l 72,0 c 4.409133,0 8,-3.5908667 8,-8 l 0,-71 c 0,-4.409133 -3.590867,-8 -8,-8 l -72,0 z"
       transform="scale(1,-1)"
       id="path3770"
       style="opacity:0.2;fill:url(#linearGradient3772);fill-opacity:1;fill-rule:nonzero;stroke:none;display:inline" />
    <rect
       width="86"
       height="85"
       rx="7"
       ry="7"
       x="5"
       y="-92"
       transform="scale(1,-1)"
       id="rect3723"
       style="opacity:0.3;fill:url(#linearGradient3725);fill-opacity:1;fill-rule:nonzero;stroke:none;display:inline" />
    <rect
       width="84"
       height="84"
       rx="6"
       ry="6"
       x="6"
       y="-91"
       transform="scale(1,-1)"
       id="rect3716"
       style="opacity:0.45;fill:url(#linearGradient3721);fill-opacity:1;fill-rule:nonzero;stroke:none;display:inline" />
  </g>
  <g
     id="layer1">
    <rect
       width="84"
       height="84"
       rx="6"
       ry="6"
       x="6"
       y="-90"
       transform="scale(1,-1)"
       id="rect2419"
       style="fill:url(#linearGradient3617);fill-opacity:1;fill-rule:nonzero;stroke:none" />
    <path
       style="opacity:0.5;fill:url(#linearGradient3188);fill-opacity:1;fill-rule:nonzero;stroke:none"
       d="M 12,6 C 8.11425,5.86322 5.41842,9.7916 6,13.4226 6.01818,37.1117 5.96366,60.8028 6.02722,84.4906 5.28212,86.832 10.5383,90.304 9.3125,89.2188 6.06854,87.1931 7.20932,83.0939 7,79.9177 7.01709,57.4405 6.96584,34.9616 7.02559,12.4854 7.23709,9.18494 10.6966,7.53688 13.6597,8 c 23.6181,0.0171 47.2379,-0.0342 70.8549,0.0256 3.3005,0.2115 4.9485,3.67101 4.4854,6.63411 -0.023,23.6263 0.047,47.2557 -0.035,70.8801 0.6394,2.1759 -4.9496,5.3488 -1.4521,3.2816 C 91.0463,86.3401 89.75,81.8397 90,78.2064 89.9794,55.9328 90.0412,33.6571 89.9691,11.3848 89.7161,7.60949 85.8108,5.47598 82.3403,6 58.8935,6 35.4468,6 12,6 Z"
       id="rect3728"
       inkscape:connector-curvature="0" />
    <path
       style="opacity:0.25;fill:url(#radialGradient3619);fill-opacity:1;fill-rule:nonzero;stroke:none"
       d="M 12,90 C 8.11425,90.1368 5.41842,86.2084 6,82.5774 6.01818,58.8883 5.96366,35.1972 6.02722,11.5094 5.28212,9.16796 10.5383,5.696 9.3125,6.78125 6.06854,8.80692 7.20932,12.9061 7,16.0823 c 0.0171,22.4772 -0.0342,44.9561 0.0256,67.4323 0.2115,3.3005 3.67101,4.9485 6.63411,4.4854 23.6181,-0.017 47.2379,0.034 70.8549,-0.026 C 87.8151,87.7629 89.4631,84.3034 89,81.3403 88.9765,57.714 89.0469,34.0846 88.9648,10.4602 89.6042,8.28431 84.0152,5.11138 87.5127,7.17856 91.0463,9.65991 89.75,14.1603 90,17.7936 89.9794,40.0672 90.0412,62.3429 89.9691,84.6152 89.7161,88.3905 85.8108,90.524 82.3403,90 58.8935,90 35.4468,90 12,90 Z"
       id="path3615"
       inkscape:connector-curvature="0" />
  </g>
  <g
     id="layer5">
    <rect
       width="66"
       height="66"
       rx="12"
       ry="12"
       x="15"
       y="15"
       clip-path="url(#clipPath3613)"
       id="rect3171"
       style="opacity:0.1;fill:url(#linearGradient3613);fill-opacity:1;fill-rule:nonzero;stroke:#ffffff;stroke-width:0.5;stroke-linecap:round;stroke-linejoin:miter;stroke-miterlimit:4;stroke-opacity:1;stroke-dasharray:none;stroke-dashoffset:0;filter:url(#filter3794)" />
  </g>
  <g
     id="layer3">
    <path
       d="m 82.816581,48.007534 c 0,19.217365 -15.596702,34.814066 -34.814068,34.814066 -19.21736,0 -34.814066,-15.596701 -34.814066,-34.814066 0,-19.217366 15.596706,-34.814069 34.814066,-34.814069 19.217366,0 34.814068,15.596703 34.814068,34.814069 z"
       inkscape:connector-curvature="0"
       id="circle22"
       style="fill:url(#radialGradient3972);fill-opacity:1;stroke:none" />
    <path
       d="m 66.71875,33.375 c -0.293778,0.198652 -0.610172,0.399525 -0.96875,0.6875 -0.473721,0.380447 -0.966925,0.807717 -1.4375,1.1875 -0.470575,0.379783 -0.807883,0.703879 -1.53125,1.03125 0.166621,-0.07537 -0.734239,0.423523 -1.65625,1 -0.922011,0.576477 -2.075581,1.30635 -3.21875,2.0625 C 56.763081,40.0999 55.625549,40.875356 54.75,41.5 c -0.437775,0.312322 -0.831184,0.60626 -1.09375,0.8125 -0.262566,0.20624 -0.462108,0.436925 -0.28125,0.21875 -1.229517,1.483772 -3.129182,2.150605 -4.84375,2.03125 -0.427756,-0.02978 -1.60014,-0.05751 -2.6875,0 -1.08736,0.05751 -2.296526,0.369957 -2.125,0.28125 0.170829,-0.08833 -0.524852,0.404447 -1.21875,0.96875 -0.693898,0.564303 -1.567504,1.267976 -2.4375,2 -0.869996,0.732024 -1.749057,1.476427 -2.53125,2.09375 -0.782193,0.617323 -1.281825,1.073079 -2.15625,1.46875 -1.788066,0.808829 -3.667495,1.14368 -4.84375,1.25 0.875508,-0.07932 0.436405,-0.129683 0.125,0.09375 -0.311405,0.223433 -0.772218,0.583364 -1.21875,0.96875 -0.893063,0.770771 -1.603185,1.506375 -2.4375,2.09375 -0.663953,0.467095 -1.053075,0.598975 -1.75,0.90625 -0.696925,0.307275 -1.513322,0.656223 -2.34375,1 -0.607501,0.251491 -1.146239,0.49438 -1.6875,0.71875 0.367308,0.547243 0.723467,1.08302 1.21875,1.71875 0.727573,0.933889 1.525968,1.867989 2.15625,2.53125 0.315141,0.33163 0.587703,0.582105 0.75,0.71875 0.162297,0.136645 0.482478,0.05442 -0.5,-0.09375 0.315305,0.04759 0.717092,-0.03548 1.4375,0.625 0.360204,0.330238 0.742496,1.053354 0.71875,1.75 -0.02375,0.696646 -0.319375,1.151257 -0.53125,1.40625 -0.42375,0.509985 -0.696299,0.597906 -0.9375,0.71875 -0.241201,0.120844 -0.454571,0.203653 -0.6875,0.28125 -0.0084,0.0028 -0.02277,-0.0028 -0.03125,0 0.342741,0.562792 0.554735,1.017354 1.09375,1.71875 1.903682,2.477176 5.067829,5.614442 10.0625,8.09375 8.465254,4.201867 14.81993,1.725012 18.625,0.5625 1.085699,-0.331676 1.49297,-0.550436 1.59375,-0.59375 0.0943,-1.29368 0.238709,-2.323753 0.40625,-3.6875 0.03609,-0.293753 0.303168,-3.982576 0.78125,-7.65625 0.239041,-1.836837 0.524863,-3.751173 0.9375,-5.46875 0.412637,-1.717577 0.855818,-3.211905 1.78125,-4.5 1.476456,-2.055717 3.81523,-3.819732 6.15625,-5.3125 1.02448,-0.653267 1.977331,-1.176154 2.90625,-1.65625 -0.57871,0.04516 -1.07805,0.10837 -1.8125,0.09375 -0.63346,-0.01261 -1.283916,-0.05726 -1.9375,-0.1875 -0.653584,-0.130238 -1.486477,-0.09825 -2.3125,-1.34375 -0.481427,-0.726212 -0.395736,-1.251726 -0.375,-1.59375 0.02074,-0.342024 0.05956,-0.572624 0.125,-0.8125 0.130882,-0.479752 0.315892,-0.941192 0.53125,-1.4375 C 63.805716,43.288633 64.380268,42.150572 65,41 c 1.239464,-2.301144 2.534646,-4.451611 2.96875,-5.125 0.145004,-0.225025 0.18704,-0.38594 0.1875,-0.46875 4.6e-4,-0.08281 0.01119,-0.185141 -0.28125,-0.53125 -0.49948,-0.590931 -0.830306,-1.071842 -1.15625,-1.5 z"
       id="path4002"
       style="opacity:0.4;fill:#323232" />
    <path
       d="m 699.57098,390.89499 c 0,162.14779 -129.16018,293.746 -288.30398,293.746 -159.1438,0 -288.30399,-131.59821 -288.30399,-293.746 0,-162.14779 129.16019,-293.746003 288.30399,-293.746003 159.1438,0 288.30398,131.598213 288.30398,293.746003 z"
       inkscape:connector-curvature="0"
       transform="matrix(0.09487444,0,0,0.09487444,8.473189,8.6743156)"
       mask="url(#XMLID_23_)"
       id="ellipse40"
       style="opacity:0.86000001;fill:#eeeeee" />
    <path
       d="M 48,13.1875 C 28.78264,13.1875 13.1875,28.782634 13.1875,48 13.1875,67.217365 28.78264,82.8125 48,82.8125 67.217366,82.8125 82.8125,67.217365 82.8125,48 82.8125,28.782634 67.217366,13.1875 48,13.1875 z m 0,3.53125 C 65.265751,16.71875 79.28125,30.734249 79.28125,48 79.28125,65.26575 65.265751,79.28125 48,79.28125 30.734254,79.28125 16.71875,65.26575 16.71875,48 16.71875,30.734249 30.734254,16.71875 48,16.71875 z"
       inkscape:connector-curvature="0"
       id="path3993"
       style="opacity:0.15;fill:#000000;fill-opacity:1;stroke:none" />
    <path
       d="M 82.8125,48 C 82.8125,28.78264 67.217366,13.1875 48,13.1875 28.782635,13.1875 13.1875,28.78264 13.1875,48 13.1875,67.217366 28.782635,82.8125 48,82.8125 67.217366,82.8125 82.8125,67.217366 82.8125,48 z m -2.28125,0 C 80.53125,65.962757 65.962757,80.53125 48,80.53125 30.037245,80.53125 15.4375,65.962757 15.4375,48 15.4375,30.037249 30.037245,15.46875 48,15.46875 65.962757,15.46875 80.53125,30.037249 80.53125,48 z"
       inkscape:connector-curvature="0"
       id="path3980"
       style="opacity:0.4;fill:url(#linearGradient3991);fill-opacity:1;stroke:none" />
    <path
       d="m 67.184222,30.781093 c -1.448734,0 -4.261854,3.02137 -5.315908,3.498399 -1.05453,0.477029 -9.401199,5.883067 -10.192073,6.837124 -0.790493,0.953961 -1.844834,1.35158 -2.98693,1.272076 -1.142004,-0.0795 -4.752734,-0.112142 -5.982592,0.523896 -1.230137,0.636038 -6.844621,5.836294 -8.250464,6.472427 -1.405659,0.635848 -3.239684,0.961837 -4.118215,1.041246 -0.878542,0.0796 -3.789098,3.013401 -4.579876,3.570125 -0.79068,0.556248 -6.571571,2.785227 -7.450004,3.262067 -0.87864,0.477123 5.165815,8.027134 6.220145,8.186142 1.054157,0.159104 -1.035643,0.938592 -3.064058,0.938592 -0.223331,0 2.898884,8.187472 13.544553,13.471882 9.203292,4.568204 16.618106,1.794076 20.244585,0.686127 2.564267,-0.783371 3.029246,-1.132701 3.117384,-2.404778 0.08795,-1.271978 0.246768,-2.277174 0.42257,-3.708166 0.175802,-1.4308 0.790398,-13.436018 3.07507,-16.616018 2.284006,-3.180095 8.813167,-6.997651 11.097364,-7.394986 2.284386,-0.397524 1.845212,-1.192476 1.845212,-1.908018 0,-0.715544 -0.35151,-2.305639 -0.966486,-2.544153 -0.615071,-0.238419 -3.014824,1.193805 -3.805506,1.352815 -0.790778,0.159008 -4.568582,0.397524 -5.0958,-0.397429 -0.527123,-0.795142 4.262043,-8.904533 4.877019,-9.858495 0.614786,-0.954056 0.878443,-2.226133 -0.263467,-3.577619 -1.142572,-1.35177 -1.93335,-2.703256 -2.372523,-2.703256 z"
       inkscape:connector-curvature="0"
       id="path43"
       style="opacity:0.22000002;fill:#323232" />
    <path
       d="m 64.101278,26.575025 c -1.405374,0 -4.133868,3.238634 -5.156519,3.749912 -1.022651,0.511372 -9.118758,6.306206 -9.885723,7.328953 -0.766965,1.022556 -1.789712,1.448732 -2.897464,1.363535 -1.107754,-0.0851 -4.609947,-0.120206 -5.802997,0.561561 -1.193237,0.681863 -6.63912,6.256114 -8.002648,6.937975 -1.36344,0.681579 -3.142342,1.030811 -3.994592,1.116103 -0.852077,0.0851 -3.675251,3.229905 -4.442215,3.826569 -0.766964,0.596666 -6.827542,3.219184 -7.679705,3.730273 -0.852251,0.511372 6.217221,7.672777 7.239872,7.843077 1.022651,0.170678 -0.969666,3.064114 -2.671952,4.050853 -2.986834,1.731335 1.252692,6.808875 11.579262,12.473011 8.927219,4.896591 19.282502,3.865211 22.79997,2.677757 2.487418,-0.840022 0.362827,-2.819466 0.448214,-4.182906 0.085,-1.363636 0.156637,-3.156569 0.327127,-4.690403 0.170585,-1.533929 0.76687,-14.40241 2.982755,-17.811151 2.215603,-3.408553 8.54847,-7.500676 10.764261,-7.926756 2.215887,-0.426082 1.789616,-1.278339 1.789616,-2.045208 0,-0.76687 -0.340789,-2.471384 -0.937453,-2.72707 -0.596477,-0.255593 -2.924124,1.279666 -3.691089,1.45006 -0.766965,0.170395 -4.431489,0.426176 -4.942956,-0.425987 -0.511279,-0.852351 4.134055,-9.544838 4.730627,-10.56749 0.596665,-1.022746 0.852161,-2.386376 -0.255781,-3.834918 -1.107471,-1.449017 -1.874529,-2.89775 -2.30061,-2.89775 z"
       inkscape:connector-curvature="0"
       id="path58"
       style="fill:url(#radialGradient3959);fill-opacity:1" />
    <path
       d="m 47.101777,42.63935 c 0,0 -3.3762,-0.519532 -5.324257,1.428619 -1.948145,1.948056 -3.63672,6.233628 -3.506465,7.532363 0.129698,1.298737 4.025902,-4.415549 5.714002,-4.805009 1.68848,-0.389743 3.506559,-3.247076 3.11672,-4.155973 z"
       inkscape:connector-curvature="0"
       id="path60"
       style="fill:#ffffff" />
    <path
       d="m 55.627,60.565394 c 0,0 -3.02118,10.284766 -3.097553,10.44368 -0.431773,0.897322 -1.22815,3.497545 -0.953962,4.337278 0.322857,0.989259 1.532979,2.427546 2.097768,3.146695 0.564787,0.719433 0.806811,1.079008 0.64543,1.348931 -0.161287,0.269727 -2.259055,0.269727 -2.259055,0.269727 0,0 -1.613528,-2.427643 -1.936481,-3.32677 -0.322573,-0.898931 -0.48405,-2.787033 -0.161192,-3.41624 C 50.284623,72.739204 55.627,60.565394 55.627,60.565394 z"
       inkscape:connector-curvature="0"
       id="path116"
       style="opacity:0.18000004;fill:url(#linearGradient3955)" />
    <path
       d="m 34.332633,62.481383 -5.519324,4.77797 6.919767,-4.118973 -1.400443,-0.658997 z"
       inkscape:connector-curvature="0"
       id="polygon123"
       style="opacity:0.2;fill:url(#linearGradient3952)" />
    <path
       d="M 39.769691,60.833984 30.378458,73.025914 41.170036,61.657588 39.769691,60.833984 z"
       inkscape:connector-curvature="0"
       id="polygon130"
       style="opacity:0.2;fill:url(#linearGradient3949);fill-opacity:1" />
    <path
       d="m 40.511138,65.035212 -7.167,11.368232 8.814492,-10.626883 -1.647492,-0.741349 z"
       inkscape:connector-curvature="0"
       id="polygon137"
       style="opacity:0.20132003;fill:url(#linearGradient3946);fill-opacity:1" />
    <path
       d="M 44.712365,64.540821 38.698658,78.627775 46.689453,64.95286 44.712365,64.540821 z"
       inkscape:connector-curvature="0"
       id="polygon144"
       style="opacity:0.2;fill:url(#linearGradient3943);fill-opacity:1" />
    <path
       d="m 47.101397,68.247944 -0.49439,12.851121 2.14179,-12.686324 -1.6474,-0.164797 z"
       inkscape:connector-curvature="0"
       id="polygon151"
       style="opacity:0.2;fill:url(#linearGradient3940);fill-opacity:1" />
    <path
       d="M 47.479801,73.482651 C 41.612073,70.872107 36.319745,67.289588 31.74768,62.833148 c -0.513295,-0.500305 -0.627971,-0.633809 -0.627971,-0.731064 0,-0.102099 0.1464,-0.247522 1.031815,-1.024932 1.803021,-1.583084 2.199709,-2.005617 2.507007,-2.670383 0.313745,-0.678712 0.962051,-1.478789 2.226567,-2.747798 2.791713,-2.801643 7.85947,-6.988455 10.249938,-8.468165 0.415451,-0.257166 0.654212,-0.443052 0.982837,-0.765177 1.042675,-1.022056 2.65765,-3.087295 6.022308,-7.701368 3.581591,-4.911561 4.787282,-6.499088 5.97936,-7.872983 0.720332,-0.830203 1.250034,-1.323026 1.455456,-1.354127 0.08729,-0.01322 0.232268,-0.03663 0.322165,-0.05205 0.08989,-0.0154 0.204778,-0.0083 0.255293,0.01579 0.05052,0.02409 0.124424,0.05415 0.16424,0.06681 0.07632,0.02425 1.529944,1.669018 2.065318,2.336888 0.641285,0.799996 0.699036,1.022758 0.378144,1.45861 -0.119764,0.162669 -0.235116,0.396602 -0.323899,0.65686 -0.152501,0.447046 -0.938179,2.035182 -2.14707,4.339998 -0.950458,1.812099 -2.236926,4.373748 -2.638975,5.254802 -0.848727,1.859896 -1.262698,3.141125 -1.154369,3.572738 0.03547,0.141301 0.249835,0.242386 0.825652,0.389326 1.346935,0.34372 2.592164,0.291678 3.752511,-0.156827 0.175516,-0.06784 0.587178,-0.278065 0.914805,-0.467167 1.000198,-0.577297 1.754153,-0.900027 2.695594,-1.153843 0.449745,-0.121253 0.556651,-0.133993 1.155858,-0.137744 0.628667,-0.0039 0.670411,0.0011 0.871916,0.104596 0.182921,0.09397 0.216445,0.131496 0.247072,0.276569 0.06901,0.326869 0.08111,0.537036 0.03367,0.584485 -0.02593,0.02593 -0.04715,0.08962 -0.04715,0.141538 0,0.212955 -0.512145,0.385031 -1.939922,0.651793 -1.497688,0.279822 -1.569998,0.309972 -2.612258,1.089161 -2.333084,1.744206 -5.963134,4.903905 -7.250871,6.311361 -0.584199,0.638513 -1.479756,1.874247 -2.686847,3.707441 -2.708285,4.113046 -4.584488,7.66501 -5.085706,9.628084 -0.09959,0.390067 -0.379771,2.151971 -0.63411,3.9876 -0.23475,1.694262 -0.245224,1.745264 -0.357624,1.741435 -0.0496,-0.0016 -0.453993,-0.164923 -0.89863,-0.362738 z"
       inkscape:connector-curvature="0"
       id="path2270"
       style="opacity:0.57999998;fill:url(#linearGradient3937);fill-opacity:1" />
    <path
       style="fill:url(#linearGradient3934);fill-opacity:1"
       d="m 31.6103,50.5873 c -0.056,-1.0401 -0.089,-2.423 0.9832,-2.9818 1.2004,-0.4175 2.0558,-1.4404 2.9962,-2.2521 1.6859,-1.5958 3.2708,-3.3069 4.9901,-4.8606 1.3223,-0.2902 2.7083,-0.1637 4.0564,-0.2388 1.028,-0.056 2.0805,0.028 3.0903,-0.1869 1.997,-1.0667 3.7974,-2.4643 5.672,-3.7277 0.3817,-0.2364 1.8253,-1.5219 1.2828,-0.297 -0.9475,1.0388 -2.2474,1.6599 -3.3027,2.5785 -1.4242,1.0331 -2.8006,2.1867 -4.4182,2.9058 -1.0149,0.069 -2.0297,0.2344 -3.0016,0.5624 -1.3187,0.4349 -2.7117,0.8377 -3.8087,1.7214 -1.3609,1.5016 -1.6952,3.5905 -2.2491,5.4703 -2.0821,0.478 -4.1785,0.9234 -6.2671,1.354 l -0.023,-0.047 -4e-4,0 z"
       id="path2476"
       inkscape:connector-curvature="0" />
    <path
       d="m 23.610807,60.931966 c -0.03229,-0.0072 -0.096,-0.01344 -0.141534,-0.01391 -0.19968,-0.0021 -0.766462,-0.288338 -1.376258,-0.69519 -0.661451,-0.441316 -1.193084,-0.863195 -1.79579,-1.425036 -0.12133,-0.113103 -0.332727,-0.307777 -0.469778,-0.432608 -0.368029,-0.335229 -0.935836,-0.905688 -1.102745,-1.107903 -0.305117,-0.369633 -0.468447,-0.641683 -0.490898,-0.817675 -0.03415,-0.26758 -0.03295,-0.330659 0.01091,-0.560828 0.0098,-0.05218 0.138883,-0.164427 0.314432,-0.273556 0.32855,-0.204229 1.027517,-0.67828 3.49019,-2.367113 3.746989,-2.569576 5.3256,-3.614274 6.157974,-4.075251 0.210895,-0.116789 0.268986,-0.129819 0.58044,-0.13015 0.298462,-3.37e-4 0.549611,0.02648 0.728073,0.07768 0.356814,0.102382 0.9084,0.317968 1.394738,0.545144 0.242771,0.113403 0.260193,0.124192 0.260193,0.161084 0,0.03561 -0.0087,0.04189 -0.08433,0.06323 -0.1746,0.04905 -0.640636,0.202491 -1.022869,0.336771 -2.322272,0.815823 -4.645952,1.940993 -6.723731,3.255772 -0.492447,0.311607 -0.549621,0.353494 -0.733549,0.53742 -0.522447,0.522442 -0.992792,1.338782 -1.12392,1.950709 -0.01833,0.08544 -0.02673,0.186915 -0.02684,0.322622 -1.64e-4,0.216393 0.02575,0.329598 0.107127,0.468391 0.321535,0.548651 1.953818,1.066733 4.065044,1.290224 0.615938,0.0652 0.899629,0.08028 1.52496,0.08105 l 0.608585,7.31e-4 0.161313,-0.05572 c 0.431313,-0.148981 1.021495,-0.486138 2.302353,-1.315284 1.109902,-0.718475 1.452469,-0.927779 1.847749,-1.128922 0.370102,-0.188333 0.557094,-0.244293 0.716454,-0.214399 0.06066,0.01138 0.07178,0.04547 0.07255,0.221334 9.6e-4,0.254307 -0.02684,0.351124 -0.15564,0.542591 -0.37224,0.553194 -1.288309,1.305011 -2.576935,2.114884 -1.082967,0.680619 -2.316371,1.311706 -2.973261,1.521301 -0.06218,0.01984 -0.229037,0.06261 -0.370746,0.09502 -0.757309,0.173208 -1.513713,0.442919 -2.513967,0.896399 -0.141611,0.0642 -0.266607,0.111061 -0.315284,0.118193 -0.14352,0.02102 -0.284563,0.02634 -0.344618,0.01297 z"
       inkscape:connector-curvature="0"
       id="path5482"
       style="opacity:0.7;fill:url(#linearGradient3931);fill-opacity:1" />
    <path
       style="fill:url(#linearGradient3928);fill-opacity:1"
       d="m 26.2163,56.6732 c -0.8727,-0.021 -1.7705,-0.046 -2.5979,-0.3525 -0.4331,-0.085 -0.3679,-0.5919 -0.1395,-0.8492 0.5967,-0.8474 1.3893,-1.5407 2.2238,-2.1469 0.1015,-0.084 0.2119,-0.1463 0.3473,-0.1402 1.6463,-0.1968 3.2923,-0.4027 4.9388,-0.594 0.308,0.021 0.6185,0.031 0.9237,0.076 0.017,0.3186 -0.2331,0.6122 -0.3723,0.8945 -0.6101,0.9774 -1.343,1.8964 -2.2447,2.6204 -0.3407,0.2841 -0.7682,0.4421 -1.2105,0.4591 -0.6215,0.043 -1.2461,0.032 -1.8687,0.033 z"
       id="path6524"
       inkscape:connector-curvature="0" />
    <path
       d="M 48,12 C 28.140916,12 12,28.140917 12,48 12,67.859081 28.140916,84 48,84 67.859081,84 84,67.859081 84,48 84,28.140917 67.859081,12 48,12 z m 0,2.373047 C 66.575649,14.373047 81.626953,29.424351 81.626953,48 81.626953,66.575649 66.575649,81.626956 48,81.626956 29.424349,81.626956 14.373044,66.575649 14.373044,48 14.373044,29.424351 29.424349,14.373047 48,14.373047 z"
       inkscape:connector-curvature="0"
       id="path3966"
       style="font-size:medium;font-style:normal;font-variant:normal;font-weight:normal;font-stretch:normal;text-indent:0;text-align:start;text-decoration:none;line-height:normal;letter-spacing:normal;word-spacing:normal;text-transform:none;direction:ltr;block-progression:tb;writing-mode:lr-tb;text-anchor:start;color:#000000;fill:#1c5eaa;fill-opacity:1;fill-rule:nonzero;stroke:none;stroke-width:4.21699429;marker:none;visibility:visible;display:inline;overflow:visible;enable-background:accumulate;font-family:Abandoned Bitplane;-inkscape-font-specification:Abandoned Bitplane" />
    <path
       d="M 85,48 C 85,68.434536 68.434536,85 48,85 27.565464,85 11,68.434536 11,48 11,27.565464 27.565464,11 48,11 68.434536,11 85,27.565464 85,48 z m -1,0 C 84,28.117749 67.882251,12 48,12 28.117749,12 12,28.117749 12,48 12,67.882251 28.117749,84 48,84 67.882251,84 84,67.882251 84,48 z"
       inkscape:connector-curvature="0"
       id="path3819"
       style="fill:#ffffff;fill-opacity:1;stroke:none" />
    <path
       d="m 48,12 c -19.859084,0 -36,16.140917 -36,36 0,0.16846 0.02894,0.332082 0.03125,0.5 C 12.301881,28.872809 28.309376,13 48,13 67.690621,13 83.698119,28.872809 83.96875,48.5 83.971065,48.332082 84,48.16846 84,48 84,28.140917 67.859081,12 48,12 z M 14.375,48.5 c -0.0025,0.168223 0,0.331186 0,0.5 0,18.575649 15.049349,33.625 33.625,33.625 18.575649,0 33.625,-15.049351 33.625,-33.625 0,-0.168814 0.0025,-0.331777 0,-0.5 C 81.35486,66.842416 66.406835,81.625 48,81.625 29.593163,81.625 14.64514,66.842416 14.375,48.5 z"
       inkscape:connector-curvature="0"
       id="path3832"
       style="font-size:medium;font-style:normal;font-variant:normal;font-weight:normal;font-stretch:normal;text-indent:0;text-align:start;text-decoration:none;line-height:normal;letter-spacing:normal;word-spacing:normal;text-transform:none;direction:ltr;block-progression:tb;writing-mode:lr-tb;text-anchor:start;color:#000000;fill:#00438a;fill-opacity:1;fill-rule:nonzero;stroke:none;stroke-width:4.21699429;marker:none;visibility:visible;display:inline;overflow:visible;enable-background:accumulate;font-family:Abandoned Bitplane;-inkscape-font-specification:Abandoned Bitplane" />
  </g>
</svg>
