<?xml version="1.0" encoding="UTF-8" standalone="no"?>
<!-- Created with Inkscape (http://www.inkscape.org/) -->

<svg
   xmlns:dc="http://purl.org/dc/elements/1.1/"
   xmlns:cc="http://creativecommons.org/ns#"
   xmlns:rdf="http://www.w3.org/1999/02/22-rdf-syntax-ns#"
   xmlns:svg="http://www.w3.org/2000/svg"
   xmlns="http://www.w3.org/2000/svg"
   xmlns:xlink="http://www.w3.org/1999/xlink"
   xmlns:sodipodi="http://sodipodi.sourceforge.net/DTD/sodipodi-0.dtd"
   xmlns:inkscape="http://www.inkscape.org/namespaces/inkscape"
   version="1.0"
   width="96"
   height="96"
   id="svg2408"
   inkscape:version="0.91 r"
   sodipodi:docname="amule.svg">
  <title
     id="title77">amule</title>
  <sodipodi:namedview
     pagecolor="#ffffff"
     bordercolor="#666666"
     borderopacity="1"
     objecttolerance="10"
     gridtolerance="10"
     guidetolerance="10"
     inkscape:pageopacity="0"
     inkscape:pageshadow="2"
     inkscape:window-width="1280"
     inkscape:window-height="965"
     id="namedview71"
     showgrid="false"
     inkscape:zoom="11.3137"
     inkscape:cx="37.5425"
     inkscape:cy="59.1071"
     inkscape:window-x="0"
     inkscape:window-y="27"
     inkscape:window-maximized="1"
     inkscape:current-layer="svg2408" />
  <defs
     id="defs2410">
    <linearGradient
       x1="45.447727"
       y1="92.539597"
       x2="45.447727"
       y2="7.0165396"
       id="ButtonShadow"
       gradientUnits="userSpaceOnUse"
       gradientTransform="scale(1.0058652,0.994169)">
      <stop
         id="stop3750"
         style="stop-color:#000000;stop-opacity:1"
         offset="0" />
      <stop
         id="stop3752"
         style="stop-color:#000000;stop-opacity:0.58823532"
         offset="1" />
    </linearGradient>
    <linearGradient
       id="linearGradient3737">
      <stop
         id="stop3739"
         style="stop-color:#ffffff;stop-opacity:1"
         offset="0" />
      <stop
         id="stop3741"
         style="stop-color:#ffffff;stop-opacity:0"
         offset="1" />
    </linearGradient>
    <linearGradient
       id="linearGradient3700">
      <stop
         id="stop3702"
         style="stop-color:#84cf18;stop-opacity:1"
         offset="0" />
      <stop
         id="stop3704"
         style="stop-color:#bff571;stop-opacity:1"
         offset="1" />
    </linearGradient>
    <linearGradient
       x1="48"
       y1="90"
       x2="48"
       y2="5.9877172"
       id="linearGradient3706"
       xlink:href="#linearGradient3700"
       gradientUnits="userSpaceOnUse" />
    <filter
       color-interpolation-filters="sRGB"
       id="filter3174">
      <feGaussianBlur
         id="feGaussianBlur3176"
         stdDeviation="1.71" />
    </filter>
    <linearGradient
       x1="36.357143"
       y1="6"
       x2="36.357143"
       y2="63.893143"
       id="linearGradient3188"
       xlink:href="#linearGradient3737"
       gradientUnits="userSpaceOnUse" />
    <radialGradient
       cx="48"
       cy="90.171875"
       r="42"
       fx="48"
       fy="90.171875"
       id="radialGradient3619"
       xlink:href="#linearGradient3737"
       gradientUnits="userSpaceOnUse"
       gradientTransform="matrix(1.1573129,0,0,0.99590774,-7.5510206,0.19713193)" />
    <linearGradient
       id="linearGradient4001">
      <stop
         id="stop4003"
         style="stop-color:#ffffff;stop-opacity:1"
         offset="0" />
      <stop
         id="stop4005"
         style="stop-color:#c7c7c7;stop-opacity:1"
         offset="1" />
    </linearGradient>
    <linearGradient
       id="linearGradient3593">
      <stop
         id="stop3595"
         style="stop-color:#0362b2;stop-opacity:1"
         offset="0" />
      <stop
         id="stop3597"
         style="stop-color:#66bbfb;stop-opacity:1"
         offset="1" />
    </linearGradient>
    <linearGradient
       x1="114.70967"
       y1="239.55312"
       x2="96.074165"
       y2="306.33884"
       id="linearGradient2890"
       xlink:href="#linearGradient3593"
       gradientUnits="userSpaceOnUse"
       gradientTransform="matrix(0.66133595,0,0,0.66133595,-26.270146,-129.43622)" />
    <linearGradient
       x1="100.5444"
       y1="268.56995"
       x2="105.47408"
       y2="246.0843"
       id="linearGradient2892"
       xlink:href="#linearGradient4001"
       gradientUnits="userSpaceOnUse"
       gradientTransform="matrix(0.66133595,0,0,0.66133595,-26.270146,-129.43622)" />
    <linearGradient
       id="linearGradient3737-6">
      <stop
         id="stop3739-1"
         style="stop-color:#ffffff;stop-opacity:1"
         offset="0" />
      <stop
         id="stop3741-5"
         style="stop-color:#ffffff;stop-opacity:0"
         offset="1" />
    </linearGradient>
    <clipPath
       id="clipPath3613">
      <rect
         width="84"
         height="84"
         rx="6"
         ry="6"
         x="6"
         y="6"
         id="rect3615"
         style="fill:#ffffff;fill-opacity:1;fill-rule:nonzero;stroke:none" />
    </clipPath>
    <filter
       x="-0.192"
       y="-0.192"
       width="1.3839999"
       height="1.3839999"
       color-interpolation-filters="sRGB"
       id="filter3794-9">
      <feGaussianBlur
         id="feGaussianBlur3796-4"
         stdDeviation="5.28" />
    </filter>
    <linearGradient
       x1="48"
       y1="20.220806"
       x2="48"
       y2="138.66119"
       id="linearGradient2862"
       xlink:href="#linearGradient3737-6"
       gradientUnits="userSpaceOnUse" />
    <linearGradient
       x1="45.447727"
       y1="92.539597"
       x2="45.447727"
       y2="7.0165396"
       id="ButtonShadow-0"
       gradientUnits="userSpaceOnUse"
       gradientTransform="matrix(1.0058652,0,0,0.994169,100,0)">
      <stop
         id="stop3750-8"
         style="stop-color:#000000;stop-opacity:1"
         offset="0" />
      <stop
         id="stop3752-5"
         style="stop-color:#000000;stop-opacity:0.58823532"
         offset="1" />
    </linearGradient>
    <linearGradient
       x1="32.251034"
       y1="6.1317081"
       x2="32.251034"
       y2="90.238609"
       id="linearGradient3780"
       xlink:href="#ButtonShadow-0"
       gradientUnits="userSpaceOnUse"
       gradientTransform="matrix(1.0238095,0,0,1.0119048,-1.1428571,-98.071429)" />
    <linearGradient
       x1="32.251034"
       y1="6.1317081"
       x2="32.251034"
       y2="90.238609"
       id="linearGradient3772"
       xlink:href="#ButtonShadow-0"
       gradientUnits="userSpaceOnUse"
       gradientTransform="matrix(1.0238095,0,0,1.0119048,-1.1428571,-98.071429)" />
    <linearGradient
       x1="32.251034"
       y1="6.1317081"
       x2="32.251034"
       y2="90.238609"
       id="linearGradient3725"
       xlink:href="#ButtonShadow-0"
       gradientUnits="userSpaceOnUse"
       gradientTransform="matrix(1.0238095,0,0,1.0119048,-1.1428571,-98.071429)" />
    <linearGradient
       x1="32.251034"
       y1="6.1317081"
       x2="32.251034"
       y2="90.238609"
       id="linearGradient3721"
       xlink:href="#ButtonShadow-0"
       gradientUnits="userSpaceOnUse"
       gradientTransform="translate(0,-97)" />
    <linearGradient
       x1="32.251034"
       y1="6.1317081"
       x2="32.251034"
       y2="90.238609"
       id="linearGradient3059"
       xlink:href="#ButtonShadow-0"
       gradientUnits="userSpaceOnUse"
       gradientTransform="matrix(1.0238095,0,0,1.0119048,-1.1428571,-98.071429)" />
    <radialGradient
       inkscape:collect="always"
       xlink:href="#linearGradient3737"
       id="radialGradient73"
       gradientUnits="userSpaceOnUse"
       gradientTransform="matrix(1.15731,0,0,0.995908,-7.55102,0.197132)"
       cx="48"
       cy="90.171875"
       fx="48"
       fy="90.171875"
       r="42" />
  </defs>
  <metadata
     id="metadata2413">
    <rdf:RDF>
      <cc:Work
         rdf:about="">
        <dc:format>image/svg+xml</dc:format>
        <dc:type
           rdf:resource="http://purl.org/dc/dcmitype/StillImage" />
        <dc:title>amule</dc:title>
        <dc:subject>
          <rdf:Bag>
            <rdf:li>amule</rdf:li>
            <rdf:li>filesharing</rdf:li>
          </rdf:Bag>
        </dc:subject>
        <dc:description>amule, filesharing</dc:description>
      </cc:Work>
    </rdf:RDF>
  </metadata>
  <g
     id="layer2"
     style="display:none">
    <rect
       width="86"
       height="85"
       rx="6"
       ry="6"
       x="5"
       y="7"
       id="rect3745"
       style="opacity:0.9;fill:url(#ButtonShadow);fill-opacity:1;fill-rule:nonzero;stroke:none;filter:url(#filter3174)" />
  </g>
  <g
     id="layer4"
     style="display:inline">
    <path
       d="m 12,-95.03125 c -5.5110903,0 -10.03125,4.52016 -10.03125,10.03125 l 0,71 c 0,5.5110902 4.5201598,10.03125 10.03125,10.03125 l 72,0 c 5.51109,0 10.03125,-4.5201597 10.03125,-10.03125 l 0,-71 c 0,-5.51109 -4.52016,-10.03125 -10.03125,-10.03125 l -72,0 z"
       transform="scale(1,-1)"
       id="path3786"
       style="opacity:0.07999998;fill:url(#linearGradient3059);fill-opacity:1;fill-rule:nonzero;stroke:none;display:inline" />
    <path
       d="m 12,-94.03125 c -4.971633,0 -9.03125,4.059617 -9.03125,9.03125 l 0,71 c 0,4.9716329 4.0596171,9.03125 9.03125,9.03125 l 72,0 c 4.971633,0 9.03125,-4.059617 9.03125,-9.03125 l 0,-71 c 0,-4.971633 -4.059617,-9.03125 -9.03125,-9.03125 l -72,0 z"
       transform="scale(1,-1)"
       id="path3778"
       style="opacity:0.1;fill:url(#linearGradient3780);fill-opacity:1;fill-rule:nonzero;stroke:none;display:inline" />
    <path
       d="m 12,-93 c -4.4091333,0 -8,3.590867 -8,8 l 0,71 c 0,4.4091333 3.5908667,8 8,8 l 72,0 c 4.409133,0 8,-3.5908667 8,-8 l 0,-71 c 0,-4.409133 -3.590867,-8 -8,-8 l -72,0 z"
       transform="scale(1,-1)"
       id="path3770"
       style="opacity:0.2;fill:url(#linearGradient3772);fill-opacity:1;fill-rule:nonzero;stroke:none;display:inline" />
    <rect
       width="86"
       height="85"
       rx="7"
       ry="7"
       x="5"
       y="-92"
       transform="scale(1,-1)"
       id="rect3723"
       style="opacity:0.3;fill:url(#linearGradient3725);fill-opacity:1;fill-rule:nonzero;stroke:none;display:inline" />
    <rect
       width="84"
       height="84"
       rx="6"
       ry="6"
       x="6"
       y="-91"
       transform="scale(1,-1)"
       id="rect3716"
       style="opacity:0.45;fill:url(#linearGradient3721);fill-opacity:1;fill-rule:nonzero;stroke:none;display:inline" />
  </g>
  <g
     id="layer1">
    <rect
       width="84"
       height="84"
       rx="6"
       ry="6"
       x="6"
       y="6"
       id="rect2419"
       style="fill:url(#linearGradient3706);fill-opacity:1;fill-rule:nonzero;stroke:none" />
    <path
       style="opacity:0.5;fill:url(#linearGradient3188);fill-opacity:1;fill-rule:nonzero;stroke:none"
       d="M 12,6 C 8.11425,5.86322 5.41842,9.7916 6,13.4226 6.01818,37.1117 5.96366,60.8028 6.02722,84.4906 5.28212,86.832 10.5383,90.304 9.3125,89.2188 6.06854,87.1931 7.20932,83.0939 7,79.9177 7.01709,57.4405 6.96584,34.9616 7.02559,12.4854 7.23709,9.18494 10.6966,7.53688 13.6597,8 c 23.6181,0.0171 47.2379,-0.0342 70.8549,0.0256 3.3005,0.2115 4.9485,3.67101 4.4854,6.63411 -0.023,23.6263 0.047,47.2557 -0.035,70.8801 0.6394,2.1759 -4.9496,5.3488 -1.4521,3.2816 C 91.0463,86.3401 89.75,81.8397 90,78.2064 89.9794,55.9328 90.0412,33.6571 89.9691,11.3848 89.7161,7.60949 85.8108,5.47598 82.3403,6 58.8935,6 35.4468,6 12,6 Z"
       id="rect3728"
       inkscape:connector-curvature="0" />
    <path
       d="M 12,90 C 8.676,90 6,87.324 6,84 L 6,82 6,14 6,12 c 0,-0.334721 0.04135,-0.6507 0.09375,-0.96875 0.0487,-0.295596 0.09704,-0.596915 0.1875,-0.875 C 6.29113,10.12587 6.302142,10.09265 6.3125,10.0625 6.411365,9.774729 6.5473802,9.515048 6.6875,9.25 6.8320918,8.976493 7.0031161,8.714385 7.1875,8.46875 7.3718839,8.223115 7.5612765,7.995278 7.78125,7.78125 8.221197,7.353194 8.72416,6.966724 9.28125,6.6875 9.559795,6.547888 9.8547231,6.440553 10.15625,6.34375 9.9000482,6.443972 9.6695391,6.580022 9.4375,6.71875 c -0.00741,0.0044 -0.023866,-0.0045 -0.03125,0 -0.031933,0.0193 -0.062293,0.04251 -0.09375,0.0625 -0.120395,0.0767 -0.2310226,0.163513 -0.34375,0.25 -0.1061728,0.0808 -0.2132809,0.161112 -0.3125,0.25 C 8.4783201,7.442683 8.3087904,7.626638 8.15625,7.8125 8.0486711,7.942755 7.9378561,8.077785 7.84375,8.21875 7.818661,8.25713 7.805304,8.30462 7.78125,8.34375 7.716487,8.446782 7.6510225,8.548267 7.59375,8.65625 7.4927417,8.850956 7.3880752,9.071951 7.3125,9.28125 7.30454,9.30306 7.288911,9.3218 7.28125,9.34375 7.2494249,9.4357 7.2454455,9.530581 7.21875,9.625 7.1884177,9.731618 7.1483606,9.828031 7.125,9.9375 7.0521214,10.279012 7,10.635705 7,11 l 0,2 0,68 0,2 c 0,2.781848 2.2181517,5 5,5 l 2,0 68,0 2,0 c 2.781848,0 5,-2.218152 5,-5 l 0,-2 0,-68 0,-2 C 89,10.635705 88.94788,10.279012 88.875,9.9375 88.83085,9.730607 88.78662,9.539842 88.71875,9.34375 88.71105,9.3218 88.69545,9.30306 88.6875,9.28125 88.62476,9.107511 88.549117,8.913801 88.46875,8.75 88.42717,8.6672 88.38971,8.580046 88.34375,8.5 88.28915,8.40279 88.216976,8.31165 88.15625,8.21875 88.06214,8.077785 87.951329,7.942755 87.84375,7.8125 87.700576,7.63805 87.540609,7.465502 87.375,7.3125 87.36383,7.3023 87.35502,7.29135 87.34375,7.28125 87.205364,7.155694 87.058659,7.046814 86.90625,6.9375 86.803679,6.86435 86.701932,6.784136 86.59375,6.71875 c -0.0074,-0.0045 -0.02384,0.0044 -0.03125,0 -0.232039,-0.138728 -0.462548,-0.274778 -0.71875,-0.375 0.301527,0.0968 0.596455,0.204138 0.875,0.34375 0.55709,0.279224 1.060053,0.665694 1.5,1.09375 0.219973,0.214028 0.409366,0.441865 0.59375,0.6875 0.184384,0.245635 0.355408,0.507743 0.5,0.78125 0.14012,0.265048 0.276135,0.524729 0.375,0.8125 0.01041,0.03078 0.02133,0.06274 0.03125,0.09375 0.09046,0.278085 0.1388,0.579404 0.1875,0.875 C 89.95865,11.3493 90,11.665279 90,12 l 0,2 0,68 0,2 c 0,3.324 -2.676,6 -6,6 l -72,0 z"
       inkscape:connector-curvature="0"
       id="path3615"
       style="opacity:0.25;fill:url(#radialGradient3619);fill-opacity:1;fill-rule:nonzero;stroke:none" />
    <path
       style="opacity:0.25;fill:url(#radialGradient73);fill-opacity:1;fill-rule:nonzero;stroke:none"
       d="M 12,90 C 8.11425,90.1368 5.41842,86.2084 6,82.5774 6.01818,58.8883 5.96366,35.1972 6.02722,11.5094 5.28212,9.16796 10.5383,5.696 9.3125,6.78125 6.06854,8.80692 7.20932,12.9061 7,16.0823 c 0.0171,22.4772 -0.0342,44.9561 0.0256,67.4323 0.2115,3.3005 3.67101,4.9485 6.63411,4.4854 23.6181,-0.017 47.2379,0.034 70.8549,-0.026 C 87.8151,87.7629 89.4631,84.3034 89,81.3403 88.9765,57.714 89.0469,34.0846 88.9648,10.4602 89.6042,8.28431 84.0152,5.11138 87.5127,7.17856 91.0463,9.65991 89.75,14.1603 90,17.7936 89.9794,40.0672 90.0412,62.3429 89.9691,84.6152 89.7161,88.3905 85.8108,90.524 82.3403,90 58.8935,90 35.4468,90 12,90 Z"
       id="path3762"
       inkscape:connector-curvature="0" />
  </g>
  <g
     id="layer5"
     style="display:inline">
    <rect
       width="66"
       height="66"
       rx="12"
       ry="12"
       x="15"
       y="15"
       clip-path="url(#clipPath3613)"
       id="rect3171"
       style="opacity:0.2;fill:url(#linearGradient2862);fill-opacity:1;fill-rule:nonzero;stroke:#ffffff;stroke-width:0.5;stroke-linecap:round;stroke-linejoin:miter;stroke-miterlimit:4;stroke-opacity:1;stroke-dasharray:none;stroke-dashoffset:0;filter:url(#filter3794-9)" />
  </g>
  <g
     id="layer3">
    <path
       d="m 58.125,9.75 c -4.9015,-0.0735 -9.6182,3.1263 -10.8838,7.9518 -1.2413,3.6148 1.0763,6.5015 -0.1229,5.9063 C 43.4057,21.7391 39.1734,21.2206 35.0625,21.25 37.043,15.8994 32.0422,10.6451 26.8643,10.1219 23.4777,9.40865 19.8248,10.6956 17.625,13.1875 14.8932,16.3907 14.7136,22.0414 18.4827,24.603 21.652,26.1694 15.3908,27.89 14.6179,30.1341 8.88316,36.3523 7.66697,46.1342 11.8218,53.5273 19.3148,67.565 39.0152,73.602 52.875,65.5 c 0.1523,2.5746 -1.4234,5.7881 0.2092,10.5704 3.5738,11.2779 19.6219,16.829 28.7956,8.8264 C 86.0639,80.907 88.0223,74.475 85.6838,69.0036 82.2575,59.8264 70.7417,54.663 61.6563,58.4688 c -0.7737,-0.9933 0.5798,-2.9571 1.25,-5.375 3.0449,-7.7432 -0.1216,-16.6262 -5.75,-22.3438 5.4751,1.5329 12.6627,0.01 15.0312,-5.6875 C 74.2443,20.0931 71.6084,14.191 66.8687,11.8837 64.2142,10.4153 61.1601,9.65207 58.125,9.75 Z"
       inkscape:connector-curvature="0"
       id="path3717"
       style="opacity:0.05;fill:#000000;fill-opacity:1;stroke:none"
       sodipodi:nodetypes="ccccccccccccccccccc" />
    <path
       d="M 49.5625,14.9375 C 48.0079,17.3531 47.4163,20.5505 48.25,23 c 0.2706,0.7621 0.7511,1.2616 1.1875,1.7813 l -0.5937,0.625 c -1.3611,-0.7179 -2.741,-1.4145 -4.3125,-1.9375 -3.6636,-1.2193 -7.3461,-1.4995 -10.875,-1.3438 0.1371,-0.2278 0.2698,-0.4122 0.4062,-0.6875 1.0318,-2.0823 0.5256,-4.4385 -0.4687,-6.125 C 32.6207,13.662 30.9876,12.3952 29,11.625 c -1.9907,-0.7714 -4.124,-1.0711 -6,-0.5938 -3.1454,0.8004 -4.7111,2.2835 -5.9375,5.1251 -0.8489,1.9669 -0.7361,4.1404 0.2813,5.875 0.9135,1.5574 2.4551,2.6947 4.25,3.4687 -5.0114,2.8299 -8.7992,7.3052 -10.4688,12.5938 -3.71364,11.7633 4.7572,24.1138 18.2188,28.5937 8.5099,2.832 17.2238,1.7509 23.7187,-2.2812 l 1.5938,1.5625 c -0.2216,0.4109 -0.4586,0.8173 -0.6563,1.3125 -1.3718,3.4365 -0.8393,7.1643 0.6875,10.375 1.6161,3.3985 4.5417,6.4517 8.4688,8.2187 8.6898,3.91 17.602,2.1097 21.8125,-7.25 1.376,-3.4472 0.8863,-7.3186 -0.6563,-10.5625 C 82.6943,64.6595 79.7213,61.7291 75.8438,59.875 70.938,57.5293 65.6795,57.5391 61.4063,59.4688 L 59.6875,57.875 c 1.2781,-1.7784 1.8877,-3.5851 2.499,-5.4367 2.7772,-7.8384 -0.34,-16.1441 -6.5625,-22.0937 l 0.625,-0.6563 c 2.6754,0.7725 5.5632,1.0049 8.1875,0.4063 2.9422,-0.6712 5.6732,-2.3521 6.8438,-5.1875 0.01,-0.014 0.026,-0.018 0.031,-0.031 l -0.031,0 c 1.2833,-3.1183 0.6909,-6.0346 -0.5313,-8.125 -1.2864,-2.2001 -3.5151,-3.9281 -6.2812,-5 -2.0767,-0.8047 -4.2659,-1.344 -6.3125,-1.0938 -3.5539,0.4344 -7.0134,1.886 -8.5928,4.2802 z"
       id="path3711"
       style="opacity:0.1;fill:#000000;fill-opacity:1;stroke:none"
       inkscape:connector-curvature="0"
       sodipodi:nodetypes="ccccsccssssscssccssscsscccccscccsssc" />
    <path
       d="m 58.1875,11.5312 c -3.2336,0.1091 -6.3085,1.3217 -7.9062,3.875 -0.4612,0.737 -0.8359,1.5048 -1.125,2.1876 -0.703,1.66 -0.6755,3.4869 -0.094,5.125 0.2935,0.8264 0.8974,1.4785 1.4688,2.1562 l -1.4688,1.5625 C 47.5527,25.613 45.9836,24.8582 44.25,24.2813 40.1355,22.912 35.9838,22.6008 32.0625,22.9688 c 0.05,-0.069 0.1101,-0.1138 0.1563,-0.1875 0.01,10e-5 0.021,10e-5 0.031,0 0.3536,-0.571 0.7033,-1.057 1.0313,-1.7188 0.86,-1.7356 0.4387,-3.8262 -0.4375,-5.3125 -0.8565,-1.4526 -2.3156,-2.5992 -4.1563,-3.3125 -1.84,-0.713 -3.7791,-0.8685 -5.5312,-0.5625 -2.934,0.813 -4.331,2.0912 -5.3125,4.6563 -0.8079,1.6346 -0.6303,3.5618 0.25,5.0625 0.8615,1.4687 2.3502,2.6005 4.1875,3.3125 0.5131,0.1988 0.9963,0.2172 1.5,0.3125 -5.7532,2.581 -10.0445,7.4254 -11.8438,13.125 -3.54745,11.2369 4.5709,23.1661 17.6875,27.5312 8.5337,2.8399 17.2902,1.679 23.5938,-2.5 l 2.5,2.4063 c -0.309,0.5867 -0.649,1.1679 -0.9063,1.8125 -1.2641,3.1667 -0.7926,6.6406 0.6563,9.6875 1.5235,3.2038 4.3455,6.0352 8.0625,7.8125 7.4318,3.5535 16.2275,1.8291 19.4687,-4.5625 0.3553,-0.7008 0.8046,-1.338 1.1563,-2.2188 1.2669,-3.174 0.8326,-6.8096 -0.625,-9.875 -1.5246,-3.206 -4.3495,-6.0058 -8.0625,-7.7812 -4.9025,-2.3442 -10.17,-2.2592 -14.2813,-0.1875 l -2.5937,-2.4375 c 1.4245,-1.9119 2.1119,-3.8762 2.7809,-5.875 2.7417,-7.738 -0.4293,-16.0431 -6.9062,-21.8438 L 55.9375,28.75 c 2.6962,0.877 5.6806,1.1003 8.3125,0.5 2.7706,-0.632 5.2231,-2.158 6.25,-4.6875 1.1917,-2.8699 0.6198,-5.4598 -0.5,-7.375 -1.1659,-1.9941 -3.2229,-3.6094 -5.8437,-4.625 -1.9669,-0.7622 -4.0273,-1.0967 -5.9688,-1.0313 z"
       id="path3707"
       style="opacity:0.15;fill:#000000;fill-opacity:1;stroke:none"
       inkscape:connector-curvature="0"
       sodipodi:nodetypes="ssssccsccccssccsscssccssssssscccccscsss" />
    <path
       d="m 58.2131,12.4486 c -3.0296,0.1021 -5.8028,1.2261 -7.186,3.4367 -0.4186,0.669 -0.7412,1.3735 -1.0236,2.0404 -0.6099,1.4403 -0.6137,3.0358 -0.1012,4.4791 0.3335,0.9389 0.9653,1.7974 1.7497,2.5828 l -2.3745,2.5411 C 47.6351,26.5875 45.873,25.768 43.9661,25.1334 39.6213,23.6875 35.2227,23.3322 31.1355,23.8628 l -0.3958,-0.729 c 0.2832,-0.2404 0.529,-0.5134 0.729,-0.8332 0.3714,-0.5995 0.7044,-1.0583 0.9939,-1.6425 0.6592,-1.3304 0.3478,-3.1884 -0.3898,-4.4395 -0.7376,-1.2511 -2.0241,-2.2845 -3.7076,-2.9369 -1.6835,-0.6523 -3.4795,-0.8178 -5.0614,-0.5415 -1.582,0.2763 -3.0134,1.0153 -3.8117,2.2911 -1.0445,1.889 -1.5899,4.3328 -0.604,6.0821 0.7366,1.2559 2.0222,2.3047 3.7075,2.9577 0.9147,0.3545 1.8625,0.4683 2.7911,0.5416 l 0.3332,0.6248 c -6.354,2.2004 -11.0371,7.3861 -12.9288,13.3782 -3.37255,10.6829 4.3568,22.18 17.1155,26.4259 8.575,2.8537 17.3835,1.5766 23.4533,-2.7702 l 3.4576,3.3118 0,0.021 c -0.3876,0.7644 -0.8637,1.5656 -1.1698,2.3324 -1.1515,2.8848 -0.7389,6.1026 0.6283,8.9777 1.4266,3.0001 4.0822,5.6593 7.6234,7.3526 7.0817,3.3861 15.3187,1.71 18.2878,-4.145 0.3876,-0.7644 0.8216,-1.3973 1.1277,-2.1641 1.1516,-2.8849 0.781,-6.2709 -0.5862,-9.146 -1.4266,-3.0001 -4.0821,-5.6594 -7.6234,-7.3526 -4.9082,-2.3469 -10.2501,-2.1866 -14.1428,0.042 l -3.4784,-3.2909 c 1.5867,-2.0611 2.4417,-4.1219 3.1968,-6.3166 2.7019,-7.6259 -0.6833,-15.9899 -7.4458,-21.6148 l 2.4162,-2.5619 c 0.057,0.023 0.1097,0.061 0.1666,0.083 5.271,1.8856 12.0618,0.7915 13.8334,-3.5724 1.0847,-2.6124 0.5772,-4.8308 -0.4404,-6.5713 -1.0411,-1.7806 -2.909,-3.2939 -5.3738,-4.2491 -1.8495,-0.7167 -3.8075,-1.0193 -5.6238,-0.9581 l 0,0 z"
       inkscape:connector-curvature="0"
       id="path3596-8"
       style="opacity:0.3;fill:#000000;fill-opacity:1;stroke:none"
       sodipodi:nodetypes="csssccsccccsssccsccsscccssssssscccccccssccc" />
    <g
       transform="matrix(1.0078478,0,0,1.0078478,-1.521576,-2.4647991)"
       id="g2877">
      <path
         d="m 59.2695,13.805 c -3.0059,0.1014 -5.7575,1.2167 -7.13,3.41 -0.4153,0.6637 -0.7354,1.3628 -1.0156,2.0245 -0.6052,1.4291 -0.609,3.0122 -0.1004,4.4442 0.3308,0.9316 0.9577,1.7835 1.736,2.5627 l -2.356,2.5213 c -1.6296,-0.9338 -3.3779,-1.747 -5.27,-2.3766 -4.311,-1.4347 -8.6754,-1.7872 -12.7307,-1.2607 l -0.3927,-0.7233 c 0.2809,-0.2385 0.5248,-0.5095 0.7233,-0.8267 0.3685,-0.5949 0.6989,-1.0501 0.9861,-1.6297 0.6541,-1.3201 0.3451,-3.1636 -0.3867,-4.405 -0.7319,-1.2414 -2.0083,-2.2667 -3.6787,-2.914 -1.6704,-0.6473 -3.4524,-0.8115 -5.022,-0.5373 -1.5697,0.2741 -2.9899,1.0074 -3.7821,2.2733 -1.0363,1.8743 -1.5775,4.299 -0.5993,6.0347 0.7309,1.2461 2.0065,2.2867 3.6787,2.9347 0.9076,0.3517 1.8479,0.4646 2.7693,0.5373 l 0.3307,0.62 c -6.3046,2.1832 -10.9512,7.3286 -12.8281,13.274 -3.3464,10.5998 4.3228,22.0073 16.9821,26.2202 8.5083,2.8314 17.2482,1.5643 23.2708,-2.7487 l 3.4306,3.286 c -0,0.01 0,0.015 0,0.021 -0.3846,0.7585 -0.857,1.5535 -1.1606,2.3143 -1.1426,2.8624 -0.7332,6.0551 0.6233,8.9078 1.4155,2.9767 4.0504,5.6153 7.564,7.2953 7.0266,3.3598 15.1995,1.6967 18.1455,-4.1127 0.3846,-0.7585 0.8152,-1.3864 1.1189,-2.1472 1.1426,-2.8624 0.7749,-6.2221 -0.5816,-9.0748 -1.4155,-2.9767 -4.0504,-5.6153 -7.564,-7.2954 -4.8701,-2.3286 -10.1703,-2.1695 -14.0328,0.041 l -3.4513,-3.2653 c 6.5367,-9.1534 2.8037,-21.6496 -4.2161,-27.7141 l 2.3974,-2.542 c 0.057,0.022 0.1088,0.061 0.1653,0.083 5.2299,1.8709 11.9679,0.7854 13.7257,-3.5445 1.0763,-2.5921 0.5727,-4.7933 -0.437,-6.5201 -1.033,-1.7668 -2.8864,-3.2684 -5.332,-4.2161 -1.8351,-0.7111 -3.7778,-1.0114 -5.58,-0.9506 l 0,-10e-5 z"
         inkscape:connector-curvature="0"
         id="path3596"
         style="fill:#024c88;fill-opacity:1;stroke:none"
         sodipodi:nodetypes="csssccsccccsssccsccsscccsssssssccccccssccc" />
      <path
         d="m 59.310857,14.75569 c -2.788823,0.09401 -5.229049,1.139357 -6.365356,2.955346 -1.439536,2.300582 -0.3441,5.143044 2.43867,7.10936 L 50.589488,29.94575 C 48.833187,28.878896 46.924032,27.971913 44.844135,27.27974 40.436202,25.812824 35.953017,25.484722 31.865413,26.122402 L 30.08807,22.795055 c 1.090366,-0.309929 1.996745,-0.889311 2.500677,-1.694673 1.201853,-1.920731 -0.27032,-4.411428 -3.286009,-5.580022 -3.015689,-1.168594 -6.444848,-0.577392 -7.646697,1.343338 -1.201853,1.920732 0.270321,4.432095 3.286013,5.600689 0.998244,0.386829 2.046422,0.585269 3.038014,0.599336 l 1.839342,3.451347 c -6.356754,1.551957 -11.504469,5.548318 -13.536721,11.284048 -3.507217,9.898589 3.585849,21.234909 15.851393,25.316767 8.546925,2.844332 17.347897,1.417416 23.084759,-3.058681 l 5.063352,4.815349 c -0.60958,0.626185 -1.146447,1.312196 -1.550006,2.108011 -2.654506,5.234657 0.593334,12.067229 7.254027,15.252062 6.660701,3.184824 14.230236,1.535308 16.884741,-3.69935 C 85.52547,73.298619 82.27763,66.466047 75.61692,63.281214 70.734622,60.946731 65.371632,61.219281 61.811533,63.591216 L 56.706849,58.7552 c 1.770742,-1.726802 3.148408,-3.787152 3.988676,-6.158693 2.715427,-7.663888 -0.935407,-16.202826 -8.411367,-21.555419 l 4.877356,-5.187354 c 0.240837,0.111336 0.488156,0.21086 0.744,0.310001 4.561993,1.767791 9.73461,0.859578 11.552712,-2.046008 1.818111,-2.905586 -0.398027,-6.705575 -4.960012,-8.473367 -1.710744,-0.662923 -3.514063,-0.945075 -5.187357,-0.88867 z"
         inkscape:connector-curvature="0"
         id="path3650"
         style="fill:url(#linearGradient2890);fill-opacity:1;stroke:none" />
      <path
         d="m 94.9375,243.8125 c -2.034588,0.0427 -4.043899,0.16751 -6.0625,0.375 a 1.7928089,1.7928089 0 0 0 -1.4375,1 L 85,250.28125 a 1.7928089,1.7928089 0 0 0 2.09375,2.5 c 1.572446,-0.43144 3.226732,-0.70738 4.9375,-0.84375 1.743771,-0.13901 3.566234,-0.14476 5.53125,0.0312 2.49136,0.2232 4.18551,0.7225 4.84375,1.125 a 1.7928089,1.7928089 0 0 0 0.0312,0 c 0.0503,0.03 0.024,0.036 0.0625,0.0625 l -4.25,-0.46875 c -5.544372,-0.62518 -9.807064,-0.4465 -13.15625,0.71875 -3.330879,1.16807 -5.933993,3.52321 -7.625,6.875 -1.488965,2.95131 -1.7733,6.07664 -0.4375,8.8125 a 1.7928089,1.7928089 0 0 0 0.03125,0.0312 c 1.450191,2.88118 4.34853,4.7953 8.21875,5.6875 2.925232,0.67435 5.771417,0.77751 8.40625,0.1875 1.204384,-0.27974 2.37195,-0.75683 3.53125,-1.3125 l -0.25,0.84375 a 1.7928089,1.7928089 0 0 0 1.3125,2.25 l 13.875,3.125 a 1.7928089,1.7928089 0 0 0 2.1875,-1.46875 L 117.625,258.75 c 0.80369,-4.84067 -0.38716,-8.81779 -3.46875,-11.1875 -2.87162,-2.24445 -7.17491,-3.25949 -12.90625,-3.625 -2.081409,-0.13266 -4.198792,-0.17898 -6.28125,-0.125 -0.01036,2.7e-4 -0.02089,-2.7e-4 -0.03125,0 z m -0.78125,17.3125 c 0.741323,-0.0297 1.654575,0.0415 2.6875,0.1875 l 3.5625,0.5 c -0.489477,1.03355 -1.202809,1.93022 -2.40625,2.625 -0.0078,0.005 -0.0234,-0.005 -0.03125,0 -1.583121,0.88763 -3.136921,1.16903 -4.875,0.84375 -1.394964,-0.26107 -2.097659,-0.72172 -2.375,-1.0625 -0.246129,-0.3413 -0.318696,-0.46673 0,-1.25 0.319759,-0.78593 0.741784,-1.2185 1.625,-1.53125 0.0082,-0.003 0.02299,0.003 0.03125,0 0.485281,-0.16242 1.062331,-0.28366 1.78125,-0.3125 z"
         transform="matrix(0.66133595,0,0,0.66133595,-26.270146,-129.43622)"
         id="path4016"
         style="font-size:48px;font-style:normal;font-variant:normal;font-weight:bold;font-stretch:normal;text-align:start;line-height:125%;writing-mode:lr-tb;text-anchor:start;fill:#024c88;fill-opacity:1;stroke:none;font-family:Lohit Hindi;-inkscape-font-specification:Lohit Hindi Bold" />
      <path
         d="m 59.310857,14.75569 c -2.788823,0.09401 -5.229049,1.139357 -6.365356,2.955346 -0.556268,0.888987 -0.730541,1.862348 -0.57867,2.831344 0.08645,-0.518276 0.276082,-1.025104 0.57867,-1.508673 1.136307,-1.815989 3.576533,-2.861336 6.365356,-2.955345 1.673294,-0.05641 3.476613,0.225747 5.187357,0.888671 3.136361,1.215357 5.168521,3.394604 5.538683,5.580021 0.39441,-2.587681 -1.763586,-5.439825 -5.538683,-6.902694 -1.710744,-0.662923 -3.514063,-0.945075 -5.187357,-0.88867 z m -33.438799,0.165334 c -1.846516,0.05674 -3.464858,0.742218 -4.216017,1.942674 -0.403673,0.645127 -0.487484,1.361546 -0.330668,2.066676 0.06888,-0.254774 0.180439,-0.503912 0.330668,-0.744003 1.201849,-1.920732 4.631008,-2.511932 7.646697,-1.343339 1.9838,0.76873 3.290566,2.118319 3.616685,3.492681 0.466199,-1.774775 -0.987634,-3.796585 -3.616685,-4.815353 -1.130886,-0.438221 -2.322761,-0.633368 -3.43068,-0.599336 z m 4.815348,8.969369 c -0.193733,0.07879 -0.390571,0.167993 -0.599336,0.227334 l 1.777343,3.327347 c 4.087604,-0.63768 8.570789,-0.309578 12.978722,1.157337 2.079897,0.692175 3.989052,1.599157 5.745353,2.666011 l 4.794683,-5.125354 C 55.133492,25.965937 54.90418,25.775379 54.681503,25.585066 L 50.589488,29.94575 C 48.833187,28.878896 46.924032,27.971913 44.844135,27.27974 40.436202,25.812824 35.953017,25.484722 31.865413,26.122402 l -1.178007,-2.232009 z m -1.487999,2.790011 c -6.068479,1.65578 -10.951374,5.571821 -12.916718,11.118714 -0.679111,1.916688 -0.944371,3.887294 -0.868003,5.848684 0.06709,-1.521346 0.341508,-3.040058 0.868003,-4.526014 2.032252,-5.735729 7.179967,-9.732089 13.536721,-11.284046 L 29.199407,26.680404 z M 53.0075,31.59909 52.284158,32.363759 c 5.561315,3.981757 8.997596,9.725682 9.279373,15.562062 C 61.771056,41.906549 58.541052,35.862167 53.0075,31.59909 z m 4.360684,27.796779 c -0.214861,0.233604 -0.4331,0.459436 -0.661335,0.682001 l 5.104684,4.836024 c 3.560099,-2.371943 8.923089,-2.644485 13.805387,-0.310001 4.843291,2.315826 7.865565,6.569597 8.142707,10.726039 C 84.121118,70.774189 80.97985,65.845505 75.61692,63.281214 70.734622,60.946731 65.371632,61.219281 61.811533,63.591216 l -4.443349,-4.195347 z m 2.27334,6.200026 c -0.343612,0.425568 -0.65588,0.884858 -0.909337,1.384669 -0.7243,1.428309 -0.992661,2.966336 -0.888672,4.526022 0.08749,-1.102456 0.371461,-2.183416 0.888672,-3.203352 0.403559,-0.795807 0.940426,-1.481827 1.550006,-2.108002 l -0.640669,-0.599337 z"
         inkscape:connector-curvature="0"
         id="path3601"
         style="opacity:0;fill:#ffffff;fill-opacity:1;stroke:none" />
      <path
         d="m 21.325373,17.628368 c -0.466202,1.778802 0.987633,3.817251 3.616681,4.836019 0.998244,0.386829 2.046422,0.585269 3.038014,0.599336 l 1.219339,2.294009 c 0.206594,-0.05635 0.410716,-0.114239 0.620003,-0.165334 l -1.839342,-3.451347 c -0.991592,-0.01408 -2.03977,-0.212507 -3.038014,-0.599336 -1.993291,-0.772413 -3.298532,-2.125969 -3.616681,-3.513347 z m 11.59405,1.405339 c -0.06892,0.254205 -0.180438,0.503912 -0.330676,0.744003 -0.503932,0.805362 -1.410311,1.384745 -2.500677,1.694673 l 0.599336,1.095338 c 0.818166,-0.332725 1.4939,-0.816175 1.901341,-1.467339 0.407466,-0.651178 0.493859,-1.358205 0.330676,-2.066675 z m 19.447408,0.186001 c -0.287804,1.725333 0.585032,3.564409 2.314672,5.042686 l 0.702668,-0.764669 c -1.707444,-1.206496 -2.776194,-2.739386 -3.01734,-4.278017 z m 17.670066,2.004674 c -0.08217,0.539379 -0.26507,1.069493 -0.578671,1.570673 -1.818102,2.905587 -6.990719,3.813799 -11.552712,2.046009 -0.255844,-0.09914 -0.503163,-0.198666 -0.744,-0.310002 l -4.877356,5.187354 c 0.249439,0.178587 0.482513,0.372471 0.723342,0.558002 l 4.154014,-4.422684 c 0.240837,0.111336 0.488156,0.21086 0.744,0.310001 4.561993,1.767791 9.73461,0.859578 11.552712,-2.046008 0.568162,-0.907994 0.746933,-1.899972 0.578671,-2.893345 z m -54.622211,21.10075 c -0.379859,8.613027 6.295128,17.321656 16.719396,20.790753 8.546925,2.844332 17.347897,1.417416 23.084759,-3.058681 l 4.422683,4.216013 c 0.203498,-0.25203 0.41394,-0.490422 0.640669,-0.723334 L 55.218841,58.734534 C 49.481979,63.210623 40.681007,64.637547 32.134082,61.793215 22.243545,58.501734 15.73271,50.493216 15.414686,42.325132 z m 46.148845,4.278019 c -0.05412,1.570211 -0.324948,3.137985 -0.868006,4.670686 -0.840268,2.371541 -2.217934,4.431891 -3.988676,6.158693 l 0.661335,0.640669 c 1.452157,-1.578812 2.59538,-3.410826 3.327341,-5.476692 0.695434,-1.962775 0.965018,-3.984016 0.868006,-5.993356 z m -3.720016,23.580756 c -0.361491,4.555752 2.779785,9.484428 8.142699,12.048719 6.660701,3.184824 14.230236,1.535308 16.884741,-3.69935 0.7243,-1.428309 0.99267,-2.966337 0.888672,-4.526013 -0.08748,1.102447 -0.371461,2.183407 -0.888672,3.203343 -2.654505,5.234658 -10.22404,6.884174 -16.884741,3.69935 -4.843283,-2.315827 -7.865557,-6.569606 -8.142699,-10.726049 z"
         inkscape:connector-curvature="0"
         id="path3607"
         style="opacity:0.2;fill:#ffffff;fill-opacity:1;stroke:none" />
      <path
         d="m 37.9378,42.205632 c -1.471275,-0.208004 -2.634191,-0.160097 -3.515116,0.139747 -0.867637,0.301502 -1.46387,0.851854 -1.794674,1.66494 -0.310762,0.763768 -0.269883,1.427395 0.13442,1.988015 0.431536,0.563981 1.197108,0.953047 2.304925,1.160376 1.411328,0.264129 2.771534,0.03591 4.047682,-0.685413 1.270042,-0.728104 2.088173,-1.746493 2.452025,-3.02477 0,0 0.199676,-0.701538 0.199676,-0.701538 0,0 -3.828938,-0.541357 -3.828938,-0.541357 m 12.401753,-0.698213 c 0,0 -2.161467,13.017806 -2.161467,13.017806 0,0 -9.176384,-2.063634 -9.176384,-2.063634 0,0 0.991147,-3.48229 0.991147,-3.48229 -1.495395,1.16206 -3.031943,1.931745 -4.58248,2.291885 -1.536266,0.344015 -3.221488,0.302913 -5.019574,-0.111599 -2.337536,-0.538868 -3.874554,-1.603309 -4.648848,-3.141636 -0.714133,-1.462622 -0.604646,-3.059912 0.267096,-4.787817 1.005862,-1.993743 2.452461,-3.287488 4.383368,-3.964615 1.944836,-0.67664 4.625719,-0.822791 8.196805,-0.420121 0,0 4.154672,0.46849 4.154672,0.46849 0,0 0.121432,-0.426611 0.121432,-0.426611 0.241052,-0.846997 -0.02941,-1.494412 -0.792121,-1.949487 -0.740716,-0.452929 -1.989451,-0.754448 -3.722469,-0.909707 -1.367867,-0.122525 -2.654096,-0.133821 -3.869886,-0.0369 -1.200118,0.09566 -2.354013,0.296569 -3.469944,0.602757 0,0 1.609047,-3.360363 1.609047,-3.360363 1.313837,-0.135044 2.627435,-0.216627 3.944573,-0.243675 1.344166,-0.03551 2.690075,-0.01111 4.041859,0.07505 3.677332,0.234516 6.342492,0.937491 7.898364,2.153562 1.674106,1.287369 2.32377,3.34388 1.83481,6.288944"
         inkscape:connector-curvature="0"
         id="path3999"
         style="font-size:48px;font-style:normal;font-variant:normal;font-weight:bold;font-stretch:normal;text-align:start;line-height:125%;writing-mode:lr-tb;text-anchor:start;fill:url(#linearGradient2892);fill-opacity:1;stroke:none;font-family:Lohit Hindi;-inkscape-font-specification:Lohit Hindi Bold" />
      <path
         d="m 36.350103,34.595769 c -0.644516,-0.006 -1.252112,0.03419 -1.860008,0.08266 -0.94489,0.07532 -1.857058,0.228182 -2.748679,0.434002 l -0.723342,1.488008 c 1.11594,-0.306188 2.271903,-0.503675 3.472021,-0.599337 1.215791,-0.09692 2.496812,-0.101859 3.864679,0.02063 1.733018,0.155265 2.979299,0.456408 3.720016,0.909337 0.364338,0.217384 0.606407,0.479366 0.743999,0.785332 l 0.0413,-0.144663 c 0.241051,-0.846989 -0.02266,-1.508269 -0.785332,-1.963342 -0.740717,-0.452929 -1.986998,-0.754074 -3.720016,-0.909337 -0.683934,-0.06124 -1.360155,-0.09731 -2.004671,-0.103333 z m 14.115388,4.546685 c -0.02591,0.334532 -0.06413,0.672331 -0.124006,1.033335 l -2.170009,13.020054 -8.824699,-1.984005 -0.351334,1.240006 9.176033,2.066669 2.170009,-13.020054 c 0.144458,-0.870075 0.175368,-1.637964 0.124006,-2.356005 z m -14.508062,1.612005 c -0.58475,0.02351 -1.088878,0.118747 -1.529341,0.268669 -0.867637,0.301494 -1.467196,0.860917 -1.798,1.674003 -0.243181,0.59767 -0.275792,1.117684 -0.08268,1.591339 0.02787,-0.09233 0.04386,-0.173195 0.08268,-0.26866 0.330804,-0.813087 0.930363,-1.372519 1.798,-1.674012 0.880925,-0.299852 2.042079,-0.352676 3.513354,-0.144663 l 3.43068,0.47533 c 0.07439,-0.178856 0.131778,-0.367502 0.185996,-0.558004 l 0.20667,-0.702667 -3.823346,-0.537338 C 37.205805,40.774458 36.542187,40.731005 35.957429,40.754459 z M 25.314053,45.34248 c -0.124911,0.933364 0.0218,1.821625 0.434007,2.666006 0.774285,1.538327 2.312484,2.602477 4.650011,3.141345 1.798095,0.414512 3.485762,0.46802 5.022028,0.124006 1.384113,-0.321485 2.749517,-0.980716 4.092016,-1.942673 l 0.47533,-1.674012 c -1.495395,1.162052 -3.016809,1.933874 -4.567346,2.294015 -1.536266,0.344015 -3.223933,0.290506 -5.022028,-0.124006 -2.337527,-0.538868 -3.875726,-1.603018 -4.650011,-3.141345 -0.213792,-0.437872 -0.366194,-0.881438 -0.434007,-1.343336 z"
         inkscape:connector-curvature="0"
         id="path4018"
         style="font-size:48px;font-style:normal;font-variant:normal;font-weight:bold;font-stretch:normal;text-align:start;line-height:125%;writing-mode:lr-tb;text-anchor:start;fill:#ffffff;fill-opacity:1;stroke:none;font-family:Lohit Hindi;-inkscape-font-specification:Lohit Hindi Bold" />
    </g>
  </g>
</svg>
