<?xml version="1.0" encoding="UTF-8" standalone="no"?>
<!-- Created with Inkscape (http://www.inkscape.org/) -->

<svg
   xmlns:dc="http://purl.org/dc/elements/1.1/"
   xmlns:cc="http://creativecommons.org/ns#"
   xmlns:rdf="http://www.w3.org/1999/02/22-rdf-syntax-ns#"
   xmlns:svg="http://www.w3.org/2000/svg"
   xmlns="http://www.w3.org/2000/svg"
   xmlns:xlink="http://www.w3.org/1999/xlink"
   xmlns:sodipodi="http://sodipodi.sourceforge.net/DTD/sodipodi-0.dtd"
   xmlns:inkscape="http://www.inkscape.org/namespaces/inkscape"
   version="1.0"
   width="96"
   height="96"
   id="svg2408"
   style="enable-background:new"
   inkscape:version="0.92+devel (unknown)"
   sodipodi:docname="AndYetItMoves.svg">
  <sodipodi:namedview
     pagecolor="#ffffff"
     bordercolor="#666666"
     borderopacity="1"
     objecttolerance="10"
     gridtolerance="10"
     guidetolerance="10"
     inkscape:pageopacity="0"
     inkscape:pageshadow="2"
     inkscape:window-width="1280"
     inkscape:window-height="965"
     id="namedview79"
     showgrid="false"
     inkscape:zoom="2.82843"
     inkscape:cx="-39.7584"
     inkscape:cy="68.0199"
     inkscape:window-x="0"
     inkscape:window-y="29"
     inkscape:window-maximized="1"
     inkscape:current-layer="svg2408"
     inkscape:document-rotation="0" />
  <defs
     id="defs2410">
    <linearGradient
       x1="45.447727"
       y1="92.539597"
       x2="45.447727"
       y2="7.0165396"
       id="ButtonShadow"
       gradientUnits="userSpaceOnUse"
       gradientTransform="scale(1.0058652,0.994169)">
      <stop
         id="stop3750"
         style="stop-color:#000000;stop-opacity:1"
         offset="0" />
      <stop
         id="stop3752"
         style="stop-color:#000000;stop-opacity:0.58823532"
         offset="1" />
    </linearGradient>
    <linearGradient
       id="linearGradient3737">
      <stop
         id="stop3739"
         style="stop-color:#ffffff;stop-opacity:1"
         offset="0" />
      <stop
         id="stop3741"
         style="stop-color:#ffffff;stop-opacity:0"
         offset="1" />
    </linearGradient>
    <linearGradient
       id="linearGradient3700">
      <stop
         id="stop3702"
         style="stop-color:#2e2f25;stop-opacity:1"
         offset="0" />
      <stop
         id="stop3704"
         style="stop-color:#46493b;stop-opacity:1"
         offset="1" />
    </linearGradient>
    <filter
       color-interpolation-filters="sRGB"
       id="filter3174">
      <feGaussianBlur
         stdDeviation="1.71"
         id="feGaussianBlur3176" />
    </filter>
    <filter
       x="-0.192"
       y="-0.192"
       width="1.3839999"
       height="1.3839999"
       color-interpolation-filters="sRGB"
       id="filter3794">
      <feGaussianBlur
         stdDeviation="5.28"
         id="feGaussianBlur3796" />
    </filter>
    <linearGradient
       x1="48"
       y1="20.220806"
       x2="48"
       y2="138.66119"
       id="linearGradient3613"
       xlink:href="#linearGradient3737"
       gradientUnits="userSpaceOnUse" />
    <clipPath
       id="clipPath3613">
      <rect
         width="84"
         height="84"
         rx="6"
         ry="6"
         x="6"
         y="6"
         id="rect3615"
         style="fill:#ffffff;fill-opacity:1;fill-rule:nonzero;stroke:none" />
    </clipPath>
    <linearGradient
       x1="48"
       y1="90"
       x2="48"
       y2="5.9877172"
       id="linearGradient3617"
       xlink:href="#linearGradient3700"
       gradientUnits="userSpaceOnUse" />
    <linearGradient
       x1="45.447727"
       y1="92.539597"
       x2="45.447727"
       y2="7.0165396"
       id="ButtonShadow-0"
       gradientUnits="userSpaceOnUse"
       gradientTransform="matrix(1.0058652,0,0,0.994169,100,0)">
      <stop
         id="stop3750-8"
         style="stop-color:#000000;stop-opacity:1"
         offset="0" />
      <stop
         id="stop3752-5"
         style="stop-color:#000000;stop-opacity:0.58823532"
         offset="1" />
    </linearGradient>
    <linearGradient
       x1="32.251034"
       y1="6.1317081"
       x2="32.251034"
       y2="90.238609"
       id="linearGradient3780"
       xlink:href="#ButtonShadow-0"
       gradientUnits="userSpaceOnUse"
       gradientTransform="matrix(1.0238095,0,0,1.0119048,-1.1428571,-98.071429)" />
    <linearGradient
       x1="32.251034"
       y1="6.1317081"
       x2="32.251034"
       y2="90.238609"
       id="linearGradient3772"
       xlink:href="#ButtonShadow-0"
       gradientUnits="userSpaceOnUse"
       gradientTransform="matrix(1.0238095,0,0,1.0119048,-1.1428571,-98.071429)" />
    <linearGradient
       x1="32.251034"
       y1="6.1317081"
       x2="32.251034"
       y2="90.238609"
       id="linearGradient3725"
       xlink:href="#ButtonShadow-0"
       gradientUnits="userSpaceOnUse"
       gradientTransform="matrix(1.0238095,0,0,1.0119048,-1.1428571,-98.071429)" />
    <linearGradient
       x1="32.251034"
       y1="6.1317081"
       x2="32.251034"
       y2="90.238609"
       id="linearGradient3721"
       xlink:href="#ButtonShadow-0"
       gradientUnits="userSpaceOnUse"
       gradientTransform="translate(0,-97)" />
    <linearGradient
       x1="32.251034"
       y1="6.1317081"
       x2="32.251034"
       y2="90.238609"
       id="linearGradient3026"
       xlink:href="#ButtonShadow-0"
       gradientUnits="userSpaceOnUse"
       gradientTransform="matrix(1.0238095,0,0,1.0119048,-1.1428571,-98.071429)" />
    <clipPath
       id="clipPath6298">
      <rect
         width="84"
         height="84"
         rx="6"
         ry="6"
         x="146"
         y="6"
         id="rect6300"
         style="opacity:0.5414847;fill:#ff00ff;fill-opacity:1;fill-rule:nonzero;stroke:none" />
    </clipPath>
    <radialGradient
       cx="48"
       cy="90.171875"
       r="42"
       fx="48"
       fy="90.171875"
       id="radialGradient3619-2"
       xlink:href="#linearGradient3737-1"
       gradientUnits="userSpaceOnUse"
       gradientTransform="matrix(1.1573129,0,0,0.99590774,-7.551021,0.1971319)" />
    <linearGradient
       id="linearGradient3737-1">
      <stop
         id="stop3739-0"
         style="stop-color:#ffffff;stop-opacity:1"
         offset="0" />
      <stop
         id="stop3741-5"
         style="stop-color:#ffffff;stop-opacity:0"
         offset="1" />
    </linearGradient>
    <linearGradient
       x1="36.357143"
       y1="6"
       x2="36.357143"
       y2="63.893143"
       id="linearGradient3081"
       xlink:href="#linearGradient3737-1"
       gradientUnits="userSpaceOnUse" />
  </defs>
  <metadata
     id="metadata2413">
    <rdf:RDF>
      <cc:Work
         rdf:about="">
        <dc:format>image/svg+xml</dc:format>
        <dc:type
           rdf:resource="http://purl.org/dc/dcmitype/StillImage" />
        <dc:title />
      </cc:Work>
    </rdf:RDF>
  </metadata>
  <g
     id="layer2"
     style="display:none">
    <rect
       width="86"
       height="85"
       rx="6"
       ry="6"
       x="5"
       y="7"
       id="rect3745"
       style="opacity:0.9;fill:url(#ButtonShadow);fill-opacity:1;fill-rule:nonzero;stroke:none;filter:url(#filter3174)" />
  </g>
  <g
     id="layer3">
    <path
       d="m 12,-95.03125 c -5.5110903,0 -10.03125,4.52016 -10.03125,10.03125 l 0,71 c 0,5.5110902 4.5201598,10.03125 10.03125,10.03125 l 72,0 c 5.51109,0 10.03125,-4.5201597 10.03125,-10.03125 l 0,-71 c 0,-5.51109 -4.52016,-10.03125 -10.03125,-10.03125 l -72,0 z"
       transform="scale(1,-1)"
       id="path3786"
       style="opacity:0.07999998;fill:url(#linearGradient3026);fill-opacity:1;fill-rule:nonzero;stroke:none;display:inline" />
    <path
       d="m 12,-94.03125 c -4.971633,0 -9.03125,4.059617 -9.03125,9.03125 l 0,71 c 0,4.9716329 4.0596171,9.03125 9.03125,9.03125 l 72,0 c 4.971633,0 9.03125,-4.059617 9.03125,-9.03125 l 0,-71 c 0,-4.971633 -4.059617,-9.03125 -9.03125,-9.03125 l -72,0 z"
       transform="scale(1,-1)"
       id="path3778"
       style="opacity:0.1;fill:url(#linearGradient3780);fill-opacity:1;fill-rule:nonzero;stroke:none;display:inline" />
    <path
       d="m 12,-93 c -4.4091333,0 -8,3.590867 -8,8 l 0,71 c 0,4.4091333 3.5908667,8 8,8 l 72,0 c 4.409133,0 8,-3.5908667 8,-8 l 0,-71 c 0,-4.409133 -3.590867,-8 -8,-8 l -72,0 z"
       transform="scale(1,-1)"
       id="path3770"
       style="opacity:0.2;fill:url(#linearGradient3772);fill-opacity:1;fill-rule:nonzero;stroke:none;display:inline" />
    <rect
       width="86"
       height="85"
       rx="7"
       ry="7"
       x="5"
       y="-92"
       transform="scale(1,-1)"
       id="rect3723"
       style="opacity:0.3;fill:url(#linearGradient3725);fill-opacity:1;fill-rule:nonzero;stroke:none;display:inline" />
    <rect
       width="84"
       height="84"
       rx="6"
       ry="6"
       x="6"
       y="-91"
       transform="scale(1,-1)"
       id="rect3716"
       style="opacity:0.45;fill:url(#linearGradient3721);fill-opacity:1;fill-rule:nonzero;stroke:none;display:inline" />
  </g>
  <g
     id="layer1">
    <rect
       width="84"
       height="84"
       rx="6"
       ry="6"
       x="6"
       y="6"
       id="rect2419"
       style="fill:url(#linearGradient3617);fill-opacity:1;fill-rule:nonzero;stroke:none" />
    <g
       transform="translate(-140,0)"
       clip-path="url(#clipPath6298)"
       id="g6282">
      <path
         style="opacity:0.3;fill:#ffffff;fill-opacity:1;stroke:none"
         d="m 215.719,20.2813 c -1.787,-0.4028 -3.096,1.5788 -4.79,0.7123 -1.862,-0.2994 -2.221,0.7399 -3.801,0.9924 -0.792,1.2133 -2.25,1.3613 -3.558,0.8907 -0.997,-0.488 -3.918,-0.7869 -3.056,0.4857 5.068,-1.027 10.137,-2.0541 15.205,-3.0811 z m -15.438,2.8125 c -0.01,0.5622 -2.059,-0.842 -1.622,0.4689 1.04,-0.2499 -1.091,0.4378 -1.411,0.5311 -1.35,0.6584 -2.968,0.4456 -4.433,1.0717 -0.984,-0.4514 -2.002,-1.2165 -2.344,0.271 -1.646,-0.8705 -3.704,-1.4158 -5.538,-0.986 -1.172,-0.052 -3.838,-0.1143 -3.086,2.1358 1.132,1.1293 -2.32,2.859 -0.758,3.387 -1.725,1.5807 -0.368,4.4664 1.988,2.8697 1.77,-0.6594 3.572,-0.6682 4.728,0.8529 0.787,-0.8746 1.319,0.8518 2.253,0.2119 0.835,1.8377 3.716,0.041 4.314,1.4975 -0.296,-0.8729 0.599,2.0354 1.715,1.032 0.593,-0.036 2.049,1.5233 0.59,0.7826 0.716,1.3993 2.296,1.8964 3.764,1.8432 1.029,1.0241 1.375,2.8355 2.344,3.6553 0.189,1.5331 0.513,3.6879 2.437,4.344 -0.148,1.7461 1.964,2.5564 3.366,1.9624 1.206,0.2352 2.092,1.6147 3.58,1.7123 1.852,-0.3261 3.192,-1.8436 4.987,-0.7444 1.248,0.2641 -0.444,-1.9017 0.858,-0.6497 0.346,-0.4246 2.472,-1.1936 3.667,-1.468 2.406,-0.5123 4.867,-2.1675 5.16,-4.7946 0.342,-1.7454 0.691,-3.5394 0.764,-5.3489 0.589,-1.7888 -0.751,-2.9609 -0.71,-4.5383 -0.211,-1.4533 -0.915,-2.5141 -0.251,-3.9034 0.214,-1.9176 -1.579,-3.3112 -1.622,-5.0014 -0.741,-1.604 -3.614,-0.6205 -3.672,-2.9925 -1.645,-0.9226 -3.804,-0.7867 -5.68,-1.0149 -5.129,0.9377 -10.259,1.8754 -15.388,2.8131 z m 0.375,-0.3125 c -0.401,0.3071 -0.378,0.279 0,0 z m 6.344,0.094 0.03,0.031 z"
         id="path5884"
         inkscape:connector-curvature="0"
         sodipodi:nodetypes="cccccccccccccccccccccccccccccccccccccccccc" />
      <path
         d="m 200,24 c 0.26,-0.245 0.547,-0.4635 0.779,-0.735 0.03,-0.038 -0.115,-0.035 -0.152,0 -0.234,0.2211 -0.324,0.6249 -0.627,0.735 -0.328,0.1193 -0.69,-0.1365 -1.039,-0.1289 -0.05,0 0.04,0.1289 0,0.1515 -0.185,0.092 -0.408,0.052 -0.607,0.1516 -0.23,0.1151 -0.655,-0.063 -0.909,0 -0.464,0.1161 -0.817,0.4744 -1.212,0.6061 -0.24,0.08 -0.513,-0.061 -0.758,0 -0.612,0.1531 -1.328,0.5973 -1.97,0.7576 -0.665,0.1665 -1.655,0 -2.273,-0.1515 -0.279,-0.07 -0.636,0.091 -0.909,0 -0.755,-0.2518 -4.643,-1.1291 -5.303,-0.9092 -1.098,0.3659 0.239,-0.044 -0.455,0.3031 -0.349,0.1743 -0.739,-0.018 -1.061,0.3031 -0.105,0.1055 -0.697,0.6362 -0.757,0.7576 -0.101,0.2021 0.101,0.5556 0,0.7577 -0.124,0.2475 -0.433,1.6445 -0.606,1.8183 -0.214,0.2141 -0.481,0.4811 -0.607,0.6062 -0.202,0.202 0.05,0.8586 -0.151,1.0607 -0.07,0.071 -0.232,-0.071 -0.303,0 -0.313,0.3127 -0.812,1.2001 -0.606,1.8184 0.356,1.0683 0.885,0.7256 1.97,0.4546 0.229,-0.058 0.176,-0.3155 0.454,-0.4546 0.586,-0.2929 1.886,0 2.576,0 0.06,0 0.415,-0.04 0.455,0 0.259,0.2592 0.713,0.5614 0.909,0.7576 0.09,0.085 0.485,-0.04 0.606,0 0.296,0.099 0.484,0.1809 0.606,0.3031 0.149,0.1487 0.976,0.033 1.213,0.1515 0.335,0.1675 0.05,0.094 0.151,0.3031 0.06,0.1278 0.446,0.303 0.303,0.303 -0.05,0 -0.05,-0.1515 0,-0.1515 0.199,0 0.856,0.2346 1.061,0.3031 0.899,0.2998 2.039,0.3375 2.879,0.7576 0.121,0.061 0.333,-0.061 0.455,0 0.458,0.229 0.764,0.8366 1.212,1.0607 0.503,0.2515 1.224,0.6178 1.667,1.0608 0.17,0.1701 0.307,0.6084 0.606,0.7576 0.455,0.2276 1.06,0.076 1.515,0.3031 0.203,0.1014 0.361,0.3606 0.455,0.4546 0.285,0.2857 0.674,0.2539 0.909,0.6061 0.593,0.8891 1.311,2.3716 2.121,3.1822 0.482,0.4819 -0.38,-1.1003 0.455,0.1515 0.06,0.084 -0.04,0.2127 0,0.3031 0.228,0.4564 0.533,0.4592 0.758,0.9091 0.189,0.3798 0.475,0.9516 0.606,1.2123 0.101,0.202 -0.101,0.5556 0,0.7576 0.167,0.3346 0.924,0.7798 1.212,1.2123 0.514,0.7713 0.549,1.7618 1.061,2.273 0.529,0.5291 1.896,0.077 2.576,0.303 0.328,0.1094 0.742,0.4016 1.06,0.4546 0.557,0.093 0.907,-0.077 1.364,0.1516 0.839,0.4194 2.102,-0.2991 2.879,-0.4546 1.101,-0.2202 2.406,0.1184 3.486,-0.1516 0.357,-0.089 0.609,-0.3546 0.909,-0.4546 2.66,-0.8868 5.227,-2.2215 6.97,-4.5459 0.153,-0.2038 0.844,-2.0125 0.909,-2.273 0.171,-0.6823 0.128,-5.2952 0,-6.0612 -0.104,-0.6268 -0.351,-1.2001 -0.454,-1.8184 -0.182,-1.0882 0.06,-2.2497 -0.152,-3.3337 -0.116,-0.5799 -0.398,-1.2993 -0.606,-1.8184 -0.227,-0.5678 -0.158,-1.2404 -0.303,-1.8183 -0.183,-0.7313 -0.59,-1.4831 -0.909,-2.1215 -0.219,-0.4377 -2.124,-1.5181 -2.576,-1.9699 -0.123,-0.1223 -0.533,-0.8354 -0.758,-1.0607 -0.718,-0.7185 -2.15,-0.2786 -3.03,-0.4546 -1.037,-0.2073 -3.954,-0.4133 -5.001,-0.1515 -0.644,0.161 -1.16,0.6479 -1.818,0.7576 -0.531,0.088 -1.85,-0.06 -2.273,0.1516 -0.592,0.2957 -0.979,0.5855 -1.667,0.7576 -0.435,0.1088 -0.952,-0.054 -1.364,0.1515 -0.09,0.046 -0.35,0.3523 -0.606,0.4546 -0.356,0.1423 -0.831,0.1761 -1.212,0.3031 -0.64,0.2131 -2.994,-0.4917 -3.334,-0.1515 C 200.47,24.0289 200.914,24.033 200,24 Z"
         inkscape:connector-curvature="0"
         id="path3847"
         style="fill:#594334;fill-opacity:1;stroke:none" />
      <path
         d="m 196.406,14.9062 c -0.83,-0.1936 -11.556,0.8782 -5.822,5.1267 1.908,-0.8031 3.352,-1.2876 5.125,-0.5625 1.317,1.0352 0.992,2.0488 0.75,3.3437 0.173,1.5224 0.901,2.612 1.59,3.875 0.318,0.6752 0.564,1.4418 0.438,2.2188 v 0.062 c -0.08,1.0603 0.475,1.7371 0.875,2.1875 0.359,2.511 -1.901,4.4367 1.905,6.3745 1.227,0.5016 1.226,1.0725 1.122,2.062 1.909,5.3613 5.012,-0.1982 7.705,0.5626 1.039,-0.1468 1.804,-0.7989 2.404,-1.4688 1.757,-2.7548 4.452,-2.1784 6.654,-3.6248 1.41,-0.9259 1.968,-3.3676 2.028,-5.1248 -0.241,-1.934 -0.912,-4.3897 -2.531,-5.4682 -7.767,0.01 -8.54,-5.6212 -11.895,-6.9075 -3.52,-1.1843 -6.779,-2.5306 -10.34,-2.6563 z"
         id="path5650"
         style="opacity:0.4;fill:#ffffff;fill-opacity:1;stroke:none"
         inkscape:connector-curvature="0"
         sodipodi:nodetypes="ccccccccccccsccccc" />
      <path
         d="m 192,16 c -0.853,1.0974 -3.277,2.4231 -2.615,3.7834 1.544,0.3416 3.033,-0.6691 4.559,-0.876 1.536,-0.942 3.091,0.3463 2.939,2.0127 0.12,1.5206 -0.523,3.2974 0.843,4.4252 0.523,1.1043 1.683,1.8595 1.587,3.2481 0.176,1.3819 0.612,2.6957 0.725,4.0917 0,1.5008 0.43,2.9814 1.646,3.9716 0.965,0.8327 1.361,2.0637 1.461,3.296 -0.157,1.6826 2.268,2.3454 3.048,0.9277 0.881,-0.9596 2.377,-1.5982 3.741,-1.6971 1.742,0.4298 2.323,-1.237 3.488,-2.0364 1.301,-0.5502 1.972,-1.8611 3.21,-2.4538 1.551,-0.096 3.228,-0.8689 3.753,-2.4558 1.068,-1.1354 0.533,-2.9382 0.193,-4.2997 -0.502,-2.2996 -2.977,-3.0126 -4.565,-4.3793 -1.256,-0.5846 -2.726,-0.9375 -3.618,-2.0659 -1.345,-0.8105 -2.633,-1.6874 -3.898,-2.6101 -1.402,-0.7425 -2.935,-1.1412 -4.306,-1.948 -1.514,-0.753 -3.182,-1.2291 -4.846,-1.5144 -1.57,-0.3847 -3.175,-0.1166 -4.768,-0.063 -0.944,-0.018 -1.606,0.8535 -2.577,0.643 z"
         inkscape:connector-curvature="0"
         id="path3841"
         style="fill:#755e43;fill-opacity:1;stroke:none" />
      <path
         style="opacity:0.5;fill:#ffffff;fill-opacity:1;stroke:none"
         d="m 149.594,11.2812 c -1.486,-0.053 -3.316,0.5581 -3.855,1.6506 -0.283,-0.4571 -1.125,-0.7646 -1.576,-0.3987 -0.276,0.5332 0.447,1.607 0.279,1.716 1.225,-0.403 -0.177,0.6978 -0.398,1.072 0.09,0.5728 -0.879,0.1902 -0.937,0.7649 -0.04,0.7523 1.026,0.5637 1.418,0.227 1.428,0.033 -0.681,1.6445 -1.044,2.2659 -0.504,0.7492 -2.264,1.6358 -1.266,2.7138 -0.07,0.8814 -0.163,1.1406 0.322,1.88 -0.114,1.557 1.233,2.5467 1.959,3.7442 0.316,0.1728 0.624,-0.048 0.601,0.4155 0.439,0.4025 1.197,0.2392 1.641,0.731 0.716,0.1642 -0.643,1.2035 0.513,1.4692 1.03,-0.5383 0.372,0.4724 1.094,0.6039 0.723,0.1167 1.472,0.6979 2.323,0.098 1.3,-0.12 2.742,-1.1795 3.91,-0.7655 1.594,0.8114 3.429,-0.085 4.75,-1.062 1.515,0.1427 3.181,-0.4417 4.569,0.3998 1.305,-0.036 2.601,-0.8228 3.885,-0.5212 0.923,0.3931 2.321,0.6234 2.936,-0.4945 1.369,-0.9718 3.516,0.073 5.075,-0.7599 1.166,-0.3949 1.758,-1.4986 2.844,-1.4375 -0.08,-0.6308 0.761,-0.686 0.699,-1.254 0.297,-1.3114 1.611,-2.0657 2.152,-3.1183 0.316,-1.156 0.29,-2.4589 0.125,-3.6497 -0.486,-1.1926 -2.136,-0.3319 -2.883,-1.3525 -1.281,-0.2656 -1.717,-1.5405 -2.795,-2.156 -1.233,-0.1635 -2.596,0.1189 -3.934,0.249 -1.265,-0.1267 -2.192,-1.692 -3.572,-1.214 -1.207,0.3557 -2.453,0.8822 -3.709,0.558 -2.108,0.2656 -3.65,-1.8428 -5.751,-1.7475 -1.806,0.5055 -3.54,-0.2443 -5.365,-0.4243 -1.308,-0.1686 -2.795,-0.2589 -4.01,-0.2037 z"
         id="path5766"
         inkscape:connector-curvature="0" />
      <path
         d="m 144,16 c 0.844,0.3002 1.721,0.5182 2.531,0.9007 0.102,0.048 -0.209,0.089 -0.303,0.1515 -0.321,0.2137 -0.542,0.4343 -0.758,0.7577 -0.626,0.9397 -1.31,1.6126 -1.97,2.2729 -0.191,0.1916 -0.429,0.5806 -0.606,0.7577 -0.121,0.1209 0.08,0.5987 0,0.7576 -0.315,0.6307 0.01,-0.162 -0.303,0.1516 -0.107,0.1071 0,0.303 0,0.4546 0,1.721 1.681,3.1967 2.576,4.0913 0.34,0.3395 0.181,0.9291 0.606,1.2123 0.489,0.3259 1.306,0.5481 1.667,0.9091 0.313,0.3136 -0.479,-0.012 0.151,0.3031 0.136,0.068 0.311,-0.048 0.455,0 0.316,0.1055 0.542,0.6138 0.758,0.7577 0.214,0.1425 0.78,0.2096 1.06,0.303 0.939,0.3129 4.275,-0.032 4.849,-0.6061 0.2,-0.1994 1.033,-0.123 1.213,-0.3031 0.03,-0.029 3.078,-0.4066 3.485,-0.4546 1.204,-0.1417 2.949,-0.2291 4.091,0.1516 0.192,0.064 3.568,-0.4104 3.789,-0.4546 0.438,-0.088 0.917,-0.062 1.363,-0.1516 0.355,-0.071 0.707,-0.3837 1.061,-0.4545 0.361,-0.072 1.031,0.1665 1.364,0 1.452,-0.7264 3.54,-0.3582 4.546,-1.3638 0.406,-0.4067 1.028,-0.4329 1.515,-0.7577 0.167,-0.1114 0.276,-0.3651 0.455,-0.4546 0.09,-0.045 0.231,0.072 0.303,0 0.21,-0.2101 0.41,-0.5616 0.606,-0.7576 0.185,-0.1856 0.445,-0.2127 0.606,-0.4546 0.59,-0.8855 1.089,-1.9978 1.818,-2.7276 0.105,-0.105 0.05,-0.6527 0.152,-0.7576 0.252,-0.2518 0.454,-2.5007 0.303,-2.5761 -0.77,-0.3849 -2.495,-0.9053 -3.182,-1.3638 -0.214,-0.1428 -0.368,-0.5266 -0.606,-0.6061 -0.777,-0.2588 -1.732,-0.637 -2.576,-0.7576 -0.675,-0.096 -1.802,-0.2054 -2.425,-0.4546 -0.826,-0.3304 -1.959,-0.6555 -2.879,-0.7577 -1.653,-0.1837 -3.343,-9e-4 -5,-0.1515 -1.44,-0.1309 -2.838,-0.3719 -4.243,-0.6061 -1.071,-0.1785 -2.249,0.083 -3.334,0 -3.01,-0.2316 -6.56,-0.8813 -9.547,-0.4546 -0.474,0.068 -0.903,0.3229 -1.363,0.4546 -0.42,0.1197 -1.306,-0.029 -1.667,0.1515 -0.06,0.032 -0.152,0.08 -0.152,0.1515 0,0.2887 0.359,0.6615 0.455,0.7577 0.202,0.202 -0.05,0.8586 0.151,1.0607 0.269,0.2688 -1.036,0.1621 -1.06,0.3031 -0.04,0.2024 0.03,0.4097 0.04,0.6146"
         inkscape:connector-curvature="0"
         id="path3849"
         style="fill:#755e43;fill-opacity:1;stroke:none" />
      <path
         style="opacity:0.8;fill:#ffffff;fill-opacity:1;stroke:none"
         d="m 141.411,13.5623 c 0.259,2.6961 0.698,6.5184 1.909,7.656 -1.345,0.8771 -0.35,3.2906 0.935,3.6777 1.867,-1.2351 -0.04,-5.1837 3.386,-4.6973 2.251,2.0695 6.49,-0.114 7.163,2.7385 0.03,1.1076 0.368,2.1945 0.504,3.291 2.303,0.698 3.377,2.2969 3.644,3.956 0.245,0.9777 1.744,1.2803 1.067,2.1641 1.48,5.202 6.554,2.0821 9.68,1.6488 0.469,-2.3923 1.025,-3.2738 2.816,-5.0007 0.402,-1.072 -1.132,-2.3234 -0.156,-3.9978 1.349,-0.5357 0.474,-2.4328 1.251,-3.3747 0.922,-0.1616 0.459,-1.7589 1.369,-1.5937 2.706,0.4817 5.225,1.9526 7.789,1.0337 3.058,-0.1836 7.524,-1.6083 9.521,-0.064 1.295,2.5101 4.693,0.8461 6.37,2.5628 0.833,0.7633 1.558,1.8504 2.685,2.2501 0.839,0.2729 2.16,0.5782 2.914,0.9784 1.39,1.6584 5.141,2.426 5.639,3.9713 3.001,0.6147 8.96,-2.5439 7.913,2.4868 0.231,0.7373 0.849,1.5154 -0.129,3.1238 -0.09,1.7272 -0.34,4.0821 1.051,5.2465 1.531,2.8579 -1.588,3.3217 -3.098,2.1868 -2.479,0.1569 -5.772,-0.2328 -6.687,2.1674 -2.494,2.0064 -5.492,-0.7551 -8.357,0.24 -1.933,2.3483 -4.151,2.634 -5.382,4.434 -0.04,2.1443 -1.96,3.2377 -1.898,5.4684 -0.675,1.9679 -1.407,4.3331 -0.595,6.5311 -2.777,5.1107 4.369,5.2396 3.397,10.3364 3.514,2.7484 2.45,6.5162 1.137,9.8152 0.306,1.5384 -1.324,2.5167 -1.018,4.1362 -0.118,0.7375 0.857,0.9508 0.773,1.7545 1.236,0.5414 2.913,0.7285 3.46,2.331 2.879,2.5121 7.255,1.5188 10.874,3.0005 2.28,2.1852 5.619,0.8925 8.217,2.3125 4.971,0.4777 10.067,-1.4508 12.404,-3.3486 -3.467,-35.5512 1.418,-78.5978 0.382,-89.76255 -30.073,5.71802 -85.345,-13.97105 -90.93,10.33985 z m 77.214,19.469 c 0.119,-0.035 0.373,0.1993 0,0 z m 1.094,10.75 c 0.17,-0.033 0.01,0.116 0,0 z m 0.437,0.375 c -0.22,1.0839 -0.39,-0.1292 0,0 z"
         id="path5536"
         inkscape:connector-curvature="0"
         sodipodi:nodetypes="cccccccccccccccccccccccccccccccccccccccccccc" />
      <path
         style="fill:#c6935f;fill-opacity:1;stroke:none"
         d="m 144,24 c -0.199,-5.8123 6.958,-3.7382 10.434,-2.6659 1.533,2.66 1.66,5.6357 4.535,7.2065 1.267,2.5023 2.211,9.0747 6.695,6.2722 3.972,-0.1152 4.625,-4.2848 6.667,-6.7638 -0.298,-3.5626 0.496,-9.5658 4.729,-7.8078 4.675,1.1266 9.267,-0.2017 14.051,-0.2297 3.858,1.967 8.325,3.015 11.941,5.5264 3.267,1.0513 5.735,4.5694 9.313,4.3009 6.089,-1.8154 7.633,1.8717 6.408,5.1509 -2.04,5.7267 2.644,5.3201 0.947,9.4897 -2.711,3.0451 -7.173,-2.6326 -10.992,2.9106 -3.041,1.7038 -7.19,-3.4389 -8.741,1.3437 -3.484,1.5015 -5.559,3.8889 -6.468,7.9366 -1.172,4.5095 -1.218,18.9593 1.055,18.2708 -0.601,4.211 6.57,2.0368 3.78,6.3604 -2.895,4.0413 -0.413,8.8468 4.092,10.3041 4.502,0.5338 8.719,2.8685 13.359,3.0798 4.21,0.4398 10.05,1.925 12.772,-2.3533 3.029,-11.7608 3.275,-24.0424 3.803,-36.1226 0.262,-15.8991 0.416,-31.9321 -2.078,-47.67977 -10.195,-11.98908 -97.424,-12.33434 -88.864,3.22547 1.372,3.6758 1.819,7.6082 2.393,11.3958 z"
         id="path3845"
         inkscape:connector-curvature="0"
         sodipodi:nodetypes="cccccccccccccccccccccccc" />
      <path
         style="opacity:0.3;fill:#ffffff;fill-opacity:1;stroke:none"
         d="m 156.937,34.4375 c -1.517,0.078 -2.589,1.0315 -3.992,0.9412 -1.694,0.7644 -3.254,1.005 -4.953,0.4595 -1.776,1.0258 -4.237,1.2114 -6.279,0.6878 -0.8,0.4095 -2.392,-0.026 -1.645,-1.1493 -1.32,-1.1932 -1.098,1.1602 -1.374,1.5935 -1.382,-0.8716 -1.929,0.9933 -1.34,1.7275 -0.05,2.111 -0.649,4.1407 -0.278,6.2306 -0.433,1.8879 1.145,3.9385 -0.443,5.7603 0.386,1.484 -0.664,2.7403 -0.801,4.1509 -0.451,1.3551 0.51,2.9135 -1.219,3.5049 -0.655,1.2163 1.766,1.3648 0.35,2.4798 -0.392,1.4157 -1.041,3.2102 -0.506,4.6454 1.485,1.1956 1.541,2.991 1.961,4.844 0,1.0676 0.745,1.7909 0.348,2.656 0.75,0.969 2.24,1.4791 1.389,2.5701 1.185,0.5231 1.095,2.284 2.443,2.5247 0.877,-1.0055 2.741,0.3517 4.053,-0.7575 1.883,-0.6569 3.865,0.1215 5.721,0.2866 1.766,1.4116 3.796,0.9586 5.859,0.6055 1.722,-0.3292 3.06,1.2912 4.536,1.1148 0.429,-1.7147 2.408,-1.0968 3.652,-2.0014 1.14,0.3251 0.593,-1.5112 2.03,-1.2906 0.962,-0.7957 2.543,-0.2942 3.381,-1.758 1.195,-1.0375 1.103,-1.9104 2.786,-2.1865 1.201,-0.8447 2.636,-1.7417 2.228,-3.1065 1.892,-0.6314 0.514,-2.3253 1.466,-3.4674 1.144,-0.728 -0.415,-2.3129 0.934,-2.9371 -0.493,-2.0074 0.211,-3.9311 0.149,-5.8117 0.407,-1.9885 1.174,-4.1436 -0.675,-5.7189 -1.626,-0.038 -1.479,-1.7597 -1.835,-3.0144 -0.534,-1.0573 -0.733,-1.8198 -1.095,-3.0933 -0.733,-1.2515 -2.538,-0.1767 -2.609,-2.1451 -0.248,-1.1692 -2.054,-1.3493 -1.976,-2.9016 -1.307,0.2073 -1.926,-1.618 -3.552,-1.8171 -0.869,-1.5389 -4.431,0.023 -4.224,-2.057 -1.324,-0.608 -3.558,-0.1547 -4.497,-1.5625 v -0.01 z M 140.625,77 c 0.342,0.227 -0.02,0.1038 0,0 z"
         id="path6280"
         inkscape:connector-curvature="0"
         sodipodi:nodetypes="ccccccccccccccccccccccccccccccccccccccccc" />
      <path
         style="fill:#594334;fill-opacity:1;stroke:none"
         d="m 139,36 c 2.054,0.2458 4.143,0.8479 6.269,1.0397 2.294,0.7426 4.143,-1.2123 6.434,-0.852 2.342,0.2662 4.582,-1.5567 6.862,-0.4473 2.126,0.3818 3.957,1.3268 6.007,2.0494 1.95,0.4148 3.123,2.1393 4.799,2.9708 0.927,1.7403 1.799,2.6318 3.123,4.1226 0.761,1.4141 1.415,2.708 2.013,4.27 1.114,1.6638 2.518,2.8948 3.569,4.6112 -0.02,1.63 -0.958,3.0358 -1.063,4.6897 -0.24,2.0218 0.667,4.4183 -1.194,5.9497 -0.453,1.6195 -0.419,3.6677 -1.398,4.7826 -0.466,1.9334 -2.809,1.906 -3.702,3.0524 -0.502,2.5804 -3.095,2.8938 -5.186,3.6911 -1.595,0.8189 -3.809,1.2836 -4.803,2.7083 -1.306,0.9839 -2.276,-1.7454 -3.942,-1.0164 -1.995,0.279 -3.957,0.1356 -5.941,-0.1048 -1.904,0.061 -3.771,-1.1444 -5.743,-0.6711 -1.915,0.8141 -4.315,1.4096 -5.793,-0.5053 -0.988,-1.3731 -1.71,-3.0094 -2.282,-4.6774 -1.009,-1.9722 -0.723,-4.4548 -1.726,-6.5071 0.232,-2.5893 0.149,-5.2166 0.452,-7.7612 0.103,-2.2597 1.004,-4.4139 0.838,-6.7471 0.795,-2.002 1.034,-4.0598 0.926,-6.2043 0.556,-1.8011 0.09,-3.6434 0.22,-5.4681 0.26,-0.5819 0.375,-2.9826 1.261,-1.9757"
         id="path6150"
         inkscape:connector-curvature="0" />
      <path
         d="m 148.947,38.999 c -0.09,0.022 -0.227,0.028 -0.375,0.094 -0.302,0.1338 -1.172,0.3448 -1.938,0.5625 -0.389,0.1106 -0.762,0.2265 -1.062,0.375 -0.157,0.078 -0.306,0.1869 -0.438,0.3125 -0.101,0.096 -0.197,0.2471 -0.25,0.4375 -0.135,0.15 -0.377,0.2627 -0.498,0.4682 -0.276,0.2548 -0.648,0.5624 -0.812,1.0313 -0.132,0.011 -0.292,0.03 -0.5,0.031 -0.273,0 -0.617,0.027 -0.938,0.125 -0.321,0.098 -0.65,0.3001 -0.781,0.7188 0,0.023 -0.08,0.1661 -0.06,0.3125 0,0.024 0.03,0.013 0.03,0.031 -0.05,0.1473 -0.184,0.3915 -0.344,0.5938 -0.392,-0.056 -0.616,-0.099 -0.961,-0.156 -0.792,0.2844 -0.786,0.2817 -0.749,1.468 0.02,0.099 0.08,0.2269 0.156,0.3437 -0.66,1.516 -1.124,3.0022 -1.313,5 0,0.034 -0.03,0.059 -0.03,0.094 -0.384,0.7775 -0.478,1.6955 -0.469,2.3437 -0.02,0.1383 -0.03,0.3143 -0.03,0.25 0,0.1123 0.01,0.2434 0.03,0.4063 0.04,0.3031 0.08,0.6706 0.06,1.0312 l 0,0.031 0,0.031 0,0.031 0,0.031 0.03,0 0,0.031 0,0.031 0,0.031 c 0,-1e-4 0.03,0.031 0.03,0.031 l 0,0.031 c 0.03,0.086 0.04,0.128 0.03,0.1562 0,0 -0.06,0.083 -0.157,0.1563 -0.196,0.1443 -0.611,0.3023 -1,0.5937 -0.01,-6e-4 -0.02,-6e-4 -0.03,0 l 0,0.031 c 0,-10e-5 -0.03,0 -0.03,0 l 0,0.031 -0.03,0 0,0.031 c 0,-1e-4 -0.03,0 -0.03,0 -0.01,0.019 -0.02,0.04 -0.03,0.062 l 0,0.031 -0.03,0.031 0,0.031 0,0.031 0,0.031 -0.03,0 0,0.031 0,0.031 0,0.031 0,0.031 0,0.031 0,0.031 0,0.031 0,0.031 0.03,0.031 0,0.031 0,0.031 c 0,-1e-4 0.03,0.031 0.03,0.031 l 0,0.031 c 0,0.022 0.02,0.043 0.03,0.062 0,-10e-5 0.03,0 0.03,0 l 0,0.031 0.03,0 0,0.031 c 0.01,6e-4 0.02,6e-4 0.03,0 0,0.01 0.03,0.022 0.03,0.031 0.04,0.076 0.08,0.1773 0.125,0.3125 0.08,0.2417 0.182,0.545 0.282,0.8438 -0.02,0.015 -0.04,0.01 -0.06,0.062 l 0,0.031 0,0.031 -0.03,0 0,0.031 0,0.031 c -0.01,0.011 -0.02,0.02 -0.03,0.031 l 0,0.031 c -0.08,0.09 -0.167,0.1743 -0.219,0.2812 -0.09,0.1842 -0.17,0.4039 -0.25,0.6563 -0.16,0.5014 -0.298,1.107 -0.407,1.7187 -0.11,0.6171 -0.188,1.2611 -0.219,1.8125 -0.03,0.4787 -0.01,0.8647 0.09,1.2188 -0.146,0.4455 -0.07,0.898 0.03,1.2812 0.06,0.2132 0.115,0.3848 0.156,0.5313 l 0,0.031 c 0,0.013 -0.03,0.031 -0.03,0.031 l 0,0.031 c -0.02,0.069 0,0.039 0,0.031 l 0,0.094 0,0.031 c 0,0.02 0,0.063 0.03,0.1562 0,0.014 -0.03,0.016 0.03,0.125 0.07,0.1236 0.137,0.186 0.156,0.2188 0.03,0.062 0.06,0.087 0.06,0.094 l -0.03,0.031 0,0.031 -0.03,0.031 0,0.031 c -0.01,0.019 -0.02,0.04 -0.03,0.062 l 0,0.031 0,0.031 0,0.031 0,0.031 0,0.031 0,0.031 0,0.031 0,0.031 c 0,0.022 0.02,0.043 0.03,0.062 l 0,0.031 c 0,-1e-4 0.03,0.031 0.03,0.031 l 0,0.031 c 0,-1e-4 0.03,0.031 0.03,0.031 l 0,0.031 c 0,-1e-4 0.03,0 0.03,0 l 0,0.031 0.03,0 0,0.031 c 0,-1e-4 0.03,0 0.03,0 l 0,0.031 0.03,0 0.03,0.031 c 0,-10e-5 0.03,0 0.03,0 0.02,0.051 0.02,0.093 0.03,0.1562 0.03,0.1525 0.08,0.318 0.125,0.4688 0.01,0.053 0.06,0.2182 0.187,0.3437 0.02,0.016 0.02,0.022 0.03,0.031 0.04,0.1697 0.07,0.3394 0.188,0.5 l 0,0.031 0,0.031 c 0,0.01 -0.03,-0.01 -0.03,0 0,0.044 0.01,0.086 0.03,0.125 l 0,0.031 c 0,0.127 0.02,0.2744 0.125,0.4063 0.135,0.1637 0.32,0.2292 0.437,0.25 0.174,0.031 0.342,0.015 0.5,0 0.08,0.046 0.175,0.086 0.188,0.094 0.137,0.076 0.305,0.1415 0.5,0.2188 0.376,0.1492 0.837,0.314 1.344,0.4687 1.003,0.3063 2.067,0.6132 2.562,0.6875 l 0.03,0 0.03,0 0.03,0 0.03,0 0.03,-0.031 c 0,0 0.03,-10e-5 0.03,0 0,0 0.03,-10e-5 0.03,0 l 0.03,-0.031 0.03,0 0.03,-0.031 c 0,0 0.03,-10e-5 0.03,0 l 0.03,-0.031 c 0.03,-0.021 0.01,-0.013 0.03,-0.031 0.05,0.014 0.08,0.021 0.156,0.031 0.218,0.029 0.414,0.048 0.531,0.062 0,9e-4 0.03,-9e-4 0.03,0 1.017,0.7371 2.209,2.0003 4.312,2.0938 0.233,0.2462 0.481,0.4503 0.813,0.5625 0.201,0.068 0.397,0.063 0.593,0.062 0.1,0.2102 0.254,0.3649 0.469,0.4375 0.213,0.072 0.41,0.067 0.625,0.031 l 0.03,0 0.03,0 0.03,0 0,-0.031 c 0,0 0.03,-1e-4 0.03,0 0,0 0.03,-1e-4 0.03,0 0,0 0.03,-1e-4 0.03,0 l 0.03,-0.031 0.03,0 c 0.02,-0.01 0.04,-0.018 0.06,-0.031 l 0,-0.031 0.03,0 0,-0.031 c 0,0 0.03,-1e-4 0.03,0 l 0,-0.031 0.03,0 0,-0.031 0,-0.031 c 0,-3e-4 0.02,4e-4 0.03,0 0.219,-0.012 0.572,-0.1596 0.937,-0.4375 0.03,-0.021 0.07,-0.01 0.09,-0.031 0.01,6e-4 0.02,6e-4 0.03,0 0.01,-0.011 0.02,-0.02 0.03,-0.031 0.01,-0.011 0.02,-0.02 0.03,-0.031 0.02,-0.017 0.05,-0.021 0.06,-0.031 0.02,-0.01 0.03,-0.019 0.06,-0.031 0.202,-0.085 0.543,-0.2087 0.875,-0.3125 0.334,-0.1047 0.649,-0.178 0.906,-0.2188 0.117,-0.019 0.254,-0.031 0.312,-0.031 0,-10e-5 0.03,0 0.03,0 0,-10e-5 0.03,0.031 0.03,0.031 l 0.03,0 c 0.02,0.013 0.04,0.023 0.06,0.031 0,-1e-4 0.03,0 0.03,0 0,-1e-4 0.03,0 0.03,0 0,-1e-4 0.03,0 0.03,0 0,0 0.03,-1e-4 0.03,0 0,0 0.03,-1e-4 0.03,0 0,0 0.03,-1e-4 0.03,0 0,0 0.03,-1e-4 0.03,0 0,0 0.03,-1e-4 0.03,0 l 0,-0.031 0.03,0 0.03,0 0.03,0 0.03,-0.031 c 0,0 0.03,-10e-5 0.03,0 0.05,0.01 0.09,0 0.137,-0.013 l 0,-0.031 c 0,0 0.03,-1e-4 0.03,0 l 0,-0.031 0.03,0 0,-0.031 c 0,0 0.03,-1e-4 0.03,0 l 0,-0.031 0.03,-0.031 0,-0.031 0.03,-0.031 0,-0.031 0.03,-0.031 0,-0.031 0,-0.031 0.03,-0.031 0,-0.031 0,-0.031 0,-0.031 0,-0.031 0,-0.031 c 0,0 -0.03,-1e-4 -0.03,0 l 0,-0.031 0,-0.031 0,-0.031 -0.03,-0.031 0,-0.031 c 0.01,-0.01 0.02,-0.02 0.03,-0.031 0,0 0.03,-10e-5 0.03,0 l 0.03,-0.031 0.03,0 0.03,-0.031 c 0.01,6e-4 0.02,6e-4 0.03,0 l 0,-0.031 0.03,0 0,-0.031 0.03,0 c 0.02,-0.012 0.03,-0.032 0.03,-0.031 -0.08,0 0,0.011 0.09,0.062 0.06,0.033 0.217,0.1564 0.469,0.1875 0.14,0.017 0.317,-0.022 0.469,-0.125 0.04,-0.026 0.03,-0.067 0.06,-0.094 0,-0.01 0.03,0.01 0.03,0 0.196,-0.066 0.749,-0.1697 1.375,-0.25 0.648,-0.083 1.32,-0.188 1.875,-0.2813 0.187,0.086 0.391,0.191 0.656,0.25 0.333,0.074 0.68,0.1288 1,0.1875 0.318,0.058 0.617,0.1048 0.782,0.1563 0.1,0.031 0.164,0.067 0.09,0.031 0.03,0.016 0.06,0.026 0.09,0.031 0.05,0.01 0.108,-0.01 0.156,-0.031 0.01,-0.019 0.02,-0.04 0.03,-0.062 0.01,6e-4 0.02,6e-4 0.03,0 0,0.011 0.02,0.022 0.03,0.031 0.03,0 0.06,-0.015 0.09,-0.031 l 0.25,-0.062 c 0.03,-0.01 0.06,-0.016 0.09,-0.031 0.04,-0.024 0.07,-0.056 0.09,-0.094 0.03,-0.07 0.03,-0.149 0,-0.2187 0.01,0.044 0,0.022 0,-0.031 0,-0.053 0.02,-0.1376 0.03,-0.2187 0.02,-0.1408 0.05,-0.2974 0.09,-0.4375 0.05,0.024 0.09,0.046 0.156,0.062 0.09,0.023 0.157,0.035 0.219,0.031 -0.04,0 0.133,-0.017 0.25,-0.094 0.09,-0.058 0.118,-0.1196 0.156,-0.1875 0.04,-0.068 0.09,-0.1221 0.09,-0.2188 0,-0.018 -0.03,-0.039 -0.03,-0.062 0.02,-0.04 0.04,-0.085 0.06,-0.125 0.02,-0.013 0.03,0 0.06,-0.031 0.131,-0.1458 0.166,-0.3205 0.187,-0.4063 0.05,-0.206 0.113,-0.4328 0.125,-0.6562 -0.03,-0.1505 -0.02,-0.3366 -0.02,-0.4373 0.121,0.08 0.156,-0.1125 0.197,-0.155 0.1,0.1214 0.27,0.1424 0.341,0.062 0.08,-0.045 0.103,-0.128 0.15,-0.186 -0.02,-0.2975 0.147,-0.5751 0.219,-0.8125 0.06,-0.2473 0.209,-0.4628 0.31,-0.6877 -0.09,0.1034 -0.213,0.02 -0.335,0.031 0,0 0.02,-0.043 0.03,-0.062 0.03,-0.052 0.07,-0.12 0.09,-0.1563 l 0.25,-0.031 0,-0.156 c 0.102,0.022 0.21,0.023 0.28,0.031 0.297,-0.071 0.467,-0.2928 0.563,-0.5 0.02,-0.048 0.04,-0.1024 0.03,-0.1563 0,-0.046 -0.03,-0.089 -0.06,-0.125 -0.02,-0.038 -0.05,-0.07 -0.09,-0.094 l -0.125,-0.062 c 0.502,-0.052 0.663,-0.3431 1.018,-0.5301 0.07,-0.039 0.179,-0.07 0.282,-0.1562 0.152,-0.1285 0.199,-0.2883 0.25,-0.4375 0.04,-0.118 0.105,-0.2643 0.125,-0.4688 l 0,-0.124 -0.03,0 c 0.03,-0.054 -0.02,-0.087 -0.03,-0.124 l 0,-0.093 c 0,0 0.03,-1e-4 0.03,0 -0.04,-0.3622 0.143,-0.7212 0.218,-0.9992 0.14,-0.2226 0.38,-0.4244 0.719,-0.7188 0.05,-0.1007 0.03,-0.1792 0.07,-0.2561 0.04,-0.065 0.09,-0.086 0.107,-0.1469 -0,-0.08 -0.04,-0.1469 -0.06,-0.218 -0.06,-0.2815 -0.06,-0.6078 -0.06,-0.875 l 0,-0.2812 c 0.06,-0.07 0.137,-0.1526 0.188,-0.2188 0.08,-0.1002 0.203,-0.3204 0.156,-0.5937 0.382,-0.098 0.462,-0.4073 0.675,-0.7803 0.03,-0.2156 0.02,-0.4338 0,-0.6562 -0.04,-0.4537 -0.139,-0.979 -0.25,-1.5 -0.109,-0.514 -0.21,-1.0151 -0.281,-1.4375 -0.03,-0.2016 -0.06,-0.3952 -0.06,-0.5313 0.02,-0.2804 -0.04,-0.4004 -0.06,-0.6212 l -0.03,-0.031 c -0.07,-0.092 -0.06,-0.086 -0.03,-0.2188 0.03,-0.1287 0.08,-0.3527 0.187,-0.5312 0.109,-0.1824 0.269,-0.3349 0.375,-0.5625 0.04,-0.082 0.143,-0.2712 0.125,-0.5 -0.01,-0.1583 -0.115,-0.2418 -0.187,-0.3125 0,-0.01 -0.02,0.01 -0.03,0 0,-0.022 -0.02,-0.043 -0.03,-0.062 l 0,-0.031 c -0.02,-0.038 -0.05,-0.07 -0.09,-0.094 -0.01,-0.011 -0.01,-0.023 -0.03,-0.031 -0.09,-0.081 -0.12,-0.1135 -0.125,-0.125 l 0,-0.094 c 0,-0.031 0.02,-0.2556 -0.09,-0.4688 -0.108,-0.2024 -0.304,-0.3226 -0.5,-0.4062 -0.02,-0.01 -0.04,-0.023 -0.06,-0.031 -0.02,-0.027 -0.04,-0.068 -0.06,-0.094 0.04,-0.038 0.09,-0.047 0.125,-0.094 0.02,-0.036 0.11,-0.1495 0.125,-0.2812 0.01,-0.1151 -0.05,-0.1932 -0.09,-0.2813 0,-0.088 0.04,-0.2399 0,-0.4375 -0.04,-0.1993 -0.138,-0.4191 -0.281,-0.625 -0.158,-0.2258 -0.403,-0.3656 -0.688,-0.4375 -0.04,-0.011 -0.04,-0.027 -0.06,-0.031 -0.06,-0.2071 -0.199,-0.1819 -0.307,-0.2803 l 0,-0.031 c 0,-0.688 -0.447,-0.8804 -0.647,-1.1548 -0.1,-0.1502 -0.225,-0.4125 -0.343,-0.6562 -0.123,-0.2534 -0.235,-0.5058 -0.282,-0.6875 0,-0.1358 0.148,-0.2575 0.215,-0.373 0.114,-0.2723 0.06,-0.5139 0.03,-0.6563 -0.03,-0.168 -0.09,-0.3765 -0.25,-0.5625 -0.07,-0.085 -0.219,-0.1518 -0.375,-0.1875 l 0,-0.062 c -0.03,-0.1589 -0.1,-0.3633 -0.312,-0.5 -0.06,-0.04 -0.105,-0.03 -0.157,-0.031 -0.135,-0.2335 -0.319,-0.4361 -0.562,-0.5313 -0.171,-0.067 -0.316,-0.1082 -0.469,-0.1562 0,-0.057 0.02,-0.1003 -0.03,-0.1875 -0.115,-0.2024 -0.282,-0.3262 -0.406,-0.4063 0.05,-0.1422 0.05,-0.3419 -0.03,-0.5312 -0.07,-0.1503 -0.192,-0.2214 -0.313,-0.2813 -0.121,-0.06 -0.238,-0.1105 -0.375,-0.094 -0.02,0 -0.02,0.027 -0.03,0.031 -0.112,-0.1401 -0.232,-0.3026 -0.406,-0.4687 -0.217,-0.206 -0.47,-0.4011 -0.719,-0.5313 -0.113,-0.059 -0.249,-0.1368 -0.438,-0.1562 -0.09,-0.01 -0.186,0.07 -0.281,0.094 -0.02,0 -0.04,-0.01 -0.06,0 0,-0.011 -0.02,-0.021 -0.03,-0.031 -0.05,-0.01 -0.108,0.01 -0.156,0.031 -0.132,0.061 -0.501,0.1272 -0.969,0.1563 -0.3,0.019 -0.682,0.041 -1.063,0.062 0,-0.015 -0.02,-0.017 -0.03,-0.031 -0.09,-0.1645 -0.196,-0.2984 -0.312,-0.4062 -0.139,-0.1283 -0.31,-0.261 -0.531,-0.2813 -0.221,-0.02 -0.375,0.086 -0.5,0.1563 l -0.03,0 c -0.105,-8e-4 -0.163,-0.026 -0.343,-0.1563 -0.1,-0.071 -0.217,-0.1563 -0.407,-0.2187 -0.542,-0.1523 -0.701,0.037 -1.106,0.124 0.03,-6e-4 0.03,-0.03 -0.03,0 -0.03,-6e-4 -0.08,-0.023 -0.125,-0.031 -0.125,-0.02 -0.284,-0.046 -0.438,-0.094 -0.149,-0.047 -0.307,-0.1304 -0.5,-0.1563 -0.05,-0.01 -0.227,0.011 -0.406,0.094 -0.327,-0.01 -0.657,-0.073 -1.062,-0.125 -0.418,-0.054 -0.924,-0.01 -1.469,0.2187 -0.237,-0.1311 -0.516,-0.2708 -0.813,-0.25 -0.274,0.019 -0.477,0.1931 -0.656,0.375 -0.146,-0.061 -0.295,-0.1258 -0.437,-0.1875 -0.123,-0.053 -0.25,-0.068 -0.375,-0.094 -0.253,-0.4352 -0.499,-0.083 -0.743,-0.1233 z M 165.345,68.5 c 0,2e-4 0,7e-4 0,0 z m -10.75,4.0313 c 0,-1e-4 0.06,0 0.06,0 0,-1e-4 0.02,0 0.03,0 0.03,0.017 0.03,0.027 0.03,0.031 l -0.153,0.219 L 154.406,73 c 0,0 -0.02,-0.022 -0.03,-0.031 0,0 -0.03,-3e-4 -0.03,0 l 0,-0.062 c 0,1e-4 -0.03,-0.031 -0.03,-0.031 l 0,-0.094 0.25,0 0.03,-0.25 z"
         id="path6148"
         style="opacity:0.5;fill:#ffffff;fill-opacity:1;stroke:none"
         inkscape:connector-curvature="0"
         sodipodi:nodetypes="cccccccccscccccccccccccccccccccccccccccccccccccccccccccccccccccccccccccccccccccccccccccsccccsccccccccccccccccccccccccccccccccccccccsccccccccccccccccccccccccccccccccccccccccccccccccsccccscccccccccccccccccccccccccccccccccccccccccccccccccccccccccccccccccccccccccccccccccccsccccccsccccccccccccccccccccccccccccccccccccscccccccccccccccccccccscccccccccccccccccccccccccccccccccccccccccccccccccccccccccccccccccccccccccccc" />
      <path
         d="m 140,45 c 0.466,-0.253 1.092,-0.3959 1.537,-0.6926 0.167,-0.1115 0.283,-0.4987 0.43,-0.6448 0,-0.3026 0.242,-0.027 0.322,-0.1075 0.407,-0.4066 0.964,-0.8565 1.397,-1.2896 0.568,-0.5679 1.276,-1.3832 1.72,-1.827 0.475,-0.4752 2.937,-0.3582 3.654,-0.5373 0.1,-0.025 0.124,-0.1696 0.214,-0.215 0.443,-0.2211 1.149,0.047 1.612,-0.1074 0.434,-0.1447 0.935,0.01 1.398,-0.1075 0.855,-0.2139 2.063,-0.4191 2.901,0 0.151,0.075 0.542,0 0.645,0.1075 0.176,0.1759 0.725,0.4207 1.075,0.5373 0.137,0.046 0.419,-0.079 0.537,0 0.437,0.2916 0.382,0.203 0.86,0.3224 0.1,0.025 0.124,0.1697 0.215,0.215 0.196,0.098 0.545,-0.069 0.752,0 0.866,0.2885 1.899,-0.012 2.579,0.2149 0.3,0.1 0.616,0.3616 0.968,0.5373 0.291,0.1459 0.648,0.8668 0.752,1.0747 0.08,0.1646 0.191,0.084 0.322,0.215 0.159,0.1584 0.253,0.4677 0.43,0.6448 0.09,0.085 0.46,0.1377 0.537,0.2149 0.129,0.1285 0.409,0.4089 0.538,0.5374 0.183,0.1829 0.05,0.3275 0.215,0.5373 0.08,0.1009 0.231,0.1236 0.322,0.215 0.209,0.2088 0.277,0.599 0.43,0.7522 0.05,0.047 0.495,2.1075 0.645,2.2569 0.349,0.3494 0.723,0.5268 0.86,1.0747 0.09,0.3722 -0.136,0.064 0.107,0.4299 0.165,0.2468 0.06,-0.046 0.322,0.2149 0.122,0.1212 0.07,0.4999 0.215,0.6448 0.06,0.057 0.171,0.041 0.215,0.1075 0.215,0.3224 -0.107,0.1074 0,0.3224 0.321,0.6414 0.42,1.3659 0.645,2.0419 0.205,0.6139 -0.1,1.4294 0.108,2.0419 0.212,0.6375 0.281,3.1743 0.107,3.8689 -0.05,0.2028 -0.396,0.7254 -0.43,0.8597 -0.09,0.3772 -0.1,0.8451 -0.322,1.2897 -0.157,0.3141 -0.428,0.5309 -0.538,0.8597 -0.192,0.5789 -0.03,1.5025 -0.214,2.0419 -0.129,0.3843 -0.408,0.6866 -0.538,1.0747 -0.06,0.1806 -0.08,0.6147 -0.215,0.7523 -0.26,0.2602 -0.639,0.4811 -0.967,0.6448 -0.238,0.1191 -0.205,0.3126 -0.322,0.4299 -0.162,0.1617 -0.454,0.227 -0.645,0.3224 -0.196,0.098 -0.06,0.082 -0.108,0.2149 -0.171,0.513 -0.646,0.7563 -0.859,1.1822 -0.04,0.086 0.04,0.2364 0,0.3224 -0.06,0.1208 -0.28,0.1951 -0.323,0.3224 -0.101,0.3022 -0.132,0.5046 -0.215,0.7523 -0.07,0.2008 -0.329,0.3291 -0.43,0.4299 -0.132,0.132 -0.229,0.5667 -0.322,0.7523 -0.111,0.2213 0.217,0.7498 0.107,0.8597 -0.09,0.091 -3.064,-0.041 -3.331,-0.1075 -1.199,-0.2996 -2.349,0.3193 -3.439,0.5374 -0.482,0.096 -1.153,-0.046 -1.612,0.1075 -0.297,0.099 -0.359,0.2866 -0.645,0.4298 -0.114,0.057 -1.76,0.1446 -2.042,0.215 -0.587,0.1467 -1.189,0.3604 -1.719,0.5373 -0.254,0.085 -0.52,-0.074 -0.753,-0.1075 -0.382,-0.055 -0.804,0.076 -1.182,0 -1.762,-0.3524 -3.425,-0.8463 -4.728,-2.1493 -0.264,-0.2631 -1.038,-0.2854 -1.183,-0.4299 -0.05,-0.054 -0.144,-0.252 -0.215,-0.3224 -0.347,-0.3476 -2.935,-0.9407 -3.546,-1.2897 -0.132,-0.075 -0.187,-0.2544 -0.322,-0.3224 -0.08,-0.039 -0.56,-0.022 -0.645,-0.1074 -0.141,-0.1405 0.232,0.2501 0,-0.215 -0.243,-0.4863 0.03,0.11 -0.215,-0.7522 -0.08,-0.2803 -0.326,-0.492 -0.43,-0.7523 -0.105,-0.2618 -0.04,-0.5888 -0.108,-0.8598 -0.154,-0.6194 -0.304,-1.0942 -0.429,-1.7195 -0.09,-0.4542 0.12,-5.7341 0.215,-6.0183 0.04,-0.1225 0.174,-0.1998 0.214,-0.3224 0.116,-0.3473 0.02,-0.8299 0.108,-1.1821 0.18,-0.7208 0.431,-1.4027 0.537,-2.1494 0.05,-0.3511 -0.05,-0.7236 0,-1.0747 0.156,-1.0916 0.524,-2.1308 0.645,-3.2241 0.192,-1.7237 0.533,-4.1449 1.58,-5.4331 z"
         inkscape:connector-curvature="0"
         id="path6020"
         style="fill:#755e43;fill-opacity:1;stroke:none" />
      <path
         style="opacity:0.8;fill:#ffffff;fill-opacity:1;stroke:none"
         d="m 155.281,28.9375 c -0.421,0.2911 0.418,1.2737 -0.582,0.8651 -0.305,-0.1914 -0.681,-0.079 -0.934,-0.3351 -0.341,0.4653 -1.341,0.7622 -0.712,1.4677 -1.376,-2.3578 -0.586,2.3902 -1.834,1.0946 -0.721,-0.1499 -0.858,1.331 -0.551,1.7498 0.285,0.8566 1.33,0.8136 1.631,1.5908 1.281,1.7864 3.52,0.9086 4.897,-0.172 0.47,-0.9487 2.598,-1.6931 1.355,-2.8266 0.38,-0.4968 -0.623,-0.9847 -0.721,-1.436 -1.236,-0.7259 -0.855,-0.8436 -2.001,-1.0949 -0.07,-0.1631 0.762,-0.8664 -0.174,-0.8739 -0.127,0.01 -0.242,-0.054 -0.374,-0.029 z m 21.625,6.4688 c -1.176,0.061 -0.319,1.8782 -1.688,1.3126 -0.07,0.6406 -1.279,2.0312 -1.207,1.2273 -1.581,0.059 -0.863,3.4699 -2.746,2.7409 -0.475,0.5637 -0.557,1.3546 -1.237,1.6273 -0.701,2.0669 2.433,2.5015 1.739,4.4975 1.001,0.8617 1.036,1.9133 1.368,3.1045 1.009,0.897 2.351,1.6896 3.752,1.6834 1.468,-0.185 4.018,0.338 4.69,-1.2893 0.866,0.7546 1.212,-1.1298 1.803,-1.1878 0.575,-0.3503 0.08,-1.3758 0.378,-1.9102 0.09,-1.9059 3.487,-1.2784 2.914,-3.5061 -0.825,-1.0799 -1.126,-1.9445 -0.199,-3.1774 -0.09,-1.1141 -2.263,-0.022 -1.679,-1.7818 0.123,-1.3516 -1.105,-0.1906 -1.244,-1.062 -0.891,-1.2758 -2.052,-1.939 -3.474,-1.3193 -0.73,-0.5831 -1.285,0.6024 -2.273,-0.7422 -0.285,-0.3042 -0.647,0.1325 -0.897,-0.2174 z m -4.594,5.75 c 0.204,0.2241 -0.17,0.099 0,0 z m -24.5,4.25 c -0.517,0.8688 -1.822,1.3675 -2.215,1.5934 -0.105,-1.0753 -0.729,0.1395 -1.125,-0.096 -1.336,0.3288 0.08,2.5836 -1.581,2.5659 -0.473,1.2022 -0.08,2.2142 -1.072,3.206 0.04,2.5143 0.7,5.09 0.04,7.5742 -0.208,2.141 3.112,3.1573 2.281,5.0313 0.579,0.6205 1.906,-1.1559 3.045,-0.4057 2.167,0.5202 4.195,0 6.123,-0.7521 1.507,0.2726 3.052,-0.2092 4.571,-0.029 0.984,-0.3244 2.276,0.356 3.161,-0.081 0.993,-0.1784 1.604,0.1793 2.592,-0.5396 1.806,0.3948 4.414,-0.1105 3.861,-2.5318 0.09,-1.5004 0.534,-3.5974 0.82,-5.3278 -0.04,-0.5195 -1.079,-0.021 -0.843,-0.6798 1.126,-1.334 1.259,-3.2568 -0.733,-3.823 -0.835,-0.4543 0.282,-1.87 -0.999,-1.7769 -0.926,0.6152 -1.069,-0.2393 -0.764,-0.957 -0.143,-1.9094 -2.615,-1.0394 -3.53,-1.2188 -0.887,-0.4903 -2.138,-0.1486 -3.127,-0.3186 -1.009,0.1755 -2.209,-0.4171 -3.138,-0.1499 -0.834,0.407 -1.945,-0.792 -2.768,-0.1583 -1.133,0.4666 -2.992,0.013 -3.69,-0.7214 -0.09,-0.3308 -0.63,-0.439 -0.907,-0.4031 z M 184.5,50.625 c -0.604,0.4941 0.32,1.2629 -1.097,0.9694 -2.061,-0.2179 -1.48,2.1465 -3.233,2.147 -1.318,0.9087 -0.442,2.1791 0.336,2.8831 -1.45,0.627 -0.382,2.3459 0.864,1.8435 -0.437,0.6104 0.338,0.7872 0.754,0.6081 1.023,-0.1603 0.323,0.5568 0.505,0.9691 1.833,0.917 3.344,-1.2652 5.135,-1.3927 -0.07,-1.0344 0.803,-2.2181 1.345,-3.2707 0.06,-0.7268 -0.773,-1.1813 -0.572,-1.873 -0.729,-0.6437 -1.558,-1.5612 -2.243,-1.5617 0.461,-1.5158 -1.189,-0.2011 -1.65,-1.2907 -0.04,-0.035 -0.116,-0.042 -0.144,-0.031 z"
         id="path6018"
         inkscape:connector-curvature="0" />
      <path
         d="m 155.281,29.6563 c -0.06,0 -0.12,0.01 -0.187,0.031 -0.391,0.1303 -0.63,0.3047 -1.094,0.3125 -0.421,-0.06 -0.221,0.2199 -0.406,0.3125 -0.106,0.053 -0.294,0.025 -0.407,0.062 -0.218,0.073 -0.149,0.2433 -0.281,0.375 -0.04,0.044 -0.268,0.1121 -0.312,0.1563 -0.25,0.2499 -0.91,1.1667 -1,1.4375 -0.04,0.1219 -0.272,0.1905 -0.313,0.3125 -0.07,0.1991 -0.06,0.3967 -0.06,0.625 0,0.3347 0.07,0.4515 0.218,0.75 0.04,0.08 -0.06,0.3141 0,0.375 0.1,0.098 0.229,0.3503 0.407,0.4687 0.351,0.2339 0.772,0.2921 1.125,0.4688 l 1.218,0.5937 c 0.573,0.2865 3.439,-0.3762 3.75,-0.8437 0.249,-0.3728 -0.02,-0.7739 0.157,-1.125 0.09,-0.1821 -0.02,-0.4517 0.06,-0.625 0.06,-0.1123 0.105,-0.105 0.156,-0.1563 0.06,-0.06 0.05,-1.0166 0,-1.125 -0.08,-0.1554 -0.09,-0.1234 -0.218,-0.25 -0.04,-0.045 -0.237,-0.5735 -0.313,-0.6875 -0.04,-0.056 -0.3,-0.2574 -0.312,-0.2812 -0.07,-0.15 -0.185,-0.4969 -0.313,-0.625 -0.297,-0.2975 -0.03,0.031 -0.219,-0.062 -0.127,-0.064 -0.138,-0.3483 -0.312,-0.4063 -0.224,-0.075 -0.607,0 -0.844,0 -0.189,0 -0.328,-0.085 -0.5,-0.094 z m 22.219,6.3125 c -0.156,-0.015 -0.315,2e-4 -0.5,0.031 -0.259,0.6712 -0.586,0.505 -1,0.7813 -0.295,0.1964 -0.258,0.4653 -0.406,0.6875 -0.07,0.1052 -0.61,0.5474 -0.75,0.6875 -0.369,0.3689 0.05,-0.1791 -0.313,0.062 -0.08,0.051 -0.08,0.1991 -0.156,0.25 -0.557,0.3715 -1.11,0.6958 -1.656,0.9687 -0.404,0.2019 -0.175,1.2372 -0.313,1.375 -0.136,0.1358 -0.521,0.1632 -0.687,0.2188 -0.09,0.029 -0.11,0.2033 -0.157,0.25 -0.115,0.1158 -0.44,0.1944 -0.531,0.375 -0.163,0.3269 -0.05,0.4386 -0.156,0.75 -0.314,0.9433 0.216,1.808 0.687,2.5937 0.154,0.2562 0,0.1693 0.157,0.375 0.08,0.1099 0.235,0.1972 0.312,0.3125 0.261,0.3906 0.324,0.8048 0.531,1.2188 0.06,0.1167 0.126,0.063 0.219,0.1562 0.06,0.059 0.203,0.3743 0.25,0.4688 0.115,0.2301 0,0.4959 0.06,0.75 0.06,0.2197 0.152,0.4257 0.218,0.625 0.06,0.1869 0,0.3584 0.09,0.5312 0.239,0.4779 0.908,0.72 1.281,0.9688 0.115,0.076 0.278,0.058 0.375,0.1562 0.3,0.2994 1.087,0.8887 1.532,1 0.508,0.127 2.509,0.037 2.906,-0.062 0.378,-0.094 0.505,-0.6746 0.844,-0.8437 0.115,-0.058 0.265,-0.1013 0.375,-0.1563 0.08,-0.04 0.107,-0.2638 0.156,-0.3125 0.137,-0.1375 1.042,-0.3578 1.281,-0.4375 0.154,-0.051 0.216,-0.3094 0.313,-0.4062 0.33,-0.3305 0.766,-0.6491 1.156,-0.8438 0.159,-0.079 0.08,-0.1516 0.125,-0.2812 -0.03,-0.1661 0.131,-0.043 0.156,-0.094 0.273,-0.5453 0,-1.1312 0.469,-1.5937 0.169,-0.1687 1.109,-1.1243 1.156,-1.2188 0.09,-0.1848 0.06,-0.3951 0.125,-0.5937 0.06,-0.1887 0.23,-0.3965 0.313,-0.5625 0.04,-0.08 0.06,-0.2865 0.09,-0.375 0.127,-0.3795 -0.186,-1.1602 -0.09,-1.4375 0.07,-0.2213 0.08,-1.9632 0,-2.125 -0.162,-0.3228 -0.46,-0.397 -0.688,-0.625 -0.305,-0.3054 -0.468,-0.6561 -0.844,-0.9063 -0.157,-0.1051 -0.277,-0.1028 -0.437,-0.1562 -0.155,-0.052 -0.234,-0.2344 -0.313,-0.3125 -0.163,-0.1637 -0.506,-0.3504 -0.687,-0.5313 -0.03,-0.025 -0.193,-0.037 -0.219,-0.062 -0.432,-0.4318 -0.742,-0.6547 -1.375,-0.7812 -0.141,0.057 -0.13,-0.1341 -0.219,-0.1563 -0.397,-0.099 -0.846,0 -1.218,-0.125 -0.235,-0.078 -0.562,0.016 -0.782,-0.094 -0.152,-0.076 -0.208,-0.01 -0.375,-0.062 -0.466,-0.1555 -0.845,-0.392 -1.312,-0.4375 z M 148,46.0313 c -0.08,0.01 -0.162,0 -0.219,0.031 -0.227,0.1136 -0.483,0.2102 -0.687,0.3125 -0.117,0.058 -0.06,0.1572 -0.157,0.25 -0.279,0.2798 -0.679,0.5605 -1.062,0.6563 -0.394,0.098 -0.644,0.029 -0.875,-0.2813 -0.04,0.1241 -0.03,0.2633 -0.09,0.375 -0.08,0.1375 -0.339,0.089 -0.406,0.1563 -0.118,0.1182 -0.833,0.9785 -0.906,1.125 -0.121,0.2421 -0.172,0.6549 -0.219,0.9375 -0.07,0.4438 -0.395,0.7742 -0.469,1.2187 -0.04,0.2274 0.09,0.5382 0,0.75 -0.07,0.1724 -0.27,0.3185 -0.312,0.5313 -0.175,0.8757 -0.156,1.7806 -0.281,2.6562 -0.1,0.6723 0.1,1.3902 0,2.0625 -0.179,1.2485 0.04,2.4267 0.218,3.6563 0.04,0.2904 0.264,0.5503 0.313,0.8437 0.08,0.4756 0.274,1.6146 0.531,2 0.231,0.3461 0.596,0.6221 0.844,0.9688 0.196,0.2741 0.291,0.6041 0.531,0.8437 0.01,0.013 0.446,-0.1069 0.594,-0.1562 0.77,-0.2568 2.054,-0.2813 2.906,-0.2813 0.652,0 1.414,-0.2558 2.063,-0.094 0.25,0.062 0.57,0.1484 0.843,0.094 0.285,-0.057 0.537,-0.1949 0.813,-0.25 0.854,-0.1709 2.796,0.1642 3.437,-0.1562 0.155,-0.077 0.458,0.042 0.625,0 0.635,-0.1587 1.316,-0.063 1.969,-0.1563 0.167,-0.024 0.373,0.053 0.531,0 0.546,-0.1818 1.126,-0.2346 1.688,-0.375 0.267,-0.067 0.481,-0.3212 0.75,-0.375 0.331,-0.066 0.352,0.088 0.625,0.1563 0.165,0.041 0.424,0 0.594,0 1.013,0 1.942,0.071 2.812,-0.2188 0.368,-0.1227 0.8,-0.013 1.156,-0.25 0.285,-0.19 0.426,-0.4259 0.688,-0.6875 0.118,-0.118 1.116,-0.5676 1.156,-0.6875 0.114,-0.3412 -0.308,-0.6522 -0.469,-0.8125 -0.252,-0.2521 -0.312,-1.3413 -0.312,-1.75 0,-0.6046 0.242,-1.3139 0.375,-1.8437 0.125,-0.5018 -0.102,-1.0862 0,-1.5938 0.05,-0.2278 0.156,-0.088 0.156,-0.375 0,-0.1534 -0.156,-0.2908 -0.156,-0.4687 0,-0.7164 0.216,-1.3283 0.09,-2.0625 -0.04,-0.2688 -0.294,-0.4472 -0.375,-0.6875 -0.162,-0.486 -0.239,-0.521 -0.625,-0.9063 -0.209,-0.2099 -0.276,-0.5886 -0.468,-0.7812 -0.08,-0.081 -0.292,-0.1354 -0.375,-0.2188 -0.103,-0.1031 -0.312,-0.4044 -0.375,-0.5312 -0.07,-0.1489 -0.331,-0.2372 -0.469,-0.375 -0.193,-0.1928 -0.1,-0.6597 -0.281,-0.8438 -0.473,-0.4727 -1.152,-0.4784 -1.844,-0.5937 -0.13,-0.022 -0.309,0.043 -0.438,0 -0.236,-0.079 -0.528,-0.2079 -0.781,-0.25 -0.22,-0.037 -0.407,-4e-4 -0.531,-0.062 -0.333,-0.1663 -0.919,0.091 -1.281,0 -1.511,-0.3776 -3.081,-0.3125 -4.657,-0.3125 -0.104,0 -0.697,0.083 -0.781,0 -0.132,-0.132 -1.168,-0.2296 -1.5,-0.3125 -0.115,-0.029 -0.671,-0.3515 -0.844,-0.4375 -0.04,-0.02 -1.803,0.1385 -2.218,0 -0.347,-0.1157 -1.303,-0.497 -1.844,-0.4375 z M 185,51 c -0.723,0.6706 -0.649,0.625 -1.313,0.625 -0.651,0 -1.068,-0.014 -1.281,0.625 -0.07,0.2005 -0.15,0.1133 -0.25,0.3125 -0.01,0.027 0.02,0.207 0,0.2188 -0.14,0.07 -0.307,0.1168 -0.437,0.3125 -0.09,0.1339 -0.06,0.3394 -0.157,0.4375 -0.105,0.1059 -0.35,0.1906 -0.468,0.25 -0.103,0.051 -0.617,0.6171 -0.75,0.75 -0.05,0.052 -0.217,0.5886 -0.25,0.6875 -0.113,0.338 0.03,0.8986 0.156,1.1562 0.05,0.1016 -0.05,0.2734 0,0.375 0.115,0.2296 0.165,0.4936 0.25,0.75 0.126,0.3775 0.754,0.5398 0.906,0.8438 0.02,0.045 -0.04,0.1203 0,0.1562 0.06,0.057 0.24,0.047 0.313,0.1563 0.07,0.1017 0.133,0.2892 0.218,0.375 0.153,0.1528 0.354,0.1 0.532,0.2187 0.109,0.073 0.1,0.2558 0.156,0.3125 0.297,0.2975 0.03,-1e-4 0.219,0.094 0.297,0.1484 0.529,0.4265 0.843,0.5312 0.252,0.084 1.108,0.1964 1.375,0.062 0.114,-0.057 1.485,-1.1254 1.532,-1.2187 0.101,-0.2021 0.279,-0.5617 0.531,-0.6875 0.112,-0.056 0.361,-0.16 0.437,-0.3125 0.03,-0.061 -0.03,-0.1578 0,-0.2188 0.08,-0.1628 0.242,-0.085 0.313,-0.1562 0.255,-0.2549 0.165,-0.7682 0.312,-1.0625 0.112,-0.2225 0.545,-1.2994 0.313,-1.5313 -0.1,-0.096 -0.1,-0.2589 -0.156,-0.4375 -0.05,-0.1503 -0.3,-0.318 -0.375,-0.4687 -0.03,-0.061 0.03,-0.1578 0,-0.2188 -0.12,-0.2389 -0.615,-0.7713 -0.782,-0.9375 -0.03,-0.034 -0.161,-0.3806 -0.218,-0.4375 -0.09,-0.088 -0.397,-0.2313 -0.469,-0.375 -0.02,-0.045 0.04,-0.1203 0,-0.1562 -0.29,-0.2904 -0.834,-0.5418 -1.125,-0.6875 -0.03,-0.016 -0.232,0.028 -0.25,0 C 185.06,51.2417 185.045,51.1119 185,51 Z"
         inkscape:connector-curvature="0"
         id="path5886"
         style="fill:#c6935f;fill-opacity:1;stroke:none"
         sodipodi:nodetypes="cccccccccsccccccccccccccccscccccccccccccccccccccccccccccscccccccccsccccccccccccsccccccccccccccccccccccccsccccccccccscccccsccsscccccccccccccscccccccsccccccccccccccccccccccccccccccccccccc" />
    </g>
  </g>
  <g
     id="layer7">
    <path
       d="M 12,6 C 8.676,6 6,8.676 6,12 l 0,2 0,68 0,2 c 0,0.334721 0.04135,0.6507 0.09375,0.96875 0.0487,0.295596 0.09704,0.596915 0.1875,0.875 0.00988,0.03038 0.020892,0.0636 0.03125,0.09375 0.098865,0.287771 0.2348802,0.547452 0.375,0.8125 0.1445918,0.273507 0.3156161,0.535615 0.5,0.78125 0.1843839,0.245635 0.3737765,0.473472 0.59375,0.6875 0.439947,0.428056 0.94291,0.814526 1.5,1.09375 0.278545,0.139612 0.5734731,0.246947 0.875,0.34375 -0.2562018,-0.100222 -0.4867109,-0.236272 -0.71875,-0.375 -0.00741,-0.0044 -0.023866,0.0045 -0.03125,0 -0.031933,-0.0193 -0.062293,-0.04251 -0.09375,-0.0625 -0.120395,-0.0767 -0.2310226,-0.163513 -0.34375,-0.25 -0.1061728,-0.0808 -0.2132809,-0.161112 -0.3125,-0.25 C 8.4783201,88.557317 8.3087904,88.373362 8.15625,88.1875 8.0486711,88.057245 7.9378561,87.922215 7.84375,87.78125 7.818661,87.74287 7.805304,87.69538 7.78125,87.65625 7.716487,87.553218 7.6510225,87.451733 7.59375,87.34375 7.4927417,87.149044 7.3880752,86.928049 7.3125,86.71875 7.30454,86.69694 7.288911,86.6782 7.28125,86.65625 7.2494249,86.5643 7.2454455,86.469419 7.21875,86.375 7.1884177,86.268382 7.1483606,86.171969 7.125,86.0625 7.0521214,85.720988 7,85.364295 7,85 L 7,83 7,15 7,13 C 7,10.218152 9.2181517,8 12,8 l 2,0 68,0 2,0 c 2.781848,0 5,2.218152 5,5 l 0,2 0,68 0,2 c 0,0.364295 -0.05212,0.720988 -0.125,1.0625 -0.04415,0.206893 -0.08838,0.397658 -0.15625,0.59375 -0.0077,0.02195 -0.0233,0.04069 -0.03125,0.0625 -0.06274,0.173739 -0.138383,0.367449 -0.21875,0.53125 -0.04158,0.0828 -0.07904,0.169954 -0.125,0.25 -0.0546,0.09721 -0.126774,0.18835 -0.1875,0.28125 -0.09411,0.140965 -0.204921,0.275995 -0.3125,0.40625 -0.143174,0.17445 -0.303141,0.346998 -0.46875,0.5 -0.01117,0.0102 -0.01998,0.02115 -0.03125,0.03125 -0.138386,0.125556 -0.285091,0.234436 -0.4375,0.34375 -0.102571,0.07315 -0.204318,0.153364 -0.3125,0.21875 -0.0074,0.0045 -0.02384,-0.0044 -0.03125,0 -0.232039,0.138728 -0.462548,0.274778 -0.71875,0.375 0.301527,-0.0968 0.596455,-0.204138 0.875,-0.34375 0.55709,-0.279224 1.060053,-0.665694 1.5,-1.09375 0.219973,-0.214028 0.409366,-0.441865 0.59375,-0.6875 0.184384,-0.245635 0.355408,-0.507743 0.5,-0.78125 0.14012,-0.265048 0.276135,-0.524729 0.375,-0.8125 0.01041,-0.03078 0.02133,-0.06274 0.03125,-0.09375 0.09046,-0.278085 0.1388,-0.579404 0.1875,-0.875 C 89.95865,84.6507 90,84.334721 90,84 l 0,-2 0,-68 0,-2 C 90,8.676 87.324,6 84,6 L 12,6 z"
       inkscape:connector-curvature="0"
       id="rect3728"
       style="opacity:0.35;fill:url(#linearGradient3081);fill-opacity:1;fill-rule:nonzero;stroke:none" />
    <path
       d="M 12,90 C 8.676,90 6,87.324 6,84 L 6,82 6,14 6,12 c 0,-0.334721 0.04135,-0.6507 0.09375,-0.96875 0.0487,-0.295596 0.09704,-0.596915 0.1875,-0.875 C 6.29113,10.12587 6.302142,10.09265 6.3125,10.0625 6.411365,9.774729 6.5473802,9.515048 6.6875,9.25 6.8320918,8.976493 7.0031161,8.714385 7.1875,8.46875 7.3718839,8.223115 7.5612765,7.995278 7.78125,7.78125 8.221197,7.353194 8.72416,6.966724 9.28125,6.6875 9.559795,6.547888 9.8547231,6.440553 10.15625,6.34375 9.9000482,6.443972 9.6695391,6.580022 9.4375,6.71875 c -0.00741,0.0044 -0.023866,-0.0045 -0.03125,0 -0.031933,0.0193 -0.062293,0.04251 -0.09375,0.0625 -0.120395,0.0767 -0.2310226,0.163513 -0.34375,0.25 -0.1061728,0.0808 -0.2132809,0.161112 -0.3125,0.25 C 8.4783201,7.442683 8.3087904,7.626638 8.15625,7.8125 8.0486711,7.942755 7.9378561,8.077785 7.84375,8.21875 7.818661,8.25713 7.805304,8.30462 7.78125,8.34375 7.716487,8.446782 7.6510225,8.548267 7.59375,8.65625 7.4927417,8.850956 7.3880752,9.071951 7.3125,9.28125 7.30454,9.30306 7.288911,9.3218 7.28125,9.34375 7.2494249,9.4357 7.2454455,9.530581 7.21875,9.625 7.1884177,9.731618 7.1483606,9.828031 7.125,9.9375 7.0521214,10.279012 7,10.635705 7,11 l 0,2 0,68 0,2 c 0,2.781848 2.2181517,5 5,5 l 2,0 68,0 2,0 c 2.781848,0 5,-2.218152 5,-5 l 0,-2 0,-68 0,-2 C 89,10.635705 88.94788,10.279012 88.875,9.9375 88.83085,9.730607 88.78662,9.539842 88.71875,9.34375 88.71105,9.3218 88.69545,9.30306 88.6875,9.28125 88.62476,9.107511 88.549117,8.913801 88.46875,8.75 88.42717,8.6672 88.38971,8.580046 88.34375,8.5 88.28915,8.40279 88.216976,8.31165 88.15625,8.21875 88.06214,8.077785 87.951329,7.942755 87.84375,7.8125 87.700576,7.63805 87.540609,7.465502 87.375,7.3125 87.36383,7.3023 87.35502,7.29135 87.34375,7.28125 87.205364,7.155694 87.058659,7.046814 86.90625,6.9375 86.803679,6.86435 86.701932,6.784136 86.59375,6.71875 c -0.0074,-0.0045 -0.02384,0.0044 -0.03125,0 -0.232039,-0.138728 -0.462548,-0.274778 -0.71875,-0.375 0.301527,0.0968 0.596455,0.204138 0.875,0.34375 0.55709,0.279224 1.060053,0.665694 1.5,1.09375 0.219973,0.214028 0.409366,0.441865 0.59375,0.6875 0.184384,0.245635 0.355408,0.507743 0.5,0.78125 0.14012,0.265048 0.276135,0.524729 0.375,0.8125 0.01041,0.03078 0.02133,0.06274 0.03125,0.09375 0.09046,0.278085 0.1388,0.579404 0.1875,0.875 C 89.95865,11.3493 90,11.665279 90,12 l 0,2 0,68 0,2 c 0,3.324 -2.676,6 -6,6 l -72,0 z"
       inkscape:connector-curvature="0"
       id="path3615"
       style="opacity:0.15;fill:url(#radialGradient3619-2);fill-opacity:1;fill-rule:nonzero;stroke:none" />
  </g>
  <g
     id="layer5"
     style="display:inline">
    <rect
       width="66"
       height="66"
       rx="12"
       ry="12"
       x="15"
       y="15"
       clip-path="url(#clipPath3613)"
       id="rect3171"
       style="opacity:0.05;fill:url(#linearGradient3613);fill-opacity:1;fill-rule:nonzero;stroke:#ffffff;stroke-width:0.5;stroke-linecap:round;stroke-linejoin:miter;stroke-miterlimit:4;stroke-dasharray:none;stroke-dashoffset:0;stroke-opacity:1;filter:url(#filter3794)" />
  </g>
  <g
     id="layer4">
    <path
       d="m 65.65625,48.03125 c -3.451185,0.151263 -5.716509,4.099636 -4.0625,7.125 0.0036,0.0082 -0.0036,0.02312 0,0.03125 0.01181,0.02125 0.01905,0.04135 0.03125,0.0625 l 0.03125,0 c 0.549032,1.162959 1.512618,1.928832 2.5625,2.3125 1.041568,0.380629 2.141744,0.432774 3.15625,0.34375 0.03973,-0.0035 0.08556,0.004 0.125,0 1.853606,0.06406 3.577118,-0.09149 5.09375,0.15625 0.20597,0.09711 0.335602,0.198587 0.40625,0.375 0.08194,0.2046 0.109259,0.495114 0.03125,0.78125 -0.07801,0.286136 -0.231695,0.553172 -0.40625,0.6875 -0.174555,0.134328 -0.349528,0.181309 -0.65625,0.125 a 1.0685879,1.0685879 0 0 0 -0.21875,0 c -2.173228,0.08499 -4.546404,-0.218146 -7,0.15625 a 1.0685879,1.0685879 0 0 0 -0.09375,0.03125 c -0.710477,0.177623 -1.264986,0.591453 -1.78125,1.03125 -0.0075,-1.040431 0.03318,-2.044561 -0.03125,-3.09375 a 1.0685879,1.0685879 0 0 0 0,-0.15625 c -0.442785,-2.275051 -2.481486,-3.955242 -4.8125,-3.9375 -0.01074,8.2e-5 -0.0205,-1.55e-4 -0.03125,0 -3.145897,-0.07017 -5.302456,2.932833 -4.9375,5.84375 6.48e-4,0.05136 -5.85e-4,0.104871 0,0.15625 0.04408,3.874188 -0.08765,7.826823 0.09375,11.78125 a 1.0685879,1.0685879 0 0 0 0,0.09375 c 0.628993,4.019551 6.237186,5.439925 8.6875,2.1875 0.0091,-0.01185 0.02225,-0.01936 0.03125,-0.03125 0.888844,-1.174201 1.075628,-2.541441 1.09375,-3.75 0.0091,-0.604528 0.02136,-1.075254 0,-1.625 0.976149,0.764244 2.099352,1.128042 3.15625,1.1875 1.272682,0.0716 2.488883,-0.06297 3.4375,0 0.0086,5.72e-4 0.02267,-6.07e-4 0.03125,0 0.91803,0.06384 1.795652,-0.05982 2.40625,0 0.618528,0.0606 0.817374,0.08944 1.03125,0.59375 a 1.0685879,1.0685879 0 0 0 0,0.03125 c 0.246875,0.564379 0.104855,0.81882 -0.21875,1.125 -0.323605,0.30618 -0.909621,0.475539 -1.40625,0.375 a 1.0685879,1.0685879 0 0 0 -0.25,0 c -1.96761,0.08061 -4.169952,-0.217117 -6.4375,0.15625 a 1.0685879,1.0685879 0 0 0 -0.0625,0.03125 c -3.33439,0.843982 -4.681972,5.091087 -2.5625,7.75 L 62.0625,80 c 0.01842,0.02506 0.04368,0.03805 0.0625,0.0625 0.794261,1.03215 1.929416,1.557429 3,1.75 1.084888,0.195143 2.160523,0.118704 3.0625,0.09375 0.0092,-2.54e-4 0.02209,2.48e-4 0.03125,0 2.964766,0.01291 6.436458,0.334611 9.46875,-1.625 0.02006,-0.01133 0.04253,-0.01978 0.0625,-0.03125 l 0,-0.03125 c 5.049071,-2.914548 6.931815,-10.044492 3.375,-14.875 -0.0055,-0.0075 0.0055,-0.02376 0,-0.03125 l 0.03125,0 c -0.15878,-0.228094 -0.156936,-0.314141 -0.0625,-0.65625 0.09444,-0.342109 0.352305,-0.830937 0.6875,-1.40625 0.625332,-1.073292 1.444578,-2.551591 1.125,-4.25 l 0.0625,0 c 0.0016,-0.06516 -0.03153,-0.12255 -0.03125,-0.1875 -0.0137,-0.05605 0.01653,-0.09965 0,-0.15625 l -0.03125,0 c -0.06842,-5.646071 -4.881047,-10.465759 -10.5,-10.59375 -2.267227,-0.07942 -4.52292,-0.0076 -6.71875,-0.03125 a 1.0685879,1.0685879 0 0 0 -0.03125,0 z m -24.0625,6 c -2.760806,0.180059 -4.669421,2.722136 -4.5,5.375 0.0088,0.138067 -0.05189,0.267871 -0.03125,0.40625 l 0.03125,0 c -0.04287,0.608398 -0.0054,1.199053 0,1.5 0.0029,0.163909 -0.0084,0.198868 0,0.1875 -1.097039,0.297578 -1.838604,1.04746 -2.5,1.75 -0.07128,-0.392626 -0.07498,-0.913301 -0.125,-1.25 -0.141393,-0.951793 -0.180642,-1.633005 0.3125,-2.46875 a 1.0685879,1.0685879 0 0 0 0.15625,-0.5 c 0.09206,-3.163685 -2.922678,-5.33498 -5.84375,-4.96875 -0.05293,0.0066 -0.103405,-0.0083 -0.15625,0 -3.873985,0.04445 -7.82669,-0.08787 -11.78125,0.09375 a 1.0685879,1.0685879 0 0 0 -0.09375,0 c -1.750999,0.278569 -3.069247,1.58125 -3.65625,3.09375 -0.490776,1.264557 -0.286402,2.727675 0.5,3.96875 -2.664374,5.987279 1.510271,13.341958 7.875,14.5 0.02302,0.0042 0.03942,0.02722 0.0625,0.03125 l 0,-0.03125 c 3.535584,0.799567 7.115177,-0.521142 9.59375,-3 0.844821,2.181688 3.185986,3.750561 5.625,3.09375 l 0,0.03125 c 0.02422,-0.0042 0.03848,-0.02666 0.0625,-0.03125 0.02402,-0.0046 0.03869,-0.0263 0.0625,-0.03125 2.419481,-0.502746 3.77335,-2.835124 3.75,-5.09375 l 0.03125,0 c 0.0413,-0.309585 0.123754,-0.446334 0.3125,-0.5625 0.188746,-0.116166 0.531048,-0.158304 0.84375,-0.125 0.312702,0.0333 0.595919,0.162439 0.75,0.3125 0.154081,0.150061 0.217391,0.268821 0.1875,0.59375 a 1.0685879,1.0685879 0 0 0 0,0.03125 c -0.168655,3.560596 3.804986,6.122848 6.96875,4.5625 0.01168,-0.0058 0.01959,-0.02538 0.03125,-0.03125 0.01939,-0.0098 0.04318,0.01008 0.0625,0 L 50.09375,75.4375 c 1.52623,-0.68468 2.421022,-2.050941 2.71875,-3.46875 0.298448,-1.421239 0.136161,-2.884237 -0.34375,-4.15625 -0.0071,-0.02211 -0.02399,-0.04045 -0.03125,-0.0625 -0.898477,-2.72875 -3.004425,-4.834096 -5.5,-6.125 0.0018,-1.109779 0.135186,-2.454849 -0.09375,-3.65625 a 1.0685879,1.0685879 0 0 0 0,-0.03125 c -0.479251,-2.387158 -2.744594,-4.09577 -5.21875,-3.90625 -0.0106,8.12e-4 -0.02065,-8.82e-4 -0.03125,0 z m -17.6875,9.90625 a 1.0685879,1.0685879 0 0 0 0.125,0 c 0.626625,-0.0107 0.729201,0.14307 0.84375,0.34375 0.114549,0.20068 0.149251,0.608954 0.03125,1 -0.118001,0.391046 -0.38243,0.70696 -0.59375,0.8125 -0.21132,0.10554 -0.399051,0.174977 -0.9375,-0.1875 A 1.0685879,1.0685879 0 0 0 23.34375,65.875 C 22.954462,65.625799 22.85758,65.144305 23,64.65625 c 0.14242,-0.488055 0.377569,-0.762798 0.90625,-0.71875 z"
       id="path3960"
       style="opacity:0.05;color:#000000;fill:#000000;fill-opacity:1;fill-rule:nonzero;stroke:none;stroke-width:2;marker:none;visibility:visible;display:inline;overflow:visible;enable-background:accumulate" />
    <path
       d="m 65.6875,49.09375 c -2.646428,0.115991 -4.452047,3.3243 -3.125,5.625 0.817595,1.866363 3.007165,2.310303 4.847329,2.125 1.825955,0.07583 3.688968,-0.168105 5.486965,0.154194 2.227136,0.815918 1.234282,4.527197 -1.115544,4.095806 -2.287905,0.08947 -4.614123,-0.188739 -6.875,0.15625 -2.661203,0.665314 -3.700782,4.358873 -1.78125,6.3125 1.667687,1.889374 4.320674,1.124848 6.530378,1.28125 1.496569,0.1118 3.601656,-0.497264 4.346678,1.259456 0.820533,1.875813 -1.100751,3.338517 -2.819619,2.990544 -2.088748,0.08557 -4.214286,-0.183256 -6.276187,0.15625 -2.561392,0.648325 -3.650973,4.108414 -1.96875,6.125 1.211432,1.648006 3.409471,1.51859 5.252095,1.46875 3.048483,0.01122 6.266889,0.274645 8.955546,-1.493636 4.539612,-2.56429 6.310621,-9.128828 3.135677,-13.413821 C 78.899844,63.952458 82.685267,61.636952 81.90625,58.96875 82.030448,53.810635 77.491181,49.241539 72.375,49.125 70.1555,49.04725 67.913586,49.1177 65.6875,49.09375 z m -24,6 c -2.239539,0.131136 -3.887728,2.387335 -3.5625,4.567563 -0.217162,0.945878 0.562567,2.513759 -0.673739,2.820555 -1.449906,0.339432 -3.525098,3.327486 -3.657902,2.989865 C 33.934096,63.064961 32.587895,61.1813 33.875,59 c 0.07234,-2.485906 -2.437197,-4.242903 -4.773219,-3.875 -3.957813,0.05033 -7.928624,-0.10199 -11.878063,0.07939 -2.62936,0.418309 -4.168015,4.020856 -2.192468,6.014357 -2.78068,5.385556 1.153365,12.436174 6.988619,13.454193 3.979056,0.927784 8.235685,-1.168344 10.261381,-4.641693 -0.926247,2.699453 1.915661,5.556314 4.59375,4.75 1.957172,-0.341531 3.135642,-2.345934 3.039223,-4.235868 C 40.238503,68.11454 44.353138,68.520059 44.125,71 c -0.129502,2.734005 3.091292,4.787874 5.5,3.53125 2.466198,-1.045936 2.6494,-4.195933 1.798823,-6.39363 -0.861678,-2.680283 -2.984942,-4.865125 -5.548823,-5.98137 -0.05042,-1.281899 0.109111,-2.935435 -0.09375,-4 -0.370375,-1.844845 -2.165432,-3.222862 -4.09375,-3.0625 z M 58,55.125 c -2.485906,-0.07234 -4.242903,2.437197 -3.875,4.773219 0.04992,3.95784 -0.101786,7.928611 0.07939,11.878063 0.483273,3.088336 4.915392,4.210207 6.780497,1.681829 1.437675,-1.863917 0.712177,-4.326711 0.89011,-6.500098 -0.04775,-2.910043 0.09881,-5.832594 -0.07939,-8.734295 C 61.453871,56.467862 59.793581,55.099177 58,55.125 z m -34,7.75 c 3.674637,-0.06273 1.87687,6.001314 -1.228106,3.911082 C 21.098149,65.714643 21.90676,62.700598 24,62.875 z"
       inkscape:connector-curvature="0"
       id="path3954"
       style="opacity:0.1;color:#000000;fill:#000000;fill-opacity:1;fill-rule:nonzero;stroke:none;stroke-width:2;marker:none;visibility:visible;display:inline;overflow:visible;enable-background:accumulate" />
    <path
       d="m 65.75,49.9375 c -0.03046,0.0024 -0.251147,0.026 -0.28125,0.03125 -0.0301,0.0052 -0.251776,0.05444 -0.28125,0.0625 -0.02947,0.0081 -0.221417,0.08294 -0.25,0.09375 -0.02858,0.01081 -0.253814,0.111546 -0.28125,0.125 -0.02744,0.01345 -0.223955,0.109018 -0.25,0.125 -0.02604,0.01598 -0.194329,0.137883 -0.21875,0.15625 -0.02442,0.01837 -0.19617,0.166911 -0.21875,0.1875 -0.02258,0.02059 -0.198212,0.196124 -0.21875,0.21875 -0.02054,0.02263 -0.169188,0.194288 -0.1875,0.21875 -0.01831,0.02446 -0.140326,0.19267 -0.15625,0.21875 -0.01592,0.02608 -0.111607,0.222534 -0.125,0.25 -0.01339,0.02747 -0.114257,0.252643 -0.125,0.28125 -0.01074,0.02861 -0.08575,0.220508 -0.09375,0.25 -0.008,0.02949 -0.05732,0.251135 -0.0625,0.28125 -0.0052,0.03012 -0.02893,0.250781 -0.03125,0.28125 -0.0023,0.03047 -5.68e-4,0.281948 0,0.3125 4.96e-4,0.03176 0.02764,0.249693 0.03125,0.28125 0.0036,0.03156 0.02457,0.250199 0.03125,0.28125 0.0067,0.03105 0.08406,0.282253 0.09375,0.3125 0.0097,0.03025 0.08114,0.220849 0.09375,0.25 0.01261,0.02915 0.109592,0.253475 0.125,0.28125 0.01541,0.02777 0.138194,0.223869 0.15625,0.25 0.01806,0.02613 0.166969,0.225765 0.1875,0.25 0.02053,0.02423 0.195943,0.196644 0.21875,0.21875 0.02281,0.02211 0.193886,0.167736 0.21875,0.1875 0.02486,0.01976 0.192068,0.139019 0.21875,0.15625 0.02668,0.01723 0.253008,0.141717 0.28125,0.15625 0.02824,0.01453 0.220469,0.113305 0.25,0.125 0.02953,0.0117 0.250715,0.08501 0.28125,0.09375 0.03054,0.0087 0.281255,0.05679 0.3125,0.0625 0.03124,0.0057 0.249596,0.05988 0.28125,0.0625 0.02849,0.0024 0.219943,-9.28e-4 0.28125,0 0.0068,1.03e-4 0.02807,5e-5 0.03125,0 l 5.84375,0 0.125,0 C 73.720804,56 75,57.279196 75,58.96875 c 0,1.656984 -1.23651,2.919473 -2.875,2.96875 -0.0129,-3.5e-5 -0.01716,0 -0.03125,0 -0.0091,-4.27e-4 -0.06033,1.71e-4 -0.09375,0 -0.0557,-2.84e-4 -0.110201,-4.27e-4 -0.15625,0 l -0.0625,0 -5.71875,0 c -0.0032,-5.1e-5 -0.0243,-1.09e-4 -0.03125,0 -0.06252,9.85e-4 -0.252199,-0.0025 -0.28125,0 -0.03228,0.0027 -0.280656,0.05655 -0.3125,0.0625 -0.03184,0.0059 -0.25016,0.0534 -0.28125,0.0625 -0.03109,0.0091 -0.251226,0.08159 -0.28125,0.09375 -0.03002,0.01216 -0.252592,0.109897 -0.28125,0.125 -0.02866,0.0151 -0.254245,0.138358 -0.28125,0.15625 -0.02701,0.01789 -0.193669,0.166998 -0.21875,0.1875 -0.02508,0.0205 -0.227094,0.164594 -0.25,0.1875 -0.02291,0.02291 -0.166998,0.224919 -0.1875,0.25 -0.0205,0.02508 -0.169608,0.191745 -0.1875,0.21875 -0.01789,0.02701 -0.141147,0.252592 -0.15625,0.28125 -0.0151,0.02866 -0.112838,0.251226 -0.125,0.28125 -0.01216,0.03002 -0.08465,0.25016 -0.09375,0.28125 -0.0091,0.03109 -0.05655,0.249406 -0.0625,0.28125 -0.0059,0.03184 -0.05977,0.280221 -0.0625,0.3125 -0.0027,0.03228 -5.07e-4,0.28011 0,0.3125 4.96e-4,0.03176 0.02764,0.249693 0.03125,0.28125 0.0036,0.03156 0.02457,0.250199 0.03125,0.28125 0.0067,0.03105 0.08406,0.282253 0.09375,0.3125 0.0097,0.03025 0.08114,0.220849 0.09375,0.25 0.01261,0.02915 0.109592,0.253475 0.125,0.28125 0.01541,0.02778 0.138194,0.223869 0.15625,0.25 0.01806,0.02613 0.166969,0.225765 0.1875,0.25 0.02053,0.02424 0.195943,0.196644 0.21875,0.21875 0.02281,0.02211 0.193886,0.167736 0.21875,0.1875 0.02486,0.01976 0.192068,0.139019 0.21875,0.15625 0.02668,0.01723 0.253008,0.141717 0.28125,0.15625 0.02824,0.01453 0.220469,0.113305 0.25,0.125 0.02953,0.0117 0.250715,0.08501 0.28125,0.09375 0.03054,0.0087 0.281255,0.05679 0.3125,0.0625 0.03124,0.0057 0.249596,0.05988 0.28125,0.0625 0.02849,0.0024 0.219943,-9.28e-4 0.28125,0 0.0068,1.03e-4 0.02807,5e-5 0.03125,0 l 5.8125,0 c 0.0051,3.9e-5 0.0262,3.9e-5 0.03125,0 l 0.125,0 C 73.720804,68 75,69.279196 75,70.96875 c 0,1.656984 -1.23651,2.919473 -2.875,2.96875 -0.0129,-3.5e-5 -0.01716,0 -0.03125,0 -0.0091,-4.27e-4 -0.06033,1.71e-4 -0.09375,0 -0.0557,-2.84e-4 -0.110201,-4.27e-4 -0.15625,0 l -0.0625,0 -5.71875,0 c -0.0032,-5.1e-5 -0.0243,-1.09e-4 -0.03125,0 -0.06252,9.85e-4 -0.252199,-0.0025 -0.28125,0 -0.03228,0.0027 -0.280656,0.05655 -0.3125,0.0625 -0.03184,0.0059 -0.25016,0.0534 -0.28125,0.0625 -0.03109,0.0091 -0.251226,0.08159 -0.28125,0.09375 -0.03002,0.01216 -0.252592,0.109897 -0.28125,0.125 -0.02866,0.0151 -0.254245,0.138358 -0.28125,0.15625 -0.02701,0.01789 -0.193669,0.166998 -0.21875,0.1875 -0.02508,0.0205 -0.227094,0.164594 -0.25,0.1875 -0.02291,0.02291 -0.166998,0.224919 -0.1875,0.25 -0.0205,0.02508 -0.169608,0.191745 -0.1875,0.21875 -0.01789,0.02701 -0.141147,0.252592 -0.15625,0.28125 -0.0151,0.02866 -0.112838,0.251226 -0.125,0.28125 -0.01216,0.03002 -0.08465,0.25016 -0.09375,0.28125 -0.0091,0.03109 -0.05655,0.249406 -0.0625,0.28125 -0.0059,0.03184 -0.05977,0.280221 -0.0625,0.3125 -0.0019,0.02259 0.0024,0.135516 0,0.21875 -0.001,0.03567 -1.52e-4,0.08403 0,0.09375 -3.98e-4,0.07799 -9.95e-4,0.197537 0,0.21875 a 1.0297458,1.0297458 0 0 0 0,0.0625 c 0.0033,0.0298 0.05648,0.220627 0.0625,0.25 0.006,0.02937 0.05379,0.25256 0.0625,0.28125 0.0087,0.02869 0.08242,0.25349 0.09375,0.28125 0.01133,0.02776 0.11115,0.223407 0.125,0.25 0.01385,0.02659 0.108748,0.224803 0.125,0.25 0.01625,0.0252 0.137736,0.195165 0.15625,0.21875 0.01851,0.02358 0.166883,0.19698 0.1875,0.21875 0.02062,0.02177 0.196207,0.167731 0.21875,0.1875 0.02254,0.01977 0.194474,0.169902 0.21875,0.1875 0.02428,0.0176 0.19295,0.109725 0.21875,0.125 0.0258,0.01528 0.222897,0.143428 0.25,0.15625 0.0271,0.01282 0.221826,0.08349 0.25,0.09375 0.02817,0.01026 0.252248,0.08614 0.28125,0.09375 0.029,0.0076 0.251668,0.05761 0.28125,0.0625 0.02958,0.0049 0.251343,0.02912 0.28125,0.03125 0.02658,0.0019 0.189862,-5.33e-4 0.25,0 0.0075,6.7e-5 0.02792,7.2e-5 0.03125,0 l 5.78125,0 0.03125,0 c 0.03695,4.03e-4 0.07304,2.42e-4 0.125,0 0.02598,-1.21e-4 0.05528,2.82e-4 0.0625,0 0.04015,4e-5 0.08385,2.55e-4 0.09375,0 0.0165,-4.25e-4 0.139794,0.0013 0.15625,0 0.01646,-0.0013 0.13988,-0.02915 0.15625,-0.03125 0.0031,-4.04e-4 0.0219,0.0014 0.03125,0 0.03925,-0.0059 0.111882,-0.02888 0.125,-0.03125 4.684812,-0.309726 8.4375,-4.210389 8.4375,-8.96875 0,-2.338399 -1.023089,-4.390109 -2.5,-6 1.476911,-1.609891 2.5,-3.661601 2.5,-6 0,-4.898506 -3.964966,-8.935202 -8.84375,-9.03125 -0.04806,-9.47e-4 -0.05565,-3.85e-4 -0.03125,0 -0.01011,-3.16e-4 -0.05147,0 -0.09375,0 -0.0091,-4.27e-4 -0.06033,1.71e-4 -0.09375,0 -0.0557,-2.84e-4 -0.110201,-4.27e-4 -0.15625,0 l -0.0625,0 -5.6875,0 c -0.0061,-2.84e-4 -0.04408,1.71e-4 -0.0625,0 -0.07368,-6.83e-4 -0.225756,-0.0011 -0.25,0 a 1.0297458,1.0297458 0 0 0 -0.03125,0 z m -24,6 c -0.03046,0.0024 -0.251147,0.026 -0.28125,0.03125 -0.0301,0.0052 -0.251776,0.05444 -0.28125,0.0625 -0.02947,0.0081 -0.221417,0.08294 -0.25,0.09375 -0.02858,0.01081 -0.253814,0.111546 -0.28125,0.125 -0.02744,0.01345 -0.223955,0.109018 -0.25,0.125 -0.02605,0.01598 -0.194329,0.137883 -0.21875,0.15625 -0.02442,0.01837 -0.19617,0.166911 -0.21875,0.1875 -0.02258,0.02059 -0.198212,0.196124 -0.21875,0.21875 -0.02054,0.02263 -0.169188,0.194288 -0.1875,0.21875 -0.01831,0.02446 -0.140326,0.19267 -0.15625,0.21875 -0.01592,0.02608 -0.111607,0.222534 -0.125,0.25 -0.01339,0.02747 -0.114257,0.252643 -0.125,0.28125 -0.01074,0.02861 -0.08575,0.220508 -0.09375,0.25 -0.008,0.02949 -0.05732,0.251135 -0.0625,0.28125 -0.0052,0.03012 -0.02893,0.250781 -0.03125,0.28125 -0.0021,0.02742 6.51e-4,0.222264 0,0.28125 -7.2e-5,0.0066 -5.7e-5,0.02819 0,0.03125 l 0,3.59375 c -3.448712,1.263361 -5.986302,4.479219 -6,8.34375 -3.8e-5,0.01068 0,0.02056 0,0.03125 5.33e-4,0.06014 -0.0019,0.223416 0,0.25 0.0021,0.02991 0.02636,0.251668 0.03125,0.28125 0.0049,0.02958 0.05489,0.252248 0.0625,0.28125 0.0076,0.029 0.08349,0.253076 0.09375,0.28125 0.01026,0.02817 0.08093,0.222897 0.09375,0.25 0.01282,0.0271 0.140975,0.2242 0.15625,0.25 0.01528,0.0258 0.107402,0.194474 0.125,0.21875 0.0176,0.02428 0.167731,0.196207 0.1875,0.21875 0.01977,0.02254 0.16573,0.198133 0.1875,0.21875 0.02177,0.02062 0.195165,0.168986 0.21875,0.1875 0.02358,0.01851 0.193553,0.139998 0.21875,0.15625 0.0252,0.01625 0.223407,0.11115 0.25,0.125 0.02659,0.01385 0.22224,0.11367 0.25,0.125 0.02776,0.01133 0.25256,0.08504 0.28125,0.09375 0.02869,0.0087 0.251877,0.05648 0.28125,0.0625 0.02937,0.006 0.220196,0.05922 0.25,0.0625 a 1.0297458,1.0297458 0 0 0 0.0625,0 c 0.02121,9.95e-4 0.140764,3.98e-4 0.21875,0 0.03342,-1.71e-4 0.08466,4.27e-4 0.09375,0 0.08323,-0.0024 0.196155,0.0019 0.21875,0 0.03228,-0.0027 0.280656,-0.05655 0.3125,-0.0625 0.03184,-0.0059 0.25016,-0.0534 0.28125,-0.0625 0.03109,-0.0091 0.251226,-0.08159 0.28125,-0.09375 0.03002,-0.01216 0.252592,-0.109897 0.28125,-0.125 0.02866,-0.0151 0.254245,-0.138358 0.28125,-0.15625 0.02701,-0.01789 0.193669,-0.166998 0.21875,-0.1875 0.02508,-0.0205 0.227094,-0.164594 0.25,-0.1875 0.02291,-0.02291 0.166998,-0.224919 0.1875,-0.25 0.0205,-0.02508 0.169608,-0.191745 0.1875,-0.21875 0.01789,-0.02701 0.141147,-0.252592 0.15625,-0.28125 0.0151,-0.02866 0.112838,-0.251226 0.125,-0.28125 0.01216,-0.03002 0.08465,-0.25016 0.09375,-0.28125 0.0091,-0.03109 0.05655,-0.249406 0.0625,-0.28125 0.0059,-0.03184 0.05977,-0.280221 0.0625,-0.3125 0.0025,-0.02905 -9.85e-4,-0.218725 0,-0.28125 1.09e-4,-0.0069 5.1e-5,-0.02801 0,-0.03125 0.01567,-1.595918 1.180879,-2.795688 2.75,-2.90625 0.0092,8.5e-5 0.02011,-5.7e-5 0.03125,0 0.03342,1.71e-4 0.05685,8.5e-5 0.09375,0 0.0492,-1.14e-4 0.112878,5.69e-4 0.125,0 0.01075,2.36e-4 0.02771,0 0.03125,0 0.0059,0 0.03992,5.64e-4 0.0625,0 0.01129,-2.82e-4 0.01892,3.37e-4 0.03125,0 1.60835,0.08615 2.8125,1.30681 2.8125,2.9375 -4.53e-4,0.03204 -0.0027,0.249318 0,0.28125 0.0027,0.03193 0.05664,0.280993 0.0625,0.3125 0.0059,0.03151 0.05355,0.250478 0.0625,0.28125 0.0089,0.03077 0.0818,0.251514 0.09375,0.28125 0.01195,0.02974 0.110168,0.252841 0.125,0.28125 0.01483,0.02841 0.138682,0.223197 0.15625,0.25 0.01757,0.0268 0.167367,0.225066 0.1875,0.25 0.02013,0.02493 0.165,0.195929 0.1875,0.21875 0.0225,0.02282 0.194103,0.167016 0.21875,0.1875 0.02465,0.02048 0.223448,0.169554 0.25,0.1875 0.02655,0.01795 0.221804,0.141018 0.25,0.15625 0.0282,0.01523 0.251686,0.112631 0.28125,0.125 0.02956,0.01237 0.250607,0.115616 0.28125,0.125 0.03064,0.0094 0.24983,0.05619 0.28125,0.0625 0.03142,0.0063 0.24936,0.02808 0.28125,0.03125 0.03189,0.0032 0.280453,0.03125 0.3125,0.03125 0.03205,0 0.28061,-0.02808 0.3125,-0.03125 0.03189,-0.0032 0.24983,-0.02494 0.28125,-0.03125 0.03142,-0.0063 0.250607,-0.05312 0.28125,-0.0625 0.03064,-0.0094 0.251686,-0.112631 0.28125,-0.125 0.02956,-0.01237 0.253054,-0.109768 0.28125,-0.125 0.0282,-0.01523 0.223448,-0.138304 0.25,-0.15625 0.02655,-0.01795 0.225353,-0.167016 0.25,-0.1875 0.02465,-0.02048 0.19625,-0.164679 0.21875,-0.1875 0.0225,-0.02282 0.167367,-0.193816 0.1875,-0.21875 0.02013,-0.02493 0.169932,-0.223197 0.1875,-0.25 0.01757,-0.0268 0.141418,-0.221591 0.15625,-0.25 0.01483,-0.02841 0.113051,-0.251514 0.125,-0.28125 0.01195,-0.02974 0.0848,-0.250478 0.09375,-0.28125 0.0089,-0.03077 0.05664,-0.249743 0.0625,-0.28125 0.0059,-0.03151 0.05978,-0.280568 0.0625,-0.3125 0.0027,-0.03193 4.53e-4,-0.249206 0,-0.28125 0,-3.878337 -2.541756,-7.108147 -6,-8.375 l 0,-3.59375 0,-0.03125 c -9.5e-5,-0.04096 4.52e-4,-0.11152 0,-0.125 -5.65e-4,-0.01685 0.0014,-0.139452 0,-0.15625 -0.0014,-0.0168 -0.02893,-0.1708 -0.03125,-0.1875 -0.0023,-0.0167 -0.02807,-0.108443 -0.03125,-0.125 -0.0032,-0.01656 -0.02721,-0.139881 -0.03125,-0.15625 -0.004,-0.01637 -0.02636,-0.140114 -0.03125,-0.15625 -0.0049,-0.01614 -0.05678,-0.14039 -0.0625,-0.15625 -0.0057,-0.01586 -0.05596,-0.14071 -0.0625,-0.15625 -0.0065,-0.01554 -0.05516,-0.109822 -0.0625,-0.125 -0.0073,-0.01518 -0.05438,-0.141475 -0.0625,-0.15625 -0.0081,-0.01478 -0.08487,-0.110668 -0.09375,-0.125 -0.0089,-0.01433 -0.05289,-0.11115 -0.0625,-0.125 -0.0096,-0.01385 -0.08343,-0.142919 -0.09375,-0.15625 -0.01032,-0.01333 -0.113997,-0.08098 -0.125,-0.09375 -0.011,-0.01277 -0.0821,-0.112816 -0.09375,-0.125 -0.01165,-0.01218 -0.112728,-0.113439 -0.125,-0.125 -0.01227,-0.01156 -0.08089,-0.08284 -0.09375,-0.09375 -0.01286,-0.01091 -0.111592,-0.08353 -0.125,-0.09375 -0.01341,-0.01022 -0.111077,-0.08424 -0.125,-0.09375 -0.01392,-0.0095 -0.141851,-0.08498 -0.15625,-0.09375 -0.0144,-0.0088 -0.110164,-0.08574 -0.125,-0.09375 -0.01484,-0.008 -0.109767,-0.05528 -0.125,-0.0625 -0.01523,-0.0072 -0.140661,-0.05608 -0.15625,-0.0625 -0.01559,-0.0064 -0.140348,-0.0569 -0.15625,-0.0625 -0.0159,-0.0056 -0.140077,-0.02649 -0.15625,-0.03125 -0.01617,-0.0048 -0.108601,-0.02733 -0.125,-0.03125 -0.0164,-0.0039 -0.139669,-0.05944 -0.15625,-0.0625 -0.01658,-0.0031 -0.139533,0.0022 -0.15625,0 -0.01672,-0.0022 -0.139441,-0.02994 -0.15625,-0.03125 -0.01681,-0.0013 -0.139396,4.38e-4 -0.15625,0 -0.01685,-4.38e-4 -0.170646,-4.41e-4 -0.1875,0 -0.01685,4.41e-4 -0.139442,-0.0013 -0.15625,0 z M 18,55.96875 c -1.660612,0 -3.03125,1.370638 -3.03125,3.03125 0,0.843207 0.433585,1.535855 1,2.09375 -0.58927,1.193187 -1,2.489055 -1,3.90625 0,4.957749 4.073501,9.03125 9.03125,9.03125 4.957749,0 9.03125,-4.073501 9.03125,-9.03125 0,-1.417195 -0.41073,-2.713063 -1,-3.90625 0.566415,-0.557895 1,-1.250543 1,-2.09375 0,-1.660612 -1.370638,-3.03125 -3.03125,-3.03125 l -6,0 -6,0 z m 40,0 c -1.660612,0 -3.03125,1.370638 -3.03125,3.03125 l 0,12 c 0,1.660612 1.370638,3.03125 3.03125,3.03125 1.660612,0 3.03125,-1.370638 3.03125,-3.03125 l 0,-12 c 0,-1.660612 -1.370638,-3.03125 -3.03125,-3.03125 z m -34,6.0625 c 1.689554,0 2.96875,1.279196 2.96875,2.96875 0,1.689554 -1.279196,2.96875 -2.96875,2.96875 -1.689554,0 -2.96875,-1.279196 -2.96875,-2.96875 0,-1.689554 1.279196,-2.96875 2.96875,-2.96875 z"
       id="path3950"
       style="opacity:0.15;color:#000000;fill:#000000;fill-opacity:1;fill-rule:nonzero;stroke:none;stroke-width:2;marker:none;visibility:visible;display:inline;overflow:visible;enable-background:accumulate" />
    <path
       d="M 65.84375,50.96875 A 2.0002,2.0002 0 0 0 64,53 a 2.0002,2.0002 0 0 0 2.03125,1.96875 l 5.875,0 0.125,0 c 2.232828,0 4,1.767172 4,4 0,2.190453 -1.702346,3.934658 -3.875,4 a 2.0002,2.0002 0 0 0 -0.125,0 2.0002,2.0002 0 0 0 -0.1875,0 l -5.8125,0 A 2.0002,2.0002 0 0 0 64,65 a 2.0002,2.0002 0 0 0 2.03125,1.96875 l 5.84375,0 a 2.0002,2.0002 0 0 0 0.03125,0 l 0.125,0 c 2.232828,0 4,1.767172 4,4 0,2.190453 -1.702346,3.934658 -3.875,4 a 2.0002,2.0002 0 0 0 -0.125,0 2.0002,2.0002 0 0 0 -0.1875,0 l -5.8125,0 A 2.0002,2.0002 0 0 0 64,77 a 2.0002,2.0002 0 0 0 0,0.1875 2.0002,2.0002 0 0 0 2.03125,1.78125 l 5.84375,0 a 2.0002,2.0002 0 0 0 0.15625,0 2.0002,2.0002 0 0 0 0.40625,-0.03125 c 4.206533,-0.215936 7.59375,-3.711695 7.59375,-7.96875 0,-2.382928 -1.047583,-4.530149 -2.71875,-6 1.671167,-1.469851 2.71875,-3.617072 2.71875,-6 0,-4.341847 -3.521019,-7.914899 -7.84375,-8 -0.0105,-2.07e-4 -0.02074,1.66e-4 -0.03125,0 a 2.0002,2.0002 0 0 0 -0.125,0 2.0002,2.0002 0 0 0 -0.1875,0 l -5.8125,0 a 2.0002,2.0002 0 0 0 -0.1875,0 z m -24,6 A 2.0002,2.0002 0 0 0 40,59 l 0,4.28125 C 36.567292,64.180219 34,67.298586 34,71 a 2.0002,2.0002 0 0 0 1.78125,2.03125 2.0002,2.0002 0 0 0 0.1875,0 A 2.0002,2.0002 0 0 0 38,71 c 0,-2.146856 1.639477,-3.83976 3.75,-3.96875 a 2.0002,2.0002 0 0 0 0.03125,0 2.0002,2.0002 0 0 0 0.1875,0 2.0002,2.0002 0 0 0 0.21875,0 c 0.01046,4.81e-4 0.02081,-5.59e-4 0.03125,0 C 44.344388,67.145105 46,68.84255 46,71 a 2.0002,2.0002 0 1 0 4,0 c 0,-3.701414 -2.567292,-6.819781 -6,-7.71875 L 44,59 A 2.0002,2.0002 0 0 0 41.84375,56.96875 z M 18,57 c -1.108,0 -2,0.892 -2,2 0,0.821296 0.482613,1.535125 1.1875,1.84375 C 16.442923,62.057505 16,63.481706 16,65 c 0,4.394589 3.605411,8 8,8 4.394589,0 8,-3.605411 8,-8 0,-1.518294 -0.442923,-2.942495 -1.1875,-4.15625 C 31.517387,60.535125 32,59.821296 32,59 32,57.892 31.108,57 30,57 l -6,0 -6,0 z m 40,0 c -1.108,0 -2,0.892 -2,2 l 0,12 c 0,1.108 0.892,2 2,2 1.108,0 2,-0.892 2,-2 l 0,-12 c 0,-1.108 -0.892,-2 -2,-2 z m -34,4 c 2.232828,0 4,1.767172 4,4 0,2.232828 -1.767172,4 -4,4 -2.232828,0 -4,-1.767172 -4,-4 0,-2.232828 1.767172,-4 4,-4 z"
       inkscape:connector-curvature="0"
       id="path3946"
       style="opacity:0.3;color:#000000;fill:#000000;fill-opacity:1;fill-rule:nonzero;stroke:none;stroke-width:2;marker:none;visibility:visible;display:inline;overflow:visible;enable-background:accumulate" />
    <path
       d="M 65.84375,49.96875 A 2.0002,2.0002 0 0 0 64,52 a 2.0002,2.0002 0 0 0 2.03125,1.96875 l 5.875,0 0.125,0 c 2.232828,0 4,1.767172 4,4 0,2.190453 -1.702346,3.934658 -3.875,4 a 2.0002,2.0002 0 0 0 -0.125,0 2.0002,2.0002 0 0 0 -0.1875,0 l -5.8125,0 A 2.0002,2.0002 0 0 0 64,64 a 2.0002,2.0002 0 0 0 2.03125,1.96875 l 5.84375,0 a 2.0002,2.0002 0 0 0 0.03125,0 l 0.125,0 c 2.232828,0 4,1.767172 4,4 0,2.190453 -1.702346,3.934658 -3.875,4 a 2.0002,2.0002 0 0 0 -0.125,0 2.0002,2.0002 0 0 0 -0.1875,0 l -5.8125,0 A 2.0002,2.0002 0 0 0 64,76 a 2.0002,2.0002 0 0 0 0,0.1875 2.0002,2.0002 0 0 0 2.03125,1.78125 l 5.84375,0 a 2.0002,2.0002 0 0 0 0.15625,0 2.0002,2.0002 0 0 0 0.40625,-0.03125 c 4.206533,-0.215936 7.59375,-3.711695 7.59375,-7.96875 0,-2.382928 -1.047583,-4.530149 -2.71875,-6 1.671167,-1.469851 2.71875,-3.617072 2.71875,-6 0,-4.341847 -3.521019,-7.914899 -7.84375,-8 -0.0105,-2.07e-4 -0.02074,1.66e-4 -0.03125,0 a 2.0002,2.0002 0 0 0 -0.125,0 2.0002,2.0002 0 0 0 -0.1875,0 l -5.8125,0 a 2.0002,2.0002 0 0 0 -0.1875,0 z m -24,6 A 2.0002,2.0002 0 0 0 40,58 l 0,4.28125 C 36.567292,63.180219 34,66.298586 34,70 a 2.0002,2.0002 0 0 0 1.78125,2.03125 2.0002,2.0002 0 0 0 0.1875,0 A 2.0002,2.0002 0 0 0 38,70 c 0,-2.146856 1.639477,-3.83976 3.75,-3.96875 a 2.0002,2.0002 0 0 0 0.03125,0 2.0002,2.0002 0 0 0 0.1875,0 2.0002,2.0002 0 0 0 0.21875,0 c 0.01046,4.81e-4 0.02081,-5.59e-4 0.03125,0 C 44.344388,66.145105 46,67.84255 46,70 a 2.0002,2.0002 0 1 0 4,0 c 0,-3.701414 -2.567292,-6.819781 -6,-7.71875 L 44,58 A 2.0002,2.0002 0 0 0 41.84375,55.96875 z M 18,56 c -1.108,0 -2,0.892 -2,2 0,0.821296 0.482613,1.535125 1.1875,1.84375 C 16.442923,61.057505 16,62.481706 16,64 c 0,4.394589 3.605411,8 8,8 4.394589,0 8,-3.605411 8,-8 0,-1.518294 -0.442923,-2.942495 -1.1875,-4.15625 C 31.517387,59.535125 32,58.821296 32,58 32,56.892 31.108,56 30,56 l -6,0 -6,0 z m 40,0 c -1.108,0 -2,0.892 -2,2 l 0,12 c 0,1.108 0.892,2 2,2 1.108,0 2,-0.892 2,-2 l 0,-12 c 0,-1.108 -0.892,-2 -2,-2 z m -34,4 c 2.232828,0 4,1.767172 4,4 0,2.232828 -1.767172,4 -4,4 -2.232828,0 -4,-1.767172 -4,-4 0,-2.232828 1.767172,-4 4,-4 z"
       inkscape:connector-curvature="0"
       id="path3942"
       style="color:#000000;fill:#ffffff;fill-opacity:1;fill-rule:nonzero;stroke:none;stroke-width:2;marker:none;visibility:visible;display:inline;overflow:visible;enable-background:accumulate" />
  </g>
</svg>
