<?xml version="1.0" encoding="UTF-8" standalone="no"?>
<svg
   xmlns:dc="http://purl.org/dc/elements/1.1/"
   xmlns:cc="http://creativecommons.org/ns#"
   xmlns:rdf="http://www.w3.org/1999/02/22-rdf-syntax-ns#"
   xmlns:svg="http://www.w3.org/2000/svg"
   xmlns="http://www.w3.org/2000/svg"
   xmlns:xlink="http://www.w3.org/1999/xlink"
   xmlns:sodipodi="http://sodipodi.sourceforge.net/DTD/sodipodi-0.dtd"
   xmlns:inkscape="http://www.inkscape.org/namespaces/inkscape"
   viewBox="0 0 96 96"
   id="svg2"
   version="1.1"
   inkscape:version="0.91 r"
   sodipodi:docname="anjuta.svg">
  <title
     id="title93">anjuta</title>
  <metadata
     id="metadata89">
    <rdf:RDF>
      <cc:Work
         rdf:about="">
        <dc:format>image/svg+xml</dc:format>
        <dc:type
           rdf:resource="http://purl.org/dc/dcmitype/StillImage" />
        <dc:title>anjuta</dc:title>
        <dc:subject>
          <rdf:Bag>
            <rdf:li>anjuta</rdf:li>
            <rdf:li>development</rdf:li>
          </rdf:Bag>
        </dc:subject>
        <dc:description>anjuta, development</dc:description>
      </cc:Work>
    </rdf:RDF>
  </metadata>
  <sodipodi:namedview
     pagecolor="#ffffff"
     bordercolor="#666666"
     borderopacity="1"
     objecttolerance="10"
     gridtolerance="10"
     guidetolerance="10"
     inkscape:pageopacity="0"
     inkscape:pageshadow="2"
     inkscape:window-width="1280"
     inkscape:window-height="965"
     id="namedview87"
     showgrid="false"
     inkscape:zoom="3.47661"
     inkscape:cx="26.8433"
     inkscape:cy="19.1654"
     inkscape:window-x="0"
     inkscape:window-y="27"
     inkscape:window-maximized="1"
     inkscape:current-layer="svg2" />
  <defs
     id="defs4">
    <clipPath
       id="clipPath3613">
      <path
         fill="#fff"
         d="m12,6h72a6,6 0 0,1 6,6v72a6,6 0 0,1 -6,6h-72a6,6 0 0,1 -6-6v-72a6,6 0 0,1 6-6"
         id="path7" />
    </clipPath>
    <filter
       width="1.384"
       x="-.192"
       y="-.192"
       height="1.384"
       color-interpolation-filters="sRGB"
       id="filter3794">
      <feGaussianBlur
         stdDeviation="5.28"
         id="feGaussianBlur10" />
    </filter>
    <linearGradient
       gradientTransform="matrix(1.00587 0 0 .99417 100 0)"
       id="ButtonShadow-0"
       y1="92.54"
       y2="7.017"
       x2="0"
       gradientUnits="userSpaceOnUse">
      <stop
         offset="0"
         id="stop13" />
      <stop
         offset="1"
         stop-opacity=".588"
         id="stop15" />
    </linearGradient>
    <linearGradient
       gradientTransform="matrix(1.02381 0 0 1.0119 -1.14286 -98.07143)"
       id="linearGradient3780"
       xlink:href="#ButtonShadow-0"
       y1="6.132"
       y2="90.239"
       x2="0"
       gradientUnits="userSpaceOnUse" />
    <linearGradient
       gradientTransform="translate(0 -97)"
       id="linearGradient3721"
       xlink:href="#ButtonShadow-0"
       y1="6.132"
       y2="90.239"
       x2="0"
       gradientUnits="userSpaceOnUse" />
    <linearGradient
       gradientTransform="matrix(-1 0 0 1 95.97611 110)"
       id="linearGradient4023"
       xlink:href="#linearGradient563"
       y1="23.993"
       y2="87.24"
       x2="0"
       gradientUnits="userSpaceOnUse" />
    <linearGradient
       id="linearGradient4025-0">
      <stop
         offset="0"
         stop-color="#47294f"
         id="stop21" />
      <stop
         offset="1"
         stop-color="#47294f"
         stop-opacity="0"
         id="stop23" />
    </linearGradient>
    <linearGradient
       id="linearGradient563">
      <stop
         offset="0"
         stop-color="#d9cce6"
         id="stop26" />
      <stop
         offset="1"
         stop-color="#73667f"
         id="stop28" />
    </linearGradient>
    <linearGradient
       gradientTransform="translate(0 -96)"
       id="linearGradient3617"
       xlink:href="#linearGradient4033"
       y1="90"
       y2="5.988"
       x2="0"
       gradientUnits="userSpaceOnUse" />
    <linearGradient
       id="linearGradient4033">
      <stop
         offset="0"
         stop-color="#d9cce6"
         id="stop32" />
      <stop
         offset="1"
         stop-color="#a895b9"
         id="stop34" />
    </linearGradient>
    <linearGradient
       id="linearGradient3188"
       xlink:href="#linearGradient3737"
       y1="6"
       y2="63.893"
       x2="0"
       gradientUnits="userSpaceOnUse" />
    <linearGradient
       id="linearGradient3737">
      <stop
         offset="0"
         stop-color="#fff"
         id="stop38" />
      <stop
         offset="1"
         stop-color="#fff"
         stop-opacity="0"
         id="stop40" />
    </linearGradient>
    <linearGradient
       id="linearGradient3613"
       xlink:href="#linearGradient3737"
       y1="20.221"
       y2="138.661"
       x2="0"
       gradientUnits="userSpaceOnUse" />
    <linearGradient
       id="linearGradient4141"
       xlink:href="#linearGradient4025-0"
       x1="4.459"
       x2="106.067"
       gradientUnits="userSpaceOnUse" />
    <radialGradient
       cx="48"
       cy="90.172"
       gradientTransform="matrix(1.15731,0,0,0.99591,-7.55102,0.19713)"
       r="42"
       id="radialGradient3619"
       xlink:href="#linearGradient3737"
       gradientUnits="userSpaceOnUse" />
  </defs>
  <path
     opacity=".08"
     fill="url(#linearGradient3780)"
     d="m12-95.0312c-5.5111,0-10.0312,4.5202-10.0312,10.0312v71c0,5.5111 4.5202,10.0312 10.0312,10.0312h72c5.5111,0 10.0312-4.5202 10.0312-10.0312v-71c0-5.5111-4.5202-10.0312-10.0312-10.0312h-72z"
     transform="scale(1 -1)"
     id="path45" />
  <path
     opacity=".1"
     fill="url(#linearGradient3780)"
     d="m12-94.0312c-4.9716,0-9.0312,4.0596-9.0312,9.0312v71c0,4.9716 4.0596,9.0312 9.0312,9.0312h72c4.9716,0 9.0312-4.0596 9.0312-9.0312v-71c0-4.9716-4.0596-9.0312-9.0312-9.0312h-72z"
     transform="scale(1 -1)"
     id="path47" />
  <path
     opacity=".2"
     fill="url(#linearGradient3780)"
     d="m12-93c-4.4091,0-8,3.5909-8,8v71c0,4.4091 3.5909,8 8,8h72c4.4091,0 8-3.5909 8-8v-71c0-4.4091-3.5909-8-8-8h-72z"
     transform="scale(1 -1)"
     id="path49" />
  <path
     opacity=".3"
     fill="url(#linearGradient3780)"
     d="m12-92h72a7,7 0 0,1 7,7v71a7,7 0 0,1 -7,7h-72a7,7 0 0,1 -7-7v-71a7,7 0 0,1 7-7"
     transform="scale(1 -1)"
     id="path51" />
  <path
     opacity=".45"
     fill="url(#linearGradient3721)"
     d="m12-91h72a6,6 0 0,1 6,6v72a6,6 0 0,1 -6,6h-72a6,6 0 0,1 -6-6v-72a6,6 0 0,1 6-6"
     transform="scale(1 -1)"
     id="path53" />
  <path
     fill="url(#linearGradient3617)"
     d="m12-90h72a6,6 0 0,1 6,6v72a6,6 0 0,1 -6,6h-72a6,6 0 0,1 -6-6v-72a6,6 0 0,1 6-6"
     transform="scale(1 -1)"
     id="path55" />
  <path
     style="opacity:0.5;fill:url(#linearGradient3188)"
     d="M 12,6 C 8.11425,5.86322 5.41842,9.7916 6,13.4226 6.01817,37.1117 5.96368,60.8028 6.02721,84.4906 5.28209,86.8321 10.5384,90.3041 9.3125,89.2189 6.06848,87.1934 7.20936,83.0941 7,79.918 7.01709,57.4408 6.96584,34.9619 7.02559,12.4857 7.23712,9.18528 10.6966,7.53718 13.6597,8.0003 37.2778,8.01738 60.8976,7.96615 84.5146,8.02589 87.815,8.23742 89.4631,11.6969 89,14.66 c -0.023,23.6263 0.047,47.2557 -0.035,70.8801 0.6395,2.1759 -4.9497,5.3487 -1.452,3.2815 3.5336,-2.4814 2.2373,-6.9817 2.4873,-10.6151 -0.021,-22.2736 0.041,-44.5493 -0.031,-66.8216 C 89.7162,7.60958 85.8109,5.47608 82.3404,6.0001 58.8936,6.00003 35.4467,6.00023 12,6 Z"
     id="path57"
     inkscape:connector-curvature="0" />
  <path
     style="opacity:0.2;fill:url(#radialGradient3619)"
     d="M 12,90 C 8.11425,90.1368 5.41842,86.2084 6,82.5774 6.01817,58.8883 5.96368,35.1972 6.02721,11.5094 5.28209,9.16789 10.5384,5.69592 9.3125,6.7811 6.06848,8.80663 7.20936,12.9059 7,16.082 c 0.0171,22.4772 -0.0342,44.9561 0.0256,67.4323 0.21153,3.3004 3.67101,4.9485 6.63411,4.4854 23.6181,-0.017 47.2379,0.034 70.8549,-0.026 3.3004,-0.2115 4.9485,-3.671 4.4854,-6.6341 -0.023,-23.6263 0.047,-47.2557 -0.035,-70.8801 0.6395,-2.17591 -4.9497,-5.34874 -1.452,-3.28154 3.5336,2.48139 2.2373,6.98174 2.4873,10.61514 -0.021,22.2736 0.041,44.5493 -0.031,66.8216 -0.253,3.7753 -4.1583,5.9088 -7.6288,5.3848 C 58.8936,90 35.4467,89.9998 12,90 Z"
     id="path59"
     inkscape:connector-curvature="0" />
  <path
     fill="url(#linearGradient4023)"
     d="m74.8239,160.7043 4.2732-8.5464-19.0157-11.5376 .4273-3.6322-24.9981-10.683 2.1366,6.6234c0,0-20.2976,18.5883-7.4781,52.5601l17.0927,7.0507 23.0752-5.7688c0,0-23.2888-1.0683-21.1523-27.9894 0,0 9.1873-5.5551 25.6391,1.9229z"
     id="path61" />
  <path
     opacity=".1"
     fill="url(#linearGradient3613)"
     filter="url(#filter3794)"
     stroke="#fff"
     stroke-linecap="round"
     stroke-width=".5"
     d="m27,15h42a12,12 0 0,1 12,12v42a12,12 0 0,1 -12,12h-42a12,12 0 0,1 -12-12v-42a12,12 0 0,1 12-12"
     clip-path="url(#clipPath3613)"
     id="path63" />
  <g
     color="#000"
     id="g65">
    <path
       fill="url(#linearGradient4141)"
       d="m80,48a32,32 0 1,1 -64,0 32,32 0 1,1 64,0z"
       transform="matrix(0 1 1 0 -.02389 0)"
       id="path67" />
    <path
       opacity=".4"
       fill="#fff"
       d="m16,47.5c-.0025,.1663-.0312,.3331-.0312,.5 0,17.6731 14.3269,32 32,32 17.6731,0 32-14.3269 32-32 0-.1667 .0025-.3339 0-.5-.2667,17.443-14.4936,31.5-32,31.5-17.5062,0-31.7017-14.0573-31.9688-31.5z"
       id="path69" />
  </g>
  <path
     opacity=".08"
     d="m48.2188,14.8438c-14.0009-.1909-23.8255,6.58-29.3438,16.125-5.5137,9.5371-6.9457,21.7047-4.9375,32.75a.977,.977 0 0,0 .0312,.0312c.0006,.0025 .0305,.1226 .0312,.125 .0007,.0024 .0304,.1226 .0312,.125 .0009,.0024 .0615,.1227 .0625,.125 .001,.0023 .0301,.0915 .0312,.0938 0,0 .1257,.273 .3438,.5625 .1861,.2471 .458,.5501 .8438,.8438 .6685,.5089 1.6854,.951 3,1.2188 .3826,4.25 .8879,8.8107 1.5,14.7188 .0002,.0021-.0003,.0917 0,.0938 .0003,.0021 .0308,.123 .0312,.125 .0004,.002 .0307,.0917 .0312,.0938 .0005,.002-.0006,.0918 0,.0938 .0006,.002 .0618,.0918 .0625,.0938 .0007,.002 .0304,.0918 .0312,.0938 .0008,.0019 .0303,.0919 .0312,.0938 .0009,.0019 .0615,.0919 .0625,.0938 .001,.0018 .0302,.092 .0312,.0938 .0011,.0018 .0613,.092 .0625,.0938 .0012,.0017 .0612,.0921 .0625,.0938 .0013,.0017 .0612,.0609 .0625,.0625 .0013,.0016 .0611,.0922 .0625,.0938 .0014,.0015 .061,.061 .0625,.0625 .0015,.0015 .0922,.0611 .0938,.0625 .0016,.0014 .0609,.0612 .0625,.0625a.977,.977 0 0,0 .0312,.0312c0,0 2.8468,2.2369 6.875,2.7812 .0026,.0003 .1224-.0002 .125,0 .0026,.0002 .1224,.0312 .125,.0312 .0026,0 .1536-.0311 .1562-.0312 .0026-.0002 .1224,.0003 .125,0 .0026-.0003 .1224-.0307 .125-.0312 .0026-.0005 .1224-.0306 .125-.0312 .0026-.0007 .1225-.0304 .125-.0312 .0025-.0008 .1225-.0303 .125-.0312 .0025-.001 .1226-.0614 .125-.0625 .0024-.0011 .1227-.0612 .125-.0625 .0023-.0013 .0915-.0611 .0938-.0625 .0022-.0014 .1229-.0609 .125-.0625 .0021-.0016 .0917-.0921 .0938-.0938 .002-.0017 .0918-.0919 .0938-.0938 .0019-.0018 .0919-.0606 .0938-.0625 .0018-.0019 .0921-.123 .0938-.125 .0017-.002 .0609-.0916 .0625-.0938 .0016-.0021 .0923-.0915 .0938-.0938 .0014-.0022 .0612-.1227 .0625-.125 .0013-.0023 .0614-.1226 .0625-.125 .0011-.0024 .0303-.1225 .0312-.125 .001-.0025 .0617-.1225 .0625-.125 .0008-.0025 .0306-.1224 .0312-.125 .0007-.0026 .0308-.1224 .0312-.125 .0005-.0026 .0309-.1224 .0312-.125 .0003-.0026-.0002-.1224 0-.125 .0002-.0026 0-.1224 0-.125-0-.0026 .0002-.1224 0-.125-.0002-.0026-.0309-.1224-.0312-.125-.0003-.0026 .0005-.1537 0-.1562-.0005-.0026-.0306-.1224-.0312-.125-.0007-.0026-.0304-.1225-.0312-.125-.3711-1.0785-.6439-2.1375-.9375-3.1875 1.1722,.5293 2.6216,1.0729 4.2188,1.3125 .0027,.0004 .1223-.0002 .125,0 .0027,.0002 .1536,.0312 .1562,.0312 .0027,.0001 .1223,.0001 .125,0 .0027-.0001 .1223-.031 .125-.0312 .0027-.0003 .1223,.0004 .125,0 .0027-.0004 .1536-.0306 .1562-.0312 .0026-.0006 .1224-.0305 .125-.0312 .0026-.0008 .1225-.0303 .125-.0312 .0025-.0009 .1225-.0614 .125-.0625 .0025-.0011 .0914-.0613 .0938-.0625 .0024-.0013 .1227-.0611 .125-.0625 .0023-.0014 .1228-.061 .125-.0625 .0022-.0015 .0917-.0921 .0938-.0938 .0021-.0017 .0918-.0919 .0938-.0938 .002-.0018 .0919-.0918 .0938-.0938 .0019-.0019 .092-.0917 .0938-.0938 .0017-.0021 .0921-.0916 .0938-.0938 .0016-.0022 .061-.1227 .0625-.125 .0015-.0023 .0924-.0914 .0938-.0938 .0013-.0023 .0613-.1226 .0625-.125 .0012-.0024 .0302-.1225 .0312-.125 .001-.0025 .0617-.1224 .0625-.125 .0008-.0026 .0306-.1224 .0312-.125 .0007-.0026 .0307-.1224 .0312-.125 .0005-.0026 .0309-.1223 .0312-.125 .0003-.0027-.0002-.1536 0-.1562 .0002-.0027 0-.1223 0-.125-0-.0027 .0002-.1223 0-.125-.0002-.0027 .0003-.1223 0-.125-.0003-.0027-.0307-.1536-.0312-.1562-.0005-.0026-.0306-.1224-.0312-.125-.0005-.002-.0208-.0588-.0312-.0938-.0032-.0102 .0032-.0211 0-.0312-8.1285-25.938-6.1558-40.3424-.3438-47.4062 5.8177-7.0707 16.1142-7.8385 26.5938-5.1562a.977,.977 0 0,0 .0625,.0312c.0038,.0008 .1837,.0308 .1875,.0312 .0038,.0004 .1836-.0001 .1875,0 .0039,.0001 .1837,.0003 .1875,0 .0038-.0003 .1837-.0306 .1875-.0312 .0038-.0006 .1838-.0303 .1875-.0312 .0037-.001 .1839-.0612 .1875-.0625 .0036-.0013 .1528-.0608 .1562-.0625 .0035-.0016 .1842-.0918 .1875-.0938 .0033-.002 .1531-.1227 .1562-.125 .0031-.0023 .1533-.0912 .1562-.0938 .0029-.0025 .1223-.1535 .125-.1562 .0027-.0028 .1226-.122 .125-.125 .0024-.003 .1229-.153 .125-.1562 .0021-.0032 .0919-.1528 .0938-.1562 .0018-.0034 .061-.1839 .0625-.1875 .0015-.0036 .0926-.1838 .0938-.1875 .0012-.0037 .0304-.1837 .0312-.1875 .0008-.0038 .0308-.1837 .0312-.1875 .0005-.0038 .0311-.1836 .0312-.1875 .0001-.0039-.031-.1837-.0312-.1875-0-.0006 .001-.0224 0-.0312 .5952,.1373 1.0555,.1427 1.6875,.3125a.977,.977 0 0,0 .0625,.0312c.0038,.0008 .1837,.0308 .1875,.0312 .0038,.0004 .1836-.0001 .1875,0 .0039,.0001 .1837,.0003 .1875,0 .0038-.0003 .1837-.0306 .1875-.0312 .0038-.0006 .1838-.0303 .1875-.0312 .0037-.001 .1839-.0612 .1875-.0625 .0036-.0013 .1528-.0608 .1562-.0625 .0035-.0016 .1842-.0918 .1875-.0938 .0033-.002 .1531-.1227 .1562-.125 .0031-.0023 .1533-.0912 .1562-.0938 .0029-.0025 .1223-.1535 .125-.1562 .0027-.0028 .1226-.122 .125-.125 .0024-.003 .1229-.153 .125-.1562 .0021-.0032 .0919-.1528 .0938-.1562 .0018-.0034 .061-.1839 .0625-.1875 .0015-.0036 .0926-.1838 .0938-.1875 .0012-.0037 .0304-.1837 .0312-.1875 .0008-.0038 .0308-.1837 .0312-.1875 .0005-.0038 .0311-.1836 .0312-.1875 .0001-.0039-.031-.1837-.0312-.1875-.0002-.0038 .0006-.1837 0-.1875-.0006-.0038-.0303-.1838-.0312-.1875-.0009-.0037-.0612-.1839-.0625-.1875-.0013-.0036-.0609-.1527-.0625-.1562-.0016-.0035-.0918-.1842-.0938-.1875-.0019-.0033-.1228-.1531-.125-.1562-.0022-.0032-.0913-.1533-.0938-.1562-.0025-.0029-.1222-.1223-.125-.125-.0028-.0027-.1533-.1226-.1562-.125-.003-.0024-.153-.1229-.1562-.125-.0032-.0021-.1529-.0919-.1562-.0938-.0034-.0018-.184-.0922-.1875-.0938a.977,.977 0 0,0 -.0312,0c0,0-2.4634-.8971-5.5625-1.7812-.2522-.0719-.4979-.1255-.75-.1875-.0024-.0294 .0001-.0613 0-.0625-.0003-.0024-.0308-.1226-.0312-.125-.0004-.0024-.0307-.1226-.0312-.125-.0005-.0024-.0306-.0914-.0312-.0938-.0007-.0023-.0304-.1227-.0312-.125-.0008-.0023-.0303-.1228-.0312-.125-.0009-.0022-.0614-.0916-.0625-.0938-.0011-.0022-.0613-.1229-.0625-.125-.0012-.0021-.0612-.0917-.0625-.0938-.0013-.002-.0611-.0918-.0625-.0938-.0014-.002-.0609-.0919-.0625-.0938-.0016-.0019-.0921-.092-.0938-.0938-.0017-.0018-.0607-.0921-.0625-.0938-.0018-.0017-.0919-.0609-.0938-.0625-.0019-.0016-.0918-.0923-.0938-.0938-.0019-.0015-.0917-.0611-.0938-.0625-.002-.0014-.1229-.0613-.125-.0625-.0021-.0012-.0916-.0614-.0938-.0625-.0022-.0011-.1228-.0615-.125-.0625-.0022-.001-.0915-.0304-.0938-.0312-.0023-.0009-.1227-.0305-.125-.0312-.0023-.0007-.0914-.0307-.0938-.0312a.977,.977 0 0,0 -.0312,0c-3.8465-.8825-7.4979-1.391-10.9062-1.4375z"
     id="path71" />
  <path
     opacity=".12"
     d="m48.2188,15.8125c-13.6828-.1865-23.1306,6.3687-28.5,15.6562-5.3694,9.2876-6.7835,21.2222-4.8125,32.0625a1.103,1.103 0 0,0 .0938,.25c0,0 .1043,.2128 .25,.4062 .1457,.1934 .3499,.4231 .6562,.6562 .6126,.4663 1.584,.9392 3.0312,1.1562a1.103,1.103 0 0,0 .2812,0c.3868,4.4067 .919,9.2571 1.5625,15.4688a1.103,1.103 0 0,0 .4062,.75c0,0 2.6712,2.089 6.4062,2.5938a1.103,1.103 0 0,0 1.1875-1.4375c-.6427-1.8678-1.0815-3.616-1.5938-5.4062 .5697,.3316 3.2756,1.846 5.9688,2.25a1.103,1.103 0 0,0 1.2188-1.4375c-8.1839-26.0982-6.3096-40.8651-.1562-48.3438 6.1533-7.4787 16.9213-8.2004 27.5938-5.4688a1.103,1.103 0 0,0 .6562-2.0938c-1.6927-.6179-3.1822-.938-4.75-1.375 2.5402,.3407 5.187,.7541 8.3125,1.5938a1.103,1.103 0 0,0 .6562-2.0938c0,0-2.4351-.8756-5.5-1.75-.5016-.1431-1.0666-.2655-1.5938-.4062a1.103,1.103 0 0,0 -.6875-1.625c-3.7942-.8705-7.3657-1.361-10.6875-1.4062zm-18.8438,11.7188c-2.6478,3.3792-4.3989,7.5724-5.4375,12.1875 .008-.0402 .0625-.4375 .0625-.4375a1.103,1.103 0 0,0 -1.4375-1.25c1.7114-4.2163 4.0187-7.6993 6.8125-10.5z"
     id="path73" />
  <path
     opacity=".3"
     d="m48.228,16.9174c3.2245,.044 6.7087,.5003 10.4439,1.3573-21.2747-4.2044-44.7388,10.2121-39.5887,46.6393-2.5933-.389-3.0917-1.5835-3.0917-1.5835-3.8575-21.2161 5.5799-46.7765 32.2366-46.4131zm3.4687,1.6213c5.0207,.0879 14.629,3.5064 14.629,3.5064-15.4954-4.1629-24.2434-1.2819-24.2434-1.2819 0,0 3.5112-2.3313 9.6144-2.2245zm-5.0146,2.1868c4.3569,.0204 9.4765,.9973 15.4208,3.1671-21.7834-5.5755-45.2727,2.7223-28.8055,55.2357-2.5933-.389-5.9572-2.3376-5.9572-2.3376-6.1286-20.3915-7.2837-56.1901 19.3419-56.0652zm-23.7909,18.3239c0,0-3.9644,19.022 4.8638,44.6787-3.4025-.4598-5.8818-2.3753-5.8818-2.3753-2.1151-20.415-3.7639-27.7738 1.018-42.3034z"
     id="path75" />
  <path
     fill="#fff"
     d="m48.228,15.9174c3.2245,.044 6.7087,.5003 10.4439,1.3573-21.2747-4.2044-44.7388,10.2121-39.5887,46.6393-2.5933-.389-3.0917-1.5835-3.0917-1.5835-3.8575-21.2161 5.5799-46.7765 32.2366-46.4131zm3.4687,1.6213c5.0207,.0879 14.629,3.5064 14.629,3.5064-15.4954-4.1629-24.2434-1.2819-24.2434-1.2819 0,0 3.5112-2.3313 9.6144-2.2245zm-5.0146,2.1868c4.3569,.0204 9.4765,.9973 15.4208,3.1671-21.7834-5.5755-45.2727,2.7223-28.8055,55.2357-2.5933-.389-5.9572-2.3376-5.9572-2.3376-6.1286-20.3915-7.2837-56.1901 19.3419-56.0652zm-23.7909,18.3239c0,0-3.9644,19.022 4.8638,44.6787-3.4025-.4598-5.8818-2.3753-5.8818-2.3753-2.1151-20.415-3.7639-27.7738 1.018-42.3034z"
     id="path77" />
  <path
     opacity=".08"
     d="m33.6562,11.7812c.0029-.0004-.0618,.0262-.0938,.0312-.0098,.0016-.0322,.0002-.0312,0-.0376,.0086-.1609,.0325-.1562,.0312 .0056-.0015-.1617,.0645-.1562,.0625 .0054-.002-.1615,.0649-.1562,.0625 .0052-.0024-.1612,.0654-.1562,.0625 .005-.0029-.161,.097-.1562,.0938 .0047-.0033-.1294,.1287-.125,.125 .0044-.0037-.1291,.0978-.125,.0938 .0041-.004-.1287,.1606-.125,.1562 .0037-.0044-.0971,.1297-.0938,.125 .0034-.0047-.1279,.1612-.125,.1562 .0029-.0049-.065,.1302-.0625,.125 .0025-.0052-.0646,.1616-.0625,.1562 .0021-.0054-.0641,.193-.0625,.1875 .0016-.0055-.0324,.1619-.0312,.1562 .0011-.0056-.0319,.1932-.0312,.1875 .0005-.0046-.0282,.082-.0312,.125-.0006,.0119 .0006,.0193 0,.0312-.2233,4.5495 .4061,7.865 1.6562,10.3125 1.2614,2.4696 3.2086,3.9602 5.125,4.6562 3.748,1.3613 7.2827,.0649 7.375,.0312 .0012-.0004 .0625,0 .0625,0v-.0312c.0531-.0175 .0972-.0326 .0938-.0312-.0059,.0023 .1932-.0653 .1875-.0625-.0057,.0028 .1616-.0971 .1562-.0938-.0054,.0033 .1613-.0976 .1562-.0938-.0051,.0038 .1609-.1293 .1562-.125-.0047,.0043 .1292-.161 .125-.1562-.0042,.0047 .1288-.1301 .125-.125-.0038,.0051 .1283-.1617 .125-.1562-.0033,.0054 .0965-.1932 .0938-.1875-.0028,.0057 .0647-.1622 .0625-.1562-.0022,.0059 .0641-.1936 .0625-.1875-.0017,.0061 .0323-.1937 .0312-.1875-.0005,.003-.0058-.0462 0-.0938 .5627,.2195 1.3142,.5579 1.9375,.8125-.0134,.0154-.0322,.0324-.0312,.0312 .0028-.0035-.0963,.0974-.0938,.0938 .0026-.0036-.0648,.1288-.0625,.125 .0023-.0038-.0646,.129-.0625,.125 .0021-.004-.0643,.1291-.0625,.125 .0018-.0041-.064,.1292-.0625,.125 .0015-.0042-.0325,.1293-.0312,.125 .0012-.0043-.0322,.1294-.0312,.125 .001-.0044-.0319,.1294-.0312,.125 .0007-.0044-.0004,.1294 0,.125 .0004-.0044-.0313,.1607-.0312,.1562 .0001-.0045 .0315,.1295 .0312,.125-.0002-.0045 .0005,.1294 0,.125-.0005-.0044 .032,.1606 .0312,.1562-.0006-.0033-.0081,.0564 0,.0938 0,0-.0001,.0309 0,.0312 .0057,.0262 .255,1.0397 .7812,2.1875 .5021,1.0953 1.3504,2.7376 3.2188,3.3125-.0045-.0013 .1608,.0322 .1562,.0312-.0046-.001 .1296,.0319 .125,.0312-.0046-.0006 .1609,.0316 .1562,.0312-.0047-.0003 .1297,0 .125,0-.0047,0 .1297-.0003 .125,0-.0047,.0003 .1609-.0319 .1562-.0312-.0046,.0006 .1296-.0322 .125-.0312-.0037,.0008 .091-.0229 .125-.0312 .01-.0026 .0213,.0027 .0312,0 .8256-.2235 1.4659-.6262 2-1.0938 .0341,.0351 .0654,.0965 .0625,.0938-.004-.0038 .1293,.0972 .125,.0938-.0043-.0035 .1608,.0969 .1562,.0938-.0045-.0031 .1298,.0965 .125,.0938-.0048-.0027 .1612,.0648 .1562,.0625-.005-.0023 .1614,.0644 .1562,.0625a1.114,1.114 0 0,0 0,.0312c0,0 9.5683,3.5215 17.0938,10.125-.3189,.4914-.6787,.9645-.9062,1.4688-.0352,.078-.0332,.0899-.0625,.1562-7.4228-3.789-13.4986-4.2666-17.75-3.3125-2.9932,.6717-4.6531,1.7092-5.6875,2.4688-.724-.619-1.7246-1.5657-2.5625-3-.6264-1.0724-.95-2.1655-.8125-3.1562 .1393-1.0034 .6494-2.0717 2.4688-3.4062-.0007,.0005 .0243,.0051 .0312,0 .0279-.0204 .0966-.0647 .0938-.0625-.0035,.0028 .0971-.0968 .0938-.0938-.0034,.003 .0969-.097 .0938-.0938-.0031,.0032 .0967-.0972 .0938-.0938-.0029,.0034 .0964-.0974 .0938-.0938-.0027,.0036 .0649-.1288 .0625-.125-.0024,.0038 .0647-.1289 .0625-.125-.0022,.0039 .0644-.1291 .0625-.125-.0019,.0041 .0641-.1292 .0625-.125-.0016,.0042 .0326-.1293 .0312-.125-.0014,.0043 .0636-.1294 .0625-.125-.0011,.0044 .0008-.1294 0-.125-.0008,.0044 .0317-.1295 .0312-.125-.0005,.0045 .0002-.1608 0-.1562-.0002,.0045-.0001-.1295 0-.125 .0001,.0045-.0004-.1295 0-.125 .0004,.0045-.0007-.1607 0-.1562 .0007,.0044-.0323-.1294-.0312-.125 .001,.0044-.0326-.1293-.0312-.125 .0013,.0043-.0641-.1292-.0625-.125 .0016,.0042-.0644-.1291-.0625-.125 .0019,.0041-.0334-.129-.0312-.125 .0022,.004-.0962-.1288-.0938-.125 .0024,.0038-.0652-.1286-.0625-.125 .0027,.0036-.0967-.0972-.0938-.0938 .0029,.0034-.0969-.097-.0938-.0938 .0031,.0032-.0971-.0968-.0938-.0938 .0033,.003-.0973-.0966-.0938-.0938 .0035,.0028-.1287-.0963-.125-.0938 .0037,.0026-.0976-.0648-.0938-.0625 .0039,.0023-.129-.0645-.125-.0625 .004,.002-.1291-.0643-.125-.0625-1.5564-.6917-4.8125-2.4062-4.8125-2.4062 .0051,.0027-.1615-.096-.1562-.0938 .0053,.0022-.1617-.0643-.1562-.0625 .0054,.0018-.1931-.0326-.1875-.0312 .0056,.0013-.1619-.0321-.1562-.0312 .0057,.0008-.1932-.0316-.1875-.0312 .0057,.0004-.162,.0001-.1562,0 .0057-.0001-.1932,.0006-.1875,0 .0057-.0006-.1619,.0323-.1562,.0312 .0056-.0011-.1617,.0328-.1562,.0312 .0055-.0016-.1928,.0645-.1875,.0625 .0053-.002-.1614,.065-.1562,.0625 .0052-.0025-.1612,.0967-.1562,.0938 .0049-.0029-.1297,.0971-.125,.0938 .0047-.0033-.1606,.0974-.1562,.0938 .0044-.0037-.129,.129-.125,.125 .0034-.0034-.068,.0659-.0938,.0938-.0049,.0053-.0006,.0319 0,.0312-2.8464,3.2234-4.0348,6.4979-3.9062,9.5 .1287,3.0053 1.5086,5.5302 3.125,7.5312 3.2184,3.9843 7.649,6.1998 7.6875,6.2188 .0002,.0001 .0312,0 .0312,0 .0329,.0159 .0968,.0326 .0938,.0312-.004-.0018 .1291,.064 .125,.0625-.0041-.0015 .1292,.0325 .125,.0312-.0042-.0013 .1293,.0322 .125,.0312-.0043-.001 .1293,.032 .125,.0312-.0043-.0007 .1294,.0317 .125,.0312-.0044-.0004 .1606,.0001 .1562,0-.0044-.0001 .1294-.0002 .125,0-.0044,.0002 .1294-.0004 .125,0-.0044,.0004 .1293-.032 .125-.0312-.0043,.0007 .1293-.0322 .125-.0312-.0043,.001 .1292-.0325 .125-.0312-.0042,.0013 .1291-.0328 .125-.0312-.0041,.0015 .129-.0643 .125-.0625-.004,.0018 .1289-.0646 .125-.0625-.0039,.0021 .1287-.0648 .125-.0625 10.7907-6.9369 25.25,2.375 25.25,2.375-.0035-.0023 .1286,.0646 .125,.0625-.0036-.0021 .0975,.0644 .0938,.0625-.0037-.0019 .1288,.0329 .125,.0312-.0038-.0016 .0977,.0639 .0938,.0625-.0039-.0014 .129,.0324 .125,.0312-.004-.0012 .1291,.0322 .125,.0312-.0041-.0009 .1291,.0319 .125,.0312-.0041-.0007 .1292,.0004 .125,0-.0042-.0004 .1292,.0314 .125,.0312-.0042-.0001 .1292-.0001 .125,0-.0042,.0001 .1292-.0316 .125-.0312-.0042,.0004 .1291-.0006 .125,0-.0041,.0006 .1291-.0321 .125-.0312-.0041,.0009 .129-.0324 .125-.0312-.004,.0011 .1289-.0326 .125-.0312-.0039,.0014 .1288-.0329 .125-.0312-.0038,.0016 .0975-.0644 .0938-.0625-.0037,.0019 .1286-.0646 .125-.0625-.0036,.0021 .0972-.0648 .0938-.0625-.0035,.0023 .0971-.0963 .0938-.0938-.0033,.0025 .1282-.0652 .125-.0625-.0032,.0027 .0655-.0967 .0625-.0938-.003,.0029 .0965-.0968 .0938-.0938-.0028,.0031 .0964-.097 .0938-.0938-.0026,.0033 .0649-.0972 .0625-.0938-.0024,.0034 .0959-.0973 .0938-.0938-.0022,.0036 .0332-.1287 .0312-.125-.002,.0037 .0642-.0975 .0625-.0938-.0017,.0038 .064-.1289 .0625-.125-.0015,.0039 .0325-.129 .0312-.125-.0012,.004 .0323-.129 .0312-.125-.0008,.0031 .0239-.0597 .0312-.0938 .0023-.0105 .0002-.0322 0-.0312 1.2532-6.6665 4.5312-9.9688 4.5312-9.9688a1.114,1.114 0 0,0 .0312-.0312c-.0042,.0045 .1288-.1298 .125-.125-.0038,.0048 .0971-.1614 .0938-.1562-.0033,.0052 .0966-.1617 .0938-.1562-.0029,.0055 .0961-.1619 .0938-.1562-.0024,.0057 .0643-.1934 .0625-.1875-.0018,.0059 .0325-.1935 .0312-.1875-.0013,.006 .032-.1624 .0312-.1562-.0007,.0061 .0314-.1937 .0312-.1875-.0002,.0062-.0317-.1936-.0312-.1875 .0004,.0061-.001-.1936 0-.1875 .001,.0061-.0328-.1935-.0312-.1875 .0015,.006-.0646-.1933-.0625-.1875 .0021,.0058-.0651-.1618-.0625-.1562 .0026,.0056-.0968-.1616-.0938-.1562 .0031,.0053-.0973-.1613-.0938-.1562 .0036,.005-.129-.1609-.125-.1562-3.3246-3.9051-8.2987-7.2042-12.4688-9.625-3.4397-1.9968-5.4269-2.8734-6.25-3.25l.125-.9688v-.0312c.0032-.033 .0315-.0968 .0312-.0938-.0003,.004 0-.129 0-.125-0,.004-.0002-.129 0-.125 .0002,.004-.0317-.129-.0312-.125 .0004,.004-.0007-.1289 0-.125 .0007,.0039-.0322-.0976-.0312-.0938 .0009,.0039-.0324-.1288-.0312-.125 .0011,.0038-.0326-.1287-.0312-.125 .0013,.0037-.0328-.0974-.0312-.0938 .0016,.0037-.0643-.1286-.0625-.125 .0018,.0036-.0645-.0972-.0625-.0938 .002,.0034-.0647-.0971-.0625-.0938 .0022,.0033-.0649-.0969-.0625-.0938 .0024,.0032-.0651-.0968-.0625-.0938 .0026,.003-.0965-.0966-.0938-.0938 .0027,.0029-.0966-.0965-.0938-.0938-3.1955-2.8997-8.5027-4.5619-13.9688-6.625-5.4714-2.0651-11.088-4.4616-14.4688-7.5-.0202-.0171-.0963-.0645-.0938-.0625 .003,.0024-.0969-.0648-.0938-.0625 .0032,.0022-.097-.0646-.0938-.0625 .0033,.0021-.0971-.0644-.0938-.0625 .0034,.0019-.1285-.0642-.125-.0625 .0035,.0017-.0973-.0327-.0938-.0312 .0036,.0015-.1287-.0638-.125-.0625 .0037,.0013-.0975-.0323-.0938-.0312 .0037,.001-.1288-.0321-.125-.0312 .0038,.0008-.0976-.0006-.0938,0 .0038,.0006-.1289-.0316-.125-.0312 .0039,.0004-.1289-.0002-.125,0 .0039,.0002-.1289,.0001-.125,0 .0039-.0001-.0976,.0003-.0938,0 .0039-.0003-.1288,.0005-.125,0z"
     id="path79" />
  <path
     opacity=".12"
     d="m33.75,12.9062a.912,.912 0 0,0 -.75,.875c-.222,4.4391 .3954,7.5575 1.5312,9.7812 1.1359,2.2238 2.8217,3.4842 4.5,4.0938 3.3566,1.2191 6.6875,.0312 6.6875,.0312a.912,.912 0 0,0 -.375-1.7812c-.7802,.0593-2.3972-.071-3.75-.8438-.9081-.5187-1.6152-1.4889-2.125-2.75 1.6622,.9464 3.3833,1.7165 5.5,2.5 2.659,.9842 6.1395,2.3417 10.75,4.5312-.6385-.015-1.7658-.2503-2.7188-.5-.9848-.258-1.7812-.5312-1.7812-.5312a.912,.912 0 0,0 -1.1562,1.0938c0,0 .2111,.9608 .6875,2 .4764,1.0392 1.157,2.2959 2.5312,2.7188a.912,.912 0 0,0 .5,0c1.4453-.3826 2.2773-1.3904 2.625-2.25 .3477-.8596 .3125-1.6562 .3125-1.6562a.912,.912 0 0,0 -.1562-.5c.0915,.0445 .1575,.0485 .25,.0938l-.1562,2.8125a.912,.912 0 0,0 .5938,.9375c0,0 10.3546,3.7035 18.1875,10.9062-.5716,.6741-1.0269,1.4474-1.375,2.2188-.2778,.6155-.3259,.7565-.4688,1.1562-7.7634-4.26-13.9101-4.6264-18.0938-3.6875-3.4918,.7836-5.2923,2.1605-6.0312,2.7812-.6222-.4875-2.2565-1.8221-3.4375-3.8438-.7122-1.2192-1.1202-2.5587-.9375-3.875 .1827-1.3163 .937-2.6952 2.9375-4.1562a.912,.912 0 0,0 -.1562-1.5938c-1.6551-.7356-4.9062-2.4688-4.9062-2.4688a.912,.912 0 0,0 -1.125,.2188c-2.7158,3.0678-3.7402,6.0272-3.625,8.7188 .1152,2.6916 1.3553,5.025 2.875,6.9062 3.0393,3.7626 7.3438,5.9062 7.3438,5.9062a.912,.912 0 0,0 .9062-.0312c11.5338-7.4146 26.4688,2.375 26.4688,2.375a.912,.912 0 0,0 1.4062-.5938c1.3027-6.9789 4.8438-10.5625 4.8438-10.5625a.912,.912 0 0,0 .0312-1.2188c-3.1653-3.718-8.0664-6.9826-12.1875-9.375-3.7931-2.2019-6.3974-3.3781-6.875-3.5938l.2188-1.75a.912,.912 0 0,0 -.2812-.7812c-2.8762-2.6099-8.1301-4.3323-13.625-6.4062-5.4949-2.074-11.1984-4.4394-14.8125-7.6875a.912,.912 0 0,0 -.7812-.2188z"
     id="path81" />
  <path
     opacity=".3"
     d="m33.9151,13.8257c7.6067,6.8364 23.2246,9.3756 28.4242,14.0936l-.2763,2.3687c0,0 13.2781,5.9025 19.3442,13.0277 0,0-3.7446,3.7928-5.0927,11.0144 0,0-15.3445-10.2074-27.4767-2.4082 0,0-16.7155-8.3472-6.3165-20.0943 0,0 3.2411,1.7168 4.9742,2.4871-8.5696,6.2587 1.9344,13.7778 1.9344,13.7778 0,0 8.4975-8.4492 24.6737,.987 0,0 1.2007-3.8313 2.645-4.6979-8.0881-7.7993-19.1863-11.6855-19.1863-11.6855l.1974-3.4346c-11.2656-5.5847-15.3887-5.552-19.818-8.922 .4671,5.9058 5.5548,6.6193 7.4613,6.4744 0,0-12.3547,4.3435-11.4881-12.9883zm17.015,15.3569c0,0 3.2563,1.0659 4.8953,1.0659 0,0 .0716,2.3857-2.2502,3.0003-1.7755-.5463-2.645-4.0662-2.645-4.0662z"
     id="path83" />
  <path
     fill="#fff"
     d="m33.9151,12.8257c7.6067,6.8364 23.2246,9.3756 28.4242,14.0936l-.2763,2.3687c0,0 13.2781,5.9025 19.3442,13.0277 0,0-3.7446,3.7928-5.0927,11.0144 0,0-15.3445-10.2074-27.4767-2.4082 0,0-16.7155-8.3472-6.3165-20.0943 0,0 3.2411,1.7168 4.9742,2.4871-8.5696,6.2587 1.9344,13.7778 1.9344,13.7778 0,0 8.4975-8.4492 24.6737,.987 0,0 1.2007-3.8313 2.645-4.6979-8.0881-7.7993-19.1863-11.6855-19.1863-11.6855l.1974-3.4346c-11.2656-5.5847-15.3887-5.552-19.818-8.922 .4671,5.9058 5.5548,6.6193 7.4613,6.4744 0,0-12.3547,4.3435-11.4881-12.9883zm17.015,15.3569c0,0 3.2563,1.0659 4.8953,1.0659 0,0 .0716,2.3857-2.2502,3.0003-1.7755-.5463-2.645-4.0662-2.645-4.0662z"
     id="path85" />
</svg>
