<?xml version="1.0" encoding="UTF-8" standalone="no"?>
<svg
   xmlns:dc="http://purl.org/dc/elements/1.1/"
   xmlns:cc="http://creativecommons.org/ns#"
   xmlns:rdf="http://www.w3.org/1999/02/22-rdf-syntax-ns#"
   xmlns:svg="http://www.w3.org/2000/svg"
   xmlns="http://www.w3.org/2000/svg"
   xmlns:xlink="http://www.w3.org/1999/xlink"
   xmlns:sodipodi="http://sodipodi.sourceforge.net/DTD/sodipodi-0.dtd"
   xmlns:inkscape="http://www.inkscape.org/namespaces/inkscape"
   viewBox="0 0 96 96"
   id="svg2"
   version="1.1"
   inkscape:version="0.91 r"
   sodipodi:docname="anki.svg">
  <title
     id="title91">anki</title>
  <metadata
     id="metadata87">
    <rdf:RDF>
      <cc:Work
         rdf:about="">
        <dc:format>image/svg+xml</dc:format>
        <dc:type
           rdf:resource="http://purl.org/dc/dcmitype/StillImage" />
        <dc:title>anki</dc:title>
        <dc:subject>
          <rdf:Bag>
            <rdf:li>anki</rdf:li>
            <rdf:li>language</rdf:li>
            <rdf:li>learning</rdf:li>
            <rdf:li>flashcards</rdf:li>
          </rdf:Bag>
        </dc:subject>
        <dc:description>anki, language, learning, flashcards</dc:description>
      </cc:Work>
    </rdf:RDF>
  </metadata>
  <sodipodi:namedview
     pagecolor="#ffffff"
     bordercolor="#666666"
     borderopacity="1"
     objecttolerance="10"
     gridtolerance="10"
     guidetolerance="10"
     inkscape:pageopacity="0"
     inkscape:pageshadow="2"
     inkscape:window-width="1280"
     inkscape:window-height="965"
     id="namedview85"
     showgrid="false"
     inkscape:zoom="3.47661"
     inkscape:cx="77.5889"
     inkscape:cy="86.3245"
     inkscape:window-x="0"
     inkscape:window-y="27"
     inkscape:window-maximized="1"
     inkscape:current-layer="svg2" />
  <defs
     id="defs4">
    <clipPath
       id="clipPath4299"
       clipPathUnits="userSpaceOnUse">
      <path
         fill="url(#linearGradient3617)"
         d="m12,6h72a6,6 0 0,1 6,6v72a6,6 0 0,1 -6,6h-72a6,6 0 0,1 -6-6v-72a6,6 0 0,1 6-6"
         id="path27" />
    </clipPath>
    <linearGradient
       id="linearGradient3737">
      <stop
         offset="0"
         stop-color="#fff"
         id="stop30" />
      <stop
         offset="1"
         stop-color="#fff"
         stop-opacity="0"
         id="stop32" />
    </linearGradient>
    <linearGradient
       id="linearGradient4825">
      <stop
         offset="0"
         stop-color="#0084dd"
         id="stop35" />
      <stop
         offset="1"
         stop-color="#fff"
         id="stop37" />
    </linearGradient>
    <linearGradient
       gradientTransform="matrix(.34138 0 0 .34138 -34.17326 -102.42311)"
       xlink:href="#linearGradient4843"
       id="linearGradient4266"
       y1="441.862"
       x1="247"
       y2="282.362"
       gradientUnits="userSpaceOnUse"
       x2="292" />
    <linearGradient
       id="linearGradient4843">
      <stop
         offset="0"
         stop-color="#fff"
         stop-opacity=".494"
         id="stop41" />
      <stop
         offset="1"
         stop-color="#fff"
         stop-opacity=".251"
         id="stop43" />
    </linearGradient>
    <linearGradient
       id="linearGradient3988"
       xlink:href="#linearGradient4825"
       y1="412.83"
       y2="542.333"
       x1="253.747"
       x2="188"
       gradientUnits="userSpaceOnUse" />
    <linearGradient
       id="linearGradient3617"
       xlink:href="#linearGradient4272"
       y1="6"
       y2="105.685"
       x2="0"
       gradientUnits="userSpaceOnUse" />
    <linearGradient
       gradientTransform="matrix(1.00587 0 0 .99417 100 0)"
       id="ButtonShadow-0"
       y1="92.54"
       y2="7.017"
       x2="0"
       gradientUnits="userSpaceOnUse">
      <stop
         offset="0"
         id="stop48" />
      <stop
         offset="1"
         stop-opacity=".588"
         id="stop50" />
    </linearGradient>
    <linearGradient
       gradientTransform="matrix(1.02381 0 0 1.0119 -1.14286 -98.07143)"
       id="linearGradient3780"
       xlink:href="#ButtonShadow-0"
       y1="6.132"
       y2="90.239"
       x2="0"
       gradientUnits="userSpaceOnUse" />
    <linearGradient
       id="linearGradient4272">
      <stop
         offset="0"
         stop-color="#121212"
         id="stop54" />
      <stop
         offset="1"
         stop-color="#9f9f9f"
         id="stop56" />
    </linearGradient>
    <linearGradient
       id="linearGradient3188"
       xlink:href="#linearGradient3737"
       y1="6"
       y2="63.893"
       x2="0"
       gradientUnits="userSpaceOnUse" />
    <linearGradient
       gradientTransform="translate(0 -97)"
       id="linearGradient3721"
       xlink:href="#ButtonShadow-0"
       y1="6.132"
       y2="90.239"
       x2="0"
       gradientUnits="userSpaceOnUse" />
    <radialGradient
       cx="48"
       cy="90.172"
       gradientTransform="matrix(1.15731,0,0,0.99591,-7.55102,0.19713)"
       r="42"
       id="radialGradient3619"
       xlink:href="#linearGradient3737"
       gradientUnits="userSpaceOnUse" />
  </defs>
  <path
     opacity=".08"
     fill="url(#linearGradient3780)"
     d="m12-95.0312c-5.5111,0-10.0312,4.5202-10.0312,10.0312v71c0,5.5111 4.5202,10.0312 10.0312,10.0312h72c5.5111,0 10.0312-4.5202 10.0312-10.0312v-71c0-5.5111-4.5202-10.0312-10.0312-10.0312h-72z"
     transform="scale(1 -1)"
     id="path61" />
  <path
     opacity=".1"
     fill="url(#linearGradient3780)"
     d="m12-94.0312c-4.9716,0-9.0312,4.0596-9.0312,9.0312v71c0,4.9716 4.0596,9.0312 9.0312,9.0312h72c4.9716,0 9.0312-4.0596 9.0312-9.0312v-71c0-4.9716-4.0596-9.0312-9.0312-9.0312h-72z"
     transform="scale(1 -1)"
     id="path63" />
  <path
     opacity=".2"
     fill="url(#linearGradient3780)"
     d="m12-93c-4.4091,0-8,3.5909-8,8v71c0,4.4091 3.5909,8 8,8h72c4.4091,0 8-3.5909 8-8v-71c0-4.4091-3.5909-8-8-8h-72z"
     transform="scale(1 -1)"
     id="path65" />
  <path
     opacity=".3"
     fill="url(#linearGradient3780)"
     d="m12-92h72a7,7 0 0,1 7,7v71a7,7 0 0,1 -7,7h-72a7,7 0 0,1 -7-7v-71a7,7 0 0,1 7-7"
     transform="scale(1 -1)"
     id="path67" />
  <path
     opacity=".45"
     fill="url(#linearGradient3721)"
     d="m12-91h72a6,6 0 0,1 6,6v72a6,6 0 0,1 -6,6h-72a6,6 0 0,1 -6-6v-72a6,6 0 0,1 6-6"
     transform="scale(1 -1)"
     id="path69" />
  <path
     fill="url(#linearGradient3617)"
     d="m12,6h72a6,6 0 0,1 6,6v72a6,6 0 0,1 -6,6h-72a6,6 0 0,1 -6-6v-72a6,6 0 0,1 6-6"
     id="path71" />
  <g
     stroke="#fff"
     id="g73">
    <path
       fill="url(#linearGradient3988)"
       stroke-width="12.921"
       d="m294.4687,523.4526c-9.0804,8.8134-45.5749-17.7699-58.1015-15.9771-12.5266,1.7928-40.0995,37.5455-51.2875,31.6329-11.188-5.9125 2.8168-48.8355-2.7592-60.195-5.576-11.3595-48.0993-26.5347-45.9334-39.0022 2.1659-12.4675 47.3158-12.4121 56.3962-21.2254 9.0804-8.8134 10.3725-53.9448 22.8991-55.7376 12.5266-1.7928 26.426,41.1644 37.614,47.077 11.188,5.9125 54.5098-6.805 60.0858,4.5544 5.576,11.3595-30.9836,37.8531-33.1495,50.3206-2.1659,12.4675 23.3164,49.7391 14.236,58.5524z"
       transform="matrix(.23218 .00136 -.00136 .23218 -18.9788 -41.49247)"
       id="path75" />
    <path
       fill="url(#linearGradient3988)"
       stroke-width="18.338"
       d="m294.4687,523.4526c-9.0804,8.8134-45.5749-17.7699-58.1015-15.9771-12.5266,1.7928-40.0995,37.5455-51.2875,31.6329-11.188-5.9125 2.8168-48.8355-2.7592-60.195-5.576-11.3595-48.0993-26.5347-45.9334-39.0022 2.1659-12.4675 47.3158-12.4121 56.3962-21.2254 9.0804-8.8134 10.3725-53.9448 22.8991-55.7376 12.5266-1.7928 26.426,41.1644 37.614,47.077 11.188,5.9125 54.5098-6.805 60.0858,4.5544 5.576,11.3595-30.9836,37.8531-33.1495,50.3206-2.1659,12.4675 23.3164,49.7391 14.236,58.5524z"
       transform="matrix(.1274 -.10262 .10262 .1274 -9.07688 -7.553)"
       id="path77" />
  </g>
  <path
     d="m 0.092973,1.9688 95.275027,0 0.1818,65.6926 C 82.3316,53.3236 34.1068,31.2237 0.0829,31.2237 Z"
     clip-path="url(#clipPath4299)"
     id="path79"
     inkscape:connector-curvature="0"
     style="fill:url(#linearGradient4266)"
     sodipodi:nodetypes="ccccc" />
  <path
     style="opacity:0.35;fill:url(#linearGradient3188)"
     d="M 12,6 C 8.11425,5.86322 5.41842,9.7916 6,13.4226 6.01817,37.1117 5.96368,60.8028 6.02721,84.4906 5.28209,86.8321 10.5384,90.3041 9.3125,89.2189 6.06848,87.1934 7.20936,83.0941 7,79.918 7.01709,57.4408 6.96584,34.9619 7.02559,12.4857 7.23712,9.18528 10.3011,7.96863 13.6597,8.0003 37.2778,8.01738 60.8976,7.96615 84.5146,8.02589 87.815,8.23742 89.0676,10.798 89,14.66 c -0.023,23.6263 0.047,47.2557 -0.035,70.8801 0.6395,2.1759 -4.9497,5.3487 -1.452,3.2815 3.5336,-2.4814 2.2373,-6.9817 2.4873,-10.6151 -0.021,-22.2736 0.041,-44.5493 -0.031,-66.8216 C 89.7162,7.60958 86.5659,5.63338 82.3404,6.0001 58.8936,6.00003 35.4467,6.00023 12,6 Z"
     id="path81"
     inkscape:connector-curvature="0"
     sodipodi:nodetypes="ccccccccccccccc" />
  <path
     style="opacity:0.2;fill:url(#radialGradient3619)"
     d="M 12,90 C 8.11425,90.1368 5.41842,86.2084 6,82.5774 6.01817,58.8883 5.96368,35.1972 6.02721,11.5094 5.28209,9.16789 10.5384,5.69592 9.3125,6.7811 6.06848,8.80663 7.20936,12.9059 7,16.082 7.0171,38.5592 6.9658,61.0381 7.0256,83.5143 c 0.21153,3.3004 3.671,4.9485 6.6341,4.4854 23.6181,-0.017 47.2379,0.034 70.8549,-0.026 C 87.815,87.7622 89.4631,84.3027 89,81.3396 88.977,57.7133 89.047,34.0839 88.965,10.4595 89.0562,7.42967 84.0153,5.11076 87.513,7.17796 c 3.5336,2.48139 2.2373,6.98174 2.4873,10.61514 -0.021,22.2736 0.041,44.5493 -0.031,66.8216 -0.253,3.7753 -4.1583,5.9088 -7.6288,5.3848 C 58.8936,90 35.4467,89.9998 12,90 Z"
     id="path83"
     inkscape:connector-curvature="0"
     sodipodi:nodetypes="ccccccccccccccc" />
</svg>
