<?xml version="1.0" encoding="UTF-8" standalone="no"?>
<!-- Created with Inkscape (http://www.inkscape.org/) -->

<svg
   xmlns:dc="http://purl.org/dc/elements/1.1/"
   xmlns:cc="http://creativecommons.org/ns#"
   xmlns:rdf="http://www.w3.org/1999/02/22-rdf-syntax-ns#"
   xmlns:svg="http://www.w3.org/2000/svg"
   xmlns="http://www.w3.org/2000/svg"
   xmlns:xlink="http://www.w3.org/1999/xlink"
   xmlns:sodipodi="http://sodipodi.sourceforge.net/DTD/sodipodi-0.dtd"
   xmlns:inkscape="http://www.inkscape.org/namespaces/inkscape"
   version="1.0"
   width="96"
   height="96"
   id="svg2408"
   inkscape:version="0.92+devel (unknown)"
   sodipodi:docname="audacious.svg">
  <title
     id="title74">audacious</title>
  <sodipodi:namedview
     pagecolor="#ffffff"
     bordercolor="#666666"
     borderopacity="1"
     objecttolerance="10"
     gridtolerance="10"
     guidetolerance="10"
     inkscape:pageopacity="0"
     inkscape:pageshadow="2"
     inkscape:window-width="1280"
     inkscape:window-height="965"
     id="namedview70"
     showgrid="false"
     inkscape:zoom="9.83334"
     inkscape:cx="41.5062"
     inkscape:cy="12.766"
     inkscape:window-x="0"
     inkscape:window-y="29"
     inkscape:window-maximized="1"
     inkscape:current-layer="svg2408"
     inkscape:document-rotation="0" />
  <defs
     id="defs2410">
    <linearGradient
       id="linearGradient3838">
      <stop
         id="stop3840"
         style="stop-color:#737373;stop-opacity:1"
         offset="0" />
      <stop
         id="stop3842"
         style="stop-color:#cecece;stop-opacity:1"
         offset="1" />
    </linearGradient>
    <linearGradient
       id="linearGradient3808">
      <stop
         id="stop3810"
         style="stop-color:#ffffff;stop-opacity:1"
         offset="0" />
      <stop
         id="stop3812"
         style="stop-color:#ffffff;stop-opacity:0"
         offset="1" />
    </linearGradient>
    <linearGradient
       id="linearGradient3795">
      <stop
         id="stop3797"
         style="stop-color:#050505;stop-opacity:1"
         offset="0" />
      <stop
         id="stop3799"
         style="stop-color:#191919;stop-opacity:1"
         offset="1" />
    </linearGradient>
    <linearGradient
       id="linearGradient3789">
      <stop
         id="stop3791"
         style="stop-color:#656565;stop-opacity:1"
         offset="0" />
      <stop
         id="stop3793"
         style="stop-color:#c1c1c1;stop-opacity:1"
         offset="1" />
    </linearGradient>
    <linearGradient
       id="linearGradient3726">
      <stop
         id="stop3728"
         style="stop-color:#ffffff;stop-opacity:1"
         offset="0" />
      <stop
         id="stop3730"
         style="stop-color:#ffffff;stop-opacity:0"
         offset="1" />
    </linearGradient>
    <linearGradient
       x1="45.447727"
       y1="92.539597"
       x2="45.447727"
       y2="7.0165396"
       id="ButtonShadow"
       gradientUnits="userSpaceOnUse"
       gradientTransform="scale(1.0058652,0.994169)">
      <stop
         id="stop3750"
         style="stop-color:#000000;stop-opacity:1"
         offset="0" />
      <stop
         id="stop3752"
         style="stop-color:#000000;stop-opacity:0.58823532"
         offset="1" />
    </linearGradient>
    <linearGradient
       id="linearGradient3737">
      <stop
         id="stop3739"
         style="stop-color:#ffffff;stop-opacity:1"
         offset="0" />
      <stop
         id="stop3741"
         style="stop-color:#ffffff;stop-opacity:0"
         offset="1" />
    </linearGradient>
    <filter
       color-interpolation-filters="sRGB"
       id="filter3174">
      <feGaussianBlur
         id="feGaussianBlur3176"
         stdDeviation="1.71" />
    </filter>
    <linearGradient
       x1="36.357143"
       y1="6"
       x2="36.357143"
       y2="63.893143"
       id="linearGradient3188"
       xlink:href="#linearGradient3737"
       gradientUnits="userSpaceOnUse" />
    <filter
       x="-0.192"
       y="-0.192"
       width="1.3839999"
       height="1.3839999"
       color-interpolation-filters="sRGB"
       id="filter3794">
      <feGaussianBlur
         id="feGaussianBlur3796"
         stdDeviation="5.28" />
    </filter>
    <linearGradient
       x1="48"
       y1="20.220806"
       x2="48"
       y2="138.66119"
       id="linearGradient3613"
       xlink:href="#linearGradient3737"
       gradientUnits="userSpaceOnUse" />
    <radialGradient
       cx="48"
       cy="90.171875"
       r="42"
       fx="48"
       fy="90.171875"
       id="radialGradient3619"
       xlink:href="#linearGradient3737"
       gradientUnits="userSpaceOnUse"
       gradientTransform="matrix(1.15731,0,0,0.995908,-7.55102,0.197132)" />
    <clipPath
       id="clipPath3613">
      <rect
         width="84"
         height="84"
         rx="6"
         ry="6"
         x="6"
         y="6"
         id="rect3615"
         style="fill:#ffffff;fill-opacity:1;fill-rule:nonzero;stroke:none" />
    </clipPath>
    <linearGradient
       x1="48"
       y1="90"
       x2="48"
       y2="5.9877172"
       id="linearGradient3617"
       xlink:href="#linearGradient3789"
       gradientUnits="userSpaceOnUse" />
    <linearGradient
       x1="45.447727"
       y1="92.539597"
       x2="45.447727"
       y2="7.0165396"
       id="ButtonShadow-0"
       gradientUnits="userSpaceOnUse"
       gradientTransform="matrix(1.0058652,0,0,0.994169,100,0)">
      <stop
         id="stop3750-8"
         style="stop-color:#000000;stop-opacity:1"
         offset="0" />
      <stop
         id="stop3752-5"
         style="stop-color:#000000;stop-opacity:0.58823532"
         offset="1" />
    </linearGradient>
    <linearGradient
       x1="32.251034"
       y1="6.1317081"
       x2="32.251034"
       y2="90.238609"
       id="linearGradient3780"
       xlink:href="#ButtonShadow-0"
       gradientUnits="userSpaceOnUse"
       gradientTransform="matrix(1.0238095,0,0,1.0119048,-1.1428571,-98.071429)" />
    <linearGradient
       x1="32.251034"
       y1="6.1317081"
       x2="32.251034"
       y2="90.238609"
       id="linearGradient3772"
       xlink:href="#ButtonShadow-0"
       gradientUnits="userSpaceOnUse"
       gradientTransform="matrix(1.0238095,0,0,1.0119048,-1.1428571,-98.071429)" />
    <linearGradient
       x1="32.251034"
       y1="6.1317081"
       x2="32.251034"
       y2="90.238609"
       id="linearGradient3725"
       xlink:href="#ButtonShadow-0"
       gradientUnits="userSpaceOnUse"
       gradientTransform="matrix(1.0238095,0,0,1.0119048,-1.1428571,-98.071429)" />
    <linearGradient
       x1="32.251034"
       y1="6.1317081"
       x2="32.251034"
       y2="90.238609"
       id="linearGradient3721"
       xlink:href="#ButtonShadow-0"
       gradientUnits="userSpaceOnUse"
       gradientTransform="translate(0,-97)" />
    <linearGradient
       x1="32.251034"
       y1="6.1317081"
       x2="32.251034"
       y2="90.238609"
       id="linearGradient3026"
       xlink:href="#ButtonShadow-0"
       gradientUnits="userSpaceOnUse"
       gradientTransform="matrix(1.0238095,0,0,1.0119048,-1.1428571,-98.071429)" />
    <linearGradient
       x1="15"
       y1="48"
       x2="108.85714"
       y2="47.82143"
       id="linearGradient3814"
       xlink:href="#linearGradient3808"
       gradientUnits="userSpaceOnUse"
       gradientTransform="matrix(0,-1.030303,1.030303,0,-1.4545454,97.454545)" />
    <linearGradient
       x1="49.714287"
       y1="69.964287"
       x2="49.714287"
       y2="34.946777"
       id="linearGradient3836"
       xlink:href="#linearGradient3838"
       gradientUnits="userSpaceOnUse"
       gradientTransform="matrix(1.0035883,0,0,0.98468749,-0.22247342,0.50531262)" />
    <linearGradient
       x1="16"
       y1="48"
       x2="80"
       y2="48"
       id="linearGradient3863"
       xlink:href="#linearGradient3795"
       gradientUnits="userSpaceOnUse" />
    <linearGradient
       x1="50.59584"
       y1="63.175663"
       x2="50.59584"
       y2="12.880043"
       id="linearGradient3878"
       xlink:href="#linearGradient3726"
       gradientUnits="userSpaceOnUse" />
  </defs>
  <metadata
     id="metadata2413">
    <rdf:RDF>
      <cc:Work
         rdf:about="">
        <dc:format>image/svg+xml</dc:format>
        <dc:type
           rdf:resource="http://purl.org/dc/dcmitype/StillImage" />
        <dc:title>audacious</dc:title>
        <dc:subject>
          <rdf:Bag>
            <rdf:li>audacious</rdf:li>
            <rdf:li>audio</rdf:li>
            <rdf:li>audioplayer</rdf:li>
            <rdf:li>sound</rdf:li>
          </rdf:Bag>
        </dc:subject>
        <dc:description>audacious, audio, audioplayer, sound</dc:description>
      </cc:Work>
    </rdf:RDF>
  </metadata>
  <g
     id="layer2"
     style="display:none">
    <rect
       width="86"
       height="85"
       rx="6"
       ry="6"
       x="5"
       y="7"
       id="rect3745"
       style="opacity:0.9;fill:url(#ButtonShadow);fill-opacity:1;fill-rule:nonzero;stroke:none;filter:url(#filter3174)" />
  </g>
  <g
     id="layer3">
    <path
       d="m 12,-95.03125 c -5.5110903,0 -10.03125,4.52016 -10.03125,10.03125 l 0,71 c 0,5.5110902 4.5201598,10.03125 10.03125,10.03125 l 72,0 c 5.51109,0 10.03125,-4.5201597 10.03125,-10.03125 l 0,-71 c 0,-5.51109 -4.52016,-10.03125 -10.03125,-10.03125 l -72,0 z"
       transform="scale(1,-1)"
       id="path3786"
       style="opacity:0.07999998;fill:url(#linearGradient3026);fill-opacity:1;fill-rule:nonzero;stroke:none;display:inline" />
    <path
       d="m 12,-94.03125 c -4.971633,0 -9.03125,4.059617 -9.03125,9.03125 l 0,71 c 0,4.9716329 4.0596171,9.03125 9.03125,9.03125 l 72,0 c 4.971633,0 9.03125,-4.059617 9.03125,-9.03125 l 0,-71 c 0,-4.971633 -4.059617,-9.03125 -9.03125,-9.03125 l -72,0 z"
       transform="scale(1,-1)"
       id="path3778"
       style="opacity:0.1;fill:url(#linearGradient3780);fill-opacity:1;fill-rule:nonzero;stroke:none;display:inline" />
    <path
       d="m 12,-93 c -4.4091333,0 -8,3.590867 -8,8 l 0,71 c 0,4.4091333 3.5908667,8 8,8 l 72,0 c 4.409133,0 8,-3.5908667 8,-8 l 0,-71 c 0,-4.409133 -3.590867,-8 -8,-8 l -72,0 z"
       transform="scale(1,-1)"
       id="path3770"
       style="opacity:0.2;fill:url(#linearGradient3772);fill-opacity:1;fill-rule:nonzero;stroke:none;display:inline" />
    <rect
       width="86"
       height="85"
       rx="7"
       ry="7"
       x="5"
       y="-92"
       transform="scale(1,-1)"
       id="rect3723"
       style="opacity:0.3;fill:url(#linearGradient3725);fill-opacity:1;fill-rule:nonzero;stroke:none;display:inline" />
    <rect
       width="84"
       height="84"
       rx="6"
       ry="6"
       x="6"
       y="-91"
       transform="scale(1,-1)"
       id="rect3716"
       style="opacity:0.45;fill:url(#linearGradient3721);fill-opacity:1;fill-rule:nonzero;stroke:none;display:inline" />
  </g>
  <g
     id="layer1">
    <rect
       width="84"
       height="84"
       rx="6"
       ry="6"
       x="6"
       y="6"
       id="rect2419"
       style="fill:url(#linearGradient3617);fill-opacity:1;fill-rule:nonzero;stroke:none" />
    <path
       style="opacity:0.3;fill:url(#linearGradient3188);fill-opacity:1;fill-rule:nonzero;stroke:none"
       d="M 12,6 C 8.11425,5.86322 5.41842,9.7916 6,13.4226 6.01818,37.1117 5.96366,60.8028 6.02722,84.4906 5.28212,86.832 10.5383,90.304 9.3125,89.2188 6.06854,87.1931 7.20932,83.0939 7,79.9177 7.01709,57.4405 6.96584,34.9616 7.02559,12.4854 7.23709,9.18494 10.6966,7.53688 13.6597,8 c 23.6181,0.0171 47.2379,-0.0342 70.8549,0.0256 3.3005,0.2115 4.9485,3.67101 4.4854,6.63411 -0.023,23.6263 0.047,47.2557 -0.035,70.8801 0.6394,2.1759 -4.9496,5.3488 -1.4521,3.2816 C 91.0463,86.3401 89.75,81.8397 90,78.2064 89.9794,55.9328 90.0412,33.6571 89.9691,11.3848 89.7161,7.60949 85.8108,5.47598 82.3403,6 58.8935,6 35.4468,6 12,6 Z"
       id="rect3728"
       inkscape:connector-curvature="0" />
    <path
       style="opacity:0.2;fill:url(#radialGradient3619);fill-opacity:1;fill-rule:nonzero;stroke:none"
       d="M 12,90 C 8.11425,90.1368 5.41842,86.2084 6,82.5774 6.01818,58.8883 5.96366,35.1972 6.02722,11.5094 5.28212,9.16796 10.5383,5.696 9.3125,6.78125 6.06854,8.80692 7.20932,12.9061 7,16.0823 c 0.0171,22.4772 -0.0342,44.9561 0.0256,67.4323 0.2115,3.3005 3.67101,4.9485 6.63411,4.4854 23.6181,-0.017 47.2379,0.034 70.8549,-0.026 C 87.8151,87.7629 89.4631,84.3034 89,81.3403 88.9765,57.714 89.0469,34.0846 88.9648,10.4602 89.6042,8.28431 84.0152,5.11138 87.5127,7.17856 91.0463,9.65991 89.75,14.1603 90,17.7936 89.9794,40.0672 90.0412,62.3429 89.9691,84.6152 89.7161,88.3905 85.8108,90.524 82.3403,90 58.8935,90 35.4468,90 12,90 Z"
       id="path3615"
       inkscape:connector-curvature="0" />
  </g>
  <g
     id="layer5">
    <rect
       width="66"
       height="66"
       rx="12"
       ry="12"
       x="15"
       y="15"
       clip-path="url(#clipPath3613)"
       id="rect3171"
       style="opacity:0.05;fill:url(#linearGradient3613);fill-opacity:1;fill-rule:nonzero;stroke:#ffffff;stroke-width:0.5;stroke-linecap:round;stroke-linejoin:miter;stroke-miterlimit:4;stroke-opacity:1;stroke-dasharray:none;stroke-dashoffset:0;filter:url(#filter3794)" />
  </g>
  <g
     id="layer4">
    <path
       d="m 80,48 a 32,32 0 1 1 -64,0 32,32 0 1 1 64,0 z"
       transform="matrix(0,-1.03125,1.03125,0,-1.5,97.5)"
       id="path3663"
       style="color:#000000;fill:url(#linearGradient3863);fill-opacity:1;fill-rule:nonzero;stroke:none;stroke-width:1.5;marker:none;visibility:visible;display:inline;overflow:visible;enable-background:accumulate" />
    <path
       d="M 14,48 C 14,66.777682 29.222318,82 48,82 66.777682,82 82,66.777682 82,48 82,29.222318 66.777682,14 48,14 29.222318,14 14,29.222318 14,48 z m 1.030303,0 C 15.030303,29.791339 29.791339,15.030303 48,15.030303 66.208661,15.030303 80.969697,29.791339 80.969697,48 80.969697,66.208661 66.208661,80.969697 48,80.969697 29.791339,80.969697 15.030303,66.208661 15.030303,48 z"
       inkscape:connector-curvature="0"
       id="path3801"
       style="opacity:0.3;color:#000000;fill:url(#linearGradient3814);fill-opacity:1;fill-rule:nonzero;stroke:none;stroke-width:1.5;marker:none;visibility:visible;display:inline;overflow:visible;enable-background:accumulate" />
    <path
       d="M 48,16 C 30.326888,16 16,30.326888 16,48 16,65.673112 30.326888,80 48,80 65.673112,80 80,65.673112 80,48 80,30.326888 65.673112,16 48,16 z m 0,1 C 65.120827,17 79,30.879173 79,48 79,65.120827 65.120827,79 48,79 30.879173,79 17,65.120827 17,48 17,30.879173 30.879173,17 48,17 z"
       inkscape:connector-curvature="0"
       id="path3816"
       style="opacity:0.6;color:#000000;fill:#000000;fill-opacity:1;fill-rule:nonzero;stroke:none;stroke-width:1.5;marker:none;visibility:visible;display:inline;overflow:visible;enable-background:accumulate" />
    <path
       d="M 48,16 C 30.326888,16 16,30.326888 16,48 16,65.673112 30.326888,80 48,80 65.673112,80 80,65.673112 80,48 80,30.326888 65.673112,16 48,16 z m 0,2 C 64.584659,18 78,31.415341 78,48 78,64.584659 64.584659,78 48,78 31.415341,78 18,64.584659 18,48 18,31.415341 31.415341,18 48,18 z m -0.0625,13.03125 c -1.473381,0.06395 -3.758316,0.06897 -6,0.40625 -2.225278,0.334808 -4.613809,0.949551 -6.21875,2.84375 -1.211318,1.429631 -1.368447,3.337318 -1.03125,4.9375 0.342438,1.625054 1.389607,3.488155 3.46875,3.875 0.759158,0.141249 1.532916,0.149462 2.3125,0.125 -3.190416,1.081981 -5.708442,2.721076 -7.125,5.0625 -1.5261,2.522485 -1.712379,5.610997 -0.8125,8.78125 1.298397,4.574223 5.726376,7.751729 10.5625,7.9375 a 0.99219516,0.99219516 0 0 0 0.03125,0 l 0.03125,0 c 4.194983,-0.0092 6.44002,-1.285396 7.59375,-2.0625 0.36926,-0.248718 0.567911,-0.369612 0.625,-0.40625 -0.01911,0.003 0.08026,-0.05332 0.8125,0.34375 0.873439,0.789109 1.897367,1.328433 3.03125,1.53125 1.328776,0.237678 2.862689,0.112276 4.09375,-0.84375 0.747886,-0.580797 2.162064,-1.190989 3.3125,-2.4375 0.611901,-0.663001 1.156691,-1.61249 1.1875,-2.75 0.02849,-1.051864 -0.397509,-2.074765 -1.03125,-3.0625 -0.0026,-0.01406 0.0049,-0.01628 0,-0.03125 0.0029,0.0187 -0.01639,0.02573 0,-0.09375 0.03114,-0.226979 0.249907,-0.888056 0.46875,-1.78125 0.434769,-1.774487 0.946368,-4.513238 0.65625,-8.625 C 63.61672,40.677817 62.017403,37.043088 59.21875,34.5625 56.421722,32.083352 52.539047,30.831541 47.9375,31.03125 z m 0.59375,20.65625 c 0.833387,0 1.09375,0.426875 1.09375,0.71875 0,0.283011 -0.293132,0.75 -1.09375,0.75 -0.785933,0 -1.15625,-0.561649 -1.15625,-0.75 0,-0.197494 0.337409,-0.71875 1.15625,-0.71875 z"
       inkscape:connector-curvature="0"
       id="path3857"
       style="opacity:0.2;color:#000000;fill:#000000;fill-opacity:1;fill-rule:nonzero;stroke:none;stroke-width:1.5;marker:none;visibility:visible;display:inline;overflow:visible;enable-background:accumulate" />
    <path
       d="m 47.96875,32.03125 c -1.520611,0.066 -3.736856,0.0533 -5.875,0.375 -2.138144,0.321698 -4.271666,0.934005 -5.625,2.53125 -0.954709,1.126774 -1.104857,2.675107 -0.8125,4.0625 0.292357,1.387393 1.129534,2.835125 2.6875,3.125 1.500915,0.279261 3.247381,0.07132 4.96875,-0.125 1.721369,-0.196322 3.428248,-0.403185 4.59375,-0.28125 0.693206,0.07252 0.859427,0.329091 0.875,0.375 0.01557,0.04591 0.102829,0.223272 -0.4375,0.59375 -0.486139,0.333323 -1.731345,0.56523 -3.0625,0.6875 -1.331155,0.12227 -2.710133,0.150006 -3.875,0.5 -3.393789,1.019692 -5.860521,2.661238 -7.21875,4.90625 -1.358229,2.245012 -1.533378,5.019992 -0.6875,8 1.168351,4.116073 5.203483,7.048905 9.625,7.21875 a 1.0035637,1.0035637 0 0 0 0.03125,0 c 4.009558,-0.0088 5.935764,-1.137127 7.03125,-1.875 0.547743,-0.368937 0.815843,-0.528665 1.03125,-0.5625 0.215407,-0.03384 0.602313,-0.0154 1.4375,0.4375 0.770093,0.757994 1.728574,1.254798 2.75,1.4375 1.136676,0.203317 2.367776,0.07741 3.3125,-0.65625 0.903224,-0.70143 2.213463,-1.28837 3.1875,-2.34375 0.487019,-0.52769 0.883451,-1.251989 0.90625,-2.09375 0.0228,-0.841761 -0.287495,-1.700483 -0.90625,-2.625 -0.105793,-0.158071 -0.14966,-0.248755 -0.09375,-0.65625 0.05591,-0.407495 0.257775,-1.045168 0.46875,-1.90625 0.421949,-1.722164 0.907386,-4.31032 0.625,-8.3125 C 62.631623,40.951537 61.142826,37.599574 58.5625,35.3125 55.982174,33.025426 52.369164,31.84027 47.96875,32.03125 z m 0.5625,18.65625 c 1.261558,0 2.09375,0.816699 2.09375,1.71875 0,0.902049 -0.844277,1.75 -2.09375,1.75 -1.249472,0 -2.15625,-0.87569 -2.15625,-1.75 0,-0.874311 0.894694,-1.71875 2.15625,-1.71875 z"
       id="path3848"
       style="opacity:0.6;fill:#000000;fill-opacity:1;stroke:none" />
    <path
       d="m 48.007543,33.019037 c -3.116149,0.135243 -8.651842,0.02585 -10.802203,2.56377 -1.314015,1.550837 -0.699416,5.164352 1.314214,5.539008 2.508548,0.466741 6.747224,-0.695893 9.465849,-0.411469 1.895575,0.198316 2.473267,1.726886 0.929567,2.78533 -1.634516,1.120711 -5.348658,0.798131 -7.222067,1.361013 -6.47696,1.946057 -8.79807,6.057096 -7.212155,11.644235 1.034113,3.643154 4.673142,6.345688 8.666246,6.499076 7.681365,-0.01688 6.269859,-3.891366 9.989192,-1.874453 1.224003,1.412743 3.69011,1.878922 4.968374,0.886241 2.055141,-1.595991 5.135028,-2.462601 2.948969,-5.728916 -1.046863,-1.564177 1.414685,-3.578848 0.865459,-11.36288 C 61.399289,37.554431 56.40394,32.65463 48.007543,33.019037 z m 0.522778,16.680328 c 1.730009,0 3.10924,1.214719 3.10924,2.722027 0,1.507307 -1.379231,2.722027 -3.10924,2.722027 -1.730008,0 -3.141294,-1.21472 -3.141294,-2.722027 0,-1.507308 1.411286,-2.722027 3.141294,-2.722027 z"
       inkscape:connector-curvature="0"
       id="path3821"
       style="fill:url(#linearGradient3836);fill-opacity:1;stroke:none" />
    <path
       d="m 49.5313,33.0254 c -4.4958,5e-4 -9.9333,-0.1151 -12.3125,2.5684 -1.3141,1.5508 -0.7012,5.1565 1.3125,5.5312 2.5085,0.4667 6.7501,-0.6907 9.4687,-0.4062 1.8956,0.1983 2.45,1.7228 0.9063,2.7812 -1.6346,1.1207 -5.3454,0.7809 -7.2188,1.3438 -6.477,1.946 -8.8047,6.0691 -7.2187,11.6562 1.0341,3.6432 4.6943,6.3466 8.6875,6.5 7.6813,-0.017 6.2494,-3.8919 9.9687,-1.875 1.224,1.4127 3.6905,1.8677 4.9688,0.875 2.0551,-1.596 5.1548,-2.4524 2.9687,-5.7187 -1.0469,-1.5642 1.393,-3.591 0.8438,-11.375 C 61.419,38.001 57.0051,33.0246 49.5313,33.0254 Z M 48.0313,34 c 4.0018,-0.1737 7.0686,0.9067 9.2187,2.8125 2.1501,1.9058 3.442,4.6768 3.6875,8.1563 0.2671,3.785 -0.1945,6.089 -0.5937,7.7187 -0.1997,0.8148 -0.3793,1.4729 -0.4688,2.125 -0.09,0.6521 -0.038,1.3828 0.375,2 0.4764,0.7118 0.6018,1.2046 0.5938,1.5 -0.01,0.2954 -0.1316,0.4836 -0.4063,0.7813 -0.5493,0.5952 -1.7892,1.2332 -2.9375,2.125 -0.3424,0.2659 -1.0218,0.4114 -1.75,0.2812 -0.8856,-0.2473 -1.5765,-0.6593 -2.1562,-1.2187 -1.0218,-0.5541 -1.8626,-0.8122 -2.6563,-0.6875 -0.7937,0.1246 -1.324,0.5561 -1.8437,0.9062 -1.0355,0.6975 -2.2631,1.5169 -5.9063,1.5313 -0.01,-4e-4 -0.021,4e-4 -0.031,0 -3.5653,-0.1505 -6.8489,-2.6377 -7.75,-5.8125 -0.7416,-2.6126 -0.5645,-4.6985 0.4687,-6.4063 1.0332,-1.7078 3.0061,-3.1035 6.0938,-4.0312 0.7151,-0.2149 2.0997,-0.3089 3.5,-0.4375 1.4002,-0.1287 2.8612,-0.2505 4,-1.0313 0.9966,-0.6833 1.5322,-1.8276 1.1875,-2.8437 -0.3448,-1.0162 -1.3676,-1.5938 -2.5625,-1.7188 -1.5475,-0.1619 -3.3249,0.087 -5.0313,0.2813 -1.7064,0.1946 -3.3289,0.3138 -4.3437,0.125 -0.4718,-0.088 -0.9346,-0.6585 -1.125,-1.5625 -0.1905,-0.9041 0.01,-1.9408 0.375,-2.375 0.8051,-0.9503 2.4987,-1.5521 4.4375,-1.8438 1.9388,-0.2917 4.0305,-0.3058 5.625,-0.375 z m 0.5,14.7188 c -2.1849,0 -4.125,1.5656 -4.125,3.6875 0,2.1218 1.9284,3.7187 4.125,3.7187 2.1965,0 4.0625,-1.6238 4.0625,-3.7187 0,-2.095 -1.8777,-3.6875 -4.0625,-3.6875 z m 0,0.9687 c 1.73,0 3.0937,1.2114 3.0937,2.7188 0,1.5073 -1.3637,2.75 -3.0937,2.75 -1.7301,0 -3.1563,-1.2427 -3.1563,-2.75 0,-1.5074 1.4262,-2.7188 3.1563,-2.7188 z"
       inkscape:connector-curvature="0"
       id="path3865"
       style="opacity:0.3;fill:url(#linearGradient3878);fill-opacity:1;stroke:none"
       sodipodi:nodetypes="scsssssccsssssssssccscccssccsssssssscscssssssssssss" />
  </g>
</svg>
