<?xml version="1.0" encoding="UTF-8" standalone="no"?>
<svg
   xmlns:dc="http://purl.org/dc/elements/1.1/"
   xmlns:cc="http://creativecommons.org/ns#"
   xmlns:rdf="http://www.w3.org/1999/02/22-rdf-syntax-ns#"
   xmlns:svg="http://www.w3.org/2000/svg"
   xmlns="http://www.w3.org/2000/svg"
   xmlns:xlink="http://www.w3.org/1999/xlink"
   xmlns:sodipodi="http://sodipodi.sourceforge.net/DTD/sodipodi-0.dtd"
   xmlns:inkscape="http://www.inkscape.org/namespaces/inkscape"
   viewBox="0 0 96 96"
   id="svg2"
   version="1.1"
   inkscape:version="0.92+devel (unknown)"
   sodipodi:docname="audacity.svg">
  <title
     id="title163">audacity</title>
  <metadata
     id="metadata159">
    <rdf:RDF>
      <cc:Work
         rdf:about="">
        <dc:format>image/svg+xml</dc:format>
        <dc:type
           rdf:resource="http://purl.org/dc/dcmitype/StillImage" />
        <dc:title>audacity</dc:title>
        <dc:subject>
          <rdf:Bag>
            <rdf:li>audacity</rdf:li>
            <rdf:li>audio</rdf:li>
            <rdf:li>audio-editor</rdf:li>
            <rdf:li>sound</rdf:li>
          </rdf:Bag>
        </dc:subject>
        <dc:description>audacity, audio, audio-editor, sound</dc:description>
      </cc:Work>
    </rdf:RDF>
  </metadata>
  <sodipodi:namedview
     pagecolor="#ffffff"
     bordercolor="#666666"
     borderopacity="1"
     objecttolerance="10"
     gridtolerance="10"
     guidetolerance="10"
     inkscape:pageopacity="0"
     inkscape:pageshadow="2"
     inkscape:window-width="1280"
     inkscape:window-height="965"
     id="namedview157"
     showgrid="false"
     inkscape:zoom="22.6274"
     inkscape:cx="75.7778"
     inkscape:cy="31.9017"
     inkscape:window-x="0"
     inkscape:window-y="29"
     inkscape:window-maximized="1"
     inkscape:current-layer="svg2"
     inkscape:document-rotation="0" />
  <defs
     id="defs4">
    <clipPath
       id="clipPath3750">
      <path
         fill="#f00"
         d="m12,6h72a6,6 0 0,1 6,6v72a6,6 0 0,1 -6,6h-72a6,6 0 0,1 -6-6v-72a6,6 0 0,1 6-6"
         id="path7" />
    </clipPath>
    <clipPath
       id="clipPath3613">
      <path
         fill="#fff"
         d="m12,6h72a6,6 0 0,1 6,6v72a6,6 0 0,1 -6,6h-72a6,6 0 0,1 -6-6v-72a6,6 0 0,1 6-6"
         id="path10" />
    </clipPath>
    <filter
       width="1.384"
       x="-.192"
       y="-.192"
       height="1.384"
       color-interpolation-filters="sRGB"
       id="filter3794">
      <feGaussianBlur
         stdDeviation="5.28"
         id="feGaussianBlur13" />
    </filter>
    <filter
       width="1.257"
       x="-.129"
       y="-.112"
       height="1.225"
       color-interpolation-filters="sRGB"
       id="filter3762">
      <feGaussianBlur
         stdDeviation="6.16921"
         id="feGaussianBlur16" />
    </filter>
    <filter
       color-interpolation-filters="sRGB"
       id="filter3680">
      <feGaussianBlur
         stdDeviation=".71784"
         id="feGaussianBlur19" />
    </filter>
    <linearGradient
       id="linearGradient3679"
       xlink:href="#linearGradient3673"
       x1="16.071"
       x2="40.179"
       gradientUnits="userSpaceOnUse" />
    <linearGradient
       id="linearGradient2873"
       xlink:href="#linearGradient3737"
       x1="16.071"
       x2="40.179"
       gradientUnits="userSpaceOnUse" />
    <linearGradient
       gradientTransform="translate(100)"
       id="linearGradient2882"
       xlink:href="#linearGradient3700"
       y1="90"
       y2="5.988"
       x2="0"
       gradientUnits="userSpaceOnUse" />
    <linearGradient
       gradientTransform="translate(100)"
       id="linearGradient3636"
       xlink:href="#linearGradient3630"
       y1="22.033"
       y2="76.054"
       x2="0"
       gradientUnits="userSpaceOnUse" />
    <linearGradient
       gradientTransform="matrix(1.02381 0 0 1.0119 -1.14286 -98.07143)"
       id="linearGradient3780"
       xlink:href="#ButtonShadow-0"
       y1="6.132"
       y2="90.239"
       x2="0"
       gradientUnits="userSpaceOnUse" />
    <linearGradient
       gradientTransform="translate(-96)"
       id="linearGradient3674"
       xlink:href="#linearGradient3668"
       x1="6"
       x2="90"
       gradientUnits="userSpaceOnUse" />
    <linearGradient
       gradientTransform="matrix(1.00587 0 0 .99417 100 0)"
       id="ButtonShadow-0"
       y1="92.54"
       y2="7.017"
       x2="0"
       gradientUnits="userSpaceOnUse">
      <stop
         offset="0"
         id="stop28" />
      <stop
         offset="1"
         stop-opacity=".588"
         id="stop30" />
    </linearGradient>
    <linearGradient
       id="linearGradient3668">
      <stop
         offset="0"
         id="stop33" />
      <stop
         offset="1"
         stop-opacity="0"
         id="stop35" />
    </linearGradient>
    <linearGradient
       id="linearGradient3737">
      <stop
         offset="0"
         stop-color="#fff"
         id="stop38" />
      <stop
         offset="1"
         stop-color="#fff"
         stop-opacity="0"
         id="stop40" />
    </linearGradient>
    <linearGradient
       id="linearGradient3188"
       xlink:href="#linearGradient3737"
       y1="6"
       y2="63.893"
       x2="0"
       gradientUnits="userSpaceOnUse" />
    <linearGradient
       id="linearGradient3630">
      <stop
         offset="0"
         stop-color="#dedede"
         id="stop44" />
      <stop
         offset="1"
         stop-color="#fff"
         id="stop46" />
    </linearGradient>
    <linearGradient
       id="linearGradient3658">
      <stop
         offset="0"
         stop-color="#373795"
         id="stop49" />
      <stop
         offset=".5"
         stop-color="#7343bc"
         id="stop51" />
      <stop
         offset="1"
         stop-color="#c83737"
         id="stop53" />
    </linearGradient>
    <linearGradient
       id="linearGradient3673">
      <stop
         offset="0"
         stop-color="#fea"
         id="stop56" />
      <stop
         offset="1"
         stop-color="#fea"
         stop-opacity="0"
         id="stop58" />
    </linearGradient>
    <linearGradient
       id="linearGradient3700">
      <stop
         offset="0"
         stop-color="#1f1f1f"
         id="stop61" />
      <stop
         offset="1"
         stop-color="#191919"
         id="stop63" />
    </linearGradient>
    <linearGradient
       gradientTransform="translate(0 -97)"
       id="linearGradient3721"
       xlink:href="#ButtonShadow-0"
       y1="6.132"
       y2="90.239"
       x2="0"
       gradientUnits="userSpaceOnUse" />
    <linearGradient
       id="linearGradient3617"
       xlink:href="#linearGradient3658"
       x1="6.571"
       x2="88.899"
       gradientUnits="userSpaceOnUse" />
    <linearGradient
       id="linearGradient3613"
       xlink:href="#linearGradient3737"
       y1="20.221"
       y2="138.661"
       x2="0"
       gradientUnits="userSpaceOnUse" />
    <radialGradient
       cx="48"
       cy="90.172"
       gradientTransform="matrix(1.15731,0,0,0.99591,-7.55102,0.19713)"
       r="42"
       id="radialGradient3619"
       xlink:href="#linearGradient3737"
       gradientUnits="userSpaceOnUse" />
    <radialGradient
       cx="28.125"
       cy="75.058"
       gradientTransform="matrix(1.51482 -0 0 1.10247 -14.47939 -7.79491)"
       r="12.054"
       id="radialGradient2871"
       gradientUnits="userSpaceOnUse">
      <stop
         offset="0"
         stop-color="#f73c00"
         id="stop70" />
      <stop
         offset="1"
         stop-color="#9c0000"
         id="stop72" />
    </radialGradient>
    <radialGradient
       cx="28.125"
       cy="74.095"
       gradientTransform="matrix(1.47292 0 0 1.26382 -13.30085 -19.75014)"
       r="12.054"
       id="radialGradient3691"
       gradientUnits="userSpaceOnUse">
      <stop
         offset="0"
         stop-color="#f73c00"
         id="stop75" />
      <stop
         offset=".713"
         stop-color="#b61100"
         id="stop77" />
      <stop
         offset="1"
         stop-color="#9c0000"
         id="stop79" />
    </radialGradient>
  </defs>
  <path
     opacity=".08"
     fill="url(#linearGradient3780)"
     d="m12-95.0312c-5.5111,0-10.0312,4.5202-10.0312,10.0312v71c0,5.5111 4.5202,10.0312 10.0312,10.0312h72c5.5111,0 10.0312-4.5202 10.0312-10.0312v-71c0-5.5111-4.5202-10.0312-10.0312-10.0312h-72z"
     transform="scale(1 -1)"
     id="path81" />
  <path
     opacity=".1"
     fill="url(#linearGradient3780)"
     d="m12-94.0312c-4.9716,0-9.0312,4.0596-9.0312,9.0312v71c0,4.9716 4.0596,9.0312 9.0312,9.0312h72c4.9716,0 9.0312-4.0596 9.0312-9.0312v-71c0-4.9716-4.0596-9.0312-9.0312-9.0312h-72z"
     transform="scale(1 -1)"
     id="path83" />
  <path
     opacity=".2"
     fill="url(#linearGradient3780)"
     d="m12-93c-4.4091,0-8,3.5909-8,8v71c0,4.4091 3.5909,8 8,8h72c4.4091,0 8-3.5909 8-8v-71c0-4.4091-3.5909-8-8-8h-72z"
     transform="scale(1 -1)"
     id="path85" />
  <path
     opacity=".3"
     fill="url(#linearGradient3780)"
     d="m12-92h72a7,7 0 0,1 7,7v71a7,7 0 0,1 -7,7h-72a7,7 0 0,1 -7-7v-71a7,7 0 0,1 7-7"
     transform="scale(1 -1)"
     id="path87" />
  <path
     opacity=".45"
     fill="url(#linearGradient3721)"
     d="m12-91h72a6,6 0 0,1 6,6v72a6,6 0 0,1 -6,6h-72a6,6 0 0,1 -6-6v-72a6,6 0 0,1 6-6"
     transform="scale(1 -1)"
     id="path89" />
  <path
     fill="url(#linearGradient3617)"
     d="m12,6h72a6,6 0 0,1 6,6v72a6,6 0 0,1 -6,6h-72a6,6 0 0,1 -6-6v-72a6,6 0 0,1 6-6"
     id="path91" />
  <path
     d="M 2.96904,2.34122 C 1.57005,7.08485 0.872604,12.4309 1.02382,19.4695 15.8649,12.6098 49.2718,8.31025 60.8438,14.3437 c 3.9147,2.041 5.3298,8.1936 10.4062,8.25 5.5779,0.4894 11.1878,-0.039 16.7188,-0.7812 C 95.6507,18.1458 95.841,8.66222 93.1582,2.40199 53.5921,2.37298 31.8645,2.47699 2.96904,2.34122 Z M 71.375,72.9063 c -3.2209,-0.034 -6.2995,2.1525 -7.9375,5.25 C 60.527,83.206 53.951,80.9513 50.5625,77.7188 47.2587,73.7541 40.7684,74.3428 37.375,77.875 32.9239,79.8165 28.4749,78.3717 24.3072,76.9562 19.1827,74.6284 13.7148,77.4131 9.5938,80.4175 0.217278,84.7538 1.39671,90.3088 1.03043,94.71 36.3366,95.7157 57.0969,95.1966 94.0001,94.781 94.0591,89.7792 94.5977,84.2253 89.7189,80.906 84.7389,79.4953 80.1851,77.0549 75.7501,74.4372 74.3565,73.391 72.8392,72.9214 71.3751,72.906 Z"
     clip-path="url(#clipPath3750)"
     id="path93"
     inkscape:connector-curvature="0"
     style="opacity:0.6;filter:url(#filter3762)"
     sodipodi:nodetypes="ccscccccccccccccccc" />
  <path
     style="opacity:0.2;fill:url(#linearGradient3188)"
     d="M 12,6 C 8.11425,5.86322 5.41842,9.7916 6,13.4226 6.01817,37.1117 5.96368,60.8028 6.02721,84.4906 5.72403,87.6497 10.5384,90.3041 9.3125,89.2189 6.06848,87.1934 7.07678,83.9338 7,79.918 7.01709,57.4408 6.96584,34.9619 7.02559,12.4857 7.23712,9.18528 10.343,7.80235 13.6597,8.0003 37.2778,8.01738 60.8976,7.96615 84.5146,8.02589 87.815,8.23742 89.4631,11.6969 89,14.66 c -0.023,23.6263 0.047,47.2557 -0.035,70.8801 0.014,2.7384 -4.9497,5.3487 -1.452,3.2815 3.5336,-2.4814 2.2373,-6.9817 2.4873,-10.6151 -0.021,-22.2736 0.041,-44.5493 -0.031,-66.8216 C 89.7162,7.60958 86.7015,5.69483 82.3404,6.0001 58.8936,6.00003 35.4467,6.00023 12,6 Z"
     id="path95"
     inkscape:connector-curvature="0"
     sodipodi:nodetypes="ccccccccccccccc" />
  <path
     style="opacity:0.2;fill:url(#radialGradient3619)"
     d="M 12,90 C 8.11425,90.1368 5.41842,86.2084 6,82.5774 6.01817,58.8883 5.96368,35.1972 6.02721,11.5094 6.08501,7.97055 10.5384,5.69592 9.3125,6.7811 6.06848,8.80663 7.20936,12.9059 7,16.082 7.0171,38.5592 6.9658,61.0381 7.0256,83.5143 c 0.21153,3.3004 2.78712,4.5066 6.6341,4.4854 23.6181,-0.017 47.2379,0.034 70.8549,-0.026 C 87.815,87.7622 89.4631,84.3027 89,81.3396 88.977,57.7133 89.047,34.0839 88.965,10.4595 89.2295,7.59609 84.0153,5.11076 87.513,7.17796 c 3.5336,2.48139 2.2373,6.98174 2.4873,10.61514 -0.021,22.2736 0.041,44.5493 -0.031,66.8216 -0.2037,3.7799 -3.648,5.6127 -7.6288,5.3848 C 58.8936,90 35.4467,89.9998 12,90 Z"
     id="path97"
     inkscape:connector-curvature="0"
     sodipodi:nodetypes="ccccccccccccccc" />
  <path
     fill="url(#linearGradient2882)"
     d="m112,6h72a6,6 0 0,1 6,6v72a6,6 0 0,1 -6,6h-72a6,6 0 0,1 -6-6v-72a6,6 0 0,1 6-6"
     id="path99" />
  <path
     d="m -84,6 72,0 c 3.31371,0 6,2.68629 6,6 l 0,72 c 0,3.3137 -2.68629,6 -6,6 l -72,0 c -3.3137,0 -5.9734,-2.6863 -5.9746,-6 L -90,12 c -0,-3.31371 2.6863,-6 6,-6"
     transform="matrix(0,-1,1,0,0,0)"
     id="path101"
     inkscape:connector-curvature="0"
     style="opacity:0.3;fill:url(#linearGradient3674)"
     sodipodi:nodetypes="csssssssc" />
  <path
     opacity=".1"
     fill="url(#linearGradient3613)"
     filter="url(#filter3794)"
     stroke="#fff"
     stroke-linecap="round"
     stroke-width=".5"
     d="m27,15h42a12,12 0 0,1 12,12v42a12,12 0 0,1 -12,12h-42a12,12 0 0,1 -12-12v-42a12,12 0 0,1 12-12"
     clip-path="url(#clipPath3613)"
     id="path103" />
  <g
     fill="#fff"
     fill-opacity=".45"
     line-height="normal"
     color="#000"
     id="g105">
    <path
       d="m 13.7187,21.1876 c -0.199,1.2345 -0.3296,2.9614 -0.4375,5.0312 -0.2158,4.1397 -0.3041,9.656 -0.375,15.1562 -0.071,5.5003 -0.118,10.9823 -0.3125,15.0938 -0.097,2.0557 -0.2316,3.795 -0.4062,4.9688 -0.07,0.4712 -0.14,0.758 -0.2188,1.0312 -0.316,-0.9352 -0.4721,-2.0511 -0.5628,-2.875 -0.2396,-2.2237 -0.3369,-5.2202 -0.4375,-8.2188 -0.1006,-2.9986 -0.2219,-6.0112 -0.4062,-8.2812 -0.092,-1.135 -0.1798,-2.0819 -0.3438,-2.7812 -0.1553,-0.8723 -0.369,-1.477 -1.156,-1.4376 -0.94764,0.047 -0.96815,0.9451 -1.125,1.7187 C 7.7892,41.4479 7.6743,42.6174 7.5936,44.0312 7.4324,46.8588 7.3718,50.6269 7.2811,54.375 7.1904,58.1231 7.07,61.8672 6.8123,64.6562 6.6835,66.0507 6.5168,67.1953 6.3123,67.9687 6.2475,68.2136 6.1602,68.3433 6.0935,68.4999 6.0627,68.4104 6.0327,68.32 5.9997,68.2187 v 1.6562 h 0.0625 c 0.92121,-0.2399 1.13076,-0.941 1.375,-1.6876 0.2293,-0.8672 0.4003,-2.0508 0.5312,-3.4688 0.262,-2.8359 0.378,-6.5918 0.4688,-10.3438 0.0908,-3.7519 0.153,-7.4839 0.3125,-10.2812 0.0866,-1.1785 0.15924,-2.4341 0.3437,-3.5313 0.1391,0.6131 0.2241,1.5047 0.3125,2.5938 0.1811,2.2299 0.3055,5.2486 0.4062,8.25 0.1007,3.0014 0.1923,6.005 0.4375,8.2812 0.1885,1.7929 0.1579,4.115 1.8124,4.1874 1.9218,0.084 1.5965,-5.475 1.6875,-7.3438 0.1958,-4.1386 0.2416,-9.6565 0.3125,-15.1562 0.071,-5.4997 0.1607,-10.9834 0.375,-15.0938 0.1071,-2.0552 0.2486,-3.7657 0.4375,-4.9375 0.059,-0.3628 0.091,-0.564 0.1562,-0.8125 0.057,0.2104 0.1348,0.5067 0.1875,0.7998 0.1906,1.0605 0.3199,2.4581 0.4375,4.3252 0.2352,3.7342 0.373,8.7195 0.4688,13.7188 0.096,4.9993 0.1879,10.0186 0.375,13.7812 0.093,1.8813 0.1804,3.4408 0.3438,4.5625 0.1063,1.1223 0.3014,2.1168 1.1875,2.1564 1.4667,0.066 1.4878,-1.9791 1.6876,-3.0937 0.2256,-1.6251 0.2906,-3.7497 0.4062,-5.875 0.1156,-2.1253 0.2301,-4.2487 0.4375,-5.8125 0.1037,-0.7819 0.2601,-1.4377 0.4062,-1.8438 0.049,0.1577 0.1109,0.2668 0.1562,0.5 0.1533,0.7887 0.2554,1.9681 0.3438,3.375 0.1766,2.8138 0.263,6.5777 0.3438,10.3438 0.081,3.766 0.1356,7.5197 0.375,10.3438 0.1197,1.412 0.3136,2.5858 0.5312,3.4375 0.1914,1.0547 0.5106,1.6633 1.4062,1.625 1.1137,-0.048 1.1236,-1.4572 1.3125,-2.3438 0.2225,-1.224 0.4083,-2.9124 0.5312,-4.9375 0.2459,-4.0503 0.3041,-9.3973 0.375,-14.75 0.071,-5.3527 0.1477,-10.7136 0.3125,-14.7188 0.082,-2.0026 0.1907,-3.6616 0.3438,-4.8125 0.014,-0.1089 0.016,-0.1505 0.031,-0.25 0.019,0.1251 0.076,0.1723 0.094,0.3125 0.1567,1.2257 0.2625,3.0041 0.3438,5.1562 0.1625,4.3044 0.189,10.0772 0.25,15.8438 0.061,5.7666 0.163,11.5422 0.4062,15.875 0.1216,2.1664 0.2744,3.9633 0.5,5.25 0.1772,1.244 0.3546,2.4178 1.4375,2.375 1.1695,-0.046 1.1787,-1.1541 1.4062,-2 0.2306,-1.0356 0.4137,-2.4553 0.5312,-4.1562 0.2351,-3.4019 0.2665,-7.8818 0.3125,-12.375 0.046,-4.4932 0.087,-8.9949 0.25,-12.3438 0.079,-1.6338 0.2341,-3.288 0.5312,-4.8125 0.3651,0.7013 0.4789,1.6793 0.5625,2.3437 0.2261,1.8342 0.3468,4.3213 0.4375,6.8125 0.091,2.4912 0.1509,4.9995 0.3438,6.9062 0.154,1.6098 0.1041,3.5222 1.5625,3.625 1.9629,0.1384 1.6012,-4.0976 1.7187,-5.7187 0.2262,-3.1983 0.3269,-7.4605 0.4375,-11.7188 0.1106,-4.2582 0.2334,-8.5052 0.4375,-11.6875 0.1021,-1.5912 0.2467,-2.9433 0.4062,-3.8438 0.013,-0.072 0.018,-0.09 0.031,-0.1562 0.025,0.1237 0.039,0.169 0.062,0.3125 0.1619,1.0042 0.3083,2.4824 0.4062,4.25 0.196,3.5351 0.279,8.2602 0.375,13 0.096,4.7398 0.2105,9.5074 0.4375,13.0938 0.1052,2.3396 0.2708,6.4267 1.7812,6.4688 2.4414,0.068 1.9054,-8.0801 1.9686,-10.8437 0.2607,-3.4141 0.1106,-9.9911 1,-10.0938 0.018,-0.023 0.023,-0.021 0.031,-0.031 0.01,0.01 0.017,-0.01 0.031,0 1.5554,-0.1401 0.1546,12.665 2.9062,12.9687 1.1657,-0.011 1.5691,-3.112 1.6876,-4.5312 0.7276,-3.8121 -0.2908,-19.8114 1.2501,-21.0312 0.7715,0.3818 0.9061,13.3825 0.9999,19.0626 0.081,5 0.1353,10.0162 0.3438,13.7812 0.1042,1.8825 0.2492,3.4366 0.4375,4.5625 0.1485,1.1618 0.2961,2.1435 1.2813,2.1563 1.2178,0.016 1.1605,-1.6476 1.3438,-2.5937 0.2034,-1.407 0.3483,-3.4114 0.4688,-5.7812 0.2409,-4.7396 0.4964,-11.0302 0.4062,-17.3125 -0.1109,-7.7204 -0.086,-21.5841 0.844,-22.2812 0.6945,0.6415 0.7539,28.6375 1.3438,43.1875 0.1048,2.5109 0.2385,4.6217 0.4062,6.0938 0.1149,1.3471 0.08,2.6114 1.25,2.6875 0.9553,0.062 0.9626,-1.156 1.1249,-1.9375 0.1741,-0.9691 0.3279,-2.3074 0.4375,-3.9062 0.2192,-3.1977 0.3142,-7.428 0.4375,-11.6562 0.4354,-5.4218 -0.081,-10.9176 1.0312,-15.9374 0.5537,2.9032 0.5927,6.1954 0.6875,8.875 0.088,2.5123 0.2032,5.0485 0.4375,6.9688 0.1172,0.9601 0.2509,1.7632 0.4688,2.375 0.1089,0.3059 0.251,0.5593 0.4375,0.7812 0.1865,0.222 0.493,0.4375 0.875,0.4375 0.442,0 0.7602,-0.2673 0.9375,-0.5312 0.1773,-0.264 0.2687,-0.5875 0.375,-0.9688 0.2127,-0.7624 0.3585,-1.7998 0.4688,-3.0312 0.2205,-2.4629 0.308,-5.7181 0.375,-8.9688 0.067,-3.2506 0.1242,-6.4915 0.3125,-8.9062 0.094,-1.2074 0.2096,-2.2117 0.375,-2.875 0.041,-0.1637 0.051,-0.2263 0.094,-0.3438 0.064,0.1818 0.1284,0.3366 0.1875,0.625 0.1767,0.8621 0.3404,2.1501 0.4375,3.6875 0.1942,3.0748 0.2212,7.1873 0.2812,11.3125 0.06,4.1252 0.1642,8.2612 0.375,11.375 0.1054,1.5569 0.233,2.8683 0.4375,3.8125 0.1023,0.4721 0.2124,0.847 0.375,1.1562 0.081,0.1546 0.1671,0.2796 0.3125,0.4062 0.1454,0.1266 0.3661,0.25 0.625,0.25 0.2756,0 0.5106,-0.1137 0.6562,-0.25 0.1456,-0.1363 0.2616,-0.3007 0.3438,-0.4688 0.1643,-0.3362 0.2695,-0.7557 0.375,-1.2812 0.211,-1.051 0.3609,-2.5063 0.4688,-4.25 0.2157,-3.4875 0.2909,-8.1246 0.3438,-12.75 0.053,-4.6254 0.096,-9.2356 0.2812,-12.6875 0.093,-1.726 0.2305,-3.1808 0.4062,-4.1562 0.059,-0.3286 0.1221,-0.5087 0.1875,-0.7188 0.046,0.1266 0.082,0.2017 0.125,0.375 0.1791,0.7192 0.3319,1.7925 0.4375,3.0938 0.2111,2.6025 0.3009,6.094 0.375,9.5938 0.074,3.4997 0.112,7.01 0.3125,9.6562 0.1003,1.3231 0.2469,2.4398 0.4375,3.25 0.095,0.4051 0.1878,0.7252 0.3438,1 0.078,0.1374 0.1708,0.2605 0.3125,0.375 0.1417,0.1145 0.3544,0.2188 0.5938,0.2188 0.3514,0 0.6629,-0.1778 0.8438,-0.375 0.1809,-0.1972 0.3019,-0.4235 0.4062,-0.6875 0.2088,-0.5279 0.352,-1.2177 0.4688,-2.0312 0.2336,-1.6271 0.3595,-3.749 0.4688,-5.875 0.1093,-2.126 0.1781,-4.2481 0.375,-5.8125 0.099,-0.7822 0.2327,-1.4374 0.375,-1.8438 0.016,-0.045 0.015,-0.055 0.031,-0.094 0.041,0.097 0.1158,0.1407 0.1562,0.2812 0.1589,0.5517 0.2689,1.3872 0.375,2.4062 0.2122,2.038 0.3283,4.8125 0.4375,7.5625 0.1092,2.75 0.2203,5.4755 0.4375,7.5625 0.1086,1.0435 0.2186,1.9423 0.4062,2.5938 0.094,0.3257 0.1876,0.5796 0.3438,0.8125 0.1562,0.2329 0.4539,0.5 0.875,0.5 0.2441,0 0.4878,-0.1036 0.625,-0.2188 0.1372,-0.1152 0.2059,-0.2388 0.2812,-0.375 0.1507,-0.2724 0.2795,-0.5959 0.375,-1 0.191,-0.8081 0.3267,-1.9273 0.4375,-3.25 0.2217,-2.6454 0.3041,-6.156 0.4062,-9.6562 0.1022,-3.5003 0.2018,-6.9879 0.4062,-9.5938 0.1022,-1.3029 0.2449,-2.3687 0.4062,-3.0938 0.013,-0.058 0.018,-0.072 0.031,-0.125 0.039,0.1678 0.059,0.2531 0.094,0.4688 0.1585,0.9787 0.2917,2.4294 0.375,4.1562 0.1665,3.4538 0.2212,8.0614 0.2812,12.6875 0.06,4.6261 0.1361,9.2615 0.375,12.75 0.1195,1.7443 0.2747,3.1975 0.5,4.25 0.1126,0.5263 0.2327,0.9439 0.4062,1.2812 0.087,0.1687 0.193,0.334 0.3438,0.4688 0.1507,0.1347 0.3848,0.25 0.6562,0.25 V 70.5313 C 89.91,70.3159 89.7993,70.0733 89.7168,69.6875 89.509,68.7166 89.3662,67.287 89.248,65.5625 89.0118,62.1135 88.933,57.4989 88.873,52.875 c -0.06,-4.6239 -0.1133,-9.2663 -0.2812,-12.75 -0.084,-1.7419 -0.2058,-3.174 -0.375,-4.2188 -0.085,-0.5224 -0.1804,-0.9518 -0.3125,-1.2812 -0.066,-0.1647 -0.1264,-0.2976 -0.25,-0.4375 -0.1236,-0.1399 -0.3561,-0.3125 -0.6562,-0.3125 -0.2498,0 -0.4617,0.1017 -0.5938,0.2188 -0.1321,0.117 -0.2416,0.2708 -0.3125,0.4062 -0.1417,0.271 -0.2228,0.5969 -0.3125,1 -0.1794,0.8062 -0.3025,1.8967 -0.4062,3.2188 -0.2074,2.6442 -0.3041,6.1565 -0.4062,9.6562 -0.1022,3.4997 -0.188,6.9892 -0.4062,9.5938 -0.1091,1.3023 -0.2666,2.3706 -0.4375,3.0938 -0.048,0.2028 -0.1064,0.2985 -0.1562,0.4375 -0.027,-0.073 -0.037,-0.097 -0.062,-0.1875 -0.1589,-0.5517 -0.3002,-1.3872 -0.4062,-2.4062 -0.2121,-2.038 -0.3283,-4.7812 -0.4375,-7.5312 -0.1092,-2.75 -0.2203,-5.5068 -0.4375,-7.5938 -0.1086,-1.0435 -0.1874,-1.9423 -0.375,-2.5938 -0.094,-0.3257 -0.2188,-0.5796 -0.375,-0.8125 -0.1562,-0.2329 -0.4539,-0.5 -0.875,-0.5 -0.361,0 -0.6189,0.2079 -0.7812,0.4062 -0.1623,0.1984 -0.2834,0.4258 -0.375,0.6875 -0.1832,0.5233 -0.3353,1.1884 -0.4375,2 -0.2043,1.6231 -0.2658,3.751 -0.375,5.875 -0.1092,2.124 -0.2448,4.2521 -0.4688,5.8125 -0.112,0.7802 -0.2474,1.442 -0.4062,1.8438 -0.034,0.087 -0.092,0.095 -0.125,0.1562 -0.065,-0.1506 -0.092,-0.3209 -0.1562,-0.5938 -0.1696,-0.7211 -0.3076,-1.7919 -0.4062,-3.0938 -0.1973,-2.6038 -0.2384,-6.0935 -0.3125,-9.5938 -0.074,-3.5003 -0.1602,-7.0087 -0.375,-9.6562 -0.1074,-1.3237 -0.2666,-2.4379 -0.4688,-3.25 -0.1011,-0.406 -0.2102,-0.7241 -0.375,-1 -0.082,-0.1379 -0.1663,-0.2625 -0.3125,-0.375 -0.1462,-0.1125 -0.3898,-0.2188 -0.625,-0.2188 -0.286,0 -0.4899,0.1427 -0.625,0.2812 -0.1351,0.1385 -0.2386,0.3021 -0.3125,0.4688 -0.1479,0.3332 -0.2494,0.726 -0.3438,1.25 -0.1888,1.048 -0.3125,2.5072 -0.4062,4.25 -0.1876,3.4856 -0.2284,8.1254 -0.2812,12.75 -0.053,4.6246 -0.1304,9.2375 -0.3438,12.6875 -0.1067,1.725 -0.2735,3.1526 -0.4688,4.125 -0.073,0.3614 -0.1402,0.5983 -0.2188,0.8125 -0.066,-0.1807 -0.1254,-0.3382 -0.1875,-0.625 -0.1864,-0.8605 -0.3022,-2.1506 -0.4062,-3.6875 -0.2081,-3.0737 -0.315,-7.1877 -0.375,-11.3125 -0.06,-4.1248 -0.085,-8.2623 -0.2812,-11.375 -0.098,-1.5563 -0.2443,-2.8387 -0.4375,-3.7812 -0.097,-0.4713 -0.1897,-0.8483 -0.3438,-1.1562 -0.077,-0.154 -0.1721,-0.3094 -0.3125,-0.4375 -0.1404,-0.1281 -0.3927,-0.25 -0.6562,-0.25 -0.2275,0 -0.4189,0.079 -0.5625,0.1875 -0.1436,0.1081 -0.2329,0.2438 -0.3125,0.375 -0.1593,0.2624 -0.2805,0.5582 -0.375,0.9375 -0.1891,0.7585 -0.3103,1.8011 -0.4062,3.0312 -0.1919,2.4602 -0.2455,5.7194 -0.3125,8.9688 -0.067,3.2494 -0.1591,6.4942 -0.375,8.9062 -0.108,1.206 -0.2535,2.2155 -0.4375,2.875 -0.076,0.272 -0.1781,0.4302 -0.25,0.5625 -0.057,-0.092 -0.062,-0.166 -0.125,-0.3438 -0.1749,-0.4911 -0.3554,-1.2587 -0.4688,-2.1875 -0.2267,-1.8577 -0.3182,-4.3963 -0.4062,-6.9062 -0.2707,-2.4574 0.2506,-10.3638 -1.8765,-10.4061 -2.1267,0.055 -1.572,4.2018 -1.6859,5.8437 -0.2193,3.1965 -0.3142,7.428 -0.4375,11.6562 -0.1233,4.2283 -0.2516,8.4261 -0.4688,11.5938 -0.1051,1.5324 -0.2819,2.7848 -0.4375,3.6875 -0.031,-0.2097 -0.034,-0.3111 -0.062,-0.5625 -0.163,-1.4295 -0.3019,-3.5299 -0.4063,-6.0312 -0.2089,-5.0027 -0.3211,-11.7097 -0.4375,-18.4375 -0.317,-5.2021 0.4003,-27.0359 -2.0001,-27.719 -2.175,0.5253 -1.9544,18.2184 -2.0624,25.2808 -0.096,6.2809 -0.1666,12.5671 -0.4062,17.2812 -0.1198,2.3571 -0.2731,4.3345 -0.4688,5.6875 -0.061,0.4238 -0.1509,0.6451 -0.2188,0.9375 -0.042,-0.1795 -0.087,-0.2718 -0.125,-0.5 -0.1776,-1.0616 -0.3028,-2.6325 -0.4062,-4.5 -0.2068,-3.735 -0.2939,-8.7188 -0.375,-13.7188 -0.081,-5 -0.1665,-10.0162 -0.375,-13.7812 -0.2848,-1.9847 -0.016,-6.8332 -1.6875,-6.7188 -1.5877,-0.1313 -1.6504,3.0692 -1.7812,4.5312 -0.2151,2.4617 -0.2697,5.7184 -0.3438,8.9688 -0.074,3.2503 -0.1467,6.4916 -0.3438,8.9062 -0.8648,9.1829 -1.4195,-6.0361 -1.6876,-7.0312 -0.1944,-1.3236 -0.6891,-2.325 -1.8749,-2.3751 -3.174,0.2777 -1.4373,19.9711 -2.8751,20.6873 -1.4064,-0.7811 -0.9435,-20.9575 -1.4999,-31.2811 -0.099,-1.7816 -0.2032,-3.2784 -0.375,-4.3438 -0.086,-0.5327 -0.1856,-0.9493 -0.3125,-1.2812 -0.064,-0.166 -0.1335,-0.328 -0.25,-0.4688 -0.1165,-0.1407 -0.341,-0.3125 -0.6562,-0.3125 -0.2971,0 -0.5381,0.1483 -0.6562,0.2812 -0.1182,0.133 -0.1866,0.284 -0.25,0.4375 -0.1269,0.307 -0.1957,0.7048 -0.2812,1.1875 -0.1711,0.9654 -0.3032,2.3 -0.4062,3.9062 -0.2061,3.2124 -0.3269,7.4612 -0.4375,11.7188 -0.1106,4.2575 -0.2137,8.5226 -0.4375,11.6875 -0.217,2.3174 -0.481,5.7846 -0.9684,2.0629 -0.1876,-1.8547 -0.253,-4.3502 -0.3438,-6.8438 -0.091,-2.4936 -0.2037,-4.9782 -0.4375,-6.875 -0.1169,-0.9484 -0.2526,-1.7396 -0.4688,-2.3438 -0.2316,-0.7536 -0.5678,-1.2606 -1.3125,-1.2187 -1.0125,0.2493 -1.076,1.1412 -1.2499,1.9687 -0.175,1.0168 -0.2926,2.4343 -0.375,4.125 -0.1649,3.3814 -0.204,7.8528 -0.25,12.3438 -0.046,4.491 -0.08,8.9838 -0.3125,12.3438 -0.1161,1.68 -0.3196,3.0808 -0.5312,4.0312 -0.2337,1.3298 -0.4016,0.3085 -0.5625,-0.3437 -0.2137,-1.2185 -0.348,-3.006 -0.4688,-5.1562 -0.2414,-4.3004 -0.3453,-10.0479 -0.4062,-15.8125 -0.061,-5.7646 -0.087,-11.5471 -0.25,-15.875 -0.082,-2.164 -0.1803,-3.9399 -0.3438,-5.2188 -0.082,-0.6394 -0.2212,-1.1489 -0.3438,-1.5312 -0.061,-0.1912 -0.1058,-0.375 -0.2188,-0.5312 -0.1129,-0.1562 -0.3593,-0.3644 -0.7188,-0.3438 -0.3456,0.02 -0.5518,0.2247 -0.6562,0.375 -0.1045,0.1503 -0.1593,0.3161 -0.2188,0.5 -0.1189,0.3677 -0.2012,0.8353 -0.2812,1.4375 -0.1602,1.2045 -0.2608,2.8916 -0.3438,4.9062 -0.1658,4.0293 -0.2417,9.3682 -0.3125,14.7188 -0.071,5.3505 -0.1311,10.7019 -0.375,14.7188 -0.1219,2.0084 -0.3211,3.6878 -0.5312,4.8438 -0.095,0.5225 -0.1772,0.9129 -0.2812,1.1875 -0.063,-0.1492 -0.1258,-0.2585 -0.1875,-0.5 -0.1933,-0.7564 -0.351,-1.9232 -0.4688,-3.3125 -0.2355,-2.7786 -0.2943,-6.5175 -0.375,-10.2812 -0.081,-3.7637 -0.1649,-7.5578 -0.3438,-10.4062 -0.089,-1.4242 -0.207,-2.6047 -0.375,-3.4688 -0.084,-0.432 -0.1783,-0.7774 -0.3125,-1.0625 -0.067,-0.1426 -0.1534,-0.2819 -0.2812,-0.4062 -0.1279,-0.1244 -0.3598,-0.25 -0.625,-0.25 -0.3598,0 -0.6476,0.2085 -0.8125,0.4062 -0.1649,0.1978 -0.2807,0.4257 -0.375,0.6875 -0.1885,0.5236 -0.2674,1.1882 -0.375,2 -0.2153,1.6237 -0.3844,3.7503 -0.5,5.875 -0.1156,2.1247 -0.1893,4.2501 -0.4062,5.8125 -0.101,0.7276 -0.2353,1.3118 -0.375,1.7188 -0.057,-0.2327 -0.1363,-0.4297 -0.1875,-0.7812 -0.1552,-1.0658 -0.2508,-2.6313 -0.3438,-4.5 -0.1858,-3.7373 -0.2793,-8.718 -0.375,-13.7188 -0.096,-5.0007 -0.2316,-10.0154 -0.4688,-13.7812 -0.1186,-1.8829 -0.2662,-3.4355 -0.4688,-4.5625 -0.1447,-1.1682 -0.625,-2.1435 -1.3251,-2.1244 -0.6147,0.017 -1.1217,1.3922 -1.2997,2.281 z"
       id="path107"
       inkscape:connector-curvature="0"
       sodipodi:nodetypes="cssccccsccsccsccccccccscccscscsccccscccscsscccsscsccssccccsscsccscccscscscccccscsccccccccccsccscccscsccccccscccsccccssscsssscscccccccccssssscssccccssscsssccccsccccsccccccccscscssccsscsccccsscsscccssccccssccssscscssccccscccssscccsccccccccscccccccssccsscccscccccsccsccccsccssccccssccccsccccccccscccccscccsscccsccccsscsc" />
    <path
       opacity=".1"
       d="m 11.3748,26.125 c -0.1696,3.2534 -0.2163,7.5943 -0.2812,11.8125 -0.503,-0.6819 -1.40305,-1.0387 -2.0312,-0.9687 -2.32673,0.2594 -2.77947,2.0565 -3.0626,3.9999 v 30.8125 c 0.0208,-1e-4 0.0433,5e-4 0.0625,0 3.35798,-0.9947 3.55328,-4.1517 3.8125,-6.9052 3.8441,2.3019 5.2802,-2.1946 5.4999,-5.1874 1.207,2.2081 2.8343,2.4013 4.6562,1.25 0.412,4.2117 -1.2713,13.0487 4.25,13.8437 1.2057,-0.1825 1.875,-0.8961 2.4062,-1.8125 0.035,0.24 0.055,0.6235 0.094,0.8438 0.2704,1.9765 1.291,4.0168 3.375,3.9687 5.4246,-2.8367 3.9126,-12.1702 3.9688,-16.8437 1.6297,1.3985 3.6171,0.5578 4.5312,-0.9374 0.1488,2.7487 1.707,5.6234 3.4086,5.7813 2.9799,0.2765 3.6312,-5.7244 3.7477,-9 1.5181,1.4075 3.1678,0.9412 4.4375,-0.125 0.2502,3.6657 -0.9011,14.8644 3.7812,15.125 1.5125,-0.2072 2.2364,-0.9301 2.7812,-2.25 0.1069,3.0803 1.3336,6.2519 3.4376,6.25 4.1544,-0 3.4675,-10.7686 3.5937,-15.0313 1.5669,1.3748 3.0134,1.1645 4.4687,-0.125 0.2384,3.442 1.2843,7.9987 3.6872,8.1563 3.4163,0.2241 3.7253,-6.6257 3.8119,-10.125 1.9138,1.263 3.3345,0.908 4.625,-0.2188 0.1353,2.576 0.6227,6.2787 3.5623,6.3438 0.9847,-0.049 1.583,-0.4996 2.125,-1.0625 0.2321,3.6593 -0.3165,9.3049 3.8745,10.0625 v -38.5 c -0.252,-1.7219 -1.3047,-3.2782 -3.0001,-3.3126 -1.9201,0.2139 -2.6509,1.4089 -3.0626,3.125 -0.2949,1.5849 -0.4374,2.7414 -0.4998,4.1876 -1.5336,-1.5447 -2.8554,-1.5938 -4.5313,-0.3437 -0.059,-1.8486 -0.096,-3.8638 -0.2188,-5.375 -0.237,-3.1516 -0.5187,-6.4581 -3.6874,-6.5937 -3.076,-0.1316 -3.1419,3.3498 -3.3438,5.75 -0.5469,-1.1212 -1.6164,-1.7256 -2.6563,-1.75 -1.8777,-0.044 -2.5584,1.4042 -3.0938,2.9375 -0.3333,1.6116 -0.4625,2.8316 -0.4998,4.3438 -1.3811,-1.4168 -3.4162,-1.1707 -4.4995,-0.2812 -0.03,0.036 -0.035,0.058 -0.062,0.094 -0.078,-3.4847 -0.1274,-7.3284 -0.25,-10.125 -0.1391,-3.6544 -0.4671,-10.789 -3.5643,-10.9079 -2.8873,-0.1108 -3.3443,6.7887 -3.467,9.8764 -0.018,0.4697 -0.015,1.2195 -0.031,1.7188 -0.4251,-0.9585 -1.5998,-1.7071 -2.5,-1.6562 -1.8504,0.1047 -2.6067,1.5411 -3.1562,2.9376 -0.8058,3.5447 -0.7394,7.4466 -0.8124,10.7813 -1.5286,-1.0691 -2.9287,-0.6833 -4.2187,0.3438 -0.081,-3.5141 -0.1614,-7.1189 -0.3125,-9.8438 -0.1,-2.9018 -0.5458,-8.0562 -3.4999,-8.2187 -3.4845,1.1768 -3.3144,4.7844 -3.5001,7.5939 -0.1331,2.0743 -0.2003,4.8518 -0.2812,7.4688 -0.4567,-0.5079 -1.1906,-1.0625 -2.2188,-1.0625 -1.2056,0.1105 -1.8843,0.6546 -2.4687,1.5312 -0.2564,-2.9041 0.1872,-11.5646 -3.6561,-11.5312 -3.9083,0.034 -3.3471,10.4812 -3.4376,14.5314 -1.2176,-1.6241 -2.7047,-1.7556 -4.25,-0.8124 -0.1455,-5.0108 -0.2081,-10.4525 -0.4998,-15.2188 -0.5847,-2.9323 -0.011,-8.4284 -3.8045,-8.105 -3.7931,0.3235 -3.3939,5.82 -3.5394,8.7591 z"
       id="path109"
       inkscape:connector-curvature="0"
       sodipodi:nodetypes="ccsccccccccccccsccccsccscccccccccccscscccccsccscccccccccsccccc" />
    <path
       opacity=".25"
       d="m 15.0312,18.0938 c -2.3457,0.2726 -2.4171,5.9298 -2.5312,8.0938 -0.2171,4.1645 -0.3041,9.6856 -0.375,15.1875 -0.057,4.4636 -0.133,8.5175 -0.25,12.2188 -0.03,-0.8091 -0.097,-1.4226 -0.125,-2.25 -0.1008,-3.002 -0.2196,-6.0146 -0.4062,-8.3125 -0.1596,-2.225 -0.1883,-4.2788 -2.2813,-4.9374 -2.48283,0.6182 -2.14226,4.0761 -2.2499,5.9062 -0.1628,2.8557 -0.2219,6.5999 -0.3125,10.3438 -0.0906,3.744 -0.2149,7.5022 -0.4688,10.25 -0.01,0.1065 -0.021,0.1787 -0.0312,0.2812 v 5.7812 h 0.0625 c 2.42576,-0.4834 2.50841,-3.9237 2.6875,-5.8751 0.2578,-2.791 0.3791,-6.4203 0.4688,-10.0625 0.0721,1.7598 0.0978,3.6502 0.25,5.0625 0.19669,2.3261 0.5904,4.1448 2.5936,4.875 2.9943,-0.962 2.3658,-5.972 2.4688,-8.0938 0.1971,-4.1654 0.2417,-9.6901 0.3125,-15.1875 0.045,-3.5019 0.1624,-6.4622 0.25,-9.5938 0.089,2.5524 0.1968,4.8164 0.25,7.5938 0.096,4.9989 0.1868,10.0283 0.375,13.8125 0.2044,2.8224 -0.3023,6.3395 2.3126,7.4687 1.9723,-0.338 2.1747,-2.1978 2.4687,-3.7812 0.1995,-1.4373 0.2556,-3.2452 0.3438,-5.0312 0.061,1.9023 0.1432,3.5911 0.1875,5.6562 0.081,3.7625 0.1316,7.5032 0.375,10.375 0.6026,2.5983 0.2914,5.2217 2.7813,5.7813 2.8632,-1.1658 2.4249,-5.8051 2.5624,-8 0.1731,-2.8519 0.1932,-6.6875 0.25,-10.3438 0.065,4.6681 0.1442,9.4145 0.3438,12.9688 0.3702,2.9431 -0.3316,7.4124 2.75,8.3751 2.746,-0.6938 2.5449,-4.8746 2.6875,-6.875 0.2381,-3.4439 0.2665,-7.9459 0.3125,-12.4375 0.032,-3.1481 0.1168,-5.8786 0.1875,-8.625 0.01,0.2406 0.023,0.4149 0.031,0.6562 0.09,2.4848 0.1457,4.9791 0.3438,6.9375 0.1673,2.1302 0.6854,4.2232 2.3125,4.3438 2.6813,-0.5687 2.3943,-4.5566 2.5314,-6.4376 0.2285,-3.2305 0.3269,-7.493 0.4375,-11.75 0.014,-0.5593 0.047,-0.9749 0.062,-1.5312 0.026,1.2182 0.069,2.164 0.094,3.4062 0.096,4.7417 0.2088,9.5118 0.4375,13.125 0.2941,2.5901 -0.2125,6.2273 2.4062,7.1875 2.2733,-0.3269 2.4166,-2.5861 2.5938,-4.3438 0.2038,-2.0308 0.2525,-4.626 0.3125,-7.25 0.052,-2.2952 0.1378,-4.4397 0.2812,-6.25 0.041,0.7021 0.1001,1.2617 0.125,2.0312 0.053,1.6389 0.1081,3.3056 0.3125,4.6562 0.2398,1.7765 0.8341,2.7531 2.4687,3.1564 2.227,-0.3725 2.324,-3.4817 2.4687,-5.25 0.2041,-2.5013 0.2697,-5.7512 0.3438,-9 0.017,-0.7327 0.045,-1.2785 0.062,-2 0.099,2.9079 0.2282,5.6949 0.2812,8.9688 0.081,4.9972 0.1336,10.0169 0.3438,13.8125 0.3141,2.7245 -0.2401,7.3006 2.5,7.4687 3.1265,-0.077 2.4744,-6.8025 2.5938,-9.1249 0.2423,-4.7669 0.3103,-11.0638 0.4062,-17.3438 0.015,-0.9727 0.047,-1.691 0.062,-2.6562 0.036,1.8269 0.093,3.2647 0.125,5.125 0.1164,6.7272 0.2271,13.4296 0.4375,18.4688 0.1488,3.3243 -0.4839,8.985 2.4999,9.5312 2.4708,-0.9347 2.1464,-4.6492 2.2813,-6.5626 0.2214,-3.229 0.3143,-7.4627 0.4375,-11.6875 0.062,-2.1197 0.1752,-3.8301 0.25,-5.8125 0.083,2.0624 0.146,4.1605 0.3438,5.7812 0.2187,2.1317 0.6802,3.6772 2.5625,4.2812 2.412,-0.5744 2.3913,-3.3721 2.5626,-5.25 0.2243,-2.5052 0.3079,-5.7461 0.375,-9 0,-0.2291 0.027,-0.3963 0.031,-0.625 0.023,1.4465 0.072,2.5912 0.094,4.0938 0.06,4.1308 0.1623,8.2948 0.375,11.4375 0.2406,2.54 0.01,5.5507 2.5313,6.3437 2.82,-0.6906 2.4956,-4.9313 2.625,-6.9689 0.2176,-3.5187 0.2909,-8.1846 0.3438,-12.8125 0.029,-2.5246 0.1087,-4.5828 0.1562,-6.9062 0.023,0.8749 0.075,1.546 0.094,2.4375 0.074,3.4943 0.1087,6.9971 0.3125,9.6875 0.476,2.4081 0.2012,4.8834 2.4688,5.5625 1.8796,-0.2467 2.2189,-2.2074 2.4999,-3.75 0.2415,-1.6822 0.3593,-3.8387 0.4688,-5.9688 0.01,-0.1279 0.025,-0.2161 0.031,-0.3438 0.048,1.0046 0.1149,1.8017 0.1562,2.8438 0.1092,2.7505 0.2159,5.496 0.4375,7.625 0.1653,2.2692 0.4652,3.8864 2.4062,4.5938 2.3389,-0.388 2.3486,-3.7236 2.5001,-5.5625 0.2004,-2.3919 0.2864,-5.5167 0.375,-8.625 0.018,1.2194 0.046,2.1612 0.062,3.4062 0.06,4.6279 0.1337,9.2884 0.375,12.8125 0.407,2.7088 0,5.9609 2.6875,6.9689 v -7.7188 c -0.2073,-3.3504 -0.2869,-7.677 -0.3438,-12.0625 -0.06,-4.6231 -0.1121,-9.2723 -0.2812,-12.7812 -0.2445,-2.6846 0.215,-6.0625 -2.375,-7 -2.3122,0.4259 -2.2643,3.7109 -2.4063,5.5625 -0.2101,2.6788 -0.3041,6.1887 -0.4062,9.6875 -0.055,1.877 -0.1507,3.3969 -0.2188,5.125 -0.034,-0.7634 -0.094,-1.343 -0.125,-2.125 -0.3782,-3.6575 0.1273,-12.3098 -2.8437,-12.25 -2.5349,0.021 -2.5997,6.7443 -2.75,9.7187 -0.022,0.4281 -0.069,0.7331 -0.094,1.1562 -0.2992,-5.52 -0.1676,-10.8764 -0.5938,-16.3125 -0.236,-2.3398 -0.2368,-4.9492 -2.5626,-5.5626 -2.7959,0.8074 -2.3574,4.9821 -2.4688,7 -0.1893,3.5164 -0.2285,8.158 -0.2812,12.7812 -0.035,3.043 -0.1312,5.617 -0.2188,8.3125 -0.073,-2.1184 -0.1851,-4.0013 -0.2188,-6.3125 -0.06,-4.1203 -0.082,-8.2858 -0.2812,-11.4375 -0.2527,-2.5412 0,-5.5751 -2.5313,-6.3438 -2.3545,0.4549 -2.3006,3.5272 -2.4375,5.25 -0.1951,2.502 -0.2455,5.7528 -0.3125,9 -0.05,2.4226 -0.1635,4.5687 -0.2812,6.625 -0.07,-1.2555 -0.1709,-2.3552 -0.2188,-3.7188 -0.088,-2.5116 -0.1797,-5.002 -0.375,-6.9375 -0.1539,-2.1787 -0.2053,-4.2696 -2.5,-4.2188 -2.6448,0.059 -2.1187,4.6804 -2.2501,6.5626 -0.2214,3.2279 -0.3143,7.4627 -0.4375,11.6875 -0.077,-3.2543 -0.1885,-6.1661 -0.25,-9.7188 -0.2181,-4.5098 1.2085,-28.446 -2.7813,-28.4687 -4.4875,-0.025 -2.7666,20.9825 -2.8438,26.0313 -0.063,4.1432 -0.1845,7.6892 -0.2812,11.375 -0.05,-2.1364 -0.1196,-3.9276 -0.1562,-6.1875 -0.1986,-4.1348 0.6637,-21.5541 -2.8416,-21.2812 -3.5105,-0.025 -2.8238,10.6001 -2.9063,14.2499 -0.047,2.0488 -0.1422,3.7686 -0.2188,5.5938 -0.1239,-2.7429 -0.046,-6.9064 -2.9687,-6.8438 -2.9587,0.1822 -2.7311,8.3359 -2.8126,11.875 0,0.1959 -0.027,0.3359 -0.031,0.5312 -0.1104,-2.9258 -0.2132,-5.8575 -0.2812,-9.2188 -0.096,-4.7408 -0.2075,-9.4464 -0.4062,-13.0312 -0.468,-2.7718 0.2253,-6.2379 -2.375,-7.1563 -2.553,0.5951 -2.2461,4.488 -2.375,6.5313 -0.2076,3.2367 -0.3268,7.4912 -0.4375,11.75 -0.059,2.2604 -0.1453,4.0946 -0.2188,6.1875 -0.086,-2.2339 -0.1909,-4.472 -0.4062,-6.2188 -0.2209,-2.1221 -0.6949,-3.6505 -2.5625,-4.25 -2.658,0.6354 -2.3068,4.7152 -2.4063,6.8437 -0.1662,3.4086 -0.204,7.8848 -0.25,12.375 -0.042,4.0808 -0.1037,7.9565 -0.2812,11.1562 -0.01,-0.1295 -0.024,-0.1801 -0.031,-0.3125 -0.24,-4.2743 -0.3453,-10.0205 -0.4062,-15.7812 -0.061,-5.7614 -0.086,-11.5553 -0.25,-15.9062 -0.2862,-2.73 0.504,-7.5095 -2.4376,-8.3749 -2.7999,1.0881 -2.1637,5.8956 -2.2501,7.9689 -0.1666,4.0478 -0.2417,9.399 -0.3125,14.75 -0.07,5.2831 -0.1408,10.5024 -0.375,14.4688 -0.1237,-2.4095 -0.2194,-4.9614 -0.2812,-7.8438 -0.7917,-3.8688 0.8776,-16.4023 -2.7187,-16.3438 -1.945,0.3691 -2.1177,2.2399 -2.3437,3.7812 -0.1574,1.1869 -0.2391,2.7478 -0.3438,4.25 -0.1,-3.0913 -0.2131,-6.1876 -0.2812,-9.75 -0.096,-5.0048 -0.23,-10.0534 -0.4688,-13.8438 -0.3349,-2.7207 -0.058,-7.2853 -2.5625,-7.4375 z"
       id="path111"
       inkscape:connector-curvature="0"
       sodipodi:nodetypes="ccccccccscccccccccscccccccccccccccccccccccccccccccccccccccccccccccccccccccccccccccccccccccccccccccccccccccccccccccscccscccccccccccccccccccccccccsccccccccc" />
  </g>
  <path
     fill="none"
     stroke="#000"
     d="m-28.7893-40.6231c2.8571,0 .5209-20 4.7588-20 4.3642,0 .519,40 4.7588,40 4.2379,0 1.7836-30 4.7588-30 3.1015,0 .8997,24 4.7588,24 3.7328,0 .7734-44 4.7588-44 3.8591,0 1.531,40 4.7588,40 3.354,0 1.531-17 4.7588-17 3.354,0 .6463,30.238 4.7588,30 4.3642-.2525 1.4046-42.8783 4.7588-43 3.4803-.1263 .27,46.1228 4.7588,46 4.6167-.1263 1.0259-36 4.7588-36 3.8591,0 1.4046,19.8783 4.7588,20 3.4803,.1263 1.531-34 4.7588-34 3.354,0 1.0335,37.8298 4.7588,38 3.9077,.1786 .6722-20.8289 4.7588-21 4.2648-.1786 .8511,13 4.7588,13 3.7291,0 .8511-26 4.7588-26 3.7291,0 1.0297,40 4.7588,40 3.9077,0 1.5853-50.5042 4.7588-50 3.372,.5357 1.5703,54.1783 4.7588,54 3.1934-.1786 1.5649-33.8309 4.7588-34 3.372-.1786 .8511,20 4.7588,20 4.0863,0 1.0297-26 4.7588-26 3.9077,0 .6725,33 4.7588,33 4.2648,0 .847-37 4.7588-37 3.9077,0 1.0297,28 4.7588,28 3.5505,0 1.5654-17 4.7588-17 3.372,0 1.3868,22 4.7588,22 3.5505,0 1.3868-28 4.7588-28 3.5505,0 .3154,37 4.7588,37 4.622,0 1.0301-44.1875 4.7588-44 3.5505,.1786 1.7231,22 4.7588,22"
     id="path113" />
  <g
     color="#000"
     id="g115">
    <path
       style="opacity:0.05"
       d="m 47.7812,13.9375 c -10.674,-0.03 -20.93,6.906 -24.803,16.8709 -2.2992,5.562 -2.6173,12.0606 -0.916,17.7537 -1.1154,1.539 -3.5232,3.6875 -3.3673,6.2556 0.076,3.108 1.3334,6.039 2.0126,9.0542 0.7178,2.8847 1.4379,6.1425 4.2571,7.7282 2.5496,1.7762 5.7596,1.3648 8.5302,0.4284 1.3913,-0.4703 3.2941,-0.5984 4.1291,-1.5286 0.9042,-0.9387 1.065,-2.3066 0.5466,-3.5801 -1.6988,-6.3885 -3.4335,-12.7862 -5.1093,-19.1692 -0.2592,-0.6697 -0.9811,-0.9998 -1.2809,-1.5625 -0.303,-2.1298 -0.9915,-4.2875 -0.6695,-6.4956 0.4353,-8.1058 7.4742,-15.1447 15.58,-15.58 7.9489,-0.7838 15.8856,4.8608 17.7152,12.6417 0.849,3.0426 0.5725,6.2744 -0.1879,9.2776 0.1727,0.7255 -0.871,0.8209 -1.0624,1.5935 -1.7521,6.1912 -3.3586,12.5144 -5.0583,18.7547 -0.5114,1.3488 -0.7455,2.9234 0.3398,4.0259 0.732,0.9875 2.4436,1.0628 3.709,1.4906 2.6964,0.8305 5.7162,1.5922 8.3417,0.087 2.8317,-1.2869 4.0868,-4.2727 4.6667,-7.1363 0.7455,-3.1514 1.9096,-6.2271 2.2936,-9.4449 0.252,-2.7782 -1.8529,-5.2397 -3.5113,-6.8711 0.9525,-3.0723 1.2996,-6.9152 0.9577,-10.3199 -0.9541,-11.1376 -9.5953,-21.02 -20.4837,-23.511 -2.1663,-0.5283 -4.403,-0.7854 -6.6297,-0.7628 z"
       id="path117"
       inkscape:connector-curvature="0"
       sodipodi:nodetypes="cccccccccccccccccccccccccc" />
    <path
       style="opacity:0.1"
       d="m 47.7812,15 c -10.5472,-0.08 -20.6253,7.0098 -24.1539,16.9481 -1.9047,5.1788 -2.2448,11.0674 -0.5338,16.3334 1.7668,1.2959 -2.3603,1.721 -2.409,3.455 -2.025,3.0912 -0.2708,6.5747 0.4609,9.7613 0.8856,2.6515 1.0272,5.6666 2.8427,7.9045 2.0096,2.4387 5.5266,2.9601 8.3777,1.8592 1.4453,-0.5249 3.1375,-0.5526 4.4156,-1.4172 1.352,-1.2877 0.087,-3.1436 -0.1419,-4.6384 C 35.076,59.489 33.6438,53.71 32,48.0312 31.7275,47.0926 30.112,47.4251 30.7187,46.3435 30.3681,43.9815 29.7033,41.584 30.0928,39.1559 30.7815,30.725 38.1666,23.525 46.6127,23.0519 c 8.4473,-0.8281 16.8656,5.185 18.8219,13.4427 0.8853,3.1662 0.6149,6.5176 -0.1531,9.6613 0.4171,0.988 -0.3241,1.0183 -0.969,1.5942 -0.847,1.7343 -1.0598,3.7472 -1.6591,5.5909 -1.296,4.9715 -2.7133,9.929 -3.9345,14.9092 -0.1681,1.4704 1.3445,2.2144 2.5858,2.3539 2.8314,0.7102 5.923,2.0601 8.7182,0.453 2.5425,-1.1553 3.5856,-3.8651 4.1126,-6.4164 0.736,-2.9667 1.7143,-5.8834 2.2658,-8.8882 0.9243,-3.1273 -2.9827,-5.8164 -3.7447,-7.1582 1.0556,-1.5603 0.9479,-3.6779 1.2642,-5.4869 C 74.9252,32.585 68.7622,21.8633 59.1254,17.4898 55.5956,15.8192 51.6865,14.9579 47.7812,15 Z"
       id="path119"
       inkscape:connector-curvature="0" />
    <path
       opacity=".15"
       d="m47.7812,15.9062c-2.0667,.0206-4.1871,.2826-6.2812,.8438-13.3757,3.584-21.3339,17.3749-17.75,30.75a1.0956,1.0956 0 0,0 1.3438,.7812l3.9062-1.0312a1.0956,1.0956 0 0,0 .7812-1.3438c-.4256-1.5835-.6875-3.2166-.6875-4.9062 0-10.4536 8.4526-18.9062 18.9062-18.9062 10.4536,0 18.9062,8.4526 18.9062,18.9062 0,1.6896-.2619,3.3228-.6875,4.9062a1.0956,1.0956 0 0,0 .7812,1.3438l3.9062,1.0312a1.0956,1.0956 0 0,0 1.3438-.7812c1.1403-4.2556 1.1403-8.7444 0-13-3.0239-11.2855-13.289-18.7052-24.4688-18.5938zm-17.625,32.0312a1.0956,1.0956 0 0,0 -.1875,.0312l-4.8438,1.3125c-3.2441,.8693-5.1813,4.2262-4.3125,7.4688l2.5938,9.6562c.8693,3.2441 4.2262,5.1813 7.4688,4.3125l4.8125-1.2812a1.0956,1.0956 0 0,0 .7812-1.3438l-5.1562-19.3438a1.0956,1.0956 0 0,0 -1.1562-.8125zm35.5625,0a1.0956,1.0956 0 0,0 -.9062,.8125l-5.1562,19.3438a1.0956,1.0956 0 0,0 .7812,1.3438l4.8125,1.2812c3.2426,.8688 6.5995-1.0684 7.4688-4.3125l2.5938-9.6562c.8688-3.2426-1.0684-6.5995-4.3125-7.4688l-4.8438-1.3125a1.0956,1.0956 0 0,0 -.4375-.0312z"
       id="path121" />
    <path
       opacity=".3"
       d="m47.7812,17c-1.9794,.0197-3.9995,.2765-6,.8125-12.8032,3.4306-20.3994,16.6031-16.9688,29.4062l3.9062-1.0312c-.446-1.6594-.7188-3.3872-.7188-5.1875 0-11.0457 8.9543-20 20-20 11.0457,0 20,8.9543 20,20 0,1.8003-.2727,3.5281-.7188,5.1875l3.9062,1.0312c1.0904-4.0693 1.0904-8.3682 0-12.4375-2.8946-10.8027-12.7172-17.8879-23.4062-17.7812zm-17.5312,32.0312l-4.8438,1.3125c-2.6756,.7169-4.2482,3.4494-3.5312,6.125l2.5938,9.6562c.7169,2.6756 3.4494,4.2482 6.125,3.5312l4.8125-1.2812-5.1562-19.3438zm35.625,0-5.1562,19.3438 4.8125,1.2812c2.6756,.7169 5.4081-.8556 6.125-3.5312l2.5938-9.6562c.7169-2.6756-.8556-5.4081-3.5312-6.125l-4.8438-1.3125z"
       id="path123" />
  </g>
  <path
     opacity=".08"
     d="m48,20.1875c-5.9466,0-10.8125,4.8659-10.8125,10.8125v13.1875c-.0299-.0041-.0625,0-.0625,0-.0023-.0001-.154,0-.1562,0h-1.9688-1-2.9062-.0312c-.0009-0-.0303,.0002-.0625,0-.0482-.0004-.1134,0-.0938,0 .0261,0-.0796-.0004-.125,0-.0233-0-.1551-.0001-.1562,0a1.0552,1.0552 0 0,0 -.1875,.0625 1.0552,1.0552 0 0,0 -.0312,0c-.009,.0018-.0215-.0019-.0312,0-.0389,.0077-.1856,.0619-.1875,.0625-.0187,.0093-.0331,.0323-.0312,.0312-.0659,.0253-.2695,.0828-.2188,.0625-.0037,.0015-.1824,.0912-.1875,.0938 .1058-.0532-.2153,.0916-.2188,.0938-.0034,.0021-.3519,.2782-.1875,.1562-.0369,.0274-.0314,.008-.0625,.0312-.0311,.0233-.1235,.1237-.125,.125-.003,.0027-.1535,.1533-.1562,.1562-.0003,.0004-.0887,.0872-.0938,.0938 .0003-.0003 .0037,.0276 0,.0312-.008,.0107-.0538,.0196-.0625,.0312-.0233,.0311 .0013,.0297 0,.0312-.0057,.0057-.0234-.008-.0312,0-.0039,.004-.0222,.0216-.0312,.0312-.0045,.0048 .0113,.0185 0,.0312-.0113,.0127-.0937,.0936-.0938,.0938-.0022,.0034-.1543,.2465-.1562,.25-.0019,.0035-.0921,.1838-.0938,.1875-.0008,.0018 .0157,.0001 0,.0312-.0078,.0156-.0243,.0173-.0312,.0312-.0035,.007 .0039,.0233 0,.0312-.0039,.0082-.0624,.1248-.0625,.125-.0001,.0002-.0294,.1167-.0312,.125-.0018,.0086 .0017,.0229 0,.0312-.0034,.0168-.0274,.0431-.0312,.0625-.0077,.0389 .0005,.0293 0,.0312-.001,.0039-.0306,.246-.0312,.25-.0003,.002-.0234-.0076-.0312,.0312-.0039,.0194 .0033,.0459 0,.0625-.0016,.0084-.0312,.1557-.0312,.1562-.0001,.002-0,.0938 0,.125 0,.0312-.0014-.0497 0,.0625v3c0,.0023-.0001,.154 0,.1562 0,0 .0266,.0286 .0312,.0625-0,.0079 0,.0218 0,.0312-0,.0064 .0001,.0196 0,.0312 .0013,.0098-0,.0312 0,.0312-0,.006-.0001,.0223 0,.0312 0,.0045-.0003,.0198 0,.0312 .0026,.0097-.0015,.026 0,.0312 .0003,.0067 .0271,.0307 .0312,.0625 .0056,.0434-0,.0937 0,.0938 .0001,.0003 .0293,.119 .0312,.125 .0035,.0104-.0039,.0196 0,.0312 .0101,.031 .0565,.1106 .0625,.125 .0073,.0174-.003,.0247 0,.0312 .0009,.0026 .0304-.0026 .0312,0 .0017,.0035-.0012,.0289 0,.0312 .0049,.0098-.004,.0235 0,.0312 .0029,.0085-.0002,.0308 0,.0312 .0001,.0003 .0596,.0878 .0625,.0938 .0018,.0053-.0021,.0251 0,.0312 .0012,.0033 .0205,.0365 .0312,.0625 .0013,.0038-.0045,.0193 0,.0312 .0053,.0129 .0312,.0312 .0312,.0312 .0049,.0108-.0055,.0192 0,.0312 .002,.0056 .0251,.0156 .0312,.0312 .0068,.0135-.0003,.0307 0,.0312 .0034,.0081-0,.0312 0,.0312 0,.0001 .0625,.0937 .0625,.0938 0,0 .0219,.0179 .0312,.0312 .0039,.0078 .0267,.0221 .0312,.0312 .018,.0257 .0312,.0625 .0312,.0625 0,.0001 .0248,.0239 .0312,.0312 .02,.0305 .0312,.0625 .0312,.0625 .011,.014 .0284,.0281 .0312,.0312 .0122,.0145 .0184,.016 .0312,.0312 .0129,.0152 .0292,.0292 .0312,.0312 .0061,.0063-.0026,.0287 0,.0312 .0076,.0075 .0235,.0235 .0312,.0312 .0253,.0272 .0538,.0538 .0625,.0625 .0015,.0017 .1162,.1162 .0938,.0938-.0224-.0224 .0921,.0922 .0938,.0938 .0087,.0087 .0353,.0372 .0625,.0625 .0077,.0078 .0237,.0237 .0312,.0312 .0026,.0026 .025-.0061 .0312,0 .0021,.002 .016,.0183 .0312,.0312 .0152,.0129 .0167,.019 .0312,.0312 .0145,.0122 .0312,.0312 .0312,.0312 .0037,.0036 .021,.0216 .0312,.0312 .0107,.0071 .0198-.0075 .0312,0 .0073,.0064 .0312,.0312 .0312,.0312 .0136,.0077 .0259,.0284 .0312,.0312 .0077,.0054 .0219-.0066 .0312,0 .0092,.0046 .0234,.0274 .0312,.0312 .0134,.0094 .0312,.0312 .0312,.0312 0,0 .0937,.0625 .0938,.0625 .0001,0 .0547-.0031 .0625,0 .0315,.0158 .0611,.0306 .0625,.0312 .0162,.0074 .0277,.0299 .0312,.0312 .012,.0045 .0275-.0013 .0312,0 .026,.0108 .0592,.0301 .0625,.0312 .0061,.0021 .026-.0018 .0312,0 .0105,.0035 .0196,.0274 .0312,.0312 .0311,.0133 .0623,.0312 .0625,.0312 .0031,.0016 .0274-.002 .0312,0 .0171,.0057 .0361-.0088 .0625,0 .0035,.0017-.0066,.0282 0,.0312 .0256,.0085 .0617-.0003 .0625,0 .0319,.0111 .0692,.0545 .0938,.0625 .0116,.0039 .0208-.0035 .0312,0 .006,.002 .1247,.0312 .125,.0312 0,0 .0503-.0056 .0938,0 .0318,.0041 .0558,.0309 .0625,.0312 .0053,.0015 .0215-.0026 .0312,0 .0114,.0003 .0268-0 .0312,0 .0114,.002 .0313,0 .0312,0 0,0 .0476-.0063 .0938,0 .0339,.0046 .0625,.0312 .0625,.0312 .0023,.0001 .154-0 .1562,0h.1875v2.1875c0,7.1225 4.688,13.0569 11,15.4688v.7188h-.1875c-.0023,0-.154-.0001-.1562,0-0,0-.0286,.0266-.0625,.0312-.0462,.0063-.0937-0-.0938,0-0,0-.0211-.0024-.0312,0-.0102,.0024-.0264-.0013-.0312,0-.0057,.0001-.0154-.0008-.0312,0-.0067,.0003-.0307,.0271-.0625,.0312-.0434,.0056-.0937-0-.0938,0-.0003,.0001-.119,.0293-.125,.0312 .0011-.0003-.0545,.0078-.0312,0-.031,.0101-.1106,.0565-.125,.0625-.0174,.0073-.0247-.003-.0312,0-.0131,.006-.0265,.0289-.0312,.0312-.0256,.0086-.0617-.0003-.0625,0-.0002,.0001-.0314,.018-.0625,.0312-.0117,.0039-.0207,.0277-.0312,.0312-.0053,.0018-.0251-.0021-.0312,0-.0033,.0012-.0365,.0205-.0625,.0312-.0038,.0013-.0193-.0045-.0312,0-.012,.0045-.1251,.0625-.125,.0625-.0081,.0034-.0312-0-.0312,0-.0001,0-.0937,.0625-.0938,.0625-0,0-.0298,.0396-.0625,.0625-.0257,.018-.0625,.0312-.0625,.0312-.0136,.0077-.0937,.0625-.0938,.0625-.014,.0109-.0281,.0284-.0312,.0312-.0077,.0078-.0276,.0276-.0312,.0312-.0152,.0129-.0292,.0292-.0312,.0312-.0063,.0061-.0287-.0026-.0312,0-.0075,.0076-.0235,.0234-.0312,.0312-.0272,.0253-.0538,.0538-.0625,.0625-.0017,.0015-.1162,.1162-.0938,.0938 .0224-.0225-.0922,.0921-.0938,.0938-.0087,.0087-.0372,.0353-.0625,.0625-.0078,.0077-.0237,.0237-.0312,.0312-.0038,.0041 .0001,.0311 0,.0312-.002,.0021-.0183,.0161-.0312,.0312-.0036,.0036-.0234,.0235-.0312,.0312-.0078,.0077-.0226,.0226-.0312,.0312-.0036,.0037-.0216,.021-.0312,.0312-.0048,.0051 .0129,.0166 0,.0312-.0125,.019-.0283,.026-.0312,.0312-.0077,.0136-.0284,.0259-.0312,.0312-.0057,.0106 .0021,.0272 0,.0312-.0046,.0092-.0274,.0234-.0312,.0312-.0094,.0134-.0312,.0312-.0312,.0312-0,0-.0625,.0937-.0625,.0938-0,.0001 .0031,.0547 0,.0625-.0091,.018-.0222,.0133-.0312,.0312-.003,.0088 .002,.0253 0,.0312-.0039,.0118-.0274,.0196-.0312,.0312-.0038,.0117 .0021,.0248 0,.0312-.0108,.026-.0301,.0592-.0312,.0625 .0079-.0156-.0004,.0323 0,.0312-.0035,.0105-.0274,.0196-.0312,.0312-.0133,.0311-.0312,.0623-.0312,.0625-.0016,.0031 .002,.0274 0,.0312-.004,.0078 .0049,.0215 0,.0312-.0051,.0153-.0261,.0159-.0312,.0312-.003,.0066 .0073,.0139 0,.0312-.0028,.0085 .0001,.0308 0,.0312-.0111,.0319-.0545,.0692-.0625,.0938 .0078-.0233-.0003,.0323 0,.0312-.002,.006-.0312,.1247-.0312,.125-0,0 .0056,.0503 0,.0938-.0041,.0318-.0309,.0558-.0312,.0625-.0008,.0158 .0001,.0255 0,.0312-.0003,.0114 0,.0268 0,.0312-.0001,.0089-0,.0253 0,.0312 0,.0119-.0001,.0196 0,.0312-.0001,.0074 0,.0302 0,.0312 0,.0095-0,.0234 0,.0312-.0046,.0339-.0312,.0625-.0312,.0625-.0001,.0023 0,.154 0,.1562v3c0,.0023-.0001,.154 0,.1562 0,0 .0266,.0286 .0312,.0625 .0016,.0288 0,.0942 0,.0938-0,.006-.0001,.0223 0,.0312 0,.0045-.0003,.0198 0,.0312 .0026,.0097-.0015,.026 0,.0312 .0003,.0067 .0271,.0307 .0312,.0625 .0056,.0434-0,.0937 0,.0938 .0001,.0003 .0293,.119 .0312,.125 .0035,.0104-.0039,.0196 0,.0312 .0101,.031 .0565,.1106 .0625,.125 .0073,.0174-.003,.0247 0,.0312 .0009,.0026 .0304-.0026 .0312,0 .0017,.0035-.0012,.0289 0,.0312 .0049,.0098-.004,.0235 0,.0312 .0029,.0085-.0001,.0308 0,.0312 .0001,.0002 .018,.0314 .0312,.0625 .0039,.0117 .0277,.0208 .0312,.0312 .004,.008-.0039,.0234 0,.0312 .0012,.0033 .0205,.0365 .0312,.0625 .0021,.0064-.0038,.0196 0,.0312 .0038,.0117 .0273,.0194 .0312,.0312 .002,.0059-.003,.0225 0,.0312 .002,.0056 .0251,.0156 .0312,.0312 .0068,.0135-.0003,.0306 0,.0312 .0034,.0081-0,.0312 0,.0312 0,.0001 .0625,.0937 .0625,.0938 0,0 .0219,.0179 .0312,.0312 .0039,.0078 .0267,.0221 .0312,.0312 .018,.0257 .0312,.0625 .0312,.0625 0,.0001 .0248,.0239 .0312,.0312 .0075,.0114-.0071,.0206 0,.0312 .0096,.0103 .0276,.0275 .0312,.0312 .0087,.0086 .0234,.0235 .0312,.0312 .0122,.0145 .0183,.0161 .0312,.0312 .0129,.0152 .0292,.0292 .0312,.0312 .0061,.0063-.0026,.0287 0,.0312 .0076,.0075 .0234,.0235 .0312,.0312 .0253,.0272 .0538,.0538 .0625,.0625 .0015,.0017 .1162,.1162 .0938,.0938-.0224-.0225 .0921,.0922 .0938,.0938 .0087,.0087 .0353,.0372 .0625,.0625 .0077,.0078 .0237,.0237 .0312,.0312 .0026,.0026 .0249-.0061 .0312,0 .0021,.002 .016,.0183 .0312,.0312 .0152,.0129 .0167,.019 .0312,.0312 .0145,.0122 .0312,.0312 .0312,.0312 .0037,.0036 .021,.0216 .0312,.0312 .0107,.0071 .0198-.0075 .0312,0 .0073,.0064 .0312,.0312 .0312,.0312 .0136,.0077 .0259,.0284 .0312,.0312 .0077,.0054 .0219-.0066 .0312,0 .0092,.0046 .0234,.0274 .0312,.0312 .0134,.0094 .0312,.0312 .0312,.0312 0,0 .0937,.0625 .0938,.0625 .0001,0 .0547-.0031 .0625,0 .0315,.0158 .0611,.0306 .0625,.0312 .0162,.0074 .0277,.0299 .0312,.0312 .012,.0045 .0275-.0013 .0312,0 .026,.0108 .0592,.0301 .0625,.0312 .0061,.0021 .026-.0018 .0312,0 .0105,.0035 .0196,.0274 .0312,.0312 .0311,.0133 .0623,.0312 .0625,.0312 .0021,.001 .0266-.0022 .0312,0 .0171,.0057 .0361-.0088 .0625,0 .0035,.0017-.0066,.0282 0,.0312 .0256,.0085 .0617-.0003 .0625,0 .032,.0111 .0692,.0545 .0938,.0625 .0116,.0039 .0208-.0035 .0312,0 .006,.002 .1247,.0312 .125,.0312 0,0 .0503-.0056 .0938,0 .0318,.0041 .0558,.0309 .0625,.0312 .0053,.0015 .0215-.0026 .0312,0 .0157,.0027 .0199-.002 .0312,0 .0114,.002 .0313,0 .0312,0 0,0 .0476-.0063 .0938,0 .0339,.0046 .0625,.0312 .0625,.0312 .0023,.0001 .154-0 .1562,0h12c.0023-0 .154,.0001 .1562,0 0-0 .0286-.0266 .0625-.0312 .0462-.0063 .0937,0 .0938,0 .012-.001 .0161,.0014 .0312,0 .0228-.0039 .0363,.0045 .0625,0 .0067-.0003 .0307-.0271 .0625-.0312 .0434-.0056 .0937,0 .0938,0 .0003-.0001 .119-.0293 .125-.0312 .0001-0 .0846-.0484 .125-.0625-.0001,0 .1158-.0269 .125-.0312 .0046-.0022 .0291,.001 .0312,0 .0003-.0001 .0878-.0596 .0938-.0625 .0053-.0018 .0251,.0021 .0312,0 .0067-.0023 .1249-.0624 .125-.0625 .0006-.0003 .0178,.0068 .0312,0 .0056-.002 .0156-.0251 .0312-.0312 .0135-.0068 .0307,.0003 .0312,0 .0081-.0034 .0312,0 .0312,0 .0001-0 .0937-.0625 .0938-.0625 0-0 .0179-.0219 .0312-.0312 .0285-.0167 .0939-.0626 .0938-.0625 .0001-0 .0239-.0248 .0312-.0312 .0322-.0249 .0855-.0551 .0938-.0625 .0114-.0103-.0036-.0278 0-.0312 .0249-.021 .0594-.0282 .0625-.0312 .0009-.0007 .1095-.0782 .125-.0938 .0017-.0015 .1162-.1162 .0938-.0938-.0224,.0225 .0922-.0921 .0938-.0938 .0156-.0155 .093-.1241 .0938-.125 .002-.0021 .0183-.0161 .0312-.0312 .0013-.0014-.0069-.024 0-.0312 .007-.0083 .0251,.0073 .0312,0 .0074-.0082 .0376-.0615 .0625-.0938 .0064-.0073 .0312-.0312 .0312-.0312-.0001,.0002 .0458-.0653 .0625-.0938 .0094-.0134 .0312-.0312 .0312-.0312 0-0 .0625-.0937 .0625-.0938 0-.0001-.0031-.0547 0-.0625 .0062-.0156 .0292-.0256 .0312-.0312 .0068-.0135-.0003-.0306 0-.0312 .0001-.0001 .0602-.1183 .0625-.125-.0079,.0156 .0004-.0323 0-.0312 .0029-.006 .0624-.0935 .0625-.0938 .0016-.0031-.002-.0274 0-.0312 .004-.0078-.0049-.0215 0-.0312 .0153-.0393 .0313-.0939 .0312-.0938 .0141-.0404 .0625-.1249 .0625-.125 .002-.006 .0312-.1247 .0312-.125 0-0-.0056-.0503 0-.0938 .0041-.0318 .0309-.0558 .0312-.0625 .0023-.0131-.0027-.0155 0-.0312 .0013-.0049-.0024-.0211 0-.0312 .0028-.0303-.0001-.0572 0-.0625 .0011-.0199-.0011-.0433 0-.0625 .0046-.0339 .0312-.0625 .0312-.0625 .0001-.0023-0-.154 0-.1562v-3c-0-.0023 .0001-.154 0-.1562-0-0-.0266-.0286-.0312-.0625 0-.0079-0-.0218 0-.0312-0-.0043 .0003-.0199 0-.0312-.0001-.0053 .0028-.0322 0-.0625-.002-.0114 .0027-.0155 0-.0312-.0026-.0097 .0015-.026 0-.0312-.0003-.0067-.0271-.0307-.0312-.0625-.0056-.0434 0-.0937 0-.0938-.0001-.0003-.0293-.119-.0312-.125-0-.0001-.0484-.0846-.0625-.125 0,.0001-.0159-.0545-.0312-.0938-.0049-.0098 .004-.0235 0-.0312-.0022-.0046 .001-.0291 0-.0312-.0001-.0003-.0596-.0878-.0625-.0938 .0004,.0011-.0079-.0469 0-.0312-.0023-.0067-.0624-.1249-.0625-.125-.0003-.0006 .0068-.0178 0-.0312-.002-.0056-.0251-.0156-.0312-.0312-.0031-.0078 0-.0624 0-.0625-0-.0001-.0625-.0937-.0625-.0938-0-0-.0291,.003-.0312,0-.0014-.0028-.0627-.1252-.0625-.125-0-.0001-.0248-.0239-.0312-.0312-.0249-.0322-.0551-.0855-.0625-.0938-.0245-.029-.0585-.0583-.0625-.0625-.0001-.0001 .0038-.0271 0-.0312-.0076-.0075-.0234-.0235-.0312-.0312-.0253-.0272-.0538-.0538-.0625-.0625-.0015-.0017-.1162-.1162-.0938-.0938 .0224,.0225-.0921-.0922-.0938-.0938-.0087-.0087-.0353-.0372-.0625-.0625 .0155,.0156-.0634-.032-.0625-.0312-.0031-.003-.0376-.0102-.0625-.0312-.0036-.0035 .0114-.0209 0-.0312-.0032-.0029-.0173-.0203-.0312-.0312-.0037-.0036-.021-.0216-.0312-.0312-.0089-.0069-.0241,.0055-.0312,0-.0073-.0064-.0312-.0312-.0312-.0312-0-0-.0179-.0219-.0312-.0312-.0106-.0057-.0272,.0021-.0312,0-.0267-.0157-.0611-.0305-.0625-.0312-.003-.0021 0-.0312 0-.0312-0-0-.0937-.0625-.0938-.0625-0-0-.0232,.0034-.0312,0-.0006-.0003-.0178,.0068-.0312,0-.0157-.0062-.0256-.0292-.0312-.0312-.0135-.0068-.0306,.0003-.0312,0-.0001-0-.0365-.0205-.0625-.0312-.026-.0108-.0592-.0301-.0625-.0312 .0156,.0079-.0323-.0004-.0312,0 .0011,.0004-.0545-.039-.0312-.0312-.0311-.0133-.0623-.0312-.0625-.0312-.0013-.0005-.0528-.0176-.0938-.0312-.0309-.0119-.0626-0-.0625,0-.032-.0111-.0692-.0545-.0938-.0625 .0233,.0078-.0324-.0003-.0312,0-.006-.002-.1247-.0312-.125-.0312-0-0-.0503,.0056-.0938,0-.0318-.0041-.0558-.0309-.0625-.0312-.0053-.0015-.0215,.0026-.0312,0-.0157-.0027-.0199,.002-.0312,0-.0137-.0014-.0203,.001-.0312,0 .0004,0-.065,.0016-.0938,0-.0339-.0046-.0625-.0312-.0625-.0312-.0023-.0001-.154,0-.1562,0h-.1875v-.7188c6.312-2.4118 11-8.3462 11-15.4688v-2.1875h.1875c.0023-0 .154,.0001 .1562,0 0-0 .0286-.0266 .0625-.0312 .0192-.0011 .0426,.0011 .0625,0 .0053-.0001 .0322,.0028 .0625,0 .0228-.0039 .0362,.0045 .0625,0 .0067-.0003 .0307-.0271 .0625-.0312 .0434-.0056 .0937,0 .0938,0 .0003-.0001 .119-.0293 .125-.0312 .0001-0 .0846-.0484 .125-.0625-.0001,0 .0275-.0178 .0625-.0312 .0035-.0017 .0289,.0012 .0312,0 .0098-.0049 .0235,.004 .0312,0 .0039-.002 .0281,.0016 .0312,0 .0003-.0001 .0878-.0596 .0938-.0625-.0011,.0004 .0469-.0079 .0312,0 .0033-.0012 .0365-.0205 .0625-.0312 .026-.0108 .0624-.0312 .0625-.0312 .0006-.0003 .0178,.0068 .0312,0 .0056-.002 .0156-.0251 .0312-.0312 .0078-.0031 .0624,0 .0625,0 .0001-0 .0937-.0625 .0938-.0625 0-0 .0179-.0219 .0312-.0312 .0107-.0063 .0152-.0218 .0312-.0312 .0257-.018 .0625-.0312 .0625-.0312 .0052-.003 .0122-.0188 .0312-.0312 .0147-.0129 .0261,.0048 .0312,0 .0156-.0121 .0173-.0203 .0312-.0312 .0086-.0087 .0235-.0234 .0312-.0312 .0114-.0103-.0036-.0278 0-.0312 .0249-.021 .0593-.0282 .0625-.0312 .0063-.0061 .0287,.0026 .0312,0 .0216-.02 .0807-.0807 .0938-.0938 .0017-.0015 .1162-.1162 .0938-.0938-.0225,.0224 .0922-.0921 .0938-.0938 .0087-.0087 .0372-.0353 .0625-.0625-.0094,.0093 .0167-.0147 .0312-.0312 .0026-.0026-.0061-.0249 0-.0312 .002-.0021 .0183-.016 .0312-.0312 .0013-.0014-.0069-.024 0-.0312 .0035-.0036 .0209,.0114 .0312,0 .0074-.0082 .0376-.0615 .0625-.0938 .0064-.0073 .0312-.0312 .0312-.0312-.0001,.0002 .0458-.0652 .0625-.0938 .0094-.0134 .0312-.0312 .0312-.0312 0-0 .0625-.0937 .0625-.0938 0-.0001-.0031-.0547 0-.0625 .0062-.0157 .0292-.0256 .0312-.0312 .0068-.0135-.0003-.0306 0-.0312 .0001-.0001 .0602-.1183 .0625-.125-.0079,.0156 .0004-.0323 0-.0312 .0029-.006 .0624-.0935 .0625-.0938 .0016-.0031-.002-.0274 0-.0312 .004-.0078-.0049-.0215 0-.0312 .0153-.0393 .0313-.0939 .0312-.0938 .0141-.0404 .0625-.1249 .0625-.125 .002-.006 .0312-.1247 .0312-.125 0-0-.0056-.0503 0-.0938 .0041-.0318 .0309-.0558 .0312-.0625 .0023-.0131-.0027-.0155 0-.0312 .0003-.0114-0-.0268 0-.0312 .0028-.0303-.0001-.0572 0-.0625 .0011-.0199-.0011-.0433 0-.0625 .0046-.0339 .0312-.0625 .0312-.0625 .0001-.0023-0-.154 0-.1562v-3c-0-.0023 .0001-.154 0-.1562-0-0-.0266-.0286-.0312-.0625 0-.0079-0-.0218 0-.0312-.0007-.0132 .0005-.0213 0-.0312 .0001-.0117-0-.0194 0-.0312 0-.006 .0001-.0223 0-.0312-.002-.0114 .0027-.0155 0-.0312-.0001-.0057 .0008-.0154 0-.0312-.0003-.0067-.0271-.0307-.0312-.0625-.0056-.0434 0-.0937 0-.0938-.0001-.0003-.0293-.119-.0312-.125-0-.0001-.0484-.0846-.0625-.125 0,0 .0042-.0203 0-.0312-.0073-.0174 .003-.0247 0-.0312-.006-.0131-.0289-.0265-.0312-.0312-.0049-.0098 .004-.0235 0-.0312-.0022-.0046 .001-.0291 0-.0312-.0001-.0002-.018-.0314-.0312-.0625 .0077,.0233-.0317-.0323-.0312-.0312-.0018-.0053 .0021-.0251 0-.0312-.0016-.0047-.0188-.0637-.0312-.0938-.0014-.0036-.0239-.0151-.0312-.0312-.0003-.0006 .0068-.0178 0-.0312-.002-.0056-.0251-.0156-.0312-.0312-.0031-.0078 0-.0624 0-.0625-0-.0001-.0625-.0937-.0625-.0938-0-0-.0291,.003-.0312,0-.0003-.0006 .0042-.0241 0-.0312-.0039-.0078-.0267-.0221-.0312-.0312-.0021-.0041 .0057-.0206 0-.0312-.0028-.0053-.0235-.0177-.0312-.0312-0-.0001-.0248-.0239-.0312-.0312-.0055-.0072 .0069-.0223 0-.0312-.0096-.0103-.0276-.0275-.0312-.0312-0-.0001-.0415-.0064-.0625-.0312-.0069-.0073 .0013-.0299 0-.0312-.0129-.0152-.0292-.0292-.0312-.0312-.0061-.0063 .0026-.0287 0-.0312-.0076-.0075-.0234-.0235-.0312-.0312-.0253-.0272-.0538-.0538-.0625-.0625-.0015-.0017-.1162-.1162-.0938-.0938 .0225,.0224-.0921-.0922-.0938-.0938-.0087-.0087-.0353-.0372-.0625-.0625 .0155,.0156-.0634-.032-.0625-.0312-.0031-.003-.0376-.0102-.0625-.0312-.0036-.0035 .0114-.0209 0-.0312-.0077-.0078-.0226-.0226-.0312-.0312-0-0-.0134-.0194-.0312-.0312-.0089-.0069-.0241,.0055-.0312,0-.0073-.0064-.0312-.0312-.0312-.0312-0-0-.0368-.0132-.0625-.0312-.0092-.0046-.0234-.0274-.0312-.0312-.0071-.0042-.0307,.0003-.0312,0-.003-.0021 0-.0312 0-.0312-0-0-.0937-.0625-.0938-.0625-0-0-.0232,.0034-.0312,0-.0006-.0003-.0178,.0068-.0312,0-.0156-.0062-.0256-.0292-.0312-.0312-.0135-.0068-.0306,.0003-.0312,0-.0001-0-.0365-.0205-.0625-.0312-.026-.0108-.0592-.0301-.0625-.0312-.0078-.0039-.0232,.004-.0312,0-.006-.0029-.0935-.0624-.0938-.0625-.0013-.0005-.0528-.0176-.0938-.0312-.0309-.0119-.0626-0-.0625,0-.0319-.0111-.0692-.0545-.0938-.0625 .0233,.0078-.0323-.0003-.0312,0-.006-.002-.1247-.0312-.125-.0312-0-0-.0503,.0056-.0938,0-.0318-.0041-.0558-.0309-.0625-.0312-.0053-.0015-.0215,.0026-.0312,0-.0157-.0027-.0199,.002-.0312,0-.0303-.0028-.0572,.0001-.0625,0-.0196-.0027-.0317,.0042-.0625,0-.0339-.0046-.0625-.0312-.0625-.0312-.0023-.0001-.154,0-.1562,0h-3-1-1.9688c-.0023,0-.154-.0001-.1562,0-0,0-.0326-.0041-.0625,0v-13.1875c0-5.9466-4.8659-10.8125-10.8125-10.8125z"
     transform="translate(100)"
     id="path125" />
  <path
     opacity=".15"
     d="m48,21.25c-5.3738,0-9.75,4.3762-9.75,9.75v14.8438c-.0015-.0017-.0609-.0609-.0625-.0625-.0016-.0016-.0608-.061-.0625-.0625-.0017-.0015-.0607-.0611-.0625-.0625-.0018-.0014-.0607-.0611-.0625-.0625-.0018-.0014-.0606-.03-.0625-.0312-.0019-.0013-.0605-.0613-.0625-.0625-.002-.0012-.0917-.0302-.0938-.0312-.002-.0011-.0604-.0303-.0625-.0312-.0021-.001-.0917-.0304-.0938-.0312-.0021-.0009-.0604-.0305-.0625-.0312-.0021-.0008-.0916-.0306-.0938-.0312-.0022-.0007-.0603-.0307-.0625-.0312-.0022-.0006-.0915-.0308-.0938-.0312-.0022-.0005-.0915,.0003-.0938,0-.0023-.0003-.0602,.0002-.0625,0-.0023-.0002-.0915-.0311-.0938-.0312-.0023-.0001-.0915,0-.0938,0h-1.9688-1-2.9062-.0938c-.0023-.0001-.0914,0-.0938,0-.0023,0-.0914-.0001-.0938,0-.0023,.0001-.0914-.0002-.0938,0a.8049,.8049 0 0,0 -.0625,.0312c-.0039,.0008-.1524,.0301-.1562,.0312-.0039,.0012-.1525,.061-.1562,.0625-.0037,.0015-.1214,.0607-.125,.0625-.0036,.0018-.1216,.0604-.125,.0625-.0034,.0021-.1218,.0913-.125,.0938-.0032,.0024-.122,.0911-.125,.0938-.003,.0027-.091,.0908-.0938,.0938-.0028,.0029-.0912,.1218-.0938,.125-.0025,.0032-.0915,.0904-.0938,.0938-.0022,.0034-.0918,.1527-.0938,.1562-.0019,.0035-.0609,.1213-.0625,.125-.0016,.0037-.0612,.1212-.0625,.125-.0013,.0038-.0303,.1523-.0312,.1562-.001,.0039-.0306,.1523-.0312,.1562-.0006,.004-.031,.1522-.0312,.1562-.0003,.004-.0001,.121 0,.125v3c0,.0023-.0001,.0915 0,.0938 .0001,.0023 .031,.0915 .0312,.0938 .0002,.0023-.0004,.0603 0,.0625 .0004,.0023-.0005,.0915 0,.0938 .0005,.0022 .0307,.0915 .0312,.0938 .0006,.0022 .0306,.0603 .0312,.0625 .0007,.0022 .0305,.0916 .0312,.0938 .0008,.0021 .0304,.0604 .0312,.0625 .0009,.0021 .0303,.0917 .0312,.0938 .001,.0021 .0302,.0605 .0312,.0625 .0011,.002 .0301,.0918 .0312,.0938 .0012,.002 .0612,.0606 .0625,.0625 .0013,.0019 .0299,.0607 .0312,.0625 .0014,.0018 .0611,.0607 .0625,.0625 .0014,.0018 .061,.0608 .0625,.0625 .0015,.0017 .0609,.0609 .0625,.0625 .0016,.0016 .0608,.061 .0625,.0625 .0017,.0015 .0607,.0611 .0625,.0625 .0018,.0014 .0607,.0611 .0625,.0625 .0018,.0014 .0606,.03 .0625,.0312 .0019,.0013 .0605,.0613 .0625,.0625 .002,.0012 .0917,.0302 .0938,.0312 .002,.0011 .0604,.0303 .0625,.0312 .0021,.001 .0917,.0304 .0938,.0312 .0021,.0009 .0604,.0305 .0625,.0312 .0021,.0008 .0916,.0306 .0938,.0312 .0022,.0007 .0603,.0307 .0625,.0312 .0022,.0006 .0915,.0308 .0938,.0312 .0022,.0005 .0915-.0003 .0938,0 .0023,.0003 .0602-.0002 .0625,0 .0023,.0002 .0915,.0311 .0938,.0312 .0023,.0001 .0915-0 .0938,0h1.25v3.25c0,6.9436 4.6961,12.7849 11,14.8438v2.4062h-1.25c-.0023,0-.0915-.0001-.0938,0-.0023,.0001-.0915,.031-.0938,.0312-.0023,.0002-.0603-.0003-.0625,0-.0023,.0003-.0915-.0005-.0938,0-.0022,.0005-.0915,.0307-.0938,.0312-.0022,.0006-.0603,.0306-.0625,.0312-.0022,.0007-.0916,.0305-.0938,.0312-.0021,.0008-.0604,.0304-.0625,.0312-.0021,.0009-.0917,.0303-.0938,.0312-.0021,.001-.0605,.0302-.0625,.0312-.002,.0011-.0918,.0301-.0938,.0312-.002,.0012-.0606,.0612-.0625,.0625-.0019,.0013-.0607,.0299-.0625,.0312-.0018,.0014-.0607,.061-.0625,.0625-.0018,.0014-.0608,.061-.0625,.0625-.0017,.0015-.0609,.0609-.0625,.0625-.0016,.0016-.061,.0608-.0625,.0625-.0015,.0017-.0611,.0607-.0625,.0625-.0014,.0018-.0611,.0607-.0625,.0625-.0014,.0018-.03,.0606-.0312,.0625-.0013,.0019-.0613,.0606-.0625,.0625-.0012,.002-.0302,.0917-.0312,.0938-.0011,.002-.0303,.0604-.0312,.0625-.001,.0021-.0304,.0917-.0312,.0938-.0009,.0021-.0305,.0604-.0312,.0625-.0008,.0021-.0306,.0916-.0312,.0938-.0007,.0022-.0307,.0603-.0312,.0625-.0006,.0022-.0308,.0915-.0312,.0938-.0005,.0022 .0003,.0915 0,.0938-.0003,.0023 .0002,.0602 0,.0625-.0002,.0023-.0311,.0915-.0312,.0938-.0001,.0023 0,.0915 0,.0938v3c0,.0023-.0001,.0915 0,.0938 .0001,.0023 .031,.0915 .0312,.0938 .0002,.0023-.0003,.0602 0,.0625 .0003,.0023-.0005,.0915 0,.0938 .0005,.0022 .0307,.0915 .0312,.0938 .0006,.0022 .0306,.0603 .0312,.0625 .0007,.0022 .0305,.0916 .0312,.0938 .0008,.0021 .0304,.0604 .0312,.0625 .0009,.0021 .0303,.0917 .0312,.0938 .001,.0021 .0302,.0605 .0312,.0625 .0011,.002 .0301,.0918 .0312,.0938 .0012,.002 .0612,.0606 .0625,.0625 .0013,.0019 .0299,.0607 .0312,.0625 .0014,.0018 .0611,.0607 .0625,.0625 .0014,.0018 .061,.0608 .0625,.0625 .0015,.0017 .0609,.0609 .0625,.0625 .0016,.0016 .0608,.061 .0625,.0625 .0017,.0015 .0607,.061 .0625,.0625 .0018,.0014 .0607,.0611 .0625,.0625 .0018,.0014 .0606,.03 .0625,.0312 .0019,.0013 .0605,.0613 .0625,.0625 .002,.0012 .0917,.0302 .0938,.0312 .002,.0011 .0604,.0303 .0625,.0312 .0021,.001 .0917,.0304 .0938,.0312 .0021,.0009 .0604,.0305 .0625,.0312 .0021,.0008 .0916,.0306 .0938,.0312 .0022,.0007 .0603,.0307 .0625,.0312 .0022,.0006 .0915,.0308 .0938,.0312 .0022,.0005 .0915-.0003 .0938,0 .0023,.0003 .0602-.0002 .0625,0 .0023,.0002 .0915,.0311 .0938,.0312 .0023,.0001 .0915-0 .0938,0h12c.0023-0 .0915,.0001 .0938,0 .0023-.0001 .0915-.031 .0938-.0312 .0023-.0002 .0603,.0003 .0625,0 .0023-.0003 .0915,.0005 .0938,0 .0022-.0005 .0915-.0307 .0938-.0312 .0022-.0006 .0603-.0306 .0625-.0312 .0022-.0007 .0916-.0305 .0938-.0312 .0021-.0008 .0604-.0304 .0625-.0312 .0021-.0009 .0917-.0303 .0938-.0312 .0021-.001 .0605-.0302 .0625-.0312 .002-.0011 .0918-.0301 .0938-.0312 .002-.0012 .0606-.0612 .0625-.0625 .0019-.0013 .0607-.0299 .0625-.0312 .0018-.0014 .0607-.061 .0625-.0625 .0018-.0014 .0608-.061 .0625-.0625 .0017-.0015 .0609-.0609 .0625-.0625 .0016-.0016 .061-.0608 .0625-.0625 .0015-.0017 .0611-.0607 .0625-.0625 .0014-.0018 .0611-.0607 .0625-.0625 .0014-.0018 .03-.0606 .0312-.0625 .0013-.0019 .0613-.0606 .0625-.0625 .0012-.002 .0302-.0917 .0312-.0938 .0011-.002 .0303-.0604 .0312-.0625 .001-.0021 .0304-.0917 .0312-.0938 .0009-.0021 .0305-.0604 .0312-.0625 .0008-.0021 .0306-.0916 .0312-.0938 .0007-.0022 .0307-.0603 .0312-.0625 .0006-.0022 .0308-.0915 .0312-.0938 .0005-.0022-.0003-.0915 0-.0938 .0003-.0023-.0002-.0602 0-.0625 .0002-.0023 .0311-.0915 .0312-.0938 .0001-.0023-0-.0915 0-.0938v-3c-0-.0023 .0001-.0915 0-.0938-.0001-.0023-.031-.0915-.0312-.0938-.0002-.0023 .0003-.0602 0-.0625-.0003-.0023 .0005-.0915 0-.0938-.0005-.0022-.0307-.0915-.0312-.0938-.0006-.0022-.0306-.0603-.0312-.0625-.0007-.0022-.0305-.0916-.0312-.0938-.0008-.0021-.0304-.0604-.0312-.0625-.0009-.0021-.0303-.0917-.0312-.0938-.001-.0021-.0302-.0605-.0312-.0625-.0011-.002-.0301-.0918-.0312-.0938-.0012-.002-.0612-.0606-.0625-.0625-.0013-.0019-.0299-.0607-.0312-.0625-.0014-.0018-.0611-.0607-.0625-.0625-.0014-.0018-.061-.0608-.0625-.0625-.0015-.0017-.0609-.0609-.0625-.0625-.0016-.0016-.0608-.061-.0625-.0625-.0017-.0015-.0607-.061-.0625-.0625-.0018-.0014-.0607-.0611-.0625-.0625-.0018-.0014-.0606-.03-.0625-.0312-.0019-.0013-.0605-.0613-.0625-.0625-.002-.0012-.0917-.0302-.0938-.0312-.002-.0011-.0604-.0303-.0625-.0312-.0021-.001-.0917-.0304-.0938-.0312-.0021-.0009-.0604-.0305-.0625-.0312-.0021-.0008-.0916-.0306-.0938-.0312-.0022-.0007-.0603-.0307-.0625-.0312-.0022-.0006-.0915-.0308-.0938-.0312-.0022-.0005-.0915,.0003-.0938,0-.0023-.0003-.0602,.0002-.0625,0-.0023-.0002-.0915-.0311-.0938-.0312-.0023-.0001-.0915,0-.0938,0h-1.25v-2.4062c6.3039-2.0589 11-7.9002 11-14.8438v-3.25h1.25c.0023-0 .0915,.0001 .0938,0 .0023-.0001 .0915-.031 .0938-.0312 .0023-.0002 .0602,.0003 .0625,0 .0023-.0003 .0915,.0005 .0938,0 .0022-.0005 .0915-.0307 .0938-.0312 .0022-.0006 .0603-.0306 .0625-.0312 .0022-.0007 .0916-.0305 .0938-.0312 .0021-.0008 .0604-.0304 .0625-.0312 .0021-.0009 .0917-.0303 .0938-.0312 .0021-.001 .0605-.0302 .0625-.0312 .002-.0011 .0918-.0301 .0938-.0312 .002-.0012 .0606-.0612 .0625-.0625 .0019-.0013 .0607-.0299 .0625-.0312 .0018-.0014 .0607-.0611 .0625-.0625 .0018-.0014 .0608-.061 .0625-.0625 .0017-.0015 .0609-.0609 .0625-.0625 .0016-.0016 .061-.0608 .0625-.0625 .0015-.0017 .061-.0607 .0625-.0625 .0014-.0018 .0611-.0607 .0625-.0625 .0014-.0018 .03-.0606 .0312-.0625 .0013-.0019 .0613-.0605 .0625-.0625 .0012-.002 .0302-.0917 .0312-.0938 .0011-.002 .0303-.0604 .0312-.0625 .001-.0021 .0304-.0917 .0312-.0938 .0009-.0021 .0305-.0604 .0312-.0625 .0008-.0021 .0306-.0916 .0312-.0938 .0007-.0022 .0307-.0603 .0312-.0625 .0006-.0022 .0308-.0915 .0312-.0938 .0005-.0022-.0003-.0915 0-.0938 .0003-.0023-.0002-.0602 0-.0625 .0002-.0023 .0311-.0915 .0312-.0938 .0001-.0023-0-.0915 0-.0938v-3c-0-.0023 .0001-.0915 0-.0938-.0001-.0023-.031-.0915-.0312-.0938-.0002-.0023 .0003-.0603 0-.0625-.0003-.0023 .0005-.0915 0-.0938-.0005-.0022-.0307-.0915-.0312-.0938-.0006-.0022-.0306-.0603-.0312-.0625-.0007-.0022-.0305-.0916-.0312-.0938-.0008-.0021-.0304-.0604-.0312-.0625-.0009-.0021-.0303-.0917-.0312-.0938-.001-.0021-.0302-.0605-.0312-.0625-.0011-.002-.0301-.0918-.0312-.0938-.0012-.002-.0612-.0606-.0625-.0625-.0013-.0019-.0299-.0607-.0312-.0625-.0014-.0018-.061-.0607-.0625-.0625-.0014-.0018-.061-.0608-.0625-.0625-.0015-.0017-.0609-.0609-.0625-.0625-.0016-.0016-.0608-.061-.0625-.0625-.0017-.0015-.0607-.0611-.0625-.0625-.0018-.0014-.0607-.0611-.0625-.0625-.0018-.0014-.0606-.03-.0625-.0312-.0019-.0013-.0606-.0613-.0625-.0625-.002-.0012-.0917-.0302-.0938-.0312-.002-.0011-.0604-.0303-.0625-.0312-.0021-.001-.0917-.0304-.0938-.0312-.0021-.0009-.0604-.0305-.0625-.0312-.0021-.0008-.0916-.0306-.0938-.0312-.0022-.0007-.0603-.0307-.0625-.0312-.0022-.0006-.0915-.0308-.0938-.0312-.0022-.0005-.0915,.0003-.0938,0-.0023-.0003-.0602,.0002-.0625,0-.0023-.0002-.0915-.0311-.0938-.0312-.0023-.0001-.0915,0-.0938,0h-3-1-1.9688c-.0023,0-.0915-.0001-.0938,0-.0023,.0001-.0915,.031-.0938,.0312-.0023,.0002-.0603-.0003-.0625,0-.0023,.0003-.0915-.0005-.0938,0-.0022,.0005-.0915,.0307-.0938,.0312-.0022,.0006-.0603,.0306-.0625,.0312-.0022,.0007-.0916,.0305-.0938,.0312-.0021,.0008-.0604,.0304-.0625,.0312-.0021,.0009-.0917,.0303-.0938,.0312-.0021,.001-.0605,.0302-.0625,.0312-.002,.0011-.0918,.0301-.0938,.0312-.002,.0012-.0606,.0612-.0625,.0625-.0019,.0013-.0607,.0299-.0625,.0312-.0018,.0014-.0607,.0611-.0625,.0625-.0018,.0014-.0608,.061-.0625,.0625-.0017,.0015-.0609,.0609-.0625,.0625-.0016,.0016-.061,.0608-.0625,.0625v-14.8438c0-5.3738-4.3762-9.75-9.75-9.75z"
     transform="translate(100)"
     id="path127" />
  <path
     opacity=".25"
     d="m48,22.0625c-4.9395,0-8.9375,3.998-8.9375,8.9375v24c0,4.9395 3.998,8.9375 8.9375,8.9375 4.9395,0 8.9375-3.998 8.9375-8.9375v-24c0-4.9395-3.998-8.9375-8.9375-8.9375zm-17.1875,24a.9457,.9457 0 0,0 -.75,.9375v3a.9457,.9457 0 0,0 .9375,.9375h2.0625v4.0625c0,6.7906 4.7258,12.5038 11,14.2812v3.7812h-2.0625a.9457,.9457 0 0,0 -.9375,.9375v3a.9457,.9457 0 0,0 .9375,.9375h12a.9457,.9457 0 0,0 .9375-.9375v-3a.9457,.9457 0 0,0 -.9375-.9375h-2.0625v-3.7812c6.2742-1.7775 11-7.4907 11-14.2812v-4.0625h2.0625a.9457,.9457 0 0,0 .9375-.9375v-3a.9457,.9457 0 0,0 -.9375-.9375h-3-1-1.9688a.9457,.9457 0 0,0 -.9375,.9375v8c0,5.5452-4.5485,10.0938-10.0938,10.0938-5.5452,0-10.0938-4.5485-10.0938-10.0938v-8a.9457,.9457 0 0,0 -.9375-.9375h-1.9688-1-3a.9457,.9457 0 0,0 -.1875,0z"
     transform="translate(100)"
     id="path129" />
  <path
     opacity=".6"
     d="m148,23c-4.432,0-8,3.568-8,8v24c0,4.432 3.568,8 8,8 4.432,0 8-3.568 8-8v-24c0-4.432-3.568-8-8-8zm-17,24 0,3 3,0 0,5c0,6.6119 4.7704,12.25 11,13.6562v5.3438h-3v3h12v-3h-3v-5.3438c6.2296-1.4062 11-7.0444 11-13.6562v-5h3v-3h-3-1-1.9688v8c0,6.062-4.9693,11.0312-11.0312,11.0312-6.062,0-11.0312-4.9693-11.0312-11.0312v-8h-1.9688-1-3z"
     id="path131" />
  <path
     filter="url(#filter3680)"
     d="m40.1786,68.0536a12.0536,11.875 0 1,1 -24.1071,0 12.0536,11.875 0 1,1 24.1071,0z"
     transform="matrix(.99556 0 0 1.01053 -104 4.23007)"
     id="path133" />
  <path
     fill="url(#radialGradient3691)"
     d="m40.1786,68.0536a12.0536,11.875 0 1,1 -24.1071,0 12.0536,11.875 0 1,1 24.1071,0z"
     transform="matrix(.99556 0 0 -1.01053 -104 140.76992)"
     id="path135" />
  <path
     fill="url(#linearGradient3636)"
     d="m148,22c-4.432,0-8,3.568-8,8v24c0,4.432 3.568,8 8,8 4.432,0 8-3.568 8-8v-24c0-4.432-3.568-8-8-8zm-17,24 0,3 3,0 0,5c0,6.6119 4.7704,12.25 11,13.6562v5.3438h-3v3h12v-3h-3v-5.3438c6.2296-1.4062 11-7.0444 11-13.6562v-5h3v-3h-3-1-1.9688v8c0,6.062-4.9693,11.0312-11.0312,11.0312-6.062,0-11.0312-4.9693-11.0312-11.0312v-8h-1.9688-1-3z"
     id="path137" />
  <path
     fill="#fff"
     d="m148,22c-4.432,0-8,3.568-8,8v2c0-4.432 3.568-8 8-8 4.432,0 8,3.568 8,8v-2c0-4.432-3.568-8-8-8zm-17,24 0,2 3,0 1,0 1.9688,0 0-2-1.9688,0-1,0-3,0zm28.0312,0 0,2 1.9688,0 1,0 3,0 0-2-3,0-1,0-1.9688,0zm-22.0625,8 0,2c0,6.062 4.9693,11.0312 11.0312,11.0312 6.062,0 11.0312-4.9693 11.0312-11.0312v-2c0,6.062-4.9693,11.0312-11.0312,11.0312-6.062,0-11.0312-4.9693-11.0312-11.0312zm5.0312,19v2h3v-2h-3zm9,0 0,2 3,0 0-2-3,0z"
     id="path139" />
  <path
     filter="url(#filter3680)"
     d="m40.1786,68.0536a12.0536,11.875 0 1,1 -24.1071,0 12.0536,11.875 0 1,1 24.1071,0z"
     transform="matrix(.99556 0 0 1.01053 -64 4.23007)"
     id="path141" />
  <path
     fill="url(#radialGradient2871)"
     d="m40.1786,68.0536a12.0536,11.875 0 1,1 -24.1071,0 12.0536,11.875 0 1,1 24.1071,0z"
     transform="matrix(.99556 0 0 1.01053 -64 3.23007)"
     id="path143" />
  <path
     opacity=".3"
     fill="#fea"
     d="m-36,84c-6.6274,0-12-5.3726-12-12 0-.3401 .0348-.6671 .0625-1 .5128,6.1549 5.6501,11 11.9375,11 6.2874,0 11.4247-4.8451 11.9375-11 .0277,.3329 .0625,.6599 .0625,1 0,6.6274-5.3726,12-12,12z"
     id="path145" />
  <path
     opacity=".8"
     fill="url(#linearGradient2873)"
     d="m40.1786,68.0536a12.0536,11.875 0 1,1 -24.1071,0 12.0536,11.875 0 1,1 24.1071,0z"
     transform="matrix(0 .46222 -.73985 0 14.34941 53.28571)"
     id="path147" />
  <path
     opacity=".3"
     fill="url(#linearGradient3679)"
     d="m40.1786,68.0536a12.0536,11.875 0 1,1 -24.1071,0 12.0536,11.875 0 1,1 24.1071,0z"
     transform="matrix(0 .99556 1.01053 0 -144.76993 43.99999)"
     id="path149" />
  <path
     fill="#730000"
     d="m-76,60c-6.6274,0-12,5.3726-12,12 0,6.6274 5.3726,12 12,12 6.6274,0 12-5.3726 12-12 0-6.6274-5.3726-12-12-12zm0,.9688c6.1144,0 11.0312,4.9412 11.0312,11.0312 0,6.09-4.9168,11-11.0312,11-6.1144,0-11.0312-4.91-11.0312-11 0-6.09 4.9168-11.0312 11.0312-11.0312z"
     id="path151" />
  <path
     opacity=".3"
     fill="#ffe680"
     d="m-76,61c-6.0751,0-11,4.9249-11,11 0,.2956 .0396,.5853 .0625,.875 .5633-5.5468 5.2421-9.875 10.9375-9.875 5.6954,0 10.3742,4.3282 10.9375,9.875 .0229-.2897 .0625-.5794 .0625-.875 0-6.0751-4.9249-11-11-11z"
     id="path153" />
  <path
     fill="#fff"
     color="#000"
     d="M 41.7812,16.8125 C 28.978,20.2431 21.3818,33.4156 24.8124,46.2187 l 3.9062,-1.0312 C 28.2726,43.5281 27.9998,41.8003 27.9998,40 c 0,-11.0457 8.9543,-20 20,-20 11.0457,0 20,8.9543 20,20 0,1.8003 -0.2727,3.5281 -0.7188,5.1875 l 3.9062,1.0312 c 1.0904,-4.0693 1.0904,-8.3682 0,-12.4375 C 68.2926,22.9785 60.7245,17.9995 53.4175,16.4868 47.2146,15.2027 43.7817,16.2765 41.7812,16.8125 Z M 30.25,48.0312 25.4062,49.3437 c -2.6756,0.7169 -4.2482,3.4494 -3.5312,6.125 l 2.5938,9.6562 c 0.7169,2.6756 3.4494,4.2482 6.125,3.5312 l 4.8125,-1.2812 -5.1562,-19.3438 z m 35.625,0 -5.1562,19.3438 4.8125,1.2812 c 2.6756,0.7169 5.4081,-0.8556 6.125,-3.5312 l 2.5938,-9.6562 c 0.7169,-2.6756 -0.8556,-5.4081 -3.5312,-6.125 l -4.8438,-1.3125 z"
     id="path155"
     inkscape:connector-curvature="0"
     sodipodi:nodetypes="cccssscccsccccccccccccccccc" />
</svg>
