<?xml version="1.0" encoding="UTF-8" standalone="no"?>
<svg
   xmlns:dc="http://purl.org/dc/elements/1.1/"
   xmlns:cc="http://creativecommons.org/ns#"
   xmlns:rdf="http://www.w3.org/1999/02/22-rdf-syntax-ns#"
   xmlns:svg="http://www.w3.org/2000/svg"
   xmlns="http://www.w3.org/2000/svg"
   xmlns:xlink="http://www.w3.org/1999/xlink"
   xmlns:sodipodi="http://sodipodi.sourceforge.net/DTD/sodipodi-0.dtd"
   xmlns:inkscape="http://www.inkscape.org/namespaces/inkscape"
   viewBox="0 0 96 96"
   id="svg2"
   version="1.1"
   inkscape:version="0.91 r"
   sodipodi:docname="autoplus.svg">
  <title
     id="title96">autoplus</title>
  <metadata
     id="metadata91">
    <rdf:RDF>
      <cc:Work
         rdf:about="">
        <dc:format>image/svg+xml</dc:format>
        <dc:type
           rdf:resource="http://purl.org/dc/dcmitype/StillImage" />
        <dc:title>autoplus</dc:title>
        <dc:subject>
          <rdf:Bag>
            <rdf:li>autoplus</rdf:li>
            <rdf:li>fedora</rdf:li>
            <rdf:li>logo</rdf:li>
          </rdf:Bag>
        </dc:subject>
        <dc:description>autoplus, fedora, logo</dc:description>
      </cc:Work>
    </rdf:RDF>
  </metadata>
  <sodipodi:namedview
     pagecolor="#ffffff"
     bordercolor="#666666"
     borderopacity="1"
     objecttolerance="10"
     gridtolerance="10"
     guidetolerance="10"
     inkscape:pageopacity="0"
     inkscape:pageshadow="2"
     inkscape:window-width="1280"
     inkscape:window-height="965"
     id="namedview89"
     showgrid="false"
     inkscape:zoom="3.47661"
     inkscape:cx="-9.58997"
     inkscape:cy="74.757"
     inkscape:window-x="0"
     inkscape:window-y="27"
     inkscape:window-maximized="1"
     inkscape:current-layer="svg2" />
  <defs
     id="defs4">
    <clipPath
       id="clipPath3613">
      <path
         fill="#fff"
         d="m12,6h72a6,6 0 0,1 6,6v72a6,6 0 0,1 -6,6h-72a6,6 0 0,1 -6-6v-72a6,6 0 0,1 6-6"
         id="path7" />
    </clipPath>
    <filter
       width="1.384"
       x="-.192"
       y="-.192"
       height="1.384"
       color-interpolation-filters="sRGB"
       id="filter3794">
      <feGaussianBlur
         stdDeviation="5.28"
         id="feGaussianBlur10" />
    </filter>
    <linearGradient
       id="linearGradient3925-3">
      <stop
         offset="0"
         stop-color="#3c6eb4"
         id="stop13" />
      <stop
         offset="1"
         stop-color="#81a4d5"
         id="stop15" />
    </linearGradient>
    <linearGradient
       gradientTransform="matrix(1.02381 0 0 1.0119 -1.14286 -98.07143)"
       id="linearGradient3780"
       xlink:href="#ButtonShadow-0"
       y1="6.132"
       y2="90.239"
       x2="0"
       gradientUnits="userSpaceOnUse" />
    <linearGradient
       gradientTransform="translate(0 -97)"
       id="linearGradient3721"
       xlink:href="#ButtonShadow-0"
       y1="6.132"
       y2="90.239"
       x2="0"
       gradientUnits="userSpaceOnUse" />
    <linearGradient
       id="linearGradient3121"
       xlink:href="#linearGradient3925-3"
       y1="90"
       y2="5.988"
       x2="0"
       gradientUnits="userSpaceOnUse" />
    <linearGradient
       gradientTransform="matrix(1.00587 0 0 .99417 100 0)"
       id="ButtonShadow-0"
       y1="92.54"
       y2="7.017"
       x2="0"
       gradientUnits="userSpaceOnUse">
      <stop
         offset="0"
         id="stop21" />
      <stop
         offset="1"
         stop-opacity=".588"
         id="stop23" />
    </linearGradient>
    <linearGradient
       id="linearGradient3188"
       xlink:href="#linearGradient3737"
       y1="6"
       y2="63.893"
       x2="0"
       gradientUnits="userSpaceOnUse" />
    <linearGradient
       id="linearGradient3737">
      <stop
         offset="0"
         stop-color="#fff"
         id="stop27" />
      <stop
         offset="1"
         stop-color="#fff"
         stop-opacity="0"
         id="stop29" />
    </linearGradient>
    <linearGradient
       id="linearGradient3613"
       xlink:href="#linearGradient3737"
       y1="20.221"
       y2="138.661"
       x2="0"
       gradientUnits="userSpaceOnUse" />
    <radialGradient
       cx="115.899"
       cy="133.105"
       r="154.62"
       id="radialGradient3897"
       gradientUnits="userSpaceOnUse">
      <stop
         offset="0"
         stop-color="#294172"
         stop-opacity=".374"
         id="stop33" />
      <stop
         offset="1"
         stop-color="#294172"
         id="stop35" />
    </radialGradient>
    <radialGradient
       cx="48"
       cy="48"
       r="35.25"
       id="radialGradient3891"
       xlink:href="#radialGradient3897"
       gradientUnits="userSpaceOnUse" />
    <radialGradient
       cx="48"
       cy="90.172"
       gradientTransform="matrix(1.15731,0,0,0.99591,-7.55102,0.19713)"
       r="42"
       id="radialGradient3619"
       xlink:href="#linearGradient3737"
       gradientUnits="userSpaceOnUse" />
  </defs>
  <path
     opacity=".08"
     fill="url(#linearGradient3780)"
     d="m12-95.0312c-5.5111,0-10.0312,4.5202-10.0312,10.0312v71c0,5.5111 4.5202,10.0312 10.0312,10.0312h72c5.5111,0 10.0312-4.5202 10.0312-10.0312v-71c0-5.5111-4.5202-10.0312-10.0312-10.0312h-72z"
     transform="scale(1 -1)"
     id="path39" />
  <path
     opacity=".1"
     fill="url(#linearGradient3780)"
     d="m12-94.0312c-4.9716,0-9.0312,4.0596-9.0312,9.0312v71c0,4.9716 4.0596,9.0312 9.0312,9.0312h72c4.9716,0 9.0312-4.0596 9.0312-9.0312v-71c0-4.9716-4.0596-9.0312-9.0312-9.0312h-72z"
     transform="scale(1 -1)"
     id="path41" />
  <path
     opacity=".2"
     fill="url(#linearGradient3780)"
     d="m12-93c-4.4091,0-8,3.5909-8,8v71c0,4.4091 3.5909,8 8,8h72c4.4091,0 8-3.5909 8-8v-71c0-4.4091-3.5909-8-8-8h-72z"
     transform="scale(1 -1)"
     id="path43" />
  <path
     opacity=".3"
     fill="url(#linearGradient3780)"
     d="m12-92h72a7,7 0 0,1 7,7v71a7,7 0 0,1 -7,7h-72a7,7 0 0,1 -7-7v-71a7,7 0 0,1 7-7"
     transform="scale(1 -1)"
     id="path45" />
  <path
     opacity=".45"
     fill="url(#linearGradient3721)"
     d="m12-91h72a6,6 0 0,1 6,6v72a6,6 0 0,1 -6,6h-72a6,6 0 0,1 -6-6v-72a6,6 0 0,1 6-6"
     transform="scale(1 -1)"
     id="path47" />
  <path
     fill="url(#linearGradient3121)"
     d="m12,6h72a6,6 0 0,1 6,6v72a6,6 0 0,1 -6,6h-72a6,6 0 0,1 -6-6v-72a6,6 0 0,1 6-6"
     id="path49" />
  <path
     style="opacity:0.35;fill:url(#linearGradient3188)"
     d="M 12,6 C 8.11425,5.86322 5.41842,9.7916 6,13.4226 6.01817,37.1117 5.96368,60.8028 6.02721,84.4906 5.28209,86.8321 10.5384,90.3041 9.3125,89.2189 6.06848,87.1934 7.20936,83.0941 7,79.918 7.01709,57.4408 6.96584,34.9619 7.02559,12.4857 7.23712,9.18528 10.6966,7.53718 13.6597,8.0003 37.2778,8.01738 60.8976,7.96615 84.5146,8.02589 87.815,8.23742 89.4631,11.6969 89,14.66 c -0.023,23.6263 0.047,47.2557 -0.035,70.8801 0.6395,2.1759 -4.9497,5.3487 -1.452,3.2815 3.5336,-2.4814 2.2373,-6.9817 2.4873,-10.6151 -0.021,-22.2736 0.041,-44.5493 -0.031,-66.8216 C 89.7162,7.60958 85.8109,5.47608 82.3404,6.0001 58.8936,6.00003 35.4467,6.00023 12,6 Z"
     id="path51"
     inkscape:connector-curvature="0" />
  <path
     style="opacity:0.2;fill:url(#radialGradient3619)"
     d="M 12,90 C 8.11425,90.1368 5.41842,86.2084 6,82.5774 6.01817,58.8883 5.96368,35.1972 6.02721,11.5094 5.28209,9.16789 10.5384,5.69592 9.3125,6.7811 6.06848,8.80663 7.20936,12.9059 7,16.082 c 0.0171,22.4772 -0.0342,44.9561 0.0256,67.4323 0.21153,3.3004 3.67101,4.9485 6.63411,4.4854 23.6181,-0.017 47.2379,0.034 70.8549,-0.026 3.3004,-0.2115 4.9485,-3.671 4.4854,-6.6341 -0.023,-23.6263 0.047,-47.2557 -0.035,-70.8801 0.6395,-2.17591 -4.9497,-5.34874 -1.452,-3.28154 3.5336,2.48139 2.2373,6.98174 2.4873,10.61514 -0.021,22.2736 0.041,44.5493 -0.031,66.8216 -0.253,3.7753 -4.1583,5.9088 -7.6288,5.3848 C 58.8936,90 35.4467,89.9998 12,90 Z"
     id="path53"
     inkscape:connector-curvature="0" />
  <path
     opacity=".1"
     fill="url(#linearGradient3613)"
     filter="url(#filter3794)"
     stroke="#fff"
     stroke-linecap="round"
     stroke-width=".5"
     d="m27,15h42a12,12 0 0,1 12,12v42a12,12 0 0,1 -12,12h-42a12,12 0 0,1 -12-12v-42a12,12 0 0,1 12-12"
     clip-path="url(#clipPath3613)"
     id="path55" />
  <g
     color="#000"
     id="g57">
    <path
       fill="url(#radialGradient3891)"
       d="m40.625,12.75c-4.4789,.9333-8.6446,2.7274-12.3438,5.1562 .1078,2.6954-.8512,5.4137-2.9062,7.4688-2.0551,2.0551-4.7733,3.0141-7.4688,2.9062-2.4288,3.6992-4.2229,7.8648-5.1562,12.3438 1.9982,1.8284 3.25,4.4531 3.25,7.375 0,2.9219-1.2518,5.5466-3.25,7.375 .9333,4.4789 2.7274,8.6446 5.1562,12.3438 2.6954-.1078 5.4137,.8512 7.4688,2.9062 2.0551,2.0551 3.0141,4.7733 2.9062,7.4688 3.6992,2.4288 7.8648,4.2229 12.3438,5.1562 1.8284-1.9982 4.4531-3.25 7.375-3.25 2.9219,0 5.5466,1.2518 7.375,3.25 4.4644-.9303 8.6222-2.7083 12.3125-5.125-.0063-.1443 0-.2932 0-.4375 0-2.5592 .9849-5.1099 2.9375-7.0625 2.0551-2.0551 4.7733-3.0141 7.4688-2.9062 2.4288-3.6992 4.2229-7.8648 5.1562-12.3438-1.9982-1.8284-3.25-4.4531-3.25-7.375 0-2.9219 1.2518-5.5466 3.25-7.375-.9333-4.4789-2.7274-8.6446-5.1562-12.3438-2.6954,.1078-5.4137-.8512-7.4688-2.9062-1.9526-1.9526-2.9375-4.5033-2.9375-7.0625 0-.1443-.0063-.2932 0-.4375-3.6903-2.4167-7.8481-4.1947-12.3125-5.125-1.8284,1.9982-4.4531,3.25-7.375,3.25-2.9219,0-5.5466-1.2518-7.375-3.25z"
       id="path59" />
    <path
       opacity=".05"
       d="m40.625,12.75c-4.4789,.9333-8.6446,2.7274-12.3438,5.1562 .1078,2.6954-.8512,5.4137-2.9062,7.4688-2.0551,2.0551-4.7733,3.0141-7.4688,2.9062-2.4288,3.6992-4.2229,7.8648-5.1562,12.3438 1.9982,1.8284 3.25,4.4531 3.25,7.375 0,2.9219-1.2518,5.5466-3.25,7.375 .9333,4.4789 2.7274,8.6446 5.1562,12.3438 2.6954-.1078 5.4137,.8512 7.4688,2.9062 2.0551,2.0551 3.0141,4.7733 2.9062,7.4688 3.6992,2.4288 7.8648,4.2229 12.3438,5.1562 1.8284-1.9982 4.4531-3.25 7.375-3.25 2.9219,0 5.5466,1.2518 7.375,3.25 4.4644-.9303 8.6222-2.7083 12.3125-5.125-.0063-.1443 0-.2932 0-.4375 0-2.5592 .9849-5.1099 2.9375-7.0625 2.0551-2.0551 4.7733-3.0141 7.4688-2.9062 2.4288-3.6992 4.2229-7.8648 5.1562-12.3438-1.9982-1.8284-3.25-4.4531-3.25-7.375 0-2.9219 1.2518-5.5466 3.25-7.375-.9333-4.4789-2.7274-8.6446-5.1562-12.3438-2.6954,.1078-5.4137-.8512-7.4688-2.9062-1.9526-1.9526-2.9375-4.5033-2.9375-7.0625 0-.1443-.0063-.2932 0-.4375-3.6903-2.4167-7.8481-4.1947-12.3125-5.125-1.8284,1.9982-4.4531,3.25-7.375,3.25-2.9219,0-5.5466-1.2518-7.375-3.25zm-.625,2.8438c2.1765,1.8171 4.9563,2.9375 8,2.9375 3.0437,0 5.8235-1.1204 8-2.9375 3.3494,.8307 6.5311,2.1444 9.4062,3.9062 .2742,2.7946 1.3126,5.5313 3.4375,7.6562 2.1415,2.1415 4.8835,3.3019 7.6875,3.5625 1.7378,2.8522 3.0519,5.9691 3.875,9.2812-1.8171,2.1765-2.9375,4.9563-2.9375,8 0,3.0437 1.1204,5.8235 2.9375,8-.8231,3.3121-2.1372,6.4291-3.875,9.2812-2.804,.2606-5.546,1.421-7.6875,3.5625-2.1249,2.1249-3.1633,4.8616-3.4375,7.6562-2.8751,1.7618-6.0569,3.0755-9.4062,3.9062-2.1765-1.8171-4.9563-2.9375-8-2.9375-3.0437,0-5.8235,1.1204-8,2.9375-3.3121-.8231-6.4291-2.1372-9.2812-3.875-.2606-2.804-1.421-5.546-3.5625-7.6875-2.1415-2.1415-4.8835-3.3019-7.6875-3.5625-1.7378-2.8522-3.0519-5.9691-3.875-9.2812 1.8171-2.1765 2.9375-4.9563 2.9375-8 0-3.0437-1.1204-5.8235-2.9375-8 .8231-3.3121 2.1372-6.4291 3.875-9.2812 2.804-.2606 5.546-1.421 7.6875-3.5625 2.1415-2.1415 3.3019-4.8835 3.5625-7.6875 2.8522-1.7378 5.9691-3.0519 9.2812-3.875z"
       id="path61" />
  </g>
  <g
     fill="#0a57a4"
     id="g63">
    <path
       opacity=".1"
       d="m58.4062,24.1562c-7.9756,0-14.4688,6.46-14.4688,14.4375v.0312 6.3438h-6.3438c-7.9754,0-14.4375,6.4628-14.4375,14.4375 0,7.9758 6.4624,14.4375 14.4375,14.4375 7.9745,0 14.4688-6.4593 14.4688-14.4375v-.0312-6.375h6.3438c7.9722,0 14.4375-6.4315 14.4375-14.4062 0-7.9752-6.463-14.4375-14.4375-14.4375zm0,8.125c3.5081,0 6.3438,2.8082 6.3438,6.3125 0,3.5038-2.8446,6.375-6.3438,6.375h-.0312-6.1562c-.1138,0-.1562-.0421-.1562-.1562v-6.2188c.0059-3.5001 2.8407-6.3125 6.3438-6.3125zm-20.8125,20.7188h.0312 6.1562c.1124,0 .1562,.0445 .1562,.1562v6.25c-.005,3.4973-2.8412,6.3125-6.3438,6.3125-3.508,0-6.3438-2.8089-6.3438-6.3125 0-3.5051 2.849-6.4062 6.3438-6.4062z"
       id="path65" />
    <path
       opacity=".3"
       d="m58.3943,24.9998c-7.5151,0-13.6066,6.0918-13.6066,13.6064 0,.0025 0,.006 0,.0094v7.2014h-7.1794c-.0011,0-.0011,0-.0018,0-7.5149,0-13.6064,6.0621-13.6064,13.5763 0,7.5153 6.0918,13.6069 13.6064,13.6069 7.514,0 13.6057-6.0915 13.6057-13.6069 0-.0028 0-.0053 0-.0094v-7.2313h7.1791c.0016,0 .0023,0 .003,0 7.514,0 13.6057-6.0323 13.6057-13.5464 0-7.5146-6.0918-13.6064-13.6057-13.6064zm-13.6067,34.4065c-.0057,3.9595-3.2194,7.1695-7.1812,7.1695-3.966,0-7.2109-3.2152-7.2109-7.1812 0-3.9674 3.2449-7.2421 7.2109-7.2421 .0032,0 .0064,0 .0094,0h6.1536c.0021,0 .0032,0 .0046,0 .5602,0 1.0145,.4534 1.0145,1.0127 0,.0011-.0007,.0011-.0007,.0025v6.2386h-.0002zm13.606-13.5892c-.0023,0-.0046,0-.0067,0h-6.1577c-.0014,0-.003,0-.0037,0-.5602,0-1.0134-.4531-1.0134-1.0138v-.0002-6.2085c.0067-3.9618 3.2194-7.1706 7.1814-7.1706 3.966,0 7.2115,3.2155 7.2115,7.1821 0,3.9662-3.2456,7.2111-7.2115,7.2111z"
       id="path67" />
  </g>
  <g
     fill="#5484c6"
     transform="matrix(.22979 0 0 .22979 20.89184 17.12811)"
     id="g69">
    <path
       d="m163.202,29.904c-32.704,0-59.213,26.51-59.213,59.212 0,.011 0,.026 0,.041v31.339h-31.243c-.005,0-.005,0-.008,0-32.703,0-59.212,26.381-59.212,59.081 0,32.705 26.51,59.214 59.212,59.214 32.699,0 59.209-26.509 59.209-59.214 0-.012 0-.023 0-.041v-31.469h31.242c.007,0 .01,0 .013,0 32.699,0 59.209-26.251 59.209-58.951 0-32.702-26.51-59.212-59.209-59.212zm-59.213,149.729c-.025,17.231-14.01,31.2-31.251,31.2-17.259,0-31.38-13.992-31.38-31.251 0-17.265 14.121-31.516 31.38-31.516 .014,0 .028,0 .041,0h26.779c.009,0 .014,0 .02,0 2.438,0 4.415,1.973 4.415,4.407 0,.005-.003,.005-.003,.011v27.149h-.001zm59.21-59.137c-.01,0-.02,0-.029,0h-26.797c-.006,0-.013,0-.016,0-2.438,0-4.41-1.972-4.41-4.412v-.001-27.018c.029-17.241 14.01-31.205 31.252-31.205 17.259,0 31.383,13.993 31.383,31.255 0,17.26-14.124,31.381-31.383,31.381z"
       id="path71" />
  </g>
  <path
     d="m44.7876,44.8171 0-7.2017c0-.0032 0-.0067 0-.0094 0-7.5146 6.0915-13.6064 13.6066-13.6064 1.14,0 1.95,.1285 3.0052,.4047 1.5389,.4035 2.7956,1.6641 2.7963,3.1316 .0007,1.774-1.2871,3.0636-3.2116,3.0636-.9169,0-1.2482-.1756-2.5907-.1756-3.9621,0-7.1748,3.2088-7.1814,7.1706v6.2083 .0002c0,.5607 .4531,1.0138 1.0134,1.0138 .0007,0 .0023,0 .0037,0h4.7158c1.7574,0 3.1766,1.407 3.178,3.1691 0,1.7627-1.4213,3.1665-3.178,3.1665h-5.7328v7.2313c0,.0041 0,.0067 0,.0108 0,7.514-6.0918,13.6055-13.6057,13.6055-1.1402,0-1.9502-.1285-3.0054-.4049-1.5389-.4033-2.7961-1.6646-2.7968-3.1316 0-1.7735 1.2868-3.0636 3.2123-3.0636 .9159,0 1.2482,.1758 2.59,.1758 3.9621,0 7.1757-3.209 7.1819-7.1695 0,0 0-6.2398 0-6.2409 0-.5595-.4543-1.0127-1.0145-1.0127-.0007,0-.0014,0-.0025,0h-4.7156c-1.7579,0-3.1782-1.4024-3.1782-3.1656-.0005-1.7731 1.435-3.1697 3.2116-3.1697h5.6986v-.0002z"
     id="path73"
     fill="#fff" />
  <g
     color="#000"
     id="g75">
    <path
       opacity=".1"
       d="m40.625,12.75c-4.4789,.9333-8.6446,2.7274-12.3438,5.1562 .1078,2.6954-.8512,5.4137-2.9062,7.4688-2.0551,2.0551-4.7733,3.0141-7.4688,2.9062-2.4288,3.6992-4.2229,7.8648-5.1562,12.3438 1.9982,1.8284 3.25,4.4531 3.25,7.375 0,2.9219-1.2518,5.5466-3.25,7.375 .9333,4.4789 2.7274,8.6446 5.1562,12.3438 2.6954-.1078 5.4137,.8512 7.4688,2.9062 2.0551,2.0551 3.0141,4.7733 2.9062,7.4688 3.6992,2.4288 7.8648,4.2229 12.3438,5.1562 1.8284-1.9982 4.4531-3.25 7.375-3.25 2.9219,0 5.5466,1.2518 7.375,3.25 4.4644-.9303 8.6222-2.7083 12.3125-5.125-.0063-.1443 0-.2932 0-.4375 0-2.5592 .9849-5.1099 2.9375-7.0625 2.0551-2.0551 4.7733-3.0141 7.4688-2.9062 2.4288-3.6992 4.2229-7.8648 5.1562-12.3438-1.9982-1.8284-3.25-4.4531-3.25-7.375 0-2.9219 1.2518-5.5466 3.25-7.375-.9333-4.4789-2.7274-8.6446-5.1562-12.3438-2.6954,.1078-5.4137-.8512-7.4688-2.9062-1.9526-1.9526-2.9375-4.5033-2.9375-7.0625 0-.1443-.0063-.2932 0-.4375-3.6903-2.4167-7.8481-4.1947-12.3125-5.125-1.8284,1.9982-4.4531,3.25-7.375,3.25-2.9219,0-5.5466-1.2518-7.375-3.25zm-.2812,2c2.0796,1.8168 4.6871,3.0625 7.6562,3.0625 2.9692,0 5.5766-1.2457 7.6562-3.0625 3.7269,.8588 7.2172,2.3384 10.375,4.3125 .1818,2.7665 1.2094,5.4906 3.3125,7.5938 2.093,2.093 4.7886,3.0604 7.5312,3.25 1.9982,3.1773 3.5093,6.6851 4.375,10.4375-1.8168,2.0796-3.0625,4.6871-3.0625,7.6562 0,2.9692 1.2457,5.5766 3.0625,7.6562-.8657,3.7524-2.3768,7.2602-4.375,10.4375-2.7426,.1896-5.4383,1.157-7.5312,3.25-2.1031,2.1031-3.1307,4.8272-3.3125,7.5938-3.1578,1.9741-6.6481,3.4537-10.375,4.3125-2.0796-1.8168-4.6871-3.0625-7.6562-3.0625-2.9692,0-5.5766,1.2457-7.6562,3.0625-3.7524-.8657-7.2602-2.3768-10.4375-4.375-.1896-2.7426-1.157-5.4383-3.25-7.5312-2.093-2.093-4.7886-3.0604-7.5312-3.25-1.9982-3.1773-3.5093-6.6851-4.375-10.4375 1.8168-2.0796 3.0625-4.6871 3.0625-7.6562 0-2.9692-1.2457-5.5766-3.0625-7.6562 .8657-3.7524 2.3768-7.2602 4.375-10.4375 2.7426-.1896 5.4383-1.157 7.5312-3.25 2.093-2.093 3.0604-4.7886 3.25-7.5312 3.1773-1.9982 6.6851-3.5093 10.4375-4.375z"
       id="path77" />
    <path
       opacity=".3"
       d="m40.625,12.75c-4.4789,.9333-8.6446,2.7274-12.3438,5.1562 .0135,.3369 .0199,.6637 0,1 3.6992-2.4288 7.8648-4.2229 12.3438-5.1562 1.8284,1.9982 4.4531,3.25 7.375,3.25 2.9219,0 5.5466-1.2518 7.375-3.25 4.4644,.9303 8.6222,2.7083 12.3125,5.125-.0063,.1443 0,.2932 0,.4375 0,2.5592 .9849,5.1099 2.9375,7.0625 2.0551,2.0551 4.7733,3.0141 7.4688,2.9062 2.2798,3.4721 3.9943,7.3639 4.9688,11.5312 .0636-.0613 .1223-.1279 .1875-.1875-.9333-4.4789-2.7274-8.6446-5.1562-12.3438-2.6954,.1078-5.4137-.8512-7.4688-2.9062-1.9526-1.9526-2.9375-4.5033-2.9375-7.0625 0-.1443-.0063-.2932 0-.4375-3.6903-2.4167-7.8481-4.1947-12.3125-5.125-1.8284,1.9982-4.4531,3.25-7.375,3.25-2.9219,0-5.5466-1.2518-7.375-3.25zm-12.3438,6.1562c-.1394,2.3541-1.1081,4.6706-2.9062,6.4688-2.0551,2.0551-4.7733,3.0141-7.4688,2.9062-2.4288,3.6992-4.2229,7.8648-5.1562,12.3438 .0652,.0596 .1239,.1262 .1875,.1875 .9744-4.1674 2.689-8.0591 4.9688-11.5312 2.6954,.1078 5.4137-.8512 7.4688-2.9062 2.0551-2.0551 3.0141-4.7733 2.9062-7.4688zm-12.3125,29.5938c-.1334,2.7213-1.3348,5.1511-3.2188,6.875 .0573,.2749 .1238,.54 .1875,.8125 1.8854-1.8185 3.0625-4.3609 3.0625-7.1875 0-.167-.0232-.335-.0312-.5zm64.0625,0c-.0081,.165-.0312,.333-.0312,.5 0,2.8266 1.1771,5.369 3.0625,7.1875 .0637-.2725 .1302-.5376 .1875-.8125-1.8839-1.7239-3.0854-4.1537-3.2188-6.875z"
       id="path79" />
    <path
       opacity=".15"
       d="m40.625,12.75c-4.4789,.9333-8.6446,2.7274-12.3438,5.1562 .1078,2.6954-.8512,5.4137-2.9062,7.4688-2.0551,2.0551-4.7733,3.0141-7.4688,2.9062-2.4288,3.6992-4.2229,7.8648-5.1562,12.3438 1.9982,1.8284 3.25,4.4531 3.25,7.375 0,2.9219-1.2518,5.5466-3.25,7.375 .9333,4.4789 2.7274,8.6446 5.1562,12.3438 2.6954-.1078 5.4137,.8512 7.4688,2.9062 2.0551,2.0551 3.0141,4.7733 2.9062,7.4688 3.6992,2.4288 7.8648,4.2229 12.3438,5.1562 1.8284-1.9982 4.4531-3.25 7.375-3.25 2.9219,0 5.5466,1.2518 7.375,3.25 4.4644-.9303 8.6222-2.7083 12.3125-5.125-.0063-.1443 0-.2932 0-.4375 0-2.5592 .9849-5.1099 2.9375-7.0625 2.0551-2.0551 4.7733-3.0141 7.4688-2.9062 2.4288-3.6992 4.2229-7.8648 5.1562-12.3438-1.9982-1.8284-3.25-4.4531-3.25-7.375 0-2.9219 1.2518-5.5466 3.25-7.375-.9333-4.4789-2.7274-8.6446-5.1562-12.3438-2.6954,.1078-5.4137-.8512-7.4688-2.9062-1.9526-1.9526-2.9375-4.5033-2.9375-7.0625 0-.1443-.0063-.2932 0-.4375-3.6903-2.4167-7.8481-4.1947-12.3125-5.125-1.8284,1.9982-4.4531,3.25-7.375,3.25-2.9219,0-5.5466-1.2518-7.375-3.25zm-.1875,1c1.9621,1.9143 4.6087,3.1562 7.5625,3.1562 2.9622,0 5.6302-1.2323 7.5938-3.1562 4.0465,.8967 7.8262,2.4922 11.2188,4.6562 .025,2.7548 1.0914,5.4977 3.1875,7.5938 2.0832,2.0832 4.7983,3.0867 7.5312,3.125 2.193,3.4195 3.8171,7.2279 4.7188,11.3125-1.9143,1.9621-3.1562,4.6087-3.1562,7.5625 0,2.9538 1.2419,5.6004 3.1562,7.5625-.9017,4.0846-2.5257,7.893-4.7188,11.3125-2.733,.0383-5.4481,1.0418-7.5312,3.125-2.0961,2.0961-3.1625,4.8389-3.1875,7.5938-3.3925,2.164-7.1723,3.7596-11.2188,4.6562-1.9635-1.9239-4.6316-3.1562-7.5938-3.1562-2.9538,0-5.6004,1.2419-7.5625,3.1562-4.0846-.9017-7.893-2.5257-11.3125-4.7188-.0383-2.733-1.0418-5.4481-3.125-7.5312-2.0832-2.0832-4.7983-3.0867-7.5312-3.125-2.193-3.4195-3.8171-7.2279-4.7188-11.3125 1.9143-1.9621 3.1562-4.6087 3.1562-7.5625 0-2.9538-1.2419-5.6004-3.1562-7.5625 .9017-4.0846 2.5257-7.893 4.7188-11.3125 2.733-.0383 5.4481-1.0418 7.5312-3.125 2.0832-2.0832 3.0867-4.7983 3.125-7.5312 3.4195-2.193 7.2279-3.8171 11.3125-4.7188z"
       id="path81" />
    <path
       opacity=".2"
       fill="#fff"
       d="m12.9375,40.8125c-.0637,.2725-.1302,.5376-.1875,.8125 1.8839,1.7239 3.0854,4.1537 3.2188,6.875 .0081-.165 .0312-.333 .0312-.5 0-2.8266-1.1771-5.369-3.0625-7.1875zm70.125,0c-1.8854,1.8185-3.0625,4.3609-3.0625,7.1875 0,.167 .0232,.335 .0312,.5 .1334-2.7213 1.3348-5.1511 3.2188-6.875-.0573-.2749-.1238-.54-.1875-.8125zm-70.125,15.375c-.0635,.0613-.1223,.1279-.1875,.1875 .9333,4.4789 2.7274,8.6446 5.1562,12.3438 2.6954-.1078 5.4137,.8512 7.4688,2.9062 1.7982,1.7982 2.7668,4.1146 2.9062,6.4688 .1078-2.6954-.8512-5.4137-2.9062-7.4688-2.0551-2.0551-4.7733-3.0141-7.4688-2.9062-2.2798-3.4721-3.9943-7.3639-4.9688-11.5312zm15.3438,21.9062c.0199,.3363 .0135,.6631 0,1 3.6992,2.4288 7.8648,4.2229 12.3438,5.1562 1.8284-1.9982 4.4531-3.25 7.375-3.25 2.9219,0 5.5466,1.2518 7.375,3.25 4.4644-.9303 8.6222-2.7083 12.3125-5.125-.0063-.1443 0-.2932 0-.4375 0-2.5592 .9849-5.1099 2.9375-7.0625 2.0551-2.0551 4.7733-3.0141 7.4688-2.9062 2.4288-3.6992 4.2229-7.8648 5.1562-12.3438-.0652-.0596-.1239-.1262-.1875-.1875-.9744,4.1674-2.689,8.0591-4.9688,11.5312-2.6954-.1078-5.4137,.8512-7.4688,2.9062-1.9526,1.9526-2.9375,4.5033-2.9375,7.0625 0,.1443-.0063,.2932 0,.4375-3.6903,2.4167-7.8481,4.1947-12.3125,5.125-1.8284-1.9982-4.4531-3.25-7.375-3.25-2.9219,0-5.5466,1.2518-7.375,3.25-4.4789-.9333-8.6446-2.7274-12.3438-5.1562z"
       id="path83" />
    <path
       fill="#294172"
       d="m104,0h16v16h-16z"
       id="path85" />
    <path
       fill="#3c6eb4"
       d="m104,24h16v16h-16z"
       id="path87" />
  </g>
</svg>
