<?xml version="1.0" encoding="UTF-8" standalone="no"?>
<svg
   xmlns:dc="http://purl.org/dc/elements/1.1/"
   xmlns:cc="http://creativecommons.org/ns#"
   xmlns:rdf="http://www.w3.org/1999/02/22-rdf-syntax-ns#"
   xmlns:svg="http://www.w3.org/2000/svg"
   xmlns="http://www.w3.org/2000/svg"
   xmlns:xlink="http://www.w3.org/1999/xlink"
   xmlns:sodipodi="http://sodipodi.sourceforge.net/DTD/sodipodi-0.dtd"
   xmlns:inkscape="http://www.inkscape.org/namespaces/inkscape"
   viewBox="0 0 96 96"
   id="svg2"
   version="1.1"
   inkscape:version="0.91 r"
   sodipodi:docname="deadbeef.svg">
  <title
     id="title80">deadbeef</title>
  <metadata
     id="metadata75">
    <rdf:RDF>
      <cc:Work
         rdf:about="">
        <dc:format>image/svg+xml</dc:format>
        <dc:type
           rdf:resource="http://purl.org/dc/dcmitype/StillImage" />
        <dc:title>deadbeef</dc:title>
        <dc:subject>
          <rdf:Bag>
            <rdf:li>deadbeef</rdf:li>
            <rdf:li>audioplayer</rdf:li>
            <rdf:li>music</rdf:li>
          </rdf:Bag>
        </dc:subject>
        <dc:description>deadbeef, audioplayer, music</dc:description>
      </cc:Work>
    </rdf:RDF>
  </metadata>
  <sodipodi:namedview
     pagecolor="#ffffff"
     bordercolor="#666666"
     borderopacity="1"
     objecttolerance="10"
     gridtolerance="10"
     guidetolerance="10"
     inkscape:pageopacity="0"
     inkscape:pageshadow="2"
     inkscape:window-width="1280"
     inkscape:window-height="965"
     id="namedview73"
     showgrid="false"
     inkscape:zoom="9.83333"
     inkscape:cx="47.2304"
     inkscape:cy="56.7485"
     inkscape:window-x="0"
     inkscape:window-y="27"
     inkscape:window-maximized="1"
     inkscape:current-layer="svg2" />
  <defs
     id="defs4">
    <clipPath
       id="clipPath3613">
      <path
         fill="#fff"
         d="m12,6h72a6,6 0 0,1 6,6v72a6,6 0 0,1 -6,6h-72a6,6 0 0,1 -6-6v-72a6,6 0 0,1 6-6"
         id="path7" />
    </clipPath>
    <filter
       width="1.384"
       x="-.192"
       y="-.192"
       height="1.384"
       color-interpolation-filters="sRGB"
       id="filter3794">
      <feGaussianBlur
         stdDeviation="5.28"
         id="feGaussianBlur10" />
    </filter>
    <linearGradient
       gradientTransform="translate(0 -97)"
       id="linearGradient3721"
       xlink:href="#ButtonShadow-0"
       y1="6.132"
       y2="90.239"
       x2="0"
       gradientUnits="userSpaceOnUse" />
    <linearGradient
       id="linearGradient3617"
       xlink:href="#linearGradient3700"
       y1="80"
       y2="16"
       x2="0"
       gradientUnits="userSpaceOnUse" />
    <linearGradient
       gradientTransform="matrix(1.02381 0 0 1.0119 -1.14286 -98.07143)"
       id="linearGradient3780"
       xlink:href="#ButtonShadow-0"
       y1="6.132"
       y2="90.239"
       x2="0"
       gradientUnits="userSpaceOnUse" />
    <linearGradient
       gradientTransform="matrix(1.00587 0 0 .99417 100 0)"
       id="ButtonShadow-0"
       y1="92.54"
       y2="7.017"
       x2="0"
       gradientUnits="userSpaceOnUse">
      <stop
         offset="0"
         id="stop16" />
      <stop
         offset="1"
         stop-opacity=".588"
         id="stop18" />
    </linearGradient>
    <linearGradient
       gradientTransform="translate(-1)"
       id="linearGradient3685"
       xlink:href="#linearGradient3679"
       y1="80"
       y2="16"
       x2="0"
       gradientUnits="userSpaceOnUse" />
    <linearGradient
       id="linearGradient3679">
      <stop
         offset="0"
         stop-color="#d8d5cc"
         id="stop22" />
      <stop
         offset="1"
         stop-color="#40474b"
         id="stop24" />
    </linearGradient>
    <linearGradient
       id="linearGradient3700">
      <stop
         offset="0"
         stop-color="#5c6061"
         id="stop27" />
      <stop
         offset="1"
         stop-color="#bab5af"
         id="stop29" />
    </linearGradient>
    <linearGradient
       id="linearGradient3737">
      <stop
         offset="0"
         stop-color="#fff"
         id="stop32" />
      <stop
         offset="1"
         stop-color="#fff"
         stop-opacity="0"
         id="stop34" />
    </linearGradient>
    <linearGradient
       id="linearGradient3188"
       xlink:href="#linearGradient3737"
       y1="6"
       y2="63.893"
       x2="0"
       gradientUnits="userSpaceOnUse" />
    <linearGradient
       id="linearGradient3613"
       xlink:href="#linearGradient3737"
       y1="20.221"
       y2="138.661"
       x2="0"
       gradientUnits="userSpaceOnUse" />
    <radialGradient
       cx="48"
       cy="90.172"
       gradientTransform="matrix(1.15731,0,0,0.99591,-7.55102,0.19713)"
       r="42"
       id="radialGradient3619"
       xlink:href="#linearGradient3737"
       gradientUnits="userSpaceOnUse" />
  </defs>
  <path
     opacity=".08"
     fill="url(#linearGradient3780)"
     d="m12-95.0312c-5.5111,0-10.0312,4.5202-10.0312,10.0312v71c0,5.5111 4.5202,10.0312 10.0312,10.0312h72c5.5111,0 10.0312-4.5202 10.0312-10.0312v-71c0-5.5111-4.5202-10.0312-10.0312-10.0312h-72z"
     transform="scale(1 -1)"
     id="path39" />
  <path
     opacity=".1"
     fill="url(#linearGradient3780)"
     d="m12-94.0312c-4.9716,0-9.0312,4.0596-9.0312,9.0312v71c0,4.9716 4.0596,9.0312 9.0312,9.0312h72c4.9716,0 9.0312-4.0596 9.0312-9.0312v-71c0-4.9716-4.0596-9.0312-9.0312-9.0312h-72z"
     transform="scale(1 -1)"
     id="path41" />
  <path
     opacity=".2"
     fill="url(#linearGradient3780)"
     d="m12-93c-4.4091,0-8,3.5909-8,8v71c0,4.4091 3.5909,8 8,8h72c4.4091,0 8-3.5909 8-8v-71c0-4.4091-3.5909-8-8-8h-72z"
     transform="scale(1 -1)"
     id="path43" />
  <path
     opacity=".3"
     fill="url(#linearGradient3780)"
     d="m12-92h72a7,7 0 0,1 7,7v71a7,7 0 0,1 -7,7h-72a7,7 0 0,1 -7-7v-71a7,7 0 0,1 7-7"
     transform="scale(1 -1)"
     id="path45" />
  <path
     opacity=".45"
     fill="url(#linearGradient3721)"
     d="m12-91h72a6,6 0 0,1 6,6v72a6,6 0 0,1 -6,6h-72a6,6 0 0,1 -6-6v-72a6,6 0 0,1 6-6"
     transform="scale(1 -1)"
     id="path47" />
  <path
     fill="url(#linearGradient3617)"
     d="m12,6h72a6,6 0 0,1 6,6v72a6,6 0 0,1 -6,6h-72a6,6 0 0,1 -6-6v-72a6,6 0 0,1 6-6"
     id="path49" />
  <path
     style="opacity:0.35;fill:url(#linearGradient3188)"
     d="M 12,6 C 8.11425,5.86322 5.41842,9.7916 6,13.4226 6.01817,37.1117 5.96368,60.8028 6.02721,84.4906 5.28209,86.8321 10.5384,90.3041 9.3125,89.2189 6.06848,87.1934 7.20936,83.0941 7,79.918 7.01709,57.4408 6.96584,34.9619 7.02559,12.4857 7.23712,9.18528 10.6966,7.53718 13.6597,8.0003 37.2778,8.01738 60.8976,7.96615 84.5146,8.02589 87.815,8.23742 89.4631,11.6969 89,14.66 c -0.023,23.6263 0.047,47.2557 -0.035,70.8801 0.6395,2.1759 -4.9497,5.3487 -1.452,3.2815 3.5336,-2.4814 2.2373,-6.9817 2.4873,-10.6151 -0.021,-22.2736 0.041,-44.5493 -0.031,-66.8216 C 89.7162,7.60958 85.8109,5.47608 82.3404,6.0001 58.8936,6.00003 35.4467,6.00023 12,6 Z"
     id="path51"
     inkscape:connector-curvature="0" />
  <path
     style="opacity:0.2;fill:url(#radialGradient3619)"
     d="M 12,90 C 8.11425,90.1368 5.41842,86.2084 6,82.5774 6.01817,58.8883 5.96368,35.1972 6.02721,11.5094 5.28209,9.16789 10.5384,5.69592 9.3125,6.7811 6.06848,8.80663 7.20936,12.9059 7,16.082 c 0.0171,22.4772 -0.0342,44.9561 0.0256,67.4323 0.21153,3.3004 3.67101,4.9485 6.63411,4.4854 23.6181,-0.017 47.2379,0.034 70.8549,-0.026 3.3004,-0.2115 4.9485,-3.671 4.4854,-6.6341 -0.023,-23.6263 0.047,-47.2557 -0.035,-70.8801 0.6395,-2.17591 -4.9497,-5.34874 -1.452,-3.28154 3.5336,2.48139 2.2373,6.98174 2.4873,10.61514 -0.021,22.2736 0.041,44.5493 -0.031,66.8216 -0.253,3.7753 -4.1583,5.9088 -7.6288,5.3848 C 58.8936,90 35.4467,89.9998 12,90 Z"
     id="path53"
     inkscape:connector-curvature="0" />
  <path
     opacity=".1"
     fill="url(#linearGradient3613)"
     filter="url(#filter3794)"
     stroke="#fff"
     stroke-linecap="round"
     stroke-width=".5"
     d="m27,15h42a12,12 0 0,1 12,12v42a12,12 0 0,1 -12,12h-42a12,12 0 0,1 -12-12v-42a12,12 0 0,1 12-12"
     clip-path="url(#clipPath3613)"
     id="path55" />
  <path
     d="m 25.5,10.9375 c -1.2185,0.1868 -2.0363,1.1439 -2.3438,2.0625 -0.2964,0.8856 -0.2921,1.7506 -0.2188,2.5 10e-5,0.031 -10e-5,0.062 0,0.094 0.02,11.9012 -0.042,23.8101 0.031,35.7188 0.025,1.2231 1.046,2.125 2.0312,2.4688 -0.7339,0.6388 -1.533,1.3571 -1.7812,1.9687 -0.6413,2.1682 -0.1599,4.2734 -0.2812,5.9688 -6e-4,0.021 -6e-4,0.042 0,0.062 0.021,7.496 -0.042,14.9901 0.031,22.5 l 0,0.094 c 0.2657,2.5144 3.4388,3.4048 5.1875,1.7812 l 0.031,0.031 c 16.581,-11.6297 33.2251,-23.2054 49.7812,-34.875 0.033,-0.029 0.065,-0.061 0.094,-0.094 0.9206,-0.841 1.1278,-2.0892 0.8125,-3.0938 -0.2887,-0.92 -0.8758,-1.379 -1.875,-2.125 -0.01,0 0.01,-0.029 0,-0.031 C 60.4873,34.434 44.0067,22.8445 27.4686,11.3438 c -0.03,-0.022 -0.061,-0.043 -0.094,-0.062 -0.612,-0.3299 -1.2631,-0.3718 -1.7812,-0.3438 l -0.094,0 z m 7.5312,16.5312 7,4.9062 c -2.4877,-0.7639 -5.1065,0.02 -7,1.75 z m 23.7812,16.6562 6.9375,4.875 -6.5625,4.5938 c 1.3457,-1.4411 1.9569,-3.3866 1.7812,-5.25 -0.1534,-1.6273 -0.9653,-3.0898 -2.1562,-4.2188 z m -15.8438,0.7812 5.7812,4.125 -5.7188,4.0625 c 0.01,-2.7045 0.078,-5.4221 -0.062,-8.1875 z m -7.9375,18.8438 c 1.7199,1.7751 4.224,2.7412 6.75,2.0312 l -6.75,4.75 z"
     id="path57"
     inkscape:connector-curvature="0"
     style="opacity:0.05"
     sodipodi:nodetypes="ccccccccccccccccccccccccccccccccccccccccc" />
  <path
     d="m 25.6562,11.9688 c -1.6994,0.2605 -1.8308,2.162 -1.6875,3.5289 0.021,11.9372 -0.042,23.8827 0.031,35.8148 0.2093,1.8785 2.5997,2.1628 3.8263,0.7362 L 38.2186,41.6563 c 3.4375,2.4583 6.875,4.9167 10.3125,7.375 l -8.5,6.0625 c -0.065,-3.5589 0.128,-7.1454 -0.094,-10.6875 -0.4435,-1.695 -2.8634,-1.8658 -3.7633,-0.4544 -3.9646,4.039 -8.0884,7.9829 -11.9554,12.0794 -0.5405,1.8276 -0.1139,3.8338 -0.25,5.7347 0.021,7.5038 -0.042,15.018 0.031,22.5153 0.1813,1.715 2.4885,2.2774 3.6068,1.0596 C 44.1899,73.7097 60.8222,62.1358 77.3748,50.4688 78.618,49.3331 77.926,47.7635 76.4051,46.8183 59.8908,35.2822 43.4099,23.6862 26.8748,12.1875 26.4936,11.982 26.0792,11.9458 25.656,11.9687 Z M 32,25.5 C 43.1875,33.3333 54.375,41.1667 65.5625,49 54.375,56.8333 43.1875,64.6667 32,72.5 l 0,-13 c 0.2557,3.6323 4.1361,6.3847 7.6562,5.2812 2.6055,-1.0968 4.6904,-3.1422 7.0605,-4.6721 3.1524,-2.3057 6.5516,-4.5952 9.5333,-6.8904 2.6501,-2.4022 2.116,-7.2945 -0.7812,-9.0625 -4.8037,-3.4312 -9.5939,-6.9147 -14.4062,-10.3125 -2.7474,-1.7434 -6.3229,-0.633 -8.2198,1.8136 -1.1781,1.7137 -0.7947,-0.3425 -0.8427,-1.357 l 0,-8.8003 z"
     id="path59"
     inkscape:connector-curvature="0"
     style="opacity:0.1"
     sodipodi:nodetypes="ccccccccccccccccccccccccccccccc" />
  <path
     style="opacity:0.15"
     d="m 25.9062,13.0625 c -1.3888,0.299 -0.6689,2.0793 -0.8438,3.0641 0.029,11.715 -0.058,23.4414 0.043,35.1492 0.3317,1.0227 1.1147,0.7548 2.0519,-0.1208 l 10.9363,-10.9363 12.3125,8.7812 c -3.8229,2.7292 -7.6459,5.4583 -11.4688,8.1875 -0.051,-4.18 0.1023,-8.3877 -0.075,-12.5508 -0.4723,-1.0344 -1.7281,-0.4144 -2.1449,0.3337 -3.8416,3.9081 -7.833,7.7006 -11.582,11.6803 -0.1702,5.1775 -0.024,10.3967 -0.073,15.5901 0.055,4.0366 -0.1089,8.1035 0.08,12.1216 0.6193,1.1843 1.8828,0.1114 2.5506,-0.4254 C 44.0131,72.4932 60.3737,61.0988 76.6691,49.6244 77.5036,48.5466 75.9355,47.8413 75.2246,47.3352 58.9064,35.9381 42.6304,24.4683 26.286,13.1165 c -0.121,-0.044 -0.2515,-0.063 -0.3798,-0.054 z m 5,10.3438 c 12.1875,8.5313 24.375,17.0625 36.5625,25.5938 -12.1875,8.5313 -24.375,17.0625 -36.5625,25.5938 l 0,-15.5625 c 0.7812,-0.7007 1.5364,-1.3963 2.1875,-2.0103 -0.1637,2.2766 0.1214,4.9725 2.3749,6.1666 2.1933,1.4845 4.9068,0.4443 6.7033,-1.147 4.4264,-3.2289 8.9881,-6.3132 13.3282,-9.6341 2.3386,-2.1863 1.5783,-6.3728 -1.2327,-7.7873 C 49.5413,41.3 44.9143,37.7941 40.125,34.5944 c -2.3681,-1.2809 -5.0626,0 -6.596,1.94 l -2.6225,2.6225 c -2e-4,-5.2502 4e-4,-10.5005 -3e-4,-15.7506 z"
     id="path61"
     inkscape:connector-curvature="0"
     sodipodi:nodetypes="cccccccccccccccccccccccccccccc" />
  <path
     opacity=".3"
     d="m26,14 0,37 12-12 14,10-14,10 0-14-12,12 0,27 50-35-50-35zm3.9688,7.625 39.0938,27.375-39.0938,27.375v-17.7188l4.0625-4.0625v4.4062a3.9599,3.9599 0 0,0 6.2812,3.2188l14-10a3.9599,3.9599 0 0,0 0-6.4375l-14-10a3.9599,3.9599 0 0,0 -5.125,.4062l-5.2188,5.2188v-19.7812z"
     id="path63" />
  <path
     fill="url(#linearGradient3685)"
     d="m26,13 0,37 12-12 14,10-14,10 0-14-12,12 0,27 50-35-50-35zm3.9688,7.625 39.0938,27.375-39.0938,27.375v-17.7188l4.0625-4.0625v4.4062a3.9599,3.9599 0 0,0 6.2812,3.2188l14-10a3.9599,3.9599 0 0,0 0-6.4375l-14-10a3.9599,3.9599 0 0,0 -5.125,.4062l-5.2188,5.2188v-19.7812z"
     id="path65" />
  <path
     fill="#f00"
     d="m-63,13 0,70 50-35-50-35z"
     id="path67" />
  <path
     fill="#500"
     d="m-51,38-14,14 0,6 14-14 0,14 14-10-14-10z"
     id="path69" />
  <path
     opacity=".3"
     fill="#fff"
     d="m26,13 0,1 49.2812,34.5 .7188-.5-50-35zm11.6875,21.0312a3.9599,3.9599 0 0,0 -2.5,1.1562l-5.2188,5.2188v1l5.2188-5.2188a3.9599,3.9599 0 0,1 5.125-.4062l14,10a3.9599,3.9599 0 0,1 1.625,2.8125 3.9599,3.9599 0 0,0 -1.625-3.8125l-14-10a3.9599,3.9599 0 0,0 -2.625-.75zm.3125,9.9688-12,12 0,1 12-12 0-1zm13.3125,4.5-13.3125,9.5 0,1 14-10-.6875-.5zm17.0312,0-38.375,26.875 0,1l39.0938-27.375-.7188-.5z"
     id="path71" />
</svg>
