<?xml version="1.0" encoding="UTF-8" standalone="no"?>
<svg
   xmlns:dc="http://purl.org/dc/elements/1.1/"
   xmlns:cc="http://creativecommons.org/ns#"
   xmlns:rdf="http://www.w3.org/1999/02/22-rdf-syntax-ns#"
   xmlns:svg="http://www.w3.org/2000/svg"
   xmlns="http://www.w3.org/2000/svg"
   xmlns:xlink="http://www.w3.org/1999/xlink"
   xmlns:sodipodi="http://sodipodi.sourceforge.net/DTD/sodipodi-0.dtd"
   xmlns:inkscape="http://www.inkscape.org/namespaces/inkscape"
   viewBox="0 0 96 96"
   id="svg2"
   version="1.1"
   inkscape:version="0.91 r"
   sodipodi:docname="deja-dup.svg">
  <title
     id="title179">deja-dup</title>
  <metadata
     id="metadata138">
    <rdf:RDF>
      <cc:Work
         rdf:about="">
        <dc:format>image/svg+xml</dc:format>
        <dc:type
           rdf:resource="http://purl.org/dc/dcmitype/StillImage" />
        <dc:title>deja-dup</dc:title>
        <dc:subject>
          <rdf:Bag>
            <rdf:li>deja-dup</rdf:li>
            <rdf:li>duplicate</rdf:li>
            <rdf:li>backup</rdf:li>
          </rdf:Bag>
        </dc:subject>
        <dc:description>deja-dup, duplicate, backup</dc:description>
      </cc:Work>
    </rdf:RDF>
  </metadata>
  <sodipodi:namedview
     pagecolor="#ffffff"
     bordercolor="#666666"
     borderopacity="1"
     objecttolerance="10"
     gridtolerance="10"
     guidetolerance="10"
     inkscape:pageopacity="0"
     inkscape:pageshadow="2"
     inkscape:window-width="1280"
     inkscape:window-height="965"
     id="namedview136"
     showgrid="false"
     inkscape:zoom="6.95322"
     inkscape:cx="46.3851"
     inkscape:cy="44.8986"
     inkscape:window-x="0"
     inkscape:window-y="27"
     inkscape:window-maximized="1"
     inkscape:current-layer="svg2" />
  <defs
     id="defs4">
    <clipPath
       id="clipPath3785">
      <path
         fill="#fff"
         d="m12,6h72a6,6 0 0,1 6,6v60a6,6 0 0,1 -6,6h-72a6,6 0 0,1 -6-6v-60a6,6 0 0,1 6-6"
         id="path7" />
    </clipPath>
    <clipPath
       id="clipPath3997">
      <path
         fill="#ff2a2a"
         d="m16,11c-2.216,0-4,1.784-4,4v52c0,2.216 1.784,4 4,4h64c2.216,0 4-1.784 4-4v-52c0-2.216-1.784-4-4-4h-64zm32,9c12.1503,0 22,8.9543 22,20 0,11.0457-9.8497,20-22,20-4.0043,0-7.7657-.9568-11-2.6562l3-4.75c2.3556,1.2408 5.0816,1.9375 8,1.9375 8.8366,0 16-6.498 16-14.5312 0-8.0332-7.1634-14.5312-16-14.5312-8.8366,0-16,6.498-16,14.5312h4l-3.5,5.4688-3.5,5.4375-3.5-5.4375-3.5-5.4688h4c0-11.0457 9.8497-20 22-20zm0,7.2812c1.108,0 2,.8052 2,1.8125v10.1562l6.5,5.9062c.7835,.7122 .8866,1.7338 .25,2.3125l-.5312,.5c-.6366,.5787-1.779,.4622-2.5625-.25l-7.0625-6.4375c-.1002-.0911-.2041-.1725-.2812-.2812-.4016-.5098-.5111-1.108-.3125-1.5938v-10.3125c0-1.0073 .892-1.8125 2-1.8125z"
         id="path10" />
    </clipPath>
    <filter
       width="1.245"
       x="-.123"
       y="-.18"
       height="1.36"
       color-interpolation-filters="sRGB"
       id="filter3829">
      <feGaussianBlur
         stdDeviation="3.54877"
         id="feGaussianBlur13" />
    </filter>
    <filter
       width="1.442"
       x="-.221"
       y="-.263"
       height="1.526"
       color-interpolation-filters="sRGB"
       id="filter4001">
      <feGaussianBlur
         stdDeviation="4.61251"
         id="feGaussianBlur16" />
    </filter>
    <filter
       width="1.229"
       x="-.114"
       y="-1.415"
       height="3.83"
       color-interpolation-filters="sRGB"
       id="filter4180">
      <feGaussianBlur
         stdDeviation="3.53729"
         id="feGaussianBlur19" />
    </filter>
    <linearGradient
       gradientTransform="matrix(1.11656 0 0 1.11656 .8047 -5.67591)"
       id="linearGradient3781"
       xlink:href="#linearGradient3220"
       y1="69.394"
       x1="15.656"
       y2="39.821"
       x2="46.595"
       gradientUnits="userSpaceOnUse" />
    <linearGradient
       id="linearGradient4196"
       xlink:href="#linearGradient3448"
       y1="80.143"
       y2="82.003"
       x2="0"
       gradientUnits="userSpaceOnUse" />
    <linearGradient
       gradientTransform="matrix(1 0 0 .90909 0 -9.09091)"
       id="linearGradient3218"
       xlink:href="#linearGradient3767"
       y1="76"
       y2="32"
       x2="0"
       gradientUnits="userSpaceOnUse" />
    <linearGradient
       id="linearGradient3767">
      <stop
         offset="0"
         stop-color="#4d4d4d"
         stop-opacity=".707"
         id="stop25" />
      <stop
         offset="1"
         stop-color="#4d4d4d"
         stop-opacity=".252"
         id="stop27" />
    </linearGradient>
    <linearGradient
       gradientTransform="translate(0 -97)"
       id="linearGradient3721"
       xlink:href="#ButtonShadow-0"
       y1="6.132"
       y2="90.239"
       x2="0"
       gradientUnits="userSpaceOnUse" />
    <linearGradient
       gradientTransform="matrix(1.00587 0 0 .99417 100 0)"
       id="ButtonShadow-0"
       y1="92.54"
       y2="7.017"
       x2="0"
       gradientUnits="userSpaceOnUse">
      <stop
         offset="0"
         id="stop31" />
      <stop
         offset="1"
         stop-opacity=".588"
         id="stop33" />
    </linearGradient>
    <linearGradient
       gradientTransform="matrix(1.02381 0 0 1.0119 -1.14286 -98.07143)"
       id="linearGradient3780"
       xlink:href="#ButtonShadow-0"
       y1="6.132"
       y2="90.239"
       x2="0"
       gradientUnits="userSpaceOnUse" />
    <linearGradient
       gradientTransform="matrix(1 0 0 -1 0 84)"
       id="linearGradient3551"
       xlink:href="#linearGradient3220"
       y1="8.047"
       x1="18.743"
       y2="68.517"
       x2="109.193"
       gradientUnits="userSpaceOnUse" />
    <linearGradient
       id="linearGradient3220">
      <stop
         offset="0"
         stop-color="#fff"
         id="stop38" />
      <stop
         offset="1"
         stop-color="#bfbfbf"
         stop-opacity="0"
         id="stop40" />
    </linearGradient>
    <linearGradient
       id="linearGradient3460"
       xlink:href="#linearGradient3448"
       y1="77.094"
       y2="90"
       x2="0"
       gradientUnits="userSpaceOnUse" />
    <linearGradient
       id="linearGradient3273">
      <stop
         offset="0"
         stop-color="#7a7a7a"
         id="stop44" />
      <stop
         offset=".146"
         stop-color="#f9f9f9"
         id="stop46" />
      <stop
         offset=".373"
         stop-color="#c9c9c9"
         id="stop48" />
      <stop
         offset="1"
         stop-color="#dedede"
         stop-opacity="0"
         id="stop50" />
    </linearGradient>
    <linearGradient
       id="linearGradient3322">
      <stop
         offset="0"
         stop-color="#7a7a7a"
         id="stop53" />
      <stop
         offset=".203"
         stop-color="#f9f9f9"
         id="stop55" />
      <stop
         offset=".43"
         stop-color="#c9c9c9"
         id="stop57" />
      <stop
         offset="1"
         stop-color="#dedede"
         stop-opacity="0"
         id="stop59" />
    </linearGradient>
    <linearGradient
       id="linearGradient4327">
      <stop
         offset="0"
         stop-color="#f0f0f0"
         id="stop62" />
      <stop
         offset="1"
         stop-color="#b4b4b4"
         id="stop64" />
    </linearGradient>
    <linearGradient
       id="linearGradient3448">
      <stop
         offset="0"
         id="stop67" />
      <stop
         offset="1"
         stop-opacity="0"
         id="stop69" />
    </linearGradient>
    <linearGradient
       id="linearGradient3737">
      <stop
         offset="0"
         stop-color="#fff"
         id="stop72" />
      <stop
         offset="1"
         stop-color="#fff"
         stop-opacity="0"
         id="stop74" />
    </linearGradient>
    <linearGradient
       gradientTransform="matrix(-1 0 0 1 96 -2)"
       id="linearGradient3454"
       xlink:href="#linearGradient3448"
       x1="6"
       x2="45.219"
       gradientUnits="userSpaceOnUse" />
    <linearGradient
       id="linearGradient3279"
       xlink:href="#linearGradient3322"
       x1="6"
       x2="32"
       gradientUnits="userSpaceOnUse" />
    <linearGradient
       gradientTransform="matrix(-1 0 0 1 96.03061 0)"
       id="linearGradient3287"
       xlink:href="#linearGradient3273"
       x1="6"
       x2="32.031"
       gradientUnits="userSpaceOnUse" />
    <linearGradient
       id="linearGradient3179"
       xlink:href="#linearGradient4327"
       y1="6"
       y2="78"
       x2="0"
       gradientUnits="userSpaceOnUse" />
    <linearGradient
       id="linearGradient3188"
       xlink:href="#linearGradient3737"
       y1="6"
       y2="63.893"
       x2="0"
       gradientUnits="userSpaceOnUse" />
    <radialGradient
       cx="48"
       cy="84"
       gradientTransform="matrix(1.06667 0 0 .06667 -3.2 77.4)"
       r="30"
       id="radialGradient4138"
       gradientUnits="userSpaceOnUse">
      <stop
         offset="0"
         stop-color="#4dbeff"
         id="stop82" />
      <stop
         offset=".672"
         stop-color="#1379ff"
         stop-opacity=".65"
         id="stop84" />
      <stop
         offset="1"
         stop-color="#06f"
         stop-opacity="0"
         id="stop86" />
    </radialGradient>
  </defs>
  <path
     opacity=".08"
     fill="url(#linearGradient3780)"
     d="m12-95.0312c-5.5111,0-10.0312,4.5202-10.0312,10.0312v71c0,5.5111 4.5202,10.0312 10.0312,10.0312h72c5.5111,0 10.0312-4.5202 10.0312-10.0312v-71c0-5.5111-4.5202-10.0312-10.0312-10.0312h-72z"
     transform="scale(1 -1)"
     id="path88" />
  <path
     opacity=".1"
     fill="url(#linearGradient3780)"
     d="m12-94.0312c-4.9716,0-9.0312,4.0596-9.0312,9.0312v71c0,4.9716 4.0596,9.0312 9.0312,9.0312h72c4.9716,0 9.0312-4.0596 9.0312-9.0312v-71c0-4.9716-4.0596-9.0312-9.0312-9.0312h-72z"
     transform="scale(1 -1)"
     id="path90" />
  <path
     opacity=".2"
     fill="url(#linearGradient3780)"
     d="m12-93c-4.4091,0-8,3.5909-8,8v71c0,4.4091 3.5909,8 8,8h72c4.4091,0 8-3.5909 8-8v-71c0-4.4091-3.5909-8-8-8h-72z"
     transform="scale(1 -1)"
     id="path92" />
  <path
     opacity=".3"
     fill="url(#linearGradient3780)"
     d="m12-92h72a7,7 0 0,1 7,7v71a7,7 0 0,1 -7,7h-72a7,7 0 0,1 -7-7v-71a7,7 0 0,1 7-7"
     transform="scale(1 -1)"
     id="path94" />
  <path
     opacity=".45"
     fill="url(#linearGradient3721)"
     d="m12-91h72a6,6 0 0,1 6,6v72a6,6 0 0,1 -6,6h-72a6,6 0 0,1 -6-6v-72a6,6 0 0,1 6-6"
     transform="scale(1 -1)"
     id="path96" />
  <path
     style="opacity:0.5;fill:url(#linearGradient3188)"
     d="M 12,6 C 8.11425,5.86322 5.41842,9.7916 6,13.4226 6.01817,37.1117 5.96368,60.8028 6.02721,84.4906 5.28209,86.8321 10.5384,90.3041 9.3125,89.2189 6.06848,87.1934 7.20936,83.0941 7,79.918 7.01709,57.4408 6.96584,34.9619 7.02559,12.4857 7.23712,9.18528 10.6966,7.53718 13.6597,8.0003 37.2778,8.01738 60.8976,7.96615 84.5146,8.02589 87.815,8.23742 89.4631,11.6969 89,14.66 c -0.023,23.6263 0.047,47.2557 -0.035,70.8801 0.6395,2.1759 -4.9497,5.3487 -1.452,3.2815 3.5336,-2.4814 2.2373,-6.9817 2.4873,-10.6151 -0.021,-22.2736 0.041,-44.5493 -0.031,-66.8216 C 89.7162,7.60958 85.8109,5.47608 82.3404,6.0001 58.8936,6.00003 35.4467,6.00023 12,6 Z"
     id="path98"
     inkscape:connector-curvature="0" />
  <path
     fill="#cacaca"
     d="m90,64.1875 0,19.8125c0,3.324-2.676,6-6,6h-72c-3.324,0-6-2.676-6-6v-19.8125h84z"
     id="path100" />
  <path
     fill="#999"
     d="m6,73 0,1c0,3.324 2.676,6 6,6h72c3.324,0 6-2.676 6-6v-1c0,3.324-2.676,6-6,6h-72c-3.324,0-6-2.676-6-6z"
     id="path102" />
  <path
     opacity=".8"
     fill="url(#linearGradient3287)"
     d="m90.0306,64.1875 0,19.8125c0,3.324-2.676,6-6,6h-20.0306v-25.8125h26.0306z"
     id="path104" />
  <path
     opacity=".8"
     fill="url(#linearGradient3279)"
     d="m6,64.1875 0,19.8125c0,3.324 2.676,6 6,6h20v-25.8125h-26z"
     id="path106" />
  <path
     opacity=".2"
     fill="url(#linearGradient3460)"
     d="m90,64.1875 0,19.8125c0,3.324-2.676,6-6,6h-72c-3.324,0-6-2.676-6-6v-19.8125h84z"
     id="path108" />
  <path
     fill="#252525"
     d="m6,74 0,6c0,3.324 2.676,6 6,6h72c3.324,0 6-2.676 6-6v-6c0,3.324-2.676,6-6,6h-72c-3.324,0-6-2.676-6-6z"
     id="path110" />
  <path
     fill="#ececec"
     d="m6,80 0,1c0,3.324 2.676,6 6,6h72c3.324,0 6-2.676 6-6v-1c0,3.324-2.676,6-6,6h-72c-3.324,0-6-2.676-6-6z"
     id="path112" />
  <path
     fill="url(#linearGradient4196)"
     d="m6,74 0,2c0,3.324 2.676,6 6,6h72c3.324,0 6-2.676 6-6v-2c0,3.324-2.676,6-6,6h-72c-3.324,0-6-2.676-6-6z"
     id="path114" />
  <path
     fill="url(#linearGradient3179)"
     d="m12,6h72a6,6 0 0,1 6,6v58a6,6 0 0,1 -6,6h-72a6,6 0 0,1 -6-6v-58a6,6 0 0,1 6-6"
     id="path116" />
  <path
     opacity=".7"
     fill="url(#linearGradient3551)"
     d="m12,76c-3.324,0-6-2.676-6-6v-58c0-3.324 2.676-6 6-6h72c3.324,0 6,2.676 6,6v58c0,3.324-2.676,6-6,6h-72zm0-2 72,0c2.7818,0 5-2.1954 5-4.9375v-57.125c0-2.7421-2.2182-4.9375-5-4.9375h-72c-2.7818,0-5,2.1954-5,4.9375v57.125c0,2.7421 2.2182,4.9375 5,4.9375z"
     id="path118" />
  <path
     opacity=".1"
     fill="url(#linearGradient3454)"
     d="m90,70 0,1c0,3.324-2.676,6-6,6h-72c-3.324,0-6-2.676-6-6v-1c0,2.9849 2.1528,5.4349 5,5.9062 .3269,.0654 .6523,.0938 1,.0938h72c.1663,0 .3372-.0181 .5-.0312 .0416-.0041 .0837,.0051 .125,0 .1279-.0129 .2497-.0417 .375-.0625 2.8472-.4714 5-2.9214 5-5.9062z"
     id="path120" />
  <path
     opacity=".3"
     fill="url(#linearGradient3781)"
     filter="url(#filter3829)"
     fill-rule="evenodd"
     d="m72.7857,73.3166c-35.288-1.6561-40.1298-12.747-16.5712-37.7508-26.6557,8.4318-39.2665,20.2889-48.6346,28.3737-9.9499,8.6623-.5909,19.8405 10.3544,18.9121 11.343-.0075 45.8019-2.0979 54.8514-9.5351z"
     clip-path="url(#clipPath3785)"
     transform="translate(0 -2)"
     id="path122" />
  <path
     opacity=".6"
     fill="#06f"
     filter="url(#filter4180)"
     d="m17.6542,80h60.6916a6.7435,3 0 0,1 6.7435,3 6.7435,3 0 0,1 -6.7435,3h-60.6916a6.7435,3 0 0,1 -6.7435-3 6.7435,3 0 0,1 6.7435-3"
     id="path124" />
  <path
     fill="url(#radialGradient4138)"
     d="m21.8182,81h52.3636a5.8182,2 0 0,1 5.8182,2 5.8182,2 0 0,1 -5.8182,2h-52.3636a5.8182,2 0 0,1 -5.8182-2 5.8182,2 0 0,1 5.8182-2"
     id="path126" />
  <g
     color="#000"
     id="g128">
    <path
       fill="url(#linearGradient3218)"
       d="m48,20c-12.1503,0-22,8.9543-22,20h-4l3.5,5.4545 3.5,5.4545 3.5-5.4545 3.5-5.4545h-4c0-8.0332 7.1634-14.5455 16-14.5455 8.8366,0 16,6.5122 16,14.5455 0,8.0332-7.1634,14.5455-16,14.5455-2.9184,0-5.6444-.7194-8-1.9602l-3,4.7443c3.2343,1.6994 6.9957,2.6705 11,2.6705 12.1503,0 22-8.9543 22-20 0-11.0457-9.8497-20-22-20zm0,7.2727c-1.108,0-2,.8109-2,1.8182v10.3125c-.1986,.4858-.0891,1.0811 .3125,1.5909 .0771,.1088 .1811,.193 .2812,.2841l7.0625,6.4489c.7835,.7122 1.9259,.806 2.5625,.2273l.5312-.483c.6366-.5787 .5335-1.6173-.25-2.3295l-6.5-5.8807v-10.1705c0-1.0073-.892-1.8182-2-1.8182z"
       id="path130" />
    <path
       opacity=".4"
       d="m48,20c-12.1503,0-22,8.9543-22,20h-4l.625,1h3.375c0-11.0457 9.8497-20 22-20 11.9663,0 21.708,8.6854 22,19.5 .0045-.1662 0-.3328 0-.5 0-11.0457-9.8497-20-22-20zm0,7.2812c-1.108,0-2,.8052-2,1.8125v1c0-1.0073 .892-1.8125 2-1.8125 1.108,0 2,.8052 2,1.8125v-1c0-1.0073-.892-1.8125-2-1.8125zm2,11.9688 0,1 6.5,5.9062c.2854,.2594 .4918,.5357 .5938,.8438 .2188-.5737 .0029-1.3013-.5938-1.8438l-6.5-5.9062zm-4,.1562c-.1224,.2993-.1079,.6318 0,.9688v-.9688zm-13.9375,.5938c-.0245,.3291-.0625,.6653-.0625,1h3.375l.625-1h-3.9375zm31.9062,.5c-.2899,7.8017-7.3163,14.0312-15.9688,14.0312-2.9184,0-5.6444-.6967-8-1.9375l-3,4.75c.1594,.0837 .3381,.1386 .5,.2188l2.5-3.9688c2.3556,1.2408 5.0816,1.9375 8,1.9375 8.8366,0 16-6.498 16-14.5312 0-.1674-.0251-.334-.0312-.5z"
       id="path132" />
    <path
       opacity=".8"
       fill="#fff"
       filter="url(#filter4001)"
       d="m48,18.9375c-12.2787,0-22.3154,8.8302-22.9375,20h-3.0625a1.0685,1.0685 0 0,0 -.9062,1.625l3.5,5.4688a1.0685,1.0685 0 0,0 0,.0312l3.5,5.4375a1.0685,1.0685 0 0,0 1.8125,0l3.5-5.4375a1.0685,1.0685 0 0,0 0-.0312l3.5-5.4688a1.0685,1.0685 0 0,0 -.9062-1.625h-2.8125c.5816-6.5692 6.3388-11.8261 13.7188-12.3125-1.0846,.4294-1.9688,1.2454-1.9688,2.4688v10.3125h.0312c-.1631,.7724-.0204,1.5803 .4688,2.2188 .0086,.0112 .0225,.0202 .0312,.0312 .1773,.2343 .3483,.3535 .4062,.4062l7.0625,6.4375c1.1231,1.021 2.8399,1.3047 4,.25l.5312-.5c.5711-.5191 .8254-1.2879 .75-2-.0754-.7121-.4374-1.3636-1-1.875l-6.1562-5.5938v-9.6875c0-1.2233-.8842-2.0393-1.9688-2.4688 7.7827,.5129 13.8438,6.3103 13.8438,13.375 0,7.3981-6.6247,13.4688-14.9375,13.4688-2.7484,0-5.2992-.6532-7.5-1.8125a1.0685,1.0685 0 0,0 -1.4062,.375l-3,4.75a1.0685,1.0685 0 0,0 .4062,1.5c3.3901,1.7813 7.3255,2.7812 11.5,2.7812 12.6752,0 23.0625-9.3817 23.0625-21.0625 0-11.6808-10.3873-21.0625-23.0625-21.0625z"
       clip-path="url(#clipPath3997)"
       id="path134" />
  </g>
</svg>
