<?xml version="1.0" encoding="UTF-8" standalone="no"?>
<svg
   xmlns:dc="http://purl.org/dc/elements/1.1/"
   xmlns:cc="http://creativecommons.org/ns#"
   xmlns:rdf="http://www.w3.org/1999/02/22-rdf-syntax-ns#"
   xmlns:svg="http://www.w3.org/2000/svg"
   xmlns="http://www.w3.org/2000/svg"
   xmlns:xlink="http://www.w3.org/1999/xlink"
   xmlns:sodipodi="http://sodipodi.sourceforge.net/DTD/sodipodi-0.dtd"
   xmlns:inkscape="http://www.inkscape.org/namespaces/inkscape"
   viewBox="0 0 96 96"
   id="svg2"
   version="1.1"
   inkscape:version="0.91 r"
   sodipodi:docname="dosbox.svg">
  <title
     id="title100">dosbox</title>
  <metadata
     id="metadata88">
    <rdf:RDF>
      <cc:Work
         rdf:about="">
        <dc:format>image/svg+xml</dc:format>
        <dc:type
           rdf:resource="http://purl.org/dc/dcmitype/StillImage" />
        <dc:title>dosbox</dc:title>
        <dc:subject>
          <rdf:Bag>
            <rdf:li>dosbox</rdf:li>
          </rdf:Bag>
        </dc:subject>
        <dc:description>dosbox</dc:description>
      </cc:Work>
    </rdf:RDF>
  </metadata>
  <sodipodi:namedview
     pagecolor="#ffffff"
     bordercolor="#666666"
     borderopacity="1"
     objecttolerance="10"
     gridtolerance="10"
     guidetolerance="10"
     inkscape:pageopacity="0"
     inkscape:pageshadow="2"
     inkscape:window-width="1280"
     inkscape:window-height="965"
     id="namedview86"
     showgrid="false"
     inkscape:zoom="4.91667"
     inkscape:cx="64.1503"
     inkscape:cy="42.8466"
     inkscape:window-x="0"
     inkscape:window-y="27"
     inkscape:window-maximized="1"
     inkscape:current-layer="svg2" />
  <defs
     id="defs4">
    <linearGradient
       id="linearGradient4235"
       xlink:href="#linearGradient4229"
       y1="89.366"
       x1="40.295"
       y2="54.364"
       x2="40.149"
       gradientUnits="userSpaceOnUse" />
    <linearGradient
       gradientTransform="matrix(1.02381 0 0 1.0119 -1.14286 -98.07143)"
       id="linearGradient3780"
       xlink:href="#ButtonShadow-0"
       y1="6.132"
       y2="90.239"
       x2="0"
       gradientUnits="userSpaceOnUse" />
    <linearGradient
       id="linearGradient3427"
       xlink:href="#linearGradient3737"
       y1="6"
       y2="63.893"
       x2="0"
       gradientUnits="userSpaceOnUse" />
    <linearGradient
       gradientTransform="matrix(1.00756 0 0 1 -.67949 0)"
       id="linearGradient4219"
       xlink:href="#linearGradient4213"
       y1="58.664"
       x1="39.079"
       y2="53.715"
       x2="39.091"
       gradientUnits="userSpaceOnUse" />
    <linearGradient
       id="linearGradient3433"
       xlink:href="#linearGradient4208"
       y1="90"
       y2="5.988"
       x2="0"
       gradientUnits="userSpaceOnUse" />
    <linearGradient
       gradientTransform="translate(0 -97)"
       id="linearGradient3721"
       xlink:href="#ButtonShadow-0"
       y1="6.132"
       y2="90.239"
       x2="0"
       gradientUnits="userSpaceOnUse" />
    <linearGradient
       id="linearGradient4229">
      <stop
         offset="0"
         stop-color="#123565"
         id="stop13" />
      <stop
         offset="1"
         stop-color="#1c54a0"
         id="stop15" />
    </linearGradient>
    <linearGradient
       gradientTransform="matrix(1.00587 0 0 .99417 100 0)"
       id="ButtonShadow-0"
       y1="92.54"
       y2="7.017"
       x2="0"
       gradientUnits="userSpaceOnUse">
      <stop
         offset="0"
         id="stop18" />
      <stop
         offset="1"
         stop-opacity=".588"
         id="stop20" />
    </linearGradient>
    <linearGradient
       id="linearGradient4213">
      <stop
         offset="0"
         stop-color="#fff"
         id="stop23" />
      <stop
         offset="1"
         stop-color="#fff"
         stop-opacity="0"
         id="stop25" />
    </linearGradient>
    <linearGradient
       id="linearGradient4208">
      <stop
         offset="0"
         stop-color="#f3840c"
         id="stop28" />
      <stop
         offset="1"
         stop-color="#f2b80c"
         id="stop30" />
    </linearGradient>
    <linearGradient
       id="linearGradient3737">
      <stop
         offset="0"
         stop-color="#fff"
         id="stop33" />
      <stop
         offset="1"
         stop-color="#fff"
         stop-opacity="0"
         id="stop35" />
    </linearGradient>
    <radialGradient
       cx="48"
       cy="90.172"
       gradientTransform="matrix(1.15731,0,0,0.99591,-7.55102,0.19713)"
       r="42"
       id="radialGradient3424"
       xlink:href="#linearGradient3737"
       gradientUnits="userSpaceOnUse" />
  </defs>
  <path
     opacity=".08"
     fill="url(#linearGradient3780)"
     d="m12-95.0312c-5.5111,0-10.0312,4.5202-10.0312,10.0312v71c0,5.5111 4.5202,10.0312 10.0312,10.0312h72c5.5111,0 10.0312-4.5202 10.0312-10.0312v-71c0-5.5111-4.5202-10.0312-10.0312-10.0312h-72z"
     transform="scale(1 -1)"
     id="path38" />
  <path
     opacity=".1"
     fill="url(#linearGradient3780)"
     d="m12-94.0312c-4.9716,0-9.0312,4.0596-9.0312,9.0312v71c0,4.9716 4.0596,9.0312 9.0312,9.0312h72c4.9716,0 9.0312-4.0596 9.0312-9.0312v-71c0-4.9716-4.0596-9.0312-9.0312-9.0312h-72z"
     transform="scale(1 -1)"
     id="path40" />
  <path
     opacity=".2"
     fill="url(#linearGradient3780)"
     d="m12-93c-4.4091,0-8,3.5909-8,8v71c0,4.4091 3.5909,8 8,8h72c4.4091,0 8-3.5909 8-8v-71c0-4.4091-3.5909-8-8-8h-72z"
     transform="scale(1 -1)"
     id="path42" />
  <path
     opacity=".3"
     fill="url(#linearGradient3780)"
     d="m12-92h72a7,7 0 0,1 7,7v71a7,7 0 0,1 -7,7h-72a7,7 0 0,1 -7-7v-71a7,7 0 0,1 7-7"
     transform="scale(1 -1)"
     id="path44" />
  <path
     opacity=".45"
     fill="url(#linearGradient3721)"
     d="m12-91h72a6,6 0 0,1 6,6v72a6,6 0 0,1 -6,6h-72a6,6 0 0,1 -6-6v-72a6,6 0 0,1 6-6"
     transform="scale(1 -1)"
     id="path46" />
  <path
     fill="url(#linearGradient3433)"
     d="m12,6h72a6,6 0 0,1 6,6v72a6,6 0 0,1 -6,6h-72a6,6 0 0,1 -6-6v-72a6,6 0 0,1 6-6"
     id="path48" />
  <path
     fill="url(#linearGradient4235)"
     d="m12,6h72a6,6 0 0,1 6,6v72a6,6 0 0,1 -6,6h-72a6,6 0 0,1 -6-6v-72a6,6 0 0,1 6-6"
     id="path50" />
  <path
     d="m10.4168,6.8384h75.1911a4.2487,5.7946 0 0,1 4.2487,5.7946v39.3831a4.2487,5.7946 0 0,1 -4.2487,5.7946h-75.1911a4.2487,5.7946 0 0,1 -4.2487-5.7946v-39.3831a4.2487,5.7946 0 0,1 4.2487-5.7946"
     id="path52" />
  <path
     style="opacity:0.5;fill:url(#linearGradient3427)"
     d="M 12,6 C 8.11425,5.86322 5.41842,9.7916 6,13.4226 6.01817,37.1117 5.96368,60.8028 6.02721,84.4906 5.28209,86.8321 10.5384,90.3041 9.3125,89.2189 6.06848,87.1934 7.20936,83.0941 7,79.918 7.01709,57.4408 6.96584,34.9619 7.02559,12.4857 7.23712,9.18528 10.6966,7.53718 13.6597,8.0003 37.2778,8.01738 60.8976,7.96615 84.5146,8.02589 87.815,8.23742 89.4631,11.6969 89,14.66 c -0.023,23.6263 0.047,47.2557 -0.035,70.8801 0.6395,2.1759 -4.9497,5.3487 -1.452,3.2815 3.5336,-2.4814 2.2373,-6.9817 2.4873,-10.6151 -0.021,-22.2736 0.041,-44.5493 -0.031,-66.8216 C 89.7162,7.60958 85.8109,5.47608 82.3404,6.0001 58.8936,6.00003 35.4467,6.00023 12,6 Z"
     id="path54"
     inkscape:connector-curvature="0" />
  <path
     style="opacity:0.2;fill:url(#radialGradient3424)"
     d="M 12,90 C 8.11425,90.1368 5.41842,86.2084 6,82.5774 6.01817,58.8883 5.96368,35.1972 6.02721,11.5094 5.28209,9.16789 10.5384,5.69592 9.3125,6.7811 6.06848,8.80663 7.20936,12.9059 7,16.082 c 0.0171,22.4772 -0.0342,44.9561 0.0256,67.4323 0.21153,3.3004 3.67101,4.9485 6.63411,4.4854 23.6181,-0.017 47.2379,0.034 70.8549,-0.026 3.3004,-0.2115 4.9485,-3.671 4.4854,-6.6341 -0.023,-23.6263 0.047,-47.2557 -0.035,-70.8801 0.6395,-2.17591 -4.9497,-5.34874 -1.452,-3.28154 3.5336,2.48139 2.2373,6.98174 2.4873,10.61514 -0.021,22.2736 0.041,44.5493 -0.031,66.8216 -0.253,3.7753 -4.1583,5.9088 -7.6288,5.3848 C 58.8936,90 35.4467,89.9998 12,90 Z"
     id="path56"
     inkscape:connector-curvature="0" />
  <path
     fill="none"
     stroke="url(#linearGradient4219)"
     stroke-width="1.004"
     d="m9.0901,6.8384h77.568a3.1986,5.7946 0 0,1 3.1985,5.7946v39.3831a3.1986,5.7946 0 0,1 -3.1985,5.7946h-77.568a3.1986,5.7946 0 0,1 -3.1986-5.7946v-39.3831a3.1986,5.7946 0 0,1 3.1986-5.7946"
     id="path58" />
  <g
     fill="#b0b0b0"
     word-spacing="0"
     line-height="125%"
     letter-spacing="0"
     id="g60">
    <path
       d="m 13.0058,23.6101 c -1.0086,-0.5517 -1.5755,-1.7016 -1.5823,-2.829 -0.057,-1.1197 0.4157,-2.2964 1.374,-2.9232 0.724,-0.4919 1.6333,-0.6027 2.4845,-0.4806 0.434,0.045 0.8529,0.1754 1.2638,0.3168 0.092,-0.272 0.184,-0.544 0.276,-0.816 -1.0041,-0.3879 -2.1096,-0.5217 -3.176,-0.3749 -1.1951,0.2024 -2.3185,0.9469 -2.8505,2.0543 -0.639,1.2444 -0.6628,2.7768 -0.1211,4.0596 0.3946,0.9262 1.1761,1.6644 2.1161,2.0209 1.0643,0.4132 2.261,0.3505 3.3506,0.075 0.2086,-0.1397 0.8902,-0.1039 0.7366,-0.4511 -0.067,-0.2093 -0.1331,-0.4185 -0.1997,-0.6278 -1.1506,0.4649 -2.553,0.6029 -3.672,-0.024 z"
       id="path62"
       inkscape:connector-curvature="0" />
    <path
       d="m18.3507,23.5741 0,1.236 1.224,0 0-1.236-1.224,0m0-4.584 0,1.236 1.224,0 0-1.236-1.224,0"
       id="path64" />
    <path
       d="m20.7428,16.4821 2.904,8.856 .996,0-2.904-8.856-.996,0"
       id="path66" />
    <path
       d="m25.453,18.1981 0,.912 4.092,2.064-4.092,1.968 0,.96 5.112-2.412 0-.972-5.112-2.52"
       id="path68" />
    <path
       d="m 34.6983,18.9181 c -0.7844,-2e-4 -1.628,0.2266 -2.1493,0.8492 -0.6579,0.76 -0.8075,1.8262 -0.7003,2.7957 0.075,0.7572 0.4211,1.5246 1.0789,1.9445 0.7063,0.4526 1.6003,0.4938 2.4058,0.3514 0.276,-0.07 0.6464,-0.1272 0.8431,-0.2811 -0.073,-0.2105 -0.1455,-0.4211 -0.2182,-0.6317 -0.5927,0.2215 -1.2533,0.2617 -1.86,0.072 -0.566,-0.1434 -1.0301,-0.5936 -1.196,-1.1522 -0.1776,-0.5881 -0.1914,-1.2285 -0.047,-1.8252 0.1303,-0.557 0.5653,-1.0241 1.1173,-1.1807 0.6682,-0.2152 1.3955,-0.1351 2.0462,0.1021 0.08,-0.232 0.16,-0.464 0.24,-0.696 -0.4909,-0.2135 -1.0208,-0.3614 -1.56,-0.348 z"
       id="path70"
       inkscape:connector-curvature="0" />
    <path
       d="m 41.6198,19.9261 c 0,1.272 0,2.544 0,3.816 -0.6773,0.3954 -1.5663,0.5098 -2.2754,0.1321 -0.6859,-0.3904 -0.9174,-1.2387 -0.9046,-1.9801 -0.017,-0.7553 0.2372,-1.6023 0.9251,-2.0049 0.6867,-0.3897 1.5585,-0.2562 2.2549,0.037 z m 0,-0.768 c -1.0338,-0.4292 -2.3403,-0.3991 -3.22,0.3538 -0.798,0.6582 -1.0336,1.7528 -0.9725,2.7413 0.031,0.8609 0.3842,1.7616 1.1303,2.2446 0.7855,0.513 1.8388,0.5454 2.6883,0.1729 0.2004,-0.014 0.5029,-0.4454 0.5602,-0.1076 0.061,0.09 0.05,0.2883 0.1984,0.247 0.2038,0 0.4075,0 0.6113,0 0,-2.684 0,-5.368 0,-8.052 -0.332,0 -0.664,0 -0.996,0 0,0.8 0,1.6 0,2.4 z"
       id="path72"
       inkscape:connector-curvature="0" />
    <path
       d="m 11.5178,33.8222 c 0,4.62 0,9.24 0,13.86 1.6526,-0.014 3.3067,0.033 4.958,-0.035 1.937,-0.1146 3.9835,-0.7697 5.2231,-2.3461 1.3465,-1.6832 1.5445,-3.9845 1.277,-6.0512 -0.2192,-1.7538 -1.1284,-3.4788 -2.6781,-4.3993 -1.4737,-0.9246 -3.26,-1.0707 -4.958,-1.0289 -1.274,0 -2.548,0 -3.822,0 z m 1.84,1.46 c 1.3841,0.032 2.786,-0.1062 4.15,0.19 1.3245,0.2728 2.6034,1.0822 3.1409,2.3645 0.6312,1.4729 0.6095,3.1522 0.3155,4.7015 -0.2701,1.4073 -1.2078,2.71 -2.5789,3.214 -1.5316,0.6198 -3.2063,0.4122 -4.8172,0.45 -0.3254,0.099 -0.1799,-0.2731 -0.2103,-0.4693 0,-3.4835 0,-6.9671 0,-10.4507 z"
       id="path74"
       inkscape:connector-curvature="0" />
    <path
       d="m 28.5122,37.8822 c 0.6327,-1.4379 2.0112,-2.5635 3.6023,-2.6947 1.6746,-0.2135 3.4153,0.6284 4.2708,2.0869 1.0756,1.7673 1.1932,4.0382 0.4998,5.9653 -0.5462,1.5059 -1.832,2.7973 -3.4532,3.0522 -1.6519,0.32 -3.4591,-0.3695 -4.4085,-1.7743 -1.2282,-1.7372 -1.3915,-4.0784 -0.745,-6.0669 0.068,-0.1935 0.1457,-0.3834 0.2338,-0.5685 z m -2.48,2.88 c -0.039,2.186 0.7493,4.5141 2.5627,5.8466 1.9019,1.3877 4.5353,1.5773 6.7004,0.7356 1.9781,-0.7581 3.3295,-2.6691 3.7144,-4.7119 0.4822,-2.4735 0.059,-5.3121 -1.7611,-7.1696 -1.8578,-1.8512 -4.8362,-2.2109 -7.2347,-1.3232 -1.835,0.6639 -3.1906,2.3168 -3.6721,4.185 -0.2199,0.7922 -0.3097,1.6166 -0.3096,2.4375 z"
       id="path76"
       inkscape:connector-curvature="0" />
    <path
       d="m 45.1032,34.0022 c -1.3764,0.4031 -2.6438,1.4048 -3.0507,2.8211 -0.3487,1.1182 -0,2.4154 0.9094,3.1653 1.074,0.8481 2.4389,1.1778 3.7019,1.6411 0.9627,0.3562 2.1453,0.6664 2.6135,1.6836 0.3911,0.861 -0.021,1.9339 -0.8528,2.3658 -1.3637,0.8051 -3.0581,0.6264 -4.5149,0.1979 -0.5701,-0.1595 -1.1313,-0.3495 -1.6864,-0.5548 -0.1933,0.54 -0.3867,1.08 -0.58,1.62 1.3683,0.534 2.8045,0.9825 4.291,0.9198 1.6872,0.017 3.5407,-0.5006 4.5752,-1.9237 0.908,-1.2106 1.0183,-3.0959 -0.05,-4.2445 -1.018,-0.9862 -2.3874,-1.4746 -3.7234,-1.8605 -0.8485,-0.3119 -1.7384,-0.6108 -2.448,-1.1877 -0.7834,-0.6499 -0.6922,-1.9746 0.1173,-2.5639 1.2174,-0.9756 2.8971,-0.9456 4.3555,-0.6841 0.478,-0.023 1.1886,0.4624 1.5083,0.2158 0.1645,-0.4571 0.3291,-0.9141 0.4936,-1.3712 -1.8183,-0.5774 -3.8082,-0.7962 -5.66,-0.24 z"
       id="path78"
       inkscape:connector-curvature="0" />
    <path
       d="m 55.8953,35.0822 c 1.1015,0.014 2.2053,-0.033 3.305,0.032 0.9031,0.078 1.9068,0.5925 2.08,1.5624 0.2178,0.9318 -0.1501,2.0181 -1.0429,2.4554 -1.275,0.6712 -2.754,0.5196 -4.1465,0.603 -0.3053,0.1032 -0.1659,-0.2537 -0.1956,-0.4357 0,-1.4058 0,-2.8117 0,-4.2176 z m 0,5.94 c 1.1719,-0.037 2.3442,-0.1737 3.5162,-0.099 1.1741,0.088 2.482,0.6632 2.8899,1.8528 0.3449,1.03 0.055,2.3593 -0.967,2.8889 -1.1387,0.6044 -2.4504,0.5678 -3.7017,0.5572 -0.5792,0 -1.1583,0 -1.7374,0 0,-1.7333 0,-3.4667 0,-5.2 z m -1.66,-7.22 c 0,4.6267 0,9.2533 0,13.88 1.7112,-0.011 3.4233,0.023 5.1338,-0.02 1.5602,-0.075 3.2058,-0.6797 4.0823,-2.043 0.9493,-1.4072 0.8241,-3.4802 -0.4127,-4.6801 -0.5049,-0.5312 -1.1824,-0.8898 -1.9034,-1.0172 0.9313,-0.417 1.5536,-1.3809 1.7628,-2.3569 0.24,-1.3953 -0.5766,-2.8743 -1.8892,-3.4095 -1.1571,-0.5062 -2.4379,-0.3154 -3.6631,-0.3536 -1.0368,0 -2.0737,0 -3.1105,0 z"
       id="path80"
       inkscape:connector-curvature="0" />
    <path
       d="m 68.4916,40.1822 c 0.9756,-1.3215 3.1798,-1.3655 4.2364,-0.1235 0.92,1.0556 1.025,2.5745 0.8106,3.9005 -0.1841,1.1248 -0.9289,2.2553 -2.0913,2.528 -1.0482,0.2696 -2.2893,-0 -2.9557,-0.905 -0.8625,-1.1049 -0.9626,-2.6275 -0.6827,-3.9561 0.1231,-0.5218 0.3473,-1.0235 0.6827,-1.4439 z m -1.26,6.36 c 0.9245,1.0284 2.3665,1.4199 3.7124,1.3316 1.3275,-0.042 2.6624,-0.6464 3.436,-1.7503 0.9209,-1.285 1.0374,-2.9684 0.8162,-4.4881 -0.1922,-1.3312 -0.9553,-2.6217 -2.181,-3.2376 -1.1752,-0.5917 -2.5751,-0.6425 -3.837,-0.3289 -1.4473,0.3642 -2.5915,1.5909 -2.95,3.0266 -0.3138,1.2641 -0.3013,2.625 0.086,3.8717 0.1914,0.5814 0.4981,1.1272 0.9175,1.575 z"
       id="path82"
       inkscape:connector-curvature="0" />
    <path
       d="m84.2988,38.0422-2.62,3.82-2.72-3.82-1.86,0 3.5,4.9-3.38,4.74 1.7,0 2.46-3.62 2.58,3.62 1.86,0-3.36-4.72 3.56-4.92-1.72,0"
       id="path84" />
  </g>
</svg>
