<?xml version="1.0" encoding="UTF-8" standalone="no"?>
<svg
   xmlns:dc="http://purl.org/dc/elements/1.1/"
   xmlns:cc="http://creativecommons.org/ns#"
   xmlns:rdf="http://www.w3.org/1999/02/22-rdf-syntax-ns#"
   xmlns:svg="http://www.w3.org/2000/svg"
   xmlns="http://www.w3.org/2000/svg"
   xmlns:xlink="http://www.w3.org/1999/xlink"
   xmlns:sodipodi="http://sodipodi.sourceforge.net/DTD/sodipodi-0.dtd"
   xmlns:inkscape="http://www.inkscape.org/namespaces/inkscape"
   viewBox="0 0 96 96"
   id="svg2"
   version="1.1"
   inkscape:version="0.91 r"
   sodipodi:docname="dropbox.svg">
  <title
     id="title177">dropbox</title>
  <metadata
     id="metadata156">
    <rdf:RDF>
      <cc:Work
         rdf:about="">
        <dc:format>image/svg+xml</dc:format>
        <dc:type
           rdf:resource="http://purl.org/dc/dcmitype/StillImage" />
        <dc:title>dropbox</dc:title>
        <dc:subject>
          <rdf:Bag>
            <rdf:li>dropbox</rdf:li>
            <rdf:li>cloud-sync</rdf:li>
          </rdf:Bag>
        </dc:subject>
        <dc:description>dropbox, cloud-sync</dc:description>
      </cc:Work>
    </rdf:RDF>
  </metadata>
  <sodipodi:namedview
     pagecolor="#ffffff"
     bordercolor="#666666"
     borderopacity="1"
     objecttolerance="10"
     gridtolerance="10"
     guidetolerance="10"
     inkscape:pageopacity="0"
     inkscape:pageshadow="2"
     inkscape:window-width="1280"
     inkscape:window-height="965"
     id="namedview154"
     showgrid="false"
     inkscape:zoom="4.91667"
     inkscape:cx="92.2507"
     inkscape:cy="45.008"
     inkscape:window-x="0"
     inkscape:window-y="27"
     inkscape:window-maximized="1"
     inkscape:current-layer="svg2" />
  <defs
     id="defs4">
    <clipPath
       id="clipPath3613">
      <path
         fill="#fff"
         d="m12,6h72a6,6 0 0,1 6,6v72a6,6 0 0,1 -6,6h-72a6,6 0 0,1 -6-6v-72a6,6 0 0,1 6-6"
         id="path7" />
    </clipPath>
    <filter
       width="1.384"
       x="-.192"
       y="-.192"
       height="1.384"
       color-interpolation-filters="sRGB"
       id="filter3794">
      <feGaussianBlur
         stdDeviation="5.28"
         id="feGaussianBlur10" />
    </filter>
    <linearGradient
       id="linearGradient3722"
       xlink:href="#linearGradient3707"
       x1="48.077"
       x2="65.112"
       gradientUnits="userSpaceOnUse" />
    <linearGradient
       gradientTransform="matrix(1.02381 0 0 1.0119 -1.14286 -98.07143)"
       id="linearGradient3780"
       xlink:href="#ButtonShadow-0"
       y1="6.132"
       y2="90.239"
       x2="0"
       gradientUnits="userSpaceOnUse" />
    <linearGradient
       id="linearGradient3713"
       xlink:href="#linearGradient3707"
       x1="31"
       x2="48.035"
       gradientUnits="userSpaceOnUse" />
    <linearGradient
       gradientTransform="translate(0 -97)"
       id="linearGradient3721"
       xlink:href="#ButtonShadow-0"
       y1="6.132"
       y2="90.239"
       x2="0"
       gradientUnits="userSpaceOnUse" />
    <linearGradient
       id="linearGradient3782"
       xlink:href="#linearGradient3731"
       y1="74.688"
       x1="47.835"
       y2="28.007"
       x2="48.322"
       gradientUnits="userSpaceOnUse"
       gradientTransform="translate(0,1)" />
    <linearGradient
       id="linearGradient3730"
       xlink:href="#linearGradient3724"
       x1="27.395"
       x2="48.112"
       gradientUnits="userSpaceOnUse" />
    <linearGradient
       id="linearGradient3739"
       xlink:href="#linearGradient3731"
       y1="77.265"
       y2="21.944"
       x2="0"
       gradientUnits="userSpaceOnUse" />
    <linearGradient
       id="linearGradient3799"
       xlink:href="#linearGradient3801"
       x1="48"
       x2="69.018"
       gradientUnits="userSpaceOnUse" />
    <linearGradient
       id="linearGradient3738"
       xlink:href="#linearGradient3724"
       x1="48"
       x2="69.018"
       gradientUnits="userSpaceOnUse" />
    <linearGradient
       id="linearGradient3790"
       xlink:href="#linearGradient3784"
       x1="31.085"
       x2="48.112"
       gradientUnits="userSpaceOnUse" />
    <linearGradient
       id="linearGradient3773"
       xlink:href="#linearGradient3757"
       x1="47.917"
       x2="76.734"
       gradientUnits="userSpaceOnUse" />
    <linearGradient
       id="linearGradient3746"
       xlink:href="#linearGradient3740"
       x1="47.917"
       x2="76.624"
       gradientUnits="userSpaceOnUse" />
    <linearGradient
       id="linearGradient3763"
       xlink:href="#linearGradient3757"
       x1="19.069"
       x2="47.886"
       gradientUnits="userSpaceOnUse" />
    <linearGradient
       id="linearGradient3755"
       xlink:href="#linearGradient3748"
       x1="19.288"
       x2="47.995"
       gradientUnits="userSpaceOnUse" />
    <linearGradient
       gradientTransform="matrix(1.00587 0 0 .99417 100 0)"
       id="ButtonShadow-0"
       y1="92.54"
       y2="7.017"
       x2="0"
       gradientUnits="userSpaceOnUse">
      <stop
         offset="0"
         id="stop27" />
      <stop
         offset="1"
         stop-opacity=".588"
         id="stop29" />
    </linearGradient>
    <linearGradient
       id="linearGradient3748">
      <stop
         offset="0"
         stop-color="#5aabf2"
         id="stop32" />
      <stop
         offset="1"
         stop-color="#badaf5"
         id="stop34" />
    </linearGradient>
    <linearGradient
       id="linearGradient3724">
      <stop
         offset="0"
         stop-color="#0d82e4"
         id="stop37" />
      <stop
         offset="1"
         stop-color="#bcdbf7"
         id="stop39" />
    </linearGradient>
    <linearGradient
       id="linearGradient3757">
      <stop
         offset="0"
         stop-color="#389bed"
         id="stop42" />
      <stop
         offset="1"
         stop-color="#c2e5fc"
         id="stop44" />
    </linearGradient>
    <linearGradient
       id="linearGradient3801">
      <stop
         offset="0"
         stop-color="#107cd9"
         id="stop47" />
      <stop
         offset="1"
         stop-color="#79b8e8"
         id="stop49" />
    </linearGradient>
    <linearGradient
       id="linearGradient3731">
      <stop
         offset="0"
         stop-color="#520"
         id="stop52" />
      <stop
         offset="1"
         stop-color="#520"
         stop-opacity="0"
         id="stop54" />
    </linearGradient>
    <linearGradient
       id="linearGradient3784">
      <stop
         offset="0"
         stop-color="#1b8cee"
         id="stop57" />
      <stop
         offset="1"
         stop-color="#79b8e8"
         id="stop59" />
    </linearGradient>
    <linearGradient
       id="linearGradient3740">
      <stop
         offset="0"
         stop-color="#5cacf5"
         id="stop62" />
      <stop
         offset="1"
         stop-color="#abd4f4"
         id="stop64" />
    </linearGradient>
    <linearGradient
       id="linearGradient3617"
       xlink:href="#linearGradient3700"
       y1="90"
       y2="5.988"
       x2="0"
       gradientUnits="userSpaceOnUse" />
    <linearGradient
       id="linearGradient3188"
       xlink:href="#linearGradient3737"
       y1="6"
       y2="63.893"
       x2="0"
       gradientUnits="userSpaceOnUse" />
    <linearGradient
       id="linearGradient3613"
       xlink:href="#linearGradient3737"
       y1="20.221"
       y2="138.661"
       x2="0"
       gradientUnits="userSpaceOnUse" />
    <linearGradient
       id="linearGradient3707">
      <stop
         offset="0"
         stop-color="#a8d4fb"
         id="stop70" />
      <stop
         offset="1"
         stop-color="#dff0fa"
         id="stop72" />
    </linearGradient>
    <linearGradient
       id="linearGradient3700">
      <stop
         offset="0"
         stop-color="#eec00f"
         id="stop75" />
      <stop
         offset="1"
         stop-color="#fff8a0"
         id="stop77" />
    </linearGradient>
    <linearGradient
       id="linearGradient3737">
      <stop
         offset="0"
         stop-color="#fff"
         id="stop80" />
      <stop
         offset="1"
         stop-color="#fff"
         stop-opacity="0"
         id="stop82" />
    </linearGradient>
    <radialGradient
       cx="48"
       cy="90.172"
       gradientTransform="matrix(1.15731,0,0,0.99591,-7.55102,0.19713)"
       r="42"
       id="radialGradient3619"
       xlink:href="#linearGradient3737"
       gradientUnits="userSpaceOnUse" />
    <linearGradient
       inkscape:collect="always"
       xlink:href="#linearGradient3731"
       id="linearGradient158"
       gradientUnits="userSpaceOnUse"
       y1="77.265"
       x2="0"
       y2="21.944" />
    <linearGradient
       inkscape:collect="always"
       xlink:href="#linearGradient3731"
       id="linearGradient160"
       gradientUnits="userSpaceOnUse"
       y1="77.265"
       x2="0"
       y2="21.944" />
  </defs>
  <path
     opacity=".08"
     fill="url(#linearGradient3780)"
     d="m12-95.0312c-5.5111,0-10.0312,4.5202-10.0312,10.0312v71c0,5.5111 4.5202,10.0312 10.0312,10.0312h72c5.5111,0 10.0312-4.5202 10.0312-10.0312v-71c0-5.5111-4.5202-10.0312-10.0312-10.0312h-72z"
     transform="scale(1 -1)"
     id="path94" />
  <path
     opacity=".1"
     fill="url(#linearGradient3780)"
     d="m12-94.0312c-4.9716,0-9.0312,4.0596-9.0312,9.0312v71c0,4.9716 4.0596,9.0312 9.0312,9.0312h72c4.9716,0 9.0312-4.0596 9.0312-9.0312v-71c0-4.9716-4.0596-9.0312-9.0312-9.0312h-72z"
     transform="scale(1 -1)"
     id="path96" />
  <path
     opacity=".2"
     fill="url(#linearGradient3780)"
     d="m12-93c-4.4091,0-8,3.5909-8,8v71c0,4.4091 3.5909,8 8,8h72c4.4091,0 8-3.5909 8-8v-71c0-4.4091-3.5909-8-8-8h-72z"
     transform="scale(1 -1)"
     id="path98" />
  <path
     opacity=".3"
     fill="url(#linearGradient3780)"
     d="m12-92h72a7,7 0 0,1 7,7v71a7,7 0 0,1 -7,7h-72a7,7 0 0,1 -7-7v-71a7,7 0 0,1 7-7"
     transform="scale(1 -1)"
     id="path100" />
  <path
     opacity=".45"
     fill="url(#linearGradient3721)"
     d="m12-91h72a6,6 0 0,1 6,6v72a6,6 0 0,1 -6,6h-72a6,6 0 0,1 -6-6v-72a6,6 0 0,1 6-6"
     transform="scale(1 -1)"
     id="path102" />
  <path
     fill="url(#linearGradient3617)"
     d="m12,6h72a6,6 0 0,1 6,6v72a6,6 0 0,1 -6,6h-72a6,6 0 0,1 -6-6v-72a6,6 0 0,1 6-6"
     id="path104" />
  <path
     style="opacity:0.5;fill:url(#linearGradient3188)"
     d="M 12,6 C 8.11425,5.86322 5.41842,9.7916 6,13.4226 6.01817,37.1117 5.96368,60.8028 6.02721,84.4906 5.28209,86.8321 10.5384,90.3041 9.3125,89.2189 6.06848,87.1934 7.20936,83.0941 7,79.918 7.01709,57.4408 6.96584,34.9619 7.02559,12.4857 7.23712,9.18528 10.6966,7.53718 13.6597,8.0003 37.2778,8.01738 60.8976,7.96615 84.5146,8.02589 87.815,8.23742 89.4631,11.6969 89,14.66 c -0.023,23.6263 0.047,47.2557 -0.035,70.8801 0.6395,2.1759 -4.9497,5.3487 -1.452,3.2815 3.5336,-2.4814 2.2373,-6.9817 2.4873,-10.6151 -0.021,-22.2736 0.041,-44.5493 -0.031,-66.8216 C 89.7162,7.60958 85.8109,5.47608 82.3404,6.0001 58.8936,6.00003 35.4467,6.00023 12,6 Z"
     id="path106"
     inkscape:connector-curvature="0" />
  <path
     style="opacity:0.2;fill:url(#radialGradient3619)"
     d="M 12,90 C 8.11425,90.1368 5.41842,86.2084 6,82.5774 6.01817,58.8883 5.96368,35.1972 6.02721,11.5094 5.28209,9.16789 10.5384,5.69592 9.3125,6.7811 6.06848,8.80663 7.20936,12.9059 7,16.082 c 0.0171,22.4772 -0.0342,44.9561 0.0256,67.4323 0.21153,3.3004 3.67101,4.9485 6.63411,4.4854 23.6181,-0.017 47.2379,0.034 70.8549,-0.026 3.3004,-0.2115 4.9485,-3.671 4.4854,-6.6341 -0.023,-23.6263 0.047,-47.2557 -0.035,-70.8801 0.6395,-2.17591 -4.9497,-5.34874 -1.452,-3.28154 3.5336,2.48139 2.2373,6.98174 2.4873,10.61514 -0.021,22.2736 0.041,44.5493 -0.031,66.8216 -0.253,3.7753 -4.1583,5.9088 -7.6288,5.3848 C 58.8936,90 35.4467,89.9998 12,90 Z"
     id="path108"
     inkscape:connector-curvature="0" />
  <path
     opacity=".1"
     fill="url(#linearGradient3613)"
     filter="url(#filter3794)"
     stroke="#fff"
     stroke-linecap="round"
     stroke-width=".5"
     d="m27,15h42a12,12 0 0,1 12,12v42a12,12 0 0,1 -12,12h-42a12,12 0 0,1 -12-12v-42a12,12 0 0,1 12-12"
     clip-path="url(#clipPath3613)"
     id="path110" />
  <path
     style="color:#000000;opacity:0.05;fill:url(#linearGradient158)"
     d="m 36.0625,20.5312 c -3.9738,1.7315 -7.4759,4.4328 -11.256,6.5621 -2.7586,1.6997 -5.6517,3.2303 -8.2123,5.2191 -2.47,2.9631 1.1158,5.6244 3.144,7.4447 1.466,1.7205 7.6625,4.0496 3.7539,6.1097 -2.5197,2.0388 -5.205,3.9288 -7.4605,6.258 -1.9276,3.5682 2.3465,5.6037 4.8296,7.0782 2.3435,2.1174 6.8397,2.7601 6.9627,6.3312 1.3244,2.5394 4.408,3.2222 6.3989,5.1128 4.1823,2.9406 8.289,6.0178 12.6212,8.727 2.9898,0.7136 5.0272,-2.101 7.3471,-3.4451 4.5031,-3.291 9.3117,-6.2175 13.6198,-9.7435 0.3633,-2.9784 2.3444,-4.3115 4.8494,-5.5712 2.3733,-2.0668 6.6828,-2.8309 7.5249,-6.1986 0.3065,-3.0779 -2.9435,-4.2544 -4.7116,-6.0474 -1.6197,-1.7753 -6.9273,-3.796 -2.8874,-5.7021 2.3823,-2.07 4.9471,-3.9924 7.07,-6.3232 C 81.4721,32.9854 77.5176,30.7663 75,29.5311 70.0758,26.6102 65.2817,23.4412 60.25,20.7186 c -4.4454,0.3232 -7.0512,4.204 -10.0102,6.7357 -1.5201,1.2876 -3.1657,2.0293 -4.5805,-0.1972 -2.5783,-2.2222 -5.0628,-4.5851 -7.8781,-6.5073 -0.5423,-0.2328 -1.1419,-0.237 -1.7187,-0.2186 z"
     id="path114"
     inkscape:connector-curvature="0"
     sodipodi:nodetypes="ccccccccccccccccccccccc" />
  <path
     inkscape:connector-curvature="0"
     style="color:#000000;opacity:0.1;fill:url(#linearGradient160)"
     id="path116"
     d="m 36.1562,21.5938 c -3.112,1.4879 -5.9473,3.587 -8.9687,5.2737 -3.2381,2.0594 -6.6736,3.8673 -9.7813,6.1013 -1.718,2.1064 0.615,3.8339 2.0963,5.055 1.8977,2.2382 6.709,4.4744 7.0466,6.7149 -3.1653,2.6551 -6.576,5.071 -9.5804,7.8864 -1.4596,2.6764 1.7497,3.9315 3.5048,5.0919 2.6793,1.7134 5.376,3.4 8.0265,5.1581 -0.7113,2.3767 1.5658,3.9141 3.375,4.8438 5.0651,3.5506 10.0918,7.246 15.25,10.625 2.261,0.6329 3.7706,-1.6828 5.5548,-2.6145 4.7026,-3.4096 9.5993,-6.5754 14.2265,-10.073 0.93,-1.8673 0.3841,-3.8168 2.9341,-4.4925 2.9586,-1.9569 6.1102,-3.6881 8.9096,-5.8513 1.288,-1.8721 -0.5748,-3.6895 -2.0938,-4.5938 -2.3785,-2.1395 -5.8111,-4.273 -7.5625,-6.4062 3.1891,-2.8238 6.5919,-5.4788 9.625,-8.4375 1.5324,-2.9786 -2.4061,-4.13 -4.2429,-5.4236 -4.8163,-2.8924 -9.5695,-5.9299 -14.4446,-8.7014 -2.4178,-0.5194 -3.6759,2.184 -5.4777,3.2495 -2.2842,1.5897 -4.6385,4.717 -6.9048,5.3275 -3.4801,-2.7848 -6.6797,-6.0252 -10.2738,-8.6082 -0.3925,-0.1591 -0.8089,-0.1226 -1.2188,-0.125 z" />
  <path
     inkscape:connector-curvature="0"
     style="color:#000000;opacity:0.15;fill:url(#linearGradient3739)"
     id="path118"
     d="M 36.3125,22.5312 A 0.8077,0.8077 0 0 0 36,22.6562 c -5.8648,3.5262 -11.8445,7.1417 -17.6875,10.75 a 0.8077,0.8077 0 0 0 -0.2188,0.2188 c -0.279,0.3854 -0.4018,0.921 -0.2812,1.3438 0.1205,0.4227 0.3883,0.6837 0.625,0.9062 0.4734,0.4452 1.0082,0.7782 1.125,0.9062 a 0.8077,0.8077 0 0 0 0.062,0.094 c 2.9587,2.5383 5.985,4.9805 8.875,7.5312 -0.02,0.016 -0.01,0.014 -0.031,0.031 -0.2321,0.1619 -0.6365,0.4257 -1,0.8125 l -0.031,-0.031 c -3.1479,2.5523 -6.332,5.0614 -9.4688,7.6562 a 0.8077,0.8077 0 0 0 -0.1875,0.2188 c -0.2194,0.3834 -0.297,0.89 -0.1562,1.2812 0.1407,0.3913 0.3866,0.6549 0.625,0.8438 0.4768,0.3778 1.0172,0.5962 1.1875,0.7188 a 0.8077,0.8077 0 0 0 0.031,0.031 c 3.332,2.1532 6.7081,4.195 9.9688,6.375 0.068,0.4267 -0.095,1.0598 -0.031,1.9688 a 0.8077,0.8077 0 0 0 0.125,0.375 c 0.8194,1.2284 2.2363,1.6871 2.9062,2.2812 a 0.8077,0.8077 0 0 0 0.062,0.062 c 4.9201,3.4347 9.8425,6.9598 14.7812,10.3438 a 0.8077,0.8077 0 0 0 0.3438,0.125 c 0.8222,0.1368 1.4639,-0.2985 1.9062,-0.6562 0.4423,-0.3577 0.79,-0.6574 1,-0.75 A 0.8077,0.8077 0 0 0 50.6875,76 c 5.084,-3.6447 10.3027,-7.2242 15.375,-10.8125 a 0.8077,0.8077 0 0 0 0.125,-0.125 c 0.3198,-0.3491 0.4372,-0.7898 0.4688,-1.1562 0.031,-0.3665 2e-4,-0.6596 -0.031,-0.9375 -0.059,-0.5187 -0.029,-0.7706 0.031,-0.875 3.6835,-2.3779 7.4705,-4.6911 11.125,-7.1562 a 0.8077,0.8077 0 0 0 0.3125,-0.3438 c 0.1791,-0.4363 0.1492,-0.9693 -0.031,-1.3438 -0.1804,-0.3745 -0.439,-0.6161 -0.6875,-0.8125 -0.497,-0.3928 -0.9935,-0.6948 -1.0938,-0.8125 a 0.8077,0.8077 0 0 0 -0.125,-0.094 c -2.9265,-2.3959 -5.8992,-4.7136 -8.75,-7.125 0.019,-0.015 0.01,-0.015 0.031,-0.031 0.2328,-0.1703 0.6432,-0.4034 1,-0.8125 l 0.031,0.031 c 3.0847,-2.663 6.2611,-5.3045 9.3125,-8.0312 a 0.8077,0.8077 0 0 0 0.1875,-0.25 C 78.1594,34.902 78.1785,34.38 77.9999,34 77.8213,33.62 77.535,33.3923 77.2811,33.2188 76.7734,32.8716 76.2618,32.6359 76.1249,32.5313 a 0.8077,0.8077 0 0 0 -0.094,-0.031 c -5.3605,-3.2265 -10.7152,-6.578 -16.0938,-9.75 a 0.8077,0.8077 0 0 0 -0.2812,-0.125 c -0.8448,-0.1212 -1.4598,0.4101 -1.875,0.8125 -0.4152,0.4024 -0.7793,0.7973 -0.9688,0.9062 a 0.8077,0.8077 0 0 0 -0.125,0.062 c -2.9283,2.482 -5.7858,5.031 -8.7188,7.4375 -0.088,-0.042 -0.1378,-0.043 -0.3125,-0.2188 -0.2388,-0.2405 -0.5498,-0.6128 -1,-0.9062 -0.039,-0.033 -0.086,-0.06 -0.125,-0.094 -3.0639,-2.5954 -6.1285,-5.3398 -9.25,-7.875 a 0.8077,0.8077 0 0 0 -0.2812,-0.1562 c -0.2633,-0.079 -0.4702,-0.068 -0.625,-0.062 a 0.8077,0.8077 0 0 0 -0.062,0 z" />
  <path
     inkscape:connector-curvature="0"
     style="color:#000000;opacity:0.3;fill:url(#linearGradient3782)"
     id="path120"
     d="m 36.4062,23.3438 c -0.033,0.01 8e-4,0.022 -0.031,0.031 -0.032,0.01 -0.031,-0.011 -0.062,0 -0.032,0.011 -5e-4,0.018 -0.031,0.031 -0.031,0.013 0,-0.015 -0.031,0 -0.03,0.015 0,0.015 -0.031,0.031 -0.029,0.016 0,-0.018 -0.031,0 a 0.5,0.5 0 0 1 -0.031,0.031 l -17.25,10.5 c -0.029,0.018 0,-0.019 -0.031,0 -0.028,0.019 0,0.01 -0.031,0.031 -0.027,0.021 -0.01,0.01 -0.031,0.031 -0.025,0.022 -0.01,0.01 -0.031,0.031 -0.024,0.024 -0.01,0.01 -0.031,0.031 -0.022,0.025 -0.01,0 -0.031,0.031 -0.021,0.026 -0.012,0 -0.031,0.031 -0.019,0.028 0.018,0 0,0.031 -0.018,0.029 -0.015,0 -0.031,0.031 -0.016,0.03 -0.017,0.032 -0.031,0.062 -0.014,0.031 0.012,-2e-4 0,0.031 -0.012,0.032 -0.021,-9e-4 -0.031,0.031 -0.011,0.032 0.01,0 0,0.031 -0.01,0.033 0.01,0.029 0,0.062 -0.01,0.033 0,0 0,0.031 0,0.033 -0.029,0 -0.031,0.031 0,0.034 7e-4,0.029 0,0.062 -7e-4,0.034 0,0 0,0.031 0,0.034 0,0.029 0,0.062 0,0.034 0.026,0 0.031,0.031 0.01,0.033 -0.01,0 0,0.031 0.01,0.033 -0.01,0.03 0,0.062 0.01,0.033 0.02,-7e-4 0.031,0.031 0.011,0.032 -0.013,0 0,0.031 0.013,0.031 0.017,8e-4 0.031,0.031 0.015,0.03 -0.017,0.033 0,0.062 0.017,0.029 0.013,0 0.031,0.031 0.018,0.029 0.011,0 0.031,0.031 0.02,0.027 0.01,0.01 0.031,0.031 0.021,0.026 -0.023,0.01 0,0.031 0.023,0.025 0.01,0.01 0.031,0.031 0.024,0.023 0.01,0.01 0.031,0.031 l 10.5,8.875 a 0.5,0.5 0 0 1 0,0.75 l -10.6875,8.5938 c -0.026,0.021 -0.01,0.01 -0.031,0.031 -0.025,0.023 -0.01,0.01 -0.031,0.031 -0.024,0.024 -0.01,0.01 -0.031,0.031 -0.022,0.025 -0.011,0 -0.031,0.031 -0.021,0.027 -0.012,0 -0.031,0.031 -0.019,0.028 0.017,0.034 0,0.062 -0.017,0.029 -0.016,0 -0.031,0.031 -0.016,0.03 -0.017,5e-4 -0.031,0.031 -0.014,0.031 0.012,-2e-4 0,0.031 -0.012,0.032 -0.021,-9e-4 -0.031,0.031 -0.01,0.032 0.01,0.03 0,0.062 -0.01,0.033 0.01,0 0,0.031 -0.01,0.033 0,0 0,0.031 0,0.033 -0.029,0.029 -0.031,0.062 0,0.034 4e-4,0 0,0.031 -4e-4,0.034 0,0.029 0,0.062 0,0.034 0.028,0 0.031,0.031 0,0.034 -0.01,0 0,0.031 0.01,0.033 -0.01,0.03 0,0.062 0.01,0.033 -0.01,0 0,0.031 0.01,0.032 0.02,-5e-4 0.031,0.031 0.011,0.032 -0.013,2e-4 0,0.031 0.013,0.031 0.016,0.032 0.031,0.062 0.015,0.03 -0.017,0 0,0.031 0.017,0.029 0.013,0 0.031,0.031 0.018,0.028 0.011,0 0.031,0.031 0.02,0.027 0.01,0.01 0.031,0.031 0.022,0.026 0.01,0.01 0.031,0.031 0.023,0.025 0.01,0.01 0.031,0.031 0.024,0.023 0.01,0.01 0.031,0.031 0.026,0.022 0,0.011 0.031,0.031 0.014,0.01 0.029,0 0.031,0 l 11.4062,7.25 a 0.5,0.5 0 0 1 0.2188,0.4375 l -0.031,1.375 a 0.5,0.5 0 0 1 -0.031,0.1875 c -0.01,0.023 -0.023,0.01 -0.031,0.031 -0.01,0.023 0.01,0.01 0,0.031 -0.01,0.023 0.01,0.01 0,0.031 -0.01,0.023 0.01,0.01 0,0.031 -0.01,0.024 -0.027,0.01 -0.031,0.031 0,0.024 0,0.01 0,0.031 0,0.024 0,0.01 0,0.031 0,0.024 0,0.01 0,0.031 0,0.024 2e-4,0.01 0,0.031 -2e-4,0.024 -8e-4,0.01 0,0.031 8e-4,0.024 0,0.01 0,0.031 0,0.024 0,0.01 0,0.031 0,0.024 0,0.01 0,0.031 0,0.024 0.026,0.01 0.031,0.031 0.01,0.024 -0.01,0.01 0,0.031 0.01,0.023 -0.01,0.01 0,0.031 0.01,0.023 0.022,0.01 0.031,0.031 0.01,0.023 -0.01,0.01 0,0.031 0.01,0.022 -0.011,0.01 0,0.031 0.011,0.022 0.02,0.01 0.031,0.031 0.012,0.021 -0.013,0.01 0,0.031 0.013,0.021 0.018,0.011 0.031,0.031 0.014,0.02 0.016,0.012 0.031,0.031 0.015,0.019 0.015,0.013 0.031,0.031 0.016,0.018 -0.017,0.014 0,0.031 0.017,0.018 0.014,-0.017 0.031,0 0.017,0.017 0.013,0.015 0.031,0.031 0.018,0.016 -0.019,0.016 0,0.031 0.019,0.015 0.012,-0.015 0.031,0 0.019,0.015 0.011,0.018 0.031,0.031 l 17.0625,12 c 0.018,0.013 0.013,-0.012 0.031,0 0.019,0.012 0.012,0.02 0.031,0.031 0.019,0.011 0.012,0.022 0.031,0.031 0.02,0.01 0.011,-0.01 0.031,0 0.02,0.01 0.011,-0.01 0.031,0 0.02,0.01 0.011,0.024 0.031,0.031 0.021,0.01 0.01,-0.01 0.031,0 0.021,0.01 0.01,0.026 0.031,0.031 0.021,0 0.01,0 0.031,0 0.022,0 0.01,0 0.031,0 0.022,0 0.01,0 0.031,0 0.022,0 0.01,0 0.031,0 0.022,0 0.01,-8e-4 0.031,0 0.022,8e-4 0.01,0 0.031,0 0.022,-8e-4 0.01,0 0.031,0 0.022,0 0.01,0 0.031,0 0.022,0 0.01,0 0.031,0 0.022,0 0.01,0 0.031,0 0.022,0 0.01,0 0.031,0 0.021,-0.01 0.01,-0.025 0.031,-0.031 0.021,-0.01 0.011,0.01 0.031,0 0.021,-0.01 0.011,-0.023 0.031,-0.031 0.02,-0.01 0.011,0.01 0.031,0 0.02,-0.01 0.012,0.01 0.031,0 0.02,-0.01 0.012,-0.021 0.031,-0.031 0.019,-0.011 0.013,-0.019 0.031,-0.031 0.019,-0.012 0.013,0.013 0.031,0 l 10.5938,-7.5 a 0.5,0.5 0 0 1 0.031,0 0.5,0.5 0 0 1 0.062,-0.062 0.5,0.5 0 0 1 0.031,0 l 0.062,-0.031 6.1562,-4.3125 a 0.5,0.5 0 0 1 0.031,-0.031 c 0.023,-0.014 0.01,0.015 0.031,0 0.022,-0.015 0.01,-0.015 0.031,-0.031 a 0.5,0.5 0 0 1 0.031,-0.031 c 0.018,-0.01 0.013,0.011 0.031,0 0.01,-0.01 0.03,7e-4 0.031,0 0,-7e-4 -0.01,-0.025 0,-0.031 0.017,-0.012 0.015,-0.018 0.031,-0.031 a 0.5,0.5 0 0 1 0.062,-0.062 0.5,0.5 0 0 1 0.031,-0.031 c 0.019,-0.019 -0.018,-0.011 0,-0.031 0.018,-0.02 0.015,-0.011 0.031,-0.031 0.017,-0.021 0.016,-0.01 0.031,-0.031 0.015,-0.022 0.018,-0.01 0.031,-0.031 0.014,-0.023 -0.013,-0.01 0,-0.031 0.012,-0.023 0.02,-0.01 0.031,-0.031 0.011,-0.024 -0.01,-0.01 0,-0.031 0.01,-0.024 0.022,-0.01 0.031,-0.031 0.01,-0.025 -0.01,-0.01 0,-0.031 0.01,-0.025 -0.01,-0.01 0,-0.031 0.01,-0.026 -0.01,-0.01 0,-0.031 0.01,-0.026 0.027,-0.01 0.031,-0.031 0,-0.026 0,0 0,-0.031 0,-0.026 0,0 0,-0.031 0,-0.026 -8e-4,0 0,-0.031 l -0.031,-2.0312 A 0.5,0.5 0 0 1 66.02,61.5114 l 11.0625,-7.0312 c 0,0 0.018,0.01 0.031,0 0.027,-0.02 0.01,-0.01 0.031,-0.031 0.026,-0.022 0.01,-0.01 0.031,-0.031 0.025,-0.023 0.01,-0.01 0.031,-0.031 0.023,-0.025 0.01,-0.01 0.031,-0.031 0.022,-0.026 0.011,0 0.031,-0.031 0.02,-0.027 0.013,0 0.031,-0.031 0.018,-0.028 0.015,0 0.031,-0.031 0.017,-0.029 -0.015,-10e-4 0,-0.031 0.015,-0.03 0.018,-0.032 0.031,-0.062 0.013,-0.031 -0.011,5e-4 0,-0.031 0.011,-0.032 0.022,0 0.031,-0.031 0.01,-0.032 -0.01,0 0,-0.031 0.01,-0.033 -0.01,-0.029 0,-0.062 0.01,-0.033 0,0 0,-0.031 0,-0.033 0.03,0 0.031,-0.031 0,-0.034 4e-4,-0.029 0,-0.062 -4e-4,-0.034 0,0 0,-0.031 0,-0.034 -0.027,-0.029 -0.031,-0.062 0,-0.033 0.01,0 0,-0.031 -0.01,-0.033 0.01,0 0,-0.031 -0.01,-0.033 0.01,-0.03 0,-0.062 -0.01,-0.032 -0.019,2e-4 -0.031,-0.031 -0.012,-0.032 0.014,-5e-4 0,-0.031 -0.014,-0.031 -0.016,0 -0.031,-0.031 -0.016,-0.03 -0.014,0 -0.031,-0.031 -0.017,-0.029 0.019,-0.035 0,-0.062 -0.019,-0.028 -0.011,0 -0.031,-0.031 -0.021,-0.027 -0.01,-0.01 -0.031,-0.031 -0.022,-0.025 -0.01,-0.01 -0.031,-0.031 -0.024,-0.024 -0.01,-0.01 -0.031,-0.031 -0.025,-0.023 0,-0.01 -0.031,-0.031 l -10.5625,-8.5 a 0.5,0.5 0 0 1 0,-0.75 l 10.5,-8.9375 c 0.026,-0.022 0.01,-0.01 0.031,-0.031 0.024,-0.023 0.01,-0.01 0.031,-0.031 0.023,-0.025 -0.022,-0.01 0,-0.031 0.022,-0.026 0.011,0 0.031,-0.031 0.02,-0.027 0.013,0 0.031,-0.031 0.018,-0.029 0.015,0 0.031,-0.031 0.016,-0.029 -0.015,-0.032 0,-0.062 0.015,-0.03 0.018,0 0.031,-0.031 0.013,-0.031 -0.011,7e-4 0,-0.031 0.011,-0.032 0.022,0 0.031,-0.031 0.01,-0.032 -0.01,-0.029 0,-0.062 0.01,-0.033 -0.01,0 0,-0.031 0.01,-0.033 0.028,0 0.031,-0.031 0,-0.034 0,-0.029 0,-0.062 0,-0.034 7e-4,0 0,-0.031 -7e-4,-0.034 0,-0.029 0,-0.062 0,-0.034 -0.027,0 -0.031,-0.031 0,-0.033 0.01,0 0,-0.031 -0.01,-0.033 0.01,-0.03 0,-0.062 -0.01,-0.033 0.01,9e-4 0,-0.031 -0.011,-0.032 -0.019,2e-4 -0.031,-0.031 -0.012,-0.032 0.014,-6e-4 0,-0.031 -0.014,-0.031 -0.015,-0.033 -0.031,-0.062 -0.016,-0.03 -0.014,0 -0.031,-0.031 -0.018,-0.029 0.019,0 0,-0.031 -0.019,-0.028 -0.01,0 -0.031,-0.031 -0.021,-0.027 -0.01,-0.01 -0.031,-0.031 -0.022,-0.025 -0.01,-0.01 -0.031,-0.031 -0.024,-0.024 -0.01,-0.01 -0.031,-0.031 -0.025,-0.022 0,-0.01 -0.031,-0.031 -0.027,-0.021 0,-0.012 -0.031,-0.031 -0.028,-0.019 0,0.018 -0.031,0 L 59.748,23.5309 c -0.019,-0.011 -0.012,-0.02 -0.031,-0.031 -0.019,-0.011 -0.012,0.01 -0.031,0 -0.02,-0.01 -0.011,-0.022 -0.031,-0.031 -0.02,-0.01 -0.011,0.01 -0.031,0 -0.021,-0.01 -0.01,-0.024 -0.031,-0.031 -0.021,-0.01 -0.01,0.01 -0.031,0 -0.021,-0.01 -0.01,0.01 -0.031,0 -0.021,-0.01 -0.01,0 -0.031,0 -0.022,0 -0.01,0 -0.031,0 -0.022,0 0.022,-0.029 0,-0.031 -0.022,0 -0.01,0 -0.031,0 -0.022,0 -0.01,0 -0.031,0 -0.022,0 -0.01,2e-4 -0.031,0 -0.022,-2e-4 -0.01,-6e-4 -0.031,0 -0.022,6e-4 -0.01,0 -0.031,0 -0.022,0 -0.01,0 -0.031,0 -0.022,0 -0.01,0 -0.031,0 -0.022,0 -0.01,0.027 -0.031,0.031 -0.021,0 -0.01,-0.01 -0.031,0 -0.021,0.01 -0.01,-0.01 -0.031,0 -0.021,0.01 -0.01,0.024 -0.031,0.031 -0.021,0.01 -0.011,-0.01 -0.031,0 -0.02,0.01 -0.011,-0.01 -0.031,0 -0.02,0.01 0.02,0.022 0,0.031 -0.02,0.01 -0.012,-0.01 -0.031,0 -0.02,0.01 -0.012,-0.011 -0.031,0 -0.019,0.011 -0.013,0.019 -0.031,0.031 -0.018,0.013 -0.014,0.018 -0.031,0.031 -0.018,0.013 -0.014,-0.014 -0.031,0 l -10.5938,9.125 a 0.5,0.5 0 0 1 -0.625,0 L 36.9993,23.4996 c -0.021,-0.018 -0.01,0.017 -0.031,0 -0.022,-0.017 -0.01,-0.016 -0.031,-0.031 -0.023,-0.016 -0.01,-0.017 -0.031,-0.031 -0.024,-0.015 -0.01,0.013 -0.031,0 -0.024,-0.013 -0.01,-0.019 -0.031,-0.031 -0.025,-0.012 -0.01,0.011 -0.031,0 -0.025,-0.011 -0.01,-0.021 -0.031,-0.031 -0.026,-0.01 0,0.01 -0.031,0 -0.026,-0.01 0,0.01 -0.031,0 -0.027,-0.01 0,-0.025 -0.031,-0.031 -0.027,-0.01 0,0 -0.031,0 -0.027,0 0,0 -0.031,0 -0.027,0 0,0 -0.031,0 -0.028,0 -0.035,6e-4 -0.062,0 -0.028,-6e-4 0,-7e-4 -0.031,0 -0.017,0 -0.029,-3e-4 -0.031,0 0,3e-4 -0.015,0 -0.031,0 -0.033,0.01 0,-0.01 -0.031,0 z" />
  <path
     style="color:#000000;fill:#0b5a9a"
     d="m 36.4062,22.3438 c -5.8616,3.5246 -11.814,7.1426 -17.653,10.748 -0.6771,0.9378 0.8505,1.5482 1.3998,2.1538 3.0825,2.6445 6.2544,5.209 9.2821,7.9026 0.2094,0.8563 -1.0708,1.1205 -1.485,1.6893 -3.1535,2.5566 -6.3504,5.0649 -9.4774,7.6511 -0.5198,0.9106 0.8299,1.3287 1.4265,1.7608 3.435,2.2197 6.9504,4.3455 10.3357,6.6232 0.2505,0.7609 -0.063,1.6241 -0.013,2.354 0.589,0.8796 1.906,1.361 2.7538,2.1126 4.9254,3.4385 9.8445,6.9742 14.7737,10.3524 0.954,0.1569 1.6285,-1.0104 2.4706,-1.3812 5.0925,-3.6505 10.3019,-7.2257 15.3674,-10.809 0.7019,-0.7699 -0.2359,-2.1773 0.4328,-2.99 3.7562,-2.43 7.6168,-4.7579 11.3105,-7.2482 0.4203,-1.0281 -1.1158,-1.4691 -1.6747,-2.128 -3.0519,-2.4985 -6.2018,-4.9066 -9.1937,-7.4604 -0.2042,-0.85 1.0514,-1.1441 1.4538,-1.727 3.0945,-2.6711 6.2861,-5.2771 9.3211,-7.9881 0.452,-0.9759 -0.9954,-1.3157 -1.6092,-1.7874 -5.3652,-3.231 -10.7339,-6.5697 -16.0968,-9.7344 -0.8847,-0.1251 -1.5283,1.1304 -2.3092,1.579 -3.0358,2.5732 -6.0033,5.2538 -9.0813,7.7609 -0.8473,-0.015 -1.3184,-1.0502 -2.0185,-1.44 -3.118,-2.636 -6.1992,-5.4115 -9.3397,-7.9622 -0.1191,-0.037 -0.2401,-0.034 -0.3761,-0.032 z"
     id="path124"
     inkscape:connector-curvature="0" />
  <path
     style="color:#000000;fill:#fdfffe"
     inkscape:connector-curvature="0"
     id="path126"
     d="M 47.9584,51 65,63.0208 47.9584,75.0416 30.9168,63.0208 47.9584,51 Z" />
  <path
     inkscape:connector-curvature="0"
     style="color:#000000;fill:url(#linearGradient3746)"
     id="path130"
     d="m 59.384,23.1097 17.2398,10.4937 -11.6654,9.8965 -17.0416,-10.5 11.4673,-9.8903 z" />
  <path
     inkscape:connector-curvature="0"
     style="color:#000000;fill:url(#linearGradient3755)"
     id="path132"
     d="m 36.528,23.0549 -17.2398,10.4937 11.6654,9.8965 17.0416,-10.5 -11.4673,-9.8903 z" />
  <path
     fill="url(#linearGradient3713)"
     d="m31,63 .1726-19.7536 16.8626-10.2877 0,18.0228l-17.0351,12.0184z"
     id="path134" />
  <path
     opacity=".6"
     fill="url(#linearGradient3730)"
     d="m47.9578,74.8058 .1547-20.8848-17.0173-10.5971v19.7246l16.8626,11.7574z"
     id="path136" />
  <path
     fill="url(#linearGradient3722)"
     d="m65.0028,63-.0628-19.7536-16.9174-10.3426v18.2971l16.9803,11.799z"
     id="path138" />
  <path
     opacity=".6"
     fill="url(#linearGradient3738)"
     d="m48.1547,74.8058-.1547-20.8848 17.0173-10.5971v19.7246l-16.8626,11.7574z"
     id="path140" />
  <g
     color="#000"
     id="g142">
    <path
       fill="url(#linearGradient3773)"
       d="m64.9583,43.4514 11.7752,9.4577-17.1514,10.9389-11.6654-9.8965 17.0416-10.5z"
       id="path144" />
    <path
       fill="url(#linearGradient3763)"
       d="m30.8439,43.4514-11.7752,9.4577 17.1513,10.9389 11.6654-9.8965-17.0416-10.5z"
       id="path146" />
    <path
       opacity=".2"
       fill="#fdfffe"
       d="m47.9584,51 17.0416,12.0208-17.0416,12.0208-17.0416-12.0208 17.0416-12.0208z"
       id="path148" />
  </g>
  <path
     opacity=".6"
     fill="url(#linearGradient3790)"
     d="m31.0938,43.5938 0,16.9688 5.125,3.2812l11.6562-9.9062-16.7812-10.3438z"
     id="path150" />
  <path
     opacity=".6"
     fill="url(#linearGradient3799)"
     d="m64.9688,43.4375-12.9688,8-4,2.4688 0,.125 11.5938,9.8125 5.4375-3.4688 0-16.875-.0625-.0625z"
     id="path152" />
</svg>
