<?xml version="1.0" encoding="UTF-8" standalone="no"?>
<!-- Created with Inkscape (http://www.inkscape.org/) -->

<svg
   xmlns:dc="http://purl.org/dc/elements/1.1/"
   xmlns:cc="http://creativecommons.org/ns#"
   xmlns:rdf="http://www.w3.org/1999/02/22-rdf-syntax-ns#"
   xmlns:svg="http://www.w3.org/2000/svg"
   xmlns="http://www.w3.org/2000/svg"
   xmlns:xlink="http://www.w3.org/1999/xlink"
   xmlns:sodipodi="http://sodipodi.sourceforge.net/DTD/sodipodi-0.dtd"
   xmlns:inkscape="http://www.inkscape.org/namespaces/inkscape"
   version="1.0"
   width="96"
   height="96"
   id="svg2408"
   inkscape:version="0.91 r"
   sodipodi:docname="easytag.svg">
  <title
     id="title198">easytag</title>
  <sodipodi:namedview
     pagecolor="#ffffff"
     bordercolor="#666666"
     borderopacity="1"
     objecttolerance="10"
     gridtolerance="10"
     guidetolerance="10"
     inkscape:pageopacity="0"
     inkscape:pageshadow="2"
     inkscape:window-width="1280"
     inkscape:window-height="965"
     id="namedview121"
     showgrid="false"
     inkscape:zoom="6.95322"
     inkscape:cx="31.0418"
     inkscape:cy="56.4909"
     inkscape:window-x="0"
     inkscape:window-y="27"
     inkscape:window-maximized="1"
     inkscape:current-layer="svg2408" />
  <defs
     id="defs2410">
    <linearGradient
       id="linearGradient4432">
      <stop
         id="stop4434"
         style="stop-color:#e7b67d;stop-opacity:0.71372551"
         offset="0" />
      <stop
         id="stop4436"
         style="stop-color:#e2ac6e;stop-opacity:1"
         offset="1" />
    </linearGradient>
    <linearGradient
       id="linearGradient4199">
      <stop
         id="stop4201"
         style="stop-color:#ffffff;stop-opacity:1"
         offset="0" />
      <stop
         id="stop4203"
         style="stop-color:#ffffff;stop-opacity:0"
         offset="1" />
    </linearGradient>
    <linearGradient
       id="linearGradient3953">
      <stop
         id="stop3955"
         style="stop-color:#d78a26;stop-opacity:1"
         offset="0" />
      <stop
         id="stop3957"
         style="stop-color:#eaac5e;stop-opacity:1"
         offset="1" />
    </linearGradient>
    <linearGradient
       id="linearGradient3816">
      <stop
         id="stop3818"
         style="stop-color:#e9e9e9;stop-opacity:1"
         offset="0" />
      <stop
         id="stop3820"
         style="stop-color:#828282;stop-opacity:1"
         offset="1" />
    </linearGradient>
    <linearGradient
       id="linearGradient3785">
      <stop
         id="stop3787"
         style="stop-color:#b77223;stop-opacity:1"
         offset="0" />
      <stop
         id="stop3789"
         style="stop-color:#b27024;stop-opacity:1"
         offset="1" />
    </linearGradient>
    <linearGradient
       id="linearGradient3705">
      <stop
         id="stop3707"
         style="stop-color:#305388;stop-opacity:1"
         offset="0" />
      <stop
         id="stop3709"
         style="stop-color:#7e9fd2;stop-opacity:1"
         offset="1" />
    </linearGradient>
    <linearGradient
       id="linearGradient3680">
      <stop
         id="stop3682"
         style="stop-color:#ebebeb;stop-opacity:1"
         offset="0" />
      <stop
         id="stop3684"
         style="stop-color:#ffffff;stop-opacity:1"
         offset="1" />
    </linearGradient>
    <linearGradient
       x1="45.447727"
       y1="92.539597"
       x2="45.447727"
       y2="7.0165396"
       id="ButtonShadow"
       gradientUnits="userSpaceOnUse"
       gradientTransform="scale(1.0058652,0.994169)">
      <stop
         id="stop3750"
         style="stop-color:#000000;stop-opacity:1"
         offset="0" />
      <stop
         id="stop3752"
         style="stop-color:#000000;stop-opacity:0.58823532"
         offset="1" />
    </linearGradient>
    <linearGradient
       id="linearGradient3737">
      <stop
         id="stop3739"
         style="stop-color:#ffffff;stop-opacity:1"
         offset="0" />
      <stop
         id="stop3741"
         style="stop-color:#ffffff;stop-opacity:0"
         offset="1" />
    </linearGradient>
    <filter
       color-interpolation-filters="sRGB"
       id="filter3174">
      <feGaussianBlur
         id="feGaussianBlur3176"
         stdDeviation="1.71" />
    </filter>
    <linearGradient
       x1="36.357143"
       y1="6"
       x2="36.357143"
       y2="63.893143"
       id="linearGradient3188"
       xlink:href="#linearGradient3737"
       gradientUnits="userSpaceOnUse" />
    <filter
       x="-0.192"
       y="-0.192"
       width="1.3839999"
       height="1.3839999"
       color-interpolation-filters="sRGB"
       id="filter3794">
      <feGaussianBlur
         id="feGaussianBlur3796"
         stdDeviation="5.28" />
    </filter>
    <linearGradient
       x1="48"
       y1="20.220806"
       x2="48"
       y2="138.66119"
       id="linearGradient3613"
       xlink:href="#linearGradient3737"
       gradientUnits="userSpaceOnUse" />
    <radialGradient
       cx="48"
       cy="90.171875"
       r="42"
       fx="48"
       fy="90.171875"
       id="radialGradient3619"
       xlink:href="#linearGradient3737"
       gradientUnits="userSpaceOnUse"
       gradientTransform="matrix(1.15731,0,0,0.995908,-7.55102,0.197132)" />
    <clipPath
       id="clipPath3613">
      <rect
         width="84"
         height="84"
         rx="6"
         ry="6"
         x="6"
         y="6"
         id="rect3615"
         style="fill:#ffffff;fill-opacity:1;fill-rule:nonzero;stroke:none" />
    </clipPath>
    <linearGradient
       x1="45.447727"
       y1="92.539597"
       x2="45.447727"
       y2="7.0165396"
       id="ButtonShadow-0"
       gradientUnits="userSpaceOnUse"
       gradientTransform="matrix(1.0058652,0,0,0.994169,100,0)">
      <stop
         id="stop3750-8"
         style="stop-color:#000000;stop-opacity:1"
         offset="0" />
      <stop
         id="stop3752-5"
         style="stop-color:#000000;stop-opacity:0.58823532"
         offset="1" />
    </linearGradient>
    <linearGradient
       x1="32.251034"
       y1="6.1317081"
       x2="32.251034"
       y2="90.238609"
       id="linearGradient3721"
       xlink:href="#ButtonShadow-0"
       gradientUnits="userSpaceOnUse"
       gradientTransform="matrix(1,0,0,-1,0,97)" />
    <linearGradient
       x1="59.445351"
       y1="69.246223"
       x2="59.445351"
       y2="13.154833"
       id="linearGradient3686"
       xlink:href="#linearGradient3680"
       gradientUnits="userSpaceOnUse"
       gradientTransform="matrix(0.97368421,0,0,0.9736825,1.2631579,1.2633047)" />
    <linearGradient
       x1="72"
       y1="80"
       x2="32"
       y2="8"
       id="linearGradient3711"
       xlink:href="#linearGradient3705"
       gradientUnits="userSpaceOnUse"
       gradientTransform="translate(90,0)" />
    <linearGradient
       x1="72"
       y1="80"
       x2="32"
       y2="16"
       id="linearGradient3719"
       xlink:href="#linearGradient3705"
       gradientUnits="userSpaceOnUse"
       gradientTransform="translate(90,0)" />
    <linearGradient
       x1="48"
       y1="40"
       x2="60.594677"
       y2="87.003983"
       id="linearGradient3791"
       xlink:href="#linearGradient3785"
       gradientUnits="userSpaceOnUse"
       gradientTransform="matrix(0.97368421,0,0,0.9736825,1.2631579,1.2633047)" />
    <linearGradient
       x1="48"
       y1="90"
       x2="48"
       y2="5.9877172"
       id="linearGradient3812"
       xlink:href="#linearGradient3953"
       gradientUnits="userSpaceOnUse" />
    <linearGradient
       x1="10"
       y1="16.5"
       x2="23"
       y2="16.5"
       id="linearGradient3822"
       xlink:href="#linearGradient3816"
       gradientUnits="userSpaceOnUse"
       gradientTransform="matrix(0,-1,-1,0,33,33)" />
    <linearGradient
       x1="10"
       y1="16.5"
       x2="23"
       y2="16.5"
       id="linearGradient3830"
       xlink:href="#linearGradient3816"
       gradientUnits="userSpaceOnUse"
       gradientTransform="matrix(0,1,-1,0,33,0)" />
    <linearGradient
       x1="32.251034"
       y1="6.1317081"
       x2="32.251034"
       y2="90.238609"
       id="linearGradient3847"
       xlink:href="#ButtonShadow-0"
       gradientUnits="userSpaceOnUse"
       gradientTransform="matrix(1.0238095,0,0,-1.0119048,-1.1428571,98.071429)" />
    <linearGradient
       x1="32.251034"
       y1="6.1317081"
       x2="32.251034"
       y2="90.238609"
       id="linearGradient3858"
       xlink:href="#ButtonShadow-0"
       gradientUnits="userSpaceOnUse"
       gradientTransform="matrix(1.0238095,0,0,-1.0119048,-1.1428571,98.071429)" />
    <linearGradient
       x1="32.251034"
       y1="6.1317081"
       x2="32.251034"
       y2="90.238609"
       id="linearGradient3866"
       xlink:href="#ButtonShadow-0"
       gradientUnits="userSpaceOnUse"
       gradientTransform="matrix(1.0238095,0,0,-1.0119048,-1.1428571,98.071429)" />
    <linearGradient
       x1="32.251034"
       y1="6.1317081"
       x2="32.251034"
       y2="90.238609"
       id="linearGradient3875"
       xlink:href="#ButtonShadow-0"
       gradientUnits="userSpaceOnUse"
       gradientTransform="matrix(1.0238095,0,0,-1.0119048,-1.1428571,98.071429)" />
    <linearGradient
       x1="47.474781"
       y1="51.296783"
       x2="45.96315"
       y2="-22.609013"
       id="linearGradient4205"
       xlink:href="#linearGradient4199"
       gradientUnits="userSpaceOnUse"
       gradientTransform="translate(100,0)" />
    <linearGradient
       x1="35.951328"
       y1="9.965951"
       x2="35.951328"
       y2="85.237114"
       id="linearGradient4430"
       xlink:href="#linearGradient4432"
       gradientUnits="userSpaceOnUse"
       gradientTransform="matrix(0.97368421,0,0,0.9736825,1.2631579,1.2633047)" />
  </defs>
  <metadata
     id="metadata2413">
    <rdf:RDF>
      <cc:Work
         rdf:about="">
        <dc:format>image/svg+xml</dc:format>
        <dc:type
           rdf:resource="http://purl.org/dc/dcmitype/StillImage" />
        <dc:title>easytag</dc:title>
        <dc:subject>
          <rdf:Bag>
            <rdf:li>easytag</rdf:li>
          </rdf:Bag>
        </dc:subject>
        <dc:description>easytag</dc:description>
      </cc:Work>
    </rdf:RDF>
  </metadata>
  <g
     id="layer2"
     style="display:none">
    <rect
       width="86"
       height="85"
       rx="6"
       ry="6"
       x="5"
       y="7"
       id="rect3745"
       style="opacity:0.9;fill:url(#ButtonShadow);fill-opacity:1;fill-rule:nonzero;stroke:none;filter:url(#filter3174)" />
  </g>
  <g
     id="layer3">
    <path
       d="M 12,3.9375 C 6.472354,3.9375 1.9375,8.472354 1.9375,14 l 0,71 c 0,5.527646 4.534854,10.0625 10.0625,10.0625 l 72,0 c 5.527646,0 10.0625,-4.534854 10.0625,-10.0625 l 0,-71 C 94.0625,8.472354 89.527646,3.9375 84,3.9375 l -72,0 z m 3.75,12.1875 c 0.953469,0 1.53125,0.600715 1.53125,1.5 0,0.899285 -0.577781,1.5 -1.53125,1.5 -0.953469,0 -1.53125,-0.600715 -1.53125,-1.5 0,-0.899285 0.577781,-1.5 1.53125,-1.5 z"
       id="path3873"
       style="opacity:0.07999998;fill:url(#linearGradient3875);fill-opacity:1;fill-rule:nonzero;stroke:none;display:inline" />
    <path
       d="M 12,5.09375 C 7.0964468,5.09375 3.09375,9.0964468 3.09375,14 l 0,71 c 0,4.903553 4.0026968,8.90625 8.90625,8.90625 l 72,0 c 4.903553,0 8.90625,-4.002697 8.90625,-8.90625 l 0,-71 C 92.90625,9.0964468 88.903553,5.09375 84,5.09375 l -72,0 z m 3.75,9.875 c 1.534264,0 2.6875,1.165508 2.6875,2.65625 0,1.490742 -1.153236,2.65625 -2.6875,2.65625 -1.534264,0 -2.6875,-1.165508 -2.6875,-2.65625 0,-1.490742 1.153236,-2.65625 2.6875,-2.65625 z"
       inkscape:connector-curvature="0"
       id="path3864"
       style="opacity:0.1;fill:url(#linearGradient3866);fill-opacity:1;fill-rule:nonzero;stroke:none;display:inline" />
    <path
       d="M 12,5.9375 C 7.5560019,5.9375 3.9375,9.5560019 3.9375,14 l 0,71 c 0,4.443998 3.6185019,8.0625 8.0625,8.0625 l 72,0 c 4.443998,0 8.0625,-3.618502 8.0625,-8.0625 l 0,-71 C 92.0625,9.5560019 88.443998,5.9375 84,5.9375 l -72,0 z m 3.75,8.1875 c 1.978675,0 3.53125,1.558033 3.53125,3.5 0,1.941967 -1.552575,3.5 -3.53125,3.5 -1.978675,0 -3.53125,-1.558033 -3.53125,-3.5 0,-1.941967 1.552575,-3.5 3.53125,-3.5 z"
       id="path3856"
       style="opacity:0.2;fill:url(#linearGradient3858);fill-opacity:1;fill-rule:nonzero;stroke:none;display:inline" />
    <path
       d="M 12,7 C 8.122,7 5,10.122 5,14 l 0,71 c 0,3.878 3.122,7 7,7 l 72,0 c 3.878,0 7,-3.122 7,-7 L 91,14 C 91,10.122 87.878,7 84,7 L 12,7 z m 3.75,6.0625 c 2.544454,0 4.59375,2.047632 4.59375,4.5625 0,2.514868 -2.049296,4.5625 -4.59375,4.5625 -2.544454,0 -4.59375,-2.047632 -4.59375,-4.5625 0,-2.514868 2.049296,-4.5625 4.59375,-4.5625 z"
       inkscape:connector-curvature="0"
       id="path3845"
       style="opacity:0.3;fill:url(#linearGradient3847);fill-opacity:1;fill-rule:nonzero;stroke:none;display:inline" />
    <path
       d="M 12,7 C 8.676,7 6,9.676 6,13 l 0,72 c 0,3.324 2.676,6 6,6 l 72,0 c 3.324,0 6,-2.676 6,-6 L 90,13 C 90,9.676 87.324,7 84,7 L 12,7 z m 4.5,6 C 18.985281,13 21,15.014719 21,17.5 21,19.985281 18.985281,22 16.5,22 14.014719,22 12,19.985281 12,17.5 12,15.014719 14.014719,13 16.5,13 z"
       inkscape:connector-curvature="0"
       id="rect3716"
       style="opacity:0.45;fill:url(#linearGradient3721);fill-opacity:1;fill-rule:nonzero;stroke:none;display:inline" />
  </g>
  <g
     id="layer1"
     style="display:inline">
    <path
       d="M 12,6 C 8.676,6 6,8.676 6,12 l 0,72 c 0,3.324 2.676,6 6,6 l 72,0 c 3.324,0 6,-2.676 6,-6 L 90,12 C 90,8.676 87.324,6 84,6 L 12,6 z m 4.5,4 C 20.089851,10 23,12.910149 23,16.5 23,20.089851 20.089851,23 16.5,23 12.910149,23 10,20.089851 10,16.5 10,12.910149 12.910149,10 16.5,10 z"
       inkscape:connector-curvature="0"
       id="rect2419"
       style="fill:url(#linearGradient3812);fill-opacity:1;fill-rule:nonzero;stroke:none" />
    <path
       style="opacity:0.4;fill:url(#linearGradient3188);fill-opacity:1;fill-rule:nonzero;stroke:none"
       d="M 12,6 C 8.11425,5.86322 5.41842,9.7916 6,13.4226 6.01818,37.1117 5.96366,60.8028 6.02722,84.4906 5.28212,86.832 10.5383,90.304 9.3125,89.2188 6.06854,87.1931 7.20932,83.0939 7,79.9177 7.01709,57.4405 6.96584,34.9616 7.02559,12.4854 7.23709,9.18494 10.6966,7.53688 13.6597,8 c 23.6181,0.0171 47.2379,-0.0342 70.8549,0.0256 3.3005,0.2115 4.9485,3.67101 4.4854,6.63411 -0.023,23.6263 0.047,47.2557 -0.035,70.8801 0.6394,2.1759 -4.9496,5.3488 -1.4521,3.2816 C 91.0463,86.3401 89.75,81.8397 90,78.2064 89.9794,55.9328 90.0412,33.6571 89.9691,11.3848 89.7161,7.60949 85.8108,5.47598 82.3403,6 58.8935,6 35.4468,6 12,6 Z"
       id="rect3728"
       inkscape:connector-curvature="0" />
    <path
       style="opacity:0.2;fill:url(#radialGradient3619);fill-opacity:1;fill-rule:nonzero;stroke:none"
       d="M 12,90 C 8.11425,90.1368 5.41842,86.2084 6,82.5774 6.01818,58.8883 5.96366,35.1972 6.02722,11.5094 5.28212,9.16796 10.5383,5.696 9.3125,6.78125 6.06854,8.80692 7.20932,12.9061 7,16.0823 c 0.0171,22.4772 -0.0342,44.9561 0.0256,67.4323 0.2115,3.3005 3.67101,4.9485 6.63411,4.4854 23.6181,-0.017 47.2379,0.034 70.8549,-0.026 C 87.8151,87.7629 89.4631,84.3034 89,81.3403 88.9765,57.714 89.0469,34.0846 88.9648,10.4602 89.6042,8.28431 84.0152,5.11138 87.5127,7.17856 91.0463,9.65991 89.75,14.1603 90,17.7936 89.9794,40.0672 90.0412,62.3429 89.9691,84.6152 89.7161,88.3905 85.8108,90.524 82.3403,90 58.8935,90 35.4468,90 12,90 Z"
       id="path3615"
       inkscape:connector-curvature="0" />
    <path
       d="m 28.526316,12.947494 0,3.89473 c 0,5.91525 -4.795266,10.710509 -10.710527,10.710509 l -4.868421,0 0,51.605172 c 0,2.15768 1.737053,3.89473 3.894737,3.89473 l 62.31579,0 c 2.157684,0 3.894737,-1.73705 3.894737,-3.89473 l 0,-62.315681 c 0,-2.15768 -1.737053,-3.89473 -3.894737,-3.89473 l -50.631579,0 z"
       inkscape:connector-curvature="0"
       id="rect3648"
       style="color:#000000;fill:url(#linearGradient3686);fill-opacity:1;fill-rule:nonzero;stroke:none;stroke-width:1;marker:none;visibility:visible;display:inline;overflow:visible;enable-background:accumulate" />
    <rect
       width="72"
       height="72"
       rx="4"
       ry="4"
       x="112"
       y="12"
       id="rect3666"
       style="opacity:0.4;color:#000000;fill:#000000;fill-opacity:1;fill-rule:nonzero;stroke:none;stroke-width:1;marker:none;visibility:visible;display:inline;overflow:visible;enable-background:accumulate" />
    <path
       d="m 112,1 0,5.1875 C 109.61397,7.405894 107.76493,9.485569 106.78125,12 L 101,12 l 0,15 16,0 c 6.07513,0 11,-4.924868 11,-11 l 0,-15 -16,0 z"
       inkscape:connector-curvature="0"
       id="path3671"
       style="opacity:0.4;color:#000000;fill:#000000;fill-opacity:1;fill-rule:nonzero;stroke:none;stroke-width:1;marker:none;visibility:visible;display:inline;overflow:visible;enable-background:accumulate" />
    <path
       d="m 184,1 0,5.1875 c 2.38603,1.218394 4.23507,3.298069 5.21875,5.8125 L 195,12 l 0,15 -16,0 c -6.07513,0 -11,-4.924868 -11,-11 l 0,-15 16,0 z"
       inkscape:connector-curvature="0"
       id="path3673"
       style="opacity:0.4;color:#000000;fill:#000000;fill-opacity:1;fill-rule:nonzero;stroke:none;stroke-width:1;marker:none;visibility:visible;display:inline;overflow:visible;enable-background:accumulate" />
    <path
       d="m 112,95 0,-5.1875 C 109.61397,88.594106 107.76493,86.514431 106.78125,84 L 101,84 l 0,-15 16,0 c 6.07513,0 11,4.924868 11,11 l 0,15 -16,0 z"
       inkscape:connector-curvature="0"
       id="path3675"
       style="opacity:0.4;color:#000000;fill:#000000;fill-opacity:1;fill-rule:nonzero;stroke:none;stroke-width:1;marker:none;visibility:visible;display:inline;overflow:visible;enable-background:accumulate" />
    <path
       d="m 184,95 0,-5.1875 c 2.38603,-1.218394 4.23507,-3.298069 5.21875,-5.8125 L 195,84 l 0,-15 -16,0 c -6.07513,0 -11,4.924868 -11,11 l 0,15 16,0 z"
       inkscape:connector-curvature="0"
       id="path3677"
       style="opacity:0.4;color:#000000;fill:#000000;fill-opacity:1;fill-rule:nonzero;stroke:none;stroke-width:1;marker:none;visibility:visible;display:inline;overflow:visible;enable-background:accumulate" />
    <path
       d="m 119.96875,13.96875 0,2.03125 c 0,7.146618 -5.82213,12.96875 -12.96875,12.96875 l -3.03125,0 0,51.03125 c 0,1.151924 0.87933,2.03125 2.03125,2.03125 l 64,0 c 1.15192,0 2.03125,-0.879326 2.03125,-2.03125 l 0,-64 c 0,-1.151924 -0.87933,-2.03125 -2.03125,-2.03125 l -50.03125,0 z M 122,16 l 48,0 0,64 -64,0 0,-49 1,0 c 8.23724,0 15,-6.762763 15,-15 z"
       inkscape:connector-curvature="0"
       id="path3690"
       style="opacity:0.8;color:#000000;fill:url(#linearGradient3711);fill-opacity:1;fill-rule:nonzero;stroke:none;stroke-width:1;marker:none;visibility:visible;display:inline;overflow:visible;enable-background:accumulate" />
    <path
       d="m 123.75,17.9375 c -0.94478,8.082607 -7.60037,14.442199 -15.8125,14.90625 l 0,45.21875 60.125,0 0,-60.125 -44.3125,0 z m 0.875,1.09375 42.34375,0 0,57.9375 -57.9375,0 0,-43.1875 c 7.91911,-0.916009 14.2381,-6.963518 15.59375,-14.75 z"
       inkscape:connector-curvature="0"
       id="path3697"
       style="color:#000000;fill:url(#linearGradient3719);fill-opacity:1;fill-rule:nonzero;stroke:none;stroke-width:1;marker:none;visibility:visible;display:inline;overflow:visible;enable-background:accumulate" />
    <path
       d="m 128,12 0,4 c 0,6.075132 -4.92487,11 -11,11 l -5,0 0,34.03125 C 125.55992,50.874335 146.4484,44.375 169.875,44.375 c 4.83554,0 9.54816,0.251838 14.125,0.78125 L 184,16 c 0,-2.216 -1.784,-4 -4,-4 l -52,0 z"
       inkscape:connector-curvature="0"
       id="path4192"
       style="opacity:0.6;color:#000000;fill:url(#linearGradient4205);fill-opacity:1;fill-rule:nonzero;stroke:none;stroke-width:1;marker:none;visibility:visible;display:inline;overflow:visible;enable-background:accumulate" />
    <path
       d="m 28.526316,12.947494 0,3.89473 c 0,5.91525 -4.795266,10.710509 -10.710527,10.710509 l -4.868421,0 0,51.605172 c 0,2.15768 1.737053,3.89473 3.894737,3.89473 l 62.31579,0 c 2.157684,0 3.894737,-1.73705 3.894737,-3.89473 l 0,-62.315681 c 0,-2.15768 -1.737053,-3.89473 -3.894737,-3.89473 l -50.631579,0 z m 2.038651,2.038649 48.592928,0 c 1.055477,0 1.856085,0.800606 1.856085,1.856081 l 0,62.315681 c 0,1.055475 -0.800608,1.856082 -1.856085,1.856082 l -62.31579,0 c -1.055477,0 -1.856085,-0.800607 -1.856085,-1.856082 l 0,-49.566525 2.829769,0 c 7.025143,0 12.749178,-5.724025 12.749178,-12.749156 l 0,-1.856081 z"
       inkscape:connector-curvature="0"
       id="path3764"
       style="opacity:0.1;color:#000000;fill:#a06e2c;fill-opacity:1;fill-rule:nonzero;stroke:none;stroke-width:1;marker:none;visibility:visible;display:inline;overflow:visible;enable-background:accumulate" />
    <path
       d="m 28.526316,12.947494 0,3.89473 c 0,5.91525 -4.795266,10.710509 -10.710527,10.710509 l -4.868421,0 0,51.605172 c 0,2.15768 1.737053,3.89473 3.894737,3.89473 l 62.31579,0 c 2.157684,0 3.894737,-1.73705 3.894737,-3.89473 l 0,-62.315681 c 0,-2.15768 -1.737053,-3.89473 -3.894737,-3.89473 l -50.631579,0 z m 0.943256,0.943256 49.688323,0 c 1.643321,0 2.95148,1.308156 2.95148,2.951474 l 0,62.315681 c 0,1.643318 -1.308159,2.951475 -2.95148,2.951475 l -62.31579,0 c -1.643321,0 -2.95148,-1.308157 -2.95148,-2.951475 l 0,-50.661918 3.925164,0 c 6.433206,0 11.653783,-5.220568 11.653783,-11.653763 l 0,-2.951474 z"
       inkscape:connector-curvature="0"
       id="path3758"
       style="opacity:0.3;color:#000000;fill:#a06e2c;fill-opacity:1;fill-rule:nonzero;stroke:none;stroke-width:1;marker:none;visibility:visible;display:inline;overflow:visible;enable-background:accumulate" />
    <path
       d="m 28.34375,11.00013 a 1.9573072,1.9573038 0 0 0 -1.764803,1.947364 l 0,3.89473 c 0,4.857551 -3.905599,8.763143 -8.763158,8.763143 l -4.868421,0 A 1.9573072,1.9573038 0 0 0 11,27.552733 l 0,51.605172 C 11,82.365971 13.634034,85 16.842105,85 l 62.31579,0 C 82.365966,85 85,82.365971 85,79.157905 L 85,16.842224 C 85,13.634159 82.365966,11.00013 79.157895,11.00013 l -50.631579,0 a 1.9573072,1.9573038 0 0 0 -0.182566,0 z m 0.121711,1.886509 a 0.06605907,0.06605895 0 0 1 0.03043,0 0.06605907,0.06605895 0 0 1 0.03043,0 l 50.631579,0 c 2.193135,0 3.955592,1.762454 3.955592,3.955585 l 0,62.315681 c 0,2.193131 -1.762457,3.955585 -3.955592,3.955585 l -62.31579,0 c -2.193135,0 -3.955592,-1.762454 -3.955592,-3.955585 l 0,-51.605172 a 0.06605907,0.06605895 0 0 1 0,-0.03043 0.06605907,0.06605895 0 0 1 0.03043,-0.03043 0.06605907,0.06605895 0 0 1 0.03043,0 l 4.868421,0 c 5.879563,0 10.649672,-4.7701 10.649672,-10.649653 l 0,-3.89473 a 0.06605907,0.06605895 0 0 1 0,-0.03043 0.06605907,0.06605895 0 0 1 0,-0.03043 z"
       inkscape:connector-curvature="0"
       id="path4421"
       style="color:#000000;fill:url(#linearGradient4430);fill-opacity:1;fill-rule:nonzero;stroke:none;stroke-width:1;marker:none;visibility:visible;display:inline;overflow:visible;enable-background:accumulate" />
    <path
       d="m 28.34375,12.034667 a 0.9157814,0.91577979 0 0 0 -0.730263,0.912827 l 0,3.89473 c 0,5.420375 -4.377313,9.797681 -9.797698,9.797681 l -4.868421,0 a 0.9157814,0.91577979 0 0 0 -0.912829,0.912828 l 0,51.605172 c 0,2.649133 2.158429,4.807558 4.807566,4.807558 l 62.31579,0 c 2.649137,0 4.807566,-2.158425 4.807566,-4.807558 l 0,-62.315681 c 0,-2.649132 -2.158429,-4.807557 -4.807566,-4.807557 l -50.631579,0 a 0.9157814,0.91577979 0 0 0 -0.09128,0 0.9157814,0.91577979 0 0 0 -0.09128,0 z m 0.182566,0.912827 50.631579,0 c 2.157684,0 3.894737,1.73705 3.894737,3.89473 l 0,62.315681 c 0,2.15768 -1.737053,3.89473 -3.894737,3.89473 l -62.31579,0 c -2.157684,0 -3.894737,-1.73705 -3.894737,-3.89473 l 0,-51.605172 4.868421,0 c 5.915261,0 10.710527,-4.795259 10.710527,-10.710509 l 0,-3.89473 z"
       inkscape:connector-curvature="0"
       id="path3776"
       style="color:#000000;fill:url(#linearGradient3791);fill-opacity:1;fill-rule:nonzero;stroke:none;stroke-width:1;marker:none;visibility:visible;display:inline;overflow:visible;enable-background:accumulate" />
    <path
       d="m 21,16 a 5,5 0 1 1 -10,0 5,5 0 1 1 10,0 z"
       transform="matrix(1.3,0,0,1.3,-34.3,-4.3)"
       id="path3793"
       style="opacity:0.4;color:#000000;fill:#000000;fill-opacity:1;fill-rule:nonzero;stroke:none;stroke-width:1;marker:none;visibility:visible;display:inline;overflow:visible;enable-background:accumulate" />
    <g
       id="g4442">
      <path
         d="m 23.991309,16.5 c 0,-4.137336 -3.353973,-7.4913089 -7.491309,-7.4913089 -4.137336,0 -7.4913089,3.3539729 -7.4913089,7.4913089 0,4.137336 3.3539729,7.491309 7.4913089,7.491309 4.137336,0 7.491309,-3.353973 7.491309,-7.491309 z m -1.152509,0 c 0,3.500822 -2.837978,6.3388 -6.3388,6.3388 -3.500822,0 -6.3388,-2.837978 -6.3388,-6.3388 0,-3.500822 2.837978,-6.3388 6.3388,-6.3388 3.500822,0 6.3388,2.837978 6.3388,6.3388 z"
         inkscape:connector-curvature="0"
         id="path4438"
         style="opacity:0.3;color:#000000;fill:#ba782c;fill-opacity:1;fill-rule:nonzero;stroke:none;stroke-width:1;marker:none;visibility:visible;display:inline;overflow:visible;enable-background:accumulate" />
      <path
         d="M 23,16.5 C 23,20.089851 20.089851,23 16.5,23 12.910149,23 10,20.089851 10,16.5 10,12.910149 12.910149,10 16.5,10 c 3.589851,0 6.5,2.910149 6.5,6.5 z m -2,0 C 21,14.014719 18.985281,12 16.5,12 14.014719,12 12,14.014719 12,16.5 c 0,2.485281 2.014719,4.5 4.5,4.5 2.485281,0 4.5,-2.014719 4.5,-4.5 z"
         inkscape:connector-curvature="0"
         id="path3799"
         style="color:#000000;fill:url(#linearGradient3822);fill-opacity:1;fill-rule:nonzero;stroke:none;stroke-width:1;marker:none;visibility:visible;display:inline;overflow:visible;enable-background:accumulate" />
      <path
         d="M 23,16.5 C 23,12.910149 20.089851,10 16.5,10 12.910149,10 10,12.910149 10,16.5 c 0,3.589851 2.910149,6.5 6.5,6.5 3.589851,0 6.5,-2.910149 6.5,-6.5 z m -1,0 C 22,19.537566 19.537566,22 16.5,22 13.462434,22 11,19.537566 11,16.5 11,13.462434 13.462434,11 16.5,11 c 3.037566,0 5.5,2.462434 5.5,5.5 z"
         inkscape:connector-curvature="0"
         id="path2874"
         style="color:#000000;fill:url(#linearGradient3830);fill-opacity:1;fill-rule:nonzero;stroke:none;stroke-width:1;marker:none;visibility:visible;display:inline;overflow:visible;enable-background:accumulate" />
      <path
         d="M 10.03125,17.15625 C 10.025065,17.272475 10,17.382233 10,17.5 10,21.089851 12.910149,24 16.5,24 20.089851,24 23,21.089851 23,17.5 23,17.382233 22.974935,17.272475 22.96875,17.15625 22.635885,20.433915 19.865485,23 16.5,23 13.134515,23 10.364115,20.433915 10.03125,17.15625 z"
         inkscape:connector-curvature="0"
         id="path3832"
         style="color:#000000;fill:#ba772b;fill-opacity:1;fill-rule:nonzero;stroke:none;stroke-width:1;marker:none;visibility:visible;display:inline;overflow:visible;enable-background:accumulate" />
    </g>
  </g>
  <g
     id="layer4"
     style="display:inline">
    <path
       style="fill:#333333"
       d="m 20.0625,42.6875 c -0.4392,-0.099 -0.7954,0.4998 -0.3766,0.7715 0.4004,0.2231 0.9521,-0.2111 1.2986,0.1931 0.301,0.4037 0.1763,0.9293 0.199,1.398 -0.012,1.4975 -0.013,2.9952 -0.033,4.4925 0.021,0.4312 -0.3187,0.881 -0.788,0.7626 -0.3439,-0.092 -0.9676,-0.1225 -0.892,0.4064 0.041,0.4836 0.6322,0.3817 0.9701,0.3714 1.8892,-0.093 3.7832,-0.046 5.6715,0.039 0.3502,0.02 0.8587,0.1483 1.049,-0.2482 0.1599,-0.5744 -0.03,-1.178 0.045,-1.7638 0.011,-0.416 0.055,-0.8431 -0.03,-1.2524 -0.1417,-0.4174 -0.8931,-0.3253 -0.8871,0.138 -0.07,0.5492 0.094,1.1062 -0.025,1.6492 -0.079,0.4129 -0.5107,0.5986 -0.8909,0.6168 -0.7601,0.042 -1.5224,-0.012 -2.2836,-0.012 -0.3762,0.036 -0.8754,-0.081 -0.8044,-0.57 -0.053,-0.7251 -0.039,-1.4529 -0.029,-2.1792 -0.055,-0.4331 0.3866,-0.5109 0.7168,-0.4694 0.3795,0.015 0.8587,-0.082 1.1104,0.2736 0.2215,0.4615 -0.1679,1.0165 0.1145,1.466 0.287,0.3163 0.9197,0.066 0.8007,-0.3903 -0.056,-0.5815 -0.1491,-1.1612 -0.1223,-1.7481 -0.023,-0.6224 0.1429,-1.2333 0.1485,-1.8517 0,-0.4724 -0.7703,-0.5629 -0.8997,-0.1242 -0.1253,0.4313 0.1623,0.9016 -0.047,1.3131 -0.2958,0.3423 -0.7902,0.2277 -1.193,0.2491 -0.3699,0.088 -0.6611,-0.19 -0.6026,-0.564 0.01,-0.4973 -0.023,-0.9975 0.019,-1.4928 0.058,-0.4248 0.5202,-0.596 0.8993,-0.5631 0.8049,0 1.6179,-0.034 2.4156,0.089 0.4705,0.1153 0.5184,0.6895 0.538,1.0926 0.027,0.4148 -0.052,0.8435 0.069,1.2461 0.1501,0.4123 0.893,0.3073 0.869,-0.156 -0.027,-0.404 -0.095,-0.806 -0.06,-1.2135 -0.015,-0.5233 0.1018,-1.0479 0.04,-1.5688 -0.1124,-0.4317 -0.6409,-0.3706 -0.9879,-0.3716 -1.3027,0.064 -2.6076,0.064 -3.9114,0.096 -0.7037,-0.03 -1.4079,-0.1079 -2.1115,-0.1245 z"
       id="path172"
       inkscape:connector-curvature="0" />
    <path
       style="fill:#333333"
       d="m 71.5938,42.75 c -1.1181,-0.036 -2.2556,0.4364 -2.9416,1.3359 -0.9238,1.1585 -1.1232,2.738 -0.9273,4.1684 0.2039,1.4617 1.21,2.8799 2.6887,3.2467 1.0617,0.2483 2.3079,0.1699 3.1623,-0.5729 0.1704,-0.1042 0.5055,-0.7495 0.4079,-0.2471 -0,0.2739 -0.1556,0.6374 0.14,0.8188 0.4807,0.2738 0.9141,-0.2517 0.732,-0.7209 -0.079,-0.6973 -0.014,-1.3994 0.01,-2.0979 0.011,-0.3867 0.2172,-0.9064 0.6933,-0.806 0.4683,0.173 1.082,-0.4349 0.5471,-0.7769 -0.5007,-0.1778 -1.0304,0.077 -1.5438,0.07 -0.7549,0.089 -1.4996,-0.1053 -2.2495,-0.135 -0.5601,-0.082 -0.6916,0.8328 -0.086,0.8278 0.4489,0.086 0.9821,-0.1274 1.3702,0.1705 0.2086,0.3555 0.1184,0.8052 0.069,1.195 -0.124,0.7889 -0.8,1.4309 -1.5925,1.5211 -0.9207,0.1491 -1.9557,-0.1452 -2.5079,-0.9349 -0.7622,-1.0456 -0.8516,-2.4286 -0.6692,-3.6705 0.1571,-1.046 0.7877,-2.1327 1.859,-2.4387 0.9689,-0.2745 2.197,-0.066 2.7665,0.8428 0.3029,0.4515 0.201,0.9997 0.2481,1.5065 0.01,0.4552 0.7276,0.5851 0.8764,0.1501 0.1328,-0.6084 -0.1114,-1.2373 0.022,-1.8505 0.046,-0.3866 0.1691,-0.7715 0.1315,-1.1617 -0.026,-0.5079 -0.9381,-0.5104 -0.89,0.028 10e-4,0.2186 0.1615,0.6939 -0.1392,0.3311 -0.6128,-0.4943 -1.3814,-0.803 -2.1743,-0.7999 z"
       id="path170"
       inkscape:connector-curvature="0" />
    <path
       style="fill:#333333"
       d="m 50.6875,42.875 c -0.4126,-0.054 -0.572,0.3948 -0.4854,0.7236 0.062,0.7926 -0.022,1.5856 -0.044,2.3774 -0.031,0.3756 0.388,0.6514 0.7195,0.4756 0.3463,-0.2269 0.2714,-0.7097 0.2754,-1.0679 -0.061,-0.444 -0.131,-0.9163 0.032,-1.345 0.2123,-0.4377 0.7481,-0.4407 1.1656,-0.3894 0.3812,-0 0.8567,0.082 0.996,0.496 0.1122,0.3995 0.034,0.8206 0.047,1.2303 -0.035,1.4615 -0.01,2.9237 -0.025,4.385 0.011,0.4336 -0.3458,0.8726 -0.8109,0.7627 -0.3348,-0.072 -0.9682,-0.1557 -0.8991,0.3735 0.024,0.3837 0.5093,0.434 0.7936,0.3782 0.8732,-0.1554 1.7717,-0.1646 2.6459,-0.01 0.3328,0.048 0.7385,0.1298 1.0058,-0.1247 0.3211,-0.4539 -0.3078,-0.8299 -0.7161,-0.6344 -0.4411,0.1468 -0.9121,-0.17 -0.9036,-0.6441 -0.029,-0.7965 0,-1.5952 5e-4,-2.3927 0.015,-0.7817 -0.01,-1.5649 0.032,-2.3456 0.053,-0.4112 -0.013,-0.8622 0.2144,-1.228 0.3254,-0.3239 0.8188,-0.2258 1.2368,-0.2367 0.4183,-0.01 0.8775,0.2596 0.8976,0.7168 0.063,0.6249 -0.1577,1.265 0.01,1.8792 0.1765,0.4186 0.952,0.282 0.9364,-0.194 -0.028,-0.6305 -0.1686,-1.2693 -0.029,-1.8972 0.01,-0.3572 0.1843,-0.7915 -0.062,-1.102 -0.3348,-0.2584 -0.7902,-0.1257 -1.1806,-0.1354 -1.3131,0.08 -2.6289,0.029 -3.9435,0.041 -0.6358,-0.031 -1.2708,-0.089 -1.9075,-0.093 z"
       id="path168"
       inkscape:connector-curvature="0" />
    <path
       style="fill:#333333"
       d="M 62.5312 42.875 C 62.1084 42.838 61.7614 43.1616 61.6602 43.5527 C 60.7847 45.7441 59.9217 47.9406 59.0391 50.1289 C 58.8998 50.4974 58.4229 50.6292 58.0938 50.4688 C 57.371 50.3777 57.5064 51.5327 58.1953 51.3105 C 58.7467 51.2965 59.2899 51.1685 59.8438 51.2207 C 60.3847 51.1587 60.9114 51.323 61.4473 51.3438 C 62.0668 51.4556 62.1481 50.4509 61.502 50.5039 C 61.0808 50.4209 60.5171 50.7287 60.2227 50.3027 C 60.1177 49.9624 60.3739 49.6572 60.4727 49.3438 C 60.631 49.0284 60.6949 48.6412 60.9629 48.4004 C 61.3259 48.2955 61.7148 48.3715 62.0898 48.3555 C 62.6629 48.3715 63.2372 48.3546 63.8086 48.3926 C 64.1076 48.4536 64.1137 48.8267 64.2344 49.0547 C 64.3843 49.443 64.5319 49.8334 64.6875 50.2188 C 64.5975 50.8062 63.8528 50.4537 63.4609 50.502 C 62.7876 50.406 62.8597 51.4651 63.5 51.3438 C 64.6403 51.2413 65.7911 51.1962 66.9277 51.3672 C 67.57 51.6328 67.8963 50.5219 67.1543 50.5332 C 66.7473 50.5472 66.2156 50.6832 65.9668 50.2559 C 65.6202 49.6377 65.4322 48.9465 65.168 48.291 C 64.5502 46.642 63.9376 44.9915 63.3164 43.3438 C 63.1896 43.0301 62.8554 42.8676 62.5312 42.875 z M 62.4688 43.9082 C 62.8643 45.0534 63.2607 46.1985 63.6562 47.3438 C 63.7073 47.4849 63.5681 47.5556 63.4473 47.5312 L 61.3906 47.5312 C 61.2368 47.5412 61.189 47.3999 61.2695 47.2891 C 61.6689 46.1622 62.0695 45.0352 62.4688 43.9082 z "
       id="path166" />
    <path
       style="fill:#333333"
       d="M 31.4062 44.6562 C 30.5429 44.6463 29.6111 44.9715 29.0996 45.6992 C 28.8354 46.0887 28.8043 46.7319 29.25 47.0039 C 29.6156 47.2291 30.2494 47.1578 30.3633 46.6816 C 30.5039 46.3566 30.1283 46.1824 30.1055 45.9336 C 30.3534 45.5934 30.8297 45.4901 31.2285 45.4414 C 31.7743 45.4094 32.4457 45.5472 32.7031 46.0859 C 32.8255 46.4394 32.8316 46.8936 32.5801 47.1934 C 32.2389 47.4667 31.7724 47.4862 31.3574 47.5586 C 30.7969 47.6476 30.205 47.6121 29.6719 47.8281 C 29.1278 48.0376 28.6021 48.4428 28.4844 49.0449 C 28.3237 49.7133 28.5515 50.4865 29.1426 50.873 C 29.8225 51.342 30.7068 51.3816 31.498 51.248 C 32.0381 51.1468 32.554 50.8595 32.875 50.4062 C 32.9759 50.8745 33.4004 51.2181 33.8711 51.2598 C 34.4119 51.3318 35.1042 51.2692 35.3848 50.7246 C 35.6025 50.285 35.5109 49.7845 35.5312 49.3125 C 35.5862 48.9932 35.3484 48.6098 34.9883 48.7344 C 34.6831 48.8004 34.7159 49.1396 34.7188 49.3789 C 34.7067 49.7343 34.7813 50.1583 34.4941 50.4258 C 34.2338 50.6159 33.8309 50.4354 33.791 50.1152 C 33.755 49.6962 33.7922 49.2713 33.7812 48.8496 C 33.7713 48.0723 33.7955 47.2944 33.7695 46.5176 C 33.7355 45.8612 33.3837 45.1959 32.7637 44.9219 C 32.3428 44.7195 31.8668 44.6612 31.4062 44.6562 z M 32.7461 47.9062 L 32.75 47.9062 C 32.75 48.2386 32.7602 48.5722 32.7402 48.9043 C 32.7142 49.3709 32.4981 49.8329 32.1152 50.1113 C 31.6486 50.46 31.0335 50.5518 30.4668 50.4746 C 30.0855 50.4186 29.6785 50.2065 29.5488 49.8203 C 29.439 49.4896 29.4887 49.0799 29.7656 48.8438 C 30.0924 48.563 30.534 48.4859 30.9492 48.4414 C 31.3914 48.3994 31.8423 48.3567 32.2617 48.2012 C 32.4376 48.1302 32.6017 48.0292 32.7461 47.9062 z "
       id="path162" />
    <path
       style="fill:#333333"
       d="m 40.4375,44.6563 c -0.2562,0.014 -0.1622,0.4662 -0.2556,0.4726 -0.705,-0.4903 -1.6396,-0.489 -2.442,-0.2793 -0.7548,0.2041 -1.4596,0.8284 -1.5136,1.6459 -0.064,0.5471 0.1562,1.1568 0.6677,1.4178 0.7491,0.4031 1.6085,0.4927 2.4379,0.6014 0.4246,0.075 0.9444,0.2506 1.0537,0.7228 0.1202,0.4751 -0.2213,0.9302 -0.6411,1.1169 -0.5566,0.263 -1.2072,0.1991 -1.7869,0.054 -0.4936,-0.1446 -1.054,-0.4631 -1.1103,-1.0302 -0.06,-0.2632 0.1075,-0.7232 -0.2325,-0.8291 -0.2854,-0.098 -0.6553,0.084 -0.6143,0.4194 0.035,0.3225 0.118,0.6411 0.093,0.9687 -0.01,0.4071 -0.1391,0.8166 -0.065,1.2218 0.09,0.3251 0.5544,0.3519 0.7866,0.1719 0.2379,-0.1108 -0.02,-0.7195 0.2746,-0.4449 0.8773,0.5684 2.0314,0.6248 2.9981,0.2651 0.6765,-0.2628 1.2919,-0.8538 1.3427,-1.6117 0.07,-0.5389 -0.1714,-1.1021 -0.6288,-1.4021 -0.733,-0.5114 -1.6498,-0.5321 -2.5033,-0.6597 -0.4137,-0.065 -0.9139,-0.2646 -0.9992,-0.7272 -0.1218,-0.5298 0.3339,-0.9941 0.8103,-1.1338 0.6445,-0.1876 1.4262,-0.081 1.9062,0.4166 0.2487,0.2556 0.1436,0.6186 0.183,0.9334 0.053,0.3106 0.4945,0.359 0.7097,0.1945 0.1937,-0.2326 0.1182,-0.5733 0.12,-0.8532 -0.071,-0.4421 0.013,-0.884 0.033,-1.3252 -0,-0.3329 -0.3797,-0.3469 -0.6236,-0.3262 z"
       id="path160"
       inkscape:connector-curvature="0" />
    <path
       style="fill:#333333"
       d="m 42.4375,44.9375 c -0.5571,-0.1554 -0.8697,0.7644 -0.2331,0.8369 0.4081,-0.049 0.9503,-0.1542 1.0837,0.3757 0.5961,1.4411 1.2045,2.8774 1.7851,4.3246 0.1845,0.467 0.3299,1.0285 0.029,1.4832 -0.4278,0.7172 -1.3933,1.1381 -2.1864,0.8059 -0.467,-0.1982 0.3239,-0.2918 0.1776,-0.6695 -0,-0.5299 -0.7096,-0.7395 -1.1121,-0.4937 -0.601,0.3175 -0.5159,1.2398 -0.014,1.6124 0.927,0.7621 2.3942,0.6376 3.277,-0.1366 0.8666,-0.7614 1.2625,-1.8806 1.7197,-2.9073 0.5789,-1.3352 1.14,-2.6786 1.7305,-4.0084 0.1632,-0.5894 0.7287,-0.2788 1.1328,-0.4051 0.4555,-0.3387 -0.048,-0.9405 -0.5144,-0.7825 -0.6022,0.054 -1.2089,0.189 -1.8114,0.06 -0.3549,-0.041 -0.8263,-0.1822 -1.0547,0.185 -0.2399,0.5497 0.4786,0.6594 0.8533,0.5343 0.4476,-0.096 0.4235,0.3848 0.2544,0.6484 -0.5182,1.3247 -1.0363,2.6495 -1.5545,3.9742 -0.5133,-1.4525 -1.0379,-2.9014 -1.5441,-4.3563 -0.063,-0.5815 0.669,-0.078 0.9738,-0.2936 0.543,-0.3939 -0.1236,-0.9426 -0.6026,-0.7493 -0.587,0.054 -1.179,0.132 -1.7634,0.029 -0.209,-0.02 -0.4169,-0.059 -0.6262,-0.068 z"
       id="path158"
       inkscape:connector-curvature="0" />
    <path
       style="fill:#333333"
       d="m 26.4063,58.625 c -0.1672,-0.033 -0.3351,0.1112 -0.2725,0.2839 0.055,0.1935 0.2996,0.1781 0.4527,0.1288 0.1857,-0.048 0.3696,0.093 0.3929,0.279 0.037,0.2438 0.014,0.4921 0.02,0.7381 -0,0.7201 0,1.4403 -0,2.1604 0,0.1913 -0.1175,0.408 -0.3307,0.4081 -0.163,0.042 -0.3323,-0.079 -0.4865,0 -0.153,0.1065 -0.1021,0.4032 0.095,0.4267 0.1197,0.044 0.2169,-0.033 0.3335,-0.032 0.3875,-0.044 0.782,-0.085 1.1681,-0.01 0.2009,0.027 0.4265,0.1051 0.61,-0.019 0.1428,-0.1059 0.095,-0.3939 -0.1119,-0.3707 -0.1766,-0.044 -0.3531,0.08 -0.5223,-0 -0.2034,-0.1152 -0.1933,-0.3747 -0.1897,-0.5787 0.012,-0.8668 0.018,-1.7337 0.033,-2.6004 -0,-0.1821 0.1112,-0.3943 0.3193,-0.3823 0.1527,-0.035 0.3141,0.084 0.4567,-0 0.1615,-0.1003 0.1123,-0.3988 -0.085,-0.4226 -0.1084,-0.033 -0.2056,0.038 -0.3151,0.033 -0.3876,0.045 -0.7812,0.08 -1.1681,0.01 -0.132,-0.016 -0.2652,-0.058 -0.3972,-0.05 z"
       id="path154"
       inkscape:connector-curvature="0" />
    <path
       style="fill:#333333"
       d="M 29.0625 58.6562 C 28.7935 58.5692 28.5969 59.0196 28.918 59.0605 C 29.1301 59.0945 29.4259 58.9783 29.5625 59.2051 C 29.6656 59.436 29.612 59.6959 29.625 59.9414 L 29.625 62.2441 C 29.646 62.4956 29.4142 62.7481 29.1562 62.6348 C 28.9185 62.516 28.5536 62.7877 28.8047 63.0098 C 29.0825 63.1528 29.3754 62.9631 29.6641 62.9961 C 30.258 63.0061 30.8508 63.1051 31.4453 63.0488 C 32.0236 63.0078 32.6389 62.7814 32.959 62.2695 C 33.3767 61.6419 33.4302 60.8278 33.248 60.1113 C 33.0977 59.5446 32.7057 59.0166 32.1367 58.8223 C 31.6901 58.6583 31.2025 58.6349 30.7324 58.6621 C 30.4702 58.7021 30.2076 58.7438 29.9414 58.7188 C 29.6483 58.7188 29.3552 58.6562 29.0645 58.6562 L 29.0625 58.6562 z M 31 59.0938 C 31.4318 59.1037 31.9013 59.1659 32.2363 59.4629 C 32.5764 59.7828 32.7174 60.2602 32.7461 60.7148 C 32.7831 61.277 32.6319 61.8775 32.2207 62.2812 C 31.8995 62.5853 31.4297 62.6343 31.0078 62.625 C 30.7935 62.612 30.5619 62.6429 30.3633 62.5449 C 30.2082 62.4699 30.1764 62.2885 30.1895 62.1328 C 30.2005 61.2239 30.2067 60.3132 30.2207 59.4043 C 30.2087 59.2378 30.3439 59.11 30.5078 59.1172 C 30.6705 59.0952 30.8375 59.0947 31 59.0938 z "
       id="path152" />
    <path
       style="fill:#333333"
       d="m 34.625,58.6875 c -0.1966,-0.028 -0.475,0.01 -0.4057,0.2778 -0.01,0.3141 0.024,0.6298 -0.031,0.9407 -0.027,0.1815 0.1572,0.3347 0.3295,0.269 0.1908,-0.1032 0.1352,-0.3674 0.1364,-0.5491 -0.044,-0.2192 0.066,-0.4719 0.3267,-0.4333 0.6002,-0.011 1.2008,-0 1.8012,-0.01 -0.4955,0.4655 -0.9958,0.9262 -1.4883,1.3948 -0.2174,0.2 0.083,0.3806 0.2791,0.2788 0.3898,-0.065 0.8264,-0.098 1.18,0.1118 0.3279,0.211 0.3534,0.6558 0.2734,1.0011 -0.095,0.4321 -0.5157,0.7164 -0.9393,0.7585 -0.4696,0.049 -1.0074,0.013 -1.3703,-0.3253 -0.1291,-0.1163 -0.2203,-0.347 -0.1729,-0.4999 0.1755,0.011 0.4178,-0.027 0.4497,-0.2366 0.059,-0.2819 -0.274,-0.5179 -0.5323,-0.4365 -0.3886,0.086 -0.5857,0.5299 -0.5097,0.8972 0.083,0.4543 0.5016,0.7511 0.9004,0.9212 0.5933,0.2297 1.2823,0.2273 1.8692,-0.022 0.4863,-0.2084 0.8882,-0.6617 0.9265,-1.2041 0.057,-0.4225 -0.099,-0.8723 -0.4372,-1.1399 -0.2787,-0.2501 -0.6641,-0.3328 -1.0295,-0.3106 -0.1173,0.013 0.062,-0.089 0.092,-0.1334 0.3961,-0.3602 0.7979,-0.7145 1.1903,-1.0785 0.1595,-0.1292 0.1244,-0.4352 -0.1031,-0.4579 -0.3346,-0.042 -0.674,3e-4 -1.0103,-0.017 -0.5747,-0 -1.1518,0 -1.725,-0 z"
       id="path150"
       inkscape:connector-curvature="0" />
    <path
       style="fill:#333333"
       d="M 51.1367 58.7109 C 51.0266 58.7074 50.9012 58.7391 50.8105 58.75 C 50.6788 58.7231 50.5396 58.7051 50.4062 58.7188 L 50.4043 58.7188 C 50.197 58.6657 49.937 58.9006 50.123 59.084 C 50.3122 59.202 50.539 59.051 50.7246 59.127 C 50.875 59.2875 50.7955 59.5229 50.8125 59.7207 L 50.8125 60.2812 C 50.5977 59.9263 50.172 59.7593 49.7695 59.7812 C 49.2835 59.7713 48.8018 60.0217 48.543 60.4375 C 48.2032 60.9573 48.1866 61.6312 48.3477 62.2148 C 48.49 62.7206 48.9208 63.1446 49.4492 63.2207 C 49.9379 63.3027 50.5213 63.2312 50.8438 62.8125 C 50.8439 62.9466 50.8233 63.1403 50.9883 63.1836 C 51.1991 63.1466 51.4125 63.1524 51.625 63.1934 C 51.8064 63.2104 52.109 63.174 52.0586 62.9199 C 51.9856 62.6305 51.6652 62.8259 51.4688 62.7812 C 51.2328 62.7152 51.3516 62.3862 51.3145 62.2031 C 51.3147 61.5722 51.3145 60.9413 51.3145 60.3105 C 51.3405 59.8344 51.3972 59.3578 51.3652 58.8809 C 51.3402 58.7529 51.2468 58.7145 51.1367 58.7109 z M 49.8438 60.1875 C 50.1375 60.1884 50.4063 60.3554 50.6016 60.5645 C 50.7751 60.753 50.8084 61.0182 50.8105 61.2637 C 50.8105 61.5873 50.8239 61.9165 50.7539 62.2344 C 50.6589 62.607 50.2691 62.843 49.8984 62.8438 C 49.5902 62.8567 49.2799 62.7162 49.0938 62.4688 C 48.8308 62.1369 48.7873 61.6894 48.8223 61.2812 C 48.8543 60.922 48.9936 60.5422 49.3047 60.334 C 49.4624 60.2272 49.6552 60.1853 49.8438 60.1875 z "
       id="path148" />
    <path
       style="fill:#333333"
       d="M 41.4688 59.7188 C 41.0102 59.7077 40.517 59.8819 40.252 60.2734 C 40.1117 60.4789 40.1145 60.8169 40.3457 60.9551 C 40.5076 61.0161 40.7282 61.037 40.8672 60.916 C 41.0012 60.7685 40.9342 60.537 40.7812 60.4395 C 40.8233 60.2096 41.1254 60.1762 41.3145 60.1348 C 41.6162 60.0968 41.9794 60.1608 42.1445 60.4453 C 42.2788 60.6607 42.2433 61.0195 41.9824 61.1211 C 41.5666 61.2694 41.1151 61.2429 40.6855 61.3223 C 40.3554 61.4203 40.0243 61.6407 39.9395 61.9941 C 39.8465 62.3169 39.9408 62.692 40.2109 62.9043 C 40.6077 63.2489 41.1925 63.2898 41.6777 63.1348 C 41.9045 63.0588 42.1097 62.9138 42.25 62.7188 C 42.305 62.977 42.5446 63.1641 42.8047 63.1797 C 43.0703 63.2047 43.4138 63.1808 43.5547 62.918 C 43.6487 62.7221 43.6224 62.4974 43.6504 62.2871 C 43.6714 62.1236 43.6415 61.9039 43.4609 61.8516 C 43.2945 61.7956 43.1896 61.9683 43.2188 62.1152 C 43.2077 62.3207 43.2622 62.5558 43.1191 62.7266 C 42.9816 62.8539 42.7266 62.7549 42.7188 62.5645 L 42.7188 60.8066 C 42.7188 60.4477 42.5646 60.0605 42.2324 59.8867 C 42.0011 59.7573 41.7306 59.7235 41.4707 59.7188 L 41.4688 59.7188 z M 42.1875 61.4395 L 42.1875 61.957 C 42.1735 62.2017 42.0668 62.4486 41.8672 62.5977 C 41.6511 62.7635 41.3651 62.7919 41.1016 62.7773 C 40.8846 62.7603 40.6523 62.6778 40.5312 62.4863 C 40.4243 62.2984 40.4621 62.0332 40.6328 61.8945 C 40.8243 61.7371 41.0793 61.7008 41.3184 61.6816 C 41.5808 61.6566 41.8476 61.6178 42.0879 61.5039 C 42.1231 61.4853 42.1572 61.4638 42.1875 61.4395 z "
       id="path144" />
    <path
       style="fill:#333333"
       d="m 46.0313,59.75 c -0.4166,-0.011 -0.8325,0.1733 -1.0938,0.5 -0.01,-0.1381 0.038,-0.328 -0.1285,-0.3906 -0.1591,-0.036 -0.3232,0.051 -0.4869,0.013 -0.1845,-0.018 -0.4051,-0.081 -0.5576,0.057 -0.1242,0.1476 0.013,0.3851 0.2048,0.352 0.1551,-0.029 0.4266,-0.1048 0.4682,0.1149 0.055,0.2616 0.023,0.5308 0.031,0.7962 -0,0.4094 0,0.819 -0,1.2282 0.013,0.182 -0.1066,0.3768 -0.309,0.334 -0.1584,-0.011 -0.3865,-0.1019 -0.4591,0.1112 -0.07,0.1866 0.1374,0.3137 0.3019,0.2905 0.3537,-0.02 0.7091,-0.1036 1.0625,-0.031 0.1859,0.011 0.4085,0.088 0.5694,-0.04 0.1393,-0.1415 0.01,-0.417 -0.1958,-0.3634 -0.162,0.052 -0.4063,0.1198 -0.4266,-0.127 -0.068,-0.252 -0.031,-0.5159 -0.04,-0.7738 0.01,-0.4343 -0.041,-0.9006 0.1875,-1.29 0.2296,-0.3713 0.7422,-0.4514 1.129,-0.3127 0.2407,0.072 0.4051,0.2924 0.4415,0.5358 0.041,0.342 0.016,0.6879 0.023,1.0317 -0.01,0.2599 0.017,0.5219 -0.018,0.78 -0.01,0.261 -0.278,0.2215 -0.4504,0.1532 -0.1889,-0.028 -0.3254,0.2043 -0.2095,0.3545 0.1445,0.1435 0.3651,0.058 0.543,0.056 0.3026,-0.027 0.605,0.016 0.9063,0.035 0.1644,-0.01 0.4577,0.012 0.4472,-0.2266 -0.039,-0.2587 -0.3574,-0.1826 -0.5354,-0.1609 -0.1852,-0.095 -0.1609,-0.3452 -0.1826,-0.5236 0.01,-0.4717 0.031,-0.9435 0.028,-1.4152 -0.01,-0.2818 -0.085,-0.5904 -0.3349,-0.7556 -0.2623,-0.1968 -0.581,-0.3332 -0.9121,-0.3327 z"
       id="path142"
       inkscape:connector-curvature="0" />
    <path
       style="fill:#333333"
       d="m 56.1563,59.8125 c -0.3016,-0.017 -0.6124,0.078 -0.8174,0.3083 -0.1077,0.1136 -0.2184,0.2702 -0.1826,0.034 0.033,-0.1835 -0.1583,-0.2399 -0.3021,-0.2175 -0.2022,-0 -0.406,0.019 -0.6042,-0.031 -0.3335,-0.077 -0.3817,0.4841 -0.031,0.4375 0.2333,-0.07 0.5565,-0.038 0.491,0.2922 0.03,0.6215 -0.033,1.2426 -0.022,1.8643 0.026,0.1843 -0.1118,0.3753 -0.3033,0.2985 -0.1604,-0.033 -0.4335,-0.048 -0.446,0.1705 0.014,0.3335 0.4058,0.2418 0.625,0.219 0.3331,-0.065 0.6677,-6e-4 1,0.031 0.3629,0.086 0.419,-0.4963 0.031,-0.4375 -0.1533,0.035 -0.3523,0.1193 -0.3659,-0.1346 -0.015,-0.4409 -0.01,-0.8841 -0.01,-1.3259 0.011,-0.389 0.1136,-0.8526 0.5074,-1.0251 0.2797,-0.1098 0.6423,-0.1257 0.891,0.066 0.2389,0.2473 0.2158,0.6253 0.2244,0.9456 -0.01,0.3976 0.023,0.7972 -0.033,1.1923 0.044,0.2548 -0.1628,0.4483 -0.4001,0.2851 -0.3406,-0.056 -0.2625,0.5217 0.056,0.4342 0.2464,-0.032 0.4927,-0.04 0.7409,-0.038 0.2458,-0.02 0.535,0.128 0.7481,-0.049 0.1791,-0.3284 -0.2796,-0.3388 -0.4873,-0.3322 -0.197,-0.1374 -0.067,-0.4381 -0.097,-0.6452 0.023,-0.495 -0.055,-1.0065 0.1065,-1.4847 0.1048,-0.3187 0.4605,-0.4508 0.7713,-0.4188 0.3121,-0.019 0.6336,0.1745 0.7031,0.4921 0.078,0.4223 0.035,0.8547 0.046,1.2818 -0,0.2494 -0,0.5079 -0.084,0.7449 -0.1401,0.1721 -0.5586,-0.1163 -0.5716,0.2307 0.03,0.3238 0.4595,0.2035 0.6794,0.2131 0.327,-0.073 0.6521,0.043 0.979,0.033 0.3757,-0.041 0.193,-0.5945 -0.1427,-0.4131 -0.2137,0.095 -0.404,-0.095 -0.3595,-0.3082 -0.01,-0.619 0.013,-1.2388 -0.015,-1.857 -0.049,-0.4704 -0.5261,-0.7618 -0.9562,-0.833 -0.4836,-0.084 -1.027,0.048 -1.3425,0.4442 -0.1252,-0.034 -0.2895,-0.3297 -0.5034,-0.3696 -0.1662,-0.07 -0.3484,-0.095 -0.5266,-0.098 z"
       id="path140"
       inkscape:connector-curvature="0" />
    <path
       style="fill:#333333"
       d="M 62.0938 59.8438 C 61.666 59.8338 61.2263 59.9884 60.9375 60.3125 C 60.5535 60.7213 60.4661 61.3181 60.5117 61.8574 C 60.5397 62.2825 60.7154 62.7071 61.0488 62.9824 C 61.5226 63.394 62.2461 63.4474 62.8027 63.1797 C 63.325 62.9195 63.6748 62.3667 63.7109 61.7871 C 63.7559 61.2375 63.6291 60.6315 63.2129 60.2422 C 62.9165 59.9574 62.4967 59.8427 62.0938 59.8438 z M 62.125 60.2812 C 62.423 60.2713 62.7425 60.3779 62.9199 60.6309 C 63.1366 60.9353 63.1628 61.3279 63.1543 61.6895 C 63.1443 62.0459 63.0466 62.4281 62.7695 62.6719 C 62.5045 62.9136 62.1132 62.9505 61.7773 62.8672 C 61.4992 62.7992 61.2724 62.5824 61.1738 62.3164 C 61.0588 62.0179 61.0493 61.6904 61.0723 61.375 C 61.1073 61.0136 61.2501 60.6318 61.5664 60.4258 C 61.7311 60.3184 61.9309 60.2788 62.125 60.2812 z "
       id="path138" />
    <path
       style="fill:#333333"
       d="m 66.25,59.875 c -0.367,-0.013 -0.7269,0.1686 -0.9375,0.4688 -0.01,-0.1183 0.038,-0.2686 -0.076,-0.3494 -0.1574,-0.061 -0.3227,0.043 -0.4891,0.01 -0.1903,0.022 -0.3936,-0.097 -0.5712,0.018 -0.1518,0.099 -0.087,0.3932 0.1091,0.3839 0.1486,-0.01 0.3302,-0.089 0.4602,0.021 0.1367,0.1754 0.089,0.409 0.098,0.616 -0,0.5293 0,1.0589 -0,1.588 0.017,0.17 -0.1453,0.3024 -0.3057,0.2362 -0.116,-0.042 -0.2529,-0.032 -0.3669,0.011 -0.1481,0.1031 -0.068,0.3735 0.1097,0.3943 0.1565,0.022 0.3145,-0.015 0.4717,-0.021 0.249,-0.034 0.5014,-0.042 0.75,0 0.1826,0.013 0.3864,0.077 0.5549,-0.022 0.126,-0.1032 0.082,-0.3659 -0.097,-0.3803 -0.1504,-10e-4 -0.323,0.084 -0.4638,-0.01 -0.1526,-0.1691 -0.1136,-0.4106 -0.1193,-0.6205 0.01,-0.4218 -0.023,-0.8465 0.039,-1.2653 0.041,-0.2982 0.2478,-0.5894 0.5563,-0.6483 0.2802,-0.061 0.6404,-0.015 0.7924,0.2601 0.072,0.1092 0.092,0.3897 -0.1034,0.2819 -0.1965,0.011 -0.3096,0.224 -0.2328,0.3985 0.1137,0.2247 0.4374,0.241 0.6325,0.1186 0.2421,-0.1472 0.3294,-0.4562 0.2697,-0.7226 -0.067,-0.3873 -0.4095,-0.6885 -0.7937,-0.7405 -0.094,-0.017 -0.1895,-0.023 -0.2847,-0.024 z"
       id="path136"
       inkscape:connector-curvature="0" />
    <path
       style="fill:#333333"
       d="M 69.2812 59.875 C 68.8169 59.865 68.3503 60.0613 68.0527 60.4219 C 67.6341 60.9009 67.5448 61.594 67.6895 62.1973 C 67.816 62.7353 68.2366 63.217 68.7891 63.332 C 69.37 63.4598 70.0257 63.3117 70.4414 62.8711 C 70.6121 62.6936 70.7404 62.4289 70.6641 62.1816 C 70.5801 62.005 70.2532 62.0207 70.2168 62.2266 C 70.1638 62.3942 70.1109 62.5747 69.957 62.6797 C 69.5921 62.9904 69.0027 63.036 68.6191 62.7344 C 68.3268 62.505 68.1747 62.1251 68.1914 61.7578 C 68.2524 61.652 68.3923 61.6965 68.4941 61.6895 C 69.1862 61.6995 69.8782 61.7128 70.5703 61.7188 C 70.7892 61.7317 70.7423 61.4672 70.75 61.3242 C 70.76 60.9006 70.5725 60.4773 70.2363 60.2148 C 69.9722 59.9899 69.6243 59.8763 69.2812 59.875 z M 69.2812 60.3125 C 69.5524 60.3125 69.8247 60.4219 70.002 60.6289 C 70.1409 60.7864 70.231 60.9971 70.2168 61.209 C 70.1878 61.285 70.0922 61.2833 70.0234 61.2812 C 69.4783 61.2713 68.9337 61.26 68.3887 61.25 C 68.3117 61.26 68.2267 61.202 68.252 61.1172 C 68.267 60.9062 68.4195 60.74 68.5742 60.6113 C 68.7705 60.4417 69.0156 60.3063 69.2812 60.3125 z "
       id="path134" />
    <rect
       width="56"
       height="1.0881424"
       x="20"
       y="38.911858"
       id="rect4190"
       style="opacity:0.15;color:#000000;fill:#000000;fill-opacity:1;fill-rule:nonzero;stroke:none;stroke-width:1;marker:none;visibility:visible;display:inline;overflow:visible;enable-background:accumulate" />
    <rect
       width="56"
       height="1.0881424"
       x="20"
       y="50.911858"
       id="rect3877"
       style="opacity:0.15;color:#000000;fill:#000000;fill-opacity:1;fill-rule:nonzero;stroke:none;stroke-width:1;marker:none;visibility:visible;display:inline;overflow:visible;enable-background:accumulate" />
    <rect
       width="56"
       height="1.0881424"
       x="20"
       y="62.911858"
       id="rect3905"
       style="opacity:0.15;color:#000000;fill:#000000;fill-opacity:1;fill-rule:nonzero;stroke:none;stroke-width:1;marker:none;visibility:visible;display:inline;overflow:visible;enable-background:accumulate" />
    <rect
       width="56"
       height="1.0881424"
       x="20"
       y="74.911858"
       id="rect4188"
       style="opacity:0.15;color:#000000;fill:#000000;fill-opacity:1;fill-rule:nonzero;stroke:none;stroke-width:1;marker:none;visibility:visible;display:inline;overflow:visible;enable-background:accumulate" />
    <rect
       width="43.977989"
       height="1.0881424"
       x="32.022011"
       y="26.911858"
       id="rect4207"
       style="opacity:0.15;color:#000000;fill:#000000;fill-opacity:1;fill-rule:nonzero;stroke:none;stroke-width:1;marker:none;visibility:visible;display:inline;overflow:visible;enable-background:accumulate" />
  </g>
  <g
     id="layer6"
     style="display:none">
    <g
       transform="translate(2,0)"
       id="g3968"
       style="font-size:15.361413px;font-style:normal;font-variant:normal;font-weight:bold;font-stretch:normal;text-align:start;line-height:125%;writing-mode:lr-tb;text-anchor:start;fill:#1e3352;fill-opacity:1;stroke:none;font-family:dwerneck;-inkscape-font-specification:dwerneck Bold">
      <path
         d="m 23.947883,33.230141 0,0.614457 c 0.614452,-0.08192 1.290354,-0.189448 2.027707,-0.32259 0.747582,-0.133122 1.49517,-0.235532 2.242766,-0.307228 0.757821,-0.08192 1.484927,-0.10752 2.181321,-0.07681 0.706613,0.02049 1.33131,0.143383 1.874092,0.368674 -0.614468,0.389165 -1.285249,0.681031 -2.012345,0.8756 -0.716876,0.194587 -1.454223,0.358442 -2.212044,0.491566 -0.747596,0.13314 -1.500304,0.276513 -2.258127,0.430119 -0.757835,0.143381 -1.484941,0.368681 -2.181321,0.675902 l -0.614456,0.937046 c 0.389152,7e-6 0.824392,-0.04096 1.30572,-0.122891 0.481319,-0.09216 0.962643,-0.168969 1.443972,-0.230421 0.481319,-0.06144 0.93704,-0.0768 1.367166,-0.04608 0.440353,0.03073 0.814147,0.163861 1.121383,0.399396 0.09216,0.153621 0.09216,0.276512 0,0.368674 -0.08193,0.09217 -0.199706,0.168981 -0.353312,0.230422 -0.153622,0.05121 -0.317477,0.102414 -0.491565,0.153614 -0.174104,0.04097 -0.296995,0.09729 -0.368674,0.168975 -0.778318,0.174101 -1.551508,0.348197 -2.319574,0.522288 -0.757833,0.16386 -1.525903,0.409642 -2.304212,0.737348 -2e-6,0.153618 -0.01536,0.322593 -0.04608,0.506927 -0.02048,0.174099 -0.03585,0.348195 -0.04608,0.522288 -2e-6,0.174098 0.0256,0.337953 0.07681,0.491565 0.0512,0.143375 0.153612,0.256026 0.307228,0.337951 0.46084,0.07169 0.942163,0.09729 1.443973,0.07681 0.501802,-0.03072 1.003607,-0.07681 1.505419,-0.138253 0.5018,-0.06144 1.003605,-0.122889 1.505418,-0.184337 0.501799,-0.06144 0.983122,-0.09217 1.443973,-0.09217 0.143364,0.08193 0.250894,0.163857 0.32259,0.245783 0.08192,0.08193 0.138243,0.174098 0.168975,0.276505 0.04096,0.09217 0.06144,0.1997 0.06145,0.32259 0.01023,0.112651 0.01535,0.245784 0.01536,0.399396 -0.696392,0.235543 -1.403017,0.440362 -2.119875,0.614457 -0.716872,0.163855 -1.433737,0.261144 -2.150598,0.291867 -0.706629,0.02048 -1.403012,-0.05633 -2.089152,-0.230421 -0.686145,-0.184337 -1.336444,-0.506926 -1.950899,-0.967769 -0.235543,-0.08193 -0.399397,-0.23042 -0.491566,-0.445481 -0.09217,-0.215058 -0.148493,-0.45572 -0.168975,-0.721987 -0.02048,-0.276502 -0.02048,-0.558128 0,-0.844878 0.02048,-0.286742 0.03072,-0.547886 0.03072,-0.783432 0.2253,-0.532524 0.424998,-1.080414 0.599095,-1.643671 0.174095,-0.573486 0.348191,-1.141858 0.522288,-1.705117 0.184335,-0.563243 0.378913,-1.111133 0.583734,-1.643671 0.204816,-0.532519 0.46084,-1.029204 0.76807,-1.490057 0.317466,1.1e-5 0.604213,0.07682 0.860239,0.230421 0.266261,0.153625 0.399393,0.389166 0.399397,0.706625"
         inkscape:connector-curvature="0"
         id="path3970" />
      <path
         d="m 36.219732,37.838565 c 0.112644,0.215065 0.17409,0.440365 0.184337,0.675902 0.01024,0.235546 -6e-6,0.471088 -0.03072,0.706625 -0.02049,0.225305 -0.05121,0.450605 -0.09217,0.675903 -0.03073,0.215062 -0.04097,0.419881 -0.03072,0.614456 0.01023,0.19458 0.06144,0.373797 0.153614,0.53765 0.09216,0.163856 0.250897,0.302109 0.476204,0.414758 0.327703,10e-7 0.634931,-0.03072 0.921685,-0.09217 0.296979,-0.07169 0.578605,-0.138251 0.844877,-0.199698 0.276497,-0.07169 0.537641,-0.117769 0.783432,-0.138253 0.256015,-0.03072 0.506917,-0.0051 0.75271,0.07681 0.08192,0.09217 0.158724,0.1997 0.230421,0.32259 0.07168,0.112652 0.128001,0.230422 0.168975,0.353312 0.04095,0.122893 0.05632,0.245784 0.04609,0.368674 -1.1e-5,0.112651 -0.04097,0.20994 -0.122892,0.291867 -0.32772,0.08193 -0.655429,0.194578 -0.98313,0.337951 -0.327719,0.133133 -0.660549,0.250903 -0.998492,0.353313 -0.327718,0.102409 -0.655428,0.163854 -0.98313,0.184337 -0.327717,0.02048 -0.655427,-0.0512 -0.983131,-0.21506 -0.163861,-0.08193 -0.332836,-0.194578 -0.506926,-0.337951 -0.163861,-0.143373 -0.332836,-0.276505 -0.506927,-0.399397 -0.16386,-0.12289 -0.332836,-0.215059 -0.506927,-0.276505 -0.163859,-0.06144 -0.327714,-0.0512 -0.491565,0.03072 -0.153618,0.327711 -0.348196,0.542771 -0.583734,0.64518 -0.235545,0.102409 -0.491568,0.133132 -0.76807,0.09217 -0.266267,-0.04096 -0.542772,-0.133132 -0.829517,-0.276505 -0.276507,-0.143373 -0.53765,-0.296987 -0.783432,-0.460843 -0.08193,-0.08193 -0.199699,-0.163854 -0.353312,-0.245782 -0.143374,-0.09217 -0.286747,-0.189456 -0.43012,-0.291867 -0.143373,-0.102408 -0.271385,-0.215058 -0.384035,-0.337951 -0.102409,-0.13313 -0.153614,-0.286744 -0.153614,-0.460842 0.245782,-0.409636 0.54789,-0.78343 0.906323,-1.121384 0.368673,-0.337947 0.757828,-0.660536 1.167468,-0.967769 0.419876,-0.307223 0.849995,-0.609331 1.290358,-0.906323 0.440357,-0.307223 0.865356,-0.624692 1.274998,-0.952408 0.153609,7e-6 0.291862,0.03585 0.414758,0.10753 0.133127,0.07169 0.250898,0.158741 0.353312,0.261144 0.112645,0.09217 0.209934,0.199704 0.291867,0.32259 0.09216,0.112656 0.179211,0.215065 0.261144,0.307228 m -3.318065,3.271981 c 0.09217,-0.163853 0.225298,-0.291864 0.399397,-0.384035 0.174093,-0.102407 0.332827,-0.215057 0.476203,-0.337951 0.14337,-0.122889 0.240659,-0.276503 0.291867,-0.460843 0.0512,-0.194574 -3e-6,-0.455718 -0.153614,-0.783432 l -1.336443,1.643672 c -2e-6,0.163857 0.01024,0.261145 0.03072,0.291866 0.03072,0.02048 0.128009,0.03073 0.291867,0.03072"
         inkscape:connector-curvature="0"
         id="path3972" />
      <path
         d="m 44.682911,35.82622 c 0.06144,0.133139 0.0768,0.25091 0.04609,0.353313 -0.02049,0.09217 -0.07681,0.174102 -0.168976,0.245782 -0.08193,0.06145 -0.189461,0.112657 -0.32259,0.153614 -0.122894,0.03073 -0.250905,0.04609 -0.384035,0.04608 0.266262,0.276511 0.542767,0.558137 0.829516,0.844877 0.286743,0.276511 0.542766,0.568378 0.768071,0.875601 0.225296,0.307232 0.394272,0.634942 0.506927,0.98313 0.122886,0.348196 0.148488,0.72199 0.07681,1.121383 -5e-6,0.419881 -0.07681,0.773193 -0.230422,1.059938 -0.153618,0.276507 -0.348196,0.506928 -0.583733,0.691264 -0.235546,0.184337 -0.50181,0.332831 -0.798794,0.445481 -0.286749,0.102409 -0.568375,0.189457 -0.844877,0.261144 -0.40964,0.143373 -0.809036,0.158734 -1.198191,0.04608 -0.378915,-0.122891 -0.701505,-0.32259 -0.967769,-0.599095 -0.07169,-0.266264 -0.0256,-0.44548 0.138253,-0.53765 0.174096,-0.102408 0.384035,-0.168974 0.629818,-0.199698 0.256022,-0.03072 0.517166,-0.05632 0.783432,-0.07681 0.276503,-0.03072 0.481322,-0.117769 0.614457,-0.261144 0.276502,-0.143372 0.491562,-0.291865 0.645179,-0.445481 0.163852,-0.163853 0.317466,-0.378913 0.460842,-0.64518 0.04096,-0.358429 -0.03585,-0.681019 -0.230421,-0.967769 -0.194581,-0.286742 -0.430122,-0.547886 -0.706625,-0.783432 -0.276508,-0.245777 -0.563254,-0.481319 -0.860239,-0.706625 -0.286748,-0.225295 -0.506928,-0.455716 -0.660541,-0.691263 -0.153615,-0.245777 -0.204819,-0.50692 -0.153614,-0.783432 0.0512,-0.28674 0.281625,-0.614449 0.691264,-0.983131 0.204817,8e-6 0.404515,-0.02047 0.599095,-0.06144 0.204816,-0.0512 0.389153,-0.0768 0.553011,-0.07681 0.174093,7e-6 0.327707,0.04609 0.460842,0.138252 0.133129,0.09218 0.235538,0.276513 0.307228,0.553011"
         inkscape:connector-curvature="0"
         id="path3974" />
      <path
         d="m 48.138267,37.270193 c 0.215058,-0.112645 0.363552,-0.266259 0.445481,-0.460842 0.08193,-0.204813 0.158733,-0.399391 0.230422,-0.583734 0.07168,-0.194571 0.163852,-0.363546 0.276505,-0.506927 0.112648,-0.143366 0.307225,-0.215052 0.583734,-0.21506 l 0.445481,0.660541 c 0.102405,1.208437 0.08704,2.375903 -0.04608,3.502402 -0.122894,1.126506 -0.343075,2.217165 -0.66054,3.271981 -0.317472,1.044575 -0.716869,2.058428 -1.198191,3.04156 -0.481325,0.993368 -1.024095,1.956015 -1.628309,2.887946 -0.266265,0.389149 -0.583734,0.7271 -0.952408,1.013853 -0.368673,0.29698 -0.768069,0.532522 -1.19819,0.706625 -0.430117,0.184329 -0.870477,0.3021 -1.321082,0.353313 -0.460838,0.0512 -0.911439,0.03071 -1.351804,-0.06145 -0.983125,-0.67591 -1.643665,-1.479823 -1.981622,-2.411742 -0.348185,-0.921689 -0.409631,-1.884337 -0.184337,-2.887946 l 0.199698,-0.675902 c 0.112657,0.501804 0.225307,1.013851 0.337951,1.536142 0.102416,0.532525 0.26115,1.024089 0.476204,1.474695 0.204824,0.460837 0.48645,0.849993 0.844878,1.167468 0.348196,0.327703 0.8244,0.542763 1.428611,0.645179 0.655423,-0.102416 1.223795,-0.353319 1.705117,-0.752709 0.481326,-0.389162 0.906324,-0.860245 1.274997,-1.41325 0.368674,-0.542774 0.696384,-1.126507 0.983131,-1.751201 0.296986,-0.6247 0.583732,-1.213554 0.860239,-1.766563 0.215058,-0.880721 0.419877,-1.771682 0.614456,-2.672886 0.204817,-0.911441 0.363551,-1.915052 0.476204,-3.010837 -0.215062,0.05121 -0.430121,0.07681 -0.645179,0.07681 -0.204821,5e-6 -0.399398,-0.03584 -0.583734,-0.10753 -0.174097,-0.07168 -0.327711,-0.174091 -0.460842,-0.307228 -0.122892,-0.143368 -0.20994,-0.327705 -0.261144,-0.553011 -0.06145,-0.163849 -0.112651,-0.317463 -0.153614,-0.460842 -0.03072,-0.143367 -0.05633,-0.28674 -0.07681,-0.43012 -0.01024,-0.143366 -0.02048,-0.302101 -0.03072,-0.476203 -1e-6,-0.174089 -1e-6,-0.373788 0,-0.599096 l 0.476203,-0.445481 c 0.215059,0.112659 0.353312,0.281634 0.414759,0.506927 0.06144,0.215067 0.102408,0.440368 0.122891,0.675902 0.02048,0.235548 0.06144,0.450608 0.122891,0.64518 0.06144,0.194583 0.199697,0.322595 0.414758,0.384035"
         inkscape:connector-curvature="0"
         id="path3976" />
      <path
         d="m 60.142253,33.276226 c -9e-6,0.143382 -0.06145,0.291876 -0.184337,0.445481 -0.1229,0.143382 -0.256033,0.286755 -0.399397,0.430119 l -4.13222,-0.291867 c 0.07168,0.66567 0.0512,1.346692 -0.06144,2.043068 -0.112655,0.696391 -0.261149,1.413256 -0.445481,2.150598 -0.184341,0.737352 -0.373799,1.495181 -0.568373,2.273489 -0.194581,0.768073 -0.327713,1.556624 -0.399396,2.365658 -0.143377,0.143373 -0.337954,0.21506 -0.583734,0.21506 -0.245785,0 -0.440363,-0.07169 -0.583734,-0.21506 -0.19458,-0.491565 -0.302109,-0.972888 -0.322589,-1.443973 -0.02048,-0.481322 0.01024,-0.957525 0.09217,-1.428611 0.08193,-0.47108 0.194576,-0.937043 0.337951,-1.397889 0.143371,-0.460837 0.276503,-0.9268 0.399397,-1.397889 0.133129,-0.471077 0.240659,-0.942159 0.32259,-1.41325 0.08192,-0.481316 0.09728,-0.96776 0.04608,-1.459334 -0.368677,-0.07168 -0.752712,-0.1024 -1.152106,-0.09217 -0.389157,0.01025 -0.768072,0.0051 -1.136745,-0.01536 -0.368674,-0.02047 -0.711745,-0.0768 -1.029214,-0.168975 -0.317469,-0.102401 -0.583733,-0.302099 -0.798794,-0.599095 0.215061,-0.368664 0.465964,-0.609326 0.752709,-0.721987 0.286747,-0.11264 0.583734,-0.179206 0.890962,-0.199698 0.317469,-0.02047 0.634938,-0.03071 0.952408,-0.03072 0.327708,-0.01023 0.640057,-0.08704 0.937046,-0.230421 0.737345,1.1e-5 1.408126,0.0051 2.012345,0.01536 0.614452,0.01025 1.198185,0.05634 1.751201,0.138253 0.553004,0.0717 1.095774,0.189468 1.62831,0.353312 0.532521,0.153625 1.090651,0.378925 1.674394,0.675903"
         inkscape:connector-curvature="0"
         id="path3978" />
      <path
         d="m 62.532152,37.838565 c 0.112644,0.215065 0.17409,0.440365 0.184337,0.675902 0.01023,0.235546 -6e-6,0.471088 -0.03072,0.706625 -0.02049,0.225305 -0.05121,0.450605 -0.09217,0.675903 -0.03073,0.215062 -0.04097,0.419881 -0.03072,0.614456 0.01024,0.19458 0.06144,0.373797 0.153614,0.53765 0.09216,0.163856 0.250897,0.302109 0.476204,0.414758 0.327703,10e-7 0.634931,-0.03072 0.921685,-0.09217 0.296979,-0.07169 0.578605,-0.138251 0.844877,-0.199698 0.276497,-0.07169 0.537641,-0.117769 0.783432,-0.138253 0.256015,-0.03072 0.506917,-0.0051 0.75271,0.07681 0.08192,0.09217 0.158724,0.1997 0.230421,0.32259 0.07168,0.112652 0.128001,0.230422 0.168975,0.353312 0.04095,0.122893 0.05631,0.245784 0.04608,0.368674 -1.1e-5,0.112651 -0.04097,0.20994 -0.122892,0.291867 -0.32772,0.08193 -0.65543,0.194578 -0.98313,0.337951 -0.327719,0.133133 -0.660549,0.250903 -0.998492,0.353313 -0.327718,0.102409 -0.655428,0.163854 -0.98313,0.184337 -0.327717,0.02048 -0.655427,-0.0512 -0.983131,-0.21506 -0.163861,-0.08193 -0.332836,-0.194578 -0.506927,-0.337951 -0.16386,-0.143373 -0.332836,-0.276505 -0.506926,-0.399397 -0.16386,-0.12289 -0.332836,-0.215059 -0.506927,-0.276505 -0.163859,-0.06144 -0.327714,-0.0512 -0.491565,0.03072 -0.153618,0.327711 -0.348196,0.542771 -0.583734,0.64518 -0.235545,0.102409 -0.491568,0.133132 -0.76807,0.09217 -0.266267,-0.04096 -0.542773,-0.133132 -0.829517,-0.276505 -0.276507,-0.143373 -0.537651,-0.296987 -0.783432,-0.460843 -0.08193,-0.08193 -0.199699,-0.163854 -0.353312,-0.245782 -0.143374,-0.09217 -0.286747,-0.189456 -0.43012,-0.291867 -0.143373,-0.102408 -0.271385,-0.215058 -0.384035,-0.337951 -0.102409,-0.13313 -0.153614,-0.286744 -0.153614,-0.460842 0.245782,-0.409636 0.54789,-0.78343 0.906323,-1.121384 0.368673,-0.337947 0.757828,-0.660536 1.167468,-0.967769 0.419876,-0.307223 0.849995,-0.609331 1.290358,-0.906323 0.440357,-0.307223 0.865356,-0.624692 1.274998,-0.952408 0.153609,7e-6 0.291861,0.03585 0.414758,0.10753 0.133127,0.07169 0.250898,0.158741 0.353312,0.261144 0.112645,0.09217 0.209934,0.199704 0.291867,0.32259 0.09216,0.112656 0.179211,0.215065 0.261144,0.307228 m -3.318065,3.271981 c 0.09217,-0.163853 0.225298,-0.291864 0.399397,-0.384035 0.174092,-0.102407 0.332827,-0.215057 0.476203,-0.337951 0.14337,-0.122889 0.240659,-0.276503 0.291867,-0.460843 0.0512,-0.194574 -4e-6,-0.455718 -0.153614,-0.783432 l -1.336443,1.643672 c -2e-6,0.163857 0.01024,0.261145 0.03072,0.291866 0.03072,0.02048 0.128009,0.03073 0.291867,0.03072"
         inkscape:connector-curvature="0"
         id="path3980" />
      <path
         d="m 71.917016,41.37169 c 0.0512,0.563253 0.09216,1.152107 0.122891,1.766563 0.04096,0.624696 0.0512,1.249393 0.03072,1.874092 -0.02049,0.624695 -0.08705,1.23403 -0.199698,1.828008 -0.112655,0.604211 -0.296992,1.167463 -0.553011,1.689756 -0.245786,0.532523 -0.573496,1.013846 -0.983131,1.443973 -0.40964,0.440353 -0.921686,0.803906 -1.536141,1.09066 -0.43012,0.430111 -0.911444,0.650291 -1.443973,0.660541 -0.542769,0.02047 -1.10602,-0.11778 -1.689755,-0.414759 0.573494,-0.3482 1.146986,-0.737355 1.720478,-1.167467 0.573492,-0.430126 1.080419,-0.90633 1.52078,-1.428611 0.4506,-0.512053 0.798791,-1.075304 1.044576,-1.689756 0.256021,-0.604219 0.348189,-1.259638 0.276506,-1.966261 l 0,-2.258127 c -0.143376,0.07169 -0.302111,0.11265 -0.476204,0.122891 -0.174098,0 -0.353315,-0.01536 -0.53765,-0.04608 -0.174097,-0.04096 -0.348193,-0.09217 -0.522288,-0.153614 -0.163856,-0.07169 -0.31747,-0.148494 -0.460842,-0.230422 -0.286747,-0.56325 -0.419879,-1.126502 -0.399397,-1.689755 0.02048,-0.563249 0.240662,-1.136741 0.660541,-1.720478 0.307227,-0.276502 0.650298,-0.471079 1.029215,-0.583734 0.378912,-0.122887 0.711742,-0.112646 0.998491,0.03072 0.348189,0.143377 0.588851,0.332835 0.721987,0.568372 0.143369,0.225304 0.240658,0.471087 0.291867,0.737348 0.06144,0.266267 0.107525,0.537652 0.138252,0.814155 0.03072,0.266266 0.112647,0.506928 0.245783,0.721986 m -2.549995,0.32259 c 0.12289,-0.133131 0.215058,-0.271383 0.276506,-0.414758 0.07168,-0.143372 0.13313,-0.281624 0.184337,-0.414758 0.0512,-0.143371 0.112648,-0.286744 0.184337,-0.43012 0.07168,-0.14337 0.168973,-0.286743 0.291867,-0.43012 -0.122894,0.143377 -0.266267,0.29187 -0.43012,0.445481 -0.163857,0.153617 -0.30723,0.30211 -0.43012,0.445481 -0.112652,0.143376 -0.189459,0.286749 -0.230421,0.43012 -0.03072,0.133134 0.02048,0.256025 0.153614,0.368674"
         inkscape:connector-curvature="0"
         id="path3982" />
    </g>
    <g
       transform="translate(6,0)"
       id="g3984"
       style="font-size:7.42044544px;font-style:normal;font-variant:normal;font-weight:bold;font-stretch:normal;text-align:start;line-height:125%;writing-mode:lr-tb;text-anchor:start;fill:#1e3352;fill-opacity:1;stroke:none;font-family:dwerneck;-inkscape-font-specification:dwerneck Bold">
      <path
         d="m 23.799279,53.680226 c -0.08905,0.08905 -0.197883,0.158308 -0.3265,0.207772 -0.123677,0.04947 -0.257245,0.08905 -0.400704,0.118728 -0.138518,0.02969 -0.277033,0.05442 -0.415545,0.0742 -0.138517,0.01485 -0.267138,0.03711 -0.385863,0.06678 0.05936,0.262193 0.09399,0.549117 0.103886,0.860772 0.0099,0.311662 0.01484,0.633214 0.01484,0.964658 -2e-6,0.326502 0.0049,0.655474 0.01484,0.986919 0.0099,0.326501 0.04452,0.638159 0.103886,0.934976 0.178088,0.02968 0.353705,0.0371 0.526852,0.02226 0.178087,-0.01979 0.348757,-0.03215 0.51201,-0.0371 0.168194,-0.0099 0.331443,10e-7 0.48975,0.02968 0.163245,0.02968 0.319075,0.103887 0.467488,0.222613 -5e-6,0.05442 -0.01979,0.09894 -0.05936,0.133568 -0.03958,0.02968 -0.094,0.05442 -0.163249,0.0742 -0.06431,0.01979 -0.13852,0.03958 -0.222614,0.05936 -0.0841,0.01484 -0.170674,0.0371 -0.259715,0.06678 -0.291875,10e-7 -0.591166,0.01979 -0.897874,0.05936 -0.306715,0.03463 -0.613426,0.07173 -0.920136,0.111307 -0.306713,0.03463 -0.613424,0.06431 -0.920135,0.08904 -0.306712,0.01979 -0.606003,0.01484 -0.897874,-0.01484 -0.05442,-0.05442 -0.08657,-0.116254 -0.09647,-0.185511 -0.0099,-0.0742 -0.01484,-0.168197 -0.01484,-0.281977 0.143461,-0.05936 0.286923,-0.09399 0.430385,-0.103886 0.148409,-0.0099 0.296818,-0.01731 0.445227,-0.02226 0.148408,-0.0099 0.294343,-0.02721 0.437806,-0.05194 0.148408,-0.02473 0.294343,-0.08162 0.437807,-0.17067 -0.05442,-0.267135 -0.08905,-0.563952 -0.103887,-0.890453 -0.0099,-0.326498 -0.01979,-0.657944 -0.02968,-0.99434 -0.0049,-0.336391 -0.02226,-0.665363 -0.05194,-0.986919 -0.02474,-0.321549 -0.08163,-0.61342 -0.170671,-0.875613 -0.113781,0.02969 -0.242402,0.04947 -0.385863,0.05936 -0.138516,0.0099 -0.281977,0.0074 -0.430386,-0.0074 -0.148409,-0.01484 -0.294344,-0.04452 -0.437806,-0.08904 -0.138515,-0.04947 -0.264662,-0.118723 -0.378443,-0.207773 -0.02968,-0.02968 -0.04452,-0.0643 -0.04452,-0.103886 0,-0.03957 0.01237,-0.07667 0.0371,-0.111307 0.01979,-0.03957 0.05194,-0.07173 0.09647,-0.09647 0.03958,-0.02473 0.08904,-0.0371 0.148409,-0.0371 0.118727,6e-6 0.247348,0.005 0.385863,0.01484 0.138514,0.0099 0.277029,0.01237 0.415545,0.0074 0.143461,-0.0099 0.277029,-0.02968 0.400704,-0.05936 0.12862,-0.03462 0.237453,-0.09646 0.326499,-0.185511 0.113779,0.05937 0.234979,0.094 0.363602,0.103886 0.128619,0.005 0.25724,6e-6 0.385863,-0.01484 0.133566,-0.01483 0.267134,-0.02968 0.400704,-0.04452 0.133566,-0.01978 0.262187,-0.0272 0.385864,-0.02226 0.128617,0.005 0.249818,0.03216 0.363601,0.08162 0.113777,0.04453 0.220137,0.126153 0.31908,0.244875"
         inkscape:connector-curvature="0"
         id="path3986" />
      <path
         d="m 29.135159,55.884098 c -0.02474,0.257245 -0.08658,0.489752 -0.185512,0.697522 -0.09894,0.202828 -0.227564,0.385865 -0.385863,0.549113 -0.15336,0.158304 -0.328977,0.301766 -0.526851,0.430386 -0.192935,0.123675 -0.395761,0.239929 -0.608477,0.348761 -0.212722,0.103887 -0.427915,0.200353 -0.645579,0.289397 -0.212721,0.08905 -0.415547,0.175618 -0.608476,0.259716 -0.158305,0 -0.338869,0.02473 -0.541693,0.0742 -0.197879,0.04947 -0.398231,0.09152 -0.601056,0.126148 -0.197879,0.02968 -0.39081,0.0371 -0.578794,0.02226 -0.183038,-0.01979 -0.336394,-0.09399 -0.460068,-0.222613 -0.02473,-0.128621 -0.02473,-0.225087 0,-0.289398 0.02473,-0.06431 0.06431,-0.106359 0.118727,-0.126147 0.05442,-0.02473 0.121201,-0.03463 0.200352,-0.02968 0.0742,1e-6 0.153356,0.0025 0.237454,0.0074 0.0841,0.0049 0.165723,0.0049 0.244875,0 0.0841,-0.0099 0.158302,-0.0371 0.222613,-0.08162 0.321552,-0.09399 0.645578,-0.192931 0.972079,-0.296818 0.331444,-0.103885 0.645576,-0.227559 0.942396,-0.371022 0.296815,-0.143461 0.568898,-0.314131 0.816249,-0.512011 0.247345,-0.202823 0.452644,-0.450171 0.615897,-0.742045 -4e-6,-0.257239 -0.06431,-0.469958 -0.192931,-0.638158 -0.128625,-0.17314 -0.289401,-0.319075 -0.482329,-0.437806 -0.192935,-0.12367 -0.403181,-0.23003 -0.630738,-0.319079 -0.227563,-0.08904 -0.437809,-0.183034 -0.630738,-0.281977 -0.06431,0.262193 -0.106362,0.521908 -0.126148,0.779146 -0.01484,0.252299 -0.01979,0.504594 -0.01484,0.756886 0.0099,0.247351 0.02721,0.492225 0.05194,0.734624 0.02968,0.237456 0.05936,0.46749 0.08904,0.690101 -0.09894,0.06431 -0.187986,0.09399 -0.267136,0.08905 -0.07915,-0.0049 -0.155831,-0.02226 -0.230034,-0.05194 -0.06926,-0.03463 -0.136043,-0.06926 -0.200352,-0.103887 -0.06431,-0.03957 -0.128622,-0.05936 -0.192931,-0.05936 -0.03463,-0.09399 -0.05442,-0.195404 -0.05936,-0.304238 -0.0049,-0.108832 -0.0074,-0.215191 -0.0074,-0.31908 -2e-6,-0.103884 -0.0025,-0.202823 -0.0074,-0.296817 -0.0049,-0.09399 -0.02474,-0.173142 -0.05936,-0.237455 -0.06431,-0.1583 -0.133569,-0.324023 -0.207773,-0.49717 -0.0742,-0.17314 -0.143463,-0.348757 -0.207772,-0.526851 -0.06431,-0.178087 -0.118728,-0.353704 -0.16325,-0.526852 -0.03958,-0.178086 -0.05936,-0.348756 -0.05936,-0.512011 0.02968,-0.158297 0.09399,-0.267131 0.192932,-0.326499 0.103885,-0.05936 0.217665,-0.08904 0.34134,-0.08905 0.12862,6e-6 0.259715,0.01979 0.393284,0.05936 0.133566,0.03463 0.24982,0.06926 0.348761,0.103886 0.19293,0.06432 0.398228,0.128626 0.615897,0.192932 0.217664,0.05937 0.432856,0.126152 0.645579,0.200352 0.212716,0.07421 0.420488,0.163254 0.623317,0.267136 0.202822,0.09894 0.385859,0.217671 0.549113,0.356181 0.163245,0.138519 0.30176,0.304242 0.415545,0.49717 0.118722,0.187988 0.200347,0.410601 0.244875,0.66784"
         inkscape:connector-curvature="0"
         id="path3988" />
      <path
         d="m 32.751119,53.962203 0.09647,0.207772 c -0.202829,0.197883 -0.408128,0.3735 -0.615897,0.526852 -0.202829,0.15336 -0.427915,0.309189 -0.675261,0.467488 0.222611,0.04947 0.425436,0.138518 0.608477,0.267136 0.187981,0.123677 0.351231,0.27456 0.489749,0.452647 0.143458,0.173147 0.264659,0.361131 0.363602,0.563954 0.09893,0.202828 0.175613,0.405653 0.230034,0.608477 0.04946,0.252296 0.02968,0.477383 -0.05936,0.67526 -0.08905,0.192933 -0.234984,0.36855 -0.437806,0.526852 -0.202829,0.123674 -0.435336,0.22756 -0.697522,0.311659 -0.262192,0.07915 -0.531801,0.128621 -0.808829,0.148408 -0.272084,0.01484 -0.53922,-0.0049 -0.801408,-0.05936 -0.26219,-0.05442 -0.492223,-0.155829 -0.690101,-0.304238 -0.0742,-0.04947 -0.153356,-0.09894 -0.237454,-0.148409 -0.07915,-0.05442 -0.143463,-0.11378 -0.192932,-0.178091 -0.04947,-0.06431 -0.07668,-0.133567 -0.08163,-0.207772 0,-0.07915 0.0371,-0.168196 0.111307,-0.267137 l 0.09647,-0.200352 c 0.0742,0.04947 0.138514,0.116255 0.192931,0.200352 0.05936,0.07915 0.116253,0.160778 0.17067,0.244875 0.05936,0.07915 0.1212,0.153357 0.185511,0.222614 0.06926,0.06431 0.153355,0.111307 0.252296,0.140988 0.222612,0.02473 0.447698,0.02968 0.67526,0.01484 0.232506,-0.01979 0.457592,-0.06431 0.675261,-0.133568 0.22261,-0.06926 0.430383,-0.165723 0.623317,-0.289397 0.197875,-0.12862 0.373492,-0.29187 0.526852,-0.48975 0.02473,-0.148407 0.0099,-0.291869 -0.04452,-0.430386 -0.05442,-0.138513 -0.128624,-0.267134 -0.222613,-0.385863 -0.094,-0.118725 -0.197882,-0.225084 -0.311659,-0.319079 -0.113783,-0.09894 -0.220143,-0.185508 -0.319079,-0.259716 -0.11873,-0.04947 -0.23993,-0.07173 -0.363602,-0.06678 -0.118729,0.005 -0.237456,0.02227 -0.356181,0.05194 -0.118729,0.02474 -0.234983,0.05195 -0.348761,0.08163 -0.113782,0.02968 -0.222615,0.04205 -0.3265,0.0371 -0.09894,-0.0049 -0.192933,-0.0371 -0.281977,-0.09647 -0.0841,-0.05936 -0.158303,-0.163247 -0.222613,-0.311659 l 0.103886,-0.296818 c 0.296817,-0.148405 0.588687,-0.304234 0.875613,-0.467488 0.286922,-0.168192 0.556531,-0.378438 0.808828,-0.630738 -0.222615,5e-6 -0.440282,0.01485 -0.652999,0.04452 -0.212721,0.02969 -0.42544,0.05937 -0.638158,0.08904 -0.212721,0.02969 -0.42544,0.05442 -0.638159,0.0742 -0.212719,0.01485 -0.430386,0.0099 -0.652999,-0.01484 -0.05442,-0.04946 -0.106359,-0.09646 -0.155829,-0.140989 -0.04947,-0.04947 -0.09894,-0.09893 -0.148409,-0.148408 0,-0.05441 0.01979,-0.106355 0.05936,-0.15583 0.03958,-0.04946 0.0841,-0.09893 0.133568,-0.148409 0.301765,5e-6 0.596109,-0.01978 0.883033,-0.05936 0.29187,-0.03957 0.581267,-0.0742 0.868193,-0.103886 0.286922,-0.03462 0.573845,-0.05194 0.860771,-0.05194 0.286921,6e-6 0.578792,0.03958 0.875613,0.118728 l 0.215193,0.289397"
         inkscape:connector-curvature="0"
         id="path3990" />
      <path
         d="m 39.474737,56.255121 c 0.05441,0.103888 0.0841,0.212721 0.08905,0.326499 0.0049,0.113782 -2e-6,0.227562 -0.01484,0.341341 -0.0099,0.108835 -0.02474,0.217668 -0.04452,0.326499 -0.01484,0.103888 -0.01979,0.202827 -0.01484,0.296818 0.0049,0.09399 0.02968,0.180565 0.0742,0.259716 0.04452,0.07915 0.121198,0.145936 0.230034,0.200352 0.1583,0 0.306709,-0.01484 0.445227,-0.04452 0.143458,-0.03463 0.2795,-0.06678 0.408125,-0.09647 0.133563,-0.03463 0.259711,-0.05689 0.378442,-0.06678 0.12367,-0.01484 0.24487,-0.0025 0.363602,0.0371 0.03957,0.04452 0.07667,0.09647 0.111307,0.15583 0.03462,0.05442 0.06183,0.111307 0.08163,0.17067 0.01978,0.05936 0.0272,0.118728 0.02226,0.178091 -5e-6,0.05442 -0.01979,0.101413 -0.05936,0.140988 -0.158307,0.03958 -0.31661,0.09399 -0.474908,0.16325 -0.158307,0.06431 -0.319083,0.121201 -0.482329,0.17067 -0.158307,0.04947 -0.316609,0.07915 -0.474909,0.08905 -0.158306,0.0099 -0.316608,-0.02473 -0.474908,-0.103887 -0.07915,-0.03957 -0.160779,-0.09399 -0.244875,-0.163249 -0.07915,-0.06926 -0.160779,-0.133568 -0.244874,-0.192932 -0.07915,-0.05936 -0.160779,-0.103886 -0.244875,-0.133568 -0.07915,-0.02968 -0.158305,-0.02473 -0.237454,0.01484 -0.07421,0.158303 -0.168199,0.262189 -0.281977,0.311659 -0.113782,0.04947 -0.237456,0.06431 -0.371023,0.04452 -0.128622,-0.01979 -0.26219,-0.06431 -0.400704,-0.133568 -0.133569,-0.06926 -0.259716,-0.143461 -0.378442,-0.222613 -0.03958,-0.03957 -0.09647,-0.07915 -0.170671,-0.118727 -0.06926,-0.04452 -0.138515,-0.09152 -0.207772,-0.140989 -0.06926,-0.04947 -0.131095,-0.103885 -0.185511,-0.16325 -0.04947,-0.06431 -0.0742,-0.138514 -0.0742,-0.222613 0.118727,-0.197877 0.264663,-0.378441 0.437807,-0.541692 0.17809,-0.163248 0.366074,-0.319078 0.563953,-0.467489 0.202825,-0.148406 0.410597,-0.294341 0.623318,-0.437806 0.212718,-0.148406 0.418016,-0.301762 0.615897,-0.460067 0.0742,3e-6 0.140986,0.01732 0.200352,0.05194 0.06431,0.03463 0.121198,0.07668 0.17067,0.126147 0.05441,0.04453 0.10141,0.09647 0.140989,0.15583 0.04452,0.05442 0.08657,0.103888 0.126147,0.148409 m -1.602816,1.580554 c 0.04452,-0.07915 0.108832,-0.140987 0.192932,-0.185511 0.0841,-0.04947 0.160774,-0.103885 0.230033,-0.16325 0.06926,-0.05936 0.116252,-0.133566 0.140989,-0.222613 0.02473,-0.09399 -2e-6,-0.220138 -0.07421,-0.378443 l -0.645578,0.793988 c -2e-6,0.07915 0.0049,0.126149 0.01484,0.140989 0.01484,0.0099 0.06184,0.01484 0.140989,0.01484"
         inkscape:connector-curvature="0"
         id="path3992" />
      <path
         d="m 43.09545,56.455473 c -10e-7,0.07421 0.0074,0.14099 0.02226,0.200352 0.01979,0.05936 0.0371,0.111308 0.05194,0.155829 0.01979,0.04453 0.0371,0.08657 0.05194,0.126148 0.01979,0.03958 0.02968,0.07915 0.02968,0.118727 0.03463,-0.0742 0.07668,-0.138514 0.126147,-0.192932 0.05442,-0.05936 0.108832,-0.113778 0.16325,-0.16325 0.05441,-0.04947 0.106358,-0.09152 0.15583,-0.126147 0.05441,-0.03957 0.09894,-0.07915 0.133568,-0.118727 0.222611,-0.03957 0.403175,-0.01731 0.541692,0.06678 0.143459,0.07915 0.262186,0.192933 0.356181,0.34134 0.09399,0.148411 0.173141,0.319081 0.237455,0.512011 0.06925,0.192933 0.140985,0.380917 0.215193,0.563954 -4e-6,0.148409 0.0074,0.289398 0.02226,0.422965 0.01484,0.133568 0.02473,0.264663 0.02968,0.393284 0.0099,0.133568 0.01236,0.264662 0.0074,0.393283 -0.005,0.133568 -0.02474,0.274556 -0.05936,0.422966 -0.07421,-1e-6 -0.133572,0.01484 -0.178091,0.04452 -0.04453,0.02968 -0.08657,0.05689 -0.126148,0.08162 -0.03463,0.02968 -0.07421,0.04947 -0.118727,0.05936 -0.03958,0.01484 -0.09647,0.0049 -0.17067,-0.02968 -0.07421,-0.14841 -0.11873,-0.321553 -0.133568,-0.519431 -0.01484,-0.192932 -0.02721,-0.39081 -0.0371,-0.593636 -0.0099,-0.207772 -0.03216,-0.408124 -0.06678,-0.601056 -0.02968,-0.192931 -0.101415,-0.363601 -0.215193,-0.512011 -0.09894,0.04947 -0.185513,0.121202 -0.259716,0.215193 -0.06926,0.08905 -0.13357,0.185512 -0.192931,0.289398 -0.05937,0.103887 -0.118729,0.207773 -0.178091,0.311658 -0.05936,0.09894 -0.128623,0.185512 -0.207773,0.259716 -0.0742,0.06926 -0.163251,0.118727 -0.267136,0.148409 -0.103887,0.02473 -0.230034,0.01237 -0.378442,-0.0371 -0.123675,-0.04947 -0.215194,-0.116254 -0.274557,-0.200352 -0.05442,-0.08904 -0.08904,-0.190458 -0.103886,-0.304239 -0.01484,-0.113779 -0.01484,-0.23498 0,-0.363601 0.01484,-0.133567 0.03216,-0.269609 0.05194,-0.408125 0.01979,-0.138513 0.03463,-0.277028 0.04452,-0.415545 0.01484,-0.138513 0.0099,-0.269607 -0.01484,-0.393284 -1e-6,-0.10883 0.03216,-0.205296 0.09647,-0.289397 0.06431,-0.0841 0.136041,-0.140986 0.215193,-0.17067 0.0841,-0.02968 0.165722,-0.02226 0.244874,0.02226 0.0841,0.04453 0.145935,0.140991 0.185511,0.289398"
         inkscape:connector-curvature="0"
         id="path3994" />
      <path
         d="m 48.980561,52.2555 c 0.07915,0.192938 0.128617,0.410604 0.148409,0.653 0.02473,0.237459 0.03462,0.484807 0.02968,0.742044 -4e-6,0.2523 -0.0074,0.509542 -0.02226,0.771727 -0.01484,0.257246 -0.02226,0.50212 -0.02226,0.734624 -0.108837,0.272086 -0.16078,0.544169 -0.155829,0.816249 0.0049,0.267138 0.02473,0.534274 0.05936,0.801408 0.03957,0.267137 0.07668,0.534273 0.111307,0.801408 0.03462,0.267137 0.02968,0.536746 -0.01484,0.808828 -0.183041,0.113781 -0.368552,0.192932 -0.556533,0.237455 -0.187988,0.04452 -0.383393,0.06678 -0.586216,0.06678 -0.19788,0 -0.405653,-0.01484 -0.623317,-0.04452 -0.212721,-0.03463 -0.435334,-0.07173 -0.66784,-0.111307 -0.07915,-0.07915 -0.173145,-0.158302 -0.281977,-0.237454 -0.103887,-0.07915 -0.207773,-0.163249 -0.311659,-0.252295 -0.103886,-0.08904 -0.200352,-0.180563 -0.289397,-0.274557 -0.08905,-0.09894 -0.153356,-0.205297 -0.192932,-0.319079 0,-0.108832 0,-0.227559 0,-0.356181 0.0049,-0.128619 0.01731,-0.254767 0.0371,-0.378443 0.01979,-0.128619 0.04947,-0.249819 0.08905,-0.363602 0.03957,-0.113777 0.09646,-0.210243 0.17067,-0.289397 0.11378,-0.10883 0.237454,-0.192929 0.371022,-0.252295 0.133568,-0.06431 0.267135,-0.10883 0.400704,-0.133568 0.133567,-0.02968 0.264662,-0.04699 0.393284,-0.05194 0.133566,-0.0049 0.25724,-0.0074 0.371022,-0.0074 0.0742,3e-6 0.155828,0.02969 0.244875,0.08905 0.08904,0.05937 0.170668,0.108836 0.244875,0.148408 0.07915,0.03958 0.143459,0.04947 0.192931,0.02968 0.05441,-0.01978 0.08162,-0.10883 0.08163,-0.267136 L 48.386925,52.2555 c 0.03463,-0.113773 0.07915,-0.185504 0.133568,-0.215192 0.05441,-0.03462 0.10883,-0.04204 0.16325,-0.02226 0.05441,0.0198 0.106357,0.05442 0.155829,0.103886 0.05441,0.04453 0.10141,0.08905 0.140989,0.133568 m -0.942397,4.756506 C 47.963954,56.893283 47.857598,56.79187 47.719085,56.70777 47.585515,56.61873 47.447,56.559363 47.30354,56.529679 c -0.138516,-0.02968 -0.267137,-0.02226 -0.385863,0.02226 -0.118728,0.04453 -0.19788,0.140991 -0.237454,0.289398 -0.06926,0.0841 -0.103887,0.187986 -0.103886,0.311658 -1e-6,0.123676 0.03463,0.222615 0.103886,0.296818 0.237453,0.158304 0.467486,0.274558 0.690101,0.348761 0.227559,0.06926 0.450172,0.103887 0.66784,0.103886 l 0,-0.890453"
         inkscape:connector-curvature="0"
         id="path3996" />
      <path
         d="m 53.604191,56.388689 c 0,0.123676 0,0.259717 0,0.408124 0.0049,0.143464 0.01484,0.289399 0.02968,0.437806 0.01484,0.143464 0.03957,0.281978 0.0742,0.415545 0.03463,0.128622 0.08162,0.239929 0.140988,0.33392 0.08904,-0.123673 0.148408,-0.269608 0.178091,-0.437806 0.03463,-0.168195 0.0742,-0.328972 0.118727,-0.482329 0.04947,-0.153354 0.121199,-0.281975 0.215193,-0.385863 0.09399,-0.108831 0.247346,-0.163248 0.460067,-0.16325 0.123673,0.08905 0.212718,0.187987 0.267136,0.296818 0.05442,0.103888 0.09646,0.212721 0.126148,0.3265 0.02968,0.113781 0.05689,0.232508 0.08163,0.356181 0.02968,0.118728 0.0742,0.239929 0.133568,0.363602 0.09399,-0.08904 0.175615,-0.200351 0.244875,-0.33392 0.06925,-0.138514 0.140985,-0.264661 0.215193,-0.378443 0.07915,-0.118725 0.168193,-0.207771 0.267136,-0.267136 0.09894,-0.05936 0.225083,-0.05936 0.378442,0 0.123671,0.153358 0.210243,0.314134 0.259716,0.482329 0.04947,0.168198 0.0742,0.341341 0.0742,0.519431 -4e-6,0.178091 -0.02226,0.358655 -0.06678,0.541693 -0.03958,0.17809 -0.09152,0.358654 -0.155829,0.541692 -0.05442,0.05936 -0.113784,0.09894 -0.178091,0.118727 -0.05937,0.01979 -0.11873,0.06184 -0.17809,0.126148 -0.05937,-0.09399 -0.094,-0.180565 -0.103887,-0.259716 -0.0099,-0.07915 -0.01237,-0.155829 -0.0074,-0.230034 0.0099,-0.07915 0.01731,-0.155829 0.02226,-0.230033 0.0049,-0.07915 -0.0099,-0.16325 -0.04452,-0.252296 -0.05937,0.05936 -0.108837,0.118728 -0.148409,0.178091 -0.03463,0.05936 -0.07173,0.121201 -0.111307,0.185511 -0.03463,0.05936 -0.07668,0.118727 -0.126148,0.178091 -0.04947,0.06431 -0.118729,0.126147 -0.207772,0.185511 -0.128624,0 -0.252298,-0.0049 -0.371022,-0.01484 -0.11873,-0.0099 -0.242403,-0.04947 -0.371023,-0.118727 l -0.126147,-0.972078 c -0.05936,0.09399 -0.113782,0.195406 -0.16325,0.304238 -0.04947,0.103887 -0.101414,0.215193 -0.155829,0.33392 -0.04947,0.11378 -0.108835,0.230034 -0.178091,0.348761 -0.06431,0.118727 -0.14099,0.239927 -0.230034,0.363602 -0.08905,-10e-7 -0.168197,-0.0025 -0.237454,-0.0074 -0.06431,0 -0.123675,-0.0074 -0.178091,-0.02226 -0.05442,-0.01484 -0.10636,-0.03958 -0.155829,-0.0742 -0.04947,-0.03463 -0.10636,-0.08163 -0.17067,-0.140989 -0.123675,-0.435332 -0.195405,-0.885506 -0.215193,-1.350521 -0.01979,-0.465013 -0.02968,-0.910239 -0.02968,-1.33568 0,-0.153353 0.03216,-0.249819 0.09647,-0.289398 0.06431,-0.04452 0.136041,-0.05194 0.215193,-0.02226 0.07915,0.02969 0.150882,0.08658 0.215193,0.17067 0.06431,0.07915 0.09647,0.163253 0.09647,0.252296"
         inkscape:connector-curvature="0"
         id="path3998" />
      <path
         d="m 59.851279,56.403529 c 0.128618,0.341343 0.187981,0.650528 0.17809,0.927556 -0.0099,0.277031 -0.11873,0.551587 -0.326499,0.82367 -0.267139,0.267136 -0.561483,0.440279 -0.883033,0.519431 -0.321554,0.07915 -0.653001,0.08163 -0.99434,0.0074 -0.06926,-0.02968 -0.131095,-0.06678 -0.185511,-0.111306 -0.04947,-0.04947 -0.09894,-0.103886 -0.148409,-0.16325 -0.04947,-0.05936 -0.101413,-0.1212 -0.155829,-0.185511 -0.04947,-0.06431 -0.10636,-0.131094 -0.170671,-0.200352 -0.03957,-0.133568 -0.05936,-0.281976 -0.05936,-0.445227 0,-0.163249 0.01731,-0.324025 0.05194,-0.482329 0.03463,-0.163248 0.0841,-0.316604 0.148409,-0.460068 0.06431,-0.143459 0.145935,-0.26466 0.244875,-0.363602 0.168196,-0.237451 0.363601,-0.413068 0.586215,-0.526851 0.222612,-0.118724 0.442751,-0.173141 0.660419,-0.16325 0.222612,0.005 0.427911,0.07668 0.615897,0.215193 0.187982,0.133571 0.333918,0.336396 0.437807,0.608476 m -0.682681,0.534273 c 0.02968,-0.06926 0.03215,-0.140987 0.0074,-0.215193 -0.02474,-0.0742 -0.06679,-0.131093 -0.126147,-0.170671 -0.05937,-0.04452 -0.128623,-0.06183 -0.207773,-0.05194 -0.07421,0.0099 -0.14841,0.06431 -0.222613,0.16325 -0.05442,-0.06431 -0.118729,-0.0742 -0.192932,-0.02968 -0.06926,0.04453 -0.136043,0.103888 -0.200352,0.178091 -0.02968,0.06926 -0.07421,0.145937 -0.133568,0.230034 -0.05442,0.07915 -0.103887,0.165725 -0.148409,0.259715 -0.04452,0.09399 -0.07173,0.19046 -0.08162,0.289398 -0.0049,0.09894 0.02473,0.200353 0.08905,0.304238 l 0.66784,0 c 0.20777,-0.0742 0.351232,-0.200351 0.430386,-0.378443 0.07915,-0.183036 0.118725,-0.375967 0.118727,-0.578794"
         inkscape:connector-curvature="0"
         id="path4000" />
      <path
         d="m 61.40088,56.151234 0,0.281977 c 0.133566,-0.173141 0.262187,-0.32897 0.385863,-0.467488 0.128619,-0.138512 0.262187,-0.257239 0.400704,-0.356181 0.138513,-0.103883 0.286921,-0.190455 0.445226,-0.259716 0.158301,-0.06925 0.338865,-0.118723 0.541693,-0.148409 0.04452,0.158307 0.04947,0.304242 0.01484,0.437807 -0.03463,0.128624 -0.09647,0.252298 -0.185511,0.371022 -0.0841,0.113783 -0.185514,0.225089 -0.304239,0.33392 -0.118729,0.108835 -0.237456,0.217668 -0.356181,0.326499 -0.113782,0.108836 -0.220142,0.222616 -0.319079,0.341341 -0.09894,0.113782 -0.170672,0.239929 -0.215193,0.378443 -0.06926,0.103887 -0.123676,0.220141 -0.16325,0.348761 -0.03958,0.128622 -0.08163,0.257242 -0.126147,0.385863 -0.03958,0.128621 -0.08905,0.249822 -0.148409,0.363602 -0.05936,0.11378 -0.14099,0.205299 -0.244875,0.274556 -0.03958,0 -0.0841,-0.0025 -0.133568,-0.0074 -0.04452,0 -0.09399,-0.0074 -0.148409,-0.02226 -0.04947,-0.01979 -0.09894,-0.04947 -0.148409,-0.08904 -0.04947,-0.03958 -0.09152,-0.09399 -0.126147,-0.16325 -0.03463,-0.237454 -0.05442,-0.477381 -0.05936,-0.719783 0,-0.2424 0.0074,-0.492221 0.02226,-0.749465 0.01979,-0.25724 0.04452,-0.524376 0.0742,-0.801408 0.03463,-0.277027 0.07173,-0.571371 0.111307,-0.883033 -10e-7,-0.02968 0.0074,-0.06678 0.02226,-0.111307 0.01979,-0.04947 0.04452,-0.09646 0.0742,-0.140988 0.03463,-0.04452 0.07668,-0.08162 0.126148,-0.111307 0.05442,-0.02968 0.116253,-0.04452 0.185511,-0.04452 0.103885,0.06926 0.168196,0.15336 0.192932,0.252295 0.02968,0.09894 0.04452,0.205303 0.04452,0.31908 -1e-6,0.108836 -0.0025,0.220143 -0.0074,0.33392 -0.0049,0.113783 0.0099,0.222616 0.04452,0.326499"
         inkscape:connector-curvature="0"
         id="path4002" />
      <path
         d="m 65.013823,56.321905 c -2e-6,0.0841 0.0025,0.183039 0.0074,0.296817 0.0099,0.108836 0.0074,0.220142 -0.0074,0.33392 -0.01484,0.108835 -0.04947,0.212721 -0.103886,0.311659 -0.04947,0.09399 -0.13357,0.170672 -0.252295,0.230034 -0.237456,0.05442 -0.462543,0.06431 -0.67526,0.02968 -0.212721,-0.03957 -0.378444,-0.09152 -0.49717,-0.15583 -0.05936,0.03463 -0.09894,0.07173 -0.118727,0.111307 -0.01484,0.03958 -0.02226,0.07915 -0.02226,0.118727 0,0.04452 0.01237,0.08905 0.0371,0.133568 0.0841,0.113781 0.180564,0.2053 0.289398,0.274557 0.113779,0.06431 0.230032,0.126148 0.348761,0.185511 0.118725,0.05936 0.232505,0.123674 0.34134,0.192931 0.113779,0.06431 0.212718,0.15583 0.296818,0.274557 -0.0841,0.08904 -0.183039,0.133568 -0.296818,0.133568 -0.113781,0 -0.232509,-0.02226 -0.356181,-0.06678 -0.123675,-0.04452 -0.249823,-0.09647 -0.378443,-0.155829 -0.128622,-0.06431 -0.252296,-0.111307 -0.371022,-0.140989 -0.118728,-0.05442 -0.210246,-0.138514 -0.274557,-0.252295 -0.06431,-0.11378 -0.128621,-0.230033 -0.192931,-0.348761 -0.05936,-0.113779 -0.08657,-0.227559 -0.08162,-0.341341 0.0099,-0.118725 0.0371,-0.232505 0.08162,-0.34134 0.04452,-0.108832 0.09894,-0.212718 0.16325,-0.311659 0.06926,-0.09894 0.133567,-0.190456 0.192931,-0.274556 0.118727,-0.148407 0.259715,-0.281975 0.422966,-0.400704 0.168195,-0.123672 0.338865,-0.20777 0.51201,-0.252295 0.178089,-0.04452 0.348759,-0.0371 0.512011,0.02226 0.168195,0.05442 0.309183,0.185514 0.422965,0.393284 m -0.586215,0.111306 c -0.118729,0.06431 -0.232509,0.128623 -0.34134,0.192932 -0.103888,0.06431 -0.183039,0.153358 -0.237455,0.267136 l 0.230034,0 c 0.118726,-0.04947 0.205298,-0.108831 0.259716,-0.178091 0.05936,-0.0742 0.08904,-0.168194 0.08905,-0.281977"
         inkscape:connector-curvature="0"
         id="path4004" />
    </g>
    <rect
       width="56"
       height="1.0881424"
       x="20"
       y="42.911858"
       id="rect4182"
       style="opacity:0.15;color:#000000;fill:#000000;fill-opacity:1;fill-rule:nonzero;stroke:none;stroke-width:1;marker:none;visibility:visible;display:inline;overflow:visible;enable-background:accumulate" />
    <rect
       width="56"
       height="1.0881424"
       x="20"
       y="58.911858"
       id="rect4184"
       style="opacity:0.15;color:#000000;fill:#000000;fill-opacity:1;fill-rule:nonzero;stroke:none;stroke-width:1;marker:none;visibility:visible;display:inline;overflow:visible;enable-background:accumulate" />
    <rect
       width="56"
       height="1.0881424"
       x="20"
       y="74.911858"
       id="rect4186"
       style="opacity:0.15;color:#000000;fill:#000000;fill-opacity:1;fill-rule:nonzero;stroke:none;stroke-width:1;marker:none;visibility:visible;display:inline;overflow:visible;enable-background:accumulate" />
  </g>
  <g
     id="layer5">
    <rect
       width="66"
       height="66"
       rx="12"
       ry="12"
       x="15"
       y="15"
       clip-path="url(#clipPath3613)"
       id="rect3171"
       style="opacity:0.1;fill:url(#linearGradient3613);fill-opacity:1;fill-rule:nonzero;stroke:#ffffff;stroke-width:0.5;stroke-linecap:round;stroke-linejoin:miter;stroke-miterlimit:4;stroke-opacity:1;stroke-dasharray:none;stroke-dashoffset:0;filter:url(#filter3794)" />
  </g>
</svg>
