<?xml version="1.0" encoding="UTF-8" standalone="no"?>
<svg
   xmlns:dc="http://purl.org/dc/elements/1.1/"
   xmlns:cc="http://creativecommons.org/ns#"
   xmlns:rdf="http://www.w3.org/1999/02/22-rdf-syntax-ns#"
   xmlns:svg="http://www.w3.org/2000/svg"
   xmlns="http://www.w3.org/2000/svg"
   xmlns:xlink="http://www.w3.org/1999/xlink"
   xmlns:sodipodi="http://sodipodi.sourceforge.net/DTD/sodipodi-0.dtd"
   xmlns:inkscape="http://www.inkscape.org/namespaces/inkscape"
   viewBox="0 0 96 96"
   id="svg2"
   version="1.1"
   inkscape:version="0.91 r"
   sodipodi:docname="ejecter.svg">
  <title
     id="title164">ejecter</title>
  <metadata
     id="metadata162">
    <rdf:RDF>
      <cc:Work
         rdf:about="">
        <dc:format>image/svg+xml</dc:format>
        <dc:type
           rdf:resource="http://purl.org/dc/dcmitype/StillImage" />
        <dc:title>ejecter</dc:title>
        <dc:subject>
          <rdf:Bag>
            <rdf:li>ejecter</rdf:li>
          </rdf:Bag>
        </dc:subject>
        <dc:description>ejecter</dc:description>
      </cc:Work>
    </rdf:RDF>
  </metadata>
  <sodipodi:namedview
     pagecolor="#ffffff"
     bordercolor="#666666"
     borderopacity="1"
     objecttolerance="10"
     gridtolerance="10"
     guidetolerance="10"
     inkscape:pageopacity="0"
     inkscape:pageshadow="2"
     inkscape:window-width="1280"
     inkscape:window-height="965"
     id="namedview160"
     showgrid="false"
     inkscape:zoom="2.45833"
     inkscape:cx="-27.4055"
     inkscape:cy="40.9596"
     inkscape:window-x="0"
     inkscape:window-y="27"
     inkscape:window-maximized="1"
     inkscape:current-layer="svg2" />
  <defs
     id="defs4">
    <clipPath
       id="clipPath4194-1">
      <path
         fill="#f0f"
         d="m12,6h72a6,6 0 0,1 6,6v72a6,6 0 0,1 -6,6h-72a6,6 0 0,1 -6-6v-72a6,6 0 0,1 6-6"
         id="path11" />
    </clipPath>
    <linearGradient
       id="linearGradient4145-0"
       xlink:href="#linearGradient4115-2"
       y1="48.047"
       x1="48.234"
       y2="66.233"
       x2="126.139"
       gradientUnits="userSpaceOnUse" />
    <linearGradient
       id="linearGradient4053-2"
       xlink:href="#linearGradient4047-2"
       y1="48.029"
       x1="47.998"
       y2="57.665"
       x2="127.416"
       gradientUnits="userSpaceOnUse" />
    <linearGradient
       id="linearGradient4115-2">
      <stop
         offset="0"
         stop-color="#fff"
         id="stop16" />
      <stop
         offset="1"
         stop-color="#fff"
         stop-opacity="0"
         id="stop18" />
    </linearGradient>
    <linearGradient
       id="linearGradient4137-7"
       xlink:href="#linearGradient4115-2"
       y1="48.032"
       x1="48.055"
       y2="62.839"
       x2="126.673"
       gradientUnits="userSpaceOnUse" />
    <linearGradient
       id="linearGradient3047"
       xlink:href="#linearGradient3737-6"
       y1="6"
       y2="63.893"
       x2="0"
       gradientUnits="userSpaceOnUse" />
    <linearGradient
       gradientTransform="translate(4 -4)"
       id="linearGradient3935"
       xlink:href="#linearGradient4281-6"
       y1="36"
       y2="68"
       x2="0"
       gradientUnits="userSpaceOnUse" />
    <linearGradient
       id="linearGradient3737-6">
      <stop
         offset="0"
         stop-color="#fff"
         id="stop24" />
      <stop
         offset="1"
         stop-color="#fff"
         stop-opacity="0"
         id="stop26" />
    </linearGradient>
    <linearGradient
       id="linearGradient4129-8"
       xlink:href="#linearGradient4115-2"
       y1="48.029"
       x1="47.997"
       y2="60.29"
       x2="127.052"
       gradientUnits="userSpaceOnUse" />
    <linearGradient
       id="linearGradient4121-6"
       xlink:href="#linearGradient4115-2"
       y1="48.029"
       x1="47.998"
       y2="57.665"
       x2="127.416"
       gradientUnits="userSpaceOnUse" />
    <linearGradient
       id="linearGradient4061-6"
       xlink:href="#linearGradient4047-2"
       y1="48.029"
       x1="47.997"
       y2="60.29"
       x2="127.052"
       gradientUnits="userSpaceOnUse" />
    <linearGradient
       gradientTransform="translate(0 -97)"
       id="linearGradient3721"
       xlink:href="#ButtonShadow-0"
       y1="6.132"
       y2="90.239"
       x2="0"
       gradientUnits="userSpaceOnUse" />
    <linearGradient
       id="linearGradient4047-2">
      <stop
         offset="0"
         id="stop33" />
      <stop
         offset="1"
         stop-opacity="0"
         id="stop35" />
    </linearGradient>
    <linearGradient
       id="linearGradient3617"
       xlink:href="#linearGradient4081"
       y1="90"
       y2="5.988"
       x2="0"
       gradientUnits="userSpaceOnUse" />
    <linearGradient
       gradientTransform="matrix(1.00587 0 0 .99417 100 0)"
       id="ButtonShadow-0"
       y1="92.54"
       y2="7.017"
       x2="0"
       gradientUnits="userSpaceOnUse">
      <stop
         offset="0"
         id="stop39" />
      <stop
         offset="1"
         stop-opacity=".588"
         id="stop41" />
    </linearGradient>
    <linearGradient
       gradientTransform="matrix(1.02381 0 0 1.0119 -1.14286 -98.07143)"
       id="linearGradient3780"
       xlink:href="#ButtonShadow-0"
       y1="6.132"
       y2="90.239"
       x2="0"
       gradientUnits="userSpaceOnUse" />
    <linearGradient
       id="linearGradient4081">
      <stop
         offset="0"
         stop-color="#8c8c8c"
         id="stop45" />
      <stop
         offset="1"
         stop-color="#dcdcdc"
         id="stop47" />
    </linearGradient>
    <linearGradient
       id="linearGradient4071-3">
      <stop
         offset="0"
         id="stop50" />
      <stop
         offset="1"
         stop-opacity="0"
         id="stop52" />
    </linearGradient>
    <linearGradient
       id="linearGradient4069-9"
       xlink:href="#linearGradient4047-2"
       y1="48.032"
       x1="48.055"
       y2="62.839"
       x2="126.673"
       gradientUnits="userSpaceOnUse" />
    <linearGradient
       id="linearGradient4077-0"
       xlink:href="#linearGradient4071-3"
       y1="48.047"
       x1="48.234"
       y2="66.233"
       x2="126.139"
       gradientUnits="userSpaceOnUse" />
    <linearGradient
       id="linearGradient4281-6">
      <stop
         offset="0"
         stop-color="#1e1e1e"
         id="stop57" />
      <stop
         offset="1"
         stop-color="#505050"
         id="stop59" />
    </linearGradient>
    <radialGradient
       cx="48.265"
       cy="47.887"
       gradientTransform="matrix(1 0 0 1.01381 -30 -.66141)"
       r="28.879"
       id="radialGradient5008"
       gradientUnits="userSpaceOnUse">
      <stop
         offset="0"
         stop-opacity="0"
         id="stop62" />
      <stop
         offset="1"
         id="stop64" />
    </radialGradient>
    <radialGradient
       cx="48.41"
       cy="47.598"
       gradientTransform="matrix(1 0 0 .98496 -30 .71591)"
       r="30.64"
       id="radialGradient3814-9"
       gradientUnits="userSpaceOnUse">
      <stop
         offset="0"
         stop-color="#fff"
         stop-opacity="0"
         id="stop67" />
      <stop
         offset="1"
         stop-color="#fff"
         id="stop69" />
    </radialGradient>
    <radialGradient
       cx="48"
       cy="90.172"
       gradientTransform="matrix(1.15731,0,0,0.99591,-7.55102,0.19713)"
       r="42"
       id="radialGradient3619-8"
       xlink:href="#linearGradient3737-6"
       gradientUnits="userSpaceOnUse" />
  </defs>
  <path
     opacity=".08"
     fill="url(#linearGradient3780)"
     d="m12-95.0312c-5.5111,0-10.0312,4.5202-10.0312,10.0312v71c0,5.5111 4.5202,10.0312 10.0312,10.0312h72c5.5111,0 10.0312-4.5202 10.0312-10.0312v-71c0-5.5111-4.5202-10.0312-10.0312-10.0312h-72z"
     transform="scale(1 -1)"
     id="path72" />
  <path
     opacity=".1"
     fill="url(#linearGradient3780)"
     d="m12-94.0312c-4.9716,0-9.0312,4.0596-9.0312,9.0312v71c0,4.9716 4.0596,9.0312 9.0312,9.0312h72c4.9716,0 9.0312-4.0596 9.0312-9.0312v-71c0-4.9716-4.0596-9.0312-9.0312-9.0312h-72z"
     transform="scale(1 -1)"
     id="path74" />
  <path
     opacity=".2"
     fill="url(#linearGradient3780)"
     d="m12-93c-4.4091,0-8,3.5909-8,8v71c0,4.4091 3.5909,8 8,8h72c4.4091,0 8-3.5909 8-8v-71c0-4.4091-3.5909-8-8-8h-72z"
     transform="scale(1 -1)"
     id="path76" />
  <path
     opacity=".3"
     fill="url(#linearGradient3780)"
     d="m12-92h72a7,7 0 0,1 7,7v71a7,7 0 0,1 -7,7h-72a7,7 0 0,1 -7-7v-71a7,7 0 0,1 7-7"
     transform="scale(1 -1)"
     id="path78" />
  <path
     opacity=".45"
     fill="url(#linearGradient3721)"
     d="m12-91h72a6,6 0 0,1 6,6v72a6,6 0 0,1 -6,6h-72a6,6 0 0,1 -6-6v-72a6,6 0 0,1 6-6"
     transform="scale(1 -1)"
     id="path80" />
  <g
     opacity=".9"
     id="g82">
    <path
       fill="url(#linearGradient3617)"
       d="m12,6h72a6,6 0 0,1 6,6v72a6,6 0 0,1 -6,6h-72a6,6 0 0,1 -6-6v-72a6,6 0 0,1 6-6"
       id="path84" />
  </g>
  <g
     clip-path="url(#clipPath4194-1)"
     id="g86">
    <g
       opacity=".9"
       color="#000"
       transform="matrix(.14137 .99272 -1.16518 .12045 96.93727 -5.19468)"
       id="g88">
      <path
         opacity=".05"
         fill="url(#linearGradient4077-0)"
         d="m108.8959,48a60.8959,60.8959 0 0,1 -6.5462,27.4667l-54.3497-27.4667z"
         transform="matrix(.99411 -.10837 .10837 .99411 -5.15822 5.49189)"
         id="path90" />
      <path
         opacity=".07"
         fill="url(#linearGradient4069-9)"
         d="m108.8959,48a60.8959,60.8959 0 0,1 -4.4572,22.8689l-56.4387-22.8689z"
         transform="matrix(.99786 -.06537 .06537 .99786 -3.09401 3.24157)"
         id="path92" />
      <path
         opacity=".1"
         fill="url(#linearGradient4061-6)"
         d="m108.8959,48a60.8959,60.8959 0 0,1 -3.1299,19.2719l-57.766-19.2719z"
         transform="matrix(.99945 -.03312 .03312 .99945 -1.56346 1.61613)"
         id="path94" />
      <path
         opacity=".1"
         fill="url(#linearGradient4053-2)"
         d="m108.8959,48a60.8959,60.8959 0 0,1 -2.075,15.761l-58.8209-15.761z"
         id="path96" />
    </g>
    <g
       fill="none"
       stroke-width=".479"
       transform="matrix(1.83274 0 0 1.83274 14.25832 -39.23441)"
       id="g98">
      <path
         opacity=".2"
         stroke="url(#radialGradient3814-9)"
         d="m19.1963,49.8671c-3.7383,2.563-5.6052-4.8991-1.155-4.812 4.3871-.2361 3.9791,6.8014-.1448,6.6146-3.1737,.2426-5.0987-3.8987-3.1036-6.2853 2.0277-2.9808 7.1712-1.6842 7.7389,1.8175 .969,3.6362-3.1572,7.0386-6.5673,5.5229-3.9462-1.2697-4.4898-7.147-1.1071-9.3662 3.5697-2.7958 9.3917,.2373 9.2058,4.7583 .2568,4.3508-4.6893,7.6722-8.6482,5.9348-4.7194-1.5512-5.692-8.4202-1.9094-11.4727 3.6589-3.435 10.363-1.4582 11.6745,3.3588 1.5931,4.5594-2.0643,9.9214-6.9194,10.0093-4.9341,.465-9.3835-4.3388-8.5226-9.2263 .4805-5.0458 6.044-8.5972 10.8389-7.0428 5.1784,1.2462 7.9642,7.5811 5.6619,12.3154-2.0703,5.1795-9.0655,7.066-13.6212,4.0018-5.1934-3.0203-5.926-10.8938-1.7483-15.0707 4.2959-4.8288 12.9044-3.7852 16.1291,1.7404 3.5882,5.4367 .7455,13.6499-5.4452,15.6951-6.0859,2.3964-13.6473-1.7424-14.7384-8.2363-1.4747-6.4104 3.513-13.3625 10.125-13.8088 6.5474-.8477 13.055,4.594 13.1837,11.2382 .5235,6.584-5.0158,12.8873-11.6591,13.0252-6.7954,.5379-13.3002-5.1805-13.4401-12.0377-.5524-7.0079 5.3458-13.7153 12.4175-13.8572 7.2229-.5705 14.1292,5.5183 14.2754,12.7992 .544,7.0708-5.0782,13.9101-12.1504,14.6059-7.0606,1.0192-14.4096-3.9622-15.8131-11.0119-1.7657-7.2328 2.7908-15.3644 10.0154-17.3795 7.3952-2.3954 16.2043,1.8723 18.685,9.2931 2.8286,7.4575-1.1147,16.6922-8.5779,19.6247-7.6239,3.3457-17.4578-.4511-20.7105-8.1542-3.6267-7.7301 .0275-17.9022 7.8317-21.4393 7.8269-3.9174 18.3362-.4191 22.166,7.4766 4.2173,7.9142 .8888,18.76-7.0878,22.8906-7.991,4.5265-19.1714,1.3818-23.6105-6.6655-4.8444-8.0574-1.8982-19.5706 6.2087-24.3259 7.972-5.0732 19.5614-2.5467 24.7674,5.3185 5.6225,7.8764 3.5991,19.8431-4.1517,25.5732-7.6181,6.0527-19.6589,4.7318-25.992-2.5748-6.5368-7.0449-6.3481-18.8481 .0059-25.9432 5.9692-7.1413 17.0941-8.6939 25.0123-3.9877 7.8697,4.2873 11.7782,14.219 9.3246,22.7747-2.1034,8.6536-10.4003,15.2405-19.3163,15.2619-9.3512,.3751-18.5154-6.176-20.8249-15.3129-2.8406-9.826 2.376-21.277 11.857-25.2827 9.7995-4.5304 22.5795-.4391 27.8066,9.0408 5.6264,9.4566 2.7082,22.7904-6.297,29.0895-8.8465,6.6167-22.3588,5.1232-29.7631-2.9918-7.4442-7.667-7.9887-20.5556-1.7344-29.0992 5.6922-8.3323 17.1468-11.7026 26.5569-8.2884 9.3407,3.0049 16.0401,12.4099 15.8372,22.2189 .1436,10.2889-6.9822,20.2534-16.9566,23.0482-10.9206,3.4263-23.8526-1.9204-28.876-12.2743-5.5969-10.6829-1.9007-25.0987 8.1678-31.7486 9.8776-6.9651 24.5579-5.161 32.6641,3.7252 8.12,8.3877 8.8715,22.3824 2.2644,31.88-5.8718,9.0287-17.7878,13.1945-28.0772,10.2613-10.3335-2.561-18.4534-12.0284-19.2606-22.6669-1.2478-11.5375 5.8422-23.4767 16.8197-27.4722 11.7624-4.6715 26.4261,.214 32.8512,11.1667 6.963,11.11 4.2544,26.9389-5.8485,35.24-9.0175,7.8078-23.1228,8.4362-33.0254,1.9041-9.3105-5.7727-14.2702-17.4362-12.2651-28.1684 1.6441-10.7847 10.062-20.1707 20.6858-22.7562 11.8274-3.1698 25.3934,2.0493 31.7798,12.5601 6.786,10.5937 5.3792,25.4348-2.9509,34.7827-7.2056,8.4619-19.4723,11.822-30.0718,8.7098-10.5797-2.8065-19.1547-11.9437-21.0805-22.7475-2.4683-12.1985 3.3554-25.6522 14.2141-31.8639 11.2548-6.7882 26.7235-4.9539 36.275,3.9991 8.6483,7.7558 11.8352,20.656 8.3267,31.6542-2.022,6.6789-6.3258,12.6532-12.1192,16.5653"
         id="path100" />
      <path
         opacity=".1"
         stroke="url(#radialGradient5008)"
         d="m16.9089,49.3373c-3.8859-1.8589 1.3687-6.9414 3.4117-3.2373 2.279,3.4987-3.7071,6.5071-5.513,3.024-1.7078-2.4969 .786-6.0492 3.6983-5.5412 3.4169,.2525 4.7939,5.102 2.1816,7.2332-2.5323,2.5254-7.2934,.7461-7.6664-2.7808-.8302-3.8513 3.7489-7.0916 7.1828-5.362 3.9974,1.6095 4.2675,7.8427 .4582,9.8381-3.459,2.2788-8.5429-.2138-8.9943-4.2978-.9659-4.6215 4.2255-8.6861 8.5353-7.0233 4.5659,1.3792 6.1246,7.8364 2.7832,11.2049-2.9956,3.4778-9.1468,3.0156-11.5262-.9387-2.7274-3.8401-.8879-9.785 3.5439-11.3989 4.3813-2.0023 9.9481,.8892 10.9472,5.5743 1.435,4.8543-2.4551,10.1576-7.4458,10.5123-5.2468,.7573-10.1236-4.1037-9.7664-9.3095 .018-5.7097 6.1502-10.0541 11.5733-8.6004 6.0158,1.2412 9.2475,8.8224 6.232,14.1023-2.7696,5.5367-10.8804,7.1-15.5055,2.9765-4.8644-3.8703-5.051-12.0606-.2246-16.0445 4.5753-4.26 12.6675-3.4584 16.1768,1.7717 3.8089,4.9861 2.4225,12.9281-2.9849,16.1913-5.1702,3.5596-12.9904,1.9956-16.2607-3.4066-3.6719-5.3374-2.0563-13.4087 3.5211-16.7823 5.5054-3.7848 13.8288-2.1176 17.3059,3.6355 3.9019,5.6738 2.1722,14.2515-3.7509,17.8317-5.5611,3.8078-13.862,2.4304-17.7952-3.0599-4.1939-5.327-3.5862-13.7428 1.5491-18.2479 5.114-4.8903 13.972-5.0041 19.0636-.0154 5.4857,4.9484 6.1591,14.2268 1.2302,19.795-4.7938,5.8719-14.2683,7.0146-20.2284,2.2654-6.3765-4.6851-7.9245-14.5832-3.1301-20.9208 4.6389-6.6583 14.7476-8.4844 21.3674-3.7419 6.9435,4.5805 9.0581,14.8927 4.3795,21.7968-4.5098,7.2319-15.0182,9.6462-22.2084,5.0438-7.5228-4.4262-10.2474-15.1226-5.7334-22.6003 4.3297-7.8161 15.2057-10.8621 22.9719-6.4494 7.9638,4.1507 11.3915,14.8901 7.3919,22.9124-3.8109,8.3704-14.6218,12.3916-23.0211,8.7351-8.6018-3.3939-13.2363-13.932-10.232-22.6165 2.6921-8.7278 12.4965-14.1814 21.3555-12.3232 8.7143,1.5195 15.2786,9.9382 15.1678,18.6917 .2109,8.5145-6.1061,16.4509-14.3139,18.4971-8.122,2.3809-17.4859-1.3179-21.7404-8.6461-4.7523-7.5184-3.7152-18.1741 2.7076-24.4168 6.7375-7.0073 18.6413-8.1551 26.4435-2.2552 8.3854,5.9128 11.091,18.3757 5.7724,27.1827-5.1097,9.1246-17.4709,13.0589-26.9346,8.6403-9.6497-4.137-14.8414-15.9681-11.6807-25.9186 2.773-9.7703 13.1223-16.3431 23.1262-15.2553 9.5629,.7255 17.7799,8.5518 19.4415,17.9194 1.9654,9.1159-2.5919,19.0991-10.7617,23.5933-8.4001,5.0074-19.9876,3.8776-27.0276-3.004-8.0094-7.3602-9.754-20.5447-3.6192-29.5994 6.1331-9.683 19.7545-13.4912 30.0121-8.3642 10.4264,4.82 15.9176,17.7602 12.4557,28.6548-3.045,10.6691-14.2064,17.9378-25.163,17.013-10.2214-.5424-19.3124-8.3705-21.7877-18.2332-2.8025-9.7221 1.1311-20.9041 9.5036-26.6239 8.9031-6.5096 22.0988-6.3475 30.6037,.789 9.4344,7.4613 12.3813,21.852 6.4198,32.3449-5.8354,11.0104-20.1506,16.3028-31.7837,11.9322-10.7113-3.7117-17.9313-15.0226-17.2606-26.2772 .327-10.4063 7.5699-20.0309 17.356-23.4804 9.6577-3.7716 21.383-1.3033 28.5594,6.212 8.2292,8.2284 10.38,21.8741 4.7639,32.1253-5.4946,10.6194-18.3782,16.514-30.0304,14.0998-10.3887-1.9096-18.9832-10.4092-21.4585-20.6121-2.7174-10.0414 .7282-21.441 8.7052-28.16 8.8671-7.8282 22.7077-9.4281 32.9803-3.4424 10.9352,6.0377 16.7761,19.6411 13.9461,31.757-2.2738,10.8036-11.3771,19.5567-22.0964,21.8953-6.458,1.5095-13.4203,.8062-19.3932-2.1031"
         id="path102" />
    </g>
    <g
       opacity=".9"
       fill="#fff"
       color="#000"
       transform="matrix(1.06281 -.13088 -.7401 3.22747 32.52511 -100.66774)"
       id="g104">
      <path
         opacity=".2"
         fill="url(#linearGradient4145-0)"
         d="m108.8959,48a60.8959,60.8959 0 0,1 -6.5462,27.4667l-54.3497-27.4667z"
         transform="matrix(.99411 -.10837 .10837 .99411 -5.15822 5.49189)"
         id="path106" />
      <path
         opacity=".4"
         fill="url(#linearGradient4137-7)"
         d="m108.8959,48a60.8959,60.8959 0 0,1 -4.4572,22.8689l-56.4387-22.8689z"
         transform="matrix(.99786 -.06537 .06537 .99786 -3.09401 3.24157)"
         id="path108" />
      <path
         opacity=".6"
         fill="url(#linearGradient4129-8)"
         d="m108.8959,48a60.8959,60.8959 0 0,1 -3.1299,19.2719l-57.766-19.2719z"
         transform="matrix(.99945 -.03312 .03312 .99945 -1.56346 1.61613)"
         id="path110" />
      <path
         opacity=".8"
         fill="url(#linearGradient4121-6)"
         d="m108.8959,48a60.8959,60.8959 0 0,1 -2.075,15.761l-58.8209-15.761z"
         id="path112" />
    </g>
    <g
       opacity=".5"
       color="#000"
       transform="matrix(-.61679 .78713 -.78713 -.61679 115.00148 40.01193)"
       id="g114">
      <path
         opacity=".05"
         fill="url(#linearGradient4077-0)"
         d="m108.8959,48a60.8959,60.8959 0 0,1 -6.5462,27.4667l-54.3497-27.4667z"
         transform="matrix(.99411 -.10837 .10837 .99411 -5.15822 5.49189)"
         id="path116" />
      <path
         opacity=".07"
         fill="url(#linearGradient4069-9)"
         d="m108.8959,48a60.8959,60.8959 0 0,1 -4.4572,22.8689l-56.4387-22.8689z"
         transform="matrix(.99786 -.06537 .06537 .99786 -3.09401 3.24157)"
         id="path118" />
      <path
         opacity=".1"
         fill="url(#linearGradient4061-6)"
         d="m108.8959,48a60.8959,60.8959 0 0,1 -3.1299,19.2719l-57.766-19.2719z"
         transform="matrix(.99945 -.03312 .03312 .99945 -1.56346 1.61613)"
         id="path120" />
      <path
         opacity=".1"
         fill="url(#linearGradient4053-2)"
         d="m108.8959,48a60.8959,60.8959 0 0,1 -2.075,15.761l-58.8209-15.761z"
         id="path122" />
    </g>
    <g
       opacity=".8"
       color="#000"
       transform="matrix(-.06817 -1.04601 2.71067 .60163 -79.09545 69.08013)"
       id="g124">
      <path
         opacity=".05"
         fill="url(#linearGradient4077-0)"
         d="m108.8959,48a60.8959,60.8959 0 0,1 -6.5462,27.4667l-54.3497-27.4667z"
         transform="matrix(.99411 -.10837 .10837 .99411 -5.15822 5.49189)"
         id="path126" />
      <path
         opacity=".07"
         fill="url(#linearGradient4069-9)"
         d="m108.8959,48a60.8959,60.8959 0 0,1 -4.4572,22.8689l-56.4387-22.8689z"
         transform="matrix(.99786 -.06537 .06537 .99786 -3.09401 3.24157)"
         id="path128" />
      <path
         opacity=".1"
         fill="url(#linearGradient4061-6)"
         d="m108.8959,48a60.8959,60.8959 0 0,1 -3.1299,19.2719l-57.766-19.2719z"
         transform="matrix(.99945 -.03312 .03312 .99945 -1.56346 1.61613)"
         id="path130" />
      <path
         opacity=".1"
         fill="url(#linearGradient4053-2)"
         d="m108.8959,48a60.8959,60.8959 0 0,1 -2.075,15.761l-58.8209-15.761z"
         id="path132" />
    </g>
    <g
       opacity=".9"
       fill="#fff"
       color="#000"
       transform="matrix(-1.06281 .13088 .7401 -3.22747 62.99669 196.66774)"
       id="g134">
      <path
         opacity=".2"
         fill="url(#linearGradient4145-0)"
         d="m108.8959,48a60.8959,60.8959 0 0,1 -6.5462,27.4667l-54.3497-27.4667z"
         transform="matrix(.99411 -.10837 .10837 .99411 -5.15822 5.49189)"
         id="path136" />
      <path
         opacity=".4"
         fill="url(#linearGradient4137-7)"
         d="m108.8959,48a60.8959,60.8959 0 0,1 -4.4572,22.8689l-56.4387-22.8689z"
         transform="matrix(.99786 -.06537 .06537 .99786 -3.09401 3.24157)"
         id="path138" />
      <path
         opacity=".6"
         fill="url(#linearGradient4129-8)"
         d="m108.8959,48a60.8959,60.8959 0 0,1 -3.1299,19.2719l-57.766-19.2719z"
         transform="matrix(.99945 -.03312 .03312 .99945 -1.56346 1.61613)"
         id="path140" />
      <path
         opacity=".8"
         fill="url(#linearGradient4121-6)"
         d="m108.8959,48a60.8959,60.8959 0 0,1 -2.075,15.761l-58.8209-15.761z"
         id="path142" />
    </g>
  </g>
  <path
     style="opacity:0.5;fill:url(#linearGradient3047)"
     d="M 12,6 C 8.11425,5.86322 5.41842,9.7916 6,13.4226 6.01817,37.1117 5.96368,60.8028 6.02721,84.4906 5.28209,86.8321 10.5384,90.3041 9.3125,89.2189 6.06848,87.1934 7.20936,83.0941 7,79.918 7.01709,57.4408 6.96584,34.9619 7.02559,12.4857 7.23712,9.18528 10.6966,7.53718 13.6597,8.0003 37.2778,8.01738 60.8976,7.96615 84.5146,8.02589 87.815,8.23742 89.4631,11.6969 89,14.66 c -0.023,23.6263 0.047,47.2557 -0.035,70.8801 0.6395,2.1759 -4.9497,5.3487 -1.452,3.2815 3.5336,-2.4814 2.2373,-6.9817 2.4873,-10.6151 -0.021,-22.2736 0.041,-44.5493 -0.031,-66.8216 C 89.7162,7.60958 85.8109,5.47608 82.3404,6.0001 58.8936,6.00003 35.4467,6.00023 12,6 Z"
     id="path144"
     inkscape:connector-curvature="0" />
  <path
     style="opacity:0.2;fill:url(#radialGradient3619-8)"
     d="M 12,90 C 8.11425,90.1368 5.41842,86.2084 6,82.5774 6.01817,58.8883 5.96368,35.1972 6.02721,11.5094 5.28209,9.16789 10.5384,5.69592 9.3125,6.7811 6.06848,8.80663 7.20936,12.9059 7,16.082 c 0.0171,22.4772 -0.0342,44.9561 0.0256,67.4323 0.21153,3.3004 3.67101,4.9485 6.63411,4.4854 23.6181,-0.017 47.2379,0.034 70.8549,-0.026 3.3004,-0.2115 4.9485,-3.671 4.4854,-6.6341 -0.023,-23.6263 0.047,-47.2557 -0.035,-70.8801 0.6395,-2.17591 -4.9497,-5.34874 -1.452,-3.28154 3.5336,2.48139 2.2373,6.98174 2.4873,10.61514 -0.021,22.2736 0.041,44.5493 -0.031,66.8216 -0.253,3.7753 -4.1583,5.9088 -7.6288,5.3848 C 58.8936,90 35.4467,89.9998 12,90 Z"
     id="path146"
     inkscape:connector-curvature="0" />
  <g
     color="#000"
     id="g148">
    <path
       fill="url(#linearGradient3935)"
       d="m47.8125,32a1.4014,.9973 0 0,0 -1.0312,.5l-14.5938,18a1.4014,.9973 0 0,0 -.1875,.4688 1.4014,.9973 0 0,0 1.4062,1.0312h29.1875a1.4014,.9973 0 0,0 1.2188-1.5l-14.5938-18a1.4014,.9973 0 0,0 -1.4062-.5zm-13.8125,24c-1.108,0-2,.892-2,2v4c0,1.108 .892,2 2,2h28c1.108,0 2-.892 2-2v-4c0-1.108-.892-2-2-2h-28z"
       id="path150" />
    <path
       opacity=".6"
       fill="#fff"
       d="m32.1875,51.5a1.4014,.9973 0 0,0 -.1875,.4688 1.4014,.9973 0 0,0 1.4062,1.0312h29.1875a1.4014,.9973 0 0,0 1.2188-1.5 1.4014,.9973 0 0,1 -1.2188,.5h-29.1875a1.4014,.9973 0 0,1 -1.2188-.5zm-.1875,10.5v1c0,1.108 .892,2 2,2h28c1.108,0 2-.892 2-2v-1c0,1.108-.892,2-2,2h-28c-1.108,0-2-.892-2-2z"
       id="path152" />
    <path
       opacity=".6"
       d="m47.8125,32a1.4014,.9973 0 0,0 -1.0312,.5l-14.5938,18a1.4014,.9973 0 0,0 -.1875,.4688 1.4014,.9973 0 0,0 .1875,.5312l14.5938-18a1.4014,.9973 0 0,1 1.0312-.5 1.4014,.9973 0 0,1 1.4062,.5l14.5938,18a1.4014,.9973 0 0,0 0-1l-14.5938-18a1.4014,.9973 0 0,0 -1.4062-.5zm-13.8125,24c-1.108,0-2,.892-2,2v1c0-1.108 .892-2 2-2h28c1.108,0 2,.892 2,2v-1c0-1.108-.892-2-2-2h-28z"
       id="path154" />
    <path
       opacity=".2"
       d="m47.8125,32a1.4014,.9973 0 0,0 -1.0312,.5l-14.5938,18a1.4014,.9973 0 0,0 -.1875,.4688 1.4014,.9973 0 0,0 1.4062,1.0312h29.1875a1.4014,.9973 0 0,0 1.2188-1.5l-14.5938-18a1.4014,.9973 0 0,0 -1.4062-.5zm.0312,1c.0801-.0147-.0185,.0079 .0625,0 .0523-.0049 .01,.0022 .0625,0 .0525-.0022-.0212-.0006 .0312,0 .0525,.0006 .0101-.0034 .0625,0 .0524,.0034 .0104-.0062 .0625,0 .0521,.0062-.0205-.009 .0312,0 .0517,.009 .0113,.0194 .0625,.0312 .0512,.0119-.0192-.0147 .0312,0 .0505,.0147-.0184-.0177 .0312,0 .0496,.0177-.0174,.0106 .0312,.0312 .0486,.0206-.0162-.0237 .0312,0 .0474,.0237-.0147,.0044 .0312,.0312 .046,.0268-.0131-.0301 .0312,0 .0425,.0334-.009-.0056 .0312,.0312l14.4375,17.8125c-.044,.0153 .0134,.0182-.0312,.0312-.0446,.013 .0139-.0108-.0312,0-.0452,.0108 .0144-.0085-.0312,0-.0913,.0171-.0013,.023-.0938,.0312-.0924,.0083-.0009,.0004-.0938,0h-29.1875c-.0709,.0002 .0083,.0049-.0625,0-.0708-.0049 .0077,.01-.0625,0-.0702-.01 .0068-.0161-.0625-.0312-.0694-.0151 .0056,.0204-.0625,0-.0408-.0122-.0341-.0319-.0312-.0312l14.4375-17.8125c.0318-.0277-.0018-.0056 .0312-.0312 .0342-.0236-.004,.0217 .0312,0 .0361-.0198-.0057-.0134 .0312-.0312 .0369-.0179-.0064,.0161 .0312,0 .0376-.0161-.007-.017 .0312-.0312 .0765-.0285-.0473,.0215 .0312,0 .0786-.0215 .0137-.0166 .0938-.0312zm-13.8438,23c-1.108,0-2,.892-2,2v4c0,1.108 .892,2 2,2h28c1.108,0 2-.892 2-2v-4c0-1.108-.892-2-2-2h-28zm0,1 28,0c.5691,0 1,.4309 1,1v4c0,.5691-.4309,1-1,1h-28c-.5691,0-1-.4309-1-1v-4c0-.5691 .4309-1 1-1z"
       id="path156" />
    <path
       opacity=".2"
       d="m47.8125,32a1.4014,.9973 0 0,0 -1.0312,.5l-14.5938,18a1.4014,.9973 0 0,0 -.1875,.4688 1.4014,.9973 0 0,0 1.4062,1.0312h29.1875a1.4014,.9973 0 0,0 1.2188-1.5l-14.5938-18a1.4014,.9973 0 0,0 -1.4062-.5zm.1875,1.875l13.1875,16.2812h-26.375l13.1875-16.2812zm-14,22.125c-1.108,0-2,.892-2,2v4c0,1.108 .892,2 2,2h28c1.108,0 2-.892 2-2v-4c0-1.108-.892-2-2-2h-28zm0,1.8438 28,0c.126,0 .1562,.0302 .1562,.1562v4c0,.126-.0302,.1562-.1562,.1562h-28c-.126,0-.1562-.0302-.1562-.1562v-4c0-.126 .0302-.1562 .1562-.1562z"
       id="path158" />
  </g>
</svg>
