<?xml version="1.0" encoding="UTF-8" standalone="no"?>
<svg
   xmlns:dc="http://purl.org/dc/elements/1.1/"
   xmlns:cc="http://creativecommons.org/ns#"
   xmlns:rdf="http://www.w3.org/1999/02/22-rdf-syntax-ns#"
   xmlns:svg="http://www.w3.org/2000/svg"
   xmlns="http://www.w3.org/2000/svg"
   xmlns:xlink="http://www.w3.org/1999/xlink"
   xmlns:sodipodi="http://sodipodi.sourceforge.net/DTD/sodipodi-0.dtd"
   xmlns:inkscape="http://www.inkscape.org/namespaces/inkscape"
   viewBox="0 0 96 96"
   id="svg2"
   version="1.1"
   inkscape:version="0.91 r"
   sodipodi:docname="emerillon.svg">
  <title
     id="title133">emerillon</title>
  <metadata
     id="metadata129">
    <rdf:RDF>
      <cc:Work
         rdf:about="">
        <dc:format>image/svg+xml</dc:format>
        <dc:type
           rdf:resource="http://purl.org/dc/dcmitype/StillImage" />
        <dc:title>emerillon</dc:title>
        <dc:subject>
          <rdf:Bag>
            <rdf:li>emerillon</rdf:li>
          </rdf:Bag>
        </dc:subject>
        <dc:description>emerillon</dc:description>
      </cc:Work>
    </rdf:RDF>
  </metadata>
  <sodipodi:namedview
     pagecolor="#ffffff"
     bordercolor="#666666"
     borderopacity="1"
     objecttolerance="10"
     gridtolerance="10"
     guidetolerance="10"
     inkscape:pageopacity="0"
     inkscape:pageshadow="2"
     inkscape:window-width="1280"
     inkscape:window-height="965"
     id="namedview127"
     showgrid="false"
     inkscape:zoom="3.47661"
     inkscape:cx="29.5647"
     inkscape:cy="101.826"
     inkscape:window-x="0"
     inkscape:window-y="27"
     inkscape:window-maximized="1"
     inkscape:current-layer="svg2" />
  <defs
     id="defs4">
    <clipPath
       id="clipPath4717"
       clipPathUnits="userSpaceOnUse">
      <path
         fill="url(#radialGradient4559)"
         d="m12-90h72a6,6 0 0,1 6,6v72a6,6 0 0,1 -6,6h-72a6,6 0 0,1 -6-6v-72a6,6 0 0,1 6-6"
         transform="scale(1 -1)"
         id="path23" />
    </clipPath>
    <linearGradient
       gradientTransform="matrix(1.02381 0 0 1.0119 -1.14286 -98.07143)"
       id="linearGradient3725"
       xlink:href="#ButtonShadow"
       y1="6.132"
       y2="90.239"
       x2="0"
       gradientUnits="userSpaceOnUse" />
    <linearGradient
       id="linearGradient4853-8"
       y1="34.546"
       y2="11.895"
       gradientUnits="userSpaceOnUse"
       x2="0">
      <stop
         offset=".014"
         stop-opacity="0"
         id="stop28" />
      <stop
         offset=".65"
         stop-color="#c4e0e3"
         stop-opacity=".2"
         id="stop30" />
      <stop
         offset=".822"
         stop-color="#c4e0e3"
         id="stop32" />
      <stop
         offset=".85"
         stop-color="#cde5e8"
         id="stop34" />
      <stop
         offset=".944"
         stop-color="#e8f4f7"
         id="stop36" />
      <stop
         offset="1"
         stop-color="#f2fafc"
         id="stop38" />
    </linearGradient>
    <linearGradient
       gradientTransform="translate(0 -97)"
       id="linearGradient3721"
       xlink:href="#ButtonShadow"
       y1="6.132"
       y2="90.239"
       x2="0"
       gradientUnits="userSpaceOnUse" />
    <linearGradient
       id="linearGradient3737">
      <stop
         offset="0"
         stop-color="#fff"
         id="stop42" />
      <stop
         offset="1"
         stop-color="#fff"
         stop-opacity="0"
         id="stop44" />
    </linearGradient>
    <linearGradient
       id="linearGradient3188"
       xlink:href="#linearGradient3737"
       y1="6"
       y2="63.893"
       x2="0"
       gradientUnits="userSpaceOnUse" />
    <linearGradient
       gradientTransform="matrix(1.00587 0 0 .99417 100 0)"
       id="ButtonShadow"
       y1="92.54"
       y2="7.017"
       x2="0"
       gradientUnits="userSpaceOnUse">
      <stop
         offset="0"
         id="stop48" />
      <stop
         offset="1"
         stop-opacity=".588"
         id="stop50" />
    </linearGradient>
    <linearGradient
       gradientTransform="translate(-0 .00001)"
       id="linearGradient3647"
       xlink:href="#linearGradient4853-8"
       y1="-84.432"
       y2="-1.591"
       x2="0"
       gradientUnits="userSpaceOnUse" />
    <radialGradient
       cx="46.428"
       cy="-.572"
       gradientTransform="matrix(1.245 0 0 .99172 -11.3749 8.86381)"
       xlink:href="#radialGradient4771"
       id="radialGradient4711"
       r="61.092"
       gradientUnits="userSpaceOnUse" />
    <radialGradient
       cx="48.555"
       cy="-7.214"
       gradientTransform="matrix(2.39643 0 0 2.25179 -67.80354 9.03027)"
       xlink:href="#radialGradient4537"
       id="radialGradient4559"
       r="42"
       gradientUnits="userSpaceOnUse" />
    <radialGradient
       cx="64.554"
       cy="14.176"
       r="52.229"
       id="radialGradient4771"
       gradientUnits="userSpaceOnUse">
      <stop
         offset="0"
         stop-color="#0f80bc"
         id="stop61" />
      <stop
         offset=".338"
         stop-color="#0a5f9e"
         id="stop63" />
      <stop
         offset="1"
         stop-color="#00145a"
         id="stop65" />
    </radialGradient>
    <radialGradient
       cx="48"
       cy="90.172"
       gradientTransform="matrix(1.15731,0,0,0.99591,-7.55102,0.19713)"
       r="42"
       id="radialGradient3619"
       xlink:href="#linearGradient3737"
       gradientUnits="userSpaceOnUse" />
    <radialGradient
       cx="64.569"
       cy="7.227"
       r="104.221"
       id="radialGradient4537"
       gradientUnits="userSpaceOnUse">
      <stop
         offset="0"
         stop-color="#67c5d5"
         id="stop69" />
      <stop
         offset=".16"
         stop-color="#66c2d3"
         id="stop71" />
      <stop
         offset=".28"
         stop-color="#62b9ce"
         id="stop73" />
      <stop
         offset=".385"
         stop-color="#5ca8c6"
         id="stop75" />
      <stop
         offset=".483"
         stop-color="#5392ba"
         id="stop77" />
      <stop
         offset=".576"
         stop-color="#4874aa"
         id="stop79" />
      <stop
         offset=".665"
         stop-color="#3a5097"
         id="stop81" />
      <stop
         offset=".749"
         stop-color="#2a2781"
         id="stop83" />
      <stop
         offset=".815"
         stop-color="#1b006d"
         id="stop85" />
      <stop
         offset="1"
         stop-color="#596aad"
         id="stop87" />
    </radialGradient>
  </defs>
  <path
     opacity=".08"
     fill="url(#linearGradient3725)"
     d="m12-95.0312c-5.5111,0-10.0312,4.5202-10.0312,10.0312v71c0,5.5111 4.5202,10.0312 10.0312,10.0312h72c5.5111,0 10.0312-4.5202 10.0312-10.0312v-71c0-5.5111-4.5202-10.0312-10.0312-10.0312h-72z"
     transform="scale(1 -1)"
     id="path89" />
  <path
     opacity=".1"
     fill="url(#linearGradient3725)"
     d="m12-94.0312c-4.9716,0-9.0312,4.0596-9.0312,9.0312v71c0,4.9716 4.0596,9.0312 9.0312,9.0312h72c4.9716,0 9.0312-4.0596 9.0312-9.0312v-71c0-4.9716-4.0596-9.0312-9.0312-9.0312h-72z"
     transform="scale(1 -1)"
     id="path91" />
  <path
     opacity=".2"
     fill="url(#linearGradient3725)"
     d="m12-93c-4.4091,0-8,3.5909-8,8v71c0,4.4091 3.5909,8 8,8h72c4.4091,0 8-3.5909 8-8v-71c0-4.4091-3.5909-8-8-8h-72z"
     transform="scale(1 -1)"
     id="path93" />
  <path
     opacity=".3"
     fill="url(#linearGradient3725)"
     d="m12-92h72a7,7 0 0,1 7,7v71a7,7 0 0,1 -7,7h-72a7,7 0 0,1 -7-7v-71a7,7 0 0,1 7-7"
     transform="scale(1 -1)"
     id="path95" />
  <path
     opacity=".45"
     fill="url(#linearGradient3721)"
     d="m12-91h72a6,6 0 0,1 6,6v72a6,6 0 0,1 -6,6h-72a6,6 0 0,1 -6-6v-72a6,6 0 0,1 6-6"
     transform="scale(1 -1)"
     id="path97" />
  <path
     fill="url(#radialGradient4559)"
     d="m12-90h72a6,6 0 0,1 6,6v72a6,6 0 0,1 -6,6h-72a6,6 0 0,1 -6-6v-72a6,6 0 0,1 6-6"
     transform="scale(1 -1)"
     id="path99" />
  <g
     fill="url(#radialGradient4711)"
     clip-path="url(#clipPath4717)"
     id="g101">
    <path
       d="m45.4205,30.6072c-.3732,.9727 1.2177,2.5532 2.0167,2.0446 .8011-.5117 1.9485-1.5319 1.9485-1.5319 0,0 1.2166,.9768 .7246,1.6735-.4951,.6946-2.4663,1.4761 .3866,1.1598 2.9263-.3235 3.4597-.9272 3.4452-1.4854-.0155-.5561 .1457-2.5521 .6522-2.6906 .0155-1.0233-1.9898-.9282-1.2952-1.9526 .6946-1.0192-.9355-2.6937-.9355-2.6937 0,0-1.2693,.7432-1.4285,1.9516-.1602,1.2063-1.3479,.5561-1.9102,.8331 .1457,.6037-.0269,1.2528-.0269,1.2528l-.7349-.6502c.001-.001-2.6576,1.2073-2.8426,2.089z"
       id="path103" />
    <g
       id="g105">
      <path
         d="m70.6946,79.6536c-.0818-.3589-.9732-1.4002-1.6557-1.633-.6802-.2328-1.3491,1.0039-1.7875-1.0493-1.4377,.8245-2.0577-.2271-2.0577-.2271 0,0-1.5501,.0909-1.8499,1.9885-.7382,.8733-2.6301,4.0496-1.6251,.7461 1.0118-3.324-1.0675-.2612-1.2605,1.4082-.3611,.7416-.971,.8165-.5871-2.5188-1.3321-.4599-2.0123-3.5511-1.2821-3.6101-.8483-1.1822-.1817-2.9901 .5247-2.8936 .7064,.0909 1.9192-1.5444 1.8817-1.9237-.0375-.3782 .5474-.1079 .511-2.6528-.0375-2.5517 .9619-3.1831 1.0436-1.0493 .0863,2.1259 1.3559-.6961 1.2253-1.7784-.1317-1.0777 .1272-3.5136 .9005-2.0736-.9005-3.5624-.1896-3.7033 .3509-1.3321 1.3548,.1068 1.4014,.829 1.4014,.829 1.5002-.3691 2.219,.7609 2.3348,1.3945 1.39-1.641 2.7936,.1283 2.7936,.1283 0,0 .9687-.3214 .5054,1.3627-.4656,1.6784 2.0123,.77 1.4207-.4361 1.2185-.6166 3.0276,1.2515 3.5976,2.5256 .5701,1.2798-.9766,3.0923 .2294,3.5306 1.2128,.4361 .6814,2.5461 .6814,2.5461 0,0 2.5347,1.4059 .7756,2.6131l-.5996,1.4366c0,0 1.147,1.2798 1.5376,.5178 .3907-.7631 .5292,.7756 .5292,.7756-.1465-.2726 .2816,1.5853 1.8624,1.976 1.5876,.3872 2.5926,2.8958 .8301,2.9276-1.7557,.0284-1.8919-.0193-2.3678,1.0062-.4736,1.0209-2.7153,1.0573-3.8759-.2646-1.2344,.4179-3.4307-.1204-2.7845-1.1084-1.0652,.6212-2.0714-1.047-1.239-1.7909 .8324-.7416-.4679-1.7023-.9051-.6394-.4327,1.0618-2.73,1.5853-2.5699-.2214 .0477-.536 1.2719-.8494 1.2878-.402 .2237,.5167 .3146-.0409 .2226-.1079z"
         id="path107" />
      <path
         d="m72.0657,55.1442c.4394,.4352 1.3041,.3385 1.7833,.2048 .4821-.1379 .4138-.4792 .8291-.6129 .4081-.1379 1.9867,.6129 1.5742,2.2526-.9571,.1337-1.3041,1.2969-1.3041,1.2969 0,0-.9571,.4081-1.4406,.2048-.4807-.2048-.4807-.1379-1.1675-.0711-.6869,.0711-2.3365-.8845-.5503-.8845 1.7876,0-.2034-.8205-.9599-.8205-.7537,0-.1379-.7509 .7565-.5461-.62-1.0239-.2773-1.779 .4792-1.0239z"
         id="path109" />
      <path
         d="m78.0392,60.8149c-.4792,.475 .0697,1.9113 .6869,1.8402 .6158-.0668 1.5785-.3385 1.5785-.3385 0,0 .4792,.9556 0,1.2315-.4792,.2702-1.8757,.1507-.0668,.8177 1.8544,.6812 2.3322,.475 2.4702,.1337 .1379-.3385 .7537-1.4989 1.0993-1.4306 .2745-.6129-.9613-1.159-.273-1.5714 .6812-.4096 .1365-1.9099 .1365-1.9099 0,0-.9628,.0668-1.3737,.7509-.4124,.6826-.9585-.0668-1.3709-.0668-.0697,.4081-.3456,.7494-.3456,.7494l-.2745-.6172c-.0014-.0014-1.9255-.0668-2.2668,.411z"
         id="path111" />
      <path
         d="m34.8116,53.5818c-.0359-.1052 .3285-.5304 .231,.0205-.2241,.3918 .9051,.7443 1.2216,.308 1.0616-1.4543-1.0009-2.1575-1.8957-1.4817-.9034,.6818-1.4012-.7802-.3636-.9881 1.0343-.2096 1.1215-2.0788-.018-2.0856 1.006-.4962-.3875-1.983-1.539-2.237-.1856-1.5997-1.8726-2.6169-2.7597-2.036-.8957,.5826-.9727,.4799-2.2849-.3165-1.3071-.793-1.9368,1.6493-.9752,2.7161 .9675,1.0745 .266,2.8068 .3063,2.5108 0,0-.3644,.6553-.3405,.9008-1.107,.3755-1.4303-1.1831-2.1173-1.5279-.5004,.6527-1.3089,1.0009-1.3089,1.0009l.0607-1.3285c0,0-3.4364-1.8718-4.492-1.3474-1.3012,.4021-1.6091,3.4142-.4277,3.8547 1.1831,.4457-1.4842,1.5552 1.1917,4.3766 2.7486,2.8966 3.8111,2.9796 4.3723,2.5082 .1386-.1189 .3781-.2968 .6707-.4945 .0265,.1112 .071,.2181 .1395,.3191 .6878,1.0343-1.5989,1.8495-1.9179,3.3312-.3242,1.4979-.0257,4.2833 1.3311,4.3783 .2584-1.4842 2.7974-.9598 1.4158,.385-1.4064,1.3713-.42,1.6134-.42,1.6134 0,0 .0667,2.569 2.2174,1.7477-.0624,.1471-.1129,.3353-.1429,.5407-.6014-.1215-2.0711-.3054-2.4304,.7194-.4534,1.2935-2.3731-.438-3.7161,.1429-1.3371,.5766-3.2884,2.4697-2.6314,3.8008 1.2627-.5988 2.2293,2.101 .4654,1.5467-1.77-.5561-1.4261,.4987-1.4261,.4987 0,0-1.8427,1.4534-.1172,3.001-.663,.1009-1.841,.8392-1.444,2.4586 0,0-.7571,.0274-.8589,1.4765-2.4697,.4979-2.3192,1.2644 1.397,.4243-1.4996,.7785 1.0488,1.1446 2.178,1.0411 1.1309-.1027 4.0994,1.361 1.8692,1.3756-2.2345,.0138-1.5689,1.107 1.107,1.1592 2.6716,.0548 2.391,.6741 2.788,.6467 .3969-.0274 2.125,1.3354 2.0309,2.0908-.0967,.7562 1.8102,1.5407 3.0506,.6741 .0633,.7862 3.3243,.1728 3.8068-1.2447 3.5314,.5398 3.4501-.1189 2.6639-.5381-1.7682-.2703-5.013-2.6203-1.4936-1.4115 3.5014,1.2071 .1283-.9496-.7947-1.7785-2.0103-.3909-2.113-2.0668-2.113-2.0668 0,0 1.1104-.6322 .2344-2.2122 2.172-.4029 .8606-1.1669 1.1044-1.8949 .2438-.7306 1.3465-1.6613 1.7246-1.7366 .0719-.0984 .663,.0197 .1146,.2421-.4739,.0053-.1377,1.3397 .4294,1.4081 1.9179,.2335 1.3568-2.2704 .2301-2.7743-1.1292-.5081-.1155-1.8854 .6775-.9581 .793,.9256 2.5604-.1138 1.8974-1.2866 1.0539,.7306 1.622-1.6331 1.1737-2.9898 1.4098-1.2225 1.3645-3.6597 .2737-4.2046-.5364-.2678-.7956-.4414-.9256-.7742 .6476-.3063 1.5065-.5321 1.8435-.2301 .5484,.4953 2.0745-.8709 1.9778-2.468 .6425,.3525 1.6656-2.9043 .7964-4.0438 1.9898-2.782 1.4534-3.0343 .7879-2.5681-1.0009,1.3876-4.2884,3.048-1.74,.5886 2.474-2.3876-.6579-.5774-1.7058-.1899-1.2327,1.5441-2.5407,.8024-2.5407,.8024 0,0 .0556-1.2652-1.5364-1.2909 .7357-2.03-.45-1.2969-.8649-1.8512-.4158-.5535-.5655-1.9068-.438-2.2533z"
         id="path113" />
      <path
         d="m52.8687,66.3514c.5886,.5833-.0873,2.3456-.8436,2.2635-.758-.0856-1.9387-.4192-1.9387-.4192 0,0-.5886,1.1737 0,1.5108 .5921,.3318 2.3037,.1886 .0856,1.0043-2.2757,.8383-2.8678,.5868-3.0372,.1677-.1659-.4192-.9239-1.8443-1.3466-1.7623-.3406-.7528 1.1807-1.4217 .3371-1.9247-.8436-.5082-.1729-2.3508-.1729-2.3508 0,0 1.1807,.0838 1.6872,.9239 .5065,.8366 1.1807-.0856 1.6872-.0856 .0856,.503 .4192,.9222 .4192,.9222l.3371-.7528c.0017,0 2.3648-.0838 2.7857,.503z"
         id="path115" />
      <path
         d="m 65.061,1.002 c -0.912,0.203 0.613,3.503 0.613,3.503 0,0 -0.055,2.216 0.321,2.329 0.374,0.113 2.852,0.733 4.147,2.345 1.301,1.614 0.625,2.463 -0.458,1.997 -1.084,-0.465 -0.797,0.959 -0.797,0.959 0,0 3.27,1.063 0.8,0.995 -2.475,-0.066 1.666,1.741 1.393,1.93 -0.273,0.191 -0.429,1.231 -0.429,1.231 0,0 -2.183,0.182 -0.333,0.959 6.26,2.637 -0.669,1.925 -0.669,1.925 l -0.884,1.087 1.749,2.194 1.345,0.962 c 0,0 2.833,-0.945 3.716,-1.093 0.884,-0.146 3.114,-1.815 3.114,-1.815 0,0 0.669,0.478 0.169,-0.497 -0.501,-0.976 1.841,-0.54 2.425,0.186 l 4.134,1.867 c 0.054,0.144 0.146,0.274 0.292,0.375 0.806,0.565 -0.729,1.535 -0.573,2.562 0.156,1.016 1.093,2.704 2.121,2.526 -0.18,-0.969 1.851,-1.086 1.144,-0.01 -0.706,1.077 0.077,1.056 0.077,1.056 0,0 0.653,1.521 2.034,0.676 -0.056,0.464 0.227,1.397 1.413,1.459 0,0 -0.126,0.506 0.848,0.865 -0.132,1.737 0.424,1.792 0.561,-0.846 0.245,1.157 0.992,-0.471 1.141,-1.25 0.15,-0.784 1.756,-2.505 1.322,-0.984 -0.431,1.508 4.735,2.06 5.308,0.259 0.578,-1.815 2.637,-2.763 2.699,-3.038 0.06,-0.281 -4.583,-0.712 -4.07,-0.493 0.514,0.219 1.47,-0.948 1.115,-1.986 0.576,0.116 0.83,-2.301 -0.08,-2.927 1.143,-2.405 0.651,-2.48 0.182,-2.001 -0.57,1.205 -2.922,3.023 -1.327,0.783 1.609,-2.263 -0.653,-0.284 -1.438,0.208 -0.689,1.341 -1.899,1.08 -1.899,1.08 0,0 -0.222,-0.911 -1.516,-0.607 -1.3048,-2.004 0.7596,-1.1331 0.508,-2.049 -0.167,-0.542 2.112,0.643 2.192,0.396 l 2.848,-0.396 2.769,-1.75 C 85.388,0.164 65.061,1.002 65.061,1.002 Z"
         clip-path="url(#XMLID_68_)"
         transform="matrix(1.42208,0,0,1.42208,-43.6297,-5.14999)"
         id="path117"
         inkscape:connector-curvature="0"
         sodipodi:nodetypes="ccccccccccccccccccccccccccccccccccccccccccccc" />
      <path
         d="m 38.752,6.095 c -10.573,4.747 -18.551,14.531 -18.551,14.531 0,0 0.938,2.145 1.265,1.987 0.33,-0.156 -2.361,5.628 -0.386,5.954 1.985,0.325 7.696,-3.578 6.637,-3.22 -1.056,0.356 0.595,-2.112 0.595,-2.112 0,0 2.972,-1.318 1.214,0.202 -1.743,1.511 2.318,0.187 2.255,0.496 -0.064,0.311 0.525,1.147 0.525,1.147 0,0 -1.393,1.494 0.406,0.892 6.172,-2.075 0.812,1.779 0.812,1.779 l 0.106,1.312 2.67,0.464 1.578,-0.15 c 0,0 1.381,-2.436 1.914,-3.098 0.535,-0.663 1.028,-3.284 1.028,-3.284 0,0 0.803,-0.084 -0.213,-0.468 -1.016,-0.385 0.972,-1.583 1.886,-1.434 l 4.303,-1.336 c 0.138,0.068 0.292,0.103 0.47,0.082 0.985,-0.114 0.489,1.603 1.294,2.25 0.796,0.644 2.627,1.264 3.283,0.469 -0.784,-0.594 0.674,-2.011 0.86,-0.751 0.187,1.249 0.767,0.723 0.767,0.723 0,0 1.543,-2.654 2.036,-4.177 0.27,0.377 2.788,-3.309 2.025,-5.067 -0.771,-1.78 0.479,-3.456 0.34,-3.715 -0.6723,0.3913 -2.0481,0.0989 -2.214,-1.721 1.2417,-2.42026 0.3257,0.73298 3.305,-4.924 l 5.044,-2.057 c 0,0.004 -11.481,-0.957 -25.254,5.226 z"
         clip-path="url(#XMLID_68_)"
         transform="matrix(1.55421,0,0,1.55421,-49.5918,-7.38356)"
         id="path119"
         inkscape:connector-curvature="0"
         sodipodi:nodetypes="ccccccccccccccccccccccccccccccc" />
    </g>
  </g>
  <path
     style="opacity:0.2;fill:url(#radialGradient3619)"
     d="M 12,90 C 8.11425,90.1368 5.41842,86.2084 6,82.5774 6.01817,58.8883 5.96368,35.1972 6.02721,11.5094 5.28209,9.16789 10.5384,5.69592 9.3125,6.7811 6.06848,8.80663 7.20936,12.9059 7,16.082 c 0.0171,22.4772 -0.0342,44.9561 0.0256,67.4323 0.21153,3.3004 3.67101,4.9485 6.63411,4.4854 23.6181,-0.017 47.2379,0.034 70.8549,-0.026 3.3004,-0.2115 4.9485,-3.671 4.4854,-6.6341 -0.023,-23.6263 0.047,-47.2557 -0.035,-70.8801 0.6395,-2.17591 -4.9497,-5.34874 -1.452,-3.28154 3.5336,2.48139 2.2373,6.98174 2.4873,10.61514 -0.021,22.2736 0.041,44.5493 -0.031,66.8216 -0.253,3.7753 -4.1583,5.9088 -7.6288,5.3848 C 58.8936,90 35.4467,89.9998 12,90 Z"
     id="path121"
     inkscape:connector-curvature="0" />
  <path
     style="opacity:0.4;fill:url(#linearGradient3188)"
     d="M 12,6 C 8.11425,5.86322 5.41842,9.7916 6,13.4226 6.01817,37.1117 5.96368,60.8028 6.02721,84.4906 5.28209,86.8321 10.5384,90.3041 9.3125,89.2189 6.06848,87.1934 7.20936,83.0941 7,79.918 7.01709,57.4408 6.96584,34.9619 7.02559,12.4857 7.23712,9.18528 10.6966,7.53718 13.6597,8.0003 37.2778,8.01738 60.8976,7.96615 84.5146,8.02589 87.815,8.23742 89.4631,11.6969 89,14.66 c -0.023,23.6263 0.047,47.2557 -0.035,70.8801 0.6395,2.1759 -4.9497,5.3487 -1.452,3.2815 3.5336,-2.4814 2.2373,-6.9817 2.4873,-10.6151 -0.021,-22.2736 0.041,-44.5493 -0.031,-66.8216 C 89.7162,7.60958 85.8109,5.47608 82.3404,6.0001 58.8936,6.00003 35.4467,6.00023 12,6 Z"
     id="path123"
     inkscape:connector-curvature="0" />
  <path
     opacity=".55"
     fill="url(#linearGradient3647)"
     d="m12-90h72a6,6 0 0,1 6,6v72a6,6 0 0,1 -6,6h-72a6,6 0 0,1 -6-6v-72a6,6 0 0,1 6-6"
     transform="scale(1 -1)"
     id="path125" />
</svg>
