<svg xmlns="http://www.w3.org/2000/svg" viewBox="0 0 96 96" xmlns:xlink="http://www.w3.org/1999/xlink">
<defs>
<clipPath id="clipPath3613">
<path fill="#fff" d="m12,6h72a6,6 0 0,1 6,6v72a6,6 0 0,1 -6,6h-72a6,6 0 0,1 -6-6v-72a6,6 0 0,1 6-6"/>
</clipPath>
<filter width="1.388" x="-.194" y="-.194" height="1.388" color-interpolation-filters="sRGB" id="filter4055">
<feGaussianBlur stdDeviation="5.3379"/>
</filter>
<linearGradient gradientTransform="matrix(0 .96131 -.96131 0 86.77201 -6.21621)" id="linearGradient4205" xlink:href="#linearGradient4207" x1="27.271" x2="68.881" gradientUnits="userSpaceOnUse"/>
<linearGradient id="linearGradient3948" xlink:href="#linearGradient4141" y1="72.191" y2="5.988" x2="0" gradientUnits="userSpaceOnUse"/>
<linearGradient id="linearGradient3967" xlink:href="#linearGradient3737" y1="6" y2="64.215" x2="0" gradientUnits="userSpaceOnUse"/>
<linearGradient gradientTransform="translate(0 1)" id="linearGradient3989" xlink:href="#ButtonShadow" y1="90" y2="5.988" x2="0" gradientUnits="userSpaceOnUse"/>
<linearGradient gradientTransform="translate(-1 1)" id="linearGradient4001" xlink:href="#ButtonShadow" y1="90.868" y2="5.988" x2="0" gradientUnits="userSpaceOnUse"/>
<linearGradient id="linearGradient4192" xlink:href="#linearGradient4151" x1="27.271" x2="68.881" gradientUnits="userSpaceOnUse"/>
<linearGradient gradientTransform="translate(-110)" id="linearGradient3153" xlink:href="#linearGradient3737" y1="6" y2="63.893" x2="0" gradientUnits="userSpaceOnUse"/>
<linearGradient gradientTransform="translate(-110)" id="linearGradient3151" xlink:href="#linearGradient3700" y1="90" y2="5.988" x2="0" gradientUnits="userSpaceOnUse"/>
<linearGradient id="linearGradient4141" y1="21" y2=".999" x2="0" gradientUnits="userSpaceOnUse">
<stop offset="0" stop-color="#d3e0ef"/>
<stop offset=".695" stop-color="#fbfcfd"/>
<stop offset="1" stop-color="#ecf2f8"/>
</linearGradient>
<linearGradient id="linearGradient4207">
<stop offset="0" stop-color="#2759a1"/>
<stop offset=".412" stop-color="#477ecc"/>
<stop offset=".825" stop-color="#7ba2d4"/>
<stop offset="1" stop-color="#739fcf"/>
</linearGradient>
<linearGradient id="linearGradient4151">
<stop offset="0" stop-color="#2759a1"/>
<stop offset=".412" stop-color="#477ecc"/>
<stop offset=".764" stop-color="#7ba2d4"/>
<stop offset="1" stop-color="#739fcf"/>
</linearGradient>
<linearGradient gradientTransform="scale(1.00587 .99417)" id="ButtonShadow" y1="92.54" y2="7.017" x2="0" gradientUnits="userSpaceOnUse">
<stop offset="0"/>
<stop offset="1" stop-opacity=".588"/>
</linearGradient>
<linearGradient id="linearGradient3737">
<stop offset="0" stop-color="#fff"/>
<stop offset="1" stop-color="#fff" stop-opacity="0"/>
</linearGradient>
<linearGradient id="linearGradient3700">
<stop offset="0" stop-color="#2276c5"/>
<stop offset="1" stop-color="#68baf4"/>
</linearGradient>
<linearGradient id="linearGradient3613" xlink:href="#linearGradient3737" y1="20.221" y2="138.661" x2="0" gradientUnits="userSpaceOnUse"/>
<radialGradient cx="48" cy="90.172" gradientTransform="matrix(1.15731 0 0 .99591 -117.55102 .19713)" r="42" id="radialGradient3155" xlink:href="#linearGradient3737" gradientUnits="userSpaceOnUse"/>
<radialGradient cx="48" cy="72" gradientTransform="matrix(1.14286 0 0 .95238 -6.85714 3.42857)" r="42" id="radialGradient3982" xlink:href="#linearGradient3737" gradientUnits="userSpaceOnUse"/>
</defs>
<path opacity=".08" fill="url(#linearGradient4001)" d="m12,4.0312c-6.0702-.1617-10.6912,5.6895-9.9688,11.5 .0001,.0417-.0001,.0833 0,.125 .0304,18.0862-.0778,36.1534 .0312,54.25a.9323,.9323 0 0,0 0,.0625c.4298,5.8315 6.2169,9.6747 11.7188,9 .0418-.0051 .0832,.0056 .125,0h5.3125c-.6798,4.4285-1.5968,8.8952-2.0625,13.4062a.9323,.9323 0 0,0 .0312,.2812c.28,1.2942 1.3717,2.1088 2.4688,2.25 1.0239,.1318 2.0656-.2251 2.8438-1v.0312l22.8438-14.9688c13.1851-.029 26.3628,.0771 39.5625-.0312a.9323,.9323 0 0,0 .0625,0c5.8315-.4298 9.6747-6.2169 9-11.7188-.0051-.0418 .0056-.0832 0-.125-.0304-18.0018 .0778-35.9879-.0312-54a.9323,.9323 0 0,0 0-.0625c-.4298-5.8315-6.2169-9.6747-11.7188-9h-.125-70.0625-.0312z"/>
<path opacity=".1" fill="url(#linearGradient4001)" d="m12,4.9688c-5.5018-.1656-9.7593,5.2616-9.0312,10.5515 .0312,18.1328-.0624,36.2687 .0469,54.3995 .3891,5.2798 5.7302,8.7915 10.758,8.1115 2.1796,0 4.3593,0 6.5389,0-.6936,4.8112-1.7232,9.637-2.2188,14.4375 .3996,1.8469 2.7901,1.9764 3.9102,.6945 7.6966-5.044 15.3932-10.088 23.0898-15.132 13.2749-.0309 26.553,.062 39.826-.0469 5.2798-.3891 8.7915-5.7302 8.1115-10.758-.0312-18.0483 .0624-36.0998-.0469-54.1461-.3891-5.2798-5.7302-8.7915-10.758-8.1115-23.4088,0-46.8176,0-70.2264,0z"/>
<path opacity=".15" fill="url(#linearGradient4001)" d="m12,6c-4.4079,0-8,3.5921-8,8v55c0,4.4079 3.5921,8 8,8h9.5l-2.4062,14.9062a.9873,.9873 0 0,0 1.5,.9688l24.2188-15.875h39.1875c4.4079,0 8-3.5921 8-8v-55c0-4.4079-3.5921-8-8-8h-72z"/>
<path opacity=".3" fill="url(#linearGradient4001)" d="m12,7c-3.878,0-7,3.122-7,7v55c0,3.878 3.122,7 7,7h10.6562l-2.5938,16.0625 24.5-16.0625h39.4375c3.878,0 7-3.122 7-7v-55c0-3.878-3.122-7-7-7h-72z"/>
<path opacity=".45" fill="url(#linearGradient3989)" d="m12,7c-3.324,0-6,2.676-6,6v56c0,3.324 2.676,6 6,6h12l-3,16 23-16h40c3.324,0 6-2.676 6-6v-56c0-3.324-2.676-6-6-6h-72z"/>
<path fill="url(#linearGradient3948)" d="m12,6c-3.324,0-6,2.676-6,6v56c0,3.324 2.676,6 6,6h12l-3,16 23-16h40c3.324,0 6-2.676 6-6v-56c0-3.324-2.676-6-6-6h-72z"/>
<path fill="url(#linearGradient3151)" d="m-98,6h72a6,6 0 0,1 6,6v72a6,6 0 0,1 -6,6h-72a6,6 0 0,1 -6-6v-72a6,6 0 0,1 6-6"/>
<path opacity=".5" fill="url(#linearGradient3153)" d="m-98,6c-3.324,0-6,2.676-6,6v2 68 2c0,.3347 .0413,.6507 .0937,.9688 .0487,.2956 .097,.5969 .1875,.875 .01,.0304 .0209,.0636 .0312,.0938 .0989,.2878 .2349,.5475 .375,.8125 .1446,.2735 .3156,.5356 .5,.7812 .1844,.2456 .3738,.4735 .5938,.6875 .4399,.4281 .9429,.8145 1.5,1.0938 .2785,.1396 .5735,.2469 .875,.3438-.2562-.1002-.4867-.2363-.7188-.375-.007-.0044-.0239,.0045-.0312,0-.0319-.0193-.0623-.0425-.0937-.0625-.1204-.0767-.231-.1635-.3438-.25-.1062-.0808-.2133-.1611-.3125-.25-.1779-.1614-.3475-.3454-.5-.5312-.1076-.1303-.2184-.2653-.3125-.4062-.0251-.0384-.0384-.0859-.0625-.125-.0648-.103-.1302-.2045-.1875-.3125-.101-.1947-.2057-.4157-.2812-.625-.008-.0218-.0236-.0405-.0312-.0625-.0318-.0919-.0358-.1868-.0625-.2812-.0303-.1066-.0704-.203-.0937-.3125-.073-.3415-.1251-.6982-.1251-1.0625v-2-68-2c0-2.7818 2.2181-5 5-5h2 68 2c2.7818,0 5,2.2182 5,5v2 68 2c0,.3643-.0521,.721-.125,1.0625-.0441,.2069-.0884,.3977-.1562,.5938-.0077,.022-.0233,.0407-.0312,.0625-.0627,.1737-.1384,.3674-.2188,.5312-.0416,.0828-.079,.17-.125,.25-.0546,.0972-.1268,.1883-.1875,.2812-.0941,.141-.2049,.276-.3125,.4062-.1432,.1744-.3031,.347-.4688,.5-.0112,.0102-.02,.0212-.0312,.0312-.1384,.1256-.2851,.2344-.4375,.3438-.1026,.0731-.2043,.1534-.3125,.2188-.0074,.0045-.0238-.0044-.0312,0-.232,.1387-.4625,.2748-.7188,.375 .3015-.0968 .5965-.2041 .875-.3438 .5571-.2792 1.0601-.6657 1.5-1.0938 .22-.214 .4094-.4419 .5938-.6875 .1844-.2456 .3554-.5077 .5-.7812 .1401-.265 .2761-.5247 .375-.8125 .0104-.0308 .0213-.0627 .0312-.0938 .0905-.2781 .1388-.5794 .1875-.875 .0524-.318 .0938-.634 .0938-.9688v-2-68-2c0-3.324-2.676-6-6-6h-72z"/>
<path opacity=".2" fill="url(#radialGradient3155)" d="m-98,90c-3.324,0-6-2.676-6-6v-2-68-2c0-.3347 .0413-.6507 .0937-.9688 .0487-.2956 .097-.5969 .1875-.875 .01-.0304 .0209-.0636 .0312-.0938 .0989-.2878 .2349-.5475 .375-.8125 .1446-.2735 .3156-.5356 .5-.7812 .1844-.2456 .3738-.4735 .5938-.6875 .4399-.4281 .9429-.8145 1.5-1.0938 .2785-.1396 .5735-.2469 .875-.3438-.2562,.1002-.4867,.2363-.7188,.375-.007,.0044-.0239-.0045-.0312,0-.0319,.0193-.0623,.0425-.0937,.0625-.1204,.0767-.231,.1635-.3438,.25-.1062,.0808-.2133,.1611-.3125,.25-.1779,.1614-.3475,.3454-.5,.5312-.1076,.1303-.2184,.2653-.3125,.4062-.0251,.0384-.0384,.0859-.0625,.125-.0648,.103-.1302,.2045-.1875,.3125-.101,.1947-.2057,.4157-.2812,.625-.008,.0218-.0236,.0405-.0312,.0625-.0318,.092-.0358,.1868-.0625,.2812-.0303,.1066-.0704,.203-.0937,.3125-.073,.3415-.1251,.6982-.1251,1.0625v2 68 2c0,2.7818 2.2181,5 5,5h2 68 2c2.7818,0 5-2.2182 5-5v-2-68-2c0-.3643-.0521-.721-.125-1.0625-.0441-.2069-.0884-.3977-.1562-.5938-.0077-.022-.0233-.0407-.0312-.0625-.0627-.1737-.1384-.3674-.2188-.5312-.0416-.0828-.079-.17-.125-.25-.0546-.0972-.1268-.1883-.1875-.2812-.0941-.141-.2049-.276-.3125-.4062-.1432-.1745-.3031-.347-.4688-.5-.0112-.0102-.02-.0211-.0312-.0312-.1384-.1256-.2851-.2344-.4375-.3438-.1026-.0732-.2043-.1534-.3125-.2188-.0074-.0045-.0238,.0044-.0312,0-.232-.1387-.4625-.2748-.7188-.375 .3015,.0968 .5965,.2041 .875,.3438 .5571,.2792 1.0601,.6657 1.5,1.0938 .22,.214 .4094,.4419 .5938,.6875 .1844,.2456 .3554,.5077 .5,.7812 .1401,.265 .2761,.5247 .375,.8125 .0104,.0308 .0213,.0627 .0312,.0938 .0905,.2781 .1388,.5794 .1875,.875 .0524,.318 .0938,.634 .0938,.9688v2 68 2c0,3.324-2.676,6-6,6h-72z"/>
<path opacity=".4" fill="url(#radialGradient3982)" d="m12,6c-3.324,0-6,2.676-6,6v56c0,3.324 2.676,6 6,6h12l-3,16 23-16h40c3.324,0 6-2.676 6-6v-56c0-3.324-2.676-6-6-6h-72zm0,2 72,0c2.2515,0 4,1.7485 4,4v56c0,2.2515-1.7485,4-4,4h-40a1.9986,1.9986 0 0,0 -1.1562,.375l-18.9688,13.1875 2.0938-11.1875a1.9986,1.9986 0 0,0 -1.9688-2.375h-12c-2.2515,0-4-1.7485-4-4v-56c0-2.2515 1.7485-4 4-4z"/>
<path opacity=".7" fill="url(#linearGradient3967)" d="m12,6c-3.324,0-6,2.676-6,6v56c0,2.9085 2.0422,5.3174 4.7812,5.875-2.2021-.5377-3.8125-2.4972-3.8125-4.875v-56c0-2.7974 2.2339-5.0312 5.0312-5.0312h72c2.7974,0 5.0312,2.2339 5.0312,5.0312v56c0,2.3778-1.6104,4.3373-3.8125,4.875 2.739-.5576 4.7812-2.9665 4.7812-5.875v-56c0-3.324-2.676-6-6-6h-72zm12,68.0312-3,15.9688 22.9688-15.9688a.9813,.9813 0 0,0 -.5312,.1562l-21.0312,14.625 2.5625-13.625a.9813,.9813 0 0,0 -.9688-1.1562z"/>
<path opacity=".1" fill="url(#linearGradient3613)" filter="url(#filter4055)" stroke="#fff" stroke-linecap="round" stroke-width=".58" d="m27,15h42a12,12 0 0,1 12,12v42a12,12 0 0,1 -12,12h-42a12,12 0 0,1 -12-12v-42a12,12 0 0,1 12-12" clip-path="url(#clipPath3613)" transform="matrix(1 0 0 .74384 0 3.84233)"/>
<g color="#000">
<path fill="url(#linearGradient4205)" d="m48,20c-11.0457,0-20,8.9543-20,20 0,11.0457 8.9543,20 20,20 11.0457,0 20-8.9543 20-20 0-11.0457-8.9543-20-20-20zm-8,12 3,0 0,6-3,0 0-6zm13,0 3,0 0,6-3,0 0-6zm-17.7188,8.7188c3.2574,3.2574 7.7482,5.2812 12.7188,5.2812 4.9706,0 9.4614-2.0239 12.7188-5.2812-2.6476,4.9617-6.0675,8.2812-12.7188,8.2812-6.6512,0-10.0712-3.3195-12.7188-8.2812z"/>
<path opacity=".2" d="m48,20c-11.0457,0-20,8.9543-20,20 0,.1672-.0041,.3338 0,.5 .2654-10.8146 9.1215-19.5 20-19.5 10.8785,0 19.7346,8.6854 20,19.5 .0041-.1662 0-.3328 0-.5 0-11.0457-8.9543-20-20-20z"/>
<path fill="url(#linearGradient4192)" d="m68.8814,40.3326a20.805,20.805 0 1,1 -41.61,0 20.805,20.805 0 1,1 41.61,0z" transform="matrix(0 .96131 -.96131 0 86.77201 83.78379)"/>
<g fill="#fff">
<path d="m40,122h3v6h-3z"/>
<path d="m35.2812,130.7188c2.6476,4.9617 6.0675,8.2812 12.7188,8.2812 6.6512,0 10.0712-3.3195 12.7188-8.2812-3.2574,3.2574-7.7482,5.2812-12.7188,5.2812-4.9706,0-9.4614-2.0239-12.7188-5.2812z"/>
<path d="m53,122h3v6h-3z"/>
<path d="m40,32 0,1 3,0 0-1-3,0zm13,0 0,1 3,0 0-1-3,0zm-25,8.5c-.0041,.1662 0,.3328 0,.5 0,11.0457 8.9543,20 20,20 11.0457,0 20-8.9543 20-20 0-.1672 .0041-.3338 0-.5-.2654,10.8146-9.1215,19.5-20,19.5-10.8785,0-19.7346-8.6854-20-19.5zm7.2812,.2188c.4064,.7616 .8296,1.4781 1.2812,2.1562 .0033,.005 .0279-.005 .0312,0 3.1069,2.56 7.066,4.125 11.4062,4.125 4.3402,0 8.2994-1.565 11.4062-4.125 .0033-.005 .0279,.005 .0312,0 .4517-.6782 .8748-1.3946 1.2812-2.1562-3.2574,3.2574-7.7482,5.2812-12.7188,5.2812-4.9706,0-9.4614-2.0239-12.7188-5.2812z"/>
</g>
</g>
</svg>
