<?xml version="1.0" encoding="UTF-8" standalone="no"?>
<svg
   xmlns:dc="http://purl.org/dc/elements/1.1/"
   xmlns:cc="http://creativecommons.org/ns#"
   xmlns:rdf="http://www.w3.org/1999/02/22-rdf-syntax-ns#"
   xmlns:svg="http://www.w3.org/2000/svg"
   xmlns="http://www.w3.org/2000/svg"
   xmlns:xlink="http://www.w3.org/1999/xlink"
   xmlns:sodipodi="http://sodipodi.sourceforge.net/DTD/sodipodi-0.dtd"
   xmlns:inkscape="http://www.inkscape.org/namespaces/inkscape"
   viewBox="0 0 96 96"
   id="svg2"
   version="1.1"
   inkscape:version="0.91 r"
   sodipodi:docname="eog.svg">
  <title
     id="title195">eog</title>
  <metadata
     id="metadata191">
    <rdf:RDF>
      <cc:Work
         rdf:about="">
        <dc:format>image/svg+xml</dc:format>
        <dc:type
           rdf:resource="http://purl.org/dc/dcmitype/StillImage" />
        <dc:title>eog</dc:title>
        <dc:subject>
          <rdf:Bag>
            <rdf:li>eog</rdf:li>
            <rdf:li>graphic</rdf:li>
          </rdf:Bag>
        </dc:subject>
        <dc:description>eog, graphic</dc:description>
      </cc:Work>
    </rdf:RDF>
  </metadata>
  <sodipodi:namedview
     pagecolor="#ffffff"
     bordercolor="#666666"
     borderopacity="1"
     objecttolerance="10"
     gridtolerance="10"
     guidetolerance="10"
     inkscape:pageopacity="0"
     inkscape:pageshadow="2"
     inkscape:window-width="1280"
     inkscape:window-height="965"
     id="namedview189"
     showgrid="false"
     inkscape:zoom="3.47661"
     inkscape:cx="33.0291"
     inkscape:cy="48.794"
     inkscape:window-x="0"
     inkscape:window-y="27"
     inkscape:window-maximized="1"
     inkscape:current-layer="svg2" />
  <defs
     id="defs4">
    <clipPath
       id="clipPath3786">
      <path
         fill="#f0f"
         d="m12,6h72a6,6 0 0,1 6,6v72a6,6 0 0,1 -6,6h-72a6,6 0 0,1 -6-6v-72a6,6 0 0,1 6-6"
         id="path7" />
    </clipPath>
    <clipPath
       id="clipPath6135">
      <path
         fill="#f00"
         d="m46.25,77.2812c-3.1147,1.8786-5.2188,5.2849-5.2188,9.1875 0,5.9276 4.8224,10.75 10.75,10.75 5.9276,0 10.7188-4.8224 10.7188-10.75 0-1.2418-.2058-2.4218-.5938-3.5312-4.8787-2.4345-10.3499-4.3426-15.6562-5.6562z"
         id="path10" />
    </clipPath>
    <clipPath
       id="clipPath3613">
      <path
         fill="#fff"
         d="m12,6h72a6,6 0 0,1 6,6v72a6,6 0 0,1 -6,6h-72a6,6 0 0,1 -6-6v-72a6,6 0 0,1 6-6"
         id="path13" />
    </clipPath>
    <clipPath
       id="clipPath3705">
      <path
         fill="#f0f"
         d="m12,106h72a6,6 0 0,1 6,6v72a6,6 0 0,1 -6,6h-72a6,6 0 0,1 -6-6v-72a6,6 0 0,1 6-6"
         id="path16" />
    </clipPath>
    <filter
       width="1.499"
       x="-.25"
       y="-.645"
       height="2.291"
       color-interpolation-filters="sRGB"
       id="filter3713">
      <feGaussianBlur
         stdDeviation="7.07612"
         id="feGaussianBlur19" />
    </filter>
    <filter
       color-interpolation-filters="sRGB"
       id="filter3756">
      <feGaussianBlur
         stdDeviation=".63549"
         id="feGaussianBlur22" />
    </filter>
    <filter
       width="1.474"
       x="-.237"
       y="-.145"
       height="1.29"
       color-interpolation-filters="sRGB"
       id="filter3799">
      <feGaussianBlur
         stdDeviation="5.59152"
         id="feGaussianBlur25" />
    </filter>
    <filter
       width="1.384"
       x="-.192"
       y="-.192"
       height="1.384"
       color-interpolation-filters="sRGB"
       id="filter3794">
      <feGaussianBlur
         stdDeviation="5.28"
         id="feGaussianBlur28" />
    </filter>
    <linearGradient
       id="linearGradient3773"
       xlink:href="#linearGradient3767"
       y1="36.894"
       x1="47.349"
       y2="27.073"
       x2="6.958"
       gradientUnits="userSpaceOnUse" />
    <linearGradient
       gradientTransform="matrix(1.02381 0 0 1.0119 -1.14286 -98.07143)"
       id="linearGradient3780"
       xlink:href="#ButtonShadow-0"
       y1="6.132"
       y2="90.239"
       x2="0"
       gradientUnits="userSpaceOnUse" />
    <linearGradient
       id="linearGradient3728"
       xlink:href="#linearGradient3722"
       y1="64.777"
       x1="70.598"
       y2="66.384"
       x2="73.643"
       gradientUnits="userSpaceOnUse" />
    <linearGradient
       gradientTransform="matrix(1.00587 0 0 .99417 100 0)"
       id="ButtonShadow-0"
       y1="92.54"
       y2="7.017"
       x2="0"
       gradientUnits="userSpaceOnUse">
      <stop
         offset="0"
         id="stop34" />
      <stop
         offset="1"
         stop-opacity=".588"
         id="stop36" />
    </linearGradient>
    <linearGradient
       id="linearGradient3738"
       xlink:href="#linearGradient3731"
       y1="62.96"
       x1="39.121"
       y2="69.617"
       x2="69.125"
       gradientUnits="userSpaceOnUse" />
    <linearGradient
       gradientTransform="translate(0 -97)"
       id="linearGradient3721"
       xlink:href="#ButtonShadow-0"
       y1="6.132"
       y2="90.239"
       x2="0"
       gradientUnits="userSpaceOnUse" />
    <linearGradient
       id="linearGradient3737">
      <stop
         offset="0"
         stop-color="#fff"
         id="stop41" />
      <stop
         offset="1"
         stop-color="#fff"
         stop-opacity="0"
         id="stop43" />
    </linearGradient>
    <linearGradient
       id="linearGradient2841">
      <stop
         offset="0"
         stop-color="#d89a6d"
         id="stop46" />
      <stop
         offset="1"
         stop-color="#fed4be"
         id="stop48" />
    </linearGradient>
    <linearGradient
       id="linearGradient3188"
       xlink:href="#linearGradient3737"
       y1="6"
       y2="63.893"
       x2="0"
       gradientUnits="userSpaceOnUse" />
    <linearGradient
       id="linearGradient3731">
      <stop
         offset="0"
         stop-color="#d35f5f"
         id="stop52" />
      <stop
         offset="1"
         stop-color="#d35f5f"
         stop-opacity="0"
         id="stop54" />
    </linearGradient>
    <linearGradient
       id="linearGradient3767">
      <stop
         offset="0"
         stop-color="#352822"
         id="stop57" />
      <stop
         offset="1"
         stop-color="#352822"
         stop-opacity="0"
         id="stop59" />
    </linearGradient>
    <linearGradient
       id="linearGradient3613"
       xlink:href="#linearGradient3737"
       y1="20.221"
       y2="138.661"
       x2="0"
       gradientUnits="userSpaceOnUse" />
    <linearGradient
       id="linearGradient3617"
       xlink:href="#linearGradient2841"
       y1="90"
       y2="5.988"
       x2="0"
       gradientUnits="userSpaceOnUse" />
    <linearGradient
       id="linearGradient3722">
      <stop
         offset="0"
         stop-color="#eaac96"
         id="stop64" />
      <stop
         offset="1"
         stop-color="#db6f49"
         id="stop66" />
    </linearGradient>
    <radialGradient
       cx="51.77"
       cy="56.478"
       r="10.733"
       id="radialGradient3746"
       gradientUnits="userSpaceOnUse">
      <stop
         offset="0"
         stop-color="#fff"
         id="stop69" />
      <stop
         offset="1"
         stop-color="#fff"
         stop-opacity="0"
         id="stop71" />
    </radialGradient>
    <radialGradient
       cx="47.12"
       cy="37.319"
       gradientTransform="matrix(1 .67852 -.26279 .3873 9.80724 -2.00261)"
       r="29.695"
       id="radialGradient3700"
       gradientUnits="userSpaceOnUse">
      <stop
         offset="0"
         stop-color="#5b4f4f"
         id="stop74" />
      <stop
         offset=".5"
         stop-color="#5b4f4f"
         stop-opacity=".613"
         id="stop76" />
      <stop
         offset="1"
         stop-color="#5b4f4f"
         stop-opacity="0"
         id="stop78" />
    </radialGradient>
    <radialGradient
       cx="51.766"
       cy="56.289"
       gradientTransform="matrix(.93346 0 0 .92868 3.44458 4.08333)"
       r="10.734"
       id="radialGradient3781"
       gradientUnits="userSpaceOnUse">
      <stop
         offset="0"
         stop-color="#b7dde5"
         id="stop81" />
      <stop
         offset=".89"
         stop-color="#357099"
         id="stop83" />
      <stop
         offset="1"
         stop-color="#2e4d6a"
         id="stop85" />
    </radialGradient>
    <radialGradient
       cx="51.77"
       cy="56.478"
       r="10.733"
       id="radialGradient6145"
       gradientUnits="userSpaceOnUse">
      <stop
         offset="0"
         id="stop88" />
      <stop
         offset=".86"
         stop-opacity=".903"
         id="stop90" />
      <stop
         offset="1"
         stop-opacity=".089"
         id="stop92" />
    </radialGradient>
    <radialGradient
       cx="47.035"
       cy="28.844"
       gradientTransform="matrix(1 .30246 -.12745 .42139 3.67627 14.04238)"
       r="30.11"
       id="radialGradient3713"
       gradientUnits="userSpaceOnUse">
      <stop
         offset="0"
         id="stop95" />
      <stop
         offset=".5"
         stop-opacity=".702"
         id="stop97" />
      <stop
         offset="1"
         stop-opacity="0"
         id="stop99" />
    </radialGradient>
    <radialGradient
       cx="48.675"
       cy="59.262"
       gradientTransform="matrix(1.20638 -.01331 .00561 .50865 -10.37815 29.42126)"
       r="26.823"
       id="radialGradient6165"
       xlink:href="#linearGradient3767"
       gradientUnits="userSpaceOnUse" />
    <radialGradient
       cx="48.337"
       cy="29.056"
       gradientTransform="matrix(1 0 0 .65212 -0 14.39456)"
       r="34.809"
       id="radialGradient6209"
       gradientUnits="userSpaceOnUse">
      <stop
         offset="0"
         stop-color="#fff"
         id="stop103" />
      <stop
         offset=".5"
         stop-color="#fff"
         stop-opacity=".71"
         id="stop105" />
      <stop
         offset="1"
         stop-color="#fff"
         stop-opacity="0"
         id="stop107" />
    </radialGradient>
    <radialGradient
       cx="48"
       cy="90.172"
       gradientTransform="matrix(1.15731,0,0,0.99591,-7.55102,0.19713)"
       r="42"
       id="radialGradient3619"
       xlink:href="#linearGradient3737"
       gradientUnits="userSpaceOnUse" />
    <radialGradient
       cx="50.771"
       cy="77.765"
       gradientTransform="matrix(1.79698 .4815 -.22361 .83453 -23.07458 -21.26754)"
       r="22.413"
       id="radialGradient6175"
       gradientUnits="userSpaceOnUse">
      <stop
         offset="0"
         stop-color="#fff"
         stop-opacity="0"
         id="stop111" />
      <stop
         offset=".5"
         stop-color="#fff"
         stop-opacity=".498"
         id="stop113" />
      <stop
         offset="1"
         id="stop115" />
    </radialGradient>
  </defs>
  <path
     opacity=".08"
     fill="url(#linearGradient3780)"
     d="m12-95.0312c-5.5111,0-10.0312,4.5202-10.0312,10.0312v71c0,5.5111 4.5202,10.0312 10.0312,10.0312h72c5.5111,0 10.0312-4.5202 10.0312-10.0312v-71c0-5.5111-4.5202-10.0312-10.0312-10.0312h-72z"
     transform="scale(1 -1)"
     id="path117" />
  <path
     opacity=".1"
     fill="url(#linearGradient3780)"
     d="m12-94.0312c-4.9716,0-9.0312,4.0596-9.0312,9.0312v71c0,4.9716 4.0596,9.0312 9.0312,9.0312h72c4.9716,0 9.0312-4.0596 9.0312-9.0312v-71c0-4.9716-4.0596-9.0312-9.0312-9.0312h-72z"
     transform="scale(1 -1)"
     id="path119" />
  <path
     opacity=".2"
     fill="url(#linearGradient3780)"
     d="m12-93c-4.4091,0-8,3.5909-8,8v71c0,4.4091 3.5909,8 8,8h72c4.4091,0 8-3.5909 8-8v-71c0-4.4091-3.5909-8-8-8h-72z"
     transform="scale(1 -1)"
     id="path121" />
  <path
     opacity=".3"
     fill="url(#linearGradient3780)"
     d="m12-92h72a7,7 0 0,1 7,7v71a7,7 0 0,1 -7,7h-72a7,7 0 0,1 -7-7v-71a7,7 0 0,1 7-7"
     transform="scale(1 -1)"
     id="path123" />
  <path
     opacity=".45"
     fill="url(#linearGradient3721)"
     d="m12-91h72a6,6 0 0,1 6,6v72a6,6 0 0,1 -6,6h-72a6,6 0 0,1 -6-6v-72a6,6 0 0,1 6-6"
     transform="scale(1 -1)"
     id="path125" />
  <path
     fill="url(#linearGradient3617)"
     d="m12,6h72a6,6 0 0,1 6,6v72a6,6 0 0,1 -6,6h-72a6,6 0 0,1 -6-6v-72a6,6 0 0,1 6-6"
     id="path127" />
  <path
     opacity=".1"
     fill="url(#linearGradient3613)"
     filter="url(#filter3794)"
     stroke="#fff"
     stroke-linecap="round"
     stroke-width=".5"
     d="m27,15h42a12,12 0 0,1 12,12v42a12,12 0 0,1 -12,12h-42a12,12 0 0,1 -12-12v-42a12,12 0 0,1 12-12"
     clip-path="url(#clipPath3613)"
     id="path129" />
  <path
     d="M 89.1574,4.22867 40.5357,4.21782 c 0,0 42.6786,24.46068 43.75,51.60358 -0.1786,10 -6.9643,37.7481 -6.9643,37.7481 l 11.9114,-0 z"
     clip-path="url(#clipPath3786)"
     id="path131"
     inkscape:connector-curvature="0"
     style="fill:#fedbc5;filter:url(#filter3799)"
     sodipodi:nodetypes="cccccc" />
  <path
     opacity=".4"
     fill="url(#radialGradient6209)"
     d="m76.6453,62.2862c-5.0508-12.2481-22.6056-23.2525-42.0476-25.3801-9.2638-1.0138-17.1726,4.1669-17.1726,4.1669-13.2143-15.5357-2.4251-19.5372-2.4251-19.5372 0,0 5.7143-2.8571 8.9286-2.8571 33.75,12.6786 56.4286,35.7143 56.4286,35.7143 0,0 1.1096,14.679-3.7118,7.8933z"
     id="path133" />
  <path
     opacity=".6"
     fill="url(#radialGradient6165)"
     d="m73.3929,67.0714c0,0-38.5714,12.6786-45-21.7857-8.9286-2.1429-7.3214,5.7143-7.3214,5.7143 0,0 7.6786,29.4643 52.6786,18.9286 0,0 2.1429-1.6071-.3571-2.8571z"
     id="path135" />
  <path
     fill="url(#linearGradient3773)"
     d="m14.0159,21.9004c-.4875-1.1417 6.2073-3.9582 9.5964-3.9143 7.4467,.0947 19.1346,7.9778 28.5368,12.8794 9.98,5.2029 29.2966,13.6655 28.5368,24.7487-2.3805,1.9742-14.0297-12.0448-28.2843-20.3293-9.9006-5.7541-17.7472-11.6238-27.9055-15.1523-3.3467-1.1624-10.0227,2.8395-10.4803,1.7678z"
     id="path137" />
  <path
     fill="#fff"
     d="m28.5368,45.2398c3.0305,12.5006 9.0442,21.991 23.7859,23.3756 10.3251,.9697 20.0926-1.0891 21.0396-2.2886 0,0-.6313-6.3135-6.3135-10.6066-27.9055-14.2684-38.5121-10.4803-38.5121-10.4803z"
     id="path139" />
  <path
     fill="url(#radialGradient3700)"
     d="m28.3929,43.3214-10.9677-2.2485c0,0 7.9088-5.1807 17.1726-4.1669 19.442,2.1276 36.9968,13.132 42.0476,25.3801 0,0 1.0332,2.1067-2.0025,2.2853-2.5-7.6786-13.3929-18.5714-46.25-21.25z"
     id="path141" />
  <path
     d="m22.0971,42.4619c5.0714-.8758 7.8707-1.1012 11.743-.5051 12.3043,1.8942 25.0292,5.4384 35.1028,12.7532 3.1403,2.2803 7.8061,9.6043 5.6821,11.2379-1.7997,1.3842-.4163-5.3338-7.1973-9.849-11.8496-7.8901-30.793-11.9629-40.0273-10.6697-1.5773-2.3786-3.14-2.3129-5.3033-2.9673z"
     id="path143" />
  <path
     fill="url(#radialGradient3781)"
     d="m46.25,47.2812c-3.1147,1.8786-5.2188,5.2849-5.2188,9.1875 0,5.9276 4.8224,10.75 10.75,10.75 5.9276,0 10.7188-4.8224 10.7188-10.75 0-1.2418-.2058-2.4218-.5938-3.5312-4.8787-2.4345-10.3499-4.3426-15.6562-5.6562z"
     id="path145" />
  <path
     opacity=".3"
     fill="url(#radialGradient6175)"
     d="m28.5368,45.2398c3.0305,12.5006 9.0442,21.991 23.7859,23.3756 10.3251,.9697 20.0926-1.0891 21.0396-2.2886 0,0-.6313-6.3135-6.3135-10.6066-27.9055-14.2684-38.5121-10.4803-38.5121-10.4803z"
     id="path147" />
  <g
     clip-path="url(#clipPath6135)"
     transform="translate(0 -30)"
     id="g149">
    <path
       opacity=".3"
       d="m55.9673,96.8921c-.0943-1.073-.3328-1.974-.8352-3.1581-1.1879-2.1193-2.1854-4.1385-3.1288-6.5376 .2721-1.1732 .4682,.766 .227,1.3612 .2362,2.6676-.1612,6.0393 .2462,8.6749 .6099,1.1868 .808-.6676 .5246-1.1857-.3101-3.1704-.6927-6.0503-.9945-9.0094 .4243-1.3871-.0245,1.2254-.3631,1.4171-.6009,2.5895-1.7385,5.608-2.0865,8.4837 .055,.9855 .4274-.6885 .3718-1.2899 .7865-2.8482 1.1497-6.1515 1.7338-9 .6777-1.1576-.0802,1.159-.4173,1.6447-1.5453,2.2345-3.4634,5.1764-4.7717,7.5047-.461,1.184 .9495-.2223 1.0586-.8175 1.2659-2.7414 2.3027-5.5209 3.7548-8.2261 1.2669-.717-.4301,1.3245-.6474,1.4732-2.0405,1.6895-4.6878,3.3195-6.5647,5.4977-.4829,.8588 1.1035-.208 1.2899-.7513 2.0732-2.26 4.0812-4.2537 6.1565-6.2102 1.0386-.3563-.7571,1.0954-1.3473,.9924-2.4391,1.0328-5.4463,1.5395-7.7946,2.9861-.6802,.7446 .9117-.0959 1.2069-.1641 2.8699-1.3543 5.0498-3.3059 7.6921-4.3275 1.183,.1795-1.0519,.8278-1.2941,.6924-2.909,.1533-5.9441,.4776-8.8901,.8795-.9419,.6642 1.1565,.5145 1.6312,.1748 3.1487-.5743 5.5865-1.3678 8.7468-1.6221 1.1612,.5724-1.3826,.1336-1.5951-.1791-2.6248-.4002-6.0709-1.1922-8.698-1.4994-1.3311,.3001 .7988,.6371 1.365,.7032 2.8958,.2085 5.9103,.073 8.6916,.7377 1.2042,.5911-1.0475-.2384-1.2237-.4148-2.7159-1.307-5.0413-3.0283-7.8102-4.0341-1.0532-.0197 .6929,.8147 1.23,.7404 2.755,1.055 5.4406,2.0862 7.9545,3.6311 .8831,1.2014-.7454-.5695-1.0873-1.1126-2.0664-1.8014-4.3442-4.0689-6.3167-5.9194-.8784-.5666 .2121,.8393 .7147,.8816 2.0624,2.0807 4.6387,3.5117 6.94,5.7379 .2758,1.1461-1.0151-.2187-1.0524-.859-1.2317-2.3394-2.34-5.5362-3.6928-7.8408-.9344-.618-.6501,1.0174-.1678,1.2416 1.737,2.6246 3.4554,5.0553 5.0482,7.7674 .136,1.4803-.8739-.9344-.7573-1.5709-.347-2.7742-.7643-6.0458-1.3259-8.7131-.4022-1.0833-.3973,.7195-.215,1.2749 .5372,2.9072 2.0677,5.7364 2.4432,8.6894-.1857,1.0885-.5286-.9522-.2518-1.5394 .3175-2.627 1.1054-5.5778 1.2097-8.222-.0873-1.0656-.5078,.831-.3234,1.0571 .0126,2.8869 .1788,6.0245-.1419,8.8074-.6581,.9188 .0251-1.167 .1835-1.36 1.2901-2.7086 2.7702-5.5045 3.6118-8.0216-.1096-1.1542-.8664,.4447-.8618,1.0458-1.1401,2.6589-1.7247,6.1297-2.8833,8.6992-.835,.7128 .636-1.2311 .8317-1.5219 2.0004-2.0699 3.8152-3.8503 5.5169-6.352 .233-1.1244-1.1634,.3977-1.156,.6599-1.8151,2.1774-3.2459,5.2195-5.1092,7.3141-1.0988,.742 .8094-1.3676 1.0659-1.5594 2.3388-1.3327 4.6504-2.6564 7.0956-4.245 .6734-.7407-.8298-.2252-1.2266,.233-2.4302,1.9433-4.2018,4.0342-6.7969,5.449-1.4799,.2025 .8837-.3878 1.1894-.4991 2.8581-.5915 5.9916-1.5969 8.5836-2.3787 .8164-.7774-1.2892-.3438-1.6395,.0777-3.0401,.9138-5.4077,1.9452-8.3291,2.9284-1.4727-.1709 1.5857-.4361 1.8121-.331 2.8059,.2783 5.4314,.4867 8.4617,.4037 1.0753-.5431-.8417-.3467-1.1033-.3892-3.113-.1004-6.189,.9151-8.9906,.7963-.9713-.6368 .9919-.4084 1.5433-.1569 2.4939,.9219 5.1893,2.4387 7.8592,2.99 1.0438-.1336-.8639-.6502-1.074-.6217-2.7482-.6722-5.7922-1.3183-8.7365-2.1266-.8738-1.0673 1.453,.2458 1.5172,.6738 2.2399,1.8538 4.5747,3.759 7.1443,5.1377 1.017,.513-.6473-.9435-1.0329-1.2729-2.6968-1.6697-5.1014-2.6768-7.5641-4.2603-.4609-1.0264 1.1252,.3148 1.0753,.8112 1.564,2.4126 3.6708,4.9212 5.3389,7.0863 1.0831,.4961-.106-1.0301-.4263-1.4656-2.0221-2.1267-4.5482-4.4267-6.3052-6.632-.4791-1.2343 1.346,1.2239 1.1486,1.6765 .759,2.7255 1.4207,4.9041 2.6115,7.6996 .2056,.257 .0892,.3759 .1469,.4658-.0007-.2 .3447-.083 .3836,.1132"
       id="path151" />
    <path
       opacity=".1"
       d="m50.9317,97.5703c.7343-1.8322 .7717-3.455 .7381-5.1076-.0597-1.9858-.2032-3.7065 .2087-5.4085 .6795,1.0481-.9577,2.8447-1.574,4.0996-.6493,1.5678-1.7516,2.9694-2.5859,4.7891 .427,.9641 1.6468-1.8893 1.7776-2.6706 .7612-2.2737 1.3271-4.7697 2.2272-6.5852 .4064,1.0446-2.1245,2.6111-2.736,3.7872-1.4911,1.4302-2.7461,2.9099-3.8959,4.2005 .3256,1.2155 1.2997-1.6741 1.7325-1.9038 1.6229-1.9668 2.874-4.5422 4.4697-6.2772-.0123,1.2683-2.3143,1.5799-3.4947,2.5374-1.6881,.7405-3.5563,1.9461-4.9986,3.2463 .8998,.884 2.1925-1.6949 3.2605-1.9526 1.5592-1.4888 3.5675-2.2977 5.361-3.659-.4895,.8032-2.9694,.3542-4.19,.9925-1.6185,.3242-3.7872,1.2831-5.4026,1.7182-.261,1.2592 2.6758-.963 3.3194-1.0098 1.8867-.7032 4.0666-1.4845 6.122-2.2221-.7936,1.0073-2.9409,.3147-4.0603,.3166-1.9117-.3692-4.1016-.0879-5.8243-.1681-.457,.7992 1.6901-.1425 2.3008,.0871 2.5539,.0453 5.2013-.3523 7.7341-.0457-.7449,.6559-3.1641-.9871-4.2856-1.2032-1.5791-.6696-3.4005-1.3423-5.4076-1.979-.007,.9572 2.2969,1.0445 3.3191,1.3562 2.3612,.551 4.7034,.5452 6.6124,1.3316-.8514,.2723-2.6582-1.4691-3.9708-2.1186-1.4146-.9989-2.3978-2.6644-4.1699-3.6462-1.134,.1755 1.2762,1.3711 1.5576,1.6155 1.9731,1.2963 4.4793,2.9051 6.6709,4.2942-.9489,.1498-2.4518-2.4878-3.1035-3.483-1.2102-1.5991-2.0397-3.2823-3.0157-4.6934-1.1326-.1215 1.3214,2.6671 1.6571,3.1617 1.3329,1.7391 3.2552,3.1584 4.3605,4.9673-1.2125-.2658-1.2565-2.9897-1.6883-4.0183-.4066-1.9674-1.0462-3.8989-1.8598-5.4631-.9676-.4907 .633,1.4628 .7107,2.1769 .9544,2.4563 1.9734,4.5167 3.0012,6.9734-.6864-.5949 .0918-2.6873-.1034-4.186 .0342-2.0827-.1452-3.7888-.464-5.52-.9702-.4029-.0956,2.0497-.2328,2.4832 .545,2.4776 .8683,5.0973 1.1462,7.5561-.8303-.7746 .7217-3.2959 .7692-4.6606 .7724-1.7253 1.203-3.3608 1.4275-5.3283-.6465-.6219-.9504,1.8767-.9436,2.3091-.4129,2.7-.4014,5.2775-.9024,7.6-.1791-1.091 1.49-2.6893 1.9738-4.0174 1.2807-1.5393 1.9376-2.9658 2.9843-4.7606-.2187-1.0401-1.15,1.4943-1.6596,1.9396-1.2081,2.4456-2.352,4.9269-3.5598,6.9307-.1842-1.2467 2.3088-1.8727 3.1657-3.0133 1.5528-.9841 3.0678-2.6403 4.6327-3.9702-1.0181-.7348-1.8802,1.6987-2.6858,2.4408-1.7117,1.6585-3.4004,3.3308-4.9233,4.8899 .2959-1.2538 2.937-1.9374 4.0136-2.3809 1.6524-.837 3.5229-1.2856 5.0051-2.1072 .4045-.9703-1.7696,.6819-2.1029,.9524-2.1834,1.4352-4.572,2.6965-6.6951,3.6769 .5546-.7239 2.8474-.6699 4.1346-1.1247 1.721,.0148 3.7799-.3214 5.5303-.47 .3167-.97-1.3863,.0848-2.1537,.1526-2.6492,.4361-5.0614,1.2916-7.4242,1.4558 .6537-.617 2.6056,.463 3.9947,.4136 1.8263,.2467 3.8074,1.0567 5.5356,1.1659 .9279-.8631-1.6047-.1936-2.107-.5011-2.3402-.31-4.9843-.4063-7.5285-1.0704 1.1746-.3774 2.6681,1.4459 3.7704,2.1282 1.7995,1.0324 3.0851,1.8838 4.8452,2.4668 1.0553-.6566-1.0029-.9968-1.7005-1.2535-2.4413-.7764-4.9078-2.1681-7.2842-3.2065 1.2646,.0084 2.0433,2.3547 3.2532,3.1668 1.2532,1.2277 3.1148,2.8769 4.3891,4.0333 .6064-.9255-2.0105-1.9374-2.429-2.781-1.9244-1.4589-3.2966-2.4559-5.0671-4.0104 1.0813-.0254 1.2511,2.4189 1.929,3.7015 .6366,1.5286 1.6825,2.8143 2.6328,4.5987 1.3152,.132-.6862-2.0135-1.233-2.6295-1.3375-1.9962-2.5363-3.6865-3.7287-5.5487 1.1283,.6391 .5807,2.4838 1.0776,3.9025 .0881,1.9987 .41,4.1474 1.0863,6.0306 .7765-.6466-.104-2.4177-.299-3.5794-.515-1.9739-1.5484-4.3973-1.7846-6.4755 .9586,.6595-.5475,3.1586-.3936,4.3696-.1927,1.888-.9433,4.2161-.8721,6.0949-.0501-.1936 .1569-.2696 .3346-.1777-.1809-.0853-.3208,.3564-.2476,.1703 .1909,.0595 .0536-.0058 .163-.1732"
       id="path153" />
  </g>
  <path
     fill="url(#radialGradient6145)"
     d="m62.5032,56.4778a10.7329,10.7329 0 1,1 -21.4657,0 10.7329,10.7329 0 1,1 21.4657,0z"
     transform="matrix(.43529 0 0 .43529 29.235 31.89334)"
     id="path155" />
  <path
     fill="none"
     filter="url(#filter3756)"
     stroke="url(#radialGradient3713)"
     d="m17.4251,41.073c0,0 7.9088-5.1807 17.1726-4.1669 19.442,2.1276 36.9968,13.132 42.0476,25.3801"
     id="path157" />
  <path
     fill="url(#linearGradient3728)"
     d="m71.4375,60.8125c.5936,5.1146-1.1405,6.5098-7.625,7.75 5.1778-.4955 8.9912-1.5263 9.5625-2.25 0,0-.2877-2.5346-1.9375-5.5z"
     id="path159" />
  <path
     opacity=".7"
     d="m27.6529,45.3661c0,0-4.1669,0-7.7024,2.2728 7.3236-1.894 8.2075,0 8.2075,0 0,0-3.4093,.2525-4.9245,3.0305 2.2728-2.3991 5.4296-1.5152 5.5558,.1263 0,0-3.1567,.8839-5.3033,4.7982 3.283-3.6618 6.0609-2.5254 6.0609-2.5254 0,0-.9536,.8481-2.9042,4.0406 2.5254-3.0305 4.672-2.2728 4.672-2.2728 0,0-2.3991,1.389-4.0406,6.4397 3.283-5.5558 5.5558-4.0406 5.5558-4.0406 0,0-1.389,2.0203-1.7678,4.5457 1.894-2.7779 3.9143-1.5152 3.9143-1.5152 0,0-2.1466,1.0102-3.9143,4.672 4.1669-4.1669 4.672-2.7779 4.672-2.7779 0,0-.7576,1.0102-1.389,2.7779 2.6517-1.6415 3.0305-.8839 5.6821-.1263-7.7024-8.3338-12.3744-19.4454-12.3744-19.4454z"
     id="path161" />
  <path
     fill="url(#linearGradient3738)"
     d="m29.25,44.875c-1.4304,.1322-2.0938,.375-2.0938,.375 3.0305,12.5006 9.1645,22.7404 23.9062,24.125 10.3251,.9697 22.1155-1.2067 23.0625-2.4062 0,0-.1445-.3054-.1875-.4062-3.9831,1.1196-12.8993,2.3204-20.9688,1.5625-14.3802-1.3506-20.5794-11.1676-23.6875-23.25-.0092,.0008-.0221-.0008-.0312,0z"
     id="path163" />
  <path
     fill="url(#linearGradient3738)"
     d="m29.25,44.875c-1.4304,.1322-2.0938,.375-2.0938,.375 3.0305,12.5006 9.1645,22.7404 23.9062,24.125 10.3251,.9697 22.1155-1.2067 23.0625-2.4062 0,0-.1445-.3054-.1875-.4062-3.9831,1.1196-12.8993,2.3204-20.9688,1.5625-14.3802-1.3506-20.5794-11.1676-23.6875-23.25-.0092,.0008-.0221-.0008-.0312,0z"
     id="path165" />
  <path
     opacity=".2"
     d="m30.25,43.875c-1.4304,.1322-2.0938,.375-2.0938,.375 .0613,.253 .1236,.4989 .1875,.75 .2577-.0399 .5604-.093 .9062-.125 .0091-.0008 .0221,.0008 .0312,0 3.1081,12.0824 9.3073,21.8994 23.6875,23.25 8.0694,.7579 16.9857-.4429 20.9688-1.5625 .6093-.2147 1.0425-.4101 1.1875-.5938 0,0-.1445-.3054-.1875-.4062-3.9831,1.1196-12.8993,2.3204-20.9688,1.5625-14.3802-1.3506-20.5794-11.1676-23.6875-23.25-.0092,.0008-.0221-.0008-.0312,0z"
     id="path167" />
  <path
     d="m29.25,44.875c-1.4304,.1322-2.0938,.375-2.0938,.375 3.0305,12.5006 9.1645,22.7404 23.9062,24.125 1.6183,.152 3.2633,.2055 4.9062,.2188-1.3124-.031-2.6156-.0975-3.9062-.2188-14.7418-1.3846-20.8758-11.6244-23.9062-24.125 0,0 .3662-.1259 1.1562-.25-.0108-.0416-.0205-.0834-.0312-.125-.0092,.0008-.0221-.0008-.0312,0zm44.6875,21.6875c-2.9458,.828-8.5893,1.6896-14.5938,1.7812 5.8333-.0024 11.3939-.7611 14.6875-1.5625-.0433-.0926-.0709-.1651-.0938-.2188z"
     id="path169" />
  <path
     fill="#d79171"
     filter="url(#filter3713)"
     d="m25.183,163.683c-11.4257,3.3715-16.5738,15.7944-17.0268,24.9107 1.0412,.8715 2.3736,1.4062 3.8438,1.4062h64.1875l-5.6562-14.7188c0,0-33.3839,1.6161-45.3482-11.5982z"
     clip-path="url(#clipPath3705)"
     transform="translate(0 -100)"
     id="path171" />
  <path
     fill="url(#radialGradient3746)"
     d="m62.5032,56.4778a10.7329,10.7329 0 1,1 -21.4657,0 10.7329,10.7329 0 1,1 21.4657,0z"
     transform="matrix(.43529 0 0 .43529 22.235 29.89334)"
     id="path173" />
  <path
     fill="url(#radialGradient3746)"
     d="m62.5032,56.4778a10.7329,10.7329 0 1,1 -21.4657,0 10.7329,10.7329 0 1,1 21.4657,0z"
     transform="matrix(.6 0 0 .6 30.93021 27.93946)"
     id="path175" />
  <path
     d="m31.9907,44.1846c0,0-11.0616,.4628-12.3925-8.8078 2.0949,7.4661 14.138,8.4005 14.138,8.4005 0,0-11.125,.1372-10.0323-12.3084-.4191,10.5236 12.1126,12.5795 12.1126,12.5795 0,0-9.2984-3.3271-6.3826-11.0924-1.7174,7.4983 8.49,11.1554 8.49,11.1554 0,0-6.5354-4.2365-1.6385-10.157-3.3458,5.3821 3.4295,11.025 3.4295,11.025 0,0-3.8039-4.0922 .1707-7.8056-2.6133,4.6313 1.5748,7.3983 1.5748,7.3983 0,0-1.728-2.9755 1.4189-7.643-2.4096,5.504 .372,8.511 .372,8.511 0,0-.412-3.3329 1.772-5.4813-1.6548,2.9579-.0264,5.0741-.0264,5.0741 0,0-.5882-1.9807 1.8174-4.206-1.9624,2.0715-.4425,5.0199-.4425,5.0199 0,0 .3388-2.6004 1.9712-3.7629-1.7317,2.7363 .082,4.242 .082,4.242-15.431-4.9724-16.4345-2.1413-16.4345-2.1413z"
     id="path177" />
  <path
     d="m33.91,43.6915c0,0-9.5976,.3571-10.7523-6.7964 1.8176,5.7611 12.2668,6.4821 12.2668,6.4821 0,0-9.6525,.1059-8.7045-9.4976-.3636,8.1203 10.5095,9.7067 10.5095,9.7067 0,0-8.0678-2.5673-5.5379-8.5593-1.4901,5.7859 7.3664,8.6079 7.3664,8.6079 0,0-5.6704-3.269-1.4217-7.8374-2.903,4.153 2.9756,8.5072 2.9756,8.5072 0,0-3.3004-3.1577 .1481-6.023-2.2674,3.5736 1.3664,5.7088 1.3664,5.7088 0,0-1.4993-2.296 1.2311-5.8976-2.0907,4.2471 .3228,6.5674 .3228,6.5674 0,0-.3575-2.5718 1.5375-4.2296-1.4358,2.2824-.0229,3.9153-.0229,3.9153 0,0-.5103-1.5284 1.5769-3.2455-1.7027,1.5984-.3839,3.8735-.3839,3.8735 0,0 .294-2.0065 1.7103-2.9036-1.5025,2.1114 .0711,3.2732 .0711,3.2732-13.3886-3.8369-14.2594-1.6523-14.2594-1.6523z"
     id="path179" />
  <path
     d="m48.4015,46.443c0,0-3.7157-2.901-.7008-6.4384-2.0939,3.2565 1.7265,7.0494 1.7265,7.0494 0,0-2.1214-2.7097 .298-4.8952-1.6463,2.812 .7335,4.7038 .7335,4.7038 0,0-.9353-1.9321 1.0241-4.7471-1.5493,3.3675 .0016,5.3582 .0016,5.3582 0,0-.1564-2.1081 1.1757-3.3767-1.0431,1.7964-.1442,3.1853-.1442,3.1853 0,0-.2938-1.2654 1.1699-2.5743-1.2006,1.2285-.3863,3.1359-.3863,3.1359 0,0 .2642-1.6204 1.2487-2.2903-1.0825,1.6545-.0597,2.6667-.0597,2.6667-5.1903-1.3187-5.7636-.547-6.087-1.7772z"
     id="path181" />
  <path
     d="m51.253,47.8935c0,0-3.881-2.4281-.7319-5.3888-2.1871,2.7256 1.8033,5.9002 1.8033,5.9002 0,0-2.2158-2.268 .3113-4.0972-1.7196,2.3536 .7661,3.937 .7661,3.937 0,0-.977-1.6171 1.0696-3.9733-1.6183,2.8186 .0017,4.4847 .0017,4.4847 0,0-.1634-1.7644 1.228-2.8263-1.0895,1.5036-.1507,2.666-.1507,2.666 0,0-.3069-1.0592 1.222-2.1546-1.254,1.0283-.4034,2.6247-.4034,2.6247 0,0 .276-1.3563 1.3042-1.9169-1.1306,1.3848-.0624,2.232-.0624,2.232-5.4212-1.1038-6.02-.4579-6.3579-1.4875z"
     id="path183" />
  <path
     style="opacity:0.5;fill:url(#linearGradient3188)"
     d="M 12,6 C 8.11425,5.86322 5.41842,9.7916 6,13.4226 6.01817,37.1117 5.96368,60.8028 6.02721,84.4906 5.28209,86.8321 10.5384,90.3041 9.3125,89.2189 6.06848,87.1934 7.20936,83.0941 7,79.918 7.01709,57.4408 6.96584,34.9619 7.02559,12.4857 7.23712,9.18528 10.6966,7.53718 13.6597,8.0003 37.2778,8.01738 60.8976,7.96615 84.5146,8.02589 87.815,8.23742 89.4631,11.6969 89,14.66 c -0.023,23.6263 0.047,47.2557 -0.035,70.8801 -0.1232,2.7606 -4.9497,5.3487 -1.452,3.2815 3.5336,-2.4814 2.2373,-6.9817 2.4873,-10.6151 -0.021,-22.2736 0.041,-44.5493 -0.031,-66.8216 C 89.7162,7.60958 85.8109,5.47608 82.3404,6.0001 58.8936,6.00003 35.4467,6.00023 12,6 Z"
     id="path185"
     inkscape:connector-curvature="0"
     sodipodi:nodetypes="ccccccccccccccc" />
  <path
     style="opacity:0.2;fill:url(#radialGradient3619)"
     d="M 12,90 C 8.11425,90.1368 5.41842,86.2084 6,82.5774 6.01817,58.8883 5.96368,35.1972 6.02721,11.5094 5.28209,9.16789 10.5384,5.69592 9.3125,6.7811 6.06848,8.80663 7.20936,12.9059 7,16.082 7.0171,38.5592 6.9658,61.0381 7.0256,83.5143 c 0.21153,3.3004 3.671,4.9485 6.6341,4.4854 23.6181,-0.017 47.2379,0.034 70.8549,-0.026 C 87.815,87.7622 88.9928,85.0273 89,81.3396 88.977,57.7133 89.047,34.0839 88.965,10.4595 89.6045,8.28359 84.0153,5.11076 87.513,7.17796 c 3.5336,2.48139 2.2373,6.98174 2.4873,10.61514 -0.021,22.2736 0.041,44.5493 -0.031,66.8216 -0.253,3.7753 -4.1583,5.9088 -7.6288,5.3848 C 58.8936,90 35.4467,89.9998 12,90 Z"
     id="path187"
     inkscape:connector-curvature="0"
     sodipodi:nodetypes="ccccccccccccccc" />
</svg>
