<?xml version="1.0" encoding="UTF-8" standalone="no"?>
<svg
   xmlns:dc="http://purl.org/dc/elements/1.1/"
   xmlns:cc="http://creativecommons.org/ns#"
   xmlns:rdf="http://www.w3.org/1999/02/22-rdf-syntax-ns#"
   xmlns:svg="http://www.w3.org/2000/svg"
   xmlns="http://www.w3.org/2000/svg"
   xmlns:xlink="http://www.w3.org/1999/xlink"
   xmlns:sodipodi="http://sodipodi.sourceforge.net/DTD/sodipodi-0.dtd"
   xmlns:inkscape="http://www.inkscape.org/namespaces/inkscape"
   viewBox="0 0 96 96"
   id="svg2"
   version="1.1"
   inkscape:version="0.91 r"
   sodipodi:docname="evince.svg">
  <title
     id="title78">evince</title>
  <metadata
     id="metadata73">
    <rdf:RDF>
      <cc:Work
         rdf:about="">
        <dc:format>image/svg+xml</dc:format>
        <dc:type
           rdf:resource="http://purl.org/dc/dcmitype/StillImage" />
        <dc:title>evince</dc:title>
        <dc:subject>
          <rdf:Bag>
            <rdf:li>evince</rdf:li>
          </rdf:Bag>
        </dc:subject>
        <dc:description>evince</dc:description>
      </cc:Work>
    </rdf:RDF>
  </metadata>
  <sodipodi:namedview
     pagecolor="#ffffff"
     bordercolor="#666666"
     borderopacity="1"
     objecttolerance="10"
     gridtolerance="10"
     guidetolerance="10"
     inkscape:pageopacity="0"
     inkscape:pageshadow="2"
     inkscape:window-width="1280"
     inkscape:window-height="965"
     id="namedview71"
     showgrid="false"
     inkscape:zoom="9.83333"
     inkscape:cx="12.1326"
     inkscape:cy="50.1009"
     inkscape:window-x="0"
     inkscape:window-y="27"
     inkscape:window-maximized="1"
     inkscape:current-layer="svg2" />
  <defs
     id="defs4">
    <clipPath
       id="clipPath3613">
      <path
         fill="#fff"
         d="m12,6h72a6,6 0 0,1 6,6v72a6,6 0 0,1 -6,6h-72a6,6 0 0,1 -6-6v-72a6,6 0 0,1 6-6"
         id="path7" />
    </clipPath>
    <filter
       width="1.384"
       x="-.192"
       y="-.192"
       height="1.384"
       color-interpolation-filters="sRGB"
       id="filter3794">
      <feGaussianBlur
         stdDeviation="5.28"
         id="feGaussianBlur10" />
    </filter>
    <linearGradient
       gradientTransform="matrix(1.02381 0 0 1.0119 -1.14286 -98.07143)"
       id="linearGradient3780"
       xlink:href="#ButtonShadow-0"
       y1="6.132"
       y2="90.239"
       x2="0"
       gradientUnits="userSpaceOnUse" />
    <linearGradient
       gradientTransform="translate(0 -97)"
       id="linearGradient3721"
       xlink:href="#ButtonShadow-0"
       y1="6.132"
       y2="90.239"
       x2="0"
       gradientUnits="userSpaceOnUse" />
    <linearGradient
       id="linearGradient4590">
      <stop
         offset="0"
         stop-color="#c00"
         id="stop15" />
      <stop
         offset="1"
         stop-color="#ffa2a2"
         id="stop17" />
    </linearGradient>
    <linearGradient
       id="linearGradient4598">
      <stop
         offset="0"
         stop-color="#e6eef7"
         id="stop20" />
      <stop
         offset="1"
         stop-color="#8ab0d8"
         id="stop22" />
    </linearGradient>
    <linearGradient
       gradientTransform="matrix(1.00587 0 0 .99417 100 0)"
       id="ButtonShadow-0"
       y1="92.54"
       y2="7.017"
       x2="0"
       gradientUnits="userSpaceOnUse">
      <stop
         offset="0"
         id="stop25" />
      <stop
         offset="1"
         stop-opacity=".588"
         id="stop27" />
    </linearGradient>
    <linearGradient
       gradientTransform="translate(0 -96)"
       id="linearGradient3617"
       xlink:href="#linearGradient4598"
       y1="90"
       y2="5.988"
       x2="0"
       gradientUnits="userSpaceOnUse" />
    <linearGradient
       id="linearGradient3737">
      <stop
         offset="0"
         stop-color="#fff"
         id="stop31" />
      <stop
         offset="1"
         stop-color="#fff"
         stop-opacity="0"
         id="stop33" />
    </linearGradient>
    <linearGradient
       id="linearGradient3188"
       xlink:href="#linearGradient3737"
       y1="6"
       y2="63.893"
       x2="0"
       gradientUnits="userSpaceOnUse" />
    <linearGradient
       id="linearGradient3613"
       xlink:href="#linearGradient3737"
       y1="20.221"
       y2="138.661"
       x2="0"
       gradientUnits="userSpaceOnUse" />
    <linearGradient
       gradientTransform="matrix(2.28522 0 0 2.30287 -8.42022 -7.43708)"
       id="linearGradient3799"
       xlink:href="#linearGradient4590"
       x1="24.689"
       x2="53.568"
       gradientUnits="userSpaceOnUse" />
    <radialGradient
       cx="48"
       cy="90.172"
       gradientTransform="matrix(1.15731,0,0,0.99591,-7.55102,0.19713)"
       r="42"
       id="radialGradient3619"
       xlink:href="#linearGradient3737"
       gradientUnits="userSpaceOnUse" />
  </defs>
  <path
     opacity=".08"
     fill="url(#linearGradient3780)"
     d="m12-95.0312c-5.5111,0-10.0312,4.5202-10.0312,10.0312v71c0,5.5111 4.5202,10.0312 10.0312,10.0312h72c5.5111,0 10.0312-4.5202 10.0312-10.0312v-71c0-5.5111-4.5202-10.0312-10.0312-10.0312h-72z"
     transform="scale(1 -1)"
     id="path39" />
  <path
     opacity=".1"
     fill="url(#linearGradient3780)"
     d="m12-94.0312c-4.9716,0-9.0312,4.0596-9.0312,9.0312v71c0,4.9716 4.0596,9.0312 9.0312,9.0312h72c4.9716,0 9.0312-4.0596 9.0312-9.0312v-71c0-4.9716-4.0596-9.0312-9.0312-9.0312h-72z"
     transform="scale(1 -1)"
     id="path41" />
  <path
     opacity=".2"
     fill="url(#linearGradient3780)"
     d="m12-93c-4.4091,0-8,3.5909-8,8v71c0,4.4091 3.5909,8 8,8h72c4.4091,0 8-3.5909 8-8v-71c0-4.4091-3.5909-8-8-8h-72z"
     transform="scale(1 -1)"
     id="path43" />
  <path
     opacity=".3"
     fill="url(#linearGradient3780)"
     d="m12-92h72a7,7 0 0,1 7,7v71a7,7 0 0,1 -7,7h-72a7,7 0 0,1 -7-7v-71a7,7 0 0,1 7-7"
     transform="scale(1 -1)"
     id="path45" />
  <path
     opacity=".45"
     fill="url(#linearGradient3721)"
     d="m12-91h72a6,6 0 0,1 6,6v72a6,6 0 0,1 -6,6h-72a6,6 0 0,1 -6-6v-72a6,6 0 0,1 6-6"
     transform="scale(1 -1)"
     id="path47" />
  <path
     fill="url(#linearGradient3617)"
     d="m12-90h72a6,6 0 0,1 6,6v72a6,6 0 0,1 -6,6h-72a6,6 0 0,1 -6-6v-72a6,6 0 0,1 6-6"
     transform="scale(1 -1)"
     id="path49" />
  <path
     style="opacity:0.5;fill:url(#linearGradient3188)"
     d="M 12,6 C 8.11425,5.86322 5.41842,9.7916 6,13.4226 6.01817,37.1117 5.96368,60.8028 6.02721,84.4906 5.28209,86.8321 10.5384,90.3041 9.3125,89.2189 6.06848,87.1934 7.20936,83.0941 7,79.918 7.01709,57.4408 6.96584,34.9619 7.02559,12.4857 7.23712,9.18528 10.6966,7.53718 13.6597,8.0003 37.2778,8.01738 60.8976,7.96615 84.5146,8.02589 87.815,8.23742 89.4631,11.6969 89,14.66 c -0.023,23.6263 0.047,47.2557 -0.035,70.8801 0.6395,2.1759 -4.9497,5.3487 -1.452,3.2815 3.5336,-2.4814 2.2373,-6.9817 2.4873,-10.6151 -0.021,-22.2736 0.041,-44.5493 -0.031,-66.8216 C 89.7162,7.60958 85.8109,5.47608 82.3404,6.0001 58.8936,6.00003 35.4467,6.00023 12,6 Z"
     id="path51"
     inkscape:connector-curvature="0" />
  <path
     style="opacity:0.2;fill:url(#radialGradient3619)"
     d="M 12,90 C 8.11425,90.1368 5.41842,86.2084 6,82.5774 6.01817,58.8883 5.96368,35.1972 6.02721,11.5094 5.28209,9.16789 10.5384,5.69592 9.3125,6.7811 6.06848,8.80663 7.20936,12.9059 7,16.082 c 0.0171,22.4772 -0.0342,44.9561 0.0256,67.4323 0.21153,3.3004 3.67101,4.9485 6.63411,4.4854 23.6181,-0.017 47.2379,0.034 70.8549,-0.026 3.3004,-0.2115 4.9485,-3.671 4.4854,-6.6341 -0.023,-23.6263 0.047,-47.2557 -0.035,-70.8801 0.6395,-2.17591 -4.9497,-5.34874 -1.452,-3.28154 3.5336,2.48139 2.2373,6.98174 2.4873,10.61514 -0.021,22.2736 0.041,44.5493 -0.031,66.8216 -0.253,3.7753 -4.1583,5.9088 -7.6288,5.3848 C 58.8936,90 35.4467,89.9998 12,90 Z"
     id="path53"
     inkscape:connector-curvature="0" />
  <path
     opacity=".1"
     fill="url(#linearGradient3613)"
     filter="url(#filter3794)"
     stroke="#fff"
     stroke-linecap="round"
     stroke-width=".5"
     d="m27,15h42a12,12 0 0,1 12,12v42a12,12 0 0,1 -12,12h-42a12,12 0 0,1 -12-12v-42a12,12 0 0,1 12-12"
     clip-path="url(#clipPath3613)"
     id="path55" />
  <g
     color="#000"
     id="g57">
    <path
       fill="url(#linearGradient3799)"
       d="m6,78c10.603-9.3391 56.3348-51.9142 44.8136-52.8535-5.9776-.4873-19.9799,3.3935-26.2268,15.175-11.6967,22.0597 14.6722,25.2949 25.6207,23.9593 17.9387-2.8162 39.7925-14.5556 39.7925-14.5556l-.0128,11.979c-38.4474,10.9574-62.8799,9.5006-76.2782-3.6194-13.0347-12.7639 18.098-41.5716 43.3255-38.9211 26.0474,2.7366-51.0345,58.8362-51.0345,58.8362z"
       id="path59" />
    <path
       opacity=".2"
       d="m54.6562,18c-20.8372-.596-44.5564,18.7404-44,32.25 .6259-13.9703 25.5148-33.2854 46.375-31.0938 3.5215,.37 5.1469,1.7311 5.3438,3.7812 .2783-2.6156-1.2738-4.3537-5.3438-4.7812-.7884-.0828-1.5766-.1334-2.375-.1562zm-2.0312,8.4062c-.8399,5.4164-14.1132,19.5355-26.5938,31.7812-2.474-2.0049-4.1396-4.6714-4.3438-8.1875-.0761,4.0117 1.6414,6.9976 4.3438,9.1875 13.324-13.0734 27.5539-28.3157 26.5938-32.7812zm37.375,22.3125c0,0-21.8426,11.7463-39.7812,14.5625-5.4503,.6648-14.724,.1715-21.2188-3.1875-.2548,.2094-.4965,.3863-.75,.5938 6.5126,3.7306 16.3039,4.2848 21.9688,3.5938 17.9386-2.8162 39.7812-14.5625 39.7812-14.5625v-1zm-69.25,14.625c-6.2791,6.0088-11.8449,11.0975-14.75,13.6562 0,0 2.4757-1.7989 6.2812-4.6875 2.6963-2.4855 5.8019-5.4053 9.1562-8.625-.2258-.1205-.4657-.2192-.6875-.3438z"
       id="path61" />
    <path
       opacity=".6"
       fill="#fff"
       d="m62.375,23.9375c-.8487,7.9783-18.7266,24.1495-34.125,36.75 .2466,.1413 .4944,.274 .75,.4062 15.9036-13.0688 34.0883-29.7285 33.375-37.1562zm-12.7812,1.1562c-6.4866,.0679-19.1435,4.1735-25,15.2188-2.2341,4.2135-3.0769,7.7482-2.9062,10.6875 .0518-2.7312 .9188-5.9392 2.9062-9.6875 6.2469-11.7816 20.2411-15.6436 26.2188-15.1562 1.0657,.0869 1.6534,.5099 1.8125,1.25 .2054-1.3244-.3398-2.1299-1.8125-2.25-.3736-.0305-.7863-.067-1.2188-.0625zm-38.9375,26.2188c-.1149,2.9005 .8222,5.5875 3.0625,7.7812 2.0773,2.0342 4.4123,3.7794 7.0312,5.25 .2273-.2175 .4584-.4363 .6875-.6562-2.8916-1.5431-5.4655-3.3873-7.7188-5.5938-1.9797-1.9386-2.945-4.2689-3.0625-6.7812zm79.3438,10.4062c-30.5518,8.7072-52.2457,9.5314-66.5938,2.9375-4.2827,3.4186-8.1156,6.372-11.125,8.6562-2.5761,2.3747-4.8105,4.392-6.2812,5.6875 0,0 7.708-5.6023 17.4062-13.3438 14.348,6.5939 36.042,5.7697 66.5938-2.9375v-1z"
       id="path63" />
    <g
       fill="#500"
       id="g65">
      <path
         style="opacity:0.2"
         d="m 52.3125,19 c -13.1224,0.7679 -25.4994,7.4972 -34.4258,16.9652 -4.239,4.7607 -8.46085,11.0569 -6.8406,17.7414 1.5733,4.795 6.2776,7.56 10.3914,9.981 C 16.3687,68.5404 11.2492,73.3424 6,78.0001 11.8943,73.6742 17.6887,69.213 23.4062,64.6563 c 12.891,5.7111 27.4754,4.861 41.0917,2.8391 C 73.1163,66.1445 81.6133,64.1037 90,61.7188 90.4302,59.9043 89.545,59.666 87.9799,60.2423 71.5157,64.5687 54.3703,68.4182 37.257,66.349 32.5676,65.7957 28.0139,64.4098 23.6816,62.5918 21.771,61.6165 19.5105,60.133 17.5814,58.802 14.563,56.7938 11.9132,53.4526 12.6828,49.6064 14.0953,41.8604 20.0447,35.937 26.0257,31.2836 34.984,24.6981 46.1433,19.9258 57.4525,21.2084 c 5.2442,0.1955 2.0055,5.9943 0.1962,8.2834 -5.3367,7.5603 -12.4317,13.6397 -19.2423,19.8208 5.5135,-6.018 11.4465,-11.8876 15.357,-19.1253 2.0503,-2.8406 0.4105,-7.4544 -3.4756,-7.0394 -9.5709,0.1048 -19.028,4.8808 -24.9596,12.3676 -3.9938,5.4855 -7.2606,12.8889 -4.5904,19.6354 1.225,2.2053 2.7676,5.528 5.5874,5.7936 1.1679,2.6856 5.1035,2.9945 7.5654,4.0689 8.2157,2.3184 16.9786,1.8416 25.1038,-0.6001 C 69.7868,61.4842 80.2103,57.1 90.0003,51.7811 90.8623,48.1226 87.6737,51.173 85.8594,51.8174 74.3309,57.2871 62.3586,62.348 49.6762,64.3422 42.4152,64.9168 34.753,64.1817 28.2503,60.6873 38.84,51.8265 49.6418,42.9569 58.2479,32.078 60.2753,29.1061 63.2073,25.6182 62.1026,21.7994 60.2708,18.5047 55.4981,19.1261 52.3125,19 Z m -2.7188,6.0938 c 5.2006,-0.525 2.2315,5.4809 0.4236,7.5987 -6.9566,9.7097 -15.5685,18.0724 -23.986,26.495 C 21.4496,55.8491 20.6922,49.3923 22.77,44.4116 26.5299,33.1535 37.9922,25.6771 49.5937,25.0938 Z"
         id="path67"
         inkscape:connector-curvature="0" />
      <path
         opacity=".4"
         d="m54.6562,19c-20.8372-.596-44.5564,18.7404-44,32.25 .6259-13.9703 25.5148-33.2854 46.375-31.0938 3.5215,.37 5.1469,1.7311 5.3438,3.7812 .2783-2.6156-1.2738-4.3537-5.3438-4.7812-.7884-.0828-1.5766-.1334-2.375-.1562zm-2.0312,8.4062c-.8399,5.4164-14.1132,19.5355-26.5938,31.7812-2.474-2.0049-4.1396-4.6714-4.3438-8.1875-.0761,4.0117 1.6414,6.9976 4.3438,9.1875 13.324-13.0734 27.5539-28.3157 26.5938-32.7812zm37.375,22.3125c0,0-21.8426,11.7463-39.7812,14.5625-5.4503,.6648-14.724,.1715-21.2188-3.1875-.2548,.2094-.4965,.3863-.75,.5938 6.5126,3.7306 16.3039,4.2848 21.9688,3.5938 17.9386-2.8162 39.7812-14.5625 39.7812-14.5625v-1zm-69.25,14.625c-6.2791,6.0088-11.8449,11.0975-14.75,13.6562 0,0 2.4757-1.7989 6.2812-4.6875 2.6963-2.4855 5.8019-5.4053 9.1562-8.625-.2258-.1205-.4657-.2192-.6875-.3438z"
         id="path69" />
    </g>
  </g>
</svg>
