<?xml version="1.0" encoding="UTF-8" standalone="no"?>
<!-- Created with Inkscape (http://www.inkscape.org/) -->

<svg
   xmlns:dc="http://purl.org/dc/elements/1.1/"
   xmlns:cc="http://creativecommons.org/ns#"
   xmlns:rdf="http://www.w3.org/1999/02/22-rdf-syntax-ns#"
   xmlns:svg="http://www.w3.org/2000/svg"
   xmlns="http://www.w3.org/2000/svg"
   xmlns:xlink="http://www.w3.org/1999/xlink"
   xmlns:sodipodi="http://sodipodi.sourceforge.net/DTD/sodipodi-0.dtd"
   xmlns:inkscape="http://www.inkscape.org/namespaces/inkscape"
   version="1.0"
   width="96"
   height="96"
   id="svg2408"
   sodipodi:docname="evolution.svg"
   inkscape:version="0.92+devel (unknown)">
  <title
     id="title1871">mail</title>
  <sodipodi:namedview
     pagecolor="#ffffff"
     bordercolor="#666666"
     inkscape:document-rotation="0"
     borderopacity="1"
     objecttolerance="10"
     gridtolerance="10"
     guidetolerance="10"
     inkscape:pageopacity="0"
     inkscape:pageshadow="2"
     inkscape:window-width="1280"
     inkscape:window-height="965"
     id="namedview108"
     showgrid="false"
     inkscape:zoom="4"
     inkscape:cx="96.4446"
     inkscape:cy="57.9413"
     inkscape:window-x="0"
     inkscape:window-y="29"
     inkscape:window-maximized="1"
     inkscape:current-layer="svg2408" />
  <defs
     id="defs2410">
    <linearGradient
       id="linearGradient3740">
      <stop
         id="stop3742"
         style="stop-color:#536d98;stop-opacity:1"
         offset="0" />
      <stop
         id="stop3744"
         style="stop-color:#7990b6;stop-opacity:1"
         offset="1" />
    </linearGradient>
    <linearGradient
       id="linearGradient3187">
      <stop
         id="stop3189"
         style="stop-color:#000000;stop-opacity:0.13725491"
         offset="0" />
      <stop
         id="stop3191"
         style="stop-color:#ffffff;stop-opacity:0"
         offset="1" />
    </linearGradient>
    <linearGradient
       x1="45.447727"
       y1="92.539597"
       x2="45.447727"
       y2="7.0165396"
       id="ButtonShadow"
       gradientUnits="userSpaceOnUse"
       gradientTransform="scale(1.0058652,0.994169)">
      <stop
         id="stop3750"
         style="stop-color:#000000;stop-opacity:1"
         offset="0" />
      <stop
         id="stop3752"
         style="stop-color:#000000;stop-opacity:0.58823532"
         offset="1" />
    </linearGradient>
    <linearGradient
       id="linearGradient3737">
      <stop
         id="stop3739"
         style="stop-color:#ffffff;stop-opacity:1"
         offset="0" />
      <stop
         id="stop3741"
         style="stop-color:#ffffff;stop-opacity:0"
         offset="1" />
    </linearGradient>
    <linearGradient
       id="linearGradient3700">
      <stop
         id="stop3702"
         style="stop-color:#f7d687;stop-opacity:1"
         offset="0" />
      <stop
         id="stop3704"
         style="stop-color:#fbe9bf;stop-opacity:1"
         offset="1" />
    </linearGradient>
    <linearGradient
       x1="48"
       y1="90"
       x2="48"
       y2="5.9877172"
       id="linearGradient3706"
       xlink:href="#linearGradient3700"
       gradientUnits="userSpaceOnUse" />
    <filter
       color-interpolation-filters="sRGB"
       id="filter3174">
      <feGaussianBlur
         id="feGaussianBlur3176"
         stdDeviation="1.71" />
    </filter>
    <linearGradient
       x1="36.357143"
       y1="6"
       x2="36.357143"
       y2="63.893143"
       id="linearGradient3188"
       xlink:href="#linearGradient3737"
       gradientUnits="userSpaceOnUse" />
    <linearGradient
       x1="99.194839"
       y1="18.93565"
       x2="99.194839"
       y2="44.971905"
       id="linearGradient3780"
       xlink:href="#linearGradient3740"
       gradientUnits="userSpaceOnUse"
       gradientTransform="matrix(0.927536,0,0,0.8855463,-22.753604,0.6637971)" />
    <linearGradient
       x1="73.214287"
       y1="44.5"
       x2="73.214287"
       y2="16.412582"
       id="linearGradient3798"
       xlink:href="#ButtonShadow"
       gradientUnits="userSpaceOnUse"
       gradientTransform="translate(-1,-1)" />
    <filter
       color-interpolation-filters="sRGB"
       id="filter3808">
      <feGaussianBlur
         id="feGaussianBlur3810"
         stdDeviation="0.375" />
    </filter>
    <linearGradient
       x1="48"
       y1="90"
       x2="48"
       y2="5.9877172"
       id="linearGradient3388"
       xlink:href="#linearGradient3187"
       gradientUnits="userSpaceOnUse" />
    <linearGradient
       id="linearGradient3737-1">
      <stop
         id="stop3739-7"
         style="stop-color:#ffffff;stop-opacity:1"
         offset="0" />
      <stop
         id="stop3741-2"
         style="stop-color:#ffffff;stop-opacity:0"
         offset="1" />
    </linearGradient>
    <radialGradient
       cx="48"
       cy="90.171875"
       r="42"
       fx="48"
       fy="90.171875"
       id="radialGradient2855"
       xlink:href="#linearGradient3737-1"
       gradientUnits="userSpaceOnUse"
       gradientTransform="matrix(1.15731,0,0,0.995908,-7.55102,0.197132)" />
    <linearGradient
       id="linearGradient3737-10">
      <stop
         id="stop3739-6"
         style="stop-color:#ffffff;stop-opacity:1"
         offset="0" />
      <stop
         id="stop3741-1"
         style="stop-color:#ffffff;stop-opacity:0"
         offset="1" />
    </linearGradient>
    <clipPath
       id="clipPath3613">
      <rect
         width="84"
         height="84"
         rx="6"
         ry="6"
         x="6"
         y="6"
         id="rect3615"
         style="fill:#ffffff;fill-opacity:1;fill-rule:nonzero;stroke:none" />
    </clipPath>
    <filter
       x="-0.192"
       y="-0.192"
       width="1.3839999"
       height="1.3839999"
       color-interpolation-filters="sRGB"
       id="filter3794">
      <feGaussianBlur
         id="feGaussianBlur3796"
         stdDeviation="5.28" />
    </filter>
    <linearGradient
       x1="48"
       y1="20.220806"
       x2="48"
       y2="138.66119"
       id="linearGradient2885"
       xlink:href="#linearGradient3737-10"
       gradientUnits="userSpaceOnUse" />
    <linearGradient
       x1="45.447727"
       y1="92.539597"
       x2="45.447727"
       y2="7.0165396"
       id="ButtonShadow-5"
       gradientUnits="userSpaceOnUse"
       gradientTransform="matrix(1.0058652,0,0,0.994169,100,0)">
      <stop
         id="stop3750-6"
         style="stop-color:#000000;stop-opacity:1"
         offset="0" />
      <stop
         id="stop3752-3"
         style="stop-color:#000000;stop-opacity:0.58823532"
         offset="1" />
    </linearGradient>
    <linearGradient
       x1="32.251034"
       y1="6.1317081"
       x2="32.251034"
       y2="90.238609"
       id="linearGradient3780-9"
       xlink:href="#ButtonShadow-5"
       gradientUnits="userSpaceOnUse"
       gradientTransform="matrix(1.0238095,0,0,1.0119048,-1.1428571,-98.071429)" />
    <linearGradient
       x1="32.251034"
       y1="6.1317081"
       x2="32.251034"
       y2="90.238609"
       id="linearGradient3772"
       xlink:href="#ButtonShadow-5"
       gradientUnits="userSpaceOnUse"
       gradientTransform="matrix(1.0238095,0,0,1.0119048,-1.1428571,-98.071429)" />
    <linearGradient
       x1="32.251034"
       y1="6.1317081"
       x2="32.251034"
       y2="90.238609"
       id="linearGradient3725"
       xlink:href="#ButtonShadow-5"
       gradientUnits="userSpaceOnUse"
       gradientTransform="matrix(1.0238095,0,0,1.0119048,-1.1428571,-98.071429)" />
    <linearGradient
       x1="32.251034"
       y1="6.1317081"
       x2="32.251034"
       y2="90.238609"
       id="linearGradient3721"
       xlink:href="#ButtonShadow-5"
       gradientUnits="userSpaceOnUse"
       gradientTransform="translate(0,-97)" />
    <linearGradient
       x1="32.251034"
       y1="6.1317081"
       x2="32.251034"
       y2="90.238609"
       id="linearGradient3026"
       xlink:href="#ButtonShadow-5"
       gradientUnits="userSpaceOnUse"
       gradientTransform="matrix(1.0238095,0,0,1.0119048,-1.1428571,-98.071429)" />
  </defs>
  <metadata
     id="metadata2413">
    <rdf:RDF>
      <cc:Work
         rdf:about="">
        <dc:format>image/svg+xml</dc:format>
        <dc:type
           rdf:resource="http://purl.org/dc/dcmitype/StillImage" />
        <dc:title>mail</dc:title>
        <dc:subject>
          <rdf:Bag>
            <rdf:li>mail</rdf:li>
          </rdf:Bag>
        </dc:subject>
        <dc:description>mail, envelope</dc:description>
      </cc:Work>
    </rdf:RDF>
  </metadata>
  <g
     id="layer2"
     style="display:none">
    <rect
       width="86"
       height="85"
       rx="6"
       ry="6"
       x="5"
       y="7"
       id="rect3745"
       style="opacity:0.9;fill:url(#ButtonShadow);fill-opacity:1;fill-rule:nonzero;stroke:none;filter:url(#filter3174)" />
  </g>
  <g
     id="layer5">
    <path
       d="m 12,-95.03125 c -5.5110903,0 -10.03125,4.52016 -10.03125,10.03125 l 0,71 c 0,5.5110902 4.5201598,10.03125 10.03125,10.03125 l 72,0 c 5.51109,0 10.03125,-4.5201597 10.03125,-10.03125 l 0,-71 c 0,-5.51109 -4.52016,-10.03125 -10.03125,-10.03125 l -72,0 z"
       transform="scale(1,-1)"
       id="path3786"
       style="opacity:0.07999998;fill:url(#linearGradient3026);fill-opacity:1;fill-rule:nonzero;stroke:none;display:inline" />
    <path
       d="m 12,-94.03125 c -4.971633,0 -9.03125,4.059617 -9.03125,9.03125 l 0,71 c 0,4.9716329 4.0596171,9.03125 9.03125,9.03125 l 72,0 c 4.971633,0 9.03125,-4.059617 9.03125,-9.03125 l 0,-71 c 0,-4.971633 -4.059617,-9.03125 -9.03125,-9.03125 l -72,0 z"
       transform="scale(1,-1)"
       id="path3778"
       style="opacity:0.1;fill:url(#linearGradient3780-9);fill-opacity:1;fill-rule:nonzero;stroke:none;display:inline" />
    <path
       d="m 12,-93 c -4.4091333,0 -8,3.590867 -8,8 l 0,71 c 0,4.4091333 3.5908667,8 8,8 l 72,0 c 4.409133,0 8,-3.5908667 8,-8 l 0,-71 c 0,-4.409133 -3.590867,-8 -8,-8 l -72,0 z"
       transform="scale(1,-1)"
       id="path3770"
       style="opacity:0.2;fill:url(#linearGradient3772);fill-opacity:1;fill-rule:nonzero;stroke:none;display:inline" />
    <rect
       width="86"
       height="85"
       rx="7"
       ry="7"
       x="5"
       y="-92"
       transform="scale(1,-1)"
       id="rect3723"
       style="opacity:0.3;fill:url(#linearGradient3725);fill-opacity:1;fill-rule:nonzero;stroke:none;display:inline" />
    <rect
       width="84"
       height="84"
       rx="6"
       ry="6"
       x="6"
       y="-91"
       transform="scale(1,-1)"
       id="rect3716"
       style="opacity:0.45;fill:url(#linearGradient3721);fill-opacity:1;fill-rule:nonzero;stroke:none;display:inline" />
  </g>
  <g
     id="layer1">
    <rect
       width="84"
       height="84"
       rx="6"
       ry="6"
       x="6"
       y="6"
       id="rect2419"
       style="fill:url(#linearGradient3706);fill-opacity:1;fill-rule:nonzero;stroke:none" />
    <g
       transform="matrix(0.7505802,0,0,0.6666667,-0.00928343,82)"
       id="g2684">
      <path
         d="m 108.62203,12 -13.21506,0 3.303765,-6 13.215055,0 -3.30376,6 z"
         inkscape:connector-curvature="0"
         id="path2620"
         style="fill:#ca1e18;fill-opacity:1;fill-rule:nonzero;stroke:none" />
      <path
         d="m 88.799439,12 -13.21506,0 3.303765,-6 13.21506,0 -3.303765,6 z"
         inkscape:connector-curvature="0"
         id="path2622"
         style="fill:#2c72c7;fill-opacity:1;fill-rule:nonzero;stroke:none" />
      <path
         d="m 68.976849,12 -13.215061,0 3.303766,-6 13.21506,0 -3.303765,6 z"
         inkscape:connector-curvature="0"
         id="path2624"
         style="fill:#ca1e18;fill-opacity:1;fill-rule:nonzero;stroke:none" />
      <path
         d="m 49.154259,12 -13.21506,0 3.303764,-6 13.215061,0 -3.303765,6 z"
         inkscape:connector-curvature="0"
         id="path2626"
         style="fill:#2c72c7;fill-opacity:1;fill-rule:nonzero;stroke:none" />
      <path
         d="M 29.21506,12 16,12 19.303765,6 32.518825,6 29.21506,12 z"
         inkscape:connector-curvature="0"
         id="path2628"
         style="fill:#ca1e18;fill-opacity:1;fill-rule:nonzero;stroke:none" />
    </g>
    <g
       transform="matrix(0.6666667,0,0,0.7505802,82,-0.0649824)"
       id="g2727">
      <path
         d="M 6,19.37797 6,32.59303 12,29.289265 12,16.07421 6,19.37797 z"
         inkscape:connector-curvature="0"
         id="path2729"
         style="fill:#2c72c7;fill-opacity:1;fill-rule:nonzero;stroke:none" />
      <path
         d="m 6,39.200561 0,13.21506 6,-3.303765 0,-13.21506 -6,3.303765 z"
         inkscape:connector-curvature="0"
         id="path2731"
         style="fill:#ca1e18;fill-opacity:1;fill-rule:nonzero;stroke:none" />
      <path
         d="m 6,59.023151 0,13.215061 6,-3.303766 0,-13.21506 -6,3.303765 z"
         inkscape:connector-curvature="0"
         id="path2733"
         style="fill:#2c72c7;fill-opacity:1;fill-rule:nonzero;stroke:none" />
      <path
         d="m 6,78.845741 0,13.21506 6,-3.303764 0,-13.215061 -6,3.303765 z"
         inkscape:connector-curvature="0"
         id="path2735"
         style="fill:#ca1e18;fill-opacity:1;fill-rule:nonzero;stroke:none" />
      <path
         d="M 6,98.78494 6,112 12,108.69624 12,95.481175 6,98.78494 z"
         inkscape:connector-curvature="0"
         id="path2737"
         style="fill:#2c72c7;fill-opacity:1;fill-rule:nonzero;stroke:none" />
    </g>
    <g
       transform="matrix(0.6666667,0,0,0.7505802,2.0000002,-0.0649824)"
       id="g3466">
      <path
         d="M 6,19.37797 6,32.59303 12,29.289265 12,16.07421 6,19.37797 z"
         inkscape:connector-curvature="0"
         id="path3468"
         style="fill:#2c72c7;fill-opacity:1;fill-rule:nonzero;stroke:none" />
      <path
         d="m 6,39.200561 0,13.21506 6,-3.303765 0,-13.21506 -6,3.303765 z"
         inkscape:connector-curvature="0"
         id="path3470"
         style="fill:#ca1e18;fill-opacity:1;fill-rule:nonzero;stroke:none" />
      <path
         d="m 6,59.023151 0,13.215061 6,-3.303766 0,-13.21506 -6,3.303765 z"
         inkscape:connector-curvature="0"
         id="path3472"
         style="fill:#2c72c7;fill-opacity:1;fill-rule:nonzero;stroke:none" />
      <path
         d="m 6,78.845741 0,13.21506 6,-3.303764 0,-13.215061 -6,3.303765 z"
         inkscape:connector-curvature="0"
         id="path3474"
         style="fill:#ca1e18;fill-opacity:1;fill-rule:nonzero;stroke:none" />
      <path
         d="M 6,98.78494 6,112 12,108.69624 12,95.481175 6,98.78494 z"
         inkscape:connector-curvature="0"
         id="path3476"
         style="fill:#2c72c7;fill-opacity:1;fill-rule:nonzero;stroke:none" />
    </g>
    <g
       transform="matrix(0.7505802,0,0,0.6666667,-0.00928343,2)"
       id="g3478">
      <path
         d="m 108.62203,12 -13.21506,0 3.303765,-6 13.215055,0 -3.30376,6 z"
         inkscape:connector-curvature="0"
         id="path3480"
         style="fill:#ca1e18;fill-opacity:1;fill-rule:nonzero;stroke:none" />
      <path
         d="m 88.799439,12 -13.21506,0 3.303765,-6 13.21506,0 -3.303765,6 z"
         inkscape:connector-curvature="0"
         id="path3482"
         style="fill:#2c72c7;fill-opacity:1;fill-rule:nonzero;stroke:none" />
      <path
         d="m 68.976849,12 -13.215061,0 3.303766,-6 13.21506,0 -3.303765,6 z"
         inkscape:connector-curvature="0"
         id="path3484"
         style="fill:#ca1e18;fill-opacity:1;fill-rule:nonzero;stroke:none" />
      <path
         d="m 49.154259,12 -13.21506,0 3.303764,-6 13.215061,0 -3.303765,6 z"
         inkscape:connector-curvature="0"
         id="path3486"
         style="fill:#2c72c7;fill-opacity:1;fill-rule:nonzero;stroke:none" />
      <path
         d="M 29.21506,12 16,12 19.303765,6 32.518825,6 29.21506,12 z"
         inkscape:connector-curvature="0"
         id="path3488"
         style="fill:#ca1e18;fill-opacity:1;fill-rule:nonzero;stroke:none" />
    </g>
    <path
       style="font-style:normal;font-variant:normal;font-weight:normal;font-stretch:normal;font-size:14px;line-height:100%;font-family:Hurontario;-inkscape-font-specification:Hurontario;text-align:start;writing-mode:lr-tb;text-anchor:start;display:inline;fill:#3f6490;fill-opacity:1;stroke:none"
       d="m 44.5313,100.812 v 0.03 l 0.031,-0.03 z"
       transform="matrix(0.675483,0,0,0.675483,1.97839,7.77272)"
       id="path183" />
    <path
       style="opacity:0.3;fill:url(#radialGradient2855);fill-opacity:1;fill-rule:nonzero;stroke:none"
       d="M 12,90 C 8.11425,90.1368 5.41842,86.2084 6,82.5774 6.01818,58.8883 5.96366,35.1972 6.02722,11.5094 5.28212,9.16796 10.5383,5.696 9.3125,6.78125 6.06854,8.80692 7.20932,12.9061 7,16.0823 c 0.0171,22.4772 -0.0342,44.9561 0.0256,67.4323 0.2115,3.3005 3.67101,4.9485 6.63411,4.4854 23.6181,-0.017 47.2379,0.034 70.8549,-0.026 C 87.8151,87.7629 89.4631,84.3034 89,81.3403 88.9765,57.714 89.0469,34.0846 88.9648,10.4602 89.6042,8.28431 84.0152,5.11138 87.5127,7.17856 91.0463,9.65991 89.75,14.1603 90,17.7936 89.9794,40.0672 90.0412,62.3429 89.9691,84.6152 89.7161,88.3905 85.8108,90.524 82.3403,90 58.8935,90 35.4468,90 12,90 Z"
       id="path3615"
       inkscape:connector-curvature="0" />
  </g>
  <g
     id="layer4">
    <path
       d="m 59.916667,15.5 c 0,0.483 -0.410667,0.875001 -0.916667,0.875001 L 59,18.125 c 0.506,0 0.916667,0.392 0.916667,0.875 0,0.483 -0.410667,0.875 -0.916667,0.875 l 0,1.750001 c 0.506,0 0.916667,0.391999 0.916667,0.874999 0,0.483 -0.410667,0.875 -0.916667,0.875 l 0,1.750001 c 0.506,0 0.916667,0.391999 0.916667,0.874999 0,0.483001 -0.410667,0.875001 -0.916667,0.875001 L 59,28.625 c 0.506,0 0.916667,0.392001 0.916667,0.875 0,0.483 -0.410667,0.875001 -0.916667,0.875001 l 0,1.75 c 0.506,0 0.916667,0.391999 0.916667,0.875 C 59.916667,33.483 59.506,33.875 59,33.875 l 0,1.750001 c 0.506,0 0.916667,0.391999 0.916667,0.874999 0,0.483001 -0.410667,0.875001 -0.916667,0.875001 l 0,1.75 c 0.506,0 0.916667,0.392 0.916667,0.874999 0,0.483001 -0.410667,0.875001 -0.916667,0.875001 l 0,1.75 c 0.506,0 0.916667,0.392 0.916667,0.874999 l 1.833333,0 c 0,-0.482999 0.410667,-0.874999 0.916667,-0.874999 0.506,0 0.916667,0.392 0.916667,0.874999 l 1.833333,0 c -2e-6,-0.482999 0.410665,-0.874999 0.916665,-0.874999 0.506,0 0.916668,0.392 0.916668,0.874999 l 1.833333,0 c -2e-6,-0.482999 0.410666,-0.874999 0.916666,-0.874999 0.506,0 0.916668,0.392 0.916668,0.874999 l 1.833333,0 c 0,-0.482999 0.410669,-0.874999 0.916669,-0.874999 0.505993,0 0.916662,0.392 0.916662,0.874999 l 1.833334,0 c 0,-0.482999 0.410669,-0.874999 0.916669,-0.874999 0.506001,0 0.916663,0.392 0.916663,0.874999 l 1.833333,0 c 0,-0.482999 0.41067,-0.874999 0.91667,-0.874999 l 0,-1.75 c -0.506,0 -0.91667,-0.392 -0.91667,-0.875001 0,-0.482999 0.41067,-0.874999 0.91667,-0.874999 l 0,-1.75 c -0.506,0 -0.91667,-0.392 -0.91667,-0.875001 0,-0.483 0.41067,-0.874999 0.91667,-0.874999 L 81,33.875 c -0.506,10e-7 -0.91667,-0.392 -0.91667,-0.874999 0,-0.483001 0.41067,-0.875 0.91667,-0.875 l 0,-1.75 C 80.494,30.375002 80.08333,29.983 80.08333,29.5 80.08333,29.017001 80.494,28.625 81,28.625 l 0,-1.749999 c -0.506,0 -0.91667,-0.392 -0.91667,-0.875001 0,-0.483 0.41067,-0.874999 0.91667,-0.874999 L 81,23.375 c -0.506,0 -0.91667,-0.392 -0.91667,-0.875 0,-0.483 0.41067,-0.874999 0.91667,-0.874999 L 81,19.875 c -0.506,0 -0.91667,-0.392 -0.91667,-0.875 0,-0.483 0.41067,-0.875 0.91667,-0.875 l 0,-1.749999 c -0.506,0 -0.91667,-0.392001 -0.91667,-0.875001 l -1.833333,0 c 0,0.483 -0.410662,0.875001 -0.916663,0.875001 -0.506,0 -0.916669,-0.392001 -0.916669,-0.875001 l -1.833334,0 c 0,0.483 -0.410669,0.875001 -0.916662,0.875001 C 73.160669,16.375001 72.75,15.983 72.75,15.5 l -1.833333,0 c 0,0.483 -0.410668,0.875001 -0.916668,0.875001 -0.506,0 -0.916666,-0.392001 -0.916666,-0.875001 L 67.25,15.5 c 0,0.483 -0.410668,0.875001 -0.916668,0.875001 -0.506,0 -0.916665,-0.392001 -0.916665,-0.875001 l -1.833333,0 c 0,0.483 -0.410667,0.875001 -0.916667,0.875001 C 62.160667,16.375001 61.75,15.983 61.75,15.5 l -1.833333,0 z"
       inkscape:connector-curvature="0"
       id="path3782"
       style="fill:url(#linearGradient3798);fill-opacity:1;fill-rule:nonzero;stroke:none;filter:url(#filter3808)" />
    <path
       d="m 59.916667,15 c 0,0.483 -0.410667,0.875001 -0.916667,0.875001 L 59,17.625 c 0.506,0 0.916667,0.392 0.916667,0.875 0,0.483 -0.410667,0.875 -0.916667,0.875 l 0,1.750001 c 0.506,0 0.916667,0.391999 0.916667,0.874999 0,0.483 -0.410667,0.875 -0.916667,0.875 l 0,1.750001 c 0.506,0 0.916667,0.391999 0.916667,0.874999 0,0.483001 -0.410667,0.875001 -0.916667,0.875001 L 59,28.125 c 0.506,0 0.916667,0.392001 0.916667,0.875 0,0.483 -0.410667,0.875001 -0.916667,0.875001 l 0,1.75 c 0.506,0 0.916667,0.391999 0.916667,0.875 C 59.916667,32.983 59.506,33.375 59,33.375 l 0,1.750001 c 0.506,0 0.916667,0.391999 0.916667,0.874999 0,0.483001 -0.410667,0.875001 -0.916667,0.875001 l 0,1.75 c 0.506,0 0.916667,0.392 0.916667,0.874999 0,0.483001 -0.410667,0.875001 -0.916667,0.875001 l 0,1.75 c 0.506,0 0.916667,0.392 0.916667,0.874999 L 61.75,43 c 0,-0.482999 0.410667,-0.874999 0.916667,-0.874999 0.506,0 0.916667,0.392 0.916667,0.874999 l 1.833333,0 c -2e-6,-0.482999 0.410665,-0.874999 0.916665,-0.874999 0.506,0 0.916668,0.392 0.916668,0.874999 l 1.833333,0 c -2e-6,-0.482999 0.410666,-0.874999 0.916666,-0.874999 0.506,0 0.916668,0.392 0.916668,0.874999 L 72.75,43 c 0,-0.482999 0.410669,-0.874999 0.916669,-0.874999 0.505993,0 0.916662,0.392 0.916662,0.874999 l 1.833334,0 c 0,-0.482999 0.410669,-0.874999 0.916669,-0.874999 0.506001,0 0.916663,0.392 0.916663,0.874999 l 1.833333,0 c 0,-0.482999 0.41067,-0.874999 0.91667,-0.874999 l 0,-1.75 c -0.506,0 -0.91667,-0.392 -0.91667,-0.875001 0,-0.482999 0.41067,-0.874999 0.91667,-0.874999 l 0,-1.75 c -0.506,0 -0.91667,-0.392 -0.91667,-0.875001 0,-0.483 0.41067,-0.874999 0.91667,-0.874999 L 81,33.375 c -0.506,10e-7 -0.91667,-0.392 -0.91667,-0.874999 0,-0.483001 0.41067,-0.875 0.91667,-0.875 l 0,-1.75 C 80.494,29.875002 80.08333,29.483 80.08333,29 80.08333,28.517001 80.494,28.125 81,28.125 l 0,-1.749999 c -0.506,0 -0.91667,-0.392 -0.91667,-0.875001 0,-0.483 0.41067,-0.874999 0.91667,-0.874999 L 81,22.875 c -0.506,0 -0.91667,-0.392 -0.91667,-0.875 0,-0.483 0.41067,-0.874999 0.91667,-0.874999 L 81,19.375 c -0.506,0 -0.91667,-0.392 -0.91667,-0.875 0,-0.483 0.41067,-0.875 0.91667,-0.875 l 0,-1.749999 C 80.494,15.875001 80.08333,15.483 80.08333,15 l -1.833333,0 c 0,0.483 -0.410662,0.875001 -0.916663,0.875001 -0.506,0 -0.916669,-0.392001 -0.916669,-0.875001 l -1.833334,0 c 0,0.483 -0.410669,0.875001 -0.916662,0.875001 C 73.160669,15.875001 72.75,15.483 72.75,15 l -1.833333,0 c 0,0.483 -0.410668,0.875001 -0.916668,0.875001 -0.506,0 -0.916666,-0.392001 -0.916666,-0.875001 L 67.25,15 c 0,0.483 -0.410668,0.875001 -0.916668,0.875001 -0.506,0 -0.916665,-0.392001 -0.916665,-0.875001 l -1.833333,0 c 0,0.483 -0.410667,0.875001 -0.916667,0.875001 C 62.160667,15.875001 61.75,15.483 61.75,15 l -1.833333,0 z"
       inkscape:connector-curvature="0"
       id="path3718"
       style="fill:#ffffff;fill-opacity:1;fill-rule:nonzero;stroke:none" />
    <g
       transform="matrix(0.9655718,0,0,0.9560475,2.403806,1.3339976)"
       id="g3772">
      <rect
         width="16.570492"
         height="23.011408"
         x="61.721142"
         y="17.432192"
         id="rect3738"
         style="fill:url(#linearGradient3780);fill-opacity:1;fill-rule:nonzero;stroke:none" />
      <path
         d="m 69.53098,34.208505 c -0.551532,-0.173574 -0.872247,-0.345864 -1.413829,-0.75952 -1.453651,-1.110286 -2.210298,-2.747229 -1.798432,-3.890755 0.170156,-0.472425 0.364097,-0.771782 0.714991,-1.103613 0.609273,-0.576174 1.559355,-1.001165 2.746835,-1.228712 1.843876,-0.353327 3.295931,0.08728 3.409484,1.034546 0.08245,0.68775 -0.477098,1.313764 -2.090194,2.33852 -1.145091,0.72744 -1.591129,1.115052 -1.591129,1.3827 0,0.384724 0.494948,0.770476 0.988583,0.770476 0.311494,0 0.471475,-0.158685 0.609224,-0.60424 0.182381,-0.5899 0.555112,-0.79795 1.443444,-0.805698 0.622269,-0.0054 0.815523,0.130535 0.844093,0.593849 0.01673,0.271342 -0.01847,0.408231 -0.18842,0.73285 -0.278585,0.532117 -0.93161,1.143082 -1.505874,1.408918 -0.391865,0.1814 -0.512844,0.205681 -1.120269,0.224856 -0.529873,0.01672 -0.762514,-0.0042 -1.048507,-0.09418 z m -3.568322,-6.486067 c -0.469934,-0.387976 -0.672116,-1.162549 -0.376108,-1.440888 0.451186,-0.424252 1.023564,-0.111737 1.205488,0.65819 0.191732,0.811444 -0.268494,1.245765 -0.82938,0.782698 z m 1.584135,-1.081173 c -0.336757,-0.333676 -0.448926,-0.597806 -0.4521,-1.064571 -0.0027,-0.395776 -0.0032,-0.504908 0.217105,-0.712064 0.43719,-0.411093 0.986356,-0.105459 1.155601,0.755421 0.08323,0.423364 -0.01071,0.806903 -0.257821,1.052632 -0.228116,0.22684 -0.410886,0.218176 -0.662785,-0.03142 z m 4.525582,0.0012 c -0.217573,-0.107498 -0.455393,-0.446338 -0.511833,-0.729267 -0.109478,-0.548736 0.308498,-1.543294 0.811452,-1.93083 0.820993,-0.632579 2.032512,-0.708509 2.341445,-0.146744 0.251362,0.457044 -0.07994,1.270904 -0.815546,2.003486 -0.680959,0.678158 -1.420351,1.003543 -1.825518,0.803355 z m -2.456564,-0.438634 c -0.260195,-0.118074 -0.44797,-0.584909 -0.449592,-1.117753 -0.0024,-0.778113 0.325694,-1.193142 0.943545,-1.193664 0.376914,-3.18e-4 0.596202,0.239372 0.660304,0.721723 0.07831,0.589372 -0.315409,1.466055 -0.717616,1.597895 -0.24282,0.07959 -0.243186,0.07959 -0.436641,-0.0082 z"
         inkscape:connector-curvature="0"
         id="path3456"
         style="opacity:0.8;fill:#ffffff;fill-opacity:1;stroke:none" />
      <path
         d="m 73.761196,38.790036 c -0.301177,-0.09394 -0.476326,-0.187179 -0.772078,-0.411045 -0.793823,-0.600876 -1.207025,-1.486774 -0.982106,-2.105638 0.09292,-0.255672 0.198822,-0.417681 0.390442,-0.597264 0.332721,-0.31182 0.851553,-0.541822 1.500031,-0.664967 1.006923,-0.191217 1.799884,0.04723 1.861888,0.559885 0.04503,0.372204 -0.260532,0.710996 -1.141434,1.265585 -0.625325,0.393682 -0.868902,0.603454 -0.868902,0.748302 0,0.20821 0.270285,0.416974 0.539859,0.416974 0.170102,0 0.257468,-0.08588 0.33269,-0.327008 0.0996,-0.319247 0.303145,-0.431843 0.788247,-0.436036 0.339825,-0.0029 0.445358,0.07064 0.460959,0.321386 0.0091,0.146847 -0.01009,0.22093 -0.102899,0.39661 -0.152125,0.287976 -0.508739,0.618626 -0.822348,0.762494 -0.213993,0.09817 -0.28006,0.111312 -0.611767,0.121689 -0.289359,0.0091 -0.416402,-0.0023 -0.572582,-0.05097 z M 71.812563,35.27984 c -0.256622,-0.209969 -0.367035,-0.62916 -0.205385,-0.779793 0.246391,-0.229601 0.558964,-0.06047 0.658308,0.356204 0.1047,0.439146 -0.146623,0.674197 -0.452923,0.423589 z m 0.865088,-0.58512 c -0.183903,-0.180582 -0.245158,-0.323527 -0.246883,-0.576135 -0.0015,-0.214191 -0.0018,-0.273251 0.118553,-0.385362 0.23875,-0.222479 0.538641,-0.05707 0.631061,0.408827 0.04546,0.22912 -0.0058,0.436688 -0.14079,0.569673 -0.124569,0.122764 -0.224382,0.118074 -0.361941,-0.017 z m 2.471385,6.36e-4 c -0.118811,-0.05818 -0.248691,-0.241554 -0.279508,-0.394672 -0.05978,-0.29697 0.168468,-0.835215 0.443126,-1.044946 0.448346,-0.342346 1.109936,-0.383438 1.278645,-0.07942 0.137273,0.247347 -0.04366,0.687801 -0.445365,1.084267 -0.371867,0.367011 -0.775641,0.543107 -0.996898,0.434767 z m -1.341513,-0.237384 c -0.142084,-0.0639 -0.244635,-0.316547 -0.245513,-0.604917 -0.0013,-0.421107 0.17785,-0.645717 0.515261,-0.645999 0.205829,-1.73e-4 0.325586,0.129546 0.360587,0.390589 0.04276,0.318963 -0.172243,0.793415 -0.391888,0.864765 -0.132604,0.04308 -0.132801,0.04307 -0.238447,-0.0044 z"
         inkscape:connector-curvature="0"
         id="path4494"
         style="opacity:0.6;fill:#ffffff;fill-opacity:1;stroke:none" />
      <path
         d="m 64.945802,36.442902 c -0.182615,-0.05696 -0.288813,-0.113492 -0.468138,-0.24923 -0.48132,-0.36433 -0.731856,-0.901478 -0.59548,-1.276716 0.05634,-0.155022 0.120555,-0.253254 0.23674,-0.36214 0.201737,-0.189066 0.516324,-0.328523 0.909517,-0.403191 0.61053,-0.115941 1.091328,0.02864 1.128923,0.339477 0.0273,0.225679 -0.157971,0.4311 -0.692089,0.767364 -0.379155,0.238703 -0.526846,0.365894 -0.526846,0.45372 0,0.126245 0.163882,0.252825 0.327336,0.252825 0.103138,0 0.156111,-0.05207 0.20172,-0.198276 0.06039,-0.193569 0.183808,-0.26184 0.477941,-0.264382 0.206045,-0.0018 0.270034,0.04283 0.279494,0.194866 0.0055,0.08904 -0.0061,0.133958 -0.06239,0.240478 -0.09224,0.174609 -0.308463,0.375093 -0.498614,0.462324 -0.12975,0.05952 -0.16981,0.06749 -0.370934,0.07379 -0.175449,0.0055 -0.25248,-0.0014 -0.347177,-0.0309 z m -1.181519,-2.128345 c -0.155598,-0.12731 -0.222545,-0.381479 -0.124531,-0.472813 0.149394,-0.139215 0.338916,-0.03667 0.399154,0.215979 0.06348,0.266268 -0.0889,0.408787 -0.274623,0.256834 z m 0.524529,-0.354777 c -0.111506,-0.109492 -0.148646,-0.196165 -0.149692,-0.349328 -8.95e-4,-0.129871 -0.0011,-0.165682 0.07188,-0.233658 0.144761,-0.134897 0.326594,-0.0346 0.382631,0.247885 0.02756,0.138923 -0.0035,0.264778 -0.08537,0.34541 -0.07553,0.07444 -0.136049,0.07159 -0.219458,-0.01031 z m 1.498485,3.86e-4 c -0.07204,-0.03527 -0.15079,-0.146461 -0.169477,-0.239303 -0.03625,-0.180062 0.102147,-0.506417 0.268683,-0.633583 0.271845,-0.207576 0.672991,-0.232492 0.775284,-0.04815 0.08323,0.149974 -0.02647,0.417035 -0.270039,0.657425 -0.225476,0.222532 -0.470297,0.329304 -0.604451,0.263614 z m -0.813403,-0.143934 c -0.08615,-0.03874 -0.148332,-0.191933 -0.148866,-0.36678 -7.87e-4,-0.255332 0.10784,-0.39152 0.312421,-0.39169 0.124801,-1.05e-4 0.197412,0.07855 0.218637,0.236827 0.02593,0.193397 -0.104437,0.481073 -0.237618,0.524334 -0.0804,0.02612 -0.08052,0.02612 -0.144574,-0.0027 z"
         inkscape:connector-curvature="0"
         id="path4496"
         style="opacity:0.4;fill:#ffffff;fill-opacity:1;stroke:none" />
      <path
         d="m 71.898453,22.772487 c -0.182614,-0.05696 -0.288808,-0.113493 -0.468137,-0.249231 -0.481317,-0.364329 -0.731854,-0.901477 -0.595478,-1.276716 0.05634,-0.155021 0.120551,-0.253254 0.236744,-0.36214 0.20173,-0.189066 0.516322,-0.328523 0.909514,-0.403191 0.610535,-0.115941 1.091333,0.02864 1.128921,0.339476 0.0273,0.22568 -0.157966,0.4311 -0.692089,0.767365 -0.379158,0.238703 -0.526849,0.365894 -0.526849,0.45372 0,0.126244 0.163886,0.252825 0.327338,0.252825 0.103141,0 0.156112,-0.05207 0.20172,-0.198276 0.06039,-0.193569 0.183812,-0.26184 0.477938,-0.264382 0.206056,-0.0018 0.270035,0.04283 0.279493,0.194867 0.0055,0.08904 -0.0061,0.133957 -0.06238,0.240477 -0.09225,0.174609 -0.308471,0.375093 -0.498616,0.462325 -0.129751,0.05952 -0.169814,0.06749 -0.370937,0.07378 -0.175446,0.0055 -0.252478,-0.0014 -0.347179,-0.0309 z m -1.181514,-2.128346 c -0.155604,-0.12731 -0.222544,-0.381479 -0.124531,-0.472813 0.149388,-0.139215 0.338912,-0.03667 0.399155,0.215978 0.06348,0.266268 -0.0889,0.408787 -0.274624,0.256835 z m 0.52453,-0.354777 c -0.111508,-0.109492 -0.148646,-0.196164 -0.149694,-0.349328 -9.01e-4,-0.129871 -0.0011,-0.165682 0.07188,-0.233658 0.144761,-0.134897 0.326595,-0.03461 0.382628,0.247885 0.02757,0.138923 -0.0035,0.264778 -0.08536,0.345411 -0.07553,0.07444 -0.136052,0.07159 -0.219456,-0.01031 z m 1.498481,3.86e-4 c -0.07204,-0.03527 -0.150793,-0.146461 -0.169481,-0.239303 -0.03625,-0.180062 0.10215,-0.506417 0.268688,-0.633583 0.271844,-0.207576 0.672992,-0.232492 0.775286,-0.04815 0.08323,0.149974 -0.02647,0.417035 -0.270042,0.657426 -0.225479,0.222531 -0.470288,0.329303 -0.604451,0.263613 z m -0.813403,-0.143934 c -0.08615,-0.03874 -0.148331,-0.191932 -0.148869,-0.366779 -7.79e-4,-0.255332 0.107844,-0.39152 0.312422,-0.391691 0.124799,-1.05e-4 0.197418,0.07855 0.218641,0.236826 0.02592,0.193398 -0.104435,0.481074 -0.237619,0.524336 -0.0804,0.02612 -0.08052,0.02612 -0.144575,-0.0027 z"
         inkscape:connector-curvature="0"
         id="path4498"
         style="opacity:0.4;fill:#ffffff;fill-opacity:1;stroke:none" />
      <path
         d="m 64.752408,24.277675 c -0.117362,-0.0366 -0.18561,-0.07294 -0.300862,-0.160174 -0.309333,-0.234148 -0.470348,-0.579362 -0.382702,-0.820519 0.03621,-0.09963 0.07748,-0.162762 0.152151,-0.232742 0.129648,-0.121508 0.331829,-0.211135 0.584526,-0.259122 0.392377,-0.07451 0.701375,0.01841 0.725535,0.218175 0.01754,0.145039 -0.101523,0.277059 -0.444792,0.493169 -0.243678,0.15341 -0.338595,0.235153 -0.338595,0.291596 0,0.08113 0.105326,0.162487 0.210373,0.162487 0.06629,0 0.10033,-0.03346 0.129642,-0.127429 0.03881,-0.124403 0.118129,-0.168278 0.307162,-0.169912 0.132425,-0.0011 0.173545,0.02753 0.179625,0.125236 0.0036,0.05722 -0.0039,0.08609 -0.04009,0.154551 -0.05928,0.112217 -0.198248,0.241064 -0.32045,0.297126 -0.08339,0.03825 -0.109135,0.04338 -0.238395,0.04742 -0.112755,0.0035 -0.162262,-8.79e-4 -0.223124,-0.01986 z m -0.759335,-1.367844 c -0.100003,-0.08182 -0.143025,-0.245169 -0.08003,-0.303867 0.09601,-0.08947 0.217812,-0.02356 0.256529,0.138805 0.0408,0.171125 -0.05714,0.262718 -0.176495,0.165062 z m 0.337105,-0.228008 c -0.07166,-0.07037 -0.09553,-0.12607 -0.09621,-0.224506 -5.77e-4,-0.08347 -6.84e-4,-0.10648 0.0462,-0.150167 0.09304,-0.08669 0.209896,-0.02224 0.245907,0.15931 0.01772,0.08928 -0.0023,0.170168 -0.05486,0.221989 -0.04854,0.04784 -0.08744,0.04601 -0.141039,-0.0066 z m 0.963043,2.48e-4 c -0.0463,-0.02267 -0.09691,-0.09413 -0.108921,-0.153795 -0.0233,-0.115722 0.06565,-0.325464 0.172681,-0.407191 0.174707,-0.133405 0.432519,-0.149418 0.498257,-0.03095 0.05349,0.09638 -0.01701,0.268019 -0.17355,0.422513 -0.144909,0.143017 -0.302245,0.211637 -0.388467,0.169419 z m -0.522757,-0.0925 c -0.05537,-0.0249 -0.09533,-0.123351 -0.09568,-0.235723 -5e-4,-0.164095 0.06931,-0.25162 0.200787,-0.25173 0.08021,-6.7e-5 0.126876,0.05048 0.140516,0.152203 0.01666,0.124293 -0.06712,0.309176 -0.152712,0.33698 -0.05167,0.01679 -0.05175,0.01678 -0.09291,-0.0017 z"
         inkscape:connector-curvature="0"
         id="path4500"
         style="opacity:0.4;fill:#ffffff;fill-opacity:1;stroke:none" />
    </g>
    <path
       d="m 73.6875,23.125 c -2.537991,-0.02436 -4.59018,0.567042 -6.53125,1.09375 -1.941009,0.52669 -3.830402,1.005282 -6.21875,1 -2.362643,-0.0052 -3.742286,-0.573099 -5.53125,-1.125 -1.761197,-0.543335 -3.900634,-1.047524 -7.25,-0.71875 l 0.21875,0.6875 c 3.092471,-0.311783 4.724573,0.07495 6.40625,0.59375 1.703032,0.525388 3.427736,1.212717 6.15625,1.21875 2.703319,0.006 4.868461,-0.566237 6.8125,-1.09375 1.944087,-0.527526 3.70808,-1.021095 5.90625,-1 2.162389,0.02075 3.683051,0.501619 5.21875,1 1.502971,0.48776 3.041256,1.002712 5,0.96875 l -0.09375,-0.65625 c -1.525933,0.02045 -2.71078,-0.385616 -4.21875,-0.875 -1.550775,-0.503276 -3.388935,-1.069894 -5.875,-1.09375 z m 0,4 c -2.537991,-0.02436 -4.59018,0.567043 -6.53125,1.09375 -1.941009,0.526693 -3.830402,1.005282 -6.21875,1 -2.362643,-0.0052 -3.742286,-0.573101 -5.53125,-1.125 -1.761197,-0.543335 -3.900634,-1.047524 -7.25,-0.71875 l 0.21875,0.6875 c 3.092471,-0.311782 4.724572,0.07495 6.40625,0.59375 1.703032,0.525388 3.427736,1.212715 6.15625,1.21875 2.703319,0.006 4.868461,-0.566237 6.8125,-1.09375 1.944087,-0.527526 3.70808,-1.021095 5.90625,-1 2.162389,0.02075 3.683051,0.501619 5.21875,1 1.502971,0.48776 3.041256,1.002712 5,0.96875 l -0.09375,-0.65625 c -1.525933,0.02045 -2.71078,-0.385616 -4.21875,-0.875 -1.550775,-0.503277 -3.388935,-1.069894 -5.875,-1.09375 z m 0,4 c -2.537991,-0.02436 -4.59018,0.567044 -6.53125,1.09375 -1.941009,0.526692 -3.830402,1.005283 -6.21875,1 -2.362643,-0.0052 -3.742286,-0.573101 -5.53125,-1.125 -1.761197,-0.543336 -3.900634,-1.047524 -7.25,-0.71875 l 0.21875,0.6875 c 3.092471,-0.311782 4.724573,0.07495 6.40625,0.59375 1.703031,0.525392 3.427736,1.212715 6.15625,1.21875 2.703319,0.006 4.868461,-0.566237 6.8125,-1.09375 1.944087,-0.527526 3.70808,-1.021093 5.90625,-1 2.162389,0.02075 3.683051,0.501618 5.21875,1 1.50297,0.487762 3.041255,1.002713 5,0.96875 l -0.09375,-0.65625 c -1.525933,0.02045 -2.71078,-0.385614 -4.21875,-0.875 -1.550776,-0.503274 -3.388936,-1.069894 -5.875,-1.09375 z m 0,4 c -2.537991,-0.02436 -4.59018,0.567044 -6.53125,1.09375 -1.941009,0.526693 -3.830402,1.005282 -6.21875,1 -2.362643,-0.0052 -3.742286,-0.573101 -5.53125,-1.125 -1.761197,-0.543335 -3.900634,-1.047525 -7.25,-0.71875 l 0.21875,0.6875 c 3.092471,-0.311782 4.724573,0.07495 6.40625,0.59375 1.703031,0.525392 3.427736,1.212715 6.15625,1.21875 2.703319,0.006 4.868461,-0.566237 6.8125,-1.09375 1.944087,-0.527526 3.70808,-1.021093 5.90625,-1 2.162389,0.02075 3.683051,0.501618 5.21875,1 1.502971,0.487761 3.041256,1.002713 5,0.96875 l -0.09375,-0.65625 c -1.525933,0.02045 -2.71078,-0.385614 -4.21875,-0.875 -1.550776,-0.503274 -3.388936,-1.069895 -5.875,-1.09375 z"
       id="path3813"
       style="opacity:0.3;fill:#000000;fill-opacity:1;fill-rule:evenodd;stroke:none" />
    <g
       id="g3249">
      <path
         d="m 22.6272,26.4312 0.2967,-0.1053 c 0.076,0.2138 0.2255,0.281 0.4488,0.2018 l 0.3255,-0.1155 c 0.2616,-0.093 0.3358,-0.2988 0.2226,-0.6179 l -0.1665,-0.469 -0.7801,0.2768 c -0.3797,0.1348 -0.6363,0.014 -0.7699,-0.3626 l -0.1172,-0.3302 c -0.1608,-0.4531 -0.043,-0.7498 0.3522,-0.8902 l 0.4403,-0.1563 c 0.4084,-0.1449 0.6907,0 0.847,0.4431 l 0.5232,1.474 c 0.1653,0.4658 0.044,0.7712 -0.3646,0.9162 l -0.469,0.1664 c -0.3733,0.1325 -0.6363,-0.011 -0.789,-0.4313 m 1.0167,-1.417 -0.1749,-0.493 C 23.3602,24.2149 23.1926,24.102 22.9661,24.1824 l -0.3733,0.1325 c -0.2265,0.08 -0.2825,0.2871 -0.1679,0.62 0.1075,0.3031 0.2443,0.4252 0.4102,0.3664 l 0.8088,-0.2871 m 1.0305,1.0461 0.1507,-0.054 c 0.038,0.1069 0.1016,0.1445 0.191,0.1128 l 0.2416,-0.086 c 0.1021,-0.036 0.1232,-0.1362 0.063,-0.3 -0.055,-0.1547 -0.1491,-0.2075 -0.2825,-0.1584 l -0.1125,0.04 -0.055,-0.1556 0.1125,-0.04 c 0.134,-0.048 0.171,-0.1559 0.111,-0.325 -0.053,-0.1484 -0.1242,-0.2056 -0.2146,-0.1717 l -0.2799,0.099 c -0.072,0.025 -0.089,0.092 -0.051,0.1986 l -0.1532,0.054 c -0.075,-0.2106 -0.015,-0.3504 0.1799,-0.4195 l 0.2728,-0.097 c 0.1722,-0.061 0.2941,0.01 0.3654,0.2098 l 0.053,0.1508 c 0.053,0.1499 0.019,0.2563 -0.1022,0.3192 0.1378,-0.017 0.2293,0.039 0.2746,0.1665 l 0.056,0.158 c 0.076,0.2137 0.018,0.3546 -0.1734,0.4225 l -0.2441,0.087 c -0.1946,0.069 -0.3293,0 -0.404,-0.2123 m 1.8901,-0.5873 c 0.056,0.1617 0.01,0.2694 -0.1439,0.3232 L 26.0392,25.93 c -0.1579,0.056 -0.2637,0 -0.3172,-0.165 L 25.39,24.8283 c -0.054,-0.1532 -0.01,-0.2547 0.1371,-0.3046 l 0.3948,-0.1402 c 0.1516,-0.054 0.2542,0 0.308,0.1467 l 0.3346,0.9428 m -0.4677,-0.8495 c -0.027,-0.077 -0.083,-0.1 -0.1676,-0.07 l -0.2943,0.1044 c -0.081,0.029 -0.1084,0.082 -0.081,0.1582 l 0.3015,0.8495 c 0.027,0.082 0.051,0.1251 0.165,0.09 l 0.3206,-0.1138 c 0.092,-0.043 0.086,-0.093 0.059,-0.1712 z m 1.3952,-0.4479 0.389,1.0959 -0.2968,0.1053 -1.0004,-2.8189 0.9667,-0.3431 c 0.4351,-0.1508 0.733,3e-4 0.8938,0.4534 l 0.1104,0.3111 c 0.1721,0.485 0.041,0.8044 -0.3927,0.9585 l -0.67,0.2378 m -0.5011,-1.4119 0.3907,1.1008 0.6604,-0.2344 c 0.2425,-0.086 0.3162,-0.2631 0.2211,-0.5311 L 28.151,22.7831 C 28.06,22.5278 27.8938,22.4432 27.6514,22.5293 l -0.6605,0.2344 m 4.3509,1.2795 -0.2967,0.1053 -0.8357,-2.3546 c 0.1297,0.8437 0.2132,1.6935 0.3093,2.5415 l -0.335,0.1189 C 29.7192,23.746 29.2649,23.0261 28.8253,22.2968 l 0.834,2.3499 -0.3015,0.107 -1.0005,-2.8189 0.4499,-0.1596 c 0.49,0.7872 0.9736,1.5786 1.4512,2.3733 -0.146,-0.9156 -0.2502,-1.8378 -0.3696,-2.7572 l 0.4499,-0.1597 1.0004,2.8189 m -5.8411,6.3841 -0.4115,0.1461 c -0.5718,-0.6292 -1.1277,-1.272 -1.6739,-1.9225 l 0.7932,2.235 -0.2967,0.1053 -1.0004,-2.8189 0.335,-0.1189 c 0.6136,0.6863 1.2179,1.381 1.8118,2.0837 l -0.8594,-2.4217 0.3015,-0.107 1.0004,2.8189 m 1.9011,-1.219 c 0.1112,0.3234 0.015,0.5389 -0.2879,0.6465 l -0.761,0.2701 c -0.3158,0.1121 -0.5273,0 -0.6344,-0.3299 L 25.05,27.9262 c -0.1087,-0.3063 -0.017,-0.5094 0.2741,-0.6092 l 0.7897,-0.2803 c 0.3031,-0.1076 0.5085,-0.01 0.616,0.2933 l 0.6693,1.8856 m -0.9354,-1.699 c -0.054,-0.1531 -0.1661,-0.1997 -0.3352,-0.1397 l -0.5887,0.209 c -0.1627,0.058 -0.2169,0.1632 -0.1625,0.3163 l 0.603,1.699 c 0.078,0.2135 0.1484,0.253 0.3313,0.1903 l 0.6413,-0.2276 c 0.204,-0.083 0.1836,-0.1462 0.1116,-0.3479 z m 2.0101,-1.3177 0.3591,3.0465 -0.402,0.1427 -1.6083,-2.6032 0.3063,-0.1087 c 0.5135,0.7839 0.9856,1.5905 1.4375,2.4105 -0.1841,-0.9186 -0.283,-1.8503 -0.399,-2.7791 l 0.3063,-0.1087 m 2.4784,2.2944 -0.2968,0.1053 -0.8917,-2.5126 -0.3781,0.1342 -0.1104,-0.3111 0.6748,-0.2395 1.0022,2.8237 m 1.2724,-2.9304 -0.3015,0.107 c -0.069,-0.2161 -0.2191,-0.2833 -0.4489,-0.2018 l -0.3733,0.1325 c -0.2265,0.08 -0.2877,0.2674 -0.1835,0.5609 l 0.1801,0.5073 0.8471,-0.3006 c 0.335,-0.1189 0.571,0.015 0.708,0.4007 l 0.1342,0.3781 c 0.1461,0.4116 0,0.6938 -0.427,0.8467 l -0.3972,0.141 c -0.4084,0.1449 -0.6738,0.04 -0.7964,-0.3155 L 30.553,26.0914 c -0.1391,-0.3817 -0.024,-0.6382 0.3465,-0.7696 l 0.5695,-0.2021 c 0.3519,-0.1321 0.6037,0.016 0.7555,0.4432 m -1.0167,1.417 0.1817,0.5121 c 0.101,0.2947 0.2664,0.4012 0.4961,0.3197 l 0.3494,-0.124 c 0.2361,-0.084 0.2984,-0.2927 0.187,-0.6268 -0.1075,-0.3031 -0.2634,-0.4185 -0.4676,-0.346 l -0.7466,0.265 m -5.1176,7.1997 1.3449,-0.4773 0.1104,0.311 -1.6464,0.5844 -0.3176,-0.895 c -0.1608,-0.4531 -0.032,-0.7538 0.3858,-0.9021 l 0.4833,-0.1716 c 0.168,-0.063 0.2197,-0.1857 0.1552,-0.3676 l -0.1427,-0.402 c -0.063,-0.1787 -0.1733,-0.2403 -0.3296,-0.1848 l -0.6366,0.2259 c -0.1276,0.045 -0.1676,0.135 -0.1201,0.269 l 0.043,0.1196 -0.3015,0.107 -0.019,-0.053 c -0.137,-0.3861 -0.04,-0.638 0.2922,-0.7558 l 0.5935,-0.2106 c 0.3701,-0.1313 0.6185,-0.018 0.7454,0.339 l 0.1528,0.4307 c 0.071,0.201 0.082,0.3679 0.032,0.5006 -0.2416,0.3216 -0.5112,0.3176 -0.871,0.4761 -0.1979,0.07 -0.2527,0.2244 -0.1646,0.4626 l 0.2106,0.5935 m 3.3413,-1.3799 c 0.1112,0.3234 0.015,0.5389 -0.2879,0.6464 l -0.761,0.2701 c -0.3158,0.1121 -0.5273,0 -0.6344,-0.3299 l -0.6658,-1.876 c -0.1087,-0.3063 -0.017,-0.5094 0.2742,-0.6093 l 0.7896,-0.2802 c 0.3031,-0.1076 0.5085,-0.01 0.6161,0.2933 l 0.6692,1.8856 m -0.9354,-1.699 C 28.4421,30.9472 28.33,30.9006 28.1609,30.9606 l -0.5886,0.2089 c -0.1628,0.058 -0.217,0.1632 -0.1626,0.3164 l 0.603,1.699 c 0.074,0.2449 0.2188,0.2296 0.3313,0.1903 l 0.6413,-0.2276 c 0.1728,-0.06 0.1758,-0.1697 0.1116,-0.3479 z m 3.0156,0.9551 c 0.1112,0.3234 0.015,0.5388 -0.2879,0.6464 l -0.761,0.2701 c -0.3158,0.1121 -0.5273,0 -0.6344,-0.3299 l -0.6658,-1.8761 c -0.1087,-0.3063 -0.017,-0.5093 0.2742,-0.6092 l 0.7896,-0.2803 c 0.3031,-0.1075 0.5085,-0.01 0.6161,0.2933 l 0.6692,1.8857 m -0.9354,-1.699 c -0.054,-0.1532 -0.1661,-0.1997 -0.3352,-0.1397 l -0.5886,0.2089 c -0.1628,0.058 -0.217,0.1632 -0.1626,0.3164 l 0.603,1.699 c 0.062,0.1902 0.1641,0.2569 0.3313,0.1903 l 0.6413,-0.2276 c 0.2208,-0.076 0.1629,-0.2097 0.1116,-0.348 z m 1.239,0.5348 c -0.1806,0.017 -0.3287,-0.1366 -0.4442,-0.462 l -0.095,-0.268 c -0.1415,-0.3988 -0.03,-0.6628 0.3333,-0.7919 l 0.5599,-0.1987 c 0.3628,-0.1216 0.6139,0.014 0.7532,0.4063 l 0.093,0.2632 c 0.1166,0.3286 0.079,0.5467 -0.1127,0.6543 0.2156,-0.041 0.3805,0.1003 0.4949,0.4225 l 0.097,0.2728 c 0.1472,0.4148 0.04,0.6862 -0.32,0.8141 l -0.5599,0.1988 c -0.3638,0.129 -0.6192,-0.014 -0.7665,-0.4286 l -0.1036,-0.2919 c -0.1042,-0.2935 -0.081,-0.4905 0.07,-0.5909 m 0.863,-1.0607 c -0.103,-0.2903 -0.2615,-0.3975 -0.4752,-0.3217 l -0.4068,0.1444 c -0.217,0.077 -0.27,0.2719 -0.159,0.5845 0.1164,0.318 0.2608,0.4463 0.4331,0.3852 l 0.5264,-0.1869 c 0.1691,-0.06 0.1963,-0.2619 0.081,-0.6055 m 0.4552,1.2826 c -0.1151,-0.304 -0.2556,-0.4266 -0.4215,-0.3677 l -0.5217,0.1851 c -0.1882,0.067 -0.2208,0.2634 -0.098,0.5898 0.1087,0.3063 0.2715,0.4209 0.4885,0.3439 l 0.3877,-0.1375 c 0.2201,-0.078 0.2751,-0.2827 0.1648,-0.6136"
         inkscape:connector-curvature="0"
         id="text3686"
         style="font-style:normal;font-variant:normal;font-weight:normal;font-stretch:normal;font-size:8px;line-height:80.000001%;font-family:'Forgotten Futurist';-inkscape-font-specification:'Forgotten Futurist';text-align:center;writing-mode:lr-tb;text-anchor:middle;opacity:0.4;fill:#000000;fill-opacity:1;stroke:none"
         sodipodi:nodetypes="cccccccccccccscccccsccccccccccccccscccccccccccccccccccccccccccccccccccccsccccccccccccccccccccccccccccccccccccccccccccccccccccccccccccccccccccccsccsccccccccccsccccccccccccccccccccccccccccccccccccccccccccccccccccccccccccccccccccccccccsccccccccccccccscc" />
      <path
         d="m 92.737353,46.92009 a 11.368678,11.368678 0 1 1 -22.737356,0 11.368678,11.368678 0 1 1 22.737356,0 z"
         transform="matrix(1.0070864,0,0,1.0070864,-53.988363,-19.285691)"
         id="path4514"
         style="opacity:0.4;fill:none;stroke:#000000;stroke-width:0.49648172;stroke-linecap:butt;stroke-linejoin:round;stroke-miterlimit:4;stroke-opacity:1;stroke-dasharray:none;stroke-dashoffset:0" />
      <path
         d="m 92.737353,46.92009 a 11.368678,11.368678 0 1 1 -22.737356,0 11.368678,11.368678 0 1 1 22.737356,0 z"
         transform="matrix(0.7329417,0,0,0.7329417,-31.68157,-6.4227962)"
         id="path3516"
         style="opacity:0.4;fill:none;stroke:none" />
      <path
         d="m 58.568905,21.904593 -1.25675,-0.781997 -1.087129,1.004536 0.355366,-1.436891 -1.291311,-0.723502 1.476378,-0.106051 0.289055,-1.451684 0.557086,1.371348 1.469956,-0.173688 -1.13208,0.95359 z"
         transform="matrix(0.6503109,-0.2031698,0.2031698,0.6503109,-10.507603,35.292367)"
         id="path4533"
         style="opacity:0.4;fill:#000000;fill-opacity:1;fill-rule:nonzero;stroke:none" />
      <path
         d="m 58.568905,21.904593 -1.25675,-0.781997 -1.087129,1.004536 0.355366,-1.436891 -1.291311,-0.723502 1.476378,-0.106051 0.289055,-1.451684 0.557086,1.371348 1.469956,-0.173688 -1.13208,0.95359 z"
         transform="matrix(0.6503109,-0.2031698,0.2031698,0.6503109,-7.2860525,33.372029)"
         id="path4535"
         style="opacity:0.4;fill:#000000;fill-opacity:1;fill-rule:nonzero;stroke:none" />
      <path
         d="m 58.568905,21.904593 -1.25675,-0.781997 -1.087129,1.004536 0.355366,-1.436891 -1.291311,-0.723502 1.476378,-0.106051 0.289055,-1.451684 0.557086,1.371348 1.469956,-0.173688 -1.13208,0.95359 z"
         transform="matrix(0.6503109,-0.2031698,0.2031698,0.6503109,-14.253592,35.701926)"
         id="path4537"
         style="opacity:0.4;fill:#000000;fill-opacity:1;fill-rule:nonzero;stroke:none" />
      <path
         d="m 21.5837,32.2572 1.0053,1.206 -2.2621,1.8856 -1.0053,-1.2059 0.2496,-0.2081 0.8036,0.964 0.7528,-0.6275 -0.397,-0.4762 0.2496,-0.2081 0.397,0.4762 0.7605,-0.6339 -0.8036,-0.964 0.2496,-0.2081 m -3.4401,-0.3125 2.9391,-0.6953 0.1849,0.3771 -2.3644,1.867 -0.141,-0.2873 c 0.708,-0.5918 1.4451,-1.1426 2.1954,-1.6782 -0.8777,0.2837 -1.7778,0.4856 -2.6731,0.704 l -0.1409,-0.2873 m 1.7179,-3.2016 c 0.3311,-0.061 0.5269,0.064 0.5874,0.3747 l 0.1519,0.7803 c 0.063,0.324 -0.075,0.5138 -0.4138,0.5696 l -1.9239,0.3744 c -0.3141,0.061 -0.4985,-0.057 -0.5532,-0.3558 l -0.1576,-0.8098 c -0.06,-0.3109 0.065,-0.4965 0.3755,-0.557 l 1.9337,-0.3764 m -0.044,0.3243 -1.7423,0.3391 c -0.157,0.031 -0.2187,0.1326 -0.1849,0.306 l 0.1175,0.6037 c 0.033,0.1669 0.1272,0.235 0.2843,0.2044 l 1.7423,-0.3391 c 0.095,-0.018 0.1604,-0.057 0.1967,-0.1147 0.036,-0.058 0.048,-0.118 0.036,-0.1802 l -0.128,-0.6577 c -0.012,-0.062 -0.05,-0.1074 -0.113,-0.1359 -0.064,-0.032 -0.1335,-0.04 -0.2088,-0.026 m 0.5925,-2.0158 -0.036,1.1844 -2.9636,-0.09 0.01,-0.3099 2.6338,0.08 0.026,-0.8746 0.3299,0.01 m -2.8594,-0.8318 0.079,-0.2999 2.1086,0.5532 c 0.287,0.075 0.4618,-0.01 0.5243,-0.245 l 0.118,-0.4498 c 0.062,-0.2353 -0.051,-0.3907 -0.3378,-0.4659 l -2.1086,-0.5532 0.077,-0.295 2.0264,0.5316 c 0.5513,0.1446 0.7691,0.4378 0.6532,0.8795 l -0.1129,0.4304 c -0.1151,0.4385 -0.4487,0.5871 -1.0009,0.4457 l -2.0264,-0.5316 m 1.8986,-3.9142 -0.3105,0.5597 2.3042,1.2782 -0.1503,0.2711 -2.3043,-1.2782 -0.2837,0.5115 -0.2842,-0.1576 0.7446,-1.3423 0.2842,0.1576 m 2.6286,0.926 -0.1931,0.2488 -2.3265,-1.8057 0.1932,-0.2489 2.3264,1.8058 m 1.2265,-1.9 c 0.2203,0.2546 0.2117,0.4867 -0.026,0.6962 l -0.5961,0.526 c -0.2474,0.2184 -0.481,0.1955 -0.7006,-0.069 l -1.2969,-1.4697 c -0.2117,-0.2399 -0.2027,-0.459 0.027,-0.6572 l 0.6186,-0.5458 c 0.2375,-0.2096 0.461,-0.1956 0.6705,0.042 l 1.3034,1.4772 m -0.3019,0.1264 -1.1744,-1.331 c -0.1059,-0.1199 -0.2251,-0.1215 -0.3575,-0 l -0.4612,0.4069 c -0.1274,0.1125 -0.1382,0.2288 -0.032,0.3487 l 1.1745,1.3309 c 0.064,0.073 0.1301,0.1097 0.1984,0.1116 0.068,0 0.1263,-0.018 0.1738,-0.06 l 0.5024,-0.4433 c 0.047,-0.042 0.067,-0.097 0.06,-0.1663 -0.01,-0.071 -0.033,-0.1354 -0.084,-0.1929 m 2.4812,-0.6865 -0.3879,0.1855 c -0.6248,-0.5571 -1.2355,-1.1291 -1.8373,-1.7097 l 1.0073,2.1066 -0.2796,0.1337 -1.2706,-2.6568 0.3158,-0.151 c 0.6717,0.6086 1.3351,1.2264 1.9891,1.8532 l -1.0915,-2.2825 0.2842,-0.1359 1.2705,2.6569 m 3.1222,-0.4407 -0.3094,0.019 -0.1538,-2.4552 c -0.1055,0.8338 -0.2565,1.6609 -0.3951,2.4896 l -0.3494,0.022 C 27.1549,19.604 26.9198,18.7996 26.701,17.9902 l 0.1534,2.4502 -0.3144,0.02 -0.184,-2.9392 0.469,-0.029 c 0.2508,0.8779 0.4944,1.7579 0.7314,2.6395 0.1096,-0.9063 0.2606,-1.8074 0.3964,-2.7101 l 0.4691,-0.029 0.1841,2.9393 m 2.0028,0.4294 -0.3126,-0.069 0.01,-0.4843 -0.8693,-0.1907 -0.1995,0.4425 -0.3126,-0.069 1.1928,-2.7533 0.5617,0.1232 -0.07,2.9998 m -0.3022,-0.8854 c 0.01,-0.6916 0.039,-1.3822 0.071,-2.0729 -0.2517,0.6444 -0.534,1.2762 -0.8084,1.9111 l 0.7375,0.1618 m 0.7418,1.1155 -0.2922,-0.1177 1.1,-2.7318 0.2922,0.1177 -1.1,2.7318 m 1.4199,0.7609 -1.0233,-0.5976 1.4952,-2.5603 0.2677,0.1563 -1.3288,2.2754 0.7556,0.4412 -0.1664,0.285 m 1.8488,1.7839 -0.576,-0.6183 c -0.3545,-0.3804 -0.3232,-0.7649 0.094,-1.1535 l 0.9585,-0.893 c 0.3829,-0.3567 0.7491,-0.3426 1.0987,0.042 l 0.576,0.6182 -0.2304,0.2148 -0.6101,-0.6549 c -0.1909,-0.2048 -0.3851,-0.2152 -0.5827,-0.031 l -1.0026,0.941 c -0.2559,0.2339 -0.2975,0.4435 -0.1248,0.6288 l 0.6374,0.6841 -0.2378,0.2216 m 0.6323,1.1003 -0.6256,-1.0064 2.5182,-1.5653 0.1636,0.2632 -2.2379,1.3911 0.462,0.7431 -0.2803,0.1743 m 0.1402,0.39 -0.1294,-0.2872 2.6852,-1.2095 0.1294,0.2872 -2.6852,1.2095 m 0.5789,1.909 -0.3886,-1.5212 2.8534,-0.7288 0.3885,1.5211 -0.3149,0.08 -0.3106,-1.2159 -0.9495,0.2425 0.1535,0.6007 -0.3149,0.081 -0.1535,-0.6007 -0.9592,0.245 0.3106,1.2159 -0.3148,0.081 m 0.029,2 0,-0.43 c 0.7746,-0.3171 1.5566,-0.6149 2.3423,-0.9011 l -2.3349,-0.019 0,-0.3099 2.9449,0.024 -0,0.35 c -0.8416,0.3365 -1.6878,0.6617 -2.5379,0.9745 l 2.5299,0.02 -0,0.315 -2.9449,-0.024 m 2.107,2.4785 0.1628,-0.6189 -2.5484,-0.6701 0.079,-0.2998 2.5484,0.6701 0.1488,-0.5658 0.3143,0.083 -0.3904,1.4846 -0.3143,-0.083"
         inkscape:connector-curvature="0"
         id="text3717"
         style="font-style:normal;font-variant:normal;font-weight:normal;font-stretch:normal;font-size:5px;line-height:120.000005%;font-family:'Forgotten Futurist';-inkscape-font-specification:'Forgotten Futurist';text-align:start;writing-mode:lr-tb;text-anchor:start;opacity:0.4;fill:#000000;fill-opacity:1;stroke:none"
         sodipodi:nodetypes="ccccccccccccccccccccccccccccsccccccccccccccccccccccccsccccscccccccccccccccccccccccccccccccccccccccccccccccccccccccccccccccccccccccccccccccccccccccscccccccccccccccccccccccccccccccccccccccccccccccccccccccc" />
    </g>
  </g>
  <g
     id="layer3">
    <path
       d="M 14.46875,6 12,10 l 9.90625,0 2.5,-4 -9.9375,0 z m 14.96875,0 -2.46875,4 9.90625,0 2.5,-4 -9.9375,0 z m 14.875,0 -2.46875,4 9.90625,0 2.5,-4 -9.9375,0 z m 14.875,0 -2.46875,4 9.9375,0 2.46875,-4 -9.9375,0 z m 14.90625,0 -2.5,4 9.9375,0 L 84,6 74.09375,6 z M 10,12 l -4,2.46875 0,9.9375 4,-2.5 L 10,12 z m 80,0 -4,2.46875 0,9.9375 4,-2.5 L 90,12 z m -80,14.875 -4,2.46875 0,9.9375 4,-2.46875 0,-9.9375 z m 80,0 -4,2.46875 0,9.9375 4,-2.46875 0,-9.9375 z M 10,41.75 6,44.25 6,54.15625 10,51.6875 10,41.75 z m 80,0 -4,2.5 0,9.90625 4,-2.46875 0,-9.9375 z m -80,14.875 -4,2.5 0,9.90625 4,-2.46875 0,-9.9375 z m 80,0 -4,2.5 0,9.90625 4,-2.46875 0,-9.9375 z m -80,14.96875 -4,2.5 L 6,84 l 4,-2.46875 0,-9.9375 z m 80,0 -4,2.5 0,9.90625 4,-2.46875 0,-9.9375 z M 14.46875,86 12,90 l 9.90625,0 2.5,-4 -9.9375,0 z m 14.96875,0 -2.46875,4 9.90625,0 2.5,-4 -9.9375,0 z m 14.875,0 -2.46875,4 9.90625,0 2.5,-4 -9.9375,0 z m 14.875,0 -2.46875,4 9.9375,0 2.46875,-4 -9.9375,0 z m 14.90625,0 -2.5,4 9.9375,0 L 84,86 74.09375,86 z"
       inkscape:connector-curvature="0"
       id="rect3407"
       style="fill:url(#linearGradient3388);fill-opacity:1;fill-rule:nonzero;stroke:none" />
    <path
       style="opacity:0.5;fill:url(#linearGradient3188);fill-opacity:1;fill-rule:nonzero;stroke:none"
       d="M 12,6 C 8.11425,5.86322 5.41842,9.7916 6,13.4226 6.01818,37.1117 5.96366,60.8028 6.02722,84.4906 5.28212,86.832 10.5383,90.304 9.3125,89.2188 6.06854,87.1931 7.20932,83.0939 7,79.9177 7.01709,57.4405 6.96584,34.9616 7.02559,12.4854 7.23709,9.18494 10.6966,7.53688 13.6597,8 c 23.6181,0.0171 47.2379,-0.0342 70.8549,0.0256 3.3005,0.2115 4.9485,3.67101 4.4854,6.63411 -0.023,23.6263 0.047,47.2557 -0.035,70.8801 0.6394,2.1759 -4.9496,5.3488 -1.4521,3.2816 C 91.0463,86.3401 89.75,81.8397 90,78.2064 89.9794,55.9328 90.0412,33.6571 89.9691,11.3848 89.7161,7.60949 85.8108,5.47598 82.3403,6 58.8935,6 35.4468,6 12,6 Z"
       id="rect3728"
       inkscape:connector-curvature="0" />
    <rect
       width="66"
       height="66"
       rx="12"
       ry="12"
       x="15"
       y="15"
       clip-path="url(#clipPath3613)"
       id="rect3171"
       style="opacity:0.1;fill:url(#linearGradient2885);fill-opacity:1;fill-rule:nonzero;stroke:#ffffff;stroke-width:0.5;stroke-linecap:round;stroke-linejoin:miter;stroke-miterlimit:4;stroke-opacity:1;stroke-dasharray:none;stroke-dashoffset:0;filter:url(#filter3794)" />
  </g>
  <flowRoot
     xml:space="preserve"
     id="flowRoot852"
     style="font-size:16px;line-height:125%;font-family:sans-serif;letter-spacing:0px;word-spacing:0px;fill:none;stroke:#000000;stroke-width:1px;stroke-linecap:butt;stroke-linejoin:miter;stroke-opacity:1"><flowRegion
       id="flowRegion854"><rect
         id="rect856"
         width="50.0383"
         height="38.8235"
         x="-20.5831"
         y="121.022" /></flowRegion><flowPara
       id="flowPara858">SherlockShrl</flowPara></flowRoot>  <text
     xml:space="preserve"
     style="font-size:8px;line-height:125%;font-family:sans-serif;letter-spacing:0px;word-spacing:0px;fill:#637ba2;stroke:none;stroke-width:1px;stroke-linecap:butt;stroke-linejoin:miter;stroke-opacity:1;fill-opacity:1;"
     x="20.4045"
     y="62.764"
     id="text862"><tspan
       sodipodi:role="line"
       id="tspan860"
       x="20.4045"
       y="62.764"
       style="font-style:normal;font-variant:normal;font-weight:normal;font-stretch:normal;font-size:8px;font-family:Aegyptus;-inkscape-font-specification:Aegyptus;fill:#637ba2;stroke:none;fill-opacity:1;">Sherlock Holmes</tspan></text>
  <text
     id="text866"
     y="69.5329"
     x="20.4437"
     style="font-size:8px;line-height:125%;font-family:sans-serif;letter-spacing:0px;word-spacing:0px;fill:#637ba2;stroke:#000000;stroke-width:1px;stroke-linecap:butt;stroke-linejoin:miter;stroke-opacity:1;fill-opacity:1;"
     xml:space="preserve"><tspan
       style="font-style:normal;font-variant:normal;font-weight:normal;font-stretch:normal;font-size:8px;font-family:Aegyptus;-inkscape-font-specification:Aegyptus;stroke:none;fill:#637ba2;fill-opacity:1;"
       y="69.5329"
       x="20.4437"
       id="tspan864"
       sodipodi:role="line">221b Baker Street</tspan></text>
  <text
     xml:space="preserve"
     style="font-size:8px;line-height:125%;font-family:sans-serif;letter-spacing:0px;word-spacing:0px;fill:#637ba2;stroke:none;stroke-width:1px;stroke-linecap:butt;stroke-linejoin:miter;stroke-opacity:1;fill-opacity:1;"
     x="20.0687"
     y="76.3018"
     id="text870"><tspan
       sodipodi:role="line"
       id="tspan868"
       x="20.0687"
       y="76.3018"
       style="font-style:normal;font-variant:normal;font-weight:normal;font-stretch:normal;font-size:8px;font-family:Aegyptus;-inkscape-font-specification:Aegyptus;stroke:none;fill:#637ba2;fill-opacity:1;">London City</tspan></text>
  <g
     id="g1867"
     transform="translate(-80)">
    <g
       id="text1695"
       style="font-size:8px;line-height:125%;font-family:sans-serif;letter-spacing:0px;word-spacing:0px;fill:#637ba2;fill-opacity:1;stroke:none;stroke-width:1px;stroke-linecap:butt;stroke-linejoin:miter;stroke-opacity:1"
       aria-label="Sherlock Holmes">
      <path
         inkscape:connector-curvature="0"
         id="path1757"
         d="m 103.354,58.7757 c -0.03,0.2013 -0.08,0.4007 -0.13,0.5977 -0.09,0.1079 -0.284,0.056 -0.234,-0.094 0.02,-0.1892 -0.04,-0.3945 -0.201,-0.5077 -0.311,-0.2325 -0.795,-0.092 -0.987,0.231 -0.201,0.3048 -0.133,0.7119 0.07,0.9939 0.205,0.2875 0.475,0.5208 0.712,0.7815 0.246,0.244 0.457,0.5708 0.428,0.9312 0.01,0.4124 -0.254,0.7939 -0.619,0.9708 -0.432,0.2226 -0.951,0.2051 -1.409,0.08 -0.138,-0.067 -0.43,-0.1121 -0.39,-0.3116 0.06,-0.1997 0.11,-0.401 0.183,-0.5951 0.109,-0.1197 0.33,-0.033 0.209,0.1355 -0.08,0.1743 -0.06,0.423 0.124,0.521 0.252,0.124 0.557,0.1093 0.822,0.031 0.299,-0.09 0.555,-0.3667 0.54,-0.6919 0,-0.3879 -0.292,-0.6888 -0.548,-0.9482 -0.284,-0.312 -0.641,-0.596 -0.754,-1.022 -0.123,-0.4768 0.09,-1.0195 0.51,-1.2778 0.397,-0.2593 0.915,-0.2345 1.338,-0.052 0.124,0.05 0.276,0.1093 0.331,0.2269 z"
         style="font-style:normal;font-variant:normal;font-weight:normal;font-stretch:normal;font-size:8px;font-family:Aegyptus;-inkscape-font-specification:Aegyptus;fill:#637ba2;fill-opacity:1;stroke:none" />
      <path
         inkscape:connector-curvature="0"
         id="path1759"
         d="m 105.971,60.6781 c 0,0.7246 -0.373,1.4085 -0.895,1.8924 -0.159,0.1469 -0.415,0.2718 -0.617,0.1359 -0.137,-0.1256 -0.07,-0.4325 0.137,-0.4297 0.176,-0.021 0.329,0.2555 0.444,0 0.239,-0.3552 0.37,-0.7745 0.444,-1.193 0.02,-0.1885 0.06,-0.4192 -0.07,-0.5763 -0.154,-0.098 -0.341,0.027 -0.466,0.1212 -0.368,0.3148 -0.618,0.7399 -0.861,1.1525 -0.155,0.2718 -0.276,0.5616 -0.365,0.8616 -0.07,0.1551 -0.471,0.091 -0.371,-0.113 0.349,-1.2075 0.7,-2.4146 1.048,-3.6224 0.09,-0.2366 -0.192,-0.263 -0.325,-0.3501 0,-0.2147 0.246,-0.1729 0.389,-0.2039 0.17,0.016 0.411,-0.2033 0.527,-0.051 -0.291,1.0137 -0.589,2.0259 -0.882,3.039 0.278,-0.4282 0.578,-0.8729 1.028,-1.1363 0.214,-0.1208 0.531,-0.1793 0.718,0.019 0.104,0.1225 0.139,0.3133 0.121,0.4588 z"
         style="font-style:normal;font-variant:normal;font-weight:normal;font-stretch:normal;font-size:8px;font-family:Aegyptus;-inkscape-font-specification:Aegyptus;fill:#637ba2;fill-opacity:1;stroke:none" />
      <path
         inkscape:connector-curvature="0"
         id="path1761"
         d="m 108.268,60.5765 c 0,0.2648 -0.174,0.4935 -0.396,0.6182 -0.36,0.2076 -0.779,0.2783 -1.186,0.331 -0.02,0.2262 -0.06,0.4745 0.06,0.6827 0.111,0.1907 0.36,0.2449 0.563,0.208 0.198,-0.056 0.335,-0.2179 0.481,-0.3516 0.08,-0.01 0.185,0.1431 0.07,0.206 -0.206,0.2703 -0.516,0.4874 -0.866,0.4928 -0.254,0.017 -0.511,-0.1057 -0.65,-0.3206 -0.183,-0.261 -0.16,-0.5991 -0.11,-0.8976 0.09,-0.4523 0.327,-0.8789 0.68,-1.1763 0.267,-0.2186 0.634,-0.3275 0.974,-0.2537 0.206,0.046 0.386,0.2277 0.381,0.4469 v 0.014 z m -0.406,0.035 c 0,-0.1255 -0.06,-0.2801 -0.202,-0.2802 -0.27,-0.015 -0.484,0.1938 -0.629,0.3978 -0.124,0.1724 -0.219,0.3649 -0.286,0.5659 0.318,-0.042 0.654,-0.095 0.918,-0.2913 0.122,-0.092 0.203,-0.2376 0.199,-0.3922 z"
         style="font-style:normal;font-variant:normal;font-weight:normal;font-stretch:normal;font-size:8px;font-family:Aegyptus;-inkscape-font-specification:Aegyptus;fill:#637ba2;fill-opacity:1;stroke:none" />
      <path
         inkscape:connector-curvature="0"
         id="path1763"
         d="m 110.659,60.4085 c 0,0.1489 -0.103,0.3176 -0.266,0.3089 -0.124,0.014 -0.206,-0.2036 -0.325,-0.1008 -0.399,0.3746 -0.678,0.8642 -0.853,1.3788 -0.07,0.2307 -0.15,0.4615 -0.241,0.6859 -0.06,0.1267 -0.238,0.094 -0.327,0.024 -0.08,-0.079 0,-0.1796 0.02,-0.2654 0.14,-0.4063 0.288,-0.8102 0.422,-1.2185 0.05,-0.1988 0.117,-0.4111 0.07,-0.6169 -0.04,-0.134 -0.217,-0.085 -0.299,-0.023 -0.125,0.088 -0.199,0.2244 -0.3,0.3354 -0.149,-0.015 -0.147,-0.16 -0.06,-0.246 0.132,-0.1958 0.281,-0.3903 0.481,-0.5207 0.15,-0.1065 0.387,-0.036 0.444,0.1422 0.08,0.2486 0.04,0.5185 -0.01,0.7697 -0.03,0.1131 0.09,-0.1277 0.13,-0.1721 0.179,-0.2626 0.36,-0.5371 0.621,-0.7255 0.108,-0.085 0.279,-0.1048 0.379,0 0.07,0.062 0.112,0.1541 0.113,0.2404 z"
         style="font-style:normal;font-variant:normal;font-weight:normal;font-stretch:normal;font-size:8px;font-family:Aegyptus;-inkscape-font-specification:Aegyptus;fill:#637ba2;fill-opacity:1;stroke:none" />
      <path
         inkscape:connector-curvature="0"
         id="path1765"
         d="m 112.268,58.2992 c -0.01,0.1188 -0.06,0.2319 -0.09,0.3484 -0.337,1.1622 -0.676,2.324 -1.012,3.4865 -0.09,0.1849 0.129,0.274 0.238,0.1276 0.162,-0.1282 0.278,-0.308 0.446,-0.4275 0.2,0.082 0.02,0.2792 -0.09,0.3643 -0.228,0.2009 -0.456,0.4139 -0.733,0.5431 -0.142,0.066 -0.358,-0.01 -0.354,-0.1874 0,-0.283 0.116,-0.5472 0.185,-0.8175 0.275,-0.9449 0.552,-1.8892 0.825,-2.8345 0.09,-0.2235 -0.16,-0.2678 -0.29,-0.3493 -0.02,-0.2111 0.23,-0.1718 0.367,-0.2027 0.171,0.013 0.352,-0.1591 0.501,-0.078 v 0.027 z"
         style="font-style:normal;font-variant:normal;font-weight:normal;font-stretch:normal;font-size:8px;font-family:Aegyptus;-inkscape-font-specification:Aegyptus;fill:#637ba2;fill-opacity:1;stroke:none" />
      <path
         inkscape:connector-curvature="0"
         id="path1767"
         d="m 114.608,61.0609 c 0,0.4802 -0.178,0.9591 -0.511,1.3054 -0.226,0.2483 -0.554,0.4188 -0.895,0.3966 -0.304,0 -0.595,-0.1807 -0.738,-0.4492 -0.177,-0.3168 -0.149,-0.7022 -0.06,-1.0419 0.118,-0.407 0.368,-0.79 0.733,-1.015 0.282,-0.1653 0.642,-0.2209 0.951,-0.1012 0.341,0.143 0.523,0.5238 0.521,0.88 z m -0.453,-0.1328 c 0,-0.2262 -0.08,-0.4979 -0.318,-0.5786 -0.223,-0.074 -0.445,0.071 -0.579,0.2412 -0.32,0.3987 -0.493,0.9198 -0.456,1.4311 0.02,0.197 0.118,0.4278 0.325,0.4907 0.231,0.061 0.448,-0.098 0.583,-0.2724 0.287,-0.3712 0.455,-0.8412 0.445,-1.312 z"
         style="font-style:normal;font-variant:normal;font-weight:normal;font-stretch:normal;font-size:8px;font-family:Aegyptus;-inkscape-font-specification:Aegyptus;fill:#637ba2;fill-opacity:1;stroke:none" />
      <path
         inkscape:connector-curvature="0"
         id="path1769"
         d="m 117.05,60.4788 c 0.02,0.1334 -0.1,0.2534 -0.232,0.242 -0.14,0.02 -0.232,-0.1163 -0.234,-0.242 0.04,-0.1394 -0.111,-0.167 -0.215,-0.1438 -0.31,0.028 -0.544,0.2722 -0.686,0.5317 -0.174,0.3081 -0.264,0.6717 -0.218,1.0246 0.03,0.2172 0.197,0.4277 0.425,0.4523 0.161,0.028 0.329,-0.023 0.449,-0.1332 0.08,-0.083 0.215,-0.1322 0.275,0 -0.02,0.098 -0.103,0.1809 -0.165,0.261 -0.177,0.2107 -0.46,0.3192 -0.732,0.2863 -0.305,-0.02 -0.562,-0.2483 -0.669,-0.5267 -0.136,-0.3558 -0.08,-0.76 0.06,-1.1037 0.17,-0.373 0.439,-0.7184 0.807,-0.9117 0.287,-0.1441 0.648,-0.1792 0.941,-0.03 0.111,0.055 0.186,0.1727 0.189,0.2914 z"
         style="font-style:normal;font-variant:normal;font-weight:normal;font-stretch:normal;font-size:8px;font-family:Aegyptus;-inkscape-font-specification:Aegyptus;fill:#637ba2;fill-opacity:1;stroke:none" />
      <path
         inkscape:connector-curvature="0"
         id="path1771"
         d="m 119.714,60.5452 c 0,0.3605 -0.308,0.6453 -0.627,0.766 -0.22,0.088 -0.455,0.1282 -0.69,0.1481 0.251,0.233 0.267,0.6155 0.514,0.8501 0.174,0.098 0.345,-0.085 0.46,-0.1987 0.07,-0.1417 0.274,-0.187 0.28,0.014 -0.167,0.2526 -0.383,0.5013 -0.674,0.6109 -0.175,0.078 -0.374,0 -0.474,-0.1622 -0.239,-0.3293 -0.313,-0.753 -0.573,-1.0686 -0.09,-0.083 -0.18,-0.09 -0.184,0.046 -0.115,0.3854 -0.221,0.7738 -0.341,1.1573 -0.1,0.084 -0.397,0.051 -0.371,-0.1245 0.346,-1.1942 0.696,-2.3873 1.039,-3.5822 0.08,-0.189 -0.02,-0.3913 -0.23,-0.4145 -0.127,-0.1894 0.192,-0.2319 0.329,-0.2347 0.16,0.02 0.392,-0.1977 0.494,-0.051 -0.04,0.2341 -0.127,0.4589 -0.189,0.6887 -0.176,0.5986 -0.351,1.1971 -0.527,1.7956 0.323,-0.3346 0.722,-0.6697 1.211,-0.6797 0.252,-0.014 0.543,0.1643 0.532,0.4414 l 0.01,-6e-4 z m -0.465,0.1446 c 0.02,-0.2084 -0.231,-0.2605 -0.387,-0.2066 -0.385,0.1039 -0.694,0.3827 -0.957,0.6715 -0.09,0.1048 0.205,0.06 0.288,0.081 0.335,-3e-4 0.711,-0.048 0.96,-0.2945 0.06,-0.068 0.1,-0.1605 0.1,-0.2516 z"
         style="font-style:normal;font-variant:normal;font-weight:normal;font-stretch:normal;font-size:8px;font-family:Aegyptus;-inkscape-font-specification:Aegyptus;fill:#637ba2;fill-opacity:1;stroke:none" />
      <path
         inkscape:connector-curvature="0"
         id="path1773"
         d="m 127.194,58.4906 c 0,0.2947 -0.423,0.1125 -0.517,0.3458 -0.13,0.2802 -0.181,0.5898 -0.271,0.8845 -0.225,0.8292 -0.459,1.6562 -0.678,2.4867 -0.12,0.3027 0.224,0.4212 0.462,0.3883 0.151,0.2622 -0.284,0.2143 -0.448,0.1846 -0.366,-0.047 -0.732,0.022 -1.097,0.019 -0.122,-0.3002 0.398,-0.1543 0.481,-0.38 0.122,-0.2229 0.155,-0.4815 0.233,-0.722 0.1,-0.3518 0.195,-0.7036 0.293,-1.0554 -0.771,0 -1.541,0 -2.312,0 -0.148,0.5412 -0.3,1.0814 -0.445,1.6232 -0.06,0.2679 0.272,0.3434 0.472,0.326 0.154,0.1711 -0.15,0.2666 -0.3,0.1993 -0.406,-0.055 -0.813,-0.01 -1.219,0.011 -0.158,-0.2593 0.29,-0.1704 0.403,-0.308 0.18,-0.1895 0.192,-0.4663 0.273,-0.704 0.249,-0.9117 0.504,-1.8221 0.75,-2.7346 0.126,-0.3076 -0.214,-0.4393 -0.46,-0.39 -0.161,-0.2119 0.212,-0.2483 0.363,-0.1955 0.389,0.055 0.778,0 1.167,-0.015 0.149,0.2396 -0.289,0.2219 -0.417,0.324 -0.165,0.1906 -0.181,0.4558 -0.26,0.6872 -0.09,0.3086 -0.171,0.6173 -0.256,0.926 0.771,0 1.541,0 2.312,0 0.125,-0.4689 0.258,-0.936 0.379,-1.4061 0.06,-0.2665 -0.277,-0.3364 -0.475,-0.3205 -0.161,-0.2121 0.211,-0.2483 0.363,-0.1955 0.389,0.055 0.778,0 1.167,-0.015 0,-0.018 0.06,0.03 0.04,0.036 z"
         style="font-style:normal;font-variant:normal;font-weight:normal;font-stretch:normal;font-size:8px;font-family:Aegyptus;-inkscape-font-specification:Aegyptus;fill:#637ba2;fill-opacity:1;stroke:none" />
      <path
         inkscape:connector-curvature="0"
         id="path1775"
         d="m 129.139,61.0609 c 0,0.4802 -0.178,0.9591 -0.511,1.3054 -0.226,0.2483 -0.554,0.4188 -0.895,0.3966 -0.304,0 -0.595,-0.1807 -0.738,-0.4492 -0.177,-0.3168 -0.149,-0.7023 -0.06,-1.0419 0.116,-0.4014 0.362,-0.7781 0.718,-1.0054 0.284,-0.1732 0.652,-0.2325 0.966,-0.1108 0.342,0.1424 0.523,0.5238 0.521,0.88 z m -0.453,-0.1328 c 0,-0.2262 -0.08,-0.4986 -0.317,-0.5786 -0.224,-0.074 -0.446,0.071 -0.58,0.2412 -0.32,0.3983 -0.493,0.9197 -0.456,1.4311 0.03,0.197 0.118,0.4278 0.325,0.4907 0.231,0.061 0.447,-0.098 0.582,-0.2724 0.288,-0.3705 0.454,-0.8451 0.446,-1.312 z"
         style="font-style:normal;font-variant:normal;font-weight:normal;font-stretch:normal;font-size:8px;font-family:Aegyptus;-inkscape-font-specification:Aegyptus;fill:#637ba2;fill-opacity:1;stroke:none" />
      <path
         inkscape:connector-curvature="0"
         id="path1777"
         d="m 131.112,58.2992 c -0.01,0.1188 -0.06,0.2319 -0.09,0.3484 -0.338,1.1622 -0.677,2.3239 -1.013,3.4865 -0.09,0.1846 0.129,0.274 0.237,0.1276 0.162,-0.128 0.278,-0.307 0.446,-0.4275 0.2,0.082 0.02,0.2792 -0.09,0.3643 -0.228,0.2012 -0.456,0.4139 -0.734,0.5431 -0.142,0.066 -0.358,-0.01 -0.354,-0.1874 0,-0.283 0.116,-0.5472 0.185,-0.8176 0.274,-0.9449 0.551,-1.8891 0.824,-2.8344 0.09,-0.2235 -0.16,-0.2678 -0.29,-0.3493 -0.01,-0.2215 0.25,-0.1697 0.393,-0.2066 0.151,0.024 0.394,-0.1997 0.482,-0.047 z"
         style="font-style:normal;font-variant:normal;font-weight:normal;font-stretch:normal;font-size:8px;font-family:Aegyptus;-inkscape-font-specification:Aegyptus;fill:#637ba2;fill-opacity:1;stroke:none" />
      <path
         inkscape:connector-curvature="0"
         id="path1779"
         d="m 135.471,61.9359 c -0.05,0.1748 -0.231,0.2754 -0.361,0.3922 -0.217,0.1583 -0.429,0.3393 -0.685,0.4304 -0.196,0.059 -0.331,-0.1538 -0.244,-0.3251 0.104,-0.3309 0.255,-0.6451 0.382,-0.9676 0.1,-0.2478 0.216,-0.4878 0.291,-0.7435 0.1,-0.2191 -0.162,-0.3236 -0.333,-0.2539 -0.355,0.111 -0.595,0.4233 -0.816,0.7048 -0.176,0.235 -0.316,0.4969 -0.399,0.7787 -0.1,0.2549 -0.189,0.5145 -0.307,0.7603 -0.1,0.091 -0.386,0.047 -0.366,-0.1257 0.185,-0.4948 0.391,-0.983 0.563,-1.483 0.05,-0.1886 0.135,-0.405 0.04,-0.5916 -0.144,-0.1404 -0.359,0 -0.487,0.097 -0.34,0.2954 -0.594,0.6811 -0.787,1.0849 -0.161,0.3365 -0.266,0.698 -0.438,1.0291 -0.07,0.1439 -0.341,0.019 -0.358,-0.1118 0.02,-0.1037 0.08,-0.1988 0.113,-0.2991 0.184,-0.4521 0.379,-0.9 0.554,-1.3553 0.04,-0.128 0.157,-0.4015 -0.05,-0.4387 -0.19,0.051 -0.255,0.2666 -0.373,0.4033 -0.103,0.1505 -0.257,-0.076 -0.124,-0.1728 0.156,-0.2324 0.341,-0.4539 0.571,-0.6156 0.177,-0.1106 0.401,0.065 0.379,0.2625 0,0.1909 -0.05,0.377 -0.109,0.5563 0.277,-0.336 0.586,-0.6906 1.013,-0.8292 0.201,-0.08 0.495,-0.017 0.512,0.238 0.03,0.1779 -0.01,0.3573 -0.04,0.5326 0.305,-0.3252 0.644,-0.6667 1.089,-0.7812 0.198,-0.051 0.474,-0.019 0.547,0.2064 0.106,0.3223 -0.07,0.6339 -0.187,0.9266 -0.134,0.3289 -0.279,0.6539 -0.406,0.9853 -0.03,0.2488 0.263,-0.028 0.335,-0.093 0.125,-0.098 0.231,-0.2573 0.381,-0.2961 0.05,0.01 0.06,0.091 0.1,0.096 z"
         style="font-style:normal;font-variant:normal;font-weight:normal;font-stretch:normal;font-size:8px;font-family:Aegyptus;-inkscape-font-specification:Aegyptus;fill:#637ba2;fill-opacity:1;stroke:none" />
      <path
         inkscape:connector-curvature="0"
         id="path1781"
         d="m 137.862,60.5765 c 0,0.2648 -0.174,0.4935 -0.396,0.6182 -0.36,0.2076 -0.779,0.2783 -1.186,0.331 -0.02,0.2262 -0.06,0.4744 0.06,0.6827 0.111,0.1907 0.36,0.245 0.563,0.208 0.197,-0.055 0.335,-0.2176 0.48,-0.3516 0.08,-0.01 0.185,0.1431 0.07,0.206 -0.206,0.2706 -0.516,0.4875 -0.867,0.4928 -0.254,0.017 -0.51,-0.1061 -0.649,-0.3206 -0.183,-0.261 -0.16,-0.5991 -0.11,-0.8976 0.09,-0.4522 0.327,-0.8787 0.679,-1.1763 0.267,-0.2187 0.635,-0.3275 0.975,-0.2537 0.206,0.046 0.386,0.2277 0.381,0.4469 v 0.014 z m -0.406,0.035 c 0,-0.1259 -0.06,-0.2803 -0.203,-0.2802 -0.262,-0.015 -0.472,0.1834 -0.616,0.3806 -0.129,0.1767 -0.228,0.3754 -0.298,0.5831 0.318,-0.042 0.654,-0.095 0.918,-0.2913 0.122,-0.092 0.203,-0.2376 0.199,-0.3922 z"
         style="font-style:normal;font-variant:normal;font-weight:normal;font-stretch:normal;font-size:8px;font-family:Aegyptus;-inkscape-font-specification:Aegyptus;fill:#637ba2;fill-opacity:1;stroke:none" />
      <path
         inkscape:connector-curvature="0"
         id="path1783"
         d="m 139.51,60.3812 c 0.02,0.1369 -0.112,0.2419 -0.243,0.2174 -0.162,-0.021 -0.279,-0.1922 -0.453,-0.1593 -0.121,0.017 -0.273,0.071 -0.302,0.2044 0,0.1337 0.1,0.2379 0.174,0.3382 0.196,0.2399 0.465,0.4395 0.558,0.7478 0.06,0.2569 -0.09,0.5101 -0.267,0.686 -0.212,0.2166 -0.509,0.3907 -0.823,0.3402 -0.17,-0.025 -0.363,-0.1387 -0.369,-0.3295 -0.02,-0.1149 0.05,-0.2648 0.182,-0.252 0.2,0.014 0.303,0.2515 0.508,0.2539 0.164,0 0.339,-0.097 0.404,-0.2521 0.05,-0.1349 -0.06,-0.2554 -0.132,-0.356 -0.204,-0.2562 -0.486,-0.4653 -0.586,-0.7895 -0.05,-0.1385 0.01,-0.2805 0.06,-0.41 0.127,-0.3042 0.435,-0.5315 0.769,-0.5284 0.172,8e-4 0.373,0.029 0.487,0.1721 0.02,0.032 0.04,0.085 0.03,0.1168 z"
         style="font-style:normal;font-variant:normal;font-weight:normal;font-stretch:normal;font-size:8px;font-family:Aegyptus;-inkscape-font-specification:Aegyptus;fill:#637ba2;fill-opacity:1;stroke:none" />
    </g>
    <g
       id="text1699"
       style="font-size:8px;line-height:125%;font-family:sans-serif;letter-spacing:0px;word-spacing:0px;fill:#637ba2;fill-opacity:1;stroke:#000000;stroke-width:1px;stroke-linecap:butt;stroke-linejoin:miter;stroke-opacity:1"
       aria-label="221b Baker Street">
      <path
         inkscape:connector-curvature="0"
         id="path1726"
         d="m 102.909,69.0876 c -0.05,0.1487 -0.142,0.2819 -0.225,0.4148 -0.05,0.052 -0.132,0.023 -0.198,0.031 -0.617,0 -1.235,0 -1.852,0 -0.121,-0.039 -0.04,-0.2209 0.03,-0.2879 0.398,-0.3254 0.818,-0.6257 1.205,-0.9656 0.146,-0.1391 0.31,-0.2751 0.394,-0.4631 0.05,-0.2055 -0.113,-0.397 -0.292,-0.4738 -0.33,-0.1433 -0.724,-0.013 -0.969,0.2327 -0.05,0.113 -0.19,0.018 -0.19,-0.07 0.127,-0.2532 0.376,-0.4252 0.627,-0.5444 0.393,-0.1911 0.917,-0.1016 1.194,0.2466 0.141,0.1796 0.172,0.45 0.03,0.6414 -0.216,0.3279 -0.55,0.5485 -0.868,0.7673 -0.204,0.1416 -0.408,0.2835 -0.612,0.4255 0.548,0 1.096,0 1.644,0 0.06,-0.018 0.04,0.054 0.08,0.046 z"
         style="font-style:normal;font-variant:normal;font-weight:normal;font-stretch:normal;font-size:8px;font-family:Aegyptus;-inkscape-font-specification:Aegyptus;fill:#637ba2;fill-opacity:1;stroke:none" />
      <path
         inkscape:connector-curvature="0"
         id="path1728"
         d="m 105.581,69.0876 c -0.05,0.1487 -0.142,0.2819 -0.225,0.4148 -0.05,0.052 -0.132,0.023 -0.198,0.031 -0.617,0 -1.235,0 -1.852,0 -0.121,-0.039 -0.04,-0.2209 0.03,-0.2879 0.392,-0.3211 0.806,-0.6173 1.188,-0.9507 0.152,-0.1435 0.323,-0.2834 0.411,-0.478 0.05,-0.2055 -0.113,-0.397 -0.292,-0.4738 -0.33,-0.1433 -0.724,-0.013 -0.969,0.2327 -0.05,0.113 -0.19,0.018 -0.19,-0.07 0.127,-0.2532 0.376,-0.4252 0.627,-0.5444 0.393,-0.1911 0.917,-0.1016 1.194,0.2466 0.141,0.1796 0.172,0.45 0.03,0.6414 -0.216,0.3279 -0.55,0.5485 -0.868,0.7673 -0.204,0.1416 -0.408,0.2835 -0.612,0.4255 0.548,0 1.096,0 1.644,0 0.06,-0.018 0.04,0.054 0.08,0.046 z"
         style="font-style:normal;font-variant:normal;font-weight:normal;font-stretch:normal;font-size:8px;font-family:Aegyptus;-inkscape-font-specification:Aegyptus;fill:#637ba2;fill-opacity:1;stroke:none" />
      <path
         inkscape:connector-curvature="0"
         id="path1730"
         d="m 107.956,69.3962 c 0.01,0.091 -0.04,0.2076 -0.148,0.1763 -0.438,-0.037 -0.879,-0.056 -1.318,-0.021 -0.113,0.01 -0.226,0.016 -0.339,0.024 -0.131,-0.061 0.02,-0.2533 0.135,-0.2225 0.189,0.012 0.39,-0.074 0.473,-0.2509 0.07,-0.1573 0.1,-0.3312 0.148,-0.4974 0.1,-0.3771 0.195,-0.7541 0.292,-1.1312 -0.258,0.1382 -0.511,0.2912 -0.791,0.3811 -0.154,0.064 -0.142,-0.2085 -0.03,-0.2416 0.405,-0.1982 0.77,-0.4654 1.142,-0.7173 0.09,-0.031 0.234,-0.071 0.297,0 -0.01,0.093 -0.04,0.1833 -0.06,0.2753 -0.152,0.5949 -0.307,1.1894 -0.457,1.7847 -0.04,0.1379 0.01,0.3123 0.162,0.3545 0.151,0.051 0.313,0.031 0.469,0.042 0.02,0 0.04,0.023 0.03,0.042 z"
         style="font-style:normal;font-variant:normal;font-weight:normal;font-stretch:normal;font-size:8px;font-family:Aegyptus;-inkscape-font-specification:Aegyptus;fill:#637ba2;fill-opacity:1;stroke:none" />
      <path
         inkscape:connector-curvature="0"
         id="path1732"
         d="m 111.389,67.4626 c 0,0.5448 -0.363,1.0061 -0.744,1.3606 -0.379,0.344 -0.826,0.6811 -1.357,0.7091 -0.207,0.015 -0.472,-0.054 -0.525,-0.2856 -0.06,-0.2426 0.06,-0.4741 0.117,-0.7055 0.278,-0.9562 0.557,-1.912 0.834,-2.8685 0.09,-0.2416 -0.21,-0.2633 -0.344,-0.3506 0,-0.2369 0.279,-0.1543 0.427,-0.2101 0.161,-0.022 0.316,-0.098 0.478,-0.1007 0.09,0.1426 -0.07,0.3515 -0.09,0.5175 -0.227,0.7809 -0.458,1.5608 -0.686,2.3413 0.315,-0.3859 0.667,-0.7872 1.149,-0.9596 0.198,-0.069 0.462,-0.087 0.598,0.1043 0.1,0.1212 0.168,0.3108 0.141,0.4479 z m -0.465,0.031 c 0.03,-0.1777 -0.138,-0.3255 -0.311,-0.2713 -0.361,0.076 -0.617,0.3731 -0.849,0.6392 -0.253,0.3158 -0.524,0.6571 -0.576,1.0711 -0.03,0.1564 0.04,0.3965 0.241,0.365 0.378,-0.033 0.66,-0.3297 0.896,-0.6001 0.279,-0.3475 0.581,-0.7406 0.599,-1.2039 z"
         style="font-style:normal;font-variant:normal;font-weight:normal;font-stretch:normal;font-size:8px;font-family:Aegyptus;-inkscape-font-specification:Aegyptus;fill:#637ba2;fill-opacity:1;stroke:none" />
      <path
         inkscape:connector-curvature="0"
         id="path1734"
         d="m 116.85,66.1266 c 0.01,0.3711 -0.253,0.6849 -0.566,0.8516 -0.197,0.1118 -0.415,0.1816 -0.637,0.2227 0.415,0.1139 0.848,0.375 0.97,0.814 0.113,0.4092 -0.09,0.8519 -0.423,1.0941 -0.463,0.3611 -1.066,0.5169 -1.647,0.456 -0.34,-0.029 -0.682,-0.049 -1.022,1e-4 -0.15,0.064 -0.27,-0.052 -0.145,-0.1879 0.166,-0.012 0.35,-0.065 0.409,-0.2412 0.101,-0.2875 0.159,-0.5891 0.241,-0.883 0.213,-0.8335 0.432,-1.6656 0.641,-2.4999 0.08,-0.2609 -0.224,-0.305 -0.409,-0.2786 -0.111,-0.2062 0.217,-0.2509 0.367,-0.2506 0.581,-0.053 1.206,-0.1324 1.745,0.1454 0.289,0.1348 0.502,0.4324 0.488,0.7578 l -0.01,-5e-4 z m -0.601,-0.027 c 0.02,-0.2654 -0.132,-0.5484 -0.4,-0.6223 -0.189,-0.041 -0.441,-0.1152 -0.605,0.018 -0.09,0.2009 -0.126,0.4248 -0.189,0.6369 -0.08,0.3225 -0.168,0.6451 -0.252,0.9676 0.429,0.015 0.901,-0.053 1.213,-0.3745 0.162,-0.1651 0.236,-0.3975 0.233,-0.6255 z m -0.184,2.1094 c 0.02,-0.3345 -0.188,-0.667 -0.507,-0.7833 -0.259,-0.1125 -0.543,-0.08 -0.817,-0.072 -0.13,0.5111 -0.266,1.0207 -0.392,1.5328 -0.08,0.2326 0.114,0.4567 0.353,0.4309 0.509,0.026 1.074,-0.2116 1.288,-0.6986 0.05,-0.1281 0.08,-0.2755 0.08,-0.4099 z"
         style="font-style:normal;font-variant:normal;font-weight:normal;font-stretch:normal;font-size:8px;font-family:Aegyptus;-inkscape-font-specification:Aegyptus;fill:#637ba2;fill-opacity:1;stroke:none" />
      <path
         inkscape:connector-curvature="0"
         id="path1736"
         d="m 119.366,68.7087 c -0.07,0.141 -0.177,0.2599 -0.272,0.3837 -0.158,0.1797 -0.333,0.3814 -0.579,0.4298 -0.156,0.039 -0.284,-0.1046 -0.273,-0.2545 0,-0.2413 0.07,-0.4754 0.14,-0.7035 -0.251,0.343 -0.531,0.6906 -0.919,0.8834 -0.15,0.065 -0.332,0.1242 -0.49,0.054 -0.149,-0.076 -0.182,-0.262 -0.16,-0.4134 0.04,-0.56 0.385,-1.0435 0.781,-1.4178 0.328,-0.312 0.75,-0.5807 1.219,-0.5671 0.158,0.064 0.134,-0.149 0.226,-0.227 0.08,-0.071 0.298,-0.054 0.302,0.073 -0.07,0.21 -0.156,0.4164 -0.232,0.625 -0.163,0.4343 -0.343,0.8681 -0.418,1.3283 -0.04,0.1078 0.03,0.2719 0.151,0.1637 0.179,-0.1266 0.275,-0.3331 0.434,-0.4793 0.04,0.012 0.115,0.098 0.09,0.121 z m -0.668,-1.1485 c -0.03,-0.1671 -0.258,-0.1243 -0.379,-0.097 -0.336,0.1052 -0.582,0.3784 -0.793,0.6456 -0.186,0.2481 -0.347,0.5495 -0.313,0.869 0.02,0.1415 0.2,0.1668 0.305,0.1055 0.269,-0.1452 0.461,-0.3928 0.656,-0.6211 0.193,-0.2454 0.401,-0.4925 0.506,-0.7909 0.01,-0.036 0.02,-0.074 0.02,-0.1115 z"
         style="font-style:normal;font-variant:normal;font-weight:normal;font-stretch:normal;font-size:8px;font-family:Aegyptus;-inkscape-font-specification:Aegyptus;fill:#637ba2;fill-opacity:1;stroke:none" />
      <path
         inkscape:connector-curvature="0"
         id="path1738"
         d="m 122.253,67.3141 c 0,0.3605 -0.308,0.6453 -0.627,0.766 -0.22,0.088 -0.455,0.1282 -0.69,0.1481 0.251,0.233 0.267,0.6155 0.514,0.8501 0.174,0.098 0.345,-0.085 0.46,-0.1987 0.07,-0.1417 0.274,-0.187 0.28,0.014 -0.167,0.2527 -0.383,0.5014 -0.674,0.611 -0.175,0.078 -0.374,0 -0.474,-0.1622 -0.239,-0.3293 -0.313,-0.753 -0.573,-1.0686 -0.09,-0.083 -0.18,-0.09 -0.184,0.046 -0.115,0.3854 -0.221,0.7738 -0.341,1.1573 -0.1,0.085 -0.397,0.051 -0.371,-0.1245 0.346,-1.1942 0.696,-2.3873 1.039,-3.5822 0.08,-0.1887 -0.02,-0.3918 -0.23,-0.4145 -0.128,-0.1891 0.192,-0.2321 0.329,-0.2347 0.16,0.02 0.392,-0.1977 0.494,-0.051 -0.04,0.2341 -0.127,0.4589 -0.189,0.6887 -0.176,0.5986 -0.351,1.1971 -0.527,1.7956 0.323,-0.3346 0.722,-0.6697 1.211,-0.6797 0.252,-0.014 0.543,0.1643 0.532,0.4414 l 0.01,-6e-4 z m -0.465,0.1446 c 0.02,-0.2084 -0.231,-0.2605 -0.387,-0.2066 -0.385,0.1039 -0.694,0.3827 -0.957,0.6715 -0.09,0.1048 0.205,0.06 0.288,0.081 0.335,-3e-4 0.711,-0.048 0.96,-0.2945 0.06,-0.068 0.1,-0.1605 0.1,-0.2516 z"
         style="font-style:normal;font-variant:normal;font-weight:normal;font-stretch:normal;font-size:8px;font-family:Aegyptus;-inkscape-font-specification:Aegyptus;fill:#637ba2;fill-opacity:1;stroke:none" />
      <path
         inkscape:connector-curvature="0"
         id="path1740"
         d="m 124.589,67.3454 c 0,0.2648 -0.174,0.4935 -0.395,0.6181 -0.361,0.2077 -0.78,0.2784 -1.187,0.3311 -0.02,0.2262 -0.06,0.4745 0.06,0.6827 0.111,0.1908 0.361,0.2449 0.564,0.208 0.197,-0.055 0.335,-0.2176 0.48,-0.3516 0.08,-0.01 0.185,0.1431 0.07,0.206 -0.206,0.2703 -0.516,0.4874 -0.866,0.4928 -0.254,0.017 -0.511,-0.1057 -0.65,-0.3206 -0.183,-0.261 -0.16,-0.5991 -0.109,-0.8976 0.08,-0.4459 0.32,-0.8652 0.663,-1.1633 0.269,-0.2275 0.644,-0.3419 0.991,-0.2667 0.206,0.046 0.386,0.2276 0.381,0.4469 v 0.014 z m -0.407,0.035 c 0,-0.1255 -0.06,-0.2801 -0.202,-0.2802 -0.27,-0.015 -0.484,0.1938 -0.629,0.3978 -0.124,0.1724 -0.219,0.3649 -0.286,0.5659 0.318,-0.042 0.654,-0.095 0.918,-0.2913 0.122,-0.092 0.203,-0.2376 0.199,-0.3922 z"
         style="font-style:normal;font-variant:normal;font-weight:normal;font-stretch:normal;font-size:8px;font-family:Aegyptus;-inkscape-font-specification:Aegyptus;fill:#637ba2;fill-opacity:1;stroke:none" />
      <path
         inkscape:connector-curvature="0"
         id="path1742"
         d="m 126.979,67.1774 c 0,0.1548 -0.114,0.3291 -0.283,0.3079 -0.117,-0.01 -0.216,-0.2181 -0.328,-0.082 -0.436,0.4197 -0.719,0.9732 -0.897,1.5461 -0.06,0.1666 -0.11,0.3372 -0.177,0.501 -0.06,0.1267 -0.238,0.094 -0.327,0.024 -0.08,-0.079 0,-0.1796 0.02,-0.2653 0.141,-0.4064 0.289,-0.8103 0.423,-1.2186 0.05,-0.1988 0.117,-0.4111 0.07,-0.6169 -0.04,-0.134 -0.217,-0.085 -0.299,-0.022 -0.125,0.088 -0.199,0.225 -0.3,0.3354 -0.16,-0.024 -0.12,-0.1742 -0.04,-0.259 0.136,-0.1968 0.286,-0.3981 0.496,-0.521 0.15,-0.088 0.367,-0.012 0.421,0.1555 0.08,0.2486 0.04,0.5185 -0.01,0.7697 -0.03,0.1131 0.09,-0.1277 0.13,-0.1721 0.179,-0.2626 0.36,-0.5371 0.621,-0.7255 0.108,-0.085 0.279,-0.1048 0.379,0 0.06,0.059 0.125,0.1641 0.104,0.2407 z"
         style="font-style:normal;font-variant:normal;font-weight:normal;font-stretch:normal;font-size:8px;font-family:Aegyptus;-inkscape-font-specification:Aegyptus;fill:#637ba2;fill-opacity:1;stroke:none" />
      <path
         inkscape:connector-curvature="0"
         id="path1744"
         d="m 131.753,65.5446 c -0.03,0.2013 -0.08,0.4007 -0.13,0.5977 -0.08,0.1076 -0.285,0.057 -0.235,-0.094 0.01,-0.1889 -0.04,-0.3944 -0.2,-0.5077 -0.312,-0.2324 -0.795,-0.093 -0.988,0.231 -0.201,0.3048 -0.133,0.7119 0.08,0.9939 0.205,0.2877 0.475,0.521 0.713,0.7815 0.246,0.2438 0.455,0.5711 0.427,0.9311 0.01,0.4124 -0.254,0.794 -0.619,0.9709 -0.432,0.2226 -0.951,0.2051 -1.409,0.08 -0.136,-0.066 -0.427,-0.1098 -0.38,-0.3116 0.06,-0.1997 0.11,-0.4005 0.182,-0.5951 0.112,-0.118 0.33,-0.034 0.21,0.1355 -0.09,0.1743 -0.06,0.423 0.124,0.521 0.253,0.1241 0.558,0.1093 0.822,0.031 0.3,-0.09 0.555,-0.3668 0.54,-0.6919 0,-0.3877 -0.291,-0.6894 -0.548,-0.9482 -0.284,-0.3117 -0.641,-0.5959 -0.754,-1.022 -0.123,-0.4772 0.09,-1.0191 0.511,-1.2778 0.397,-0.2596 0.915,-0.2343 1.338,-0.052 0.115,0.053 0.278,0.097 0.321,0.2269 z"
         style="font-style:normal;font-variant:normal;font-weight:normal;font-stretch:normal;font-size:8px;font-family:Aegyptus;-inkscape-font-specification:Aegyptus;fill:#637ba2;fill-opacity:1;stroke:none" />
      <path
         inkscape:connector-curvature="0"
         id="path1746"
         d="m 133.6,66.9977 c 0,0.086 -0.04,0.2271 -0.148,0.2189 -0.177,0 -0.353,0 -0.53,0 -0.162,0.553 -0.324,1.1058 -0.485,1.659 -0.06,0.1324 0.03,0.2982 0.185,0.2252 0.22,-0.046 0.4,-0.1885 0.581,-0.3112 0.09,-0.012 0.19,0.1372 0.06,0.1898 -0.24,0.224 -0.501,0.4578 -0.828,0.5391 -0.152,0.032 -0.369,0.023 -0.435,-0.1482 -0.06,-0.2022 0.03,-0.4043 0.08,-0.5988 0.15,-0.5183 0.299,-1.0367 0.449,-1.555 -0.143,0 -0.286,0 -0.428,0 -0.07,-0.066 0,-0.2477 0.1,-0.2665 0.138,0 0.276,0 0.414,0 0.05,-0.1737 0.1,-0.3504 0.156,-0.522 0.05,-0.075 0.155,-0.04 0.233,-0.048 0.07,-0.011 0.183,0.01 0.137,0.1099 -0.04,0.1547 -0.09,0.3071 -0.131,0.46 0.191,0 0.382,0 0.572,0 0.02,0 0.05,0.056 0.02,0.048 z"
         style="font-style:normal;font-variant:normal;font-weight:normal;font-stretch:normal;font-size:8px;font-family:Aegyptus;-inkscape-font-specification:Aegyptus;fill:#637ba2;fill-opacity:1;stroke:none" />
      <path
         inkscape:connector-curvature="0"
         id="path1748"
         d="m 135.948,67.1774 c 0,0.1489 -0.103,0.3176 -0.266,0.3089 -0.124,0.014 -0.206,-0.2036 -0.325,-0.1008 -0.44,0.4156 -0.735,0.9669 -0.906,1.5432 -0.06,0.1744 -0.117,0.3511 -0.188,0.5215 -0.06,0.1267 -0.238,0.094 -0.327,0.024 -0.08,-0.079 0,-0.1796 0.02,-0.2653 0.141,-0.4064 0.289,-0.8103 0.423,-1.2186 0.05,-0.1988 0.117,-0.4111 0.07,-0.6169 -0.04,-0.134 -0.217,-0.085 -0.299,-0.022 -0.125,0.088 -0.199,0.2244 -0.3,0.3354 -0.159,-0.024 -0.12,-0.1741 -0.04,-0.259 0.137,-0.1969 0.287,-0.3976 0.497,-0.521 0.15,-0.089 0.366,-0.012 0.42,0.1555 0.09,0.2486 0.04,0.5185 -0.01,0.7697 -0.03,0.1131 0.09,-0.1277 0.13,-0.1721 0.179,-0.2626 0.36,-0.5371 0.621,-0.7255 0.108,-0.085 0.279,-0.1048 0.379,0 0.06,0.058 0.125,0.1643 0.104,0.2406 z"
         style="font-style:normal;font-variant:normal;font-weight:normal;font-stretch:normal;font-size:8px;font-family:Aegyptus;-inkscape-font-specification:Aegyptus;fill:#637ba2;fill-opacity:1;stroke:none" />
      <path
         inkscape:connector-curvature="0"
         id="path1750"
         d="m 137.979,67.3454 c 0,0.2648 -0.174,0.4935 -0.395,0.6181 -0.361,0.2077 -0.78,0.2784 -1.187,0.3311 -0.02,0.2262 -0.06,0.4744 0.06,0.6827 0.111,0.1907 0.36,0.245 0.563,0.208 0.197,-0.055 0.335,-0.2179 0.481,-0.3516 0.08,-0.01 0.185,0.1431 0.07,0.206 -0.206,0.2703 -0.516,0.4874 -0.866,0.4928 -0.254,0.017 -0.511,-0.1057 -0.65,-0.3206 -0.183,-0.261 -0.16,-0.5991 -0.11,-0.8976 0.09,-0.4523 0.327,-0.8789 0.68,-1.1763 0.267,-0.2186 0.634,-0.3275 0.974,-0.2537 0.206,0.046 0.386,0.2277 0.381,0.4469 v 0.014 z m -0.406,0.035 c 0,-0.1259 -0.06,-0.2803 -0.203,-0.2802 -0.262,-0.016 -0.472,0.1834 -0.616,0.3806 -0.129,0.1767 -0.228,0.3754 -0.298,0.5831 0.318,-0.042 0.654,-0.095 0.918,-0.2913 0.122,-0.092 0.203,-0.2376 0.199,-0.3922 z"
         style="font-style:normal;font-variant:normal;font-weight:normal;font-stretch:normal;font-size:8px;font-family:Aegyptus;-inkscape-font-specification:Aegyptus;fill:#637ba2;fill-opacity:1;stroke:none" />
      <path
         inkscape:connector-curvature="0"
         id="path1752"
         d="m 140.135,67.3454 c 0,0.2648 -0.174,0.4935 -0.396,0.6181 -0.36,0.2077 -0.779,0.2784 -1.186,0.3311 -0.02,0.2262 -0.06,0.4745 0.06,0.6827 0.111,0.1908 0.361,0.2449 0.564,0.208 0.197,-0.055 0.335,-0.2176 0.48,-0.3516 0.08,-0.01 0.185,0.1431 0.07,0.206 -0.206,0.2703 -0.516,0.4874 -0.866,0.4928 -0.254,0.017 -0.511,-0.1057 -0.65,-0.3206 -0.183,-0.261 -0.16,-0.5991 -0.11,-0.8976 0.09,-0.4523 0.327,-0.8789 0.68,-1.1763 0.267,-0.2186 0.634,-0.3275 0.975,-0.2537 0.206,0.046 0.386,0.2277 0.38,0.4469 v 0.014 z m -0.406,0.035 c 0,-0.1255 -0.06,-0.2801 -0.202,-0.2802 -0.27,-0.015 -0.484,0.1938 -0.629,0.3978 -0.124,0.1724 -0.219,0.3649 -0.286,0.5659 0.318,-0.042 0.654,-0.095 0.918,-0.2913 0.122,-0.092 0.203,-0.2376 0.199,-0.3922 z"
         style="font-style:normal;font-variant:normal;font-weight:normal;font-stretch:normal;font-size:8px;font-family:Aegyptus;-inkscape-font-specification:Aegyptus;fill:#637ba2;fill-opacity:1;stroke:none" />
      <path
         inkscape:connector-curvature="0"
         id="path1754"
         d="m 142.022,66.9977 c 0,0.086 -0.04,0.2271 -0.148,0.2189 -0.177,0 -0.354,0 -0.531,0 -0.161,0.553 -0.324,1.1058 -0.484,1.659 -0.06,0.1324 0.03,0.2982 0.185,0.2252 0.219,-0.046 0.4,-0.1881 0.581,-0.3112 0.08,-0.012 0.189,0.1372 0.06,0.1898 -0.24,0.224 -0.501,0.4578 -0.828,0.5391 -0.152,0.032 -0.369,0.023 -0.435,-0.1482 -0.06,-0.2022 0.03,-0.4043 0.08,-0.5988 0.15,-0.5183 0.299,-1.0367 0.449,-1.555 -0.141,0 -0.283,0 -0.424,0 -0.06,-0.071 0,-0.2488 0.09,-0.2665 0.138,0 0.276,0 0.414,0 0.05,-0.1737 0.1,-0.3504 0.156,-0.522 0.05,-0.075 0.155,-0.04 0.233,-0.048 0.07,-0.011 0.183,0.01 0.137,0.1099 -0.04,0.1547 -0.09,0.3071 -0.131,0.46 0.191,0 0.382,0 0.572,0 0.01,0 0.05,0.055 0.02,0.048 z"
         style="font-style:normal;font-variant:normal;font-weight:normal;font-stretch:normal;font-size:8px;font-family:Aegyptus;-inkscape-font-specification:Aegyptus;fill:#637ba2;fill-opacity:1;stroke:none" />
    </g>
    <g
       id="text1703"
       style="font-size:8px;line-height:125%;font-family:sans-serif;letter-spacing:0px;word-spacing:0px;fill:#637ba2;fill-opacity:1;stroke:none;stroke-width:1px;stroke-linecap:butt;stroke-linejoin:miter;stroke-opacity:1"
       aria-label="London City">
      <path
         inkscape:connector-curvature="0"
         id="path1705"
         d="m 103.471,75.5245 c -0.102,0.2446 -0.202,0.4916 -0.318,0.7295 -0.122,0.1491 -0.344,0.051 -0.51,0.075 -0.758,-0.014 -1.519,-0.063 -2.277,0 -0.147,0.044 -0.3929,0 -0.209,-0.1819 0.16,-0.049 0.375,-0.039 0.441,-0.2319 0.1,-0.2492 0.145,-0.5161 0.218,-0.7737 0.218,-0.8516 0.441,-1.7021 0.656,-2.5543 0.09,-0.2226 -0.102,-0.4256 -0.329,-0.3851 -0.18,0.084 -0.244,-0.1647 -0.08,-0.2131 0.387,0.014 0.773,0.064 1.16,0.024 0.126,9e-4 0.465,-0.1048 0.31,0.1363 -0.151,0.1069 -0.417,0.04 -0.492,0.2599 -0.1,0.2267 -0.135,0.4742 -0.204,0.7108 -0.203,0.7966 -0.412,1.5918 -0.611,2.3892 -0.08,0.209 0,0.4955 0.251,0.5149 0.259,0.036 0.523,0.016 0.784,0.015 0.296,-0.015 0.635,-0.052 0.828,-0.3075 0.108,-0.1031 0.233,-0.4742 0.386,-0.2104 z"
         style="font-style:normal;font-variant:normal;font-weight:normal;font-stretch:normal;font-size:8px;font-family:Aegyptus;-inkscape-font-specification:Aegyptus;fill:#637ba2;fill-opacity:1;stroke:none" />
      <path
         inkscape:connector-curvature="0"
         id="path1707"
         d="m 106.225,74.5987 c 0,0.4802 -0.178,0.9591 -0.511,1.3054 -0.226,0.2483 -0.554,0.4188 -0.895,0.3966 -0.304,0 -0.595,-0.1806 -0.738,-0.4491 -0.177,-0.3169 -0.149,-0.7023 -0.06,-1.042 0.116,-0.4014 0.362,-0.7781 0.718,-1.0054 0.284,-0.1732 0.652,-0.2325 0.966,-0.1108 0.342,0.1424 0.523,0.5238 0.521,0.88 z m -0.453,-0.1328 c 0,-0.2262 -0.08,-0.4986 -0.317,-0.5786 -0.224,-0.074 -0.446,0.071 -0.58,0.2412 -0.32,0.3983 -0.493,0.9197 -0.456,1.4311 0.03,0.1972 0.118,0.4276 0.325,0.4907 0.232,0.061 0.448,-0.098 0.583,-0.2724 0.287,-0.3712 0.455,-0.8412 0.445,-1.312 z"
         style="font-style:normal;font-variant:normal;font-weight:normal;font-stretch:normal;font-size:8px;font-family:Aegyptus;-inkscape-font-specification:Aegyptus;fill:#637ba2;fill-opacity:1;stroke:none" />
      <path
         inkscape:connector-curvature="0"
         id="path1709"
         d="m 109.452,75.4854 c -0.05,0.1223 -0.169,0.2075 -0.257,0.3058 -0.208,0.1926 -0.423,0.3953 -0.694,0.4922 -0.124,0.049 -0.329,0.012 -0.329,-0.1531 0,-0.2367 0.122,-0.4497 0.201,-0.6679 0.15,-0.3857 0.308,-0.7688 0.453,-1.1562 0.07,-0.1382 0,-0.3576 -0.19,-0.2957 -0.291,0.059 -0.504,0.2888 -0.692,0.5015 -0.279,0.3357 -0.535,0.7009 -0.691,1.1108 -0.07,0.2109 -0.152,0.4203 -0.245,0.6231 -0.07,0.129 -0.254,0.059 -0.331,-0.026 -0.06,-0.078 0.02,-0.1628 0.04,-0.2408 0.176,-0.4499 0.362,-0.8961 0.53,-1.349 0.05,-0.1689 0.126,-0.3463 0.09,-0.5251 -0.09,-0.1273 -0.256,0.032 -0.318,0.1181 -0.08,0.098 -0.13,0.2177 -0.224,0.3019 -0.136,0.027 -0.189,-0.1348 -0.102,-0.2193 0.138,-0.2288 0.307,-0.4471 0.526,-0.6029 0.126,-0.1016 0.351,-0.086 0.413,0.081 0.08,0.2374 0,0.4931 -0.04,0.73 0.278,-0.3418 0.596,-0.6846 1.021,-0.8343 0.188,-0.057 0.417,-0.087 0.585,0.036 0.159,0.1396 0.131,0.3834 0.05,0.5592 -0.181,0.4614 -0.369,0.9208 -0.546,1.3838 -0.06,0.1 -0.03,0.3036 0.112,0.1867 0.197,-0.1263 0.324,-0.3324 0.513,-0.4681 0.04,-0.013 0.148,0.088 0.121,0.1089 z"
         style="font-style:normal;font-variant:normal;font-weight:normal;font-stretch:normal;font-size:8px;font-family:Aegyptus;-inkscape-font-specification:Aegyptus;fill:#637ba2;fill-opacity:1;stroke:none" />
      <path
         inkscape:connector-curvature="0"
         id="path1711"
         d="m 112.69,71.8331 c -0.02,0.1517 -0.07,0.2983 -0.105,0.4479 -0.29,1.1337 -0.585,2.2664 -0.871,3.4008 -0.07,0.1981 0.157,0.2386 0.247,0.085 0.149,-0.1063 0.235,-0.4075 0.399,-0.4135 0.145,0.1764 -0.15,0.3818 -0.236,0.5365 -0.155,0.1669 -0.318,0.377 -0.559,0.4036 -0.218,0.018 -0.292,-0.2399 -0.249,-0.4126 0.03,-0.2095 0.08,-0.416 0.132,-0.6226 -0.248,0.3769 -0.523,0.777 -0.942,0.9778 -0.195,0.095 -0.472,0.1023 -0.609,-0.095 -0.265,-0.3522 -0.184,-0.8374 -0.03,-1.2191 0.188,-0.4311 0.477,-0.8333 0.871,-1.0989 0.286,-0.1827 0.693,-0.287 0.996,-0.086 0.09,0.1253 0.08,-0.045 0.109,-0.1126 0.102,-0.4332 0.212,-0.8657 0.31,-1.2994 0.04,-0.1702 -0.157,-0.1864 -0.254,-0.254 0.03,-0.2256 0.303,-0.1482 0.454,-0.2147 0.09,-0.01 0.306,-0.1616 0.339,-0.024 z m -1.058,2.3906 c 0.03,-0.2112 -0.152,-0.417 -0.37,-0.353 -0.325,0.077 -0.529,0.3742 -0.712,0.6316 -0.241,0.3638 -0.416,0.8068 -0.347,1.2488 0.02,0.2092 0.286,0.2661 0.439,0.1544 0.32,-0.2121 0.513,-0.5594 0.703,-0.8821 0.132,-0.2488 0.276,-0.5121 0.287,-0.7997 z"
         style="font-style:normal;font-variant:normal;font-weight:normal;font-stretch:normal;font-size:8px;font-family:Aegyptus;-inkscape-font-specification:Aegyptus;fill:#637ba2;fill-opacity:1;stroke:none" />
      <path
         inkscape:connector-curvature="0"
         id="path1713"
         d="m 115.038,74.5987 c 0,0.4868 -0.183,0.9721 -0.525,1.3194 -0.23,0.2477 -0.564,0.4114 -0.907,0.3812 -0.312,-0.01 -0.601,-0.2078 -0.734,-0.4882 -0.155,-0.3165 -0.124,-0.6888 -0.03,-1.0196 0.121,-0.3997 0.37,-0.7751 0.729,-0.9969 0.281,-0.1655 0.642,-0.2208 0.951,-0.1012 0.341,0.1428 0.523,0.5238 0.521,0.88 z m -0.453,-0.1328 c 0,-0.2264 -0.08,-0.4983 -0.318,-0.5786 -0.224,-0.074 -0.446,0.071 -0.58,0.2412 -0.32,0.3983 -0.493,0.9197 -0.456,1.4311 0.03,0.197 0.118,0.4278 0.325,0.4907 0.231,0.061 0.448,-0.098 0.583,-0.2724 0.288,-0.3705 0.454,-0.8451 0.446,-1.312 z"
         style="font-style:normal;font-variant:normal;font-weight:normal;font-stretch:normal;font-size:8px;font-family:Aegyptus;-inkscape-font-specification:Aegyptus;fill:#637ba2;fill-opacity:1;stroke:none" />
      <path
         inkscape:connector-curvature="0"
         id="path1715"
         d="m 118.264,75.4854 c -0.05,0.1223 -0.17,0.2076 -0.258,0.3058 -0.207,0.1921 -0.423,0.395 -0.693,0.4922 -0.125,0.049 -0.329,0.012 -0.33,-0.1531 0,-0.2342 0.121,-0.4447 0.199,-0.6608 0.151,-0.3881 0.309,-0.7736 0.455,-1.1633 0.07,-0.1382 0,-0.3576 -0.19,-0.2957 -0.291,0.059 -0.503,0.2888 -0.692,0.5015 -0.313,0.3762 -0.596,0.7913 -0.743,1.2623 -0.07,0.1643 -0.12,0.3358 -0.205,0.4907 -0.09,0.107 -0.262,0.031 -0.329,-0.06 -0.04,-0.081 0.03,-0.1566 0.05,-0.2332 0.175,-0.4474 0.361,-0.8909 0.527,-1.3417 0.05,-0.1689 0.126,-0.3464 0.09,-0.5251 -0.09,-0.1273 -0.256,0.032 -0.318,0.1181 -0.08,0.098 -0.13,0.2185 -0.224,0.3019 -0.146,0.027 -0.186,-0.1488 -0.09,-0.2332 0.139,-0.2273 0.308,-0.4466 0.531,-0.5973 0.13,-0.099 0.355,-0.066 0.405,0.1037 0.07,0.2348 0,0.4829 -0.05,0.7152 0.278,-0.3419 0.596,-0.6847 1.022,-0.8343 0.187,-0.057 0.417,-0.087 0.585,0.036 0.159,0.1396 0.131,0.3834 0.05,0.5592 -0.181,0.4614 -0.368,0.9209 -0.545,1.3838 -0.06,0.1 -0.03,0.3036 0.112,0.1867 0.197,-0.1261 0.325,-0.3316 0.513,-0.4681 0.04,-0.014 0.151,0.09 0.12,0.1089 z"
         style="font-style:normal;font-variant:normal;font-weight:normal;font-stretch:normal;font-size:8px;font-family:Aegyptus;-inkscape-font-specification:Aegyptus;fill:#637ba2;fill-opacity:1;stroke:none" />
      <path
         inkscape:connector-curvature="0"
         id="path1717"
         d="m 125.12,72.6299 c -0.04,0.2072 -0.08,0.4136 -0.13,0.6172 -0.15,0.1669 -0.295,-0.018 -0.22,-0.18 -0.01,-0.3906 -0.362,-0.6805 -0.708,-0.7973 -0.642,-0.199 -1.374,0.01 -1.839,0.4871 -0.512,0.491 -0.785,1.2171 -0.708,1.924 0.05,0.6775 0.57,1.2994 1.247,1.4191 0.357,0.081 0.753,0.04 1.05,-0.1898 0.228,-0.1709 0.38,-0.4177 0.557,-0.6349 0.305,-0.016 0.109,0.3176 0.06,0.4763 -0.05,0.225 -0.17,0.4371 -0.413,0.4877 -0.455,0.1572 -0.953,0.1841 -1.427,0.1085 -0.829,-0.1393 -1.493,-0.8669 -1.616,-1.6896 -0.106,-0.5899 0,-1.2316 0.39,-1.7051 0.461,-0.6007 1.194,-0.97 1.949,-1.0014 0.616,-0.046 1.283,0.1064 1.726,0.5618 0.04,0.033 0.07,0.075 0.08,0.1164 z"
         style="font-style:normal;font-variant:normal;font-weight:normal;font-stretch:normal;font-size:8px;font-family:Aegyptus;-inkscape-font-specification:Aegyptus;fill:#637ba2;fill-opacity:1;stroke:none" />
      <path
         inkscape:connector-curvature="0"
         id="path1719"
         d="m 126.471,72.4307 c 0.01,0.2111 -0.257,0.3585 -0.427,0.2312 -0.182,-0.1102 -0.153,-0.4131 0.05,-0.488 0.175,-0.078 0.387,0.065 0.381,0.2568 z m -0.09,3.0586 c -0.138,0.2729 -0.379,0.4822 -0.625,0.6565 -0.174,0.1157 -0.411,0.2209 -0.611,0.1081 -0.138,-0.1064 -0.09,-0.3047 -0.04,-0.4467 0.191,-0.5232 0.397,-1.0412 0.589,-1.5642 0.09,-0.1745 -0.103,-0.2348 -0.21,-0.1085 -0.102,0.046 -0.22,0.287 -0.323,0.1256 -0.05,-0.1826 0.203,-0.2971 0.316,-0.4113 0.175,-0.1216 0.387,-0.2734 0.61,-0.1973 0.159,0.07 0.116,0.2763 0.08,0.41 -0.09,0.312 -0.22,0.6099 -0.329,0.9148 -0.09,0.2484 -0.195,0.4919 -0.272,0.7444 -0.08,0.2193 0.21,0.17 0.298,0.061 0.151,-0.117 0.263,-0.2754 0.401,-0.4062 0.04,0.019 0.115,0.07 0.116,0.1134 z"
         style="font-style:normal;font-variant:normal;font-weight:normal;font-stretch:normal;font-size:8px;font-family:Aegyptus;-inkscape-font-specification:Aegyptus;fill:#637ba2;fill-opacity:1;stroke:none" />
      <path
         inkscape:connector-curvature="0"
         id="path1721"
         d="m 128.46,73.7666 c -0.01,0.086 -0.05,0.2255 -0.158,0.219 -0.177,0 -0.354,0 -0.531,0 -0.156,0.5347 -0.315,1.0684 -0.468,1.6038 -0.04,0.1083 -0.05,0.3327 0.127,0.2881 0.241,-0.029 0.437,-0.187 0.632,-0.3189 0.08,-0.012 0.189,0.1372 0.06,0.1898 -0.24,0.2238 -0.5,0.4576 -0.827,0.5391 -0.152,0.033 -0.369,0.023 -0.435,-0.1482 -0.06,-0.2021 0.03,-0.4043 0.08,-0.5988 0.149,-0.5183 0.299,-1.0367 0.448,-1.555 -0.143,0 -0.286,0 -0.428,0 -0.08,-0.066 0,-0.2477 0.1,-0.2665 0.138,0 0.277,0 0.415,0 0.05,-0.1737 0.1,-0.3504 0.155,-0.522 0.05,-0.075 0.155,-0.04 0.233,-0.048 0.07,-0.011 0.183,0.01 0.137,0.1099 -0.04,0.1547 -0.09,0.3071 -0.132,0.4599 0.191,0 0.382,0 0.573,0 0.01,0 0.05,0.054 0.02,0.048 z"
         style="font-style:normal;font-variant:normal;font-weight:normal;font-stretch:normal;font-size:8px;font-family:Aegyptus;-inkscape-font-specification:Aegyptus;fill:#637ba2;fill-opacity:1;stroke:none" />
      <path
         inkscape:connector-curvature="0"
         id="path1723"
         d="m 131.022,73.9698 c -0.02,0.4136 -0.174,0.8057 -0.324,1.1865 -0.279,0.6303 -0.667,1.2067 -1.081,1.7554 -0.227,0.2796 -0.455,0.5848 -0.788,0.7447 -0.196,0.1014 -0.463,-0.04 -0.47,-0.2659 -0.03,-0.2005 0.185,-0.4021 0.38,-0.3099 0.153,0.1148 0.348,0.1038 0.463,-0.061 0.197,-0.2018 0.426,-0.4294 0.427,-0.7312 0.02,-0.5839 -0.02,-1.1747 -0.155,-1.744 -0.05,-0.1739 -0.103,-0.3877 -0.278,-0.4792 -0.184,-0.059 -0.327,0.1244 -0.417,0.258 -0.06,0.1159 -0.211,0.311 -0.297,0.1084 0.03,-0.1719 0.146,-0.3201 0.244,-0.4609 0.134,-0.1686 0.314,-0.3834 0.555,-0.3314 0.297,0.067 0.435,0.3784 0.525,0.64 0.166,0.5268 0.217,1.0829 0.219,1.633 0.32,-0.5031 0.602,-1.0763 0.583,-1.6871 -0.02,-0.1805 -0.08,-0.3981 0.05,-0.5519 0.137,-0.1139 0.353,0.01 0.352,0.1821 0,0.035 0,0.087 0.01,0.1146 z"
         style="font-style:normal;font-variant:normal;font-weight:normal;font-stretch:normal;font-size:8px;font-family:Aegyptus;-inkscape-font-specification:Aegyptus;fill:#637ba2;fill-opacity:1;stroke:none" />
    </g>
  </g>
</svg>
