<?xml version="1.0" encoding="UTF-8" standalone="no"?>
<svg
   xmlns:dc="http://purl.org/dc/elements/1.1/"
   xmlns:cc="http://creativecommons.org/ns#"
   xmlns:rdf="http://www.w3.org/1999/02/22-rdf-syntax-ns#"
   xmlns:svg="http://www.w3.org/2000/svg"
   xmlns="http://www.w3.org/2000/svg"
   xmlns:xlink="http://www.w3.org/1999/xlink"
   xmlns:sodipodi="http://sodipodi.sourceforge.net/DTD/sodipodi-0.dtd"
   xmlns:inkscape="http://www.inkscape.org/namespaces/inkscape"
   viewBox="0 0 96 96"
   id="svg2"
   version="1.1"
   inkscape:version="0.91 r"
   sodipodi:docname="filezilla.svg">
  <title
     id="title81">filezilla</title>
  <metadata
     id="metadata70">
    <rdf:RDF>
      <cc:Work
         rdf:about="">
        <dc:format>image/svg+xml</dc:format>
        <dc:type
           rdf:resource="http://purl.org/dc/dcmitype/StillImage" />
        <dc:title>filezilla</dc:title>
        <dc:subject>
          <rdf:Bag>
            <rdf:li>filezilla</rdf:li>
          </rdf:Bag>
        </dc:subject>
        <dc:description>filezilla</dc:description>
      </cc:Work>
    </rdf:RDF>
  </metadata>
  <sodipodi:namedview
     pagecolor="#ffffff"
     bordercolor="#666666"
     borderopacity="1"
     objecttolerance="10"
     gridtolerance="10"
     guidetolerance="10"
     inkscape:pageopacity="0"
     inkscape:pageshadow="2"
     inkscape:window-width="1280"
     inkscape:window-height="965"
     id="namedview68"
     showgrid="false"
     inkscape:zoom="3.47661"
     inkscape:cx="0.49971"
     inkscape:cy="71.9847"
     inkscape:window-x="0"
     inkscape:window-y="27"
     inkscape:window-maximized="1"
     inkscape:current-layer="svg2" />
  <defs
     id="defs4">
    <clipPath
       id="clipPath2880">
      <path
         fill="#fff"
         d="m12,6c-3.1577,0-5.7192,2.4087-5.9688,5.5 2.4694,.0171 4.4688,2.0266 4.4688,4.5 0,2.484-2.016,4.5-4.5,4.5v7c2.484,0 4.5,2.016 4.5,4.5 0,2.484-2.016,4.5-4.5,4.5v7c2.484,0 4.5,2.016 4.5,4.5 0,2.484-2.016,4.5-4.5,4.5v7c2.484,0 4.5,2.016 4.5,4.5 0,2.484-2.016,4.5-4.5,4.5v7c2.484-0 4.5,2.016 4.5,4.5 0,2.4734-1.9993,4.4829-4.4688,4.5 .2495,3.0913 2.8111,5.5 5.9688,5.5 0-2.484 2.016-4.5 4.5-4.5 2.484,0 4.5,2.016 4.5,4.5h7c0-2.484 2.016-4.5 4.5-4.5 2.484,0 4.5,2.016 4.5,4.5h7c0-2.484 2.016-4.5 4.5-4.5 2.484,0 4.5,2.016 4.5,4.5h7c0-2.484 2.016-4.5 4.5-4.5 2.484,0 4.5,2.016 4.5,4.5h7c-0-2.484 2.016-4.5 4.5-4.5 2.4522,0 4.4493,1.9661 4.5,4.4062 2.6885-.4451 4.746-2.647 4.9688-5.4062-2.4694-.0171-4.4688-2.0266-4.4688-4.5 0-2.484 2.016-4.5 4.5-4.5v-7c-2.484,0-4.5-2.016-4.5-4.5 0-2.484 2.016-4.5 4.5-4.5v-7c-2.484,0-4.5-2.016-4.5-4.5 0-2.484 2.016-4.5 4.5-4.5v-7c-2.484,0-4.5-2.016-4.5-4.5 0-2.484 2.016-4.5 4.5-4.5v-7c-2.484,0-4.5-2.016-4.5-4.5 0-2.4734 1.9993-4.4829 4.4688-4.5-.2227-2.7593-2.2802-4.9611-4.9688-5.4062-.0507,2.4401-2.0478,4.4062-4.5,4.4062-2.484,0-4.5-2.016-4.5-4.5h-7c0,2.484-2.016,4.5-4.5,4.5-2.484,0-4.5-2.016-4.5-4.5h-7c0,2.484-2.016,4.5-4.5,4.5-2.484,0-4.5-2.016-4.5-4.5h-7c0,2.484-2.016,4.5-4.5,4.5-2.484,0-4.5-2.016-4.5-4.5h-7c0,2.484-2.016,4.5-4.5,4.5-2.484,0-4.5-2.016-4.5-4.5z"
         id="path7" />
    </clipPath>
    <filter
       width="1.384"
       x="-.192"
       y="-.192"
       height="1.384"
       color-interpolation-filters="sRGB"
       id="filter3794">
      <feGaussianBlur
         stdDeviation="5.28"
         id="feGaussianBlur10" />
    </filter>
    <linearGradient
       gradientTransform="matrix(1.02381 0 0 1.0119 -1.14286 -.08333)"
       id="linearGradient3652"
       xlink:href="#ButtonShadow"
       y1="91.151"
       y2="7.291"
       x2="0"
       gradientUnits="userSpaceOnUse" />
    <linearGradient
       id="linearGradient2885"
       xlink:href="#linearGradient3737-0"
       y1="20.221"
       y2="138.661"
       x2="0"
       gradientUnits="userSpaceOnUse" />
    <linearGradient
       id="linearGradient3643"
       xlink:href="#ButtonShadow"
       y1="91.151"
       y2="7.291"
       x2="0"
       gradientUnits="userSpaceOnUse" />
    <linearGradient
       id="ButtonColor"
       y1="122"
       y2="5.425"
       x2="0"
       gradientUnits="userSpaceOnUse">
      <stop
         offset="0"
         stop-color="#a00000"
         id="stop16" />
      <stop
         offset="1"
         stop-color="#ff0505"
         id="stop18" />
    </linearGradient>
    <linearGradient
       gradientTransform="scale(1.00587 .99417)"
       id="ButtonShadow"
       y1="92.54"
       y2="7.017"
       x2="0"
       gradientUnits="userSpaceOnUse">
      <stop
         offset="0"
         id="stop21" />
      <stop
         offset="1"
         stop-opacity=".588"
         id="stop23" />
    </linearGradient>
    <linearGradient
       id="linearGradient3737">
      <stop
         offset="0"
         stop-color="#fff"
         id="stop26" />
      <stop
         offset="1"
         stop-color="#fff"
         stop-opacity="0"
         id="stop28" />
    </linearGradient>
    <linearGradient
       id="linearGradient3737-0">
      <stop
         offset="0"
         stop-color="#fdff98"
         id="stop31" />
      <stop
         offset="1"
         stop-color="#fff"
         stop-opacity="0"
         id="stop33" />
    </linearGradient>
    <linearGradient
       id="linearGradient3434"
       xlink:href="#linearGradient3737"
       y1="6"
       y2="74.093"
       x2="0"
       gradientUnits="userSpaceOnUse" />
    <linearGradient
       id="linearGradient3441"
       xlink:href="#ButtonColor"
       y1="90"
       y2="5.988"
       x2="0"
       gradientUnits="userSpaceOnUse" />
    <radialGradient
       cx="47.967"
       cy="89.689"
       gradientTransform="matrix(1.33411 0 0 .95759 -16.02641 2.11126)"
       r="42"
       id="radialGradient3684"
       xlink:href="#linearGradient3737"
       gradientUnits="userSpaceOnUse" />
    <linearGradient
       inkscape:collect="always"
       xlink:href="#ButtonShadow"
       id="linearGradient75"
       gradientUnits="userSpaceOnUse"
       gradientTransform="matrix(1.02381,0,0,1.0119,-1.14286,-0.08333)"
       y1="91.151"
       x2="0"
       y2="7.291" />
  </defs>
  <path
     style="opacity:0.08;fill:url(#linearGradient75)"
     d="M 43.0938,3.9688 C 40.0958,4.63085 35.5606,2.54514 33.9377,6.06693 33.6938,10.2271 29.7251,8.09564 29.7502,5.0002 26.3835,3.63924 19.7465,2.3843 17.5507,6.15936 17.5812,10.0968 13.5129,8.30576 13.5937,5.3753 10.4905,2.21552 5.75703,5.62498 3.7065,8.45005 0.877178,11.3416 2.27494,16.0179 6.48666,16.2339 c 1.01849,3.4754 -5.927773,1.902 -4.51806,6.3288 0.64365,2.9731 -1.442071,7.6164 2.25413,9.0319 3.89565,0.039 1.91162,4.2864 -1.02641,3.9694 -1.74366,3.0927 -2.04992,8.4393 -0.0988,11.6177 4.02922,0.081 4.71535,4.1396 0.36846,4.3418 -2.693091,2.5715 -0.94843,6.8631 -1.35862,10.1756 0.2348,2.7251 7.20991,2.719 3.20524,5.582 -1.29285,0.1739 -3.18575,0.5915 -3.17971,1.5659 0.0154,2.4879 -0.0596,7.1606 -0.0533,9.8878 1.37144,1.5301 7.36428,2.7133 2.83114,4.7043 -4.223162,0.706 -2.66695,6.312 -0.28564,8.2794 2.09564,2.0858 5.50571,4.2792 8.43751,2.5313 0.4721,-2.5352 3.3766,-6.1522 4.4479,-1.6567 0.6171,3.0701 6.5784,2.2364 9.046,2.3146 5.2734,-0.054 2.8637,-4.356 5.6711,-4.2963 2.7763,0.059 0.2256,4.55 5.4722,4.5078 1.7256,0 4.4846,0.2073 6.2356,-0.061 3.3815,0.079 2.2016,-4.5969 4.4773,-4.7119 2.5065,-0.1268 1.4071,4.3811 3.6841,4.4352 3.9876,0.4074 7.008,0.2129 10.1094,-0.3766 1.2592,-1.2769 1.4603,-5.5115 3.9498,-3.4673 0.1727,5.2397 5.7286,3.9996 9.2751,4.0558 5.684,0.2929 3.2109,-4.4608 6.1312,-4.5871 1.8192,3.9298 4.5546,6.1638 7.848,2.9376 2.5996,-1.8333 5.5457,-5.3719 3.8396,-8.6563 -2.3648,-0.72 -6.3128,-3.4308 -1.6628,-4.5467 3.2556,-0.6273 2.268,-4.7978 2.3639,-7.255 1.1152,-3.476 -1.5325,-5.5666 -4.2156,-6.3119 -1.4034,-3.5955 5.8692,-2.1931 4.2331,-6.5112 0.24,-3.8934 0.9243,-9.3432 -4.4403,-9.6612 -1.0765,-3.4804 5.9284,-1.9107 4.5029,-6.3386 -0.6436,-2.9731 1.4421,-7.6164 -2.2541,-9.0319 -3.8957,-0.039 -1.9117,-4.2864 1.0264,-3.9694 1.7436,-3.0927 2.0499,-8.4393 0.099,-11.6177 -2.2564,-0.1587 -5.5625,-2.7141 -1.8131,-3.8827 4.054,-0.6313 2.809,-5.93318 0.5667,-7.9668 -1.9435,-3.0691 -8.388,-5.27516 -9.0313,0 -2.4051,3.4192 -2.7215,-2.86413 -5,-3.375 C 74.2466,4.48848 69.6431,2.77513 66.9805,5.45716 66.8835,8.38995 63.1967,10.039 62.9996,5.9069 60.6338,2.54133 55.5009,4.27276 51.8929,4.29537 50.2072,5.38823 49.3254,11.3002 46.9657,7.20561 46.9023,5.20662 45.1146,3.73787 43.0938,3.9688 Z"
     id="path38"
     inkscape:connector-curvature="0"
     sodipodi:nodetypes="ccccccccccccccsccccccsccsccccccccccccccccccccccccc" />
  <path
     opacity=".2"
     fill="url(#linearGradient3652)"
     d="m20.1562,6a1.0087,1.0087 0 0,0 -.8125,1c0,1.965-1.5923,3.5625-3.5938,3.5625-1.9839,0-3.5666-1.5597-3.5938-3.5a1.0087,1.0087 0 0,0 -1.125-1c-3.4231,.4096-6.182,2.9512-6.875,6.2812a1.0087,1.0087 0 0,0 .9688,1.2188c1.9396,.0644 3.4688,1.6383 3.4688,3.5625 0,1.965-1.5923,3.5625-3.5938,3.5625a1.0087,1.0087 0 0,0 -1,1v7.0625a1.0087,1.0087 0 0,0 1,1c2.0014,0 3.5938,1.5975 3.5938,3.5625 0,1.965-1.5923,3.5625-3.5938,3.5625a1.0087,1.0087 0 0,0 -1,1v7.0625a1.0087,1.0087 0 0,0 1,1c2.0014,0 3.5938,1.5975 3.5938,3.5625 0,1.965-1.5923,3.5625-3.5938,3.5625a1.0087,1.0087 0 0,0 -1,1v7.0625a1.0087,1.0087 0 0,0 1,1c2.0014,0 3.5938,1.5975 3.5938,3.5625 0,1.965-1.5923,3.5625-3.5938,3.5625a1.0087,1.0087 0 0,0 -1,1v7.0625a1.0087,1.0087 0 0,0 1,1c2.0014-0 3.5938,1.5975 3.5938,3.5625 0,1.9242-1.5291,3.4981-3.4688,3.5625a1.0087,1.0087 0 0,0 -.9688,1.2188c.693,3.3301 3.4519,5.8716 6.875,6.2812a1.0087,1.0087 0 0,0 1.125-1c.0272-1.9403 1.6099-3.5 3.5938-3.5 2.0014,0 3.5938,1.5975 3.5938,3.5625a1.0087,1.0087 0 0,0 1,1h7.1875a1.0087,1.0087 0 0,0 1-1c0-1.965 1.5923-3.5625 3.5938-3.5625 2.0014,0 3.625,1.6058 3.625,3.5625a1.0087,1.0087 0 0,0 1,1h7.1562a1.0087,1.0087 0 0,0 1-1c0-1.965 1.5923-3.5625 3.5938-3.5625 2.0014,0 3.625,1.6058 3.625,3.5625a1.0087,1.0087 0 0,0 1,1h7.1562a1.0087,1.0087 0 0,0 1-1c0-1.9567 1.6236-3.5625 3.625-3.5625 2.0014,0 3.5938,1.5975 3.5938,3.5625a1.0087,1.0087 0 0,0 1,1h7.1562a1.0087,1.0087 0 0,0 1-1c-0-1.9567 1.6236-3.5625 3.625-3.5625 1.9308,0 3.4569,1.5015 3.5625,3.375a1.0087,1.0087 0 0,0 1.25,.9062c2.8884-.7811 5.136-3.112 5.75-6.0625a1.0087,1.0087 0 0,0 -.9688-1.2188c-1.9396-.0644-3.4688-1.6383-3.4688-3.5625 0-1.965 1.5923-3.5625 3.5938-3.5625a1.0087,1.0087 0 0,0 1-1v-7.0625a1.0087,1.0087 0 0,0 -1-1c-2.0014,0-3.5938-1.5975-3.5938-3.5625 0-1.965 1.5923-3.5625 3.5938-3.5625a1.0087,1.0087 0 0,0 1-1v-7.0625a1.0087,1.0087 0 0,0 -1-1c-2.0014,0-3.5938-1.5975-3.5938-3.5625 0-1.965 1.5923-3.5625 3.5938-3.5625a1.0087,1.0087 0 0,0 1-1v-7.0625a1.0087,1.0087 0 0,0 -1-1c-2.0014,0-3.5938-1.5975-3.5938-3.5625 0-1.965 1.5923-3.5625 3.5938-3.5625a1.0087,1.0087 0 0,0 1-1v-7.0625a1.0087,1.0087 0 0,0 -1-1c-2.0014,0-3.5938-1.5975-3.5938-3.5625 0-1.9242 1.5291-3.4981 3.4688-3.5625a1.0087,1.0087 0 0,0 .9688-1.2188c-.614-2.9505-2.8616-5.2814-5.75-6.0625a1.0087,1.0087 0 0,0 -1.25,.9062c-.1056,1.8735-1.6317,3.375-3.5625,3.375-2.0014,0-3.625-1.6058-3.625-3.5625a1.0087,1.0087 0 0,0 -1-1h-7.1562a1.0087,1.0087 0 0,0 -1,1c0,1.965-1.5923,3.5625-3.5938,3.5625-2.0014,0-3.625-1.6058-3.625-3.5625a1.0087,1.0087 0 0,0 -1-1h-7.1562a1.0087,1.0087 0 0,0 -1,1c0,1.9567-1.6236,3.5625-3.625,3.5625-2.0014,0-3.5938-1.5975-3.5938-3.5625a1.0087,1.0087 0 0,0 -1-1h-7.1562a1.0087,1.0087 0 0,0 -1,1c0,1.9567-1.6236,3.5625-3.625,3.5625-2.0014,0-3.5938-1.5975-3.5938-3.5625a1.0087,1.0087 0 0,0 -1-1h-7.1875a1.0087,1.0087 0 0,0 -.1875,0z"
     id="path40" />
  <path
     opacity=".45"
     fill="url(#linearGradient3643)"
     d="m12,7c-3.1577,0-5.7192,2.4087-5.9688,5.5 2.4694,.0171 4.4688,2.0266 4.4688,4.5 0,2.484-2.016,4.5-4.5,4.5v7c2.484,0 4.5,2.016 4.5,4.5 0,2.484-2.016,4.5-4.5,4.5v7c2.484,0 4.5,2.016 4.5,4.5 0,2.484-2.016,4.5-4.5,4.5v7c2.484,0 4.5,2.016 4.5,4.5 0,2.484-2.016,4.5-4.5,4.5v7c2.484-0 4.5,2.016 4.5,4.5 0,2.4734-1.9993,4.4829-4.4688,4.5 .2495,3.0913 2.8111,5.5 5.9688,5.5 0-2.484 2.016-4.5 4.5-4.5 2.484,0 4.5,2.016 4.5,4.5h7c0-2.484 2.016-4.5 4.5-4.5 2.484,0 4.5,2.016 4.5,4.5h7c0-2.484 2.016-4.5 4.5-4.5 2.484,0 4.5,2.016 4.5,4.5h7c0-2.484 2.016-4.5 4.5-4.5 2.484,0 4.5,2.016 4.5,4.5h7c-0-2.484 2.016-4.5 4.5-4.5 2.4522,0 4.4493,1.9661 4.5,4.4062 2.6885-.4451 4.746-2.647 4.9688-5.4062-2.4694-.0171-4.4688-2.0266-4.4688-4.5 0-2.484 2.016-4.5 4.5-4.5v-7c-2.484,0-4.5-2.016-4.5-4.5 0-2.484 2.016-4.5 4.5-4.5v-7c-2.484,0-4.5-2.016-4.5-4.5 0-2.484 2.016-4.5 4.5-4.5v-7c-2.484,0-4.5-2.016-4.5-4.5 0-2.484 2.016-4.5 4.5-4.5v-7c-2.484,0-4.5-2.016-4.5-4.5 0-2.4734 1.9993-4.4829 4.4688-4.5-.2227-2.7593-2.2802-4.9611-4.9688-5.4062-.0507,2.4401-2.0478,4.4062-4.5,4.4062-2.484,0-4.5-2.016-4.5-4.5h-7c0,2.484-2.016,4.5-4.5,4.5-2.484,0-4.5-2.016-4.5-4.5h-7c0,2.484-2.016,4.5-4.5,4.5-2.484,0-4.5-2.016-4.5-4.5h-7c0,2.484-2.016,4.5-4.5,4.5-2.484,0-4.5-2.016-4.5-4.5h-7c0,2.484-2.016,4.5-4.5,4.5-2.484,0-4.5-2.016-4.5-4.5z"
     id="path42" />
  <path
     opacity=".3"
     fill="url(#linearGradient3652)"
     d="m20.3438,7c0,2.5136-2.0506,4.5625-4.5938,4.5625-2.5214,0-4.559-2.016-4.5938-4.5-2.9961,.3585-5.3943,2.5891-6,5.5 2.4704,.082 4.4375,2.1009 4.4375,4.5625 0,2.5136-2.0506,4.5625-4.5938,4.5625v7.0625c2.5431,0 4.5938,2.0489 4.5938,4.5625 0,2.5136-2.0506,4.5625-4.5938,4.5625v7.0625c2.5431,0 4.5938,2.0489 4.5938,4.5625 0,2.5136-2.0506,4.5625-4.5938,4.5625v7.0625c2.5431,0 4.5938,2.0489 4.5938,4.5625 0,2.5136-2.0506,4.5625-4.5938,4.5625v7.0625c2.5431-0 4.5938,2.0489 4.5938,4.5625 0,2.4615-1.9671,4.4805-4.4375,4.5625 .6057,2.9109 3.0039,5.1415 6,5.5 .0348-2.484 2.0723-4.5 4.5938-4.5 2.5431,0 4.5938,2.0489 4.5938,4.5625h7.1875c0-2.5136 2.0506-4.5625 4.5938-4.5625 2.5431,0 4.625,2.0489 4.625,4.5625h7.1562c0-2.5136 2.0506-4.5625 4.5938-4.5625 2.5431,0 4.625,2.0489 4.625,4.5625h7.1562c0-2.5136 2.0819-4.5625 4.625-4.5625 2.5431,0 4.5938,2.0489 4.5938,4.5625h7.1562c-0-2.5136 2.0819-4.5625 4.625-4.5625 2.456,0 4.4276,1.9182 4.5625,4.3125 2.5226-.6822 4.4631-2.7322 5-5.3125-2.4704-.082-4.4375-2.1009-4.4375-4.5625 0-2.5136 2.0506-4.5625 4.5938-4.5625v-7.0625c-2.5431,0-4.5938-2.0489-4.5938-4.5625 0-2.5136 2.0506-4.5625 4.5938-4.5625v-7.0625c-2.5431,0-4.5938-2.0489-4.5938-4.5625 0-2.5136 2.0506-4.5625 4.5938-4.5625v-7.0625c-2.5431,0-4.5938-2.0489-4.5938-4.5625 0-2.5136 2.0506-4.5625 4.5938-4.5625v-7.0625c-2.5431,0-4.5938-2.0489-4.5938-4.5625 0-2.4616 1.9671-4.4805 4.4375-4.5625-.5369-2.5803-2.4774-4.6303-5-5.3125-.1349,2.3943-2.1065,4.3125-4.5625,4.3125-2.5431,0-4.625-2.0489-4.625-4.5625h-7.1562c0,2.5136-2.0506,4.5625-4.5938,4.5625-2.5431,0-4.625-2.0489-4.625-4.5625h-7.1562c0,2.5136-2.0819,4.5625-4.625,4.5625-2.5431,0-4.5938-2.0489-4.5938-4.5625h-7.1562c0,2.5136-2.0819,4.5625-4.625,4.5625-2.5431,0-4.5938-2.0489-4.5938-4.5625h-7.1875z"
     id="path44" />
  <path
     d="m19.9688,5.0625c-2.3303,.4186-.951,3.7558-3.1706,4.3572-2.521,1.0628-3.5692-1.5089-4.0169-3.4197-1.6068-2.0397-4.7156-.1187-6.3251,.9718-1.6613,1.5187-3.9137,4.1149-3.0187,6.5282 .963,1.7201 3.9861,.5317 4.168,3.1048 .5461,2.4484-1.8751,2.9888-3.6055,3.4264-1.7286,1.2095-.6257,3.6943-.9375,5.4482 .2132,1.6664-.7689,4.399 1.375,5.1143 3.2092-.4575 4.5988,4.5868 1.1075,5.2907-1.6977-.2501-2.9027,1.4136-2.4825,3.0017 .1671,2.3025-.3229,4.7199 .2188,6.9576 .9665,1.8283 4.1171,.4439 4.3224,3.1252 .5553,2.4514-1.8692,3.0011-3.6037,3.4373-1.7286,1.2095-.6257,3.6943-.9375,5.4482 .2132,1.6664-.7689,4.399 1.375,5.1143 3.2092-.4575 4.5988,4.5868 1.1075,5.2907-1.6977-.2501-2.9027,1.4136-2.4825,3.0017 .1671,2.3025-.3229,4.7199 .2188,6.9576 .9665,1.8283 4.1171,.4439 4.3224,3.1252 .5871,2.5432-2.0477,2.8495-3.6974,3.5935-1.8374,1.7909 .3534,4.6396 1.5459,6.1651 1.6687,1.5649 4.5831,3.6735 6.9229,2.3661 1.3306-1.1911 .3527-3.8497 2.8337-4.0425 2.4103-.564 3.0303,1.8314 3.4788,3.5738 1.2095,1.7286 3.6943,.6257 5.4482,.9375 1.6851-.2476 4.3808,.7952 5.2081-1.2812-.2394-2.6851 3.2899-4.6155 5.0134-2.118 .4375,1.222 .4756,3.3734 2.2991,3.3992 2.6837-.1502 5.4625,.286 8.0938-.1875 1.7982-.807 .5557-3.6262 2.7018-4.1697 2.3284-.9921 3.8016,1.2694 3.9232,3.2635 1.0438,1.8806 3.5773,.8163 5.2891,1.0938 1.7341-.2885 4.3004,.8032 5.3671-1.0938 .1216-1.994 1.5948-4.2556 3.9232-3.2635 2.1693,.5602 .8551,4.077 3.2643,4.326 2.707-.0522 5.5157,.2499 8.1875-.125 1.9165-.7198 .6372-3.665 2.823-4.1981 2.6673-1.1436 3.2884,1.7364 4.177,3.4481 1.678,1.6808 4.2499-.3415 5.6605-1.46 1.387-1.5301 3.5645-4.0962 2.3707-6.2587-1.089-1.448-3.8563-.4497-4.043-2.9173-.5461-2.4484 1.8751-2.9888 3.6055-3.4264 1.7286-1.2095 .6257-3.6943 .9375-5.4482-.2132-1.6664 .7689-4.399-1.375-5.1143-3.2092,.4575-4.5988-4.5868-1.1075-5.2907 1.6977,.2501 2.9027-1.4136 2.4825-3.0017-.1671-2.3025 .3229-4.7199-.2188-6.9576-.9665-1.8283-4.1171-.4439-4.3224-3.1252-.5553-2.4514 1.8692-3.0011 3.6037-3.4373 1.7286-1.2095 .6257-3.6943 .9375-5.4482-.2132-1.6664 .7689-4.399-1.375-5.1143-3.2092,.4575-4.5988-4.5868-1.1075-5.2907 1.6977,.2501 2.9027-1.4136 2.4825-3.0017-.1671-2.3025 .3229-4.7199-.2188-6.9576-.9665-1.8283-4.1171-.4439-4.3224-3.1252-.5871-2.5432 2.0477-2.8495 3.6974-3.5935 1.7378-1.6304-.159-4.2635-1.1931-5.7541-1.4525-1.485-3.8929-3.7556-6.1194-2.6834-1.5013,1.013-.6095,3.7622-2.9761,3.9497-2.3064,.5197-3.1568-1.7031-3.4301-3.481-1.1583-1.8528-3.7343-.7198-5.5107-1.0312-1.6761,.2424-4.3567-.7866-5.1768,1.2812 .2394,2.6851-3.2899,4.6155-5.0134,2.118-.4375-1.222-.4756-3.3734-2.2991-3.3992-2.6837,.1502-5.4625-.286-8.0938,.1875-1.7942,.8172-.57,3.6269-2.7293,4.1668-2.4003,1.0296-3.6922-1.3519-3.927-3.3231-1.1583-1.8528-3.7343-.7198-5.5107-1.0312-1.6761,.2424-4.3567-.7866-5.1768,1.2812 .1796,2.4257-2.7375,4.4713-4.7034,2.515-.9957-1.0581-.4129-3.4731-2.3278-3.765-2.6347-.0748-5.2942-.0094-7.9375-.0312z"
     id="path46"
     fill="url(#linearGradient3652)"
     opacity=".1" />
  <path
     fill="url(#linearGradient3441)"
     d="m12,6c-3.1577,0-5.7192,2.4087-5.9688,5.5 2.4694,.0171 4.4688,2.0266 4.4688,4.5 0,2.484-2.016,4.5-4.5,4.5v7c2.484,0 4.5,2.016 4.5,4.5 0,2.484-2.016,4.5-4.5,4.5v7c2.484,0 4.5,2.016 4.5,4.5 0,2.484-2.016,4.5-4.5,4.5v7c2.484,0 4.5,2.016 4.5,4.5 0,2.484-2.016,4.5-4.5,4.5v7c2.484-0 4.5,2.016 4.5,4.5 0,2.4734-1.9993,4.4829-4.4688,4.5 .2495,3.0913 2.8111,5.5 5.9688,5.5 0-2.484 2.016-4.5 4.5-4.5 2.484,0 4.5,2.016 4.5,4.5h7c0-2.484 2.016-4.5 4.5-4.5 2.484,0 4.5,2.016 4.5,4.5h7c0-2.484 2.016-4.5 4.5-4.5 2.484,0 4.5,2.016 4.5,4.5h7c0-2.484 2.016-4.5 4.5-4.5 2.484,0 4.5,2.016 4.5,4.5h7c-0-2.484 2.016-4.5 4.5-4.5 2.4522,0 4.4493,1.9661 4.5,4.4062 2.6885-.4451 4.746-2.647 4.9688-5.4062-2.4694-.0171-4.4688-2.0266-4.4688-4.5 0-2.484 2.016-4.5 4.5-4.5v-7c-2.484,0-4.5-2.016-4.5-4.5 0-2.484 2.016-4.5 4.5-4.5v-7c-2.484,0-4.5-2.016-4.5-4.5 0-2.484 2.016-4.5 4.5-4.5v-7c-2.484,0-4.5-2.016-4.5-4.5 0-2.484 2.016-4.5 4.5-4.5v-7c-2.484,0-4.5-2.016-4.5-4.5 0-2.4734 1.9993-4.4829 4.4688-4.5-.2227-2.7593-2.2802-4.9611-4.9688-5.4062-.0507,2.4401-2.0478,4.4062-4.5,4.4062-2.484,0-4.5-2.016-4.5-4.5h-7c0,2.484-2.016,4.5-4.5,4.5-2.484,0-4.5-2.016-4.5-4.5h-7c0,2.484-2.016,4.5-4.5,4.5-2.484,0-4.5-2.016-4.5-4.5h-7c0,2.484-2.016,4.5-4.5,4.5-2.484,0-4.5-2.016-4.5-4.5h-7c0,2.484-2.016,4.5-4.5,4.5-2.484,0-4.5-2.016-4.5-4.5z"
     id="path48" />
  <path
     opacity=".5"
     fill="url(#linearGradient3434)"
     d="m12,6c-3.1577,0-5.7192,2.4087-5.9688,5.5 .3876,.0027 .7665,.0613 1.125,.1562 .5061-1.9479 2.0913-3.3648 4.125-3.6562 .5136,2.4581 2.6136,4.375 5.2188,4.375 2.6501,0 4.7867-1.9789 5.25-4.5h5.5c.4633,2.5211 2.5999,4.5 5.25,4.5 2.6501,0 4.7867-1.9789 5.25-4.5h5.5c.4633,2.5211 2.5999,4.5 5.25,4.5 2.6501,0 4.7867-1.9789 5.25-4.5h5.5c.4633,2.5211 2.5999,4.5 5.25,4.5 2.6501,0 4.7867-1.9789 5.25-4.5h5.5c.4633,2.5211 2.5999,4.5 5.25,4.5 2.5338,0 4.5992-1.7976 5.1875-4.1562 1.5651,.5524 2.7347,1.8127 3.1562,3.4375 .3585-.0949 .7374-.1536 1.125-.1562-.2227-2.7593-2.2802-4.9611-4.9688-5.4062-.0507,2.4401-2.0478,4.4062-4.5,4.4062-2.484,0-4.5-2.016-4.5-4.5h-7c0,2.484-2.016,4.5-4.5,4.5-2.484,0-4.5-2.016-4.5-4.5h-7c0,2.484-2.016,4.5-4.5,4.5-2.484,0-4.5-2.016-4.5-4.5h-7c0,2.484-2.016,4.5-4.5,4.5-2.484,0-4.5-2.016-4.5-4.5h-7c0,2.484-2.016,4.5-4.5,4.5-2.484,0-4.5-2.016-4.5-4.5zm-3.9688,6c1.4652,.7424 2.4688,2.2462 2.4688,4 0,2.484-2.016,4.5-4.5,4.5v7c.3211,0 .6354,.0297 .9375,.0938v-5.4062c2.5211-.4633 4.5-2.5999 4.5-5.25 0-2.2513-1.4321-4.1336-3.4062-4.9375zm79.9375,0c-1.9742,.8039-3.4062,2.6862-3.4062,4.9375 0,2.6501 1.9789,4.7867 4.5,5.25v5.4062c.3021-.064 .6164-.0938 .9375-.0938v-7c-2.484,0-4.5-2.016-4.5-4.5 0-1.7538 1.0035-3.2576 2.4688-4zm-79.7812,16.0938c1.3692,.7719 2.3125,2.2234 2.3125,3.9062 0,2.484-2.016,4.5-4.5,4.5v7c.3211,0 .6354,.0297 .9375,.0938v-5.4062c2.5211-.4633 4.5-2.5999 4.5-5.25 0-2.1892-1.3591-4.0092-3.25-4.8438zm79.625,0c-1.8909,.8346-3.25,2.6546-3.25,4.8438 0,2.6501 1.9789,4.7867 4.5,5.25v5.4062c.3021-.064 .6164-.0938 .9375-.0938v-7c-2.484,0-4.5-2.016-4.5-4.5 0-1.6828 .9433-3.1343 2.3125-3.9062zm-79.625,16c1.3692,.7719 2.3125,2.2234 2.3125,3.9062 0,2.484-2.016,4.5-4.5,4.5v7c.3211,0 .6354,.0297 .9375,.0938v-5.4062c2.5211-.4633 4.5-2.5999 4.5-5.25 0-2.1892-1.3591-4.0092-3.25-4.8438zm79.625,0c-1.8909,.8346-3.25,2.6546-3.25,4.8438 0,2.6501 1.9789,4.7867 4.5,5.25v5.4062c.3021-.064 .6164-.0938 .9375-.0938v-7c-2.484,0-4.5-2.016-4.5-4.5 0-1.6828 .9433-3.1343 2.3125-3.9062zm-79.625,16c1.3692,.7719 2.3125,2.2234 2.3125,3.9062 0,2.484-2.016,4.5-4.5,4.5v7c.3211-0 .6354,.0297 .9375,.0938v-5.4062c2.5211-.4633 4.5-2.5999 4.5-5.25 0-2.1892-1.3591-4.0092-3.25-4.8438zm79.625,0c-1.8909,.8346-3.25,2.6546-3.25,4.8438 0,2.6501 1.9789,4.7867 4.5,5.25v5.4062c.3021-.064 .6164-.0938 .9375-.0938v-7c-2.484,0-4.5-2.016-4.5-4.5 0-1.6828 .9433-3.1343 2.3125-3.9062zm-79.625,16c1.3692,.7719 2.3125,2.2234 2.3125,3.9062 0,2.4734-1.9993,4.4829-4.4688,4.5 .2495,3.0913 2.8111,5.5 5.9688,5.5 0-2.1629 1.5274-3.975 3.5625-4.4062-2.1542,.4005-3.8319,2.1304-4.2812,4.2812-2.0542-.2944-3.6355-1.7406-4.125-3.7188 2.4131-.5481 4.2812-2.6458 4.2812-5.2188 0-2.1892-1.3591-4.0092-3.25-4.8438zm79.625,0c-1.8909,.8346-3.25,2.6546-3.25,4.8438 0,2.5729 1.8681,4.6707 4.2812,5.2188-.4087,1.6533-1.5722,2.9409-3.1562,3.5-.5147-2.0638-2.1492-3.6862-4.25-4.0625 2.0106,.4212 3.5184,2.1881 3.5625,4.3125 2.6885-.4451 4.746-2.647 4.9688-5.4062-2.4694-.0171-4.4688-2.0266-4.4688-4.5 0-1.6828 .9433-3.1343 2.3125-3.9062zm-70.3438,9.5c2.0202,.4425 3.5312,2.2539 3.5312,4.4062h.75c-.4054-2.2059-2.0906-3.993-4.2812-4.4062zm14.0625,0c-2.1906,.4132-3.8759,2.2003-4.2812,4.4062h.75c0-2.1524 1.5111-3.9637 3.5312-4.4062zm1.9375,0c2.0202,.4425 3.5312,2.2539 3.5312,4.4062h.75c-.4054-2.2059-2.0906-3.993-4.2812-4.4062zm14.0625,0c-2.1906,.4132-3.8759,2.2003-4.2812,4.4062h.75c0-2.1524 1.5111-3.9637 3.5312-4.4062zm1.9375,0c2.0202,.4425 3.5312,2.2539 3.5312,4.4062h.75c-.4054-2.2059-2.0906-3.993-4.2812-4.4062zm14.0625,0c-2.1906,.4132-3.8759,2.2003-4.2812,4.4062h.75c0-2.1524 1.5111-3.9637 3.5312-4.4062zm1.9375,0c2.0202,.4425 3.5312,2.2539 3.5312,4.4062h.75c-.4054-2.2059-2.0906-3.993-4.2812-4.4062zm14.0625,0c-2.1906,.4132-3.8759,2.2003-4.2812,4.4062h.75c-0-2.1524 1.5111-3.9637 3.5312-4.4062z"
     id="path50" />
  <path
     opacity=".3"
     fill="url(#radialGradient3684)"
     d="m6.5312,9.5625c-.266,.6018-.4444,1.2489-.5,1.9375 2.1261,.0147 3.8906,1.507 4.3438,3.5 .0738-.3231 .125-.6547 .125-1 0-2.3025-1.7373-4.172-3.9688-4.4375zm82.9375,0c-2.2314,.2655-3.9688,2.135-3.9688,4.4375 0,.3453 .0512,.6769 .125,1 .4532-1.993 2.2177-3.4853 4.3438-3.5-.0557-.6898-.2338-1.3361-.5-1.9375zm-83.4688,15.9375v2c2.1387,0 3.9181,1.4991 4.375,3.5 .0738-.3231 .125-.6547 .125-1 0-2.484-2.016-4.5-4.5-4.5zm84,0c-2.484,0-4.5,2.016-4.5,4.5 0,.3453 .0512,.6769 .125,1 .4569-2.0009 2.2363-3.5 4.375-3.5v-2zm-84,16 0,2c2.1387,0 3.9181,1.4991 4.375,3.5 .0738-.3231 .125-.6547 .125-1 0-2.484-2.016-4.5-4.5-4.5zm84,0c-2.484,0-4.5,2.016-4.5,4.5 0,.3453 .0512,.6769 .125,1 .4569-2.0009 2.2363-3.5 4.375-3.5v-2zm-84,16 0,2c2.1387,0 3.9181,1.4991 4.375,3.5 .0738-.3231 .125-.6547 .125-1 0-2.484-2.016-4.5-4.5-4.5zm84,0c-2.484,0-4.5,2.016-4.5,4.5 0,.3453 .0512,.6769 .125,1 .4569-2.0009 2.2363-3.5 4.375-3.5v-2zm-84,16 0,2c2.1387-0 3.9181,1.4991 4.375,3.5 .0732-.3218 .125-.6561 .125-1 0-2.484-2.016-4.5-4.5-4.5zm84,0c-2.484,0-4.5,2.016-4.5,4.5 0,.3439 .0518,.6782 .125,1 .4569-2.0009 2.2363-3.5 4.375-3.5v-2zm-73.5,10c-2.484,0-4.5,2.016-4.5,4.5-2.4543,0-4.5404-1.4627-5.4688-3.5625-.1657,.0197-.3293,.0613-.5,.0625 .2495,3.0913 2.8111,5.5 5.9688,5.5 0-2.484 2.016-4.5 4.5-4.5 2.484,0 4.5,2.016 4.5,4.5h7c0-2.484 2.016-4.5 4.5-4.5 2.484,0 4.5,2.016 4.5,4.5h7c0-2.484 2.016-4.5 4.5-4.5 2.484,0 4.5,2.016 4.5,4.5h7c0-2.484 2.016-4.5 4.5-4.5 2.484,0 4.5,2.016 4.5,4.5h7c-0-2.484 2.016-4.5 4.5-4.5 2.4522,0 4.4493,1.9661 4.5,4.4062 2.6885-.4451 4.746-2.647 4.9688-5.4062-.1707-.0012-.3343-.0428-.5-.0625-.7987,1.8042-2.4523,3.1349-4.4688,3.4688-.0507-2.4401-2.0478-4.4062-4.5-4.4062-2.484,0-4.5,2.016-4.5,4.5h-7c0-2.484-2.016-4.5-4.5-4.5-2.484,0-4.5,2.016-4.5,4.5h-7c0-2.484-2.016-4.5-4.5-4.5-2.484,0-4.5,2.016-4.5,4.5h-7c0-2.484-2.016-4.5-4.5-4.5-2.484,0-4.5,2.016-4.5,4.5h-7c0-2.484-2.016-4.5-4.5-4.5z"
     id="path52" />
  <path
     opacity=".15"
     fill="url(#linearGradient2885)"
     filter="url(#filter3794)"
     stroke="#fff"
     stroke-linecap="round"
     stroke-width=".5"
     d="m27,15h42a12,12 0 0,1 12,12v42a12,12 0 0,1 -12,12h-42a12,12 0 0,1 -12-12v-42a12,12 0 0,1 12-12"
     clip-path="url(#clipPath2880)"
     id="path54" />
  <g
     fill="#300000"
     id="g56">
    <path
       opacity=".05"
       d="m31.8438,19.0938c-1.0321-.0243-1.9075,.5533-2.4375,1.25-.5,.6571-.736,1.4413-.8125,2.2188h-.0312c-.0117,.0518-.0195,.1045-.0312,.1562-3.5961,15.8429-7.2462,31.6823-10.8125,47.5312a.9864,.9864 0 0,0 0,.0625c-.1764,1.1796 .3736,2.2645 1.1875,2.875 .7641,.5731 1.7451,.8017 2.7188,.6562v.0312c2.8521-.0403 5.8086,.0853 8.75-.0625a.9864,.9864 0 0,0 .2188-.0625c1.33-.3982 2.0174-1.5313 2.3125-2.5312 .2951-1 .3877-2.0006 .5938-2.5938a.9864,.9864 0 0,0 .0312-.0938l3.9062-16.3438h13.6875c-5.6154,4.9933-11.2673,9.9785-16.8438,15.0312a.9864,.9864 0 0,0 -.0625,.0625c-.8155,.8802-.9074,2.0875-.5938,3 .3004,.874 .8742,1.5536 1.4688,2.0938 .0244,.0264 .0382,.0672 .0625,.0938 1.8257,1.9908 3.5168,4.2463 5.5938,6.2188a.9864,.9864 0 0,0 .2188,.1562c1.1882,.6554 2.4566,.3465 3.375-.0938 .9184-.4403 1.6803-.9742 2.25-1.1875a.9864,.9864 0 0,0 .1562-.0938c2.3444-1.4249 5.2239-1.8361 7.7188-.7812a.9864,.9864 0 0,0 .0625,.0312c4.9856,1.7295 10.6542,2.897 16,.875a.9864,.9864 0 0,0 0-.0312c2.1055-.8096 4.5534-1.585 6.5-3.25a.9864,.9864 0 0,0 .125-.1562c.7443-1.0111 .7173-2.1912 .5312-3.125-.186-.9338-.4903-1.7642-.5312-2.3438a.9864,.9864 0 0,0 0-.1875c-.479-1.8925-.5725-4.0976-1.4375-6.25a.9864,.9864 0 0,0 -.0938-.1875c-.6562-.9327-1.7494-1.3398-2.7188-1.2812-.9174,.0554-1.7726,.4666-2.4375,1.0938-2.2633,1.6584-5.1054,2.5448-7.625,1.5a.9864,.9864 0 0,0 -.0938-.0312c-.6068-.1744-1.0498-.3301-1.5312-.4688 4.7459-4.0211 9.5957-7.9645 14.3125-12.0625a.9864,.9864 0 0,0 .25-.375c.8985-2.0904 1.1282-4.2618 1.6875-6.1562a.9864,.9864 0 0,0 .0312-.1562c.0667-.5777 .371-1.3831 .5938-2.2812 .2227-.8982 .3417-2.0163-.2812-3.0625a.9864,.9864 0 0,0 -.0625-.0938c-.8086-1.0613-2.0544-1.3544-3.0625-1.375-1.0081-.0206-1.9145,.1364-2.5312,.0625a.9864,.9864 0 0,0 -.125-.0312h-31.625l.9375-3.625c7.7644-.0151 15.5359,.0393 23.3125-.0312a.9864,.9864 0 0,0 .1875-.0312c1.3733-.2561 2.1482-1.3779 2.4688-2.375 .3206-.9971 .3913-2.0054 .5625-2.625a.9864,.9864 0 0,0 .0312-.0938c.3523-2.0401 1.0661-4.1768 1.25-6.5a.9864,.9864 0 0,0 0-.125c-.0907-1.1555-.8551-2.0529-1.7188-2.4688-.813-.3914-1.6989-.4241-2.5312-.3125v-.0625h-33.0312-.0312z"
       id="path58" />
    <path
       opacity=".1"
       d="m31.8438,20.0938c-1.3944-.0492-2.2334,1.4016-2.3139,2.6855-3.608,15.8967-7.2651,31.792-10.8423,47.6895-.2437,1.6294 1.4783,2.7076 2.9512,2.4062 2.8895-.0408 5.7938,.0823 8.6738-.0625 1.9332-.5788 1.7117-2.9286 2.2531-4.4869 1.3636-5.7127 2.7271-11.4254 4.0907-17.1381 5.6979,0 11.3958,0 17.0938,0-6.262,5.5918-12.5946,11.116-18.8125,16.75-1.1512,1.2425-.1743,2.8542 .8712,3.7756 1.8993,2.0596 3.605,4.3337 5.6288,6.2557 1.7122,.9444 3.2859-.7697 4.8219-1.3448 2.578-1.5669 5.7712-2.0361 8.597-.8413 4.8932,1.6975 10.3175,2.7573 15.3271,.8625 2.1329-.8202 4.4418-1.5863 6.1914-3.0828 1.0545-1.4326-.0626-3.2234-.1738-4.7983-.5136-2.0294-.6091-4.1993-1.3887-6.1392-.9157-1.3015-2.754-1.0061-3.7632,.021-2.4466,1.7926-5.6449,2.8507-8.5844,1.6318-1.6905-.486-4.4063-.8068-1.8848-2.1647 4.7545-4.0283 9.5926-7.9653 14.2949-12.0506 .8205-1.9089 1.0548-4.0689 1.6474-6.0762 .1791-1.5518 1.3356-3.2115 .4463-4.7051-1.1685-1.5337-3.3083-.7404-4.9521-.9375-10.9639,0-21.9278,0-32.8916,0 .4792-1.875 .9583-3.75 1.4375-5.625 8.0304-.0208 16.0677,.0416 24.0938-.0312 1.9993-.3728 1.87-2.7306 2.2966-4.2743 .3698-2.1417 1.0637-4.2537 1.2346-6.4132-.1255-1.5981-1.9163-2.1336-3.2817-1.9062-11.0207,0-22.0414,0-33.062,0z"
       id="path60" />
    <path
       opacity=".15"
       d="m31.8438,21.2188a1.0168,1.0168 0 0,0 -1,.8125l-11.0312,48.4688a1.0168,1.0168 0 0,0 1,1.25h8.9688a1.0168,1.0168 0 0,0 1-.7812l5-20.9062h20.9375l-20.875,18.5312a1.0168,1.0168 0 0,0 -.0625,1.4062l5.9688,6.8125a1.0168,1.0168 0 0,0 1.2188,.25l3.0312-1.5625c2.7672-1.4105 4.5627-1.6571 6.25-1.4688 1.6873,.1883 3.3295,.8771 5.5938,1.5 4.2419,1.167 8.8659,2.4561 17.375-2.4062a1.0168,1.0168 0 0,0 .5-1.0625l-1.6562-8.375a1.0168,1.0168 0 0,0 -1.5938-.6562c-4.3816,3.0884-6.8973,3.1719-9.3438,2.5625-1.8594-.4632-3.881-1.3296-6.2188-1.8438l16.9062-14.1875a1.0168,1.0168 0 0,0 .3438-.5312l2.0312-8.2812a1.0168,1.0168 0 0,0 -1-1.2812h-37.4688l2-7.875h24.5938a1.0168,1.0168 0 0,0 1-.8125l1.75-8.3125a1.0168,1.0168 0 0,0 -1-1.25h-34.2188z"
       id="path62" />
    <path
       opacity=".3"
       d="m31.8383,22.2639-11.0184,48.4531 8.9524,0 5.2004-21.6833 24.4379,0-22.886,20.3091 5.9661,6.8102 3.0559-1.561c5.7789-2.9455 8.2026-1.2232 12.587-.017 4.2654,1.1735 8.2752,2.4294 16.5945-2.3245l-1.6521-8.3906c-9.0793,6.3995-11.9516,.6899-18.4181,.4633l18.5133-15.5296 2.0088-8.2901h-38.7795l2.4963-9.9496h25.418l1.7431-8.2901h-34.2198z"
       id="path64" />
  </g>
  <path
     fill="#fff"
     d="m31.8383,21.2634-11.0184,48.4531 8.9524,0 5.2004-21.6833 24.4379,0-22.886,20.3091 5.9661,6.8102 3.0559-1.561c5.7789-2.9455 8.2026-1.2232 12.587-.017 4.2654,1.1735 8.2752,2.4294 16.5945-2.3245l-1.6521-8.3906c-9.0793,6.3995-11.9516,.6899-18.4181,.4633l18.5133-15.5296 2.0088-8.2901h-38.7795l2.4963-9.9496h25.418l1.7431-8.2901h-34.2198z"
     id="path66" />
</svg>
