<?xml version="1.0" encoding="UTF-8" standalone="no"?>
<svg
   xmlns:dc="http://purl.org/dc/elements/1.1/"
   xmlns:cc="http://creativecommons.org/ns#"
   xmlns:rdf="http://www.w3.org/1999/02/22-rdf-syntax-ns#"
   xmlns:svg="http://www.w3.org/2000/svg"
   xmlns="http://www.w3.org/2000/svg"
   xmlns:xlink="http://www.w3.org/1999/xlink"
   xmlns:sodipodi="http://sodipodi.sourceforge.net/DTD/sodipodi-0.dtd"
   xmlns:inkscape="http://www.inkscape.org/namespaces/inkscape"
   viewBox="0 0 96 96"
   id="svg2"
   version="1.1"
   inkscape:version="0.91 r"
   sodipodi:docname="firefox-original.svg">
  <title
     id="title369">firefox</title>
  <metadata
     id="metadata364">
    <rdf:RDF>
      <cc:Work
         rdf:about="">
        <dc:format>image/svg+xml</dc:format>
        <dc:type
           rdf:resource="http://purl.org/dc/dcmitype/StillImage" />
        <dc:title>firefox</dc:title>
        <dc:subject>
          <rdf:Bag>
            <rdf:li>firefox</rdf:li>
            <rdf:li>web-browser</rdf:li>
            <rdf:li>internet</rdf:li>
          </rdf:Bag>
        </dc:subject>
        <dc:description>firefox, web-browser, internet</dc:description>
      </cc:Work>
    </rdf:RDF>
  </metadata>
  <sodipodi:namedview
     pagecolor="#ffffff"
     bordercolor="#666666"
     borderopacity="1"
     objecttolerance="10"
     gridtolerance="10"
     guidetolerance="10"
     inkscape:pageopacity="0"
     inkscape:pageshadow="2"
     inkscape:window-width="1280"
     inkscape:window-height="965"
     id="namedview362"
     showgrid="false"
     inkscape:zoom="2.45833"
     inkscape:cx="-8.79063"
     inkscape:cy="6.78184"
     inkscape:window-x="0"
     inkscape:window-y="27"
     inkscape:window-maximized="1"
     inkscape:current-layer="svg2" />
  <defs
     id="defs4">
    <linearGradient
       gradientTransform="matrix(.82466 .21967 -.21967 .82466 34.60085 -36.7995)"
       id="linearGradient3851"
       xlink:href="#linearGradient3843"
       y1="65.419"
       x1="76.074"
       y2="72.971"
       x2="83.626"
       gradientUnits="userSpaceOnUse" />
    <linearGradient
       gradientTransform="matrix(.96366 -.70075 .70075 .96366 -77.88536 .33109)"
       id="linearGradient3923"
       xlink:href="#linearGradient3993"
       y1="65.419"
       x1="76.074"
       y2="72.971"
       x2="83.626"
       gradientUnits="userSpaceOnUse" />
    <linearGradient
       gradientTransform="matrix(.52255 -.34343 .34343 .52255 8.17743 30.04028)"
       id="linearGradient3915"
       xlink:href="#linearGradient3781"
       y1="65.419"
       x1="76.074"
       y2="72.971"
       x2="83.626"
       gradientUnits="userSpaceOnUse" />
    <linearGradient
       gradientTransform="matrix(1.10676 -.44133 .44133 1.10676 -51.14726 -16.81866)"
       id="linearGradient3919"
       xlink:href="#linearGradient3993"
       y1="65.419"
       x1="76.074"
       y2="72.971"
       x2="83.626"
       gradientUnits="userSpaceOnUse" />
    <linearGradient
       gradientTransform="matrix(.94757 -1.02618 1.02618 .94757 -94.16211 31.40554)"
       id="linearGradient3927"
       xlink:href="#linearGradient3993"
       y1="65.419"
       x1="76.074"
       y2="72.971"
       x2="83.626"
       gradientUnits="userSpaceOnUse" />
    <linearGradient
       gradientTransform="matrix(.53845 -.29469 .27267 .56523 4.43073 -2.9103)"
       id="linearGradient3931"
       xlink:href="#linearGradient3781"
       y1="65.419"
       x1="76.074"
       y2="72.971"
       x2="83.626"
       gradientUnits="userSpaceOnUse" />
    <linearGradient
       gradientTransform="matrix(.06081 -.41123 .41123 .06081 18.96765 48.71069)"
       id="linearGradient3943"
       xlink:href="#linearGradient3781"
       y1="65.419"
       x1="76.074"
       y2="72.971"
       x2="83.626"
       gradientUnits="userSpaceOnUse" />
    <linearGradient
       gradientTransform="matrix(.95975 -.21553 .21553 .95975 -13.63473 -25.65038)"
       id="linearGradient3935"
       xlink:href="#linearGradient3993"
       y1="65.419"
       x1="76.074"
       y2="72.971"
       x2="83.626"
       gradientUnits="userSpaceOnUse" />
    <linearGradient
       gradientTransform="matrix(.60541 -.41119 .38812 .63971 -7.21048 7.92155)"
       id="linearGradient3939"
       xlink:href="#linearGradient3781"
       y1="65.419"
       x1="76.074"
       y2="72.971"
       x2="83.626"
       gradientUnits="userSpaceOnUse" />
    <linearGradient
       gradientTransform="matrix(.34492 -.36811 .36811 .34492 29.1893 57.04822)"
       id="linearGradient3911"
       xlink:href="#linearGradient3727"
       y1="65.419"
       x1="76.074"
       y2="72.971"
       x2="83.626"
       gradientUnits="userSpaceOnUse" />
    <linearGradient
       gradientTransform="matrix(.73641 -.01673 .01673 .73641 30.61768 8.85932)"
       id="linearGradient3901"
       xlink:href="#linearGradient3727"
       y1="65.419"
       x1="76.074"
       y2="72.971"
       x2="83.626"
       gradientUnits="userSpaceOnUse" />
    <linearGradient
       gradientTransform="matrix(.68318 -.31426 .31426 .68318 5.85083 27.26478)"
       id="linearGradient3863"
       xlink:href="#linearGradient3843"
       y1="65.419"
       x1="76.074"
       y2="72.971"
       x2="83.626"
       gradientUnits="userSpaceOnUse" />
    <linearGradient
       gradientTransform="matrix(1.16372 .07552 -.07552 1.16372 -10.19798 -53.96015)"
       id="linearGradient3855"
       xlink:href="#linearGradient3781"
       y1="65.419"
       x1="76.074"
       y2="72.971"
       x2="83.626"
       gradientUnits="userSpaceOnUse" />
    <linearGradient
       gradientTransform="translate(0 -97)"
       id="linearGradient3721"
       xlink:href="#ButtonShadow-7"
       y1="6.132"
       y2="90.239"
       x2="0"
       gradientUnits="userSpaceOnUse" />
    <linearGradient
       gradientTransform="matrix(.46732 -.1161 .1161 .46732 42.42162 22.49601)"
       id="linearGradient3871"
       xlink:href="#linearGradient3843"
       y1="65.419"
       x1="76.074"
       y2="72.971"
       x2="83.626"
       gradientUnits="userSpaceOnUse" />
    <linearGradient
       gradientTransform="matrix(.97825 .20744 -.20744 .97825 22.21839 -23.16591)"
       id="linearGradient3875"
       xlink:href="#linearGradient3727"
       y1="65.419"
       x1="76.074"
       y2="72.971"
       x2="83.626"
       gradientUnits="userSpaceOnUse" />
    <linearGradient
       gradientTransform="matrix(.47831 -.22297 .22297 .47831 32.53641 52.26506)"
       id="linearGradient3893"
       xlink:href="#linearGradient3727"
       y1="65.419"
       x1="76.074"
       y2="72.971"
       x2="83.626"
       gradientUnits="userSpaceOnUse" />
    <linearGradient
       gradientTransform="matrix(.792 .29464 -.29464 .792 42.53906 -26.70467)"
       id="linearGradient3879"
       xlink:href="#linearGradient3727"
       y1="65.419"
       x1="76.074"
       y2="72.971"
       x2="83.626"
       gradientUnits="userSpaceOnUse" />
    <linearGradient
       gradientTransform="matrix(.73637 .01861 -.01861 .73637 24.56069 12.36543)"
       id="linearGradient3889"
       xlink:href="#linearGradient3727"
       y1="65.419"
       x1="76.074"
       y2="72.971"
       x2="83.626"
       gradientUnits="userSpaceOnUse" />
    <linearGradient
       gradientTransform="matrix(.19904 -.70426 .70865 .24014 -16.87541 56.92186)"
       id="linearGradient3947"
       xlink:href="#linearGradient3993"
       y1="65.419"
       x1="76.074"
       y2="72.971"
       x2="83.626"
       gradientUnits="userSpaceOnUse" />
    <linearGradient
       gradientTransform="matrix(.1121 -.60349 .61033 .14609 -16.80507 57.28077)"
       id="linearGradient3951"
       xlink:href="#linearGradient3781"
       y1="65.419"
       x1="76.074"
       y2="72.971"
       x2="83.626"
       gradientUnits="userSpaceOnUse" />
    <linearGradient
       gradientTransform="matrix(-.67785 -.58496 .61224 -.69207 35.36243 175.04136)"
       id="linearGradient4054"
       xlink:href="#linearGradient4046"
       y1="65.419"
       x1="76.074"
       y2="72.971"
       x2="83.626"
       gradientUnits="userSpaceOnUse" />
    <linearGradient
       gradientTransform="matrix(-.13212 -.47753 .47753 -.13212 -.70192 121.25785)"
       id="linearGradient4040"
       xlink:href="#linearGradient4008"
       y1="65.419"
       x1="76.074"
       y2="72.971"
       x2="83.626"
       gradientUnits="userSpaceOnUse" />
    <linearGradient
       gradientTransform="matrix(-.3837 -.98184 1.01807 -.38348 -27.62955 180.22642)"
       id="linearGradient4044"
       xlink:href="#linearGradient4046"
       y1="65.419"
       x1="76.074"
       y2="72.971"
       x2="83.626"
       gradientUnits="userSpaceOnUse" />
    <linearGradient
       gradientTransform="matrix(-.20204 -.45382 .47088 -.20273 -7.92614 124.28332)"
       id="linearGradient4058"
       xlink:href="#linearGradient4046"
       y1="65.419"
       x1="76.074"
       y2="72.971"
       x2="83.626"
       gradientUnits="userSpaceOnUse" />
    <linearGradient
       gradientTransform="matrix(-.45199 -.26064 .21843 -.58652 51.61295 142.51502)"
       id="linearGradient4062"
       xlink:href="#linearGradient4046"
       y1="65.419"
       x1="76.074"
       y2="72.971"
       x2="83.626"
       gradientUnits="userSpaceOnUse" />
    <linearGradient
       gradientTransform="matrix(1.02381 0 0 1.0119 -1.14286 -98.07143)"
       id="linearGradient3780"
       xlink:href="#ButtonShadow-7"
       y1="6.132"
       y2="90.239"
       x2="0"
       gradientUnits="userSpaceOnUse" />
    <linearGradient
       gradientTransform="matrix(-.2272 -.48575 .50168 -.21998 7.57957 78.20188)"
       id="linearGradient4101"
       xlink:href="#linearGradient3781"
       y1="65.419"
       x1="76.074"
       y2="72.971"
       x2="83.626"
       gradientUnits="userSpaceOnUse" />
    <linearGradient
       gradientTransform="matrix(1.00587 0 0 .99417 100 0)"
       id="ButtonShadow-7"
       y1="92.54"
       y2="7.017"
       x2="0"
       gradientUnits="userSpaceOnUse">
      <stop
         offset="0"
         id="stop35" />
      <stop
         offset="1"
         stop-opacity=".588"
         id="stop37" />
    </linearGradient>
    <linearGradient
       gradientTransform="matrix(-.14172 -.51961 .51961 -.14172 -10.32774 117.79869)"
       id="linearGradient4036"
       xlink:href="#linearGradient4008"
       y1="65.419"
       x1="76.074"
       y2="72.971"
       x2="83.626"
       gradientUnits="userSpaceOnUse" />
    <linearGradient
       gradientTransform="matrix(.0339 -.44892 .44892 .0339 -24.47863 88.69333)"
       id="linearGradient4032"
       xlink:href="#linearGradient4008"
       y1="65.419"
       x1="76.074"
       y2="72.971"
       x2="83.626"
       gradientUnits="userSpaceOnUse" />
    <linearGradient
       gradientTransform="matrix(.65266 -.3311 .30386 .68376 -6.9244 7.48465)"
       id="linearGradient3973"
       xlink:href="#linearGradient3781"
       y1="65.419"
       x1="76.074"
       y2="72.971"
       x2="83.626"
       gradientUnits="userSpaceOnUse" />
    <linearGradient
       gradientTransform="matrix(-.63547 -1.0079 1.0079 -.63547 -2.49888 154.66583)"
       id="linearGradient3955"
       xlink:href="#linearGradient3993"
       y1="65.419"
       x1="76.074"
       y2="72.971"
       x2="83.626"
       gradientUnits="userSpaceOnUse" />
    <linearGradient
       gradientTransform="matrix(-.42816 -.45572 .45572 -.42816 11.36498 98.48179)"
       id="linearGradient3959"
       xlink:href="#linearGradient3781"
       y1="65.419"
       x1="76.074"
       y2="72.971"
       x2="83.626"
       gradientUnits="userSpaceOnUse" />
    <linearGradient
       gradientTransform="matrix(-.21981 -1.16731 1.16731 -.21981 -43.12412 180.46059)"
       id="linearGradient4006"
       xlink:href="#linearGradient4008"
       y1="65.419"
       x1="76.074"
       y2="72.971"
       x2="83.626"
       gradientUnits="userSpaceOnUse" />
    <linearGradient
       gradientTransform="matrix(-.62805 -.71406 .71406 -.62805 28.2317 175.16151)"
       id="linearGradient4016"
       xlink:href="#linearGradient4008"
       y1="65.419"
       x1="76.074"
       y2="72.971"
       x2="83.626"
       gradientUnits="userSpaceOnUse" />
    <linearGradient
       gradientTransform="matrix(-.59948 -.32627 .32627 -.59948 59.96383 143.82527)"
       id="linearGradient4028"
       xlink:href="#linearGradient4008"
       y1="65.419"
       x1="76.074"
       y2="72.971"
       x2="83.626"
       gradientUnits="userSpaceOnUse" />
    <linearGradient
       gradientTransform="matrix(.19587 -.69964 .69964 .19587 -48.67257 98.35339)"
       id="linearGradient4020"
       xlink:href="#linearGradient4008"
       y1="65.419"
       x1="76.074"
       y2="72.971"
       x2="83.626"
       gradientUnits="userSpaceOnUse" />
    <linearGradient
       gradientTransform="matrix(-.00788 -.94774 .94774 -.00788 -49.92176 138.70377)"
       id="linearGradient4024"
       xlink:href="#linearGradient4008"
       y1="65.419"
       x1="76.074"
       y2="72.971"
       x2="83.626"
       gradientUnits="userSpaceOnUse" />
    <linearGradient
       gradientTransform="matrix(.45825 -.29087 .29087 .45825 21.66203 36.15885)"
       id="linearGradient3859"
       xlink:href="#linearGradient3843"
       y1="65.419"
       x1="76.074"
       y2="72.971"
       x2="83.626"
       gradientUnits="userSpaceOnUse" />
    <linearGradient
       id="linearGradient3737">
      <stop
         offset="0"
         stop-color="#fff"
         id="stop51" />
      <stop
         offset="1"
         stop-color="#fff"
         stop-opacity="0"
         id="stop53" />
    </linearGradient>
    <linearGradient
       id="linearGradient3700">
      <stop
         offset="0"
         stop-color="#b63602"
         id="stop56" />
      <stop
         offset="1"
         stop-color="#ffa72a"
         id="stop58" />
    </linearGradient>
    <linearGradient
       id="linearGradient7654"
       xlink:href="#linearGradient7648"
       y1="10.333"
       x1="46.147"
       y2="90"
       x2="92.143"
       gradientUnits="userSpaceOnUse" />
    <linearGradient
       id="linearGradient3706"
       xlink:href="#linearGradient3700"
       y1="90"
       y2="5.988"
       x2="0"
       gradientUnits="userSpaceOnUse" />
    <linearGradient
       id="linearGradient3188"
       xlink:href="#linearGradient3737"
       y1="6"
       y2="63.893"
       x2="0"
       gradientUnits="userSpaceOnUse" />
    <linearGradient
       id="linearGradient7646"
       xlink:href="#linearGradient7640"
       x1="6"
       x2="77.531"
       gradientUnits="userSpaceOnUse" />
    <linearGradient
       gradientTransform="matrix(.18908 0 0 .18147 43.83366 51.2707)"
       id="linearGradient3956"
       xlink:href="#linearGradient4317"
       y1="-164.742"
       y2="-32.69"
       x2="0"
       gradientUnits="userSpaceOnUse" />
    <linearGradient
       gradientTransform="matrix(.24057 0 0 .26961 42.83246 65.79078)"
       id="linearGradient3961"
       xlink:href="#linearGradient4317"
       y1="-164.742"
       x1="4.243"
       y2="-47.454"
       x2="6.376"
       gradientUnits="userSpaceOnUse" />
    <linearGradient
       id="linearGradient4317">
      <stop
         offset="0"
         stop-color="#fff"
         id="stop67" />
      <stop
         offset="1"
         stop-color="#fff"
         stop-opacity="0"
         id="stop69" />
    </linearGradient>
    <linearGradient
       id="linearGradient2312">
      <stop
         offset="0"
         stop-color="#e3ebf3"
         id="stop72" />
      <stop
         offset="1"
         stop-color="#cedceb"
         stop-opacity=".392"
         id="stop74" />
    </linearGradient>
    <linearGradient
       id="linearGradient3993">
      <stop
         offset="0"
         stop-color="#ffeaa8"
         id="stop77" />
      <stop
         offset=".607"
         stop-color="#ffc512"
         id="stop79" />
      <stop
         offset="1"
         stop-color="#f59811"
         id="stop81" />
    </linearGradient>
    <linearGradient
       id="linearGradient4046">
      <stop
         offset="0"
         stop-color="#9d1701"
         id="stop84" />
      <stop
         offset="1"
         stop-color="#df731b"
         id="stop86" />
    </linearGradient>
    <linearGradient
       id="linearGradient4008">
      <stop
         offset="0"
         stop-color="#ffa04c"
         id="stop89" />
      <stop
         offset="1"
         stop-color="#df731b"
         id="stop91" />
    </linearGradient>
    <linearGradient
       id="linearGradient3843">
      <stop
         offset="0"
         stop-color="#ffd893"
         id="stop94" />
      <stop
         offset="1"
         stop-color="#e58010"
         id="stop96" />
    </linearGradient>
    <linearGradient
       id="linearGradient3781">
      <stop
         offset="0"
         stop-color="#ffd283"
         id="stop99" />
      <stop
         offset="1"
         stop-color="#f59811"
         id="stop101" />
    </linearGradient>
    <linearGradient
       id="linearGradient7640">
      <stop
         offset="0"
         stop-color="#df731b"
         id="stop104" />
      <stop
         offset="1"
         stop-color="#df731b"
         stop-opacity="0"
         id="stop106" />
    </linearGradient>
    <linearGradient
       id="linearGradient3727">
      <stop
         offset="0"
         stop-color="#ffae65"
         id="stop109" />
      <stop
         offset="1"
         stop-color="#ffa04c"
         stop-opacity="0"
         id="stop111" />
    </linearGradient>
    <linearGradient
       id="linearGradient7648">
      <stop
         offset="0"
         stop-color="#f69909"
         id="stop114" />
      <stop
         offset="1"
         stop-color="#f69909"
         stop-opacity="0"
         id="stop116" />
    </linearGradient>
    <linearGradient
       gradientTransform="matrix(.60778 -.65784 .65784 .60778 -56.27618 25.15985)"
       id="linearGradient3841"
       xlink:href="#linearGradient3993"
       y1="65.419"
       x1="76.074"
       y2="72.971"
       x2="83.626"
       gradientUnits="userSpaceOnUse" />
    <linearGradient
       gradientTransform="matrix(.37117 -.1872 .1872 .37117 41.78942 4.96697)"
       id="linearGradient3805"
       xlink:href="#linearGradient3781"
       y1="65.419"
       x1="76.074"
       y2="72.971"
       x2="83.626"
       gradientUnits="userSpaceOnUse" />
    <linearGradient
       gradientTransform="matrix(.6288 -1.01208 1.01208 .6288 -99.94719 49.58473)"
       id="linearGradient3817"
       xlink:href="#linearGradient3993"
       y1="65.419"
       x1="76.074"
       y2="72.971"
       x2="83.626"
       gradientUnits="userSpaceOnUse" />
    <linearGradient
       gradientTransform="matrix(.98203 -.36059 .36059 .98203 -21.72414 31.09957)"
       id="linearGradient3733"
       xlink:href="#linearGradient3727"
       y1="65.419"
       x1="76.074"
       y2="72.971"
       x2="83.626"
       gradientUnits="userSpaceOnUse" />
    <linearGradient
       gradientTransform="matrix(.5041 -.02919 .02919 .5041 45.9984 -7.26861)"
       id="linearGradient3813"
       xlink:href="#linearGradient3781"
       y1="65.419"
       x1="76.074"
       y2="72.971"
       x2="83.626"
       gradientUnits="userSpaceOnUse" />
    <linearGradient
       gradientTransform="matrix(.38694 -1.34209 1.34209 .38694 -99.09958 96.51533)"
       id="linearGradient3821"
       xlink:href="#linearGradient3993"
       y1="65.419"
       x1="76.074"
       y2="72.971"
       x2="83.626"
       gradientUnits="userSpaceOnUse" />
    <linearGradient
       gradientTransform="matrix(.06726 -1.18961 1.18961 .06726 -72.98847 108.21723)"
       id="linearGradient3825"
       xlink:href="#linearGradient3993"
       y1="65.419"
       x1="76.074"
       y2="72.971"
       x2="83.626"
       gradientUnits="userSpaceOnUse" />
    <linearGradient
       gradientTransform="matrix(.94114 -.73072 .73072 .94114 -94.09805 2.42981)"
       id="linearGradient3837"
       xlink:href="#linearGradient3781"
       y1="65.419"
       x1="76.074"
       y2="72.971"
       x2="83.626"
       gradientUnits="userSpaceOnUse" />
    <linearGradient
       gradientTransform="matrix(.03993 -.98284 .98284 .03993 -47.34083 96.25837)"
       id="linearGradient3829"
       xlink:href="#linearGradient3993"
       y1="65.419"
       x1="76.074"
       y2="72.971"
       x2="83.626"
       gradientUnits="userSpaceOnUse" />
    <linearGradient
       gradientTransform="matrix(-.18692 -.59671 .59671 -.18692 -12.9973 89.53938)"
       id="linearGradient3833"
       xlink:href="#linearGradient3781"
       y1="65.419"
       x1="76.074"
       y2="72.971"
       x2="83.626"
       gradientUnits="userSpaceOnUse" />
    <linearGradient
       gradientTransform="matrix(.39483 .13009 -.13009 .39483 64.04034 -24.57368)"
       id="linearGradient3809"
       xlink:href="#linearGradient3781"
       y1="65.419"
       x1="76.074"
       y2="72.971"
       x2="83.626"
       gradientUnits="userSpaceOnUse" />
    <linearGradient
       gradientTransform="matrix(.71637 -.26304 .26304 .71637 8.62372 51.58958)"
       id="linearGradient3743"
       xlink:href="#linearGradient3727"
       y1="65.419"
       x1="76.074"
       y2="72.971"
       x2="83.626"
       gradientUnits="userSpaceOnUse" />
    <linearGradient
       gradientTransform="matrix(.69146 -.2539 .2539 .69146 12.46382 46.24175)"
       id="linearGradient3759"
       xlink:href="#linearGradient3727"
       y1="65.419"
       x1="76.074"
       y2="72.971"
       x2="83.626"
       gradientUnits="userSpaceOnUse" />
    <linearGradient
       gradientTransform="matrix(.36084 -.38509 .38509 .36084 30.03215 87.95563)"
       id="linearGradient3763"
       xlink:href="#linearGradient3727"
       y1="65.419"
       x1="76.074"
       y2="72.971"
       x2="83.626"
       gradientUnits="userSpaceOnUse" />
    <linearGradient
       gradientTransform="matrix(.7255 -.09614 .06015 .74582 20.70488 -30.66687)"
       id="linearGradient3801"
       xlink:href="#linearGradient3781"
       y1="65.419"
       x1="76.074"
       y2="72.971"
       x2="83.626"
       gradientUnits="userSpaceOnUse" />
    <linearGradient
       gradientTransform="matrix(.52255 -.34343 .34343 .52255 21.43569 11.47872)"
       id="linearGradient3797"
       xlink:href="#linearGradient3781"
       y1="65.419"
       x1="76.074"
       y2="72.971"
       x2="83.626"
       gradientUnits="userSpaceOnUse" />
    <linearGradient
       gradientTransform="matrix(1.1671 -.23992 .23992 1.1671 -32.02199 -45.73926)"
       id="linearGradient3779"
       xlink:href="#linearGradient3781"
       y1="65.419"
       x1="76.074"
       y2="72.971"
       x2="83.626"
       gradientUnits="userSpaceOnUse" />
    <linearGradient
       gradientTransform="matrix(.74845 -.4919 .4919 .74845 -29.44269 2.48943)"
       id="linearGradient3793"
       xlink:href="#linearGradient3781"
       y1="65.419"
       x1="76.074"
       y2="72.971"
       x2="83.626"
       gradientUnits="userSpaceOnUse" />
    <linearGradient
       gradientTransform="matrix(1.19032 .05309 -.05309 1.19032 -11.89901 -45.9284)"
       id="linearGradient3789"
       xlink:href="#linearGradient3843"
       y1="65.419"
       x1="76.074"
       y2="72.971"
       x2="83.626"
       gradientUnits="userSpaceOnUse" />
    <radialGradient
       cx="372.905"
       cy="693.901"
       gradientTransform="matrix(1.12652 -0 0 .81132 -47.1795 135.69256)"
       r="364.525"
       id="radialGradient3976"
       gradientUnits="userSpaceOnUse">
      <stop
         offset="0"
         stop-color="#66a9f5"
         id="stop138" />
      <stop
         offset=".4"
         stop-color="#3d73b6"
         id="stop140" />
      <stop
         offset="1"
         stop-color="#143e78"
         id="stop142" />
    </radialGradient>
    <radialGradient
       cx="48"
       cy="90.172"
       gradientTransform="matrix(1.15731,0,0,0.99591,-7.55102,0.19713)"
       r="42"
       id="radialGradient2855"
       gradientUnits="userSpaceOnUse">
      <stop
         offset="0"
         stop-color="#fff"
         id="stop145" />
      <stop
         offset="1"
         stop-color="#fff"
         stop-opacity="0"
         id="stop147" />
    </radialGradient>
    <radialGradient
       cx="111.25"
       cy="52.071"
       gradientTransform="matrix(1 0 0 6.11429 0 -266.30818)"
       r="6.25"
       id="radialGradient5331"
       gradientUnits="userSpaceOnUse">
      <stop
         offset="0"
         id="stop150" />
      <stop
         offset=".574"
         stop-color="#10213a"
         stop-opacity=".659"
         id="stop152" />
      <stop
         offset="1"
         stop-color="#1c3b68"
         stop-opacity="0"
         id="stop154" />
    </radialGradient>
    <radialGradient
       cx="127.279"
       cy="98.02"
       gradientTransform="matrix(1,0,0,1.04961,-79.3017,-57.1383)"
       r="24.166"
       id="radialGradient4558"
       xlink:href="#linearGradient2312"
       gradientUnits="userSpaceOnUse" />
    <radialGradient
       cx="21.75"
       cy="-49.312"
       gradientTransform="matrix(.22814 0 0 .22813 42.54835 57.65626)"
       r="114"
       id="radialGradient3964"
       gradientUnits="userSpaceOnUse">
      <stop
         offset="0"
         stop-color="#fff"
         stop-opacity="0"
         id="stop158" />
      <stop
         offset=".872"
         stop-color="#0f4480"
         stop-opacity="0"
         id="stop160" />
      <stop
         offset="1"
         stop-color="#0c3163"
         stop-opacity=".875"
         id="stop162" />
    </radialGradient>
  </defs>
  <path
     opacity=".08"
     fill="url(#linearGradient3780)"
     d="m12-95.0312c-5.5111,0-10.0312,4.5202-10.0312,10.0312v71c0,5.5111 4.5202,10.0312 10.0312,10.0312h72c5.5111,0 10.0312-4.5202 10.0312-10.0312v-71c0-5.5111-4.5202-10.0312-10.0312-10.0312h-72z"
     transform="scale(1 -1)"
     id="path164" />
  <path
     opacity=".1"
     fill="url(#linearGradient3780)"
     d="m12-94.0312c-4.9716,0-9.0312,4.0596-9.0312,9.0312v71c0,4.9716 4.0596,9.0312 9.0312,9.0312h72c4.9716,0 9.0312-4.0596 9.0312-9.0312v-71c0-4.9716-4.0596-9.0312-9.0312-9.0312h-72z"
     transform="scale(1 -1)"
     id="path166" />
  <path
     opacity=".2"
     fill="url(#linearGradient3780)"
     d="m12-93c-4.4091,0-8,3.5909-8,8v71c0,4.4091 3.5909,8 8,8h72c4.4091,0 8-3.5909 8-8v-71c0-4.4091-3.5909-8-8-8h-72z"
     transform="scale(1 -1)"
     id="path168" />
  <path
     opacity=".3"
     fill="url(#linearGradient3780)"
     d="m12-92h72a7,7 0 0,1 7,7v71a7,7 0 0,1 -7,7h-72a7,7 0 0,1 -7-7v-71a7,7 0 0,1 7-7"
     transform="scale(1 -1)"
     id="path170" />
  <path
     opacity=".45"
     fill="url(#linearGradient3721)"
     d="m12-91h72a6,6 0 0,1 6,6v72a6,6 0 0,1 -6,6h-72a6,6 0 0,1 -6-6v-72a6,6 0 0,1 6-6"
     transform="scale(1 -1)"
     id="path172" />
  <path
     fill="#280b0b"
     d="m23.4737,19.0792h51.5425a9.8367,9.8982 0 0,1 9.8366,9.8982v37.9315a9.8367,9.8982 0 0,1 -9.8366,9.8982h-51.5425a9.8367,9.8982 0 0,1 -9.8366-9.8982v-37.9315a9.8367,9.8982 0 0,1 9.8366-9.8982"
     id="path174" />
  <path
     fill="url(#radialGradient3976)"
     fill-rule="evenodd"
     d="m737.4302,376.3966a364.5251,359.6369 0 1,1 -729.0503,0 364.5251,359.6369 0 1,1 729.0503,0z"
     transform="matrix(.07135 0 0 .07231 20.90412 19.19036)"
     id="path176" />
  <path
     fill="#0e356a"
     d="m59.5166,23.4969c-1.2333-.6177-3.0383-1.3576-.7763-.3769 1.8399,.8716 3.2918,1.7549 4.8551,2.9511-.3827-.3099 1.7381,1.3602 2.2808,1.9763 .6518,.5164 3.1847,3.5915 1.3637,1.4302 1.6258,1.8388 2.9851,3.9119 4.0303,6.1325-.4406-.907 .4046,.8353-.2689-.5521-.3448-.891-2.2301-3.73-1.8294-3.0917 .4724,.6693 1.2313,1.9245 .2731,.3935 .8673,1.2006 2.1144,3.8148 2.0995,3.8642 1.3182,2.9694 2.0469,6.1936 2.1786,9.438 .0062-1.4875-.4838-4.2216-.6552-4.8724 .5431,2.2828-.7198-2.9165-.0615-.2555-.141-.8108-1.238-4.1098-1.8952-5.2556-.8354-1.6914 1.1364,2.2574 1.2843,3.1405 .4356,1.3805 .4138,1.3111-.0151-.0481-.1259-.4166 .8372,2.6351 .9596,3.7349 .1479,.708 .3902,3.0533 .2012,1.344 .6494,5.1191-.2795,10.4221-2.6266,15.0175 .6807-1.3429 1.5451-3.5431 .5531-1.1569-1.3096,2.9095-3.1463,5.5885-5.4299,7.82 3.3821-3.8041 6.2562-8.2426 7.1926-13.3225 .6383-3.1002 .638-6.3131 .1533-9.4346 .1714,1.0622 .32,2.4619 .0896,.5678-.1035-.7835-.5357-2.8378-.1365-.842 .2007,1.1931 .3594,2.605 .0852,.5281-.3352-2.1413-.9416-4.2397-1.7977-6.2307 .4622,1.1597 .7982,2.0011 .138,.3266-.5487-1.3407-1.5373-3.1724-1.6871-3.3108 .8022,.7857 .8753,4.1926-.0223,1.6833-.626-2.2331-2.1312-4.1439-3.7204-5.7459-1.3416-1.4003-.3565,1.7575-1.5132-.0764-.5494,.3846 .4471,4.1125-1.8981,3.3653 .0104-1.5734 2.3375-1.17 1.1316-2.8098-.9736-.7821-1.9308,.9213-2.6778-.7222-1.3494-.7419-.4382-1.5817 .1011-2.0559-1.4132-1.4763-3.537-1.6716-5.3792-2.9855-.6332-.5587-1.5708-1.1706-1.1928-1.1839-.0463-.33 .7602,.1218-.1701-.1679 1.3869-.4931-2.0044-1.0077 .3891-.5599 .2797-.1472-1.3601-.5762-1.1665-.3698-1.4575-.8254-1.1702,.9379-2.2848-.2637 .4997-.5504-3.8963-.7137-3.7607-.836 2.6587,.0117 5.3133,.4465 7.8435,1.2607-1.0837-.3988-4.6564-1.1427-1.7999-.5115 2.1672,.5258 4.3137,1.4153 5.4449,2.0049 .6739,.3486 1.3167,.6896 .1169,.059zm-5.7605,46.3625c-2.3511,1.0342-4.631-.2463-6.9751-.2063-1.5097-.2677-2.3679,1.568-2.7529,1.9105-1.1027-.3897-.4591-1.2014-1.4759-1.5194 3.0676-.0826-4.2209-2.1522-.8087-2.1678-1.7841-.7307-1.4788-2.845 .4639-3.1977 1.4684-.2258 2.2373-1.4627 3.3119-2.0737-.7362-1.0566-3.0812-1.6056-.8705-2.6458 1.3165-1.2396 2.693-1.5722 4.1595-1.8817 1.1837,.5189 2.0592,.263 3.0879,.819 .8584-.4557 1.3887,1.0331 2.4556,.2361 .3617,.6272 1.1231,.5725 1.1253,1.3947 1.7964,.4226 .4546,1.2943 .523,2.367 1.5207,.1965 2.9304,1.8187 1.3183,3.067-1.2613,.5931-.2063,1.2266-1.6583,1.858 .0185,1.104-2.1845,1.3513-1.904,2.0403zm-8.21-23.6982c-1.7858-.5479-2.6509-2.687-3.1336-4.4047-.0608-1.7419 1.2368-2.8011 2.1163-4.0056 .9942-.986 1.1888-3.0213 2.253-3.5869 .0287,1.9137 .9134,3.3268 2.7338,1.7717 .1727-.9495-.7293-1.683 .8591-1.3853 .8676-.3589 .8702,.0768 1.7768,.7098 .0868,1.7799 1.8086-.3945 2.2496,1.2523 .0324,.6309 1.0494,.679 1.3393,1.9921 1.9254,.4441 3.2666,2.5359 2.1985,3.961-1.3095,.8739-.8164,4.4408-2.7614,2.3968-1.6301-.3739-2.9406-2.4404-4.8773-1.6146-.8184,.5286-.9556,1.8914-1.6064,.3045-.4929-.091 .6163,1.3877-.3441,.7213-.1828,1.0653-1.4198,2.2587-2.4406,1.6521-.0987-.0179-.3168,.6057-.363,.2353zm-2.2425-12.199c1.1993-1.4627 2.1115-2.8937 4.3013-3.138 1.2077-.9045 2.6316,1.2111 3.1626-.6035 1.4005,.0339 .8233,.6803-.1129,.7306 1.384,.6514-2.7979,.5115-2.5518,1.925-1.7721,1.3787-1.7752-1.0681-3.4486,.5671 .0441,.5659-2.5372,.925-1.3505,.5187zm15.4033-.9994c-.5885-1.0138-1.7828-2.0768-1.0551-3.1113-1.429-.7072 .9054-1.2633 1.0034,.0413 .8531,.9545 3.6525,2.1888 1.7433,3.2019-.5824,.0001-1.3051-.4039-1.6915-.1319zm4.2548,2.1011c-1.7753-.5714 .4075-2.2004 1.3971-2.0897 1.1315-.8675 2.1747,.3606 .4744,.6581-.4497,.6693-1.0784,1.2229-1.8715,1.4316zm-26.4487,14.3391c-.441,.2403-2.2884-.9189-.8028-1.4948-.1487,.0776 .5806-2.4858 .3-.5969-.1075,1.082 .5487,1.1094 .5029,2.0917zm2.2477,1.6527c-.5403-.9157-2.5005-.9761-1.6424-2.0681 .4785,.8332 4.179,1.5911 1.6424,2.0681zm20.2547-16.2556c.2404-.7136 2.8342-.1865 3.2875,.5416-1.0641-.0244-2.2013-.3383-3.2875-.5416z"
     id="path178" />
  <g
     transform="translate(80)"
     id="g180">
    <path
       fill="url(#radialGradient5331)"
       d="m117.5,52.0714a6.25,38.2143 0 1,1 -12.5,0 6.25,38.2143 0 1,1 12.5,0z"
       transform="matrix(2.23054 0 0 .56697 -281.71645 13.06753)"
       id="path182" />
    <path
       opacity=".9"
       d="m117.5,52.0714a6.25,38.2143 0 1,1 -12.5,0 6.25,38.2143 0 1,1 12.5,0z"
       transform="matrix(.84854 0 0 .49791 -127.96896 18.17903)"
       id="path184" />
  </g>
  <path
     style="opacity:0.8;fill:url(#radialGradient4558)"
     d="m 32.2253,52.4525 c 0.3422,-0.543 -2.4977,-3.1966 -2.6631,-2.4093 1.4291,-0.011 1.4453,2.2413 2.6631,2.4093 z m 1.2296,1.3615 c 2.3557,1.0474 -0.7472,-2.0897 -0.5157,-0.4799 -1.3899,-0.4999 0.2849,0.4738 0.5157,0.4799 z M 45.1788,37.4499 c 0.3404,-1.0172 1.4052,-2.8976 2.9119,-3.5718 1.1058,-0.4703 -0.5206,-1.1637 0.4503,-1.4758 -0.3474,-1.1926 -0.1803,-3.6791 -1.6156,-3.6098 -1.4027,-0.6582 -4.7134,1.2014 -2.7778,2.3639 0.7612,1.8713 -0.3563,3.107 -0.016,4.7751 -0.062,0.7904 0.7961,1.0659 1.047,1.5184 z m -4.2926,-1.5972 c -0.3462,-0.9071 1.0585,-0.2327 0.4461,-1.6488 1.591,1.156 0.5052,-1.634 0.2641,-2.5807 0.014,-1.6704 -3.0842,-0.01 -0.7513,0.5746 0.8983,1.635 -2.1709,1.4659 -0.575,2.6363 -0.2513,0.5157 0.3922,0.7061 0.6161,1.0186 z m 3.4813,-7.6608 c -1.3084,0.1001 -1.149,0.9916 -2.5715,1.4687 0.7223,0.6384 2.7761,-0.6172 3.0131,-1.202 l -0.4417,-0.2668 10e-5,10e-5 z M 41.595,42.8005 c 1.5526,0.3378 -0.1686,-1.172 0.084,-1.9053 -1.1091,1.2005 -1.6188,1.0141 -0.084,1.9053 z M 37.3087,29.4714 c 0.2921,2.2321 2.98,-0.4775 1.2089,-1.0854 -0.5814,0.7911 -0.9312,0.4332 -1.2089,1.0854 z m 3.6186,0.3151 c 0.9969,1.2123 1.1869,0.4824 0.5113,-0.2827 -0.1326,-0.8783 -0.098,0.1348 -0.5113,0.2827 z m -1.2014,-1.5754 c -0.396,0.7095 1.4844,0.4164 0.4138,0.1673 0.5815,-0.4183 -0.4649,-0.4285 -0.4138,-0.1673 z m 11.0032,7.0814 c 1.082,-1.5499 -1.187,-0.4774 -1.1653,-0.6799 -0.7727,0.075 0.4797,1.415 1.1653,0.6799 z m 2.6057,-8.7293 c -0.9886,-0.6786 -1.9807,-1.0695 -0.5114,0.062 0.3638,0.2271 1.0956,0.3481 0.5114,-0.062 z m 3.4724,12.4664 c 0.01,-1.4094 -2.171,-1.7264 -2.5882,-2.6326 -0.6043,1.4348 1.7544,1.2817 1.4018,2.8233 0.6153,-0.3397 -0.316,1.4058 0.5768,0.1436 0.1546,-0.2131 0.4522,-0.1273 0.6096,-0.3343 z m -2.0558,0.4269 c 0.7034,-1.1796 -0.9267,-1.8901 -0.8422,-0.7555 0.5444,0.3075 0.2298,1.4554 0.8422,0.7555 z M 40.2539,23.1882 c 1.8546,-1.0083 3.9676,-0.9136 5.9882,-0.9238 0.9891,-0.3243 3.9312,0.9492 3.5605,1.0948 -1.2601,0.9444 3.3853,1.4532 3.4405,1.3582 0.2,1.2823 2.0596,-0.054 2.4082,0.8691 -1.3655,-0.5613 -3.1442,0.3122 -0.8035,0.2958 0.7731,0.5054 0.9939,2.5945 1.1616,2.0419 0.1167,0.8406 -0.042,0.4823 0.8794,1.3797 1.0945,1.1364 -1.714,0.8682 -0.3905,-0.025 -2.5364,-0.7972 -3.0103,1.6992 -1.6367,3.4426 0.3419,1.3477 0.044,2.2599 1.4117,2.5995 -0.046,-1.8288 2.5743,1.5647 1.6505,-0.7838 -0.4585,-0.8106 -2.6452,-3.1098 -1.7848,-3.0432 0.3861,0.8412 1.9244,2.0512 2.1934,0.4903 -0.036,1.4014 2.0574,4.0787 -0.6914,4.2472 -1.7647,-1.7646 0.7745,0.7221 -0.1755,1.513 0.4754,1.5482 -2.3123,2.8503 0.036,3.3744 1.8385,1.452 -2.799,1.4288 -1.0237,3.1129 0.1684,2.9875 3.7479,0.4682 2.7453,-1.5585 -0.2542,-2.6619 2.7572,-2.3629 3.9605,-1.5062 0.4092,-1.5921 -2.7301,-0.7217 -2.1119,-1.9823 1.15,-0.567 3.4169,1.9847 3.5075,0.898 -1.1844,-1.0662 0.4935,-2.3326 -0.9729,-3.2678 -0.5341,-0.9914 -0.2709,-1.6677 0.3608,-1.2598 -0.2549,-0.5709 -0.6154,-2.1268 0.2368,-0.6198 3.1614,-0.7532 -1.758,4.4279 1.552,4.3618 0.5402,-1.3988 1.1495,-1.8904 1.6174,-0.078 0.8821,2.351 -2.5702,2.484 -2.0514,4.5982 -1.1056,0.021 -2.762,0.8526 -2.9431,-0.7621 -1.8056,0.5633 -3.0308,2.6038 -4.5162,3.6349 -0.012,2.4507 -1.8482,4.1529 -2.0372,6.6006 0.1923,2.332 0.5622,4.5843 3.128,5.4821 2.4807,0.7647 3.9786,-2.9862 5.9972,-2.4741 1.9365,-1.4569 0.2919,1.9134 1.789,2.3363 0.057,2.0463 -1.097,4.0881 -1.9398,5.8531 1.678,-1.4806 3.7396,-4.4282 4.882,-6.8798 2.2528,-4.7803 3.0121,-10.3161 2.0298,-15.5141 0.322,1.4422 -0.152,2.9462 -1.427,1.1193 -0.795,-0.9682 -3.4104,-3.0121 -1.5055,-2.2179 1.3964,0.138 3.1328,4.2866 2.6604,1.1863 -0.2078,-1.9389 -0.4834,-5.036 -1.9121,-5.9918 1.1459,1.7036 -0.5806,1.7712 -0.6326,0.3019 1.7203,-0.096 -1.4709,-5.4823 0.268,-2.3846 0.4218,0.8119 1.1424,2.3206 0.3081,0.5881 -0.8657,-2.0132 -3.346,-5.1831 -4.0785,-5.9078 1.2761,1.4344 -0.4786,-0.517 0.4211,0.4528 0.8262,0.8702 3.2513,4.4081 1.3479,1.696 -3.33,-4.5353 -8.1748,-7.9406 -13.5831,-9.5016 1.8404,0.5317 -2.5529,-0.7746 -3.2359,-0.735 -1.1002,-0.2273 -4.1203,-0.3996 -4.0555,-0.2749 2.0151,0.1786 -2.0533,0.2526 -2.6541,0.5116 -1.3174,0.088 -2.7718,1.0929 -1.6714,-0.1697 -1.3634,0.2293 -1.6496,1.1266 -3.0503,1.9014 1.8687,-0.3694 -2.2225,1.6229 0.1266,0.7645 0.3994,-0.1241 0.8448,-0.018 1.2164,-0.2444 z M 37.0167,70.669 c 0.9136,0.3495 2.3417,0.6698 2.8581,0.1979 -0.7496,-0.091 2.5218,0.4257 2.9851,-0.8317 1.4934,-0.732 3.6968,-0.3022 4.0162,-2.6462 1.6793,-1.1631 2.0516,-3.1273 -0.558,-3.23 -1.7475,-0.1412 -3.8542,-0.9041 -4.9607,-1.5689 0.013,-2.78 -3.8344,-1.9471 -4.6448,-4.4213 -1.2411,-0.6183 -3.7398,-1.6245 -3.9188,-1.4864 0.094,-1.9821 -2.338,1.0566 -2.6238,-0.6265 -1.7821,-0.4108 -1.5437,-1.9176 -1.2328,-3.1674 -1.0731,-0.9669 -1.8081,-1.9605 -0.4694,-3.026 -0.5958,-1.3861 -2.1382,0.8703 -2.5589,-1.1212 -0.5836,-1.7862 1.2784,-5.6365 2.9961,-2.7375 0.5716,-1.065 2.5908,1.6201 1.7805,2.7844 1.2214,1.148 -0.065,-3.0969 2.0516,-2.6003 1.5955,0.177 1.2148,-2.6978 1.6557,-1.4151 0.6304,-1.2782 2.1792,-0.5046 2.526,-1.7931 0.9344,-0.2703 2.5624,-0.3985 1.2107,0.4302 1.8682,0.1309 0.9501,-0.6304 0.5264,-1.6737 1.4656,-1.4824 -3.2882,0.5297 -0.2934,-0.9008 1.0263,-0.1142 4.2252,0.5929 3.279,-1.1965 -1.1236,0.2087 0.3801,-0.561 -0.7383,-1.2459 0.2623,-0.5761 -0.1596,-2.6233 -0.6755,-1.033 -0.7611,-0.5174 -0.3809,-3.5536 -1.9381,-1.7653 -0.5053,1.499 -1.4121,2.3425 -2.4097,3.1783 0.1415,-1.3705 -0.2488,-2.827 -0.677,-4.2634 1.221,-1.3199 2.5628,-1.5278 3.7055,-1.6352 1.3335,0.016 1.3563,-1.5095 0.077,-0.6861 0.2775,-0.9346 0.848,-2.4949 -0.3348,-0.8474 -1.0302,0.4317 -1.2937,-1.7927 -1.8577,-1.0738 0.8987,-2.0879 -0.258,-3.7802 1.8969,-5.3542 0.2675,-1.3095 -1.6694,0.3996 -1.1726,-0.8082 -1.2252,0.6945 -2.1324,0.058 -3.4495,1.1835 -1.604,-0.5735 1.2792,1.1721 -0.1663,0.913 -0.1345,2.2608 -2.7904,3.439 -3.9583,5.4743 -0.7769,1.6927 -2.1262,1.3046 -3.4542,3.1315 -1.315,1.7795 -1.5365,4.0956 -2.3215,6.1188 -0.4943,1.2184 -0.3322,3.9192 -0.032,1.3141 -0.01,-1.173 1.2358,-3.6329 0.521,-1.05 -0.2183,2.1618 -0.6839,4.3632 -0.3486,6.4956 0.8771,2.1049 2.5969,3.6925 3.3798,5.8785 0.5248,1.6535 1.818,2.6796 2.7202,3.2218 1.1167,1.8494 -1.865,2.0027 -0.9866,3.6723 0.3718,2.0437 2.2587,4.4995 4.2136,5.7996 0.9572,1.7812 0.8265,4.0663 3.3827,4.4113 z m 17.782,-43.4852 c -0.8626,-0.984 -1.6494,0.3277 0,0 z M 38.324,28.2951 c 2.0259,0.5031 0.1487,-1.5409 -0.2812,-0.017 l 0.1343,0.067 0.1469,-0.05 z m -5.2493,24.4856 -0.032,-0.02 0.032,0.02 z"
     id="path186"
     inkscape:connector-curvature="0" />
  <g
     fill-rule="evenodd"
     id="g188">
    <path
       fill="url(#radialGradient3964)"
       d="m47.5105,20.3995c-14.3567,0-26.0084,11.6511-26.0084,26.007 0,14.3559 11.6518,26.007 26.0084,26.007 14.3567,0 26.0084-11.6511 26.0084-26.007 0-14.3559-11.6518-26.007-26.0084-26.007zm0,4.0351c12.1304,0 21.9731,9.8422 21.9731,21.9719 0,12.1298-9.8427,21.9791-21.9731,21.9791-12.1304,0-21.9731-9.8493-21.9731-21.9791-0-12.1298 9.8427-21.9719 21.9731-21.9719z"
       id="path190" />
    <path
       opacity=".6"
       fill="url(#linearGradient3961)"
       d="m47.5105,21.4262c-7.0324,0-13.4119,2.7966-18.0947,7.3363-.0067,.0075-.0147,.0138-.0214,.0214-2.3577,2.6777-3.743,5.8954-3.743,9.3682 0,9.2607 9.7928,16.7686 21.8591,16.7686 12.0662,0 21.8591-7.5079 21.8591-16.7686 0-3.4728-1.3853-6.6905-3.743-9.3682-.0066-.0075-.0147-.0139-.0214-.0214-4.6828-4.5396-11.0623-7.3363-18.0947-7.3363z"
       id="path192" />
    <path
       opacity=".6"
       fill="url(#linearGradient3956)"
       d="m47.5105,21.4262c-3.0059,0-5.8901,.515-8.5768,1.4544-5.1401,1.9523-8.5982,5.6162-8.5982,9.796 0,6.2332 7.6912,11.2932 17.175,11.2931 9.4838,0 17.175-5.06 17.175-11.2931 0-4.1798-3.4581-7.8436-8.5982-9.796-2.6867-.9394-5.5709-1.4544-8.5768-1.4544z"
       id="path194" />
    <path
       opacity=".2"
       fill="#fff"
       d="m23.0082,45.1583c-.0362,.5342-.0509,1.068-.0509,1.6112 0,13.2874 10.9979,24.075 24.5532,24.075 13.5552,0 24.5532-10.7877 24.5532-24.075 0-.5432-.0147-1.0769-.0509-1.6112-.8456,12.538-11.4987,22.4567-24.5023,22.4567-13.0036,0-23.6567-9.9187-24.5023-22.4567z"
       id="path196" />
  </g>
  <path
     fill="url(#linearGradient3706)"
     d="m12,6c-3.324,0-6,2.676-6,6v72c0,3.324 2.676,6 6,6h72c3.324,0 6-2.676 6-6v-72c0-3.324-2.676-6-6-6h-72zm32.8259,19.8482c16.5049,.5756 27.7472,17.9487 32.8571,32.0357-28.9694,30.3771-57.5365,5.775-56.7946-20.4866 0-0 8.0756-11.3639 23.9375-11.5491z"
     id="path198" />
  <g
     fill-rule="evenodd"
     id="g200">
    <path
       fill="url(#linearGradient7646)"
       d="m6,30.875 0,38.2188c19.1764,16.5679 51.3334,17.3271 75.6384-4.2545l-10.1696-9.2455c1.0861,2.1751 1.75,3.7188 1.75,3.7188-24.148,26.8056-53.4294,7.9178-52.6875-18.3438l-14.5312-10.0938z"
       id="path202" />
    <path
       fill="url(#linearGradient7654)"
       d="m12,6c-3.324,0-6,2.676-6,6v36.7188c5.8125-5.3277 24.5153-23.7149 38.6875-23.2277 25.8396,8.4178 33.9639,20.0929 39.125,64.5089h.1875c3.324,0 6-2.676 6-6v-72c0-3.324-2.676-6-6-6h-72z"
       id="path204" />
    <path
       d="m47.7422,23.2522c-18.8615-2.1659-31.1618,12.5545-31.1618,12.5545l2.2601,1.2803c-.4173,14.7703 7.4671,28.4862 19.0989,33.7683 11.6318,5.2821 29.0262,2.2863 39.8371-11.936l.7468-.8689c-5.4291-15.0594-14.2127-32.8957-30.7811-34.7983zm-.3612,4.1393c8.4073,.2521 16.0198,7.8374 21.4579,15.5809 5.0719,7.2221 7.9363,13.8609 8.3371,14.795-12.8246,13.8852-26.584,15.7933-37.2096,10.9681-10.6778-4.8489-18.2322-16.6157-17.9727-30.4101 .4534-.683 7.8735-11.4672 25.3873-10.934z"
       id="path206" />
    <path
       fill="url(#linearGradient4062)"
       d="m31.3435,75.8386c0,0-.5506,6.7437 1.4425,11.2645-3.3276-3.9546-3.8651-8.9719-3.8651-8.9719-.2073-4.4453 2.4225-2.2926 2.4225-2.2926z"
       id="path208" />
    <path
       fill="url(#linearGradient4054)"
       d="m26.9337,73.5786c0,0-3.6468,8.948-2.0049,16.1401-4.1772-7.0916-3.1024-14.2275-3.1024-14.2275 1.4173-6.1865 5.1073-1.9126 5.1073-1.9126z"
       id="path210" />
    <path
       fill="url(#linearGradient4044)"
       d="m19.4253,69.9784c0,0-8.7194,7.3072-10.9676,15.6967-.4459-9.6799 4.5992-16.5161 4.5992-16.5161 4.8793-5.6595 6.3684,.8194 6.3684,.8194z"
       id="path212" />
    <path
       fill="url(#linearGradient4040)"
       d="m25.3009,71.835c0,0-4.2609,3.0149-5.6359,6.8379 .2093-4.5526 2.7855-7.5181 2.7855-7.5181 2.4511-2.4224 2.8504,.6802 2.8504,.6802z"
       id="path214" />
    <path
       fill="url(#linearGradient4036)"
       d="m18.1343,64.1786c0,0-4.6436,3.2603-6.1535,7.4105 .2456-4.9479 3.0577-8.1612 3.0577-8.1612 2.674-2.6234 3.0958,.7507 3.0958,.7507z"
       id="path216" />
    <path
       fill="url(#linearGradient4006)"
       d="m28.9116,67.6093c0,0-10.7839,6.3475-14.8358,15.2045 1.4134-10.8338 8.1628-17.4014 8.1628-17.4014 6.3415-5.2951 6.6731,2.1969 6.6731,2.1969z"
       id="path218" />
    <path
       fill="url(#linearGradient4016)"
       d="m31.7521,68.0349c0,0-4.8338,8.7746-4.0072,16.5283-3.4508-8.0374-1.4851-15.316-1.4851-15.316 2.2045-6.2358 5.4922-1.2122 5.4922-1.2122z"
       id="path220" />
    <path
       fill="url(#linearGradient4020)"
       d="m21.4143,56c0,0-7.6335,.5575-12.256,4.3157 3.7115-5.5573 9.1924-7.329 9.1924-7.329 4.9124-1.1846 3.0635,3.0133 3.0635,3.0133z"
       id="path222" />
    <path
       fill="url(#linearGradient4024)"
       d="m22.576,60.245c0,0-9.3646,3.4629-13.7967,9.8467 2.6389-8.3086 8.8662-12.5137 8.8662-12.5137 5.7274-3.2634 4.9305,2.667 4.9305,2.667z"
       id="path224" />
    <path
       fill="url(#linearGradient4028)"
       d="m35.902,70.7579c0,0-1.0926,7.1065 1.3778,12.1281-4.309-4.5654-4.7802-9.9559-4.7802-9.9559-.053-4.7467 3.4024-2.1722 3.4024-2.1722z"
       id="path226" />
    <path
       fill="url(#linearGradient4032)"
       d="m12.9529,54.4337c0,0-4.5702,1.2674-6.9215,4.1131 1.579-3.8281 4.6936-5.5713 4.6936-5.5713 2.8406-1.3173 2.2279,1.4582 2.2279,1.4582z"
       id="path228" />
    <path
       fill="url(#linearGradient4058)"
       d="m11.8196,71.359c0,0-3.9452,3.63-4.8205,7.6283-.421-4.547 1.8048-7.8751 1.8048-7.8751 2.1734-2.7706 3.0157,.2468 3.0157,.2468z"
       id="path230" />
    <path
       opacity=".3"
       fill="#480500"
       d="m37.898,19.2075c-13.8715,.476-29.4423,9.2733-25.5329,30.076 3.9461,20.9977 42.8785,42.4699 69.4161,11.317-7.3926-28.8193-27.1419-41.9674-43.8833-41.393zm7.7401,7.5719c.551-.0064 1.1113-.0174 1.6826,0 17.7822,.5333 30.6241,31.2298 30.6241,31.2298-26.0047,28.8667-57.5376,8.5266-56.7386-19.7542 0-0 7.3504-11.2761 24.4319-11.4756z"
       id="path232" />
    <path
       opacity=".3"
       fill="#480700"
       d="m37.9688,20.9688c-6.588,.2261-13.5499,2.4657-18.2812,6.9375-4.7313,4.4718-7.462,11.1214-5.5938,21.0625 1.7995,9.5751 12.0494,19.9155 25.0312,23.8438 12.7689,3.8638 27.9195,1.7517 40.6562-12.6875-.0307-.3579-1.3363-1.6071-1.5134-1.9196-12.5723,13.5087-27.6425,17.6522-39.3661,12.3259-11.7235-5.3263-19.8513-17.5396-19.433-32.3438 .0089-.3222 .1062-.6357 .2812-.9062 0,0 7.9954-12.0416 25.8438-12.25 .5418-.0063 1.1522-.0191 1.7812,0 9.8878,.2965 17.7835,8.6439 23.3438,16.5625 2.8873,4.1119 5.0796,8.0218 6.5938,11-8.5756-22.1931-25.2569-32.1084-39.3438-31.625z"
       id="path234" />
    <path
       fill="url(#linearGradient4101)"
       d="m27.6359,21.3234c0,0-4.1606,3.915-5.0132,8.2087-.553-4.8754 1.7661-8.4574 1.7661-8.4574 2.2751-2.9837 3.2471,.2487 3.2471,.2487z"
       id="path236" />
    <path
       fill="url(#linearGradient3973)"
       d="m70.1391,33.0587c0,0-3.9569-5.7391-11.1509-6.6125 8.1489-1.4464 11.4421,2.1256 11.4421,2.1256 4.0593,3.028-.2912,4.4869-.2912,4.4869z"
       id="path238" />
  </g>
  <a
     transform="matrix(.58133 .01171 -.01171 .58133 31.46295 18.06037)"
     id="a240">
    <path
       fill="url(#linearGradient3743)"
       fill-rule="evenodd"
       d="m87.7695,85.2709c0,0-5.1654-6.1603-11.2073-7.7888 7.0147-.253 11.8918,3.3275 11.8918,3.3275 4.0276,3.4569-.6846,4.4613-.6846,4.4613z"
       id="path242" />
  </a>
  <g
     fill-rule="evenodd"
     id="g244">
    <path
       fill="url(#linearGradient3955)"
       d="m23.09,22.8291c0,0-7.7195,9.8976-8.2336,19.6541-2.6762-10.6277 1.1985-19.243 1.1985-19.243 3.9633-7.2779 7.0351-.4111 7.0351-.4111z"
       id="path246" />
    <path
       fill="url(#linearGradient3919)"
       d="m73.8264,32.3474c0,0-8.3266-9.3926-17.8264-11.6746 10.9373-.6964 18.7031,4.6822 18.7031,4.6822 6.4346,5.2222-.8767,6.9924-.8767,6.9924z"
       id="path248" />
    <path
       fill="url(#linearGradient3915)"
       d="m77.6068,42.1597c0,0-4.0939-4.2271-10.3943-4.1253 6.8455-2.099 10.1088,.438 10.1088,.438 3.8581,2.0074 .2855,3.6873 .2855,3.6873z"
       id="path250" />
    <path
       fill="url(#linearGradient3911)"
       d="m85.9325,53.4315c0,0-4.0097-2.5415-8.9318-1.271 4.9722-2.94 8.011-1.567 8.011-1.567 3.4052,.8452 .9208,2.838 .9208,2.838z"
       id="path252" />
    <path
       fill="url(#linearGradient3733)"
       d="m86.7719,77.2712c0,0-7.0809-8.4448-15.3633-10.6772 9.6161-.3468 16.3018,4.5615 16.3018,4.5615 5.5212,4.7389-.9385,6.1157-.9385,6.1157z"
       id="path254" />
  </g>
  <a
     transform="matrix(1.04613 0 0 1.04613 -5.22989 -7.91724)"
     id="a256">
    <path
       fill="url(#linearGradient3743)"
       fill-rule="evenodd"
       d="m87.7695,85.2709c0,0-5.1654-6.1603-11.2073-7.7888 7.0147-.253 11.8918,3.3275 11.8918,3.3275 4.0276,3.4569-.6846,4.4613-.6846,4.4613z"
       id="path258" />
  </a>
  <a
     transform="matrix(.83417 -.18561 .18561 .83417 -1.18473 33.76223)"
     id="a260">
    <path
       fill="url(#linearGradient3743)"
       fill-rule="evenodd"
       d="m87.7695,85.2709c0,0-5.1654-6.1603-11.2073-7.7888 7.0147-.253 11.8918,3.3275 11.8918,3.3275 4.0276,3.4569-.6846,4.4613-.6846,4.4613z"
       id="path262" />
  </a>
  <a
     transform="matrix(.86221 -.26798 .23458 1.04545 -7.96211 19.01928)"
     id="a264">
    <path
       fill="url(#linearGradient3743)"
       fill-rule="evenodd"
       d="m87.7695,85.2709c0,0-5.1654-6.1603-11.2073-7.7888 7.0147-.253 11.8918,3.3275 11.8918,3.3275 4.0276,3.4569-.6846,4.4613-.6846,4.4613z"
       id="path266" />
  </a>
  <g
     fill-rule="evenodd"
     id="g268">
    <path
       fill="url(#linearGradient3759)"
       d="m88.8579,78.7521c0,0-3.5632-5.9461-10.8176-7.518 8.4151-.573 11.4784,3.2118 11.4784,3.2118 3.8875,3.3367-.6608,4.3062-.6608,4.3062z"
       id="path270" />
    <path
       fill="url(#linearGradient3763)"
       d="m89.3932,84.172c0,0-4.1947-2.6588-9.3439-1.3296 5.2016-3.0756 8.3806-1.6393 8.3806-1.6393 3.5623,.8842 .9633,2.9689 .9633,2.9689z"
       id="path272" />
  </g>
  <a
     transform="matrix(.58133 .01171 -.01171 .58133 39.12443 30.47725)"
     id="a274">
    <path
       fill="url(#linearGradient3743)"
       fill-rule="evenodd"
       d="m87.7695,85.2709c0,0-5.1654-6.1603-11.2073-7.7888 7.0147-.253 11.8918,3.3275 11.8918,3.3275 4.0276,3.4569-.6846,4.4613-.6846,4.4613z"
       id="path276" />
  </a>
  <a
     transform="matrix(.33303 -.47663 .47663 .33303 19.69427 97.98873)"
     id="a278">
    <path
       fill="url(#linearGradient3743)"
       fill-rule="evenodd"
       d="m87.7695,85.2709c0,0-5.1654-6.1603-11.2073-7.7888 7.0147-.253 11.8918,3.3275 11.8918,3.3275 4.0276,3.4569-.6846,4.4613-.6846,4.4613z"
       id="path280" />
  </a>
  <g
     fill-rule="evenodd"
     id="g282">
    <path
       fill="url(#linearGradient3779)"
       d="m82.3641,24.628c0,0-6.546-10.7099-15.4968-14.6262 10.8894,1.2369 17.5889,7.8968 17.5889,7.8968 5.4165,6.2719-2.0921,6.7294-2.0921,6.7294z"
       id="path284" />
    <path
       fill="url(#linearGradient3855)"
       d="m79.5653,42.0576c0,0-1.3482-10.8915-10.8432-17.8156 8.264,3.1341 14.5592,12.005 14.5592,12.005 3.4898,7.3217-3.716,5.8107-3.716,5.8107z"
       id="path286" />
    <path
       fill="url(#linearGradient3789)"
       d="m81.7799,50.3004c0,0-3.725-11.9866-11.4446-17.9749 10.2553,3.8651 15.1205,11.9624 15.1205,11.9624 3.7162,7.4071-3.6759,6.0125-3.6759,6.0125z"
       id="path288" />
    <path
       fill="url(#linearGradient3801)"
       d="m84.9417,18.9965c0,0-1.8318-6.726-8.3301-9.9337 8.1678,1.3353 10.0915,5.7967 10.0915,5.7967 2.8267,4.202-1.7614,4.137-1.7614,4.137z"
       id="path290" />
    <path
       fill="url(#linearGradient3797)"
       d="m84.9375,18.6562c-1.2686,.0573-2.7574,.2877-4.4688,.8125 4.6128-.0745 8.0247,2.1665 9.5312,3.375v-3.25c-.7992-.4101-2.4498-1.0556-5.0625-.9375z"
       id="path292" />
    <path
       fill="url(#linearGradient3805)"
       d="m86.726,18.2362c0,0-3.1809-3.01-6.5522-3.5128 3.78-.5762 6.6433,1.0559 6.6433,1.0559 2.3959,1.6184-.0911,2.457-.0911,2.457z"
       id="path294" />
    <path
       fill="url(#linearGradient3809)"
       d="m86.4326,16.5841c0,0-.1208-4.3776-2.1492-7.1171 3.0803,2.2654 3.9509,5.4441 3.9509,5.4441 .5498,2.8385-1.8017,1.673-1.8017,1.673z"
       id="path296" />
    <path
       fill="url(#linearGradient3813)"
       d="m84.0625,22.1562c4.4471,2.4727 5.5938,7.0937 5.5938,7.0938 0,0 .181,.0036 .3438,0v-4c-.937-1.0042-2.6905-2.3469-5.9375-3.0938z"
       id="path298" />
    <path
       fill="url(#linearGradient3825)"
       d="m24.3485,15.6903c0,0-12.0301,3.582-18.1099,11.2299 3.9869-10.2086 12.1415-14.9771 12.1415-14.9771 7.4508-3.6278 5.9683,3.7472 5.9683,3.7472z"
       id="path300" />
    <path
       fill="url(#linearGradient3817)"
       d="m29.815,14.98c0,0-12.2761-2.6173-21.2761,1.1844 8.3893-7.052 17.8316-7.3323 17.8316-7.3323 8.2782,.3839 3.4445,6.1479 3.4445,6.1479z"
       id="path302" />
    <path
       fill="url(#linearGradient3829)"
       d="m31.7935,18.6074c0,0-9.8832,3.1144-14.8016,9.5069 3.1573-8.4788 9.826-12.5218 9.826-12.5218 6.1027-3.0922 4.9756,3.0149 4.9756,3.0149z"
       id="path304" />
    <path
       fill="url(#linearGradient3821)"
       d="m36.2657,16.136c0,0-14.683,.9583-23.6251,8.1144 7.2176-10.6283 17.7806-13.9528 17.7806-13.9528 9.4613-2.2042 5.8446,5.8384 5.8446,5.8384z"
       id="path306" />
    <path
       fill="url(#linearGradient3833)"
       d="m17.702,26.0975c0,0-5.1879,2.7774-6.8183,8.864-.1407-7.1587 3.1941-9.6009 3.1941-9.6009 2.9887-3.1594 3.6242,.7369 3.6242,.7369z"
       id="path308" />
    <path
       fill="url(#linearGradient3837)"
       d="m39.6055,15.042c0,0-10.6032-6.7176-20.3633-6.278 10.3161-3.6997 19.2682-.6835 19.2682-.6835 7.6297,3.2348 1.0951,6.9615 1.0951,6.9615z"
       id="path310" />
    <path
       fill="url(#linearGradient3841)"
       d="m44.4195,18.0302c0,0-7.1505-4.4621-15.8732-2.145 8.7908-5.2817 14.2031-2.882 14.2031-2.882 6.0561,1.4581 1.6702,5.027 1.6702,5.027z"
       id="path312" />
    <path
       fill="url(#linearGradient3851)"
       d="m85.3874,44.8911c0,0-.7682-8.9575-5.251-14.331 6.5824,4.2767 8.7447,10.688 8.7447,10.688 1.4643,5.7522-3.4938,3.643-3.4938,3.643z"
       id="path314" />
    <path
       fill="url(#linearGradient3859)"
       d="m81.7535,47.6331c0,0-4.5194-3.5028-8.9645-3.7235 4.8376-1.2338 8.7675,.5193 8.7675,.5193 3.3208,1.7954 .197,3.2042 .197,3.2042z"
       id="path316" />
    <path
       fill="url(#linearGradient3863)"
       d="m86.2232,54.1777c0,0-5.5544-5.6485-11.6164-6.777 6.8709-.7956 11.941,2.3412 11.941,2.3412 4.2259,3.0817-.3245,4.4358-.3245,4.4358z"
       id="path318" />
    <path
       fill="url(#linearGradient3871)"
       d="m83.2812,43.375c3.6788,1.4339 6.5,5.6562 6.5,5.6562 0,0 .1426-.0185 .2188-.0312v-3.125c-.9988-.7403-3.4056-2.2599-6.7188-2.5z"
       id="path320" />
    <path
       fill="url(#linearGradient3875)"
       d="m86.565,69.3733c0,0-1.4379-10.436-7.0071-16.4543 7.9601,4.6086 10.8763,11.981 10.8763,11.981 2.0596,6.6432-3.8692,4.4733-3.8692,4.4733z"
       id="path322" />
    <path
       fill="url(#linearGradient3879)"
       d="m84.8561,58.6236c0,0 1.3313-7.8402-3.8177-14.6225 7.7608,5.7791 7.6064,11.3629 7.6064,11.3629 .8982,5.8083-3.7887,3.2596-3.7887,3.2596z"
       id="path324" />
  </g>
  <a
     transform="matrix(.54324 .2073 -.2073 .54324 52.94321 -1.65241)"
     id="a326">
    <path
       fill="url(#linearGradient3743)"
       fill-rule="evenodd"
       d="m87.7695,85.2709c0,0-5.1654-6.1603-11.2073-7.7888 7.0147-.253 11.8918,3.3275 11.8918,3.3275 4.0276,3.4569-.6846,4.4613-.6846,4.4613z"
       id="path328" />
  </a>
  <g
     fill-rule="evenodd"
     id="g330">
    <path
       fill="url(#linearGradient3889)"
       d="m83.6115,70.7262c0,0-1.1228-6.8405-7.2884-10.9737 8.0346,2.5665 9.4887,7.2135 9.4887,7.2135 2.3854,4.534-2.2003,3.7602-2.2003,3.7602z"
       id="path332" />
    <path
       fill="url(#linearGradient3893)"
       d="m89.035,70.865c0,0-2.9025-4.0299-8.1762-4.7144 5.9729-.9168 8.3881,1.6004 8.3881,1.6004 2.9766,2.1475-.2119,3.114-.2119,3.114z"
       id="path334" />
    <path
       fill="url(#linearGradient3901)"
       d="m84.5883,53.7113c2.4564,1.481 4.171,3.3983 5.3614,5.198v-3.0076c-1.3647-.821-3.1084-1.5881-5.3614-2.1903z"
       id="path336" />
    <path
       fill="url(#linearGradient3923)"
       d="m55.3552,17.1436c0,0-10.3866-7.0479-20.1557-6.9156 10.4274-3.3733 19.2801-.077 19.2801-.077 7.5241,3.4733 .8756,6.9925 .8756,6.9925z"
       id="path338" />
    <path
       fill="url(#linearGradient3947)"
       d="m54.1674,17.606c0,0-6.9015-.9817-12.4205,3.7148 4.4609-6.9711 9.3193-6.9706 9.3193-6.9706 4.9779-.9314 3.1011,3.2558 3.1011,3.2558z"
       id="path340" />
    <path
       fill="url(#linearGradient3927)"
       d="m62.873,20.2436c0,0-13.5544-5.7261-24.7557-3.3384 11.2165-6.2646 22.1489-4.5006 22.1489-4.5006 9.4454,2.2714 2.6068,7.839 2.6068,7.839z"
       id="path342" />
    <path
       fill="url(#linearGradient3793)"
       d="m70.0014,19.8481c0,0-5.8638-6.0545-14.8878-5.9088 9.8049-3.0064 14.4789,.6274 14.4789,.6274 5.5259,2.8752 .4089,5.2813 .4089,5.2813z"
       id="path344" />
    <path
       fill="url(#linearGradient3931)"
       d="m69.7052,16.5071c0,0-3.4677-4.7074-9.5214-5.2508 6.7934-1.4263 9.6478,1.4818 9.6478,1.4818 3.4824,2.4319-.1264,3.7691-.1264,3.7691z"
       id="path346" />
    <path
       fill="url(#linearGradient3939)"
       d="m72.474,23.5168c0,0-4.6528-5.191-11.8994-5.1451 7.8997-2.4681 11.6193,.6575 11.6193,.6575 4.4105,2.4888 .2802,4.4876 .2802,4.4876z"
       id="path348" />
    <path
       fill="url(#linearGradient3935)"
       d="m81.8355,30.7176c0,0-5.5637-8.742-13.0104-11.8404 9.0068,.8578 14.6365,6.2545 14.6365,6.2545 4.5648,5.0958-1.626,5.5859-1.626,5.5859z"
       id="path350" />
    <path
       fill="url(#linearGradient3943)"
       d="m55.7012,19.6243c0,0-4.2928,.866-6.646,3.332 1.7066-3.4216 4.6902-4.8219 4.6902-4.8219 2.7031-1.026 1.9558,1.4899 1.9558,1.4899z"
       id="path352" />
    <path
       fill="url(#linearGradient3951)"
       d="m39.5069,18.9827c0,0-5.8396-.2893-10.0879,4.0575 3.1898-6.1652 7.2476-6.5383 7.2476-6.5383 4.0859-1.1606 2.8403,2.4808 2.8403,2.4808z"
       id="path354" />
    <path
       fill="url(#linearGradient3959)"
       d="m11.3666,28.0026c0,0-3.4603,4.7597-2.2768,10.9488-3.2447-6.3827-1.3065-10.0336-1.3065-10.0336 1.3142-4.1457 3.5833-.9152 3.5833-.9152z"
       id="path356" />
  </g>
  <path
     style="opacity:0.4;fill:url(#linearGradient3188)"
     d="M 12,6 C 8.11425,5.86322 5.41842,9.7916 6,13.4226 6.01817,37.1117 5.96368,60.8028 6.02721,84.4906 5.28209,86.8321 10.5384,90.3041 9.3125,89.2189 6.06848,87.1934 7.20936,83.0941 7,79.918 7.01709,57.4408 6.96584,34.9619 7.02559,12.4857 7.23712,9.18528 10.6966,7.53718 13.6597,8.0003 37.2778,8.01738 60.8976,7.96615 84.5146,8.02589 87.815,8.23742 89.4631,11.6969 89,14.66 c -0.023,23.6263 0.047,47.2557 -0.035,70.8801 0.6395,2.1759 -4.9497,5.3487 -1.452,3.2815 3.5336,-2.4814 2.2373,-6.9817 2.4873,-10.6151 -0.021,-22.2736 0.041,-44.5493 -0.031,-66.8216 C 89.7162,7.60958 85.8109,5.47608 82.3404,6.0001 58.8936,6.00003 35.4467,6.00023 12,6 Z"
     id="path358"
     inkscape:connector-curvature="0" />
  <path
     style="opacity:0.2;fill:url(#radialGradient2855)"
     d="M 12,90 C 8.11425,90.1368 5.41842,86.2084 6,82.5774 6.01817,58.8883 5.96368,35.1972 6.02721,11.5094 5.28209,9.16789 10.5384,5.69592 9.3125,6.7811 6.06848,8.80663 7.20936,12.9059 7,16.082 c 0.0171,22.4772 -0.0342,44.9561 0.0256,67.4323 0.21153,3.3004 3.67101,4.9485 6.63411,4.4854 23.6181,-0.017 47.2379,0.034 70.8549,-0.026 3.3004,-0.2115 4.9485,-3.671 4.4854,-6.6341 -0.023,-23.6263 0.047,-47.2557 -0.035,-70.8801 0.6395,-2.17591 -4.9497,-5.34874 -1.452,-3.28154 3.5336,2.48139 2.2373,6.98174 2.4873,10.61514 -0.021,22.2736 0.041,44.5493 -0.031,66.8216 -0.253,3.7753 -4.1583,5.9088 -7.6288,5.3848 C 58.8936,90 35.4467,89.9998 12,90 Z"
     id="path360"
     inkscape:connector-curvature="0" />
</svg>
