<?xml version="1.0" encoding="UTF-8" standalone="no"?>
<svg
   xmlns:dc="http://purl.org/dc/elements/1.1/"
   xmlns:cc="http://creativecommons.org/ns#"
   xmlns:rdf="http://www.w3.org/1999/02/22-rdf-syntax-ns#"
   xmlns:svg="http://www.w3.org/2000/svg"
   xmlns="http://www.w3.org/2000/svg"
   xmlns:xlink="http://www.w3.org/1999/xlink"
   xmlns:sodipodi="http://sodipodi.sourceforge.net/DTD/sodipodi-0.dtd"
   xmlns:inkscape="http://www.inkscape.org/namespaces/inkscape"
   viewBox="0 0 96 96"
   id="svg2"
   version="1.1"
   inkscape:version="0.91 r"
   sodipodi:docname="flash.svg">
  <title
     id="title77">flash</title>
  <metadata
     id="metadata73">
    <rdf:RDF>
      <cc:Work
         rdf:about="">
        <dc:format>image/svg+xml</dc:format>
        <dc:type
           rdf:resource="http://purl.org/dc/dcmitype/StillImage" />
        <dc:title>flash</dc:title>
        <dc:subject>
          <rdf:Bag>
            <rdf:li>flash</rdf:li>
          </rdf:Bag>
        </dc:subject>
        <dc:description>flash</dc:description>
      </cc:Work>
    </rdf:RDF>
  </metadata>
  <sodipodi:namedview
     pagecolor="#ffffff"
     bordercolor="#666666"
     borderopacity="1"
     objecttolerance="10"
     gridtolerance="10"
     guidetolerance="10"
     inkscape:pageopacity="0"
     inkscape:pageshadow="2"
     inkscape:window-width="1280"
     inkscape:window-height="965"
     id="namedview71"
     showgrid="false"
     inkscape:zoom="3.47661"
     inkscape:cx="69.5574"
     inkscape:cy="3.43191"
     inkscape:window-x="0"
     inkscape:window-y="27"
     inkscape:window-maximized="1"
     inkscape:current-layer="svg2" />
  <defs
     id="defs4">
    <clipPath
       id="clipPath3613">
      <path
         fill="#fff"
         d="m12,6h72a6,6 0 0,1 6,6v72a6,6 0 0,1 -6,6h-72a6,6 0 0,1 -6-6v-72a6,6 0 0,1 6-6"
         id="path7" />
    </clipPath>
    <filter
       width="1.384"
       x="-.192"
       y="-.192"
       height="1.384"
       color-interpolation-filters="sRGB"
       id="filter3794">
      <feGaussianBlur
         stdDeviation="5.28"
         id="feGaussianBlur10" />
    </filter>
    <linearGradient
       id="linearGradient3617"
       xlink:href="#linearGradient3688"
       y1="90"
       y2="5.988"
       x2="0"
       gradientUnits="userSpaceOnUse" />
    <linearGradient
       gradientTransform="matrix(1.00587 0 0 .99417 100 0)"
       id="ButtonShadow-0"
       y1="92.54"
       y2="7.017"
       x2="0"
       gradientUnits="userSpaceOnUse">
      <stop
         offset="0"
         id="stop14" />
      <stop
         offset="1"
         stop-opacity=".588"
         id="stop16" />
    </linearGradient>
    <linearGradient
       gradientTransform="matrix(1.02381 0 0 1.0119 -1.14286 -98.07143)"
       id="linearGradient3780"
       xlink:href="#ButtonShadow-0"
       y1="6.132"
       y2="90.239"
       x2="0"
       gradientUnits="userSpaceOnUse" />
    <linearGradient
       gradientTransform="translate(0 -97)"
       id="linearGradient3721"
       xlink:href="#ButtonShadow-0"
       y1="6.132"
       y2="90.239"
       x2="0"
       gradientUnits="userSpaceOnUse" />
    <linearGradient
       gradientTransform="matrix(.87486 0 0 .90699 2.76267 6.33428)"
       id="linearGradient2936"
       xlink:href="#linearGradient3694"
       y1="79.015"
       y2="12.798"
       x2="0"
       gradientUnits="userSpaceOnUse" />
    <linearGradient
       id="linearGradient3831"
       xlink:href="#linearGradient3825"
       y1="18"
       y2="112"
       x2="0"
       gradientUnits="userSpaceOnUse" />
    <linearGradient
       id="linearGradient3825">
      <stop
         offset="0"
         stop-color="#501616"
         id="stop23" />
      <stop
         offset="1"
         stop-color="#501616"
         stop-opacity="0"
         id="stop25" />
    </linearGradient>
    <linearGradient
       id="linearGradient3694">
      <stop
         offset="0"
         stop-color="#e6e6e6"
         id="stop28" />
      <stop
         offset="1"
         stop-color="#f5f5f5"
         id="stop30" />
    </linearGradient>
    <linearGradient
       id="linearGradient3688">
      <stop
         offset="0"
         stop-color="#b30707"
         id="stop33" />
      <stop
         offset="1"
         stop-color="#e42c0d"
         id="stop35" />
    </linearGradient>
    <linearGradient
       id="linearGradient3188"
       xlink:href="#linearGradient3737"
       y1="6"
       y2="63.893"
       x2="0"
       gradientUnits="userSpaceOnUse" />
    <linearGradient
       id="linearGradient3613"
       xlink:href="#linearGradient3737"
       y1="20.221"
       y2="138.661"
       x2="0"
       gradientUnits="userSpaceOnUse" />
    <linearGradient
       id="linearGradient3737">
      <stop
         offset="0"
         stop-color="#fff"
         id="stop40" />
      <stop
         offset="1"
         stop-color="#fff"
         stop-opacity="0"
         id="stop42" />
    </linearGradient>
    <radialGradient
       cx="48"
       cy="90.172"
       gradientTransform="matrix(1.15731,0,0,0.99591,-7.55102,0.19713)"
       r="42"
       id="radialGradient3619"
       xlink:href="#linearGradient3737"
       gradientUnits="userSpaceOnUse" />
  </defs>
  <path
     opacity=".08"
     fill="url(#linearGradient3780)"
     d="m12-95.0312c-5.5111,0-10.0312,4.5202-10.0312,10.0312v71c0,5.5111 4.5202,10.0312 10.0312,10.0312h72c5.5111,0 10.0312-4.5202 10.0312-10.0312v-71c0-5.5111-4.5202-10.0312-10.0312-10.0312h-72z"
     transform="scale(1 -1)"
     id="path45" />
  <path
     opacity=".1"
     fill="url(#linearGradient3780)"
     d="m12-94.0312c-4.9716,0-9.0312,4.0596-9.0312,9.0312v71c0,4.9716 4.0596,9.0312 9.0312,9.0312h72c4.9716,0 9.0312-4.0596 9.0312-9.0312v-71c0-4.9716-4.0596-9.0312-9.0312-9.0312h-72z"
     transform="scale(1 -1)"
     id="path47" />
  <path
     opacity=".2"
     fill="url(#linearGradient3780)"
     d="m12-93c-4.4091,0-8,3.5909-8,8v71c0,4.4091 3.5909,8 8,8h72c4.4091,0 8-3.5909 8-8v-71c0-4.4091-3.5909-8-8-8h-72z"
     transform="scale(1 -1)"
     id="path49" />
  <path
     opacity=".3"
     fill="url(#linearGradient3780)"
     d="m12-92h72a7,7 0 0,1 7,7v71a7,7 0 0,1 -7,7h-72a7,7 0 0,1 -7-7v-71a7,7 0 0,1 7-7"
     transform="scale(1 -1)"
     id="path51" />
  <path
     opacity=".45"
     fill="url(#linearGradient3721)"
     d="m12-91h72a6,6 0 0,1 6,6v72a6,6 0 0,1 -6,6h-72a6,6 0 0,1 -6-6v-72a6,6 0 0,1 6-6"
     transform="scale(1 -1)"
     id="path53" />
  <path
     fill="url(#linearGradient3617)"
     d="m12,6h72a6,6 0 0,1 6,6v72a6,6 0 0,1 -6,6h-72a6,6 0 0,1 -6-6v-72a6,6 0 0,1 6-6"
     id="path55" />
  <path
     style="opacity:0.35;fill:url(#linearGradient3188)"
     d="M 12,6 C 8.11425,5.86322 5.41842,9.7916 6,13.4226 6.01817,37.1117 5.96368,60.8028 6.02721,84.4906 5.28209,86.8321 10.5384,90.3041 9.3125,89.2189 6.06848,87.1934 7.20936,83.0941 7,79.918 7.01709,57.4408 6.96584,34.9619 7.02559,12.4857 7.23712,9.18528 10.6966,7.53718 13.6597,8.0003 37.2778,8.01738 60.8976,7.96615 84.5146,8.02589 87.815,8.23742 89.4631,11.6969 89,14.66 c -0.023,23.6263 0.047,47.2557 -0.035,70.8801 0.6395,2.1759 -4.9497,5.3487 -1.452,3.2815 3.5336,-2.4814 2.2373,-6.9817 2.4873,-10.6151 -0.021,-22.2736 0.041,-44.5493 -0.031,-66.8216 C 89.7162,7.60958 85.8109,5.47608 82.3404,6.0001 58.8936,6.00003 35.4467,6.00023 12,6 Z"
     id="path57"
     inkscape:connector-curvature="0" />
  <path
     style="opacity:0.2;fill:url(#radialGradient3619)"
     d="M 12,90 C 8.11425,90.1368 5.41842,86.2084 6,82.5774 6.01817,58.8883 5.96368,35.1972 6.02721,11.5094 5.28209,9.16789 10.5384,5.69592 9.3125,6.7811 6.06848,8.80663 7.20936,12.9059 7,16.082 c 0.0171,22.4772 -0.0342,44.9561 0.0256,67.4323 0.21153,3.3004 3.67101,4.9485 6.63411,4.4854 23.6181,-0.017 47.2379,0.034 70.8549,-0.026 3.3004,-0.2115 4.9485,-3.671 4.4854,-6.6341 -0.023,-23.6263 0.047,-47.2557 -0.035,-70.8801 0.6395,-2.17591 -4.9497,-5.34874 -1.452,-3.28154 3.5336,2.48139 2.2373,6.98174 2.4873,10.61514 -0.021,22.2736 0.041,44.5493 -0.031,66.8216 -0.253,3.7753 -4.1583,5.9088 -7.6288,5.3848 C 58.8936,90 35.4467,89.9998 12,90 Z"
     id="path59"
     inkscape:connector-curvature="0" />
  <path
     opacity=".1"
     fill="url(#linearGradient3613)"
     filter="url(#filter3794)"
     stroke="#fff"
     stroke-linecap="round"
     stroke-width=".5"
     d="m27,15h42a12,12 0 0,1 12,12v42a12,12 0 0,1 -12,12h-42a12,12 0 0,1 -12-12v-42a12,12 0 0,1 12-12"
     clip-path="url(#clipPath3613)"
     id="path61" />
  <path
     fill="url(#linearGradient2936)"
     d="m72,18.0198 0,12.0701c-12.0511,.2118-15.0128,11.9642-15.0128,11.9642h9.0894v12.0701h-14.0936c-8.4766,26.1519-27.983,23.8226-27.983,23.8226v-12.0701c0,0 12.378,2.2962 18.6894-20.7521 7.8949-28.8313 29.3106-27.1048 29.3106-27.1048z"
     id="path63" />
  <path
     opacity=".25"
     fill="url(#linearGradient3831)"
     d="m71.0625,18c-4.207,.0637-21.4669,1.8976-28.375,27.125-6.3114,23.0483-18.6875,20.75-18.6875,20.75v12.0625c0,0 19.4922,2.3394 27.9688-23.8125h14.0938v-12.0625h-9.0625c0,0 2.9489-11.757 15-11.9688v-12.0625c0,0-.3365-.0404-.9375-.0312zm-.0625,1.0625 0,10.1563c-5.7567,.4218-9.5735,3.3842-11.8125,6.3438-2.3709,3.1339-3.1562,6.25-3.1562,6.25a.9928,.9928 0 0,0 .9688,1.25h8.0625v10.0625h-13.0938a.9928,.9928 0 0,0 -.9375,.6875c-4.1668,12.8554-10.9277,18.5473-16.625,21.125-4.8665,2.2018-8.328,2.0722-9.4062,2v-10.0625c.4084,.0213 .4762,.0781 1.1562,0 1.3787-.1584 3.2404-.6442 5.3125-1.875 4.1443-2.4617 8.9859-7.9333 12.1875-19.625 3.8857-14.1902 10.9848-20.6654 17.0938-23.7188 5.2658-2.632 9.1114-2.6297 10.25-2.5938z"
     id="path65" />
  <path
     opacity=".3"
     d="m71.0625,17c-4.207,.0637-21.4669,1.8976-28.375,27.125-6.3114,23.0483-18.6875,20.75-18.6875,20.75v1c0,0 12.3761,2.2983 18.6875-20.75 7.8949-28.8313 29.3125-27.0938 29.3125-27.0938v-1c0,0-.3365-.0404-.9375-.0312zm-13.75,24.0625c-.2053,.5742-.3125,1-.3125,1h9.0625v-1h-8.75z"
     id="path67" />
  <path
     opacity=".4"
     fill="#fff6d5"
     d="m72,30.0938c-12.0511,.2118-15,11.9688-15,11.9688h.3125c.9913-2.7727 4.7039-10.7933 14.6875-10.9688v-1zm-20.0312,24.0312c-8.4766,26.1519-27.9688,23.8125-27.9688,23.8125v1c0,0 19.4922,2.3394 27.9688-23.8125h14.0938v-1h-14.0938z"
     id="path69" />
</svg>
