<?xml version="1.0" encoding="UTF-8" standalone="no"?>
<svg
   xmlns:dc="http://purl.org/dc/elements/1.1/"
   xmlns:cc="http://creativecommons.org/ns#"
   xmlns:rdf="http://www.w3.org/1999/02/22-rdf-syntax-ns#"
   xmlns:svg="http://www.w3.org/2000/svg"
   xmlns="http://www.w3.org/2000/svg"
   xmlns:xlink="http://www.w3.org/1999/xlink"
   xmlns:sodipodi="http://sodipodi.sourceforge.net/DTD/sodipodi-0.dtd"
   xmlns:inkscape="http://www.inkscape.org/namespaces/inkscape"
   viewBox="0 0 96 96"
   id="svg2"
   version="1.1"
   inkscape:version="0.91 r"
   sodipodi:docname="flashplayer.svg">
  <title
     id="title159">flashplayer</title>
  <metadata
     id="metadata155">
    <rdf:RDF>
      <cc:Work
         rdf:about="">
        <dc:format>image/svg+xml</dc:format>
        <dc:type
           rdf:resource="http://purl.org/dc/dcmitype/StillImage" />
        <dc:title>flashplayer</dc:title>
        <dc:subject>
          <rdf:Bag>
            <rdf:li>flashplayer</rdf:li>
          </rdf:Bag>
        </dc:subject>
        <dc:description>flashplayer</dc:description>
      </cc:Work>
    </rdf:RDF>
  </metadata>
  <sodipodi:namedview
     pagecolor="#ffffff"
     bordercolor="#666666"
     borderopacity="1"
     objecttolerance="10"
     gridtolerance="10"
     guidetolerance="10"
     inkscape:pageopacity="0"
     inkscape:pageshadow="2"
     inkscape:window-width="1280"
     inkscape:window-height="965"
     id="namedview153"
     showgrid="false"
     inkscape:zoom="2.45833"
     inkscape:cx="0.305073"
     inkscape:cy="62.6601"
     inkscape:window-x="0"
     inkscape:window-y="27"
     inkscape:window-maximized="1"
     inkscape:current-layer="svg2" />
  <defs
     id="defs4">
    <clipPath
       id="clipPath3613">
      <path
         fill="#fff"
         d="m12,6h72a6,6 0 0,1 6,6v72a6,6 0 0,1 -6,6h-72a6,6 0 0,1 -6-6v-72a6,6 0 0,1 6-6"
         id="path7" />
    </clipPath>
    <filter
       width="1.384"
       x="-.192"
       y="-.192"
       height="1.384"
       color-interpolation-filters="sRGB"
       id="filter3794">
      <feGaussianBlur
         stdDeviation="5.28"
         id="feGaussianBlur10" />
    </filter>
    <linearGradient
       gradientTransform="matrix(1 0 0 1.25 0 -4.59821)"
       id="linearGradient4310"
       xlink:href="#linearGradient3260"
       y1="16"
       y2="11.925"
       x2="0"
       gradientUnits="userSpaceOnUse" />
    <linearGradient
       gradientTransform="matrix(.81331 0 0 .81133 3.99354 2.02818)"
       id="linearGradient4371"
       xlink:href="#linearGradient3273"
       y1="10.442"
       x1="11"
       y2="24"
       x2="16"
       gradientUnits="userSpaceOnUse" />
    <linearGradient
       gradientTransform="translate(0 -.67857)"
       id="linearGradient4320"
       xlink:href="#linearGradient4314"
       y1="16.036"
       y2="20.33"
       x2="0"
       gradientUnits="userSpaceOnUse" />
    <linearGradient
       gradientTransform="matrix(1 0 0 1.25 0 4.40179)"
       id="linearGradient4326"
       xlink:href="#linearGradient3260"
       y1="16"
       y2="11.925"
       x2="0"
       gradientUnits="userSpaceOnUse" />
    <linearGradient
       gradientTransform="matrix(.81331 0 0 .81133 3.99354 2.02818)"
       id="linearGradient4373"
       xlink:href="#linearGradient3289"
       y1="9.942"
       x1="13.125"
       y2="24.5"
       x2="19.25"
       gradientUnits="userSpaceOnUse" />
    <linearGradient
       id="linearGradient3694">
      <stop
         offset="0"
         stop-color="#e6e6e6"
         id="stop18" />
      <stop
         offset="1"
         stop-color="#f5f5f5"
         id="stop20" />
    </linearGradient>
    <linearGradient
       gradientTransform="matrix(.56905 0 0 .58994 18.57573 28.89886)"
       id="linearGradient3736"
       xlink:href="#linearGradient3694"
       y1="79.015"
       y2="12.798"
       x2="0"
       gradientUnits="userSpaceOnUse" />
    <linearGradient
       gradientTransform="translate(0 -97)"
       id="linearGradient3721"
       xlink:href="#ButtonShadow-0"
       y1="6.132"
       y2="90.239"
       x2="0"
       gradientUnits="userSpaceOnUse" />
    <linearGradient
       gradientTransform="matrix(1.00587 0 0 .99417 100 0)"
       id="ButtonShadow-0"
       y1="92.54"
       y2="7.017"
       x2="0"
       gradientUnits="userSpaceOnUse">
      <stop
         offset="0"
         id="stop25" />
      <stop
         offset="1"
         stop-opacity=".588"
         id="stop27" />
    </linearGradient>
    <linearGradient
       id="linearGradient3871"
       xlink:href="#linearGradient3865"
       y1="25.779"
       y2="69.41"
       x2="0"
       gradientUnits="userSpaceOnUse" />
    <linearGradient
       gradientTransform="matrix(1.02381 0 0 1.0119 -1.14286 -98.07143)"
       id="linearGradient3780"
       xlink:href="#ButtonShadow-0"
       y1="6.132"
       y2="90.239"
       x2="0"
       gradientUnits="userSpaceOnUse" />
    <linearGradient
       gradientTransform="matrix(.72414 0 0 .75 1.65517 4.5)"
       id="linearGradient4262"
       xlink:href="#linearGradient3260"
       y1="26"
       y2="34.001"
       x2="0"
       gradientUnits="userSpaceOnUse" />
    <linearGradient
       id="linearGradient3188"
       xlink:href="#linearGradient3737"
       y1="6"
       y2="63.893"
       x2="0"
       gradientUnits="userSpaceOnUse" />
    <linearGradient
       id="linearGradient3260"
       gradientUnits="userSpaceOnUse">
      <stop
         offset="0"
         id="stop34" />
      <stop
         offset=".2"
         stop-opacity=".355"
         id="stop36" />
      <stop
         offset=".553"
         stop-opacity="0"
         id="stop38" />
      <stop
         offset="1"
         stop-opacity="0"
         id="stop40" />
    </linearGradient>
    <linearGradient
       id="linearGradient3737">
      <stop
         offset="0"
         stop-color="#fff"
         id="stop43" />
      <stop
         offset="1"
         stop-color="#fff"
         stop-opacity="0"
         id="stop45" />
    </linearGradient>
    <linearGradient
       id="linearGradient3865">
      <stop
         offset="0"
         stop-color="#f6e2a9"
         id="stop48" />
      <stop
         offset="1"
         stop-color="#f6e3a9"
         stop-opacity="0"
         id="stop50" />
    </linearGradient>
    <linearGradient
       id="linearGradient4314">
      <stop
         offset="0"
         stop-color="#fff"
         id="stop53" />
      <stop
         offset=".3"
         stop-color="#fff"
         stop-opacity=".498"
         id="stop55" />
      <stop
         offset="1"
         stop-color="#fff"
         stop-opacity="0"
         id="stop57" />
    </linearGradient>
    <linearGradient
       id="linearGradient3613"
       xlink:href="#linearGradient3737"
       y1="20.221"
       y2="138.661"
       x2="0"
       gradientUnits="userSpaceOnUse" />
    <linearGradient
       id="linearGradient3289">
      <stop
         offset="0"
         stop-color="#919191"
         id="stop61" />
      <stop
         offset="1"
         stop-color="#232323"
         id="stop63" />
    </linearGradient>
    <linearGradient
       id="linearGradient3187">
      <stop
         offset="0"
         stop-color="#282828"
         id="stop66" />
      <stop
         offset="1"
         stop-color="#5a5a5a"
         id="stop68" />
    </linearGradient>
    <linearGradient
       id="linearGradient3273">
      <stop
         offset="0"
         stop-color="#5d5d5d"
         id="stop71" />
      <stop
         offset="1"
         stop-color="#171717"
         id="stop73" />
    </linearGradient>
    <linearGradient
       id="linearGradient3617"
       xlink:href="#linearGradient3187"
       y1="90"
       y2="5.988"
       x2="0"
       gradientUnits="userSpaceOnUse" />
    <radialGradient
       cx="48"
       cy="90.172"
       gradientTransform="matrix(1.15731,0,0,0.99591,-7.55102,0.19713)"
       r="42"
       id="radialGradient3619"
       xlink:href="#linearGradient3737"
       gradientUnits="userSpaceOnUse" />
    <radialGradient
       cx="11.312"
       cy="14.938"
       r="1.438"
       id="radialGradient4375"
       gradientUnits="userSpaceOnUse">
      <stop
         offset="0"
         stop-color="#dfdfdf"
         id="stop78" />
      <stop
         offset="1"
         stop-color="#434343"
         id="stop80" />
    </radialGradient>
    <radialGradient
       cx="48"
       cy="85.132"
       gradientTransform="matrix(1.40186 0 -0 1.22124 -19.2895 -25.8674)"
       r="36"
       id="radialGradient3833"
       gradientUnits="userSpaceOnUse">
      <stop
         offset="0"
         stop-color="#b30707"
         id="stop83" />
      <stop
         offset="1"
         stop-color="#e42c0d"
         id="stop85" />
    </radialGradient>
  </defs>
  <path
     opacity=".08"
     fill="url(#linearGradient3780)"
     d="m12-95.0312c-5.5111,0-10.0312,4.5202-10.0312,10.0312v71c0,5.5111 4.5202,10.0312 10.0312,10.0312h72c5.5111,0 10.0312-4.5202 10.0312-10.0312v-71c0-5.5111-4.5202-10.0312-10.0312-10.0312h-72z"
     transform="scale(1 -1)"
     id="path87" />
  <path
     opacity=".1"
     fill="url(#linearGradient3780)"
     d="m12-94.0312c-4.9716,0-9.0312,4.0596-9.0312,9.0312v71c0,4.9716 4.0596,9.0312 9.0312,9.0312h72c4.9716,0 9.0312-4.0596 9.0312-9.0312v-71c0-4.9716-4.0596-9.0312-9.0312-9.0312h-72z"
     transform="scale(1 -1)"
     id="path89" />
  <path
     opacity=".2"
     fill="url(#linearGradient3780)"
     d="m12-93c-4.4091,0-8,3.5909-8,8v71c0,4.4091 3.5909,8 8,8h72c4.4091,0 8-3.5909 8-8v-71c0-4.4091-3.5909-8-8-8h-72z"
     transform="scale(1 -1)"
     id="path91" />
  <path
     opacity=".3"
     fill="url(#linearGradient3780)"
     d="m12-92h72a7,7 0 0,1 7,7v71a7,7 0 0,1 -7,7h-72a7,7 0 0,1 -7-7v-71a7,7 0 0,1 7-7"
     transform="scale(1 -1)"
     id="path93" />
  <path
     opacity=".45"
     fill="url(#linearGradient3721)"
     d="m12-91h72a6,6 0 0,1 6,6v72a6,6 0 0,1 -6,6h-72a6,6 0 0,1 -6-6v-72a6,6 0 0,1 6-6"
     transform="scale(1 -1)"
     id="path95" />
  <path
     fill="url(#linearGradient3617)"
     d="m12,6h72a6,6 0 0,1 6,6v72a6,6 0 0,1 -6,6h-72a6,6 0 0,1 -6-6v-72a6,6 0 0,1 6-6"
     id="path97" />
  <path
     fill="url(#radialGradient3833)"
     d="m12,30 0,4 0,36 0,10c0,2.216 1.784,4 4,4h64c2.216,0 4-1.784 4-4v-10-36-4h-4-64-4z"
     id="path99" />
  <path
     opacity=".4"
     fill="url(#linearGradient3871)"
     d="m12,30 0,4 0,31.8438c15.8368-9.9532 42.0402-16.6589 72-17.2812v-14.5625-4h-4-64-4z"
     id="path101" />
  <path
     opacity=".08"
     d="m12,30 0,4 0,36 0,10c0,2.216 1.784,4 4,4h64c2.216,0 4-1.784 4-4v-10-36-4h-4-64-4zm3.0938,3.0938 .9062,0 64,0 .9062,0 0,.9062 0,36 0,10c0,.5508-.3555,.9062-.9062,.9062h-64c-.5508,0-.9062-.3555-.9062-.9062v-10-36-.9062z"
     id="path103" />
  <path
     opacity=".3"
     fill="#fff"
     d="m12,80 0,1c0,2.216 1.784,4 4,4h64c2.216,0 4-1.784 4-4v-1c0,2.216-1.784,4-4,4h-64c-2.216,0-4-1.784-4-4z"
     id="path105" />
  <path
     opacity=".2"
     d="m12,30 0,4 0,36 0,10c0,2.216 1.784,4 4,4h64c2.216,0 4-1.784 4-4v-10-36-4h-4-64-4zm2.0312,2.0312 1.9688,0 64,0 1.9688,0 0,1.9688 0,36 0,10c0,1.1186-.8501,1.9688-1.9688,1.9688h-64c-1.1186,0-1.9688-.8501-1.9688-1.9688v-10-36-1.9688z"
     id="path107" />
  <path
     fill="#800000"
     d="m12,30 0,4 0,36 0,10c0,2.216 1.784,4 4,4h64c2.216,0 4-1.784 4-4v-10-36-4h-4-64-4zm1.0625,1.0625 2.9375,0 64,0 2.9375,0 0,2.9375 0,36 0,10c0,1.641-1.2965,2.9375-2.9375,2.9375h-64c-1.641,0-2.9375-1.2965-2.9375-2.9375v-10-36-2.9375z"
     id="path109" />
  <g
     fill="#fff"
     id="g111">
    <path
       opacity=".1"
       d="m63.75,35.125c-6.7232-.2279-13.0268,3.8099-16.5462,9.3869-2.3552,3.4708-3.5762,7.5146-4.7278,11.5008-1.3528,3.8979-3.4221,8.1384-7.4373,9.8389-.994,.5737-2.1398,.2666-3.1637,.4609-.943,.3521-.94,1.4359-.875,2.2821 .022,2.4137-.0432,4.8479 .0312,7.2492 .2287,.9232 1.2992,1.1591 2.1461,1.0421 5.8139,.0322 11.2317-3.3166 14.4779-8.0255 1.6482-2.2957 2.8959-4.8601 3.8448-7.5166 2.8619-.0216 5.7442,.0427 8.5938-.0312 .8848-.1983 1.1711-1.1732 1.0312-1.9901-.0217-2.5111 .0428-5.0424-.0312-7.5411-.1983-.8848-1.1732-1.1711-1.9901-1.0312-1.0241,0-2.0483,0-3.0724,0 1.2409-3.115 4.5275-5.2082 7.875-5.0312 .854-.1906 1.2509-1.0885 1.0938-1.9136-.0219-2.5573 .0431-5.1352-.0312-7.6801-.1529-.5298-.6443-.9935-1.2188-1z"
       id="path113" />
    <path
       opacity=".2"
       d="m63.6875,35.875c0,0-3.6888-.2924-7.9688,1.8438-4.2799,2.1362-9.2054,6.7291-11.8125,16.25-2.0233,7.3888-4.9535,10.5669-7.3125,11.9688-1.1795,.7009-2.2264,.9769-2.9688,1.0625-.7424,.0856-1.125,0-1.125,0a.6344,.6344 0 0,0 -.75,.625v7.8438a.6344,.6344 0 0,0 .5625,.625c0,0 3.3594,.4104 7.375-1.4062 3.9379-1.7815 8.4931-5.7885 11.3125-14.0938h8.75a.6344,.6344 0 0,0 .625-.625v-7.8438a.6344,.6344 0 0,0 -.625-.625h-5c.2442-.673 .6588-1.6547 1.5625-2.8438 1.3842-1.8211 3.5984-3.6222 7.3125-3.6875a.6344,.6344 0 0,0 .625-.625v-7.8438a.6344,.6344 0 0,0 -.5625-.625z"
       id="path115" />
  </g>
  <path
     fill="url(#linearGradient3736)"
     d="m63.6106,36.4996 0,7.8509c-7.8385,.1377-9.7649,7.782-9.7649,7.782h5.9121v7.8509h-9.1671c-5.5135,17.0103-18.2013,15.4952-18.2013,15.4952v-7.8509c0,0 8.0512,1.4936 12.1564-13.498 5.1352-18.7531 19.0649-17.6301 19.0649-17.6301z"
     id="path117" />
  <path
     style="opacity:0.2;fill:url(#radialGradient3619)"
     d="M 12,90 C 8.11425,90.1368 5.41842,86.2084 6,82.5774 6.01817,58.8883 5.96368,35.1972 6.02721,11.5094 5.28209,9.16789 10.5384,5.69592 9.3125,6.7811 6.06848,8.80663 7.20936,12.9059 7,16.082 c 0.0171,22.4772 -0.0342,44.9561 0.0256,67.4323 0.21153,3.3004 3.67101,4.9485 6.63411,4.4854 23.6181,-0.017 47.2379,0.034 70.8549,-0.026 3.3004,-0.2115 4.9485,-3.671 4.4854,-6.6341 -0.023,-23.6263 0.047,-47.2557 -0.035,-70.8801 0.6395,-2.17591 -4.9497,-5.34874 -1.452,-3.28154 3.5336,2.48139 2.2373,6.98174 2.4873,10.61514 -0.021,22.2736 0.041,44.5493 -0.031,66.8216 -0.253,3.7753 -4.1583,5.9088 -7.6288,5.3848 C 58.8936,90 35.4467,89.9998 12,90 Z"
     id="path119"
     inkscape:connector-curvature="0" />
  <path
     opacity=".1"
     fill="url(#linearGradient3613)"
     filter="url(#filter3794)"
     stroke="#fff"
     stroke-linecap="round"
     stroke-width=".5"
     d="m27,15h42a12,12 0 0,1 12,12v42a12,12 0 0,1 -12,12h-42a12,12 0 0,1 -12-12v-42a12,12 0 0,1 12-12"
     clip-path="url(#clipPath3613)"
     id="path121" />
  <path
     d="m12,6c-3.324,0-6,2.676-6,6v12h84v-12c0-3.324-2.676-6-6-6h-72z"
     id="path123" />
  <g
     fill-rule="evenodd"
     id="g125">
    <path
       opacity=".8"
       fill="url(#linearGradient4262)"
       d="m6,24h84v6h-84z"
       id="path127" />
    <path
       opacity=".3"
       fill="url(#linearGradient4320)"
       d="m6,15h84v5h-84z"
       id="path129" />
    <g
       fill="#f0f0f0"
       transform="translate(1)"
       id="g131">
      <path
         d="m28.3333,6-5.3333,9 5.3333,9 10.6667,0-5.3333-9 5.3333-9-10.6667,0z"
         id="path133" />
      <path
         d="m50.3333,6-5.3333,9 5.3333,9 10.6667,0-5.3333-9 5.3333-9-10.6667,0z"
         id="path135" />
      <path
         d="m72.3333,6-5.3333,9 5.3333,9 10.6667,0-5.3333-9 5.3333-9-10.6667,0z"
         id="path137" />
    </g>
    <path
       opacity=".7"
       fill="url(#linearGradient4310)"
       d="m6,10h84v5h-84z"
       id="path139" />
    <path
       opacity=".7"
       fill="url(#linearGradient4326)"
       d="m6,19h84v5h-84z"
       id="path141" />
    <path
       fill="url(#linearGradient4371)"
       stroke="url(#linearGradient4373)"
       stroke-linejoin="round"
       d="m12.0054,10.5c1.1095,0 1.7702,.9837 6.03,4.3027 4.3044,3.3537 5.4775,3.7265 5.4775,5.0746 0,1.3484-1.0882,1.6227-2.4399,1.6227h-8.1331c-1.3517-0-2.4399-1.0856-2.4399-2.434v-6.4906c0-1.3484 .4676-2.0754 1.5054-2.0754z"
       id="path143" />
    <path
       fill="url(#radialGradient4375)"
       d="m12.75,14.9375a1.4375,1.4375 0 1,1 -2.875,0 1.4375,1.4375 0 1,1 2.875,0z"
       transform="matrix(.81331 0 0 .81133 3.58689 1.07468)"
       id="path145" />
    <path
       fill="url(#radialGradient4375)"
       d="m12.75,14.9375a1.4375,1.4375 0 1,1 -2.875,0 1.4375,1.4375 0 1,1 2.875,0z"
       transform="matrix(.81331 0 0 .81133 3.58689 7.09897)"
       id="path147" />
    <path
       fill="url(#radialGradient4375)"
       d="m12.75,14.9375a1.4375,1.4375 0 1,1 -2.875,0 1.4375,1.4375 0 1,1 2.875,0z"
       transform="matrix(.81331 0 0 .81133 11.6183 7.09897)"
       id="path149" />
  </g>
  <path
     style="opacity:0.3;fill:url(#linearGradient3188)"
     d="M 12,6 C 8.11425,5.86322 5.41842,9.7916 6,13.4226 6.01817,37.1117 5.96368,60.8028 6.02721,84.4906 5.28209,86.8321 10.5384,90.3041 9.3125,89.2189 6.06848,87.1934 7.20936,83.0941 7,79.918 7.01709,57.4408 6.96584,34.9619 7.02559,12.4857 7.23712,9.18528 10.6966,7.53718 13.6597,8.0003 37.2778,8.01738 60.8976,7.96615 84.5146,8.02589 87.815,8.23742 89.4631,11.6969 89,14.66 c -0.023,23.6263 0.047,47.2557 -0.035,70.8801 0.6395,2.1759 -4.9497,5.3487 -1.452,3.2815 3.5336,-2.4814 2.2373,-6.9817 2.4873,-10.6151 -0.021,-22.2736 0.041,-44.5493 -0.031,-66.8216 C 89.7162,7.60958 85.8109,5.47608 82.3404,6.0001 58.8936,6.00003 35.4467,6.00023 12,6 Z"
     id="path151"
     inkscape:connector-curvature="0" />
</svg>
