<?xml version="1.0" encoding="UTF-8" standalone="no"?>
<!-- Created with Inkscape (http://www.inkscape.org/) -->

<svg
   xmlns:dc="http://purl.org/dc/elements/1.1/"
   xmlns:cc="http://creativecommons.org/ns#"
   xmlns:rdf="http://www.w3.org/1999/02/22-rdf-syntax-ns#"
   xmlns:svg="http://www.w3.org/2000/svg"
   xmlns="http://www.w3.org/2000/svg"
   xmlns:xlink="http://www.w3.org/1999/xlink"
   xmlns:sodipodi="http://sodipodi.sourceforge.net/DTD/sodipodi-0.dtd"
   xmlns:inkscape="http://www.inkscape.org/namespaces/inkscape"
   version="1.0"
   width="96"
   height="96"
   id="svg2408"
   inkscape:version="0.91 r"
   sodipodi:docname="gajim.svg">
  <title
     id="title108">gajim</title>
  <sodipodi:namedview
     pagecolor="#ffffff"
     bordercolor="#666666"
     borderopacity="1"
     objecttolerance="10"
     gridtolerance="10"
     guidetolerance="10"
     inkscape:pageopacity="0"
     inkscape:pageshadow="2"
     inkscape:window-width="1280"
     inkscape:window-height="965"
     id="namedview84"
     showgrid="false"
     inkscape:zoom="3.47661"
     inkscape:cx="84.8442"
     inkscape:cy="71.4105"
     inkscape:window-x="0"
     inkscape:window-y="27"
     inkscape:window-maximized="1"
     inkscape:current-layer="svg2408" />
  <defs
     id="defs2410">
    <linearGradient
       id="linearGradient4285">
      <stop
         id="stop4287"
         style="stop-color:#ffffff;stop-opacity:1"
         offset="0" />
      <stop
         id="stop5732"
         style="stop-color:#ffffff;stop-opacity:0.70866144"
         offset="0.5" />
      <stop
         id="stop4289"
         style="stop-color:#ffffff;stop-opacity:0"
         offset="1" />
    </linearGradient>
    <linearGradient
       id="linearGradient4239">
      <stop
         id="stop5734"
         style="stop-color:#e2f39e;stop-opacity:0"
         offset="0" />
      <stop
         id="stop5736"
         style="stop-color:#e0f298;stop-opacity:0.29133859"
         offset="0.30000001" />
      <stop
         id="stop4243"
         style="stop-color:#e0f297;stop-opacity:0.16535433"
         offset="1" />
    </linearGradient>
    <linearGradient
       x1="45.447727"
       y1="92.539597"
       x2="45.447727"
       y2="7.0165396"
       id="ButtonShadow"
       gradientUnits="userSpaceOnUse"
       gradientTransform="scale(1.0058652,0.994169)">
      <stop
         id="stop3750"
         style="stop-color:#000000;stop-opacity:1"
         offset="0" />
      <stop
         id="stop3752"
         style="stop-color:#000000;stop-opacity:0.58823532"
         offset="1" />
    </linearGradient>
    <linearGradient
       id="linearGradient3737">
      <stop
         id="stop3739"
         style="stop-color:#ffffff;stop-opacity:1"
         offset="0" />
      <stop
         id="stop3741"
         style="stop-color:#ffffff;stop-opacity:0"
         offset="1" />
    </linearGradient>
    <filter
       color-interpolation-filters="sRGB"
       id="filter3174">
      <feGaussianBlur
         id="feGaussianBlur3176"
         stdDeviation="1.71" />
    </filter>
    <linearGradient
       x1="48"
       y1="20.220806"
       x2="48"
       y2="138.66119"
       id="linearGradient3613"
       xlink:href="#linearGradient3737"
       gradientUnits="userSpaceOnUse" />
    <clipPath
       id="clipPath3613">
      <rect
         width="84"
         height="84"
         rx="6"
         ry="6"
         x="6"
         y="6"
         id="rect3615"
         style="fill:#ffffff;fill-opacity:1;fill-rule:nonzero;stroke:none" />
    </clipPath>
    <linearGradient
       x1="10.31979"
       y1="21"
       x2="10.31979"
       y2="0.99929649"
       id="ButtonColor"
       gradientUnits="userSpaceOnUse">
      <stop
         id="stop3189"
         style="stop-color:#5a9b0f;stop-opacity:1"
         offset="0" />
      <stop
         id="stop3191"
         style="stop-color:#8fe02f;stop-opacity:1"
         offset="1" />
    </linearGradient>
    <linearGradient
       x1="48"
       y1="90"
       x2="48"
       y2="5.9877172"
       id="linearGradient3948"
       xlink:href="#ButtonColor"
       gradientUnits="userSpaceOnUse" />
    <linearGradient
       x1="44"
       y1="6"
       x2="44"
       y2="64.215118"
       id="linearGradient3967"
       xlink:href="#linearGradient3737"
       gradientUnits="userSpaceOnUse" />
    <radialGradient
       cx="48"
       cy="72"
       r="42"
       fx="48"
       fy="72"
       id="radialGradient3982"
       xlink:href="#linearGradient3737"
       gradientUnits="userSpaceOnUse"
       gradientTransform="matrix(1.14286,0,0,0.952381,-6.85714,3.42857)" />
    <linearGradient
       x1="48"
       y1="90"
       x2="48"
       y2="5.9877172"
       id="linearGradient3989"
       xlink:href="#ButtonShadow"
       gradientUnits="userSpaceOnUse"
       gradientTransform="translate(0,1)" />
    <linearGradient
       x1="48"
       y1="90.868095"
       x2="48"
       y2="5.9877172"
       id="linearGradient4001"
       xlink:href="#ButtonShadow"
       gradientUnits="userSpaceOnUse"
       gradientTransform="translate(-1,1)" />
    <linearGradient
       x1="48"
       y1="90.868095"
       x2="48"
       y2="5.9877172"
       id="linearGradient4009"
       xlink:href="#ButtonShadow"
       gradientUnits="userSpaceOnUse"
       gradientTransform="translate(-1,1)" />
    <linearGradient
       x1="48"
       y1="90.868095"
       x2="48"
       y2="5.9877172"
       id="linearGradient4023"
       xlink:href="#ButtonShadow"
       gradientUnits="userSpaceOnUse"
       gradientTransform="translate(-1,1)" />
    <linearGradient
       x1="48"
       y1="90.868095"
       x2="48"
       y2="5.9877172"
       id="linearGradient4031"
       xlink:href="#ButtonShadow"
       gradientUnits="userSpaceOnUse"
       gradientTransform="translate(-1,1)" />
    <filter
       x="-0.19410552"
       y="-0.19410552"
       width="1.388211"
       height="1.388211"
       color-interpolation-filters="sRGB"
       id="filter4055">
      <feGaussianBlur
         id="feGaussianBlur4057"
         stdDeviation="5.3379019" />
    </filter>
    <radialGradient
       cx="24"
       cy="34.75"
       r="42"
       fx="24"
       fy="34.75"
       id="radialGradient5730"
       xlink:href="#linearGradient4285"
       gradientUnits="userSpaceOnUse"
       gradientTransform="matrix(0.5,0,0,0.52381,12,17.7976)" />
    <linearGradient
       x1="44"
       y1="36"
       x2="96"
       y2="24"
       id="linearGradient5770"
       xlink:href="#linearGradient4239"
       gradientUnits="userSpaceOnUse" />
    <linearGradient
       x1="42"
       y1="45"
       x2="96"
       y2="48"
       id="linearGradient5774"
       xlink:href="#linearGradient4239"
       gradientUnits="userSpaceOnUse" />
    <linearGradient
       x1="36"
       y1="51"
       x2="82"
       y2="76"
       id="linearGradient5776"
       xlink:href="#linearGradient4239"
       gradientUnits="userSpaceOnUse" />
    <linearGradient
       x1="32"
       y1="56"
       x2="48"
       y2="72"
       id="linearGradient5778"
       xlink:href="#linearGradient4239"
       gradientUnits="userSpaceOnUse" />
    <linearGradient
       x1="11.46875"
       y1="16.421875"
       x2="8"
       y2="0"
       id="linearGradient5780"
       xlink:href="#linearGradient4239"
       gradientUnits="userSpaceOnUse" />
    <linearGradient
       x1="32"
       y1="16"
       x2="39"
       y2="6"
       id="linearGradient5782"
       xlink:href="#linearGradient4239"
       gradientUnits="userSpaceOnUse" />
    <linearGradient
       x1="42"
       y1="23"
       x2="70"
       y2="1"
       id="linearGradient5784"
       xlink:href="#linearGradient4239"
       gradientUnits="userSpaceOnUse" />
  </defs>
  <metadata
     id="metadata2413">
    <rdf:RDF>
      <cc:Work
         rdf:about="">
        <dc:format>image/svg+xml</dc:format>
        <dc:type
           rdf:resource="http://purl.org/dc/dcmitype/StillImage" />
        <dc:title>gajim</dc:title>
        <dc:subject>
          <rdf:Bag>
            <rdf:li>gajim</rdf:li>
          </rdf:Bag>
        </dc:subject>
        <dc:description>gajim</dc:description>
      </cc:Work>
    </rdf:RDF>
  </metadata>
  <g
     id="layer2"
     style="display:none">
    <rect
       width="86"
       height="85"
       rx="6"
       ry="6"
       x="5"
       y="7"
       id="rect3745"
       style="opacity:0.9;fill:url(#ButtonShadow);fill-opacity:1;fill-rule:nonzero;stroke:none;filter:url(#filter3174)" />
  </g>
  <g
     id="layer3">
    <path
       d="m 12,4.03125 c -6.0701637,-0.1617408 -10.6911509,5.6895113 -9.96875,11.5 7.16e-5,0.04167 -7.01e-5,0.08333 0,0.125 0.030431,18.086218 -0.077787,36.153437 0.03125,54.25 a 0.93232674,0.93232674 0 0 0 0,0.0625 c 0.4297709,5.831518 6.2168912,9.674679 11.71875,9 0.0418,-0.0051 0.08323,0.0056 0.125,0 l 5.3125,0 c -0.679778,4.428501 -1.596836,8.895227 -2.0625,13.40625 a 0.93232674,0.93232674 0 0 0 0.03125,0.28125 c 0.279995,1.294203 1.371731,2.108795 2.46875,2.25 1.023884,0.131791 2.065552,-0.225148 2.84375,-1 l 0,0.03125 22.84375,-14.96875 c 13.185056,-0.02898 26.362788,0.07707 39.5625,-0.03125 a 0.93232674,0.93232674 0 0 0 0.0625,0 c 5.831518,-0.429771 9.674679,-6.216892 9,-11.71875 -0.0051,-0.0418 0.0056,-0.08323 0,-0.125 -0.03043,-18.00176 0.07779,-35.987855 -0.03125,-54 a 0.93232674,0.93232674 0 0 0 0,-0.0625 c -0.429771,-5.8315178 -6.216892,-9.6746792 -11.71875,-9 l -0.125,0 -70.0625,0 -0.03125,0 z"
       id="path4029"
       style="opacity:0.07999998;fill:url(#linearGradient4031);fill-opacity:1;fill-rule:nonzero;stroke:none" />
    <path
       d="M 12,4.96875 C 6.498217,4.8031106 2.2406967,10.230306 2.96875,15.520213 c 0.031153,18.132768 -0.06237,36.268711 0.046873,54.39949 0.3891125,5.279828 5.7301904,8.791471 10.757959,8.111547 2.17964,0 4.359279,0 6.538918,0 -0.693629,4.811167 -1.723208,9.637038 -2.21875,14.4375 0.399566,1.846889 2.79006,1.976363 3.910163,0.694482 C 29.700525,88.119238 37.397138,83.075244 45.09375,78.03125 58.368678,78.00033 71.646761,78.0933 84.919703,77.98438 90.199531,77.595267 93.711174,72.254189 93.03125,67.226421 93.000098,49.178106 93.093619,31.12662 92.984377,13.080297 92.595264,7.8004692 87.254186,4.2888256 82.226418,4.96875 c -23.408806,0 -46.817612,0 -70.226418,0 z"
       inkscape:connector-curvature="0"
       id="path4015"
       style="opacity:0.1;fill:url(#linearGradient4023);fill-opacity:1;fill-rule:nonzero;stroke:none" />
    <path
       d="M 12,6 C 7.5921478,6 4,9.5921478 4,14 l 0,55 c 0,4.407852 3.5921478,8 8,8 l 9.5,0 -2.40625,14.90625 a 0.98733463,0.98733463 0 0 0 1.5,0.96875 L 44.8125,77 84,77 c 4.407852,0 8,-3.592148 8,-8 L 92,14 C 92,9.5921478 88.407852,6 84,6 L 12,6 z"
       id="path4007"
       style="opacity:0.15;fill:url(#linearGradient4009);fill-opacity:1;fill-rule:nonzero;stroke:none" />
    <path
       d="M 12,7 C 8.122,7 5,10.122 5,14 l 0,55 c 0,3.878 3.122,7 7,7 L 22.65625,76 20.0625,92.0625 44.5625,76 84,76 c 3.878,0 7,-3.122 7,-7 L 91,14 C 91,10.122 87.878,7 84,7 L 12,7 z"
       inkscape:connector-curvature="0"
       id="rect3991"
       style="opacity:0.3;fill:url(#linearGradient4001);fill-opacity:1;fill-rule:nonzero;stroke:none" />
    <path
       d="M 12,7 C 8.676,7 6,9.676 6,13 l 0,56 c 0,3.324 2.676,6 6,6 l 12,0 -3,16 23,-16 40,0 c 3.324,0 6,-2.676 6,-6 L 90,13 C 90,9.676 87.324,7 84,7 L 12,7 z"
       inkscape:connector-curvature="0"
       id="path3984"
       style="opacity:0.45;fill:url(#linearGradient3989);fill-opacity:1;fill-rule:nonzero;stroke:none" />
  </g>
  <path
     style="fill:url(#linearGradient3948);fill-opacity:1;fill-rule:nonzero;stroke:none"
     id="rect2419"
     inkscape:connector-curvature="0"
     d="M 12,6 C 8.676,6 6,8.676 6,12 l 0,56 c 0,3.324 2.676,6 6,6 l 12,0 -3,16 23,-16 40,0 c 3.324,0 6,-2.676 6,-6 L 90,12 C 90,8.676 87.324,6 84,6 L 12,6 Z" />
  <path
     style="opacity:0.3;fill:url(#linearGradient3967);fill-opacity:1;fill-rule:nonzero;stroke:none"
     id="path3953"
     inkscape:connector-curvature="0"
     d="M 12,6 C 8.676,6 6,8.676 6,12 l 0,56 c 0,2.9085 2.04223,5.3174 4.7812,5.875 C 8.57911,73.3373 6.96875,71.3778 6.96875,69 l 0,-56 C 6.96875,10.2026 9.20261,7.96875 12,7.96875 l 72,0 c 2.7974,0 5.0313,2.23385 5.0313,5.03125 l 0,56 c 0,2.3778 -1.6104,4.3373 -3.8125,4.875 C 87.9578,73.3174 90,70.9085 90,68 L 90,12 C 90,8.676 87.324,6 84,6 L 12,6 Z M 24,74.0313 21,90 43.9688,74.0313 a 0.981296,0.981296 0 0 0 -0.5313,0.1562 l -21.0312,14.625 2.5625,-13.625 A 0.981296,0.981296 0 0 0 24,74.0313 Z" />
  <path
     style="opacity:0.15;fill:url(#radialGradient3982);fill-opacity:1;fill-rule:nonzero;stroke:none"
     id="path3969"
     inkscape:connector-curvature="0"
     d="M 12,6 C 8.676,6 6,8.676 6,12 l 0,56 c 0,3.324 2.676,6 6,6 l 12,0 -3,16 23,-16 40,0 c 3.324,0 6,-2.676 6,-6 L 90,12 C 90,8.676 87.324,6 84,6 L 12,6 Z m 0,2 72,0 c 2.2515,0 4,1.74853 4,4 l 0,56 c 0,2.2515 -1.7485,4 -4,4 l -40,0 a 1.99857,1.99857 0 0 0 -1.1562,0.375 L 23.875,85.5625 25.9688,74.375 A 1.99857,1.99857 0 0 0 24,72 L 12,72 C 9.74853,72 8,70.2515 8,68 L 8,12 C 8,9.74853 9.74853,8 12,8 Z" />
  <g
     id="layer5"
     style="display:inline">
    <rect
       width="66"
       height="66"
       rx="12"
       ry="12"
       x="15"
       y="15"
       transform="matrix(1,0,0,0.74384496,0,3.8423256)"
       clip-path="url(#clipPath3613)"
       id="rect3171"
       style="opacity:0.1;fill:url(#linearGradient3613);fill-opacity:1;fill-rule:nonzero;stroke:#ffffff;stroke-width:0.57973403;stroke-linecap:round;stroke-linejoin:miter;stroke-miterlimit:4;stroke-opacity:1;stroke-dasharray:none;stroke-dashoffset:0;filter:url(#filter4055)" />
  </g>
  <path
     style="opacity:0.3;fill:url(#linearGradient5780);fill-opacity:1;stroke:none"
     id="path5768"
     inkscape:connector-curvature="0"
     d="m 12,6 c -0.1767,0 -0.3585,0.0164 -0.5313,0.0312 2.2103,8.8701 5.0626,20.4278 5.0626,20.8126 L 19.2188,6 12,6 Z" />
  <path
     style="opacity:0.4;fill:url(#linearGradient5782);fill-opacity:1;stroke:none"
     id="path5766"
     inkscape:connector-curvature="0"
     d="M 31.0938,6 21.625,36.3125 41.9375,6 31.0938,6 Z" />
  <path
     style="opacity:0.5;fill:url(#linearGradient5784);fill-opacity:1;stroke:none"
     id="path5764"
     inkscape:connector-curvature="0"
     d="M 56.8438,6 28,36.875 74.9375,6 56.8438,6 Z" />
  <path
     style="opacity:0.5;fill:url(#linearGradient5770);fill-opacity:1;stroke:none"
     id="path5762"
     inkscape:connector-curvature="0"
     d="M 90,15.0937 30.5313,39.4375 90,30.25 90,15.0937 Z" />
  <path
     style="opacity:0.5;fill:url(#linearGradient5774);fill-opacity:1;stroke:none"
     id="path5760"
     inkscape:connector-curvature="0"
     d="M 31.6875,43.8125 90,55.4063 90,43.9375 31.6875,43.8125 Z" />
  <path
     style="opacity:0.4;fill:url(#linearGradient5776);fill-opacity:1;stroke:none"
     id="path5758"
     inkscape:connector-curvature="0"
     d="M 27.8438,46.6563 69.125,74 84,74 c 2.6211,0 4.8353,-1.6665 5.6563,-4 L 27.8438,46.6563 Z" />
  <path
     style="opacity:0.3;fill:url(#linearGradient5778);fill-opacity:1;stroke:none"
     id="path4224"
     inkscape:connector-curvature="0"
     d="M 28,50.3125 43.8438,74.0938 44,74 51.125,74 28,50.3125 Z" />
  <path
     style="opacity:0.2;fill:url(#radialGradient5730);fill-opacity:1;fill-rule:nonzero;stroke:none"
     id="path3984-5"
     inkscape:connector-curvature="0"
     d="M 12,6 C 8.676,6 6,8.676 6,12 l 0,56 c 0,3.324 2.676,6 6,6 L 24,74 21,90 44,74 64,74 64,6 12,6 Z" />
  <path
     style="opacity:0.3;fill:#ffffff;fill-opacity:1;stroke:none"
     id="path4179"
     inkscape:connector-curvature="0"
     d="m 22.0625,15.0937 c -0.3094,-0.01 -0.6418,-0.01 -0.9375,0.031 -0.9431,0.1239 -1.8961,0.1036 -2.8437,0.25 -1.8154,0.2803 -3.5497,0.851 -5.2501,1.5313 -0.6191,0.2476 -1.2437,0.5221 -1.8437,0.8125 -0.2233,0.108 -0.5392,0.1703 -0.7188,0.3437 -0.093,0.09 -0.082,0.3166 -0.094,0.4375 -0.032,0.34 -0.092,0.6914 -0.125,1.0313 -0.127,1.3113 -0.219,2.658 -0.031,3.9687 0.061,0.4235 0.1983,1.1688 0.7188,1.25 0.8004,0.1253 1.4197,-0.8311 1.8125,-1.375 0.9174,-1.2704 1.9642,-2.4634 3.4688,-3.0312 1.7711,-0.6686 3.8137,-0.8403 5.6875,-0.9688 5.257,-0.3603 11.0024,0.5967 14.875,4.4688 0.5507,0.5506 1.0566,1.1388 1.5,1.7812 1.7339,2.5107 2.6521,5.3764 3.0937,8.375 0.2076,1.4078 0.3524,2.8168 0.031,4.2188 -0.5573,2.4322 -2.0085,4.5726 -3.6875,6.375 -1.1492,1.2335 -2.4666,2.3302 -3.8125,3.3437 -0.7514,0.5657 -1.5748,1.0691 -2.2813,1.6875 -0.8137,0.7123 -1.4856,1.5809 -2,2.5313 -1.3842,2.559 -1.7821,5.6434 -1.375,8.5 0.083,0.5855 0.1798,1.1725 0.3125,1.75 0.04,0.1727 0.044,0.4838 0.1563,0.625 0.2091,0.264 0.7741,0.3907 1.0937,0.4062 0.3333,0.016 0.5433,-0.2324 0.625,-0.5312 0.1399,-0.5122 0.081,-1.0786 0,-1.5938 -0.166,-1.0552 -0.3283,-2.1164 -0.2812,-3.1875 0.087,-1.9776 0.848,-3.8167 2.2187,-5.25 1.3941,-1.4577 3.2908,-2.3101 4.875,-3.5312 3.1929,-2.4611 6.0266,-5.7676 7.125,-9.7188 0.3926,-1.413 0.523,-2.9204 0.3438,-4.375 -0.2266,-1.84 -0.8973,-3.6734 -1.5313,-5.4062 -1.9322,-5.2819 -5.2364,-10.3024 -10.5,-12.7188 -2.089,-0.9589 -4.2693,-1.4038 -6.5312,-1.7188 -1.0608,-0.1476 -2.1196,-0.2344 -3.1875,-0.2812 -0.2966,-0.013 -0.5969,-0.021 -0.9063,-0.031 z M 18.7813,37 c -0.4217,0.041 -0.8164,0.1804 -1.1875,0.4063 -0.6671,0.4062 -1.0409,1.1155 -1.25,1.8437 -0.4153,1.4459 -0.2279,3.1105 0.062,4.5625 0.093,0.4644 0.1822,0.9191 0.3125,1.375 0.047,0.1645 0.08,0.3945 0.1875,0.5313 0.1866,0.2391 0.6267,0.3283 0.9062,0.2812 0.8385,-0.1409 0.6223,-1.538 0.5938,-2.125 -0.067,-1.3751 -0.4551,-2.6948 -0.062,-4.0625 0.1662,-0.5788 0.4779,-1.2486 1.0625,-1.5 0.5276,-0.2272 1.0723,0.047 1.2812,0.5625 0.3383,0.8345 0.2566,1.8192 0.4688,2.6875 0.072,0.2952 0.1481,0.5686 0.2812,0.8438 0.039,0.079 0.076,0.26 0.1875,0.25 0.2717,-0.025 0.6713,-0.4881 0.875,-0.6563 0.6579,-0.5437 1.3363,-1.1289 2.0938,-1.5312 0.3564,-0.1893 0.9484,-0.4782 1.3125,-0.1563 0.093,0.082 0.1523,0.1773 0.2187,0.2813 0.4279,0.6702 0,1.1751 -0.2812,1.8125 -0.3602,0.8249 -0.7283,1.6378 -1.25,2.375 -0.4486,0.6338 -1.0479,1.2137 -1.4063,1.9062 -0.2307,0.4459 -0.3767,0.9343 -0.2812,1.4375 0.077,0.4069 0.3974,0.6267 0.8125,0.5313 0.3106,-0.072 0.5103,-0.3168 0.6875,-0.5625 0.3156,-0.4383 0.6237,-0.9038 0.9375,-1.3438 0.6069,-0.851 1.3333,-1.6476 1.8437,-2.5625 0.6152,-1.1029 0.9069,-2.3375 0.9063,-3.5937 -4e-4,-1.0267 -0.3667,-2.5973 -1.5625,-2.8125 -0.2251,-0.04 -0.4953,-0.039 -0.7188,0 -0.2777,0.048 -0.5587,0.1583 -0.8125,0.2812 -0.6799,0.3289 -1.276,0.8165 -1.7812,1.375 -0.3153,0.3481 -0.5947,0.7767 -0.9688,1.0625 0,-0.7583 -0.122,-1.5829 -0.5625,-2.2187 C 21.1355,37.4847 20.174,37.0347 19.2188,37 19.0755,36.99 18.9218,36.986 18.7813,37 Z M 13.25,49.2813 c -0.1089,-0.01 -0.2206,0.014 -0.3438,0.031 -1.0258,0.1468 -1.3457,0.9473 -1.1562,1.875 0.2427,1.1872 1.1998,2.0993 2.125,2.8125 2.3705,1.8271 5.421,2.8182 8.4063,2.6875 1.1648,-0.051 2.4309,-0.2558 3.5,-0.75 0.5731,-0.2649 1.1868,-1.2166 0.4062,-1.625 -0.107,-0.056 -0.2558,-0.074 -0.375,-0.094 -0.3409,-0.056 -0.7082,0.095 -1.0312,0.1875 -0.5697,0.1635 -1.1636,0.3121 -1.75,0.4062 -1.7523,0.2814 -3.6431,-0.1181 -5.0938,-1.1562 -1.1727,-0.8396 -2.1046,-1.9434 -3,-3.0625 -0.4796,-0.599 -0.9252,-1.2534 -1.6875,-1.312 z M 12,55.0625 c -0.1551,0 -0.314,0.015 -0.4375,0.031 -0.261,0.034 -0.5577,0.023 -0.7813,0.1875 -0.4662,0.3422 0.036,1.0318 0.2813,1.3437 0.7113,0.9038 1.6591,1.6512 2.5937,2.3125 2.6056,1.843 5.5446,2.9074 8.7188,3.125 0.9126,0.062 1.8474,-0.01 2.75,-0.1562 0.33,-0.055 0.7575,-0.076 1.0625,-0.2188 0.8631,-0.4036 0.6141,-2.0125 -0.1562,-2.375 -0.3364,-0.1581 -0.8973,0.045 -1.25,0.094 -0.8342,0.1163 -1.6611,0.1142 -2.5,0.094 -2.1989,-0.054 -4.553,-0.7126 -6.4688,-1.7812 C 15.0594,57.2985 14.3966,56.7881 13.75,56.219 13.3568,55.8726 12.9475,55.2999 12.4375,55.125 12.3188,55.0843 12.1551,55.0609 12,55.0625 Z M 12.0937,60 c -0.3716,0.042 -0.6618,0.2242 -0.9062,0.5 -0.1684,0.1899 -0.3095,0.3541 -0.4063,0.5938 -0.5333,1.3191 0.8619,2.5645 1.8438,3.1875 1.0927,0.6931 2.315,1.2234 3.5313,1.6562 2.7432,0.9763 5.9323,1.5916 8.7812,0.7188 0.8468,-0.2593 1.6968,-0.7344 2.3125,-1.375 0.3468,-0.361 0.5736,-0.8939 -0.062,-1.125 -0.3769,-0.1368 -0.8144,0.206 -1.1562,0.3437 -0.807,0.3254 -1.6651,0.5827 -2.5313,0.6875 -1.1409,0.1383 -2.1505,-0.1311 -3.25,-0.4062 C 19.3113,64.5464 18.346,64.3073 17.438,63.9688 16.6628,63.6799 15.8967,63.3547 15.2187,62.875 15.0161,62.7317 14.791,62.5929 14.625,62.4063 14.0823,61.7957 13.6756,61.0807 13.0937,60.5 c -0.2514,-0.2509 -0.6152,-0.5429 -1,-0.5 z" />
  <path
     style="fill:#ffffff;fill-opacity:1;stroke:none"
     id="path26"
     inkscape:connector-curvature="0"
     d="m 22.0625,14.0937 c -0.3094,-0.01 -0.6418,-0.01 -0.9375,0.031 -0.9431,0.1239 -1.8961,0.1036 -2.8437,0.25 -1.8154,0.2803 -3.5497,0.851 -5.2501,1.5312 -0.6191,0.2477 -1.2437,0.5222 -1.8437,0.8126 -0.2233,0.108 -0.5392,0.1703 -0.7188,0.3437 -0.093,0.09 -0.082,0.3166 -0.094,0.4375 -0.032,0.34 -0.092,0.6914 -0.125,1.0313 -0.127,1.3113 -0.219,2.658 -0.031,3.9687 0.061,0.4235 0.1983,1.1688 0.7188,1.25 0.8004,0.1253 1.4197,-0.8311 1.8125,-1.375 0.9174,-1.2704 1.9642,-2.4634 3.4688,-3.0312 1.7711,-0.6686 3.8137,-0.8403 5.6875,-0.9688 5.257,-0.3603 11.0024,0.5967 14.875,4.4688 0.5507,0.5506 1.0566,1.1388 1.5,1.7812 1.7339,2.5107 2.6521,5.3764 3.0937,8.375 0.2076,1.4078 0.3524,2.8168 0.031,4.2188 -0.5573,2.4322 -2.0085,4.5726 -3.6875,6.375 -1.1492,1.2335 -2.4666,2.3302 -3.8125,3.3437 -0.7514,0.5657 -1.5748,1.0691 -2.2813,1.6875 -0.8137,0.7123 -1.4856,1.5809 -2,2.5313 -1.3842,2.559 -1.7821,5.6434 -1.375,8.5 0.083,0.5855 0.1798,1.1725 0.3125,1.75 0.04,0.1727 0.044,0.4838 0.1563,0.625 0.2091,0.264 0.7741,0.3907 1.0937,0.4062 0.3333,0.016 0.5433,-0.2324 0.625,-0.5312 0.1399,-0.5122 0.081,-1.0786 0,-1.5938 -0.166,-1.0552 -0.3283,-2.1164 -0.2812,-3.1875 0.087,-1.9776 0.848,-3.8167 2.2187,-5.25 1.3941,-1.4577 3.2908,-2.3101 4.875,-3.5312 3.1929,-2.4611 6.0266,-5.7676 7.125,-9.7188 0.3926,-1.413 0.523,-2.9204 0.3438,-4.375 -0.2266,-1.84 -0.8973,-3.6734 -1.5313,-5.4062 -1.9322,-5.2819 -5.2364,-10.3024 -10.5,-12.7188 -2.089,-0.9589 -4.2693,-1.4038 -6.5312,-1.7188 -1.0608,-0.1476 -2.1196,-0.2344 -3.1875,-0.2812 -0.2966,-0.013 -0.5969,-0.021 -0.9063,-0.031 z M 18.7813,36 c -0.4217,0.041 -0.8164,0.1804 -1.1875,0.4063 -0.6671,0.4062 -1.0409,1.1155 -1.25,1.8437 -0.4153,1.4459 -0.2279,3.1105 0.062,4.5625 0.093,0.4644 0.1822,0.9191 0.3125,1.375 0.047,0.1645 0.08,0.3945 0.1875,0.5313 0.1866,0.2391 0.6267,0.3283 0.9062,0.2812 0.8385,-0.1409 0.6223,-1.538 0.5938,-2.125 -0.067,-1.3751 -0.4551,-2.6948 -0.062,-4.0625 0.1662,-0.5788 0.4779,-1.2486 1.0625,-1.5 0.5276,-0.2272 1.0723,0.047 1.2812,0.5625 0.3383,0.8345 0.2566,1.8192 0.4688,2.6875 0.072,0.2952 0.1481,0.5686 0.2812,0.8438 0.039,0.079 0.076,0.26 0.1875,0.25 0.2717,-0.025 0.6713,-0.4881 0.875,-0.6563 0.6579,-0.5437 1.3363,-1.1289 2.0938,-1.5312 0.3564,-0.1893 0.9484,-0.4782 1.3125,-0.1563 0.093,0.082 0.1523,0.1773 0.2187,0.2813 0.4279,0.6702 0,1.1751 -0.2812,1.8125 -0.3602,0.8249 -0.7283,1.6378 -1.25,2.375 -0.4486,0.6338 -1.0479,1.2137 -1.4063,1.9062 -0.2307,0.4459 -0.3767,0.9343 -0.2812,1.4375 0.077,0.4069 0.3974,0.6267 0.8125,0.5313 0.3106,-0.072 0.5103,-0.3168 0.6875,-0.5625 0.3156,-0.4383 0.6237,-0.9038 0.9375,-1.3438 0.6069,-0.851 1.3333,-1.6476 1.8437,-2.5625 0.6152,-1.1029 0.9069,-2.3375 0.9063,-3.5937 -4e-4,-1.0267 -0.3667,-2.5973 -1.5625,-2.8125 -0.2251,-0.04 -0.4953,-0.039 -0.7188,0 -0.2777,0.048 -0.5587,0.1583 -0.8125,0.2812 -0.6799,0.3289 -1.276,0.8165 -1.7812,1.375 -0.3153,0.3481 -0.5947,0.7767 -0.9688,1.0625 0,-0.7583 -0.122,-1.5829 -0.5625,-2.2187 C 21.1355,36.4847 20.174,36.0347 19.2188,36 19.0755,35.99 18.9218,35.986 18.7813,36 Z M 13.25,48.2813 c -0.1089,-0.01 -0.2206,0.014 -0.3438,0.031 -1.0258,0.1468 -1.3457,0.9473 -1.1562,1.875 0.2427,1.1872 1.1998,2.0993 2.125,2.8125 2.3705,1.8271 5.421,2.8182 8.4063,2.6875 1.1648,-0.051 2.4309,-0.2558 3.5,-0.75 0.5731,-0.2649 1.1868,-1.2166 0.4062,-1.625 -0.107,-0.056 -0.2558,-0.074 -0.375,-0.094 -0.3409,-0.056 -0.7082,0.095 -1.0312,0.1875 -0.5697,0.1635 -1.1636,0.3121 -1.75,0.4062 -1.7523,0.2814 -3.6431,-0.1181 -5.0938,-1.1562 -1.1727,-0.8396 -2.1046,-1.9434 -3,-3.0625 -0.4796,-0.599 -0.9252,-1.2534 -1.6875,-1.312 z M 12,54.0625 c -0.1551,0 -0.314,0.015 -0.4375,0.031 -0.261,0.034 -0.5577,0.023 -0.7813,0.1875 -0.4662,0.3422 0.036,1.0318 0.2813,1.3437 0.7113,0.9038 1.6591,1.6512 2.5937,2.3125 2.6056,1.843 5.5446,2.9074 8.7188,3.125 0.9126,0.062 1.8474,-0.01 2.75,-0.1562 0.33,-0.055 0.7575,-0.076 1.0625,-0.2188 0.8631,-0.4036 0.6141,-2.0125 -0.1562,-2.375 -0.3364,-0.1581 -0.8973,0.045 -1.25,0.094 -0.8342,0.1163 -1.6611,0.1142 -2.5,0.094 -2.1989,-0.054 -4.553,-0.7126 -6.4688,-1.7812 C 15.0594,56.2985 14.3966,55.7881 13.75,55.219 13.3568,54.8726 12.9475,54.2999 12.4375,54.125 12.3188,54.0843 12.1551,54.0609 12,54.0625 Z M 12.0937,59 c -0.3716,0.042 -0.6618,0.2242 -0.9062,0.5 -0.1684,0.1899 -0.3095,0.3541 -0.4063,0.5938 -0.5333,1.3191 0.8619,2.5645 1.8438,3.1875 1.0927,0.6931 2.315,1.2234 3.5313,1.6562 2.7432,0.9763 5.9323,1.5916 8.7812,0.7188 0.8468,-0.2593 1.6968,-0.7344 2.3125,-1.375 0.3468,-0.361 0.5736,-0.8939 -0.062,-1.125 -0.3769,-0.1368 -0.8144,0.206 -1.1562,0.3437 -0.807,0.3254 -1.6651,0.5827 -2.5313,0.6875 -1.1409,0.1383 -2.1505,-0.1311 -3.25,-0.4062 C 19.3113,63.5464 18.346,63.3073 17.438,62.9688 16.6628,62.6799 15.8967,62.3547 15.2187,61.875 15.0161,61.7317 14.791,61.5929 14.625,61.4063 14.0823,60.7957 13.6756,60.0807 13.0937,59.5 c -0.2514,-0.2509 -0.6152,-0.5429 -1,-0.5 z" />
  <path
     style="opacity:0.1;fill:#000000;fill-opacity:1;stroke:none"
     id="path4219"
     inkscape:connector-curvature="0"
     d="m 22.0625,13.0937 c -0.3094,-0.01 -0.6418,-0.01 -0.9375,0.031 -0.9431,0.1239 -1.8961,0.1036 -2.8437,0.25 -1.8154,0.2803 -3.5497,0.851 -5.2501,1.5312 -0.6191,0.2477 -1.2437,0.5222 -1.8437,0.8125 -0.2233,0.1081 -0.5392,0.1704 -0.7188,0.3438 -0.093,0.09 -0.082,0.3166 -0.094,0.4375 -0.032,0.34 -0.092,0.6914 -0.125,1.0313 -0.095,0.9834 -0.1724,1.9755 -0.125,2.9687 0.016,-0.6541 0.062,-1.3233 0.125,-1.9687 0.033,-0.3399 0.093,-0.6913 0.125,-1.0313 0.011,-0.1209 3e-4,-0.3471 0.094,-0.4375 0.1796,-0.1734 0.4955,-0.2357 0.7188,-0.3437 0.6,-0.2904 1.2246,-0.5649 1.8437,-0.8126 1.7004,-0.6802 3.4347,-1.2509 5.2501,-1.5312 0.9476,-0.1464 1.9006,-0.1261 2.8437,-0.25 0.2957,-0.039 0.6281,-0.041 0.9375,-0.031 0.3094,0.01 0.6097,0.018 0.9063,0.031 1.0679,0.047 2.1267,0.1336 3.1875,0.2812 2.2619,0.315 4.4422,0.7599 6.5312,1.7188 5.2636,2.4164 8.5678,7.4369 10.5,12.7188 0.634,1.7328 1.3047,3.5662 1.5313,5.4062 0.031,0.2491 0.018,0.4985 0.031,0.75 0.024,-0.5894 0.041,-1.168 -0.031,-1.75 -0.2266,-1.84 -0.8973,-3.6734 -1.5313,-5.4062 -1.9322,-5.2819 -5.2364,-10.3024 -10.5,-12.7188 -2.089,-0.9589 -4.2693,-1.4038 -6.5312,-1.7188 -1.0608,-0.1476 -2.1196,-0.2344 -3.1875,-0.2812 -0.2966,-0.013 -0.5969,-0.021 -0.9063,-0.031 z m 19.5,21.7813 c -0.021,0.4471 -0.054,0.8978 -0.1562,1.3438 -0.5573,2.4322 -2.0085,4.5726 -3.6875,6.375 -1.1492,1.2335 -2.4666,2.3302 -3.8125,3.3437 -0.7514,0.5657 -1.5748,1.0691 -2.2813,1.6875 -0.8137,0.7123 -1.4856,1.5809 -2,2.5313 -1.1421,2.1113 -1.5989,4.5652 -1.5,6.9687 0.052,-2.0789 0.5163,-4.1502 1.5,-5.9687 0.5144,-0.9504 1.1863,-1.819 2,-2.5313 0.7065,-0.6184 1.5299,-1.1218 2.2813,-1.6875 1.3459,-1.0135 2.6633,-2.1102 3.8125,-3.3437 1.679,-1.8024 3.1302,-3.9428 3.6875,-6.375 0.1795,-0.7837 0.1975,-1.5571 0.1562,-2.3438 z M 18.7813,35 c -0.4217,0.041 -0.8164,0.1804 -1.1875,0.4063 -0.6671,0.4062 -1.0409,1.1155 -1.25,1.8437 -0.1936,0.6741 -0.2365,1.3995 -0.2188,2.125 0.036,-0.3821 0.1149,-0.7635 0.2188,-1.125 0.2091,-0.7282 0.5829,-1.4375 1.25,-1.8437 0.3711,-0.2259 0.7658,-0.3656 1.1875,-0.4063 0.1405,-0.014 0.2942,-0.01 0.4375,0 0.9552,0.035 1.9167,0.4847 2.4687,1.2813 0.4405,0.6358 0.5625,1.4604 0.5625,2.2187 0.3741,-0.2858 0.6535,-0.7144 0.9688,-1.0625 0.5052,-0.5585 1.1013,-1.0461 1.7812,-1.375 0.2538,-0.1229 0.5348,-0.2329 0.8125,-0.2812 0.2235,-0.039 0.4937,-0.04 0.7188,0 1.0298,0.1853 1.4357,1.361 1.5312,2.3437 0.012,-0.1767 0.031,-0.3534 0.031,-0.5312 -4e-4,-1.0267 -0.3667,-2.5973 -1.5625,-2.8125 -0.2251,-0.04 -0.4953,-0.039 -0.7188,0 -0.2777,0.048 -0.5587,0.1583 -0.8125,0.2812 -0.6799,0.3289 -1.276,0.8165 -1.7812,1.375 -0.3153,0.3481 -0.5947,0.7767 -0.9688,1.0625 0,-0.7583 -0.122,-1.5829 -0.5625,-2.2187 C 21.1355,35.4847 20.174,35.0347 19.2188,35 c -0.1433,-0.01 -0.297,-0.014 -0.4375,0 z m 7.375,4.6875 c -0.095,0.226 -0.204,0.4701 -0.3125,0.7188 -0.3602,0.8249 -0.7283,1.6378 -1.25,2.375 -0.4486,0.6338 -1.0479,1.2137 -1.4063,1.9062 -0.2307,0.4459 -0.3767,0.9343 -0.2812,1.4375 0.011,0.058 0.042,0.1065 0.062,0.1563 0.055,-0.2057 0.1193,-0.4017 0.2187,-0.5938 0.3584,-0.6925 0.9577,-1.2724 1.4063,-1.9062 0.5217,-0.7372 0.8898,-1.5501 1.25,-2.375 0.2659,-0.6095 0.6516,-1.0912 0.3125,-1.7188 z m -7.9688,0.1563 c -0.053,1.0126 0.1686,1.9998 0.2188,3.0312 0,0.074 0.024,0.1862 0.031,0.2813 0.061,-0.4552 -0.016,-0.9737 -0.031,-1.2813 -0.034,-0.6876 -0.1625,-1.3585 -0.2188,-2.0312 z M 13.25,47.2813 c -0.1089,-0.01 -0.2206,0.014 -0.3438,0.031 -1.0258,0.1468 -1.3457,0.9473 -1.1562,1.875 0.1438,-0.4594 0.5279,-0.7851 1.1562,-0.875 0.1232,-0.018 0.2349,-0.04 0.3438,-0.031 0.7623,0.059 1.2079,0.713 1.6875,1.3125 0.8954,1.1191 1.8273,2.2229 3,3.0625 1.4507,1.0381 3.3415,1.4376 5.0938,1.1562 0.5864,-0.094 1.1803,-0.2427 1.75,-0.4062 0.323,-0.093 0.6903,-0.2433 1.0312,-0.1875 0.1192,0.02 0.268,0.038 0.375,0.094 0.068,0.035 0.1086,0.082 0.1563,0.125 0.2707,-0.3851 0.3465,-0.8619 -0.1563,-1.125 -0.107,-0.056 -0.2558,-0.074 -0.375,-0.094 -0.3409,-0.056 -0.7082,0.095 -1.0312,0.1875 -0.5697,0.1635 -1.1636,0.3121 -1.75,0.4062 -1.7523,0.2814 -3.6431,-0.1181 -5.0938,-1.1562 -1.1727,-0.8396 -2.1046,-1.9434 -3,-3.0625 C 14.4579,47.9943 14.0123,47.3399 13.25,47.2813 Z M 12,53.0625 c -0.1551,0 -0.314,0.015 -0.4375,0.031 -0.261,0.034 -0.5577,0.023 -0.7813,0.1875 -0.3302,0.2423 -0.1748,0.6666 0.031,1 0.2207,-0.1476 0.4977,-0.1543 0.75,-0.1875 0.1235,-0.016 0.2824,-0.03 0.4375,-0.031 0.1551,0 0.3188,0.022 0.4375,0.062 0.51,0.1749 0.9193,0.7476 1.3125,1.0938 0.6466,0.5691 1.3094,1.0795 2.0625,1.5 1.9158,1.0686 4.2699,1.7274 6.4688,1.7812 0.8389,0.02 1.6658,0.023 2.5,-0.094 0.3527,-0.049 0.9136,-0.2519 1.25,-0.094 0.2816,0.1325 0.5115,0.4354 0.625,0.7813 0.1988,-0.6375 -0.074,-1.522 -0.625,-1.7813 -0.3364,-0.1581 -0.8973,0.045 -1.25,0.094 -0.8342,0.1163 -1.6611,0.1142 -2.5,0.094 -2.1989,-0.054 -4.553,-0.7126 -6.4688,-1.7812 -0.7531,-0.4205 -1.4159,-0.9309 -2.0625,-1.5 C 13.3568,53.8726 12.9475,53.2999 12.4375,53.125 12.3188,53.0843 12.1551,53.0609 12,53.0625 Z m 18.1563,4.0625 c -0.047,1.0711 0.1152,2.1323 0.2812,3.1875 0.017,0.1087 0.018,0.2315 0.031,0.3438 0.07,-0.4457 0.037,-0.9076 -0.031,-1.3438 -0.1146,-0.7285 -0.2378,-1.452 -0.2812,-2.1875 z M 12.0937,58 c -0.3716,0.042 -0.6618,0.2242 -0.9062,0.5 -0.1684,0.1899 -0.3095,0.3541 -0.4063,0.5938 -0.1506,0.3726 -0.1356,0.7452 -0.031,1.0937 0.011,-0.031 0.018,-0.062 0.031,-0.094 0.097,-0.2397 0.2379,-0.4039 0.4063,-0.5938 0.2444,-0.2758 0.5346,-0.4584 0.9062,-0.5 0.3848,-0.043 0.7486,0.2491 1,0.5 0.5819,0.5807 0.9886,1.2957 1.5313,1.9063 0.166,0.1866 0.3911,0.3254 0.5937,0.4687 0.678,0.4797 1.4441,0.8049 2.2188,1.0938 0.908,0.3385 1.8733,0.5776 2.8125,0.8125 1.0995,0.2751 2.1091,0.5445 3.25,0.4062 0.8662,-0.1048 1.7243,-0.3621 2.5313,-0.6875 0.3418,-0.1377 0.7793,-0.4805 1.1562,-0.3437 0.053,0.019 0.084,0.039 0.125,0.062 0.309,-0.357 0.472,-0.8457 -0.125,-1.0625 -0.3769,-0.1368 -0.8144,0.206 -1.1562,0.3437 -0.807,0.3254 -1.6651,0.5827 -2.5313,0.6875 C 22.3591,63.325 21.3495,63.0556 20.25,62.7805 19.3108,62.5456 18.3455,62.3065 17.4375,61.968 16.6628,61.6799 15.8967,61.3547 15.2187,60.875 15.0161,60.7317 14.791,60.5929 14.625,60.4063 14.0823,59.7957 13.6756,59.0807 13.0937,58.5 c -0.2514,-0.2509 -0.6152,-0.5429 -1,-0.5 z" />
</svg>
