<?xml version="1.0" encoding="UTF-8" standalone="no"?>
<!-- Created with Inkscape (http://www.inkscape.org/) -->

<svg
   xmlns:dc="http://purl.org/dc/elements/1.1/"
   xmlns:cc="http://creativecommons.org/ns#"
   xmlns:rdf="http://www.w3.org/1999/02/22-rdf-syntax-ns#"
   xmlns:svg="http://www.w3.org/2000/svg"
   xmlns="http://www.w3.org/2000/svg"
   xmlns:xlink="http://www.w3.org/1999/xlink"
   xmlns:sodipodi="http://sodipodi.sourceforge.net/DTD/sodipodi-0.dtd"
   xmlns:inkscape="http://www.inkscape.org/namespaces/inkscape"
   sodipodi:docname="gnome-documents.svg"
   inkscape:version="0.91 r"
   style="display:inline"
   id="svg2408"
   height="96"
   width="96"
   version="1.0">
  <sodipodi:namedview
     inkscape:current-layer="g14377"
     inkscape:window-maximized="1"
     inkscape:window-y="0"
     inkscape:window-x="1280"
     inkscape:cy="32.8074"
     inkscape:cx="125.306"
     inkscape:zoom="4.0001"
     showgrid="false"
     id="namedview207"
     inkscape:window-height="992"
     inkscape:window-width="1280"
     inkscape:pageshadow="2"
     inkscape:pageopacity="0"
     guidetolerance="10"
     gridtolerance="10"
     objecttolerance="10"
     borderopacity="1"
     bordercolor="#666666"
     pagecolor="#ffffff" />
  <defs
     id="defs2410">
    <linearGradient
       id="linearGradient6791">
      <stop
         offset="0"
         style="stop-color:#000000;stop-opacity:1"
         id="stop6793" />
      <stop
         offset="1"
         style="stop-color:#000000;stop-opacity:0"
         id="stop6795" />
    </linearGradient>
    <linearGradient
       id="linearGradient6739">
      <stop
         offset="0"
         style="stop-color:#ebebeb;stop-opacity:1"
         id="stop6741" />
      <stop
         offset="1"
         style="stop-color:#fafafa;stop-opacity:1"
         id="stop6743" />
    </linearGradient>
    <linearGradient
       gradientTransform="scale(1.0058652,0.994169)"
       gradientUnits="userSpaceOnUse"
       id="ButtonShadow"
       y2="7.0165396"
       x2="45.447727"
       y1="92.539597"
       x1="45.447727">
      <stop
         offset="0"
         style="stop-color:#000000;stop-opacity:1"
         id="stop3750" />
      <stop
         offset="1"
         style="stop-color:#000000;stop-opacity:0.58823532"
         id="stop3752" />
    </linearGradient>
    <linearGradient
       id="linearGradient3700">
      <stop
         offset="0"
         style="stop-color:#e6e6e6;stop-opacity:1"
         id="stop3702" />
      <stop
         offset="1"
         style="stop-color:#f5f5f5;stop-opacity:1"
         id="stop3704" />
    </linearGradient>
    <linearGradient
       gradientUnits="userSpaceOnUse"
       xlink:href="#linearGradient3700"
       id="linearGradient3706"
       y2="5.9877172"
       x2="48"
       y1="90"
       x1="48" />
    <filter
       id="filter3174"
       color-interpolation-filters="sRGB">
      <feGaussianBlur
         stdDeviation="1.71"
         id="feGaussianBlur3176" />
    </filter>
    <linearGradient
       gradientTransform="matrix(1.0058652,0,0,0.994169,100,0)"
       gradientUnits="userSpaceOnUse"
       id="ButtonShadow-0"
       y2="7.0165396"
       x2="45.447727"
       y1="92.539597"
       x1="45.447727">
      <stop
         offset="0"
         style="stop-color:#000000;stop-opacity:1"
         id="stop3750-8" />
      <stop
         offset="1"
         style="stop-color:#000000;stop-opacity:0.58823532"
         id="stop3752-5" />
    </linearGradient>
    <linearGradient
       gradientTransform="matrix(1.0238095,0,0,1.0119048,-1.1428571,-98.071429)"
       gradientUnits="userSpaceOnUse"
       xlink:href="#ButtonShadow-0"
       id="linearGradient3780"
       y2="90.238609"
       x2="32.251034"
       y1="6.1317081"
       x1="32.251034" />
    <linearGradient
       gradientTransform="matrix(1.0238095,0,0,1.0119048,-1.1428571,-98.071429)"
       gradientUnits="userSpaceOnUse"
       xlink:href="#ButtonShadow-0"
       id="linearGradient3772"
       y2="90.238609"
       x2="32.251034"
       y1="6.1317081"
       x1="32.251034" />
    <linearGradient
       gradientTransform="matrix(1.0238095,0,0,1.0119048,-1.1428571,-98.071429)"
       gradientUnits="userSpaceOnUse"
       xlink:href="#ButtonShadow-0"
       id="linearGradient3725"
       y2="90.238609"
       x2="32.251034"
       y1="6.1317081"
       x1="32.251034" />
    <linearGradient
       gradientTransform="translate(0,-97)"
       gradientUnits="userSpaceOnUse"
       xlink:href="#ButtonShadow-0"
       id="linearGradient3721"
       y2="90.238609"
       x2="32.251034"
       y1="6.1317081"
       x1="32.251034" />
    <linearGradient
       gradientTransform="matrix(1.0238095,0,0,1.0119048,-1.1428571,-98.071429)"
       gradientUnits="userSpaceOnUse"
       xlink:href="#ButtonShadow-0"
       id="linearGradient3760"
       y2="90.238609"
       x2="32.251034"
       y1="6.1317081"
       x1="32.251034" />
    <linearGradient
       id="linearGradient3737-1">
      <stop
         offset="0"
         style="stop-color:#ffffff;stop-opacity:1"
         id="stop3739-9" />
      <stop
         offset="1"
         style="stop-color:#ffffff;stop-opacity:0"
         id="stop3741-3" />
    </linearGradient>
    <radialGradient
       gradientTransform="matrix(1.157,0,0,0.9959,-7.551,0.1971)"
       gradientUnits="userSpaceOnUse"
       xlink:href="#linearGradient3737-0"
       id="radialGradient2886"
       fy="90.171875"
       fx="48"
       r="42"
       cy="90.171875"
       cx="48" />
    <linearGradient
       id="linearGradient3737-0">
      <stop
         offset="0"
         style="stop-color:#ffffff;stop-opacity:1"
         id="stop3739-6" />
      <stop
         offset="1"
         style="stop-color:#ffffff;stop-opacity:0"
         id="stop3741-0" />
    </linearGradient>
    <linearGradient
       gradientUnits="userSpaceOnUse"
       xlink:href="#linearGradient3737-1"
       id="linearGradient3923"
       y2="63.893143"
       x2="36.357143"
       y1="6"
       x1="36.357143" />
    <linearGradient
       id="linearGradient3737-9">
      <stop
         offset="0"
         style="stop-color:#ffffff;stop-opacity:1"
         id="stop3739-2" />
      <stop
         offset="1"
         style="stop-color:#ffffff;stop-opacity:0"
         id="stop3741-1" />
    </linearGradient>
    <clipPath
       id="clipPath3613">
      <rect
         style="fill:#ffffff;fill-opacity:1;fill-rule:nonzero;stroke:none"
         id="rect3615"
         y="6"
         x="6"
         ry="6"
         rx="6"
         height="84"
         width="84" />
    </clipPath>
    <filter
       id="filter3794"
       color-interpolation-filters="sRGB"
       height="1.3839999"
       width="1.3839999"
       y="-0.192"
       x="-0.192">
      <feGaussianBlur
         stdDeviation="5.28"
         id="feGaussianBlur3796" />
    </filter>
    <linearGradient
       gradientUnits="userSpaceOnUse"
       xlink:href="#linearGradient3737-9"
       id="linearGradient2890"
       y2="138.66119"
       x2="48"
       y1="20.220806"
       x1="48" />
    <linearGradient
       id="linearGradient6083">
      <stop
         offset="0"
         style="stop-color:#d5d5d5;stop-opacity:1"
         id="stop6085" />
      <stop
         offset="1"
         style="stop-color:#e3e3e3;stop-opacity:1"
         id="stop6087" />
    </linearGradient>
    <linearGradient
       id="linearGradient3737-0-7">
      <stop
         offset="0"
         style="stop-color:#ffffff;stop-opacity:1"
         id="stop3739-6-4" />
      <stop
         offset="1"
         style="stop-color:#ffffff;stop-opacity:0"
         id="stop3741-0-2" />
    </linearGradient>
    <linearGradient
       id="linearGradient3737-1-2">
      <stop
         offset="0"
         style="stop-color:#ffffff;stop-opacity:1"
         id="stop3739-9-4" />
      <stop
         offset="1"
         style="stop-color:#ffffff;stop-opacity:0"
         id="stop3741-3-4" />
    </linearGradient>
    <linearGradient
       id="linearGradient3700-8">
      <stop
         offset="0"
         style="stop-color:#e6e6e6;stop-opacity:1"
         id="stop3702-6" />
      <stop
         offset="1"
         style="stop-color:#f5f5f5;stop-opacity:1"
         id="stop3704-0" />
    </linearGradient>
    <linearGradient
       gradientUnits="userSpaceOnUse"
       xlink:href="#linearGradient3700-8"
       id="linearGradient6193"
       y2="5.9877172"
       x2="48"
       y1="90"
       x1="48" />
    <linearGradient
       gradientUnits="userSpaceOnUse"
       xlink:href="#linearGradient3737-1-2"
       id="linearGradient6195"
       y2="63.893143"
       x2="36.357143"
       y1="6"
       x1="36.357143" />
    <radialGradient
       gradientTransform="matrix(1.157,0,0,0.9959,-7.551,0.1971)"
       gradientUnits="userSpaceOnUse"
       xlink:href="#linearGradient3737-0-7"
       id="radialGradient6197"
       fy="90.171875"
       fx="48"
       r="42"
       cy="90.171875"
       cx="48" />
    <linearGradient
       gradientTransform="translate(-19,0)"
       gradientUnits="userSpaceOnUse"
       xlink:href="#linearGradient6083"
       id="linearGradient6199"
       y2="16"
       x2="56"
       y1="80"
       x1="56" />
    <linearGradient
       id="linearGradient3737-0-4">
      <stop
         offset="0"
         style="stop-color:#ffffff;stop-opacity:1"
         id="stop3739-6-9" />
      <stop
         offset="1"
         style="stop-color:#ffffff;stop-opacity:0"
         id="stop3741-0-8" />
    </linearGradient>
    <linearGradient
       id="linearGradient3737-1-22">
      <stop
         offset="0"
         style="stop-color:#ffffff;stop-opacity:1"
         id="stop3739-9-5" />
      <stop
         offset="1"
         style="stop-color:#ffffff;stop-opacity:0"
         id="stop3741-3-2" />
    </linearGradient>
    <linearGradient
       id="linearGradient3700-7">
      <stop
         offset="0"
         style="stop-color:#e6e6e6;stop-opacity:1"
         id="stop3702-3" />
      <stop
         offset="1"
         style="stop-color:#f5f5f5;stop-opacity:1"
         id="stop3704-90" />
    </linearGradient>
    <linearGradient
       id="linearGradient6687-4">
      <stop
         offset="0"
         style="stop-color:#ffffff;stop-opacity:1"
         id="stop6689-7" />
      <stop
         offset="1"
         style="stop-color:#ffffff;stop-opacity:0"
         id="stop6691-6" />
    </linearGradient>
    <linearGradient
       id="linearGradient6719-4">
      <stop
         offset="0"
         style="stop-color:#8cab2a;stop-opacity:1"
         id="stop6721-4" />
      <stop
         offset="1"
         style="stop-color:#d7e866;stop-opacity:1"
         id="stop6723-4" />
    </linearGradient>
    <linearGradient
       id="linearGradient6711-3">
      <stop
         offset="0"
         style="stop-color:#8badea;stop-opacity:1"
         id="stop6713-9" />
      <stop
         offset="1"
         style="stop-color:#3b7caf;stop-opacity:1"
         id="stop6715-2" />
    </linearGradient>
    <linearGradient
       id="linearGradient6699-3">
      <stop
         offset="0"
         style="stop-color:#f7a164;stop-opacity:1"
         id="stop6701-7" />
      <stop
         offset="1"
         style="stop-color:#e11c26;stop-opacity:1"
         id="stop6295" />
    </linearGradient>
    <linearGradient
       gradientUnits="userSpaceOnUse"
       xlink:href="#linearGradient3700-7"
       id="linearGradient6520"
       y2="5.9877172"
       x2="48"
       y1="90"
       x1="48" />
    <linearGradient
       gradientUnits="userSpaceOnUse"
       xlink:href="#linearGradient3737-1-22"
       id="linearGradient6522"
       y2="63.893143"
       x2="36.357143"
       y1="6"
       x1="36.357143" />
    <radialGradient
       gradientTransform="matrix(1.157,0,0,0.9959,-7.551,0.1971)"
       gradientUnits="userSpaceOnUse"
       xlink:href="#linearGradient3737-0-4"
       id="radialGradient6524"
       fy="90.171875"
       fx="48"
       r="42"
       cy="90.171875"
       cx="48" />
    <linearGradient
       gradientTransform="matrix(2.344,0,0,2.346,91.68,-10.01)"
       gradientUnits="userSpaceOnUse"
       xlink:href="#linearGradient6699-3"
       id="linearGradient6526"
       y2="30.013348"
       x2="-15.630386"
       y1="14.381306"
       x1="-26.43412" />
    <linearGradient
       gradientTransform="matrix(2.344,0,0,2.346,91.68,-10.01)"
       gradientUnits="userSpaceOnUse"
       xlink:href="#linearGradient6711-3"
       id="linearGradient6528"
       y2="30.070206"
       x2="-8.7596264"
       y1="21.99547"
       x1="-19.536037" />
    <linearGradient
       gradientTransform="matrix(2.344,0,0,2.346,91.68,-10.01)"
       gradientUnits="userSpaceOnUse"
       xlink:href="#linearGradient6719-4"
       id="linearGradient6530"
       y2="25.015009"
       x2="-20.821646"
       y1="30.827509"
       x1="-17.863041" />
    <linearGradient
       gradientUnits="userSpaceOnUse"
       xlink:href="#linearGradient6687-4"
       id="linearGradient6532"
       y2="18.75"
       x2="-19.5"
       y1="29"
       x1="-20.75" />
    <linearGradient
       gradientTransform="matrix(0.8458416,0,0,1.0765258,-1.4962477,-3.0220357)"
       gradientUnits="userSpaceOnUse"
       id="StandardGradient-7"
       y2="16.759111"
       x2="12.80275"
       y1="3.7361259"
       x1="12.80275">
      <stop
         offset="0"
         style="stop-color:#000000;stop-opacity:0.86274511"
         id="stop3337" />
      <stop
         offset="1"
         style="stop-color:#000000;stop-opacity:0.47058824"
         id="stop3339" />
    </linearGradient>
    <linearGradient
       gradientTransform="matrix(-0.6458,0.6458,-0.8235,-0.8235,1.665,14.39)"
       gradientUnits="userSpaceOnUse"
       xlink:href="#StandardGradient-7"
       id="linearGradient6719"
       y2="23.23851"
       x2="12.80275"
       y1="6.5211606"
       x1="12.80275" />
    <linearGradient
       gradientUnits="userSpaceOnUse"
       xlink:href="#linearGradient6739"
       id="linearGradient6745"
       y2="2"
       x2="22"
       y1="22"
       x1="22" />
    <linearGradient
       gradientTransform="translate(-23,13)"
       gradientUnits="userSpaceOnUse"
       xlink:href="#linearGradient6791"
       id="linearGradient6797"
       y2="5"
       x2="19"
       y1="5"
       x1="17" />
  </defs>
  <metadata
     id="metadata2413">
    <rdf:RDF>
      <cc:Work
         rdf:about="">
        <dc:format>image/svg+xml</dc:format>
        <dc:type
           rdf:resource="http://purl.org/dc/dcmitype/StillImage" />
        <dc:title />
      </cc:Work>
    </rdf:RDF>
  </metadata>
  <g
     style="display:none"
     id="layer2">
    <rect
       style="opacity:0.9;fill:url(#ButtonShadow);fill-opacity:1;fill-rule:nonzero;stroke:none;filter:url(#filter3174)"
       id="rect3745"
       y="7"
       x="5"
       ry="6"
       rx="6"
       height="85"
       width="86" />
  </g>
  <g
     style="display:inline"
     id="layer6">
    <path
       style="opacity:0.07999998;fill:url(#linearGradient3760);fill-opacity:1;fill-rule:nonzero;stroke:none;display:inline"
       id="path3786"
       transform="scale(1,-1)"
       d="m 12,-95.03125 c -5.5110903,0 -10.03125,4.52016 -10.03125,10.03125 l 0,71 c 0,5.5110902 4.5201598,10.03125 10.03125,10.03125 l 72,0 c 5.51109,0 10.03125,-4.5201597 10.03125,-10.03125 l 0,-71 c 0,-5.51109 -4.52016,-10.03125 -10.03125,-10.03125 l -72,0 z" />
    <path
       style="opacity:0.1;fill:url(#linearGradient3780);fill-opacity:1;fill-rule:nonzero;stroke:none;display:inline"
       id="path3778"
       transform="scale(1,-1)"
       d="m 12,-94.03125 c -4.971633,0 -9.03125,4.059617 -9.03125,9.03125 l 0,71 c 0,4.9716329 4.0596171,9.03125 9.03125,9.03125 l 72,0 c 4.971633,0 9.03125,-4.059617 9.03125,-9.03125 l 0,-71 c 0,-4.971633 -4.059617,-9.03125 -9.03125,-9.03125 l -72,0 z" />
    <path
       style="opacity:0.2;fill:url(#linearGradient3772);fill-opacity:1;fill-rule:nonzero;stroke:none;display:inline"
       id="path3770"
       transform="scale(1,-1)"
       d="m 12,-93 c -4.4091333,0 -8,3.590867 -8,8 l 0,71 c 0,4.4091333 3.5908667,8 8,8 l 72,0 c 4.409133,0 8,-3.5908667 8,-8 l 0,-71 c 0,-4.409133 -3.590867,-8 -8,-8 l -72,0 z" />
    <rect
       style="opacity:0.3;fill:url(#linearGradient3725);fill-opacity:1;fill-rule:nonzero;stroke:none;display:inline"
       id="rect3723"
       transform="scale(1,-1)"
       y="-92"
       x="5"
       ry="7"
       rx="7"
       height="85"
       width="86" />
    <rect
       style="opacity:0.45;fill:url(#linearGradient3721);fill-opacity:1;fill-rule:nonzero;stroke:none;display:inline"
       id="rect3716"
       transform="scale(1,-1)"
       y="-91"
       x="6"
       ry="6"
       rx="6"
       height="84"
       width="84" />
  </g>
  <path
     d="M 12,6 C 8.676,6 6,8.676 6,12 l 0,2 0,68 0,2 c 0,0.33 0.04,0.65 0.09,0.97 0.05,0.29 0.1,0.6 0.187,0.87 0.01,0 0.02,0.1 0.03,0.1 0.1,0.29 0.235,0.54 0.375,0.81 0.145,0.27 0.316,0.54 0.5,0.78 0.185,0.25 0.374,0.47 0.594,0.69 0.44,0.43 0.943,0.81 1.5,1.09 0.279,0.14 0.574,0.25 0.884,0.35 -0.265,-0.1 -0.495,-0.24 -0.727,-0.38 0,0 -0.02,0 -0.03,0 -0.03,0 -0.06,0 -0.09,-0.1 C 9.192,89.14 9.081,89.06 8.969,88.97 8.863,88.89 8.755,88.81 8.656,88.72 8.478,88.56 8.309,88.37 8.156,88.19 8.049,88.06 7.938,87.92 7.844,87.78 7.819,87.74 7.805,87.7 7.781,87.66 7.716,87.55 7.651,87.45 7.594,87.34 7.493,87.15 7.388,86.93 7.312,86.72 c 0,0 -0.02,0 -0.03,-0.1 -0.03,-0.1 -0.04,-0.19 -0.06,-0.29 -0.03,-0.1 -0.07,-0.2 -0.09,-0.31 C 7.052,85.72 7,85.36 7,85 L 7,83 7,15 7,13 C 7,10.22 9.218,8 12,8 l 2,0 68,0 2,0 c 2.78,0 5,2.22 5,5 l 0,2 0,68 0,2 c 0,0.36 0,0.72 -0.13,1.06 0,0.21 -0.1,0.4 -0.15,0.6 0,0 0,0 0,0.1 -0.1,0.17 -0.14,0.37 -0.22,0.53 0,0.1 -0.1,0.17 -0.13,0.25 0,0.1 -0.12,0.19 -0.18,0.28 -0.1,0.14 -0.21,0.28 -0.32,0.41 -0.14,0.17 -0.3,0.34 -0.47,0.5 0,0 0,0 0,0 -0.13,0.12 -0.28,0.23 -0.43,0.34 -0.11,0.1 -0.21,0.16 -0.32,0.22 0,0 0,0 0,0 -0.23,0.14 -0.46,0.28 -0.72,0.38 0.31,-0.1 0.6,-0.21 0.88,-0.35 0.56,-0.28 1.06,-0.66 1.5,-1.09 0.22,-0.22 0.41,-0.44 0.59,-0.69 0.19,-0.24 0.36,-0.51 0.5,-0.78 0.14,-0.27 0.28,-0.52 0.38,-0.81 0,0 0,-0.1 0,-0.1 0.1,-0.27 0.14,-0.58 0.19,-0.87 0,-0.32 0.1,-0.64 0.1,-0.97 l 0,-2 0,-68 0,-2 C 90,8.676 87.32,6 84,6 L 12,6 Z"
     inkscape:connector-curvature="0"
     id="rect3728"
     style="display:inline;opacity:0.5;fill:url(#linearGradient3923);fill-opacity:1;fill-rule:nonzero;stroke:none" />
  <rect
     width="84"
     height="84"
     rx="6"
     ry="6"
     x="6"
     y="6"
     id="rect2419"
     style="fill:url(#linearGradient3706);fill-opacity:1;fill-rule:nonzero;stroke:none" />
  <path
     inkscape:connector-curvature="0"
     id="path3615"
     d="M 12,90 C 8.115,90.14 5.419,86.21 6,82.58 6.018,58.89 5.965,35.2 6.026,11.51 5.276,9.167 10.54,5.7 9.318,6.779 6.067,8.801 7.209,12.9 7,16.08 c 0.02,22.48 -0.03,44.96 0.03,67.43 0.212,3.3 3.674,4.95 6.634,4.49 23.62,-0 47.24,0 70.85,-0 3.3,-0.21 4.95,-3.67 4.49,-6.63 -0,-23.63 0,-47.25 -0,-70.88 0.65,-2.201 -4.96,-5.344 -1.46,-3.282 3.5,2.486 2.21,6.982 2.46,10.612 -0,22.28 0,44.55 -0,66.82 C 89.69,88.39 85.79,90.52 82.32,90 58.89,90 35.36,90 12,90 Z"
     style="display:inline;opacity:0.4;fill:url(#radialGradient2886);fill-opacity:1;fill-rule:nonzero;stroke:none" />
  <g
     transform="translate(44.96,10.86)"
     id="flowRoot4520"
     style="font-style:normal;font-variant:normal;font-weight:normal;font-stretch:normal;font-size:3px;line-height:133%;font-family:'Liberation Serif';-inkscape-font-specification:'Liberation Serif';text-align:justify;writing-mode:lr-tb;text-anchor:start;display:inline" />
  <g
     style="display:none"
     id="layer3">
    <rect
       style="opacity:0.5;fill:url(#linearGradient2890);fill-opacity:1;fill-rule:nonzero;stroke:#ffffff;stroke-width:0.5;stroke-linecap:round;stroke-linejoin:miter;stroke-miterlimit:4;stroke-opacity:1;stroke-dasharray:none;stroke-dashoffset:0;filter:url(#filter3794)"
       id="rect3171"
       clip-path="url(#clipPath3613)"
       y="15"
       x="15"
       ry="12"
       rx="12"
       height="66"
       width="66" />
  </g>
  <g
     id="g14377"
     inkscape:label="lorem ipsum"
     inkscape:groupmode="layer" />
  <g
     style="display:inline"
     id="layer4">
    <path
       style="display:inline;opacity:0.05;fill:#000000;fill-opacity:1;fill-rule:nonzero;stroke:none"
       id="path6324"
       transform="matrix(0.9914,-0.1305,0.1305,0.9914,0,0)"
       d="m 10.69,13.03 c -3.372,0 -6.128,2.76 -6.128,6.13 l 0,49.71 c 0,3.37 2.742,6.16 6.128,6.16 l 49.75,0 c 3.38,0 6.12,-2.79 6.12,-6.16 l 0,-49.71 c 0,-3.37 -2.75,-6.13 -6.12,-6.13 l -49.75,0 z"
       inkscape:connector-curvature="0" />
    <path
       style="display:inline;opacity:0.15;fill:#000000;fill-opacity:1;fill-rule:nonzero;stroke:none"
       id="path6320"
       transform="matrix(0.9914,-0.1305,0.1305,0.9914,0,0)"
       d="m 10.69,14.19 c -2.747,0 -4.971,2.22 -4.971,4.97 l 0,49.71 c 0,2.75 2.216,5 4.971,5 l 49.75,0 c 2.75,0 4.97,-2.25 4.97,-5 l 0,-49.71 c 0,-2.75 -2.23,-4.97 -4.97,-4.97 l -49.75,0 z"
       inkscape:connector-curvature="0" />
    <rect
       style="display:inline;opacity:0.3;fill:#000000;fill-opacity:1;fill-rule:nonzero;stroke:none"
       id="rect6203"
       transform="matrix(0.9914,-0.1305,0.1305,0.9914,0,0)"
       y="15.02"
       x="6.558"
       ry="4.143"
       rx="4.143"
       height="58.01"
       width="58.01" />
    <g
       id="g6158"
       transform="matrix(0.6847,-0.0901,0.0901,0.6847,3.814,9.467)">
      <rect
         style="display:inline;fill:url(#linearGradient6193);fill-opacity:1;fill-rule:nonzero;stroke:none"
         id="rect2419-8"
         y="6"
         x="6"
         ry="6"
         rx="6"
         height="84"
         width="84" />
      <path
         style="display:inline;opacity:0.5;fill:url(#linearGradient6195);fill-opacity:1;fill-rule:nonzero;stroke:none"
         id="rect3728-9"
         inkscape:connector-curvature="0"
         d="M 12,6 C 8.676,6 6,8.676 6,12 l 0,2 0,68 0,2 c 0,0.33 0.04,0.65 0.09,0.97 0.05,0.29 0.1,0.6 0.187,0.87 0.01,0 0.02,0.1 0.03,0.1 0.1,0.29 0.235,0.54 0.375,0.81 0.145,0.27 0.316,0.54 0.5,0.78 0.185,0.25 0.374,0.47 0.594,0.69 0.44,0.43 0.943,0.81 1.5,1.09 0.279,0.14 0.574,0.25 0.884,0.35 -0.265,-0.1 -0.495,-0.24 -0.727,-0.38 0,0 -0.02,0 -0.03,0 -0.03,0 -0.06,0 -0.09,-0.1 C 9.192,89.14 9.081,89.06 8.969,88.97 8.863,88.89 8.755,88.81 8.656,88.72 8.478,88.56 8.309,88.37 8.156,88.19 8.049,88.06 7.938,87.92 7.844,87.78 7.819,87.74 7.805,87.7 7.781,87.66 7.716,87.55 7.651,87.45 7.594,87.34 7.493,87.15 7.388,86.93 7.312,86.72 c 0,0 -0.02,0 -0.03,-0.1 -0.03,-0.1 -0.04,-0.19 -0.06,-0.29 -0.03,-0.1 -0.07,-0.2 -0.09,-0.31 C 7.052,85.72 7,85.36 7,85 L 7,83 7,15 7,13 C 7,10.22 9.218,8 12,8 l 2,0 68,0 2,0 c 2.78,0 5,2.22 5,5 l 0,2 0,68 0,2 c 0,0.36 0,0.72 -0.13,1.06 0,0.21 -0.1,0.4 -0.15,0.6 0,0 0,0 0,0.1 -0.1,0.17 -0.14,0.37 -0.22,0.53 0,0.1 -0.1,0.17 -0.13,0.25 0,0.1 -0.12,0.19 -0.18,0.28 -0.1,0.14 -0.21,0.28 -0.32,0.41 -0.14,0.17 -0.3,0.34 -0.47,0.5 0,0 0,0 0,0 -0.13,0.12 -0.28,0.23 -0.43,0.34 -0.11,0.1 -0.21,0.16 -0.32,0.22 0,0 0,0 0,0 -0.23,0.14 -0.46,0.28 -0.72,0.38 0.31,-0.1 0.6,-0.21 0.88,-0.35 0.56,-0.28 1.06,-0.66 1.5,-1.09 0.22,-0.22 0.41,-0.44 0.59,-0.69 0.19,-0.24 0.36,-0.51 0.5,-0.78 0.14,-0.27 0.28,-0.52 0.38,-0.81 0,0 0,-0.1 0,-0.1 0.1,-0.27 0.14,-0.58 0.19,-0.87 0,-0.32 0.1,-0.64 0.1,-0.97 l 0,-2 0,-68 0,-2 C 90,8.676 87.32,6 84,6 L 12,6 Z" />
      <path
         inkscape:connector-curvature="0"
         id="path3615-2"
         d="M 12,90 C 8.033,90.14 5.391,86.1 6,82.43 6,58.95 6,35.48 6,12 4.994,9.492 10.4,5.696 9.312,6.781 5.922,8.963 7.279,13.32 7,16.67 7,38.78 7,60.89 7,83 c -0.114,4.26 4.37,5.41 7.79,5 23.07,0 46.14,0 69.21,0 4.26,0.11 5.41,-4.37 5,-7.79 0,-23.25 0,-46.5 0,-69.75 0.2,-2.655 -5.4,-5.711 -0.78,-2.679 2.79,2.879 1.47,7.099 1.78,10.679 0,22.05 0,44.1 0,66.16 C 89.71,88.48 85.68,90.54 82.16,90 58.78,90 35.39,90 12,90 Z"
         style="display:inline;opacity:0.4;fill:url(#radialGradient6197);fill-opacity:1;fill-rule:nonzero;stroke:none" />
      <path
         style="color:#000000;display:inline;overflow:visible;visibility:visible;fill:url(#linearGradient6199);fill-opacity:1;fill-rule:nonzero;stroke:none;stroke-width:1;marker:none;enable-background:accumulate"
         id="rect6070"
         inkscape:connector-curvature="0"
         d="m 14,16 0,7 0,57 8,0 0,-56 61.99,-0.61 0,-8 L 21,16 Z" />
      <rect
         style="color:#000000;display:inline;overflow:visible;visibility:visible;opacity:0.5;fill:#80d818;fill-opacity:1;fill-rule:nonzero;stroke:none;stroke-width:1;marker:none;enable-background:accumulate"
         id="rect6095"
         y="38.96"
         x="62.91"
         height="9"
         width="21" />
      <rect
         style="color:#000000;display:inline;overflow:visible;visibility:visible;opacity:0.2;fill:#80d818;fill-opacity:1;fill-rule:nonzero;stroke:none;stroke-width:1;marker:none;enable-background:accumulate"
         id="rect6097"
         y="23.96"
         x="62.91"
         height="15"
         width="21" />
      <rect
         style="color:#000000;display:inline;overflow:visible;visibility:visible;opacity:0.2;fill:#80d818;fill-opacity:1;fill-rule:nonzero;stroke:none;stroke-width:1;marker:none;enable-background:accumulate"
         id="rect6099"
         y="39"
         x="22"
         height="9"
         width="19" />
      <path
         style="color:#000000;display:inline;overflow:visible;visibility:visible;opacity:0.2;fill:#000000;stroke:none;stroke-width:1;marker:none;enable-background:accumulate"
         id="rect6029"
         inkscape:connector-curvature="0"
         d="m 21,15 0,8 -8,0 0,1 8,0 0,7 -8,0 0,1 8,0 0,7 -8,0 0,1 8,0 0,7 -8,0 0,1 8,0 0,7 -8,0 0,1 8,0 0,7 -8,0 0,1 8,0 0,7 -8,0 0,1 8,0 0,9 1,0 0,-9 19,0 0,9 1,0 0,-9 21,0 0,-1 -21,0 0,-7 21,0 0,-1 -21,0 0,-7 21,0 0,-1 -21,0 0,-7 21,0 0,-1 -21,0 0,-7 21,0 0,-1 -21,0 0,-7 21,0 0,-1 -21,0 0,-7 21,0 0,-1 -21,0 0,-8 -1,0 0,8 -19,0 0,-8 -1,0 z m 1,9 19,0 0,7 -19,0 0,-7 z m 0,8 19,0 0,7 -19,0 0,-7 z m 0,8 19,0 0,7 -19,0 0,-7 z m 0,8 19,0 0,7 -19,0 0,-7 z m 0,8 19,0 0,7 -19,0 0,-7 z m 0,8 19,0 0,7 -19,0 0,-7 z" />
      <path
         style="color:#000000;font-style:normal;font-variant:normal;font-weight:normal;font-stretch:normal;font-size:medium;line-height:normal;font-family:'Abandoned Bitplane';-inkscape-font-specification:'Abandoned Bitplane';text-indent:0;text-align:start;text-decoration:none;text-decoration-line:none;letter-spacing:normal;word-spacing:normal;text-transform:none;direction:ltr;block-progression:tb;writing-mode:lr-tb;text-anchor:start;display:inline;overflow:visible;visibility:visible;opacity:0.6;fill:#808080;fill-opacity:1;stroke:none;stroke-width:1;marker:none;enable-background:accumulate"
         id="rect6027"
         inkscape:connector-curvature="0"
         d="m 13,15 0,0.5 0,65 0,0.5 0.5,0 70,0 0.5,0 0,-0.5 0,-65 0,-0.5 -0.5,0 -70,0 z m 1,1 69,0 0,64 -69,0 z" />
      <rect
         style="color:#000000;display:inline;overflow:visible;visibility:visible;opacity:0.2;fill:#6e6e6e;fill-opacity:1;fill-rule:nonzero;stroke:none;stroke-width:1;marker:none;enable-background:accumulate"
         id="rect6101"
         y="39"
         x="14"
         height="9"
         width="8" />
      <rect
         style="color:#000000;display:inline;overflow:visible;visibility:visible;opacity:0.2;fill:#6e6e6e;fill-opacity:1;fill-rule:nonzero;stroke:none;stroke-width:1;marker:none;enable-background:accumulate"
         id="rect6103"
         y="15"
         x="41"
         height="9"
         width="21" />
      <g
         style="font-style:normal;font-variant:normal;font-weight:bold;font-stretch:normal;font-size:4px;line-height:125%;font-family:'Liberation Sans';-inkscape-font-specification:'Abandoned Bitplane Bold';text-align:start;writing-mode:lr-tb;text-anchor:start;display:inline;fill:#4d4d4d;fill-opacity:1;stroke:none"
         id="text6105"
         transform="translate(-19,0)">
        <path
           id="path6166"
           inkscape:connector-curvature="0"
           d="m 51.21,21 -0.24,-0.7 -1.05,0 -0.24,0.7 -0.58,0 1,-2.75 0.68,0 1,2.75 -0.57,0 m -0.64,-1.93 c 0,0 0,-0.1 0,-0.13 0,-0.1 0,-0.1 0,-0.13 0,0 0,-0.1 0,-0.1 0,0 0,0 0,0 0,0 0,0 0,0 0,0 0,0.1 0,0.1 0,0 0,0.1 0,0.13 0,0 0,0.1 0,0.13 l -0.27,0.79 0.79,0 -0.27,-0.79" />
      </g>
      <g
         style="font-style:normal;font-variant:normal;font-weight:bold;font-stretch:normal;font-size:4px;line-height:125%;font-family:'Liberation Sans';-inkscape-font-specification:'Abandoned Bitplane Bold';text-align:start;writing-mode:lr-tb;text-anchor:start;display:inline;fill:#4d4d4d;fill-opacity:1;stroke:none"
         id="text6109"
         transform="translate(-19,0)">
        <path
           id="path6163"
           inkscape:connector-curvature="0"
           d="m 71.71,20.21 c 0,0.14 0,0.26 -0.1,0.36 -0.1,0.1 -0.13,0.18 -0.23,0.25 -0.1,0.1 -0.21,0.11 -0.34,0.14 -0.12,0 -0.26,0 -0.41,0 l -1.37,0 0,-2.75 1.26,0 c 0.16,0 0.3,0 0.43,0 0.13,0 0.24,0.1 0.32,0.13 0.1,0.1 0.16,0.13 0.2,0.21 0,0.1 0.1,0.19 0.1,0.31 0,0.16 0,0.29 -0.13,0.4 -0.1,0.1 -0.22,0.17 -0.4,0.21 0.23,0 0.4,0.1 0.51,0.21 0.12,0.12 0.18,0.27 0.18,0.45 m -0.74,-1.19 c 0,-0.13 0,-0.21 -0.12,-0.27 -0.1,-0.1 -0.2,-0.1 -0.35,-0.1 l -0.66,0 0,0.68 0.66,0 c 0.17,0 0.28,0 0.36,-0.1 0.1,-0.1 0.11,-0.14 0.11,-0.25 m 0.16,1.15 c 0,-0.1 0,-0.13 0,-0.18 0,0 -0.1,-0.1 -0.12,-0.12 0,0 -0.11,-0.1 -0.18,-0.1 -0.1,0 -0.14,0 -0.22,0 l -0.73,0 0,0.79 0.76,0 c 0.1,0 0.14,0 0.21,0 0.1,0 0.12,0 0.16,-0.1 0,0 0.1,-0.1 0.12,-0.12 0,-0.1 0,-0.12 0,-0.2" />
      </g>
      <g
         style="font-style:normal;font-variant:normal;font-weight:bold;font-stretch:normal;font-size:4px;line-height:125%;font-family:'Liberation Sans';-inkscape-font-specification:'Abandoned Bitplane Bold';text-align:center;writing-mode:lr-tb;text-anchor:middle;display:inline;fill:#4d4d4d;fill-opacity:1;stroke:none"
         id="text6113"
         transform="translate(-19,0)">
        <path
           id="path6142"
           inkscape:connector-curvature="0"
           d="m 35.58,29 0,-0.41 0.69,0 0,-1.88 -0.66,0.42 0,-0.43 0.68,-0.45 0.52,0 0,2.34 0.64,0 0,0.41 -1.87,0" />
      </g>
      <g
         style="font-style:normal;font-variant:normal;font-weight:bold;font-stretch:normal;font-size:4px;line-height:125%;font-family:'Liberation Sans';-inkscape-font-specification:'Abandoned Bitplane Bold';text-align:center;writing-mode:lr-tb;text-anchor:middle;display:inline;fill:#4d4d4d;fill-opacity:1;stroke:none"
         id="text6117"
         transform="translate(-19,0)">
        <path
           id="path6145"
           inkscape:connector-curvature="0"
           d="m 35.47,37 0,-0.38 c 0.1,-0.14 0.14,-0.26 0.23,-0.37 0.1,-0.11 0.18,-0.21 0.28,-0.3 0.1,-0.1 0.2,-0.18 0.29,-0.26 0.1,-0.1 0.19,-0.15 0.27,-0.23 0.1,-0.1 0.14,-0.15 0.18,-0.22 0.1,-0.1 0.1,-0.15 0.1,-0.24 0,-0.12 0,-0.21 -0.1,-0.27 -0.1,-0.1 -0.16,-0.1 -0.27,-0.1 -0.12,0 -0.21,0 -0.27,0.1 -0.1,0.1 -0.1,0.16 -0.12,0.28 l -0.56,0 c 0,-0.11 0,-0.21 0.1,-0.3 0,-0.1 0.1,-0.18 0.18,-0.25 0.1,-0.1 0.17,-0.13 0.28,-0.17 0.11,0 0.25,-0.1 0.4,-0.1 0.15,0 0.28,0 0.4,0 0.11,0 0.21,0.1 0.29,0.15 0.1,0.1 0.13,0.15 0.17,0.24 0,0.1 0.1,0.21 0.1,0.33 0,0.13 0,0.25 -0.1,0.35 -0.1,0.1 -0.12,0.2 -0.2,0.29 -0.1,0.1 -0.17,0.17 -0.26,0.25 -0.1,0.1 -0.19,0.15 -0.28,0.22 -0.1,0.1 -0.18,0.15 -0.25,0.22 -0.1,0.1 -0.13,0.15 -0.17,0.24 l 1.28,0 0,0.45 -1.93,0" />
      </g>
      <g
         style="font-style:normal;font-variant:normal;font-weight:bold;font-stretch:normal;font-size:4px;line-height:125%;font-family:'Liberation Sans';-inkscape-font-specification:'Abandoned Bitplane Bold';text-align:center;writing-mode:lr-tb;text-anchor:middle;display:inline;fill:#4d4d4d;fill-opacity:1;stroke:none"
         id="text6121"
         transform="translate(-19,0)">
        <path
           id="path6148"
           inkscape:connector-curvature="0"
           d="m 37.41,44.24 c 0,0.12 0,0.23 -0.1,0.33 0,0.1 -0.1,0.19 -0.18,0.26 -0.1,0.1 -0.19,0.12 -0.31,0.16 -0.12,0 -0.26,0 -0.42,0 -0.18,0 -0.34,0 -0.46,-0.1 -0.12,0 -0.22,-0.11 -0.3,-0.18 -0.1,-0.1 -0.14,-0.16 -0.18,-0.26 0,-0.1 -0.1,-0.19 -0.1,-0.29 l 0.56,0 c 0,0.1 0,0.12 0.1,0.17 0,0 0,0.1 0.1,0.12 0,0 0.1,0.1 0.14,0.1 0,0 0.11,0 0.18,0 0.14,0 0.24,0 0.31,-0.1 0.1,-0.1 0.11,-0.16 0.11,-0.3 0,-0.1 0,-0.14 -0.1,-0.19 0,0 -0.1,-0.1 -0.13,-0.12 -0.1,0 -0.11,0 -0.17,0 -0.1,0 -0.12,0 -0.18,0 l -0.19,0 0,-0.44 0.18,0 c 0.1,0 0.11,0 0.17,0 0.1,0 0.11,0 0.15,-0.1 0,0 0.1,-0.1 0.11,-0.11 0,-0.1 0,-0.12 0,-0.19 0,-0.12 0,-0.2 -0.1,-0.27 -0.1,-0.1 -0.15,-0.1 -0.28,-0.1 -0.11,0 -0.2,0 -0.27,0.1 -0.1,0.1 -0.11,0.15 -0.12,0.26 l -0.55,0 c 0,-0.12 0.1,-0.24 0.11,-0.33 0.1,-0.1 0.12,-0.17 0.21,-0.24 0.1,-0.1 0.18,-0.11 0.29,-0.14 0.11,0 0.22,0 0.34,0 0.17,0 0.3,0 0.42,0.1 0.12,0 0.21,0.1 0.29,0.15 0.1,0.1 0.12,0.15 0.16,0.24 0,0.1 0.1,0.18 0.1,0.28 0,0.1 0,0.16 0,0.23 0,0.1 -0.1,0.13 -0.11,0.18 -0.1,0.1 -0.11,0.11 -0.18,0.15 -0.1,0 -0.16,0.1 -0.27,0.1 l 0,0 c 0.12,0 0.22,0 0.3,0.1 0.1,0 0.15,0.1 0.2,0.14 0.1,0.1 0.1,0.12 0.12,0.2 0,0.1 0,0.15 0,0.23" />
      </g>
      <g
         style="font-style:normal;font-variant:normal;font-weight:bold;font-stretch:normal;font-size:4px;line-height:125%;font-family:'Liberation Sans';-inkscape-font-specification:'Abandoned Bitplane Bold';text-align:center;writing-mode:lr-tb;text-anchor:middle;display:inline;fill:#4d4d4d;fill-opacity:1;stroke:none"
         id="text6125"
         transform="translate(-19,0)">
        <path
           id="path6151"
           inkscape:connector-curvature="0"
           d="m 37.17,52.44 0,0.56 -0.53,0 0,-0.56 -1.25,0 0,-0.41 1.16,-1.78 0.62,0 0,1.78 0.37,0 0,0.41 -0.37,0 m -0.53,-1.31 c 0,0 0,-0.1 0,-0.1 0,0 0,-0.1 0,-0.11 0,0 0,-0.1 0,-0.1 0,0 0,-0.1 0,-0.1 0,0 0,0 0,0.1 0,0 0,0 -0.1,0.1 0,0 0,0.1 0,0.1 0,0 0,0.1 -0.1,0.1 l -0.64,0.97 0.8,0 0,-0.9" />
      </g>
      <g
         style="font-style:normal;font-variant:normal;font-weight:bold;font-stretch:normal;font-size:4px;line-height:125%;font-family:'Liberation Sans';-inkscape-font-specification:'Abandoned Bitplane Bold';text-align:center;writing-mode:lr-tb;text-anchor:middle;display:inline;fill:#4d4d4d;fill-opacity:1;stroke:none"
         id="text6129"
         transform="translate(-19,0)">
        <path
           id="path6154"
           inkscape:connector-curvature="0"
           d="m 37.45,60.08 c 0,0.14 0,0.27 -0.1,0.39 0,0.11 -0.11,0.21 -0.19,0.3 -0.1,0.1 -0.2,0.15 -0.32,0.2 -0.13,0.1 -0.28,0.1 -0.44,0.1 -0.16,0 -0.29,0 -0.41,-0.1 -0.11,0 -0.21,-0.1 -0.29,-0.15 -0.1,-0.1 -0.14,-0.14 -0.18,-0.23 0,-0.1 -0.1,-0.19 -0.1,-0.29 l 0.54,0 c 0,0 0,0.1 0,0.12 0,0 0,0.1 0.1,0.11 0,0 0.1,0.1 0.12,0.1 0,0 0.11,0 0.18,0 0.14,0 0.25,0 0.33,-0.13 0.1,-0.1 0.12,-0.21 0.12,-0.37 0,-0.1 0,-0.14 0,-0.2 0,-0.1 -0.1,-0.11 -0.1,-0.15 0,0 -0.1,-0.1 -0.13,-0.1 -0.1,0 -0.12,0 -0.19,0 -0.1,0 -0.16,0 -0.22,0.1 -0.1,0 -0.11,0.1 -0.15,0.13 l -0.53,0 0.1,-1.55 1.66,0 0,0.41 -1.16,0 -0.1,0.69 c 0.1,-0.1 0.13,-0.1 0.21,-0.12 0.1,0 0.18,0 0.29,0 0.14,0 0.26,0 0.37,0.1 0.1,0 0.19,0.11 0.27,0.19 0.1,0.1 0.13,0.17 0.17,0.28 0,0.12 0.1,0.24 0.1,0.37" />
      </g>
      <g
         style="font-style:normal;font-variant:normal;font-weight:bold;font-stretch:normal;font-size:4px;line-height:125%;font-family:'Liberation Sans';-inkscape-font-specification:'Abandoned Bitplane Bold';text-align:center;writing-mode:lr-tb;text-anchor:middle;display:inline;fill:#4d4d4d;fill-opacity:1;stroke:none"
         id="text6133"
         transform="translate(-19,0)">
        <path
           id="path6157"
           inkscape:connector-curvature="0"
           d="m 37.41,68.1 c 0,0.14 0,0.26 -0.1,0.38 0,0.12 -0.1,0.21 -0.17,0.3 -0.1,0.1 -0.18,0.14 -0.29,0.19 -0.12,0 -0.25,0.1 -0.4,0.1 -0.33,0 -0.58,-0.11 -0.75,-0.34 -0.17,-0.23 -0.26,-0.57 -0.26,-1.01 0,-0.49 0.1,-0.86 0.26,-1.11 0.18,-0.25 0.43,-0.37 0.76,-0.37 0.11,0 0.21,0 0.3,0 0.1,0 0.17,0.1 0.24,0.11 0.1,0.1 0.13,0.12 0.18,0.2 0.1,0.1 0.1,0.18 0.12,0.29 l -0.52,0.1 c 0,-0.1 -0.1,-0.16 -0.13,-0.2 -0.1,0 -0.12,-0.1 -0.2,-0.1 -0.15,0 -0.26,0.1 -0.35,0.22 -0.1,0.15 -0.12,0.37 -0.12,0.67 0,-0.1 0.14,-0.17 0.24,-0.22 0.1,-0.1 0.22,-0.1 0.35,-0.1 0.12,0 0.23,0 0.33,0.1 0.1,0 0.18,0.1 0.25,0.17 0.1,0.1 0.13,0.17 0.17,0.27 0,0.11 0,0.23 0,0.37 m -0.55,0 c 0,-0.1 0,-0.15 0,-0.2 0,-0.1 -0.1,-0.11 -0.1,-0.16 0,0 -0.1,-0.1 -0.13,-0.1 -0.1,0 -0.11,0 -0.17,0 -0.1,0 -0.1,0 -0.15,0 -0.1,0 -0.1,0 -0.13,0.1 0,0 -0.1,0.1 -0.1,0.13 0,0.1 0,0.12 0,0.2 0,0.1 0,0.15 0,0.22 0,0.1 0.1,0.12 0.1,0.17 0,0 0.1,0.1 0.13,0.12 0.1,0 0.1,0 0.17,0 0.12,0 0.22,0 0.29,-0.13 0.1,-0.1 0.1,-0.21 0.1,-0.36" />
      </g>
      <g
         style="font-style:normal;font-variant:normal;font-weight:bold;font-stretch:normal;font-size:4px;line-height:125%;font-family:'Liberation Sans';-inkscape-font-specification:'Abandoned Bitplane Bold';text-align:center;writing-mode:lr-tb;text-anchor:middle;display:inline;fill:#4d4d4d;fill-opacity:1;stroke:none"
         id="text6137"
         transform="translate(-19,0)">
        <path
           id="path6160"
           inkscape:connector-curvature="0"
           d="m 37.38,74.68 c -0.12,0.2 -0.24,0.39 -0.35,0.57 -0.11,0.19 -0.21,0.37 -0.29,0.56 -0.1,0.18 -0.14,0.37 -0.19,0.57 0,0.19 -0.1,0.4 -0.1,0.62 l -0.58,0 c 0,-0.22 0,-0.42 0.1,-0.62 0.1,-0.2 0.12,-0.39 0.21,-0.57 0.1,-0.19 0.19,-0.37 0.31,-0.55 0.12,-0.19 0.24,-0.37 0.37,-0.56 l -1.37,0 0,-0.45 1.88,0 0,0.43" />
      </g>
      <path
         style="color:#000000;display:inline;overflow:visible;visibility:visible;opacity:0.5;fill:#569110;fill-opacity:1;fill-rule:nonzero;stroke:none;stroke-width:1;marker:none;enable-background:accumulate"
         id="rect6168"
         inkscape:connector-curvature="0"
         d="m 61.91,38.83 0,9 22,0 0,-9 -22,0 z m 1,1 20,0 0,7 -20,0 0,-7 z" />
      <path
         style="color:#000000;display:inline;overflow:visible;visibility:visible;opacity:0.2;fill:#000000;stroke:none;stroke-width:1;marker:none;enable-background:accumulate"
         id="path6152"
         inkscape:connector-curvature="0"
         d="m 62,72 0,9 1,0 0,-9 21,0 0,-1 -21,0 0,-7 21,0 0,-1 -21,0 0,-7 21,0 0,-1 -21,0 0,-7 21,0 0,-1 -21,0 0,-7 21,0 0,-1 -21,0 0,-7 21,0 0,-1 -21,0 0,-7 21,0 0,-1 -21,0 0,-8 -1,0 0,8 z m 0,-48 0,7 z m 0,8 0,7 z m 0,8 0,7 z m 0,8 0,7 z m 0,8 0,7 z m 0,8 0,7 z" />
    </g>
  </g>
  <g
     id="g14620">
    <g
       transform="translate(0,-2)"
       id="layer5"
       style="display:inline">
      <path
         inkscape:connector-curvature="0"
         d="M 48.84,0.5937 C 48.61,0.6082 48.23,0.629 47.78,0.75 L 7.375,11.59 c -1.781,0.48 -2.97,1.89 -3.531,3.47 -0.01,0 -0.05,0.1 -0.06,0.1 -0.04,0 -0.07,0.1 -0.09,0.1 0.01,0 0.05,0 0.06,0 -0.02,0.1 -0.107,0.1 -0.125,0.16 0,0 -0.03,0 -0.03,0 -0.03,0 -0.02,0.1 -0.03,0.12 0,0 0,0 0,0 0,0 -0.03,0 -0.03,0 0,0 0,0.1 0,0.1 0,0 -0.03,0.1 -0.03,0.1 -10e-4,0 0,0 0,0 0,0 0,0 0,0.1 -10e-4,0 -10e-4,0 0,0 0,0 -0.02,0.1 -0.03,0.1 -0.109,0.27 -0.05,0.22 -0.06,0.28 0,0 10e-4,0 0,0 0,0 10e-4,0 0,0 a 0.8948,0.8948 0 0 0 0,0.1 c 0,0 -0.03,0.1 -0.03,0.1 a 0.8948,0.8948 0 0 0 0,0.1 c -10e-4,0 0,0 0,0.1 -10e-4,0 0,0 0,0.13 0,0.1 0,0.14 0,0.22 0,0 0,0 0,0.1 0,0.1 0,0.13 0,0.22 l 0.03,0 c 0,0 0,0.1 0,0.12 0.02,0.23 0.03,0.53 0.125,0.88 l 0.313,1.09 0,0 5.094,19.07 5.119,19.06 0.32,1.1 c 0,0 0,0 0,0 0,0.16 0.12,0.31 0.18,0.47 0,0 0,0 0,0.1 0,0 0,0 0,0 0.1,0.17 0.1,0.14 0.1,0.19 0,0 0,0 0,0.1 0,0 0,0.1 0,0.1 0.1,0.16 0.13,0.2 0.19,0.28 0,0.1 0.11,0.21 0.12,0.22 0,0 0,0.1 0,0.1 l 0,0 c 0,0 0,0 0,0 a 0.8948,0.8948 0 0 0 0,0.1 c 0,0 0,0 0.1,0.1 0.1,0 0.15,0.17 0.13,0.16 -0.1,0 -0.13,-0.1 -0.19,-0.16 0,0 0,0 0,0 0,0 0,0 0,0 0,0 0,0 0.1,0.1 0,0 0,0 0,0 0,0 0,0 0,0 0,0 0,0 0,0 0.1,0.1 0.1,0.14 0.13,0.22 0,0 0,0 0,0 0,0 0,0 0,0.1 0,0 0,0 0.1,0 0,0 0,0 0,0.1 0,0 0,0 0.1,0.1 0,0 0.1,0.1 0.1,0.1 0,0 0.17,0.14 0.1,0 0,0 0,0 0,0 0,0 0,0 0,0 a 0.8948,0.8948 0 0 0 0.1,0 c 0,0 -0.1,0 -0.1,0 0,0 0,0 0.1,0 0,0 0,0 0,0.1 0,0 0.16,0.1 0.16,0.1 1.27,1.08 3.02,1.67 4.81,1.19 L 61.41,51.63 c 2.26,-0.61 3.79,-2.6 3.96,-4.82 0,0 0,0 0,-0.1 0,0 0,0 0,-0.1 0,0 0,0 0,0 0,-0.23 0,-0.3 0,-0.41 0,0 0,0 0,0 0,0 0,0 0,-0.1 0,0 0,0 0,0 0,0 0,0 0,0 0,0 0,-0.1 0,-0.1 a 0.8948,0.8948 0 0 0 0,-0.12 c 0,-0.23 0,-0.53 -0.12,-0.88 l -0.31,-1.09 0,0 -5.13,-19.1 -5.09,-19.091 a 0.8948,0.8948 0 0 0 0,-0.03 L 54.41,4.594 c 0,-0.01 0,-0.02 0,-0.03 -0.1,-0.27 -0.21,-0.536 -0.32,-0.783 l 0,-0.03 c 0,-0.03 0,-0.04 0,-0.06 a 0.8948,0.8948 0 0 0 0,-0.06 c 0,-0.01 0,-0.02 0,-0.03 a 0.8948,0.8948 0 0 0 0,-0.03 c 0,-0.02 0,-0.02 0,-0.03 0,-0.09 -0.1,-0.154 -0.12,-0.218 0,-0.03 -0.1,-0.09 -0.1,-0.125 0,-0.05 -0.1,-0.1 -0.1,-0.157 C 53.51,2.716 53.29,2.52 53.16,2.375 53.05,2.256 52.91,2.147 52.78,2.031 c 0,0 0,-0.03 -0.1,-0.06 -0.1,-0.05 -0.1,-0.109 -0.16,-0.157 l 0,-0.03 c 0,0 0,-0.03 0,-0.03 -1,-0.7994 -2.32,-1.2429 -3.68,-1.1603 z M 15.16,60.22 c 0,0 0,0 0,0 0,0 0,0 0,0 0,0 0,0 0,0 z M 65.25,47.13 c 0,0 0,0.1 -0.1,0.12 -0.19,0.21 -0.48,0.27 -0.41,0.25 0.1,0 0.33,-0.19 0.47,-0.37 z M 15.53,60.41 a 0.8948,0.8948 0 0 0 0.1,0 c 0,0 0,0 0,0.1 0,0 -0.1,0.11 -0.1,0.12 0,0 -0.1,0 -0.1,-0.1 0,0 0.1,-0.1 0.1,-0.12 z"
         id="path6693"
         style="display:inline;opacity:0.05;fill:#000000;fill-opacity:1;fill-rule:nonzero;stroke:none" />
      <path
         inkscape:connector-curvature="0"
         d="M 48.91,1.5 C 48.66,1.515 48.35,1.532 48,1.625 L 7.594,12.47 c -1.621,0.43 -2.734,1.72 -3.125,3.22 0,0 -0.03,0 -0.03,0.1 0,0 -0.02,0 -0.03,0 -0.01,0 0,0 0,0.1 -0.01,0.1 0,0.1 0,0.1 -10e-4,0 0,0 0,0 0,0 -0.03,0 -0.03,0 -0.02,0.1 -0.04,0.16 -0.06,0.34 -0.01,0.12 0,0 0,0 0,0 0,0.13 0,0 0,-0.12 0,-0.15 -0.03,0.16 -0.01,0.16 0,0.18 0,0.1 0,0.14 -0.02,0.32 0,0.53 -0.01,-0.14 -0.02,-0.1 0,0.13 0.02,0.21 0.05,0.48 0.125,0.75 l 0.313,1.12 5.094,19.1 5.129,19.06 0.31,1.13 c 0.1,0.23 0.15,0.46 0.25,0.68 -0.1,-0.16 -0.1,-0.13 0,0.1 0.1,0.2 0.17,0.29 0.19,0.31 0,0 0,0 0,0 0,0 0,0 0.1,0.13 0,0 0,0 0.1,0.1 0.15,0.23 0.1,0.16 0.1,0.1 0,0 0.1,0.1 0,0 0,0 0,0.1 0.19,0.29 0.1,0.1 0.12,0.12 0.1,0.1 0.1,0.1 0.1,0.1 0.13,0.1 0,0 0.1,0 0.1,0.1 0,0 0.1,0.1 0.1,0.1 1.09,0.99 2.64,1.51 4.19,1.09 L 61.19,50.75 c 1.91,-0.51 3.19,-2.19 3.31,-4.06 0,0 0,0 0,-0.1 0,-0.29 0,-0.44 0,-0.5 0,0 0,0 0,0 0,0 0,0 0,-0.12 0,-0.21 0,-0.48 -0.13,-0.75 L 64.06,44.09 58.94,25.03 53.84,5.937 53.53,4.812 C 53.47,4.58 53.38,4.351 53.28,4.125 53.23,4.015 53.21,3.979 53.22,4 a 1.032,1.032 0 0 0 0,-0.03 C 53.09,3.712 53.01,3.637 53.06,3.719 53.2,3.962 53.2,3.89 52.97,3.531 52.83,3.313 52.65,3.134 52.5,2.969 52.35,2.806 52.18,2.641 52,2.5 c 0,0 0,-0.03 0,-0.03 0,0 0,0 0,0 C 51.12,1.802 50.03,1.431 48.91,1.5 Z"
         id="path6689"
         style="display:inline;opacity:0.1;fill:#000000;fill-opacity:1;fill-rule:nonzero;stroke:none" />
      <path
         d="m 48.97,2.531 c -0.23,0.01 -0.46,0.03 -0.69,0.09 L 7.875,13.47 C 6.599,13.81 5.73,14.81 5.437,16 c 0,0 -0.03,0 -0.03,0 0,0 0,0 0,0 0,0 0,0.1 0,0.1 -0.02,0.11 -0.05,0.21 -0.06,0.32 0,0 10e-4,0 0,0 0,0 -0.03,0.1 -0.03,0.12 0,0 10e-4,0.1 0,0.1 0,0.12 -0.01,0.24 0,0.37 0,0 0,0.1 0,0.13 0.02,0.18 0.04,0.37 0.09,0.56 l 0.313,1.12 5.09,19.1 5.13,19.06 0.31,1.13 c 0.1,0.18 0.11,0.36 0.19,0.53 0,0 0,0.1 0,0.1 0,0.1 0.1,0.16 0.15,0.25 0,0 0.1,0.1 0.1,0.1 0,0 0,0 0,0.1 0,0 0,0 0.1,0.1 0.1,0.1 0.1,0.17 0.16,0.25 0,0 0.1,0.1 0.1,0.1 0,0 0.1,0 0.1,0.1 0.86,0.87 2.12,1.3 3.38,0.96 L 60.91,49.75 c 1.48,-0.4 2.46,-1.68 2.56,-3.12 0,0 0,-0.1 0,-0.1 0,-0.12 0,-0.24 0,-0.37 0,0 0,-0.1 0,-0.13 0,-0.18 0,-0.37 -0.1,-0.56 L 63.06,44.38 57.94,25.31 52.84,6.219 52.53,5.094 c -0.1,-0.188 -0.11,-0.361 -0.19,-0.532 0,-0.04 0,-0.08 -0.1,-0.125 0,-0.07 -0.1,-0.122 -0.12,-0.187 0,-0.05 0,-0.11 -0.1,-0.156 0,-0.159 -0.14,-0.3 -0.27,-0.438 C 51.63,3.525 51.48,3.391 51.34,3.281 50.69,2.759 49.84,2.478 48.97,2.531 Z"
         inkscape:connector-curvature="0"
         id="rect6536"
         style="display:inline;opacity:0.2;fill:#000000;fill-opacity:1;fill-rule:nonzero;stroke:none" />
      <g
         transform="matrix(0.561,-0.1503,0.1503,0.561,0.2498,10.89)"
         id="g6478">
        <rect
           width="84"
           height="84"
           rx="6"
           ry="6"
           x="6"
           y="6"
           id="rect2419-1"
           style="display:inline;fill:url(#linearGradient6520);fill-opacity:1;fill-rule:nonzero;stroke:none" />
        <path
           d="M 12,6 C 8.676,6 6,8.676 6,12 l 0,2 0,68 0,2 c 0,0.33 0.04,0.65 0.09,0.97 0.05,0.29 0.1,0.6 0.187,0.87 0.01,0 0.02,0.1 0.03,0.1 0.1,0.29 0.235,0.54 0.375,0.81 0.145,0.27 0.316,0.54 0.5,0.78 0.185,0.25 0.374,0.47 0.594,0.69 0.44,0.43 0.943,0.81 1.5,1.09 0.279,0.14 0.574,0.25 0.884,0.35 -0.265,-0.1 -0.495,-0.24 -0.727,-0.38 0,0 -0.02,0 -0.03,0 -0.03,0 -0.06,0 -0.09,-0.1 C 9.192,89.14 9.081,89.06 8.969,88.97 8.863,88.89 8.755,88.81 8.656,88.72 8.478,88.56 8.309,88.37 8.156,88.19 8.049,88.06 7.938,87.92 7.844,87.78 7.819,87.74 7.805,87.7 7.781,87.66 7.716,87.55 7.651,87.45 7.594,87.34 7.493,87.15 7.388,86.93 7.312,86.72 c 0,0 -0.02,0 -0.03,-0.1 -0.03,-0.1 -0.04,-0.19 -0.06,-0.29 -0.03,-0.1 -0.07,-0.2 -0.09,-0.31 C 7.052,85.72 7,85.36 7,85 L 7,83 7,15 7,13 C 7,10.22 9.218,8 12,8 l 2,0 68,0 2,0 c 2.78,0 5,2.22 5,5 l 0,2 0,68 0,2 c 0,0.36 0,0.72 -0.13,1.06 0,0.21 -0.1,0.4 -0.15,0.6 0,0 0,0 0,0.1 -0.1,0.17 -0.14,0.37 -0.22,0.53 0,0.1 -0.1,0.17 -0.13,0.25 0,0.1 -0.12,0.19 -0.18,0.28 -0.1,0.14 -0.21,0.28 -0.32,0.41 -0.14,0.17 -0.3,0.34 -0.47,0.5 0,0 0,0 0,0 -0.13,0.12 -0.28,0.23 -0.43,0.34 -0.11,0.1 -0.21,0.16 -0.32,0.22 0,0 0,0 0,0 -0.23,0.14 -0.46,0.28 -0.72,0.38 0.31,-0.1 0.6,-0.21 0.88,-0.35 0.56,-0.28 1.06,-0.66 1.5,-1.09 0.22,-0.22 0.41,-0.44 0.59,-0.69 0.19,-0.24 0.36,-0.51 0.5,-0.78 0.14,-0.27 0.28,-0.52 0.38,-0.81 0,0 0,-0.1 0,-0.1 0.1,-0.27 0.14,-0.58 0.19,-0.87 0,-0.32 0.1,-0.64 0.1,-0.97 l 0,-2 0,-68 0,-2 C 90,8.676 87.32,6 84,6 L 12,6 Z"
           inkscape:connector-curvature="0"
           id="rect3728-5"
           style="display:inline;opacity:0.5;fill:url(#linearGradient6522);fill-opacity:1;fill-rule:nonzero;stroke:none" />
        <path
           d="M 12,90 C 8.676,90 6,87.32 6,84 L 6,82 6,14 6,12 c 0,-0.33 0.04,-0.65 0.09,-0.97 0.05,-0.29 0.1,-0.6 0.187,-0.87 0.01,0 0.02,-0.1 0.03,-0.1 C 6.411,9.775 6.547,9.515 6.687,9.25 6.832,8.976 7.003,8.714 7.187,8.469 7.372,8.223 7.561,7.995 7.781,7.781 8.221,7.353 8.724,6.967 9.281,6.687 9.56,6.548 9.855,6.441 10.16,6.344 9.9,6.444 9.67,6.58 9.438,6.719 c 0,0 -0.02,0 -0.03,0 -0.03,0.02 -0.06,0.04 -0.09,0.06 C 9.192,6.858 9.081,6.945 8.969,7.031 8.863,7.112 8.755,7.192 8.656,7.281 8.478,7.443 8.309,7.627 8.156,7.812 8.049,7.943 7.938,8.078 7.844,8.219 7.819,8.257 7.805,8.305 7.781,8.344 7.716,8.447 7.651,8.548 7.594,8.656 7.493,8.851 7.388,9.072 7.312,9.281 c 0,0.02 -0.02,0.04 -0.03,0.06 -0.03,0.09 -0.04,0.187 -0.06,0.281 -0.03,0.11 -0.07,0.206 -0.1,0.316 C 7.052,10.28 7,10.64 7,11 l 0,2 0,68 0,2 c 0,2.78 2.218,5 5,5 l 2,0 68,0 2,0 c 2.78,0 5,-2.22 5,-5 l 0,-2 0,-68 0,-2 c 0,-0.36 0,-0.72 -0.13,-1.062 0,-0.207 -0.1,-0.398 -0.15,-0.594 0,-0.02 0,-0.04 0,-0.06 -0.1,-0.173 -0.14,-0.367 -0.22,-0.531 0,-0.08 -0.1,-0.17 -0.13,-0.25 0,-0.1 -0.12,-0.188 -0.18,-0.281 -0.1,-0.141 -0.21,-0.276 -0.32,-0.407 -0.14,-0.174 -0.3,-0.346 -0.47,-0.5 0,-0.01 0,-0.02 0,-0.03 C 87.21,7.156 87.06,7.047 86.91,6.937 86.8,6.864 86.7,6.784 86.59,6.719 c 0,0 0,0 0,0 C 86.33,6.58 86.1,6.444 85.84,6.344 c 0.31,0.1 0.6,0.204 0.88,0.343 0.56,0.28 1.06,0.666 1.5,1.094 0.22,0.214 0.41,0.442 0.59,0.688 0.19,0.245 0.36,0.507 0.5,0.781 0.14,0.265 0.28,0.525 0.38,0.81 0,0 0,0.1 0,0.1 0.1,0.27 0.14,0.58 0.19,0.87 0,0.32 0.1,0.64 0.1,0.97 l 0,2 0,68 0,2 c 0,3.32 -2.68,6 -6,6 l -72,0 z"
           inkscape:connector-curvature="0"
           id="path3615-0"
           style="display:inline;opacity:0.4;fill:url(#radialGradient6524);fill-opacity:1;fill-rule:nonzero;stroke:none" />
        <path
           inkscape:connector-curvature="0"
           d="m 64,50.94 c -7,0 -13.37,1.85 -18.12,5 -4.76,3.14 -7.97,7.73 -7.97,12.97 l 0,4.12 c 0,4.56 2.43,8.63 6.18,11.66 3.59,2.89 8.46,4.84 13.88,5.72 0,0 0.1,0.1 0.1,0.1 0,0 0.16,0.1 0.16,0.1 0,0 0.16,0.1 0.16,0.1 0,0 0.18,0 0.18,0 3.93,0.77 9.7,0.72 14,-0.62 0,0 0.1,0 0.13,0 0,0 0,0 0.1,0 0.38,-0.1 0.76,-0.2 1.16,-0.31 0,0 0,0 0,0 0.1,0 0.19,-0.1 0.25,-0.1 0,0 0.1,0 0.1,0 0,0 0.1,0 0.1,0 0.1,0 0.1,0 0.19,-0.1 0.34,-0.1 0.66,-0.23 1,-0.35 a 1.094,1.094 0 0 0 0.1,0 c 0,0 0.1,0 0.1,0 0.16,0 0.3,-0.1 0.38,-0.12 0.37,-0.14 0.73,-0.28 1.12,-0.44 0.34,-0.14 0.66,-0.27 0.97,-0.41 0.16,-0.1 0.31,-0.12 0.44,-0.18 0,0 0,0 0.1,0 0,0 0,0 0,0 0.5,-0.22 0.98,-0.48 1.47,-0.75 0,0 0.1,-0.1 0.13,-0.1 0,0 0,0 0.1,0 2.84,-1.55 5.35,-3.58 7.12,-6.22 l 0,0 c 0,0 0,0 0,0 0.22,-0.32 0.39,-0.58 0.5,-0.78 0,0 0.1,0 0.1,-0.1 a 1.094,1.094 0 0 0 0,-0.1 c 0,-0.1 0.1,-0.13 0.15,-0.25 0,0 0,0 0,0 0.17,-0.29 0.33,-0.59 0.47,-0.91 a 1.094,1.094 0 0 0 0,-0.1 1.094,1.094 0 0 0 0,-0.1 c 0,0 0,0 0,0 0,0 0,0 0,0 0,0 0,0 0,0 0,0 0,0 0,0 0,0 0,0 0,0 0.17,-0.35 0.34,-0.74 0.5,-1.22 0,0 0,-0.1 0.1,-0.19 0,0 0,0 0,-0.1 0,0 0,0 0,0 0.25,-0.83 0.45,-1.71 0.53,-2.62 0,0 0,-0.1 0,-0.1 0,-0.19 0,-0.21 0,-0.1 0,0 0,-0.11 0,-0.16 0,0 0,-0.1 0,-0.15 l 0,-0.1 0,-0.56 0,-4.12 c 0,-5.24 -3.21,-9.83 -7.97,-12.97 -4.75,-3.15 -11.12,-5 -18.12,-5 z m 24.75,26.5 c 0,0 0,0.1 0,0.1 0,0 0,0 0,-0.1 z"
           transform="matrix(1.174,0,0,1.176,-27.17,-32.47)"
           id="path4134"
           style="display:inline;opacity:0.05;fill:#000000;fill-rule:nonzero;stroke:none" />
        <path
           inkscape:connector-curvature="0"
           d="m 64,52.03 c -6.81,0 -12.99,1.81 -17.53,4.81 C 41.93,59.85 39,64.11 39,68.91 l 0,4.12 c 0,4.17 2.22,7.94 5.78,10.81 3.47,2.8 8.26,4.74 13.66,5.57 0,0 0,0 0,0 a 1.005,1.005 0 0 0 0.31,0.12 c 3.76,0.74 9.59,0.68 13.63,-0.62 0,0 0,0 0.1,0 0.38,-0.1 0.76,-0.2 1.15,-0.32 0.19,-0.1 0.27,-0.1 0.29,-0.1 0.23,-0.1 0.27,-0.1 0.15,-0.1 0.44,-0.13 0.89,-0.28 1.35,-0.44 0.14,0 0.24,-0.1 0.34,-0.12 0.38,-0.14 0.73,-0.26 1.09,-0.41 0.31,-0.12 0.62,-0.27 0.94,-0.41 0.17,-0.1 0.33,-0.15 0.47,-0.22 0,0 0,0 0,0 0.47,-0.21 0.97,-0.46 1.44,-0.71 0.25,-0.14 0.23,-0.15 0.12,-0.1 0,0 0,0 0,0 2.75,-1.5 5.15,-3.43 6.81,-5.9 0.2,-0.29 0.34,-0.54 0.47,-0.75 0,-0.1 0.13,-0.21 0.22,-0.37 0,0 0,0 0,0 0.15,-0.29 0.31,-0.57 0.43,-0.85 0,0 0,0 0,0 0,0 0,0 0,0 0.2,-0.42 0.41,-0.85 0.57,-1.31 0,0 0,-0.11 0.1,-0.19 0,0 0,0 0,0 0.25,-0.8 0.43,-1.67 0.5,-2.53 0,0 0,0 0,-0.1 0,0 0,0 0,-0.16 a 1.005,1.005 0 0 0 0,-0.1 l 0,-0.63 0,-4.12 C 89,64.11 86.07,59.85 81.53,56.84 76.99,53.84 70.81,52.03 64,52.03 Z"
           transform="matrix(1.174,0,0,1.176,-27.17,-32.47)"
           id="path4136"
           style="display:inline;opacity:0.1;fill:#000000;fill-rule:nonzero;stroke:none" />
        <path
           d="m 48,29.87 c -15.57,0 -28.19,8.36 -28.19,18.66 l 0,4.85 c 0,8.96 9.55,16.43 22.28,18.22 l 0,0 c 4.19,0.82 11.08,0.75 15.49,-0.7 0.47,-0.12 0.93,-0.23 1.39,-0.37 0.12,0 0.22,-0.1 0.33,-0.11 0.1,0 0.13,0 0.19,-0.1 0.52,-0.15 1.04,-0.3 1.54,-0.48 0.14,0 0.27,-0.1 0.4,-0.14 0.43,-0.16 0.84,-0.31 1.25,-0.48 0.36,-0.14 0.72,-0.29 1.07,-0.44 0.18,-0.1 0.36,-0.17 0.55,-0.26 0.55,-0.26 1.12,-0.52 1.65,-0.81 0,0 0.1,-0.1 0.14,-0.11 3.13,-1.69 5.79,-3.86 7.6,-6.57 0.19,-0.28 0.35,-0.57 0.52,-0.85 0.1,-0.15 0.17,-0.29 0.25,-0.44 0.17,-0.31 0.33,-0.64 0.48,-0.95 0,0 0,0 0,0 0.22,-0.48 0.42,-0.97 0.59,-1.47 0,-0.1 0,-0.15 0.1,-0.22 0.28,-0.91 0.48,-1.84 0.55,-2.79 0,-0.1 0,-0.15 0,-0.22 l 0,-0.74 0,-4.85 C 76.19,38.23 63.57,29.87 48,29.87 Z"
           inkscape:connector-curvature="0"
           id="path4138"
           style="display:inline;opacity:0.2;fill:#000000;fill-rule:nonzero;stroke:none" />
        <path
           d="M 75.22,47.36 C 71.99,39.41 61.03,33.56 48,33.56 c -13.03,0 -23.98,5.85 -27.22,13.8 l -0.97,0 0,4.85 c 0,10.3 12.62,18.65 28.19,18.65 15.57,0 28.19,-8.35 28.19,-18.65 l 0,-4.85 -0.97,0 0,0 z"
           inkscape:connector-curvature="0"
           id="path4140"
           style="display:inline;fill:#b82525;fill-opacity:1;fill-rule:nonzero;stroke:none" />
        <path
           d="M 76.19,47.36 C 76.19,57.66 63.57,66 48,66 32.43,66 19.81,57.66 19.81,47.36 19.81,37.06 32.43,28.71 48,28.71 c 15.57,0 28.19,8.35 28.19,18.65 l 0,0 z"
           inkscape:connector-curvature="0"
           id="path4142"
           style="display:inline;fill:url(#linearGradient6526);fill-opacity:1;fill-rule:nonzero;stroke:none" />
        <path
           d="m 76.19,52.94 0,-5.08 C 73.1,58.41 66.22,62.89 57.58,65.08 l 0,4.68 C 66.93,67.4 75.3,62.04 76.19,52.94 l 0,0 z"
           inkscape:connector-curvature="0"
           id="path4144"
           style="display:inline;fill:#39619a;fill-opacity:1;fill-rule:nonzero;stroke:none" />
        <path
           d="M 76.19,47.36 C 75.54,59.27 60.82,64.71 57.53,64.91 L 48,47.36 l 28.19,0 0,0 z"
           inkscape:connector-curvature="0"
           id="path4146"
           style="display:inline;fill:url(#linearGradient6528);fill-opacity:1;fill-rule:nonzero;stroke:none" />
        <path
           d="m 42.1,70.45 0,-4.85 c 5.3,0.69 10.17,0.81 15.43,-0.51 l 0,4.67 c -4.4,1.44 -11.29,1.51 -15.48,0.69 l 0,0 z"
           inkscape:connector-curvature="0"
           id="path4148"
           style="display:inline;fill:#70851f;fill-opacity:1;fill-rule:nonzero;stroke:none" />
        <path
           d="m 48,47.36 9.53,17.55 C 51.69,67.14 42.1,65.6 42.1,65.6 L 48,47.36 Z"
           inkscape:connector-curvature="0"
           id="path4150"
           style="display:inline;fill:url(#linearGradient6530);fill-opacity:1;fill-rule:nonzero;stroke:none" />
        <path
           inkscape:connector-curvature="0"
           d="m -6.875,24.37 a 11.75,7.75 0 1 1 -23.495,0 11.75,7.75 0 1 1 23.495,0 z"
           transform="matrix(2.366,0,0,2.37,92.09,-10.59)"
           id="path4152"
           style="color:#000000;display:block;overflow:visible;visibility:visible;opacity:0.25;fill:none;stroke:url(#linearGradient6532);stroke-width:0.7272;stroke-linecap:butt;stroke-linejoin:miter;stroke-miterlimit:4;stroke-dasharray:none;stroke-dashoffset:0;stroke-opacity:1;marker:none" />
        <g
           id="text6421"
           style="font-style:normal;font-variant:normal;font-weight:normal;font-stretch:normal;font-size:4.3598px;line-height:125%;font-family:Sans;-inkscape-font-specification:Sans;text-align:start;letter-spacing:0px;word-spacing:0px;writing-mode:lr-tb;text-anchor:start;fill:#808080;fill-opacity:1;stroke:none">
          <path
             d="m 18.45,77.28 -0.58,1.58 1.17,0 -0.59,-1.58 m -0.24,-0.42 0.49,0 1.21,3.18 -0.45,0 -0.29,-0.82 -1.43,0 -0.29,0.82 -0.45,0 1.21,-3.18"
             inkscape:connector-curvature="0"
             id="path6426"
             style="fill:#808080" />
          <path
             style="fill:#808080"
             d="m 22.34,78.6 c 0,0.48 0,0.96 0,1.44 -0.13,0 -0.26,0 -0.4,0 0,-0.51 0,-1.01 0,-1.51 0,-0.22 -0.1,-0.47 -0.29,-0.55 -0.28,-0.11 -0.64,0 -0.8,0.24 -0.15,0.22 -0.11,0.51 -0.12,0.76 0,0.35 0,0.7 0,1.06 -0.13,0 -0.26,0 -0.39,0 0,-0.8 0,-1.59 0,-2.39 0.13,0 0.26,0 0.39,0 0,0.12 0,0.25 0,0.37 0.15,-0.24 0.42,-0.42 0.71,-0.42 0.27,0 0.57,0.1 0.72,0.3 0.14,0.2 0.18,0.46 0.18,0.7 z"
             id="path6428"
             inkscape:connector-curvature="0" />
          <path
             style="fill:#808080"
             d="m 25.1,78.6 c 0,0.48 0,0.96 0,1.44 -0.13,0 -0.26,0 -0.39,0 0,-0.51 0,-1.01 0,-1.51 0,-0.22 -0.1,-0.47 -0.3,-0.55 -0.27,-0.11 -0.63,0 -0.79,0.24 -0.15,0.22 -0.12,0.51 -0.12,0.76 0,0.35 0,0.7 0,1.06 -0.13,0 -0.26,0 -0.39,0 0,-0.8 0,-1.59 0,-2.39 0.13,0 0.26,0 0.39,0 0,0.12 0,0.25 0,0.37 0.15,-0.24 0.42,-0.42 0.71,-0.42 0.27,0 0.57,0.1 0.72,0.3 0.14,0.2 0.17,0.46 0.17,0.7 z"
             id="path6430"
             inkscape:connector-curvature="0" />
          <path
             style="fill:#808080"
             d="m 25.85,79.09 c 0,-0.48 0,-0.96 0,-1.44 0.13,0 0.26,0 0.39,0 0,0.5 0,1.01 0,1.51 0,0.21 0.1,0.47 0.3,0.55 0.27,0.11 0.63,0 0.79,-0.24 0.15,-0.22 0.12,-0.5 0.12,-0.75 0,-0.36 0,-0.71 0,-1.07 0.13,0 0.26,0 0.4,0 0,0.8 0,1.59 0,2.39 -0.14,0 -0.27,0 -0.4,0 0,-0.13 0,-0.25 0,-0.37 -0.14,0.24 -0.4,0.42 -0.69,0.42 -0.27,0 -0.58,-0.1 -0.74,-0.3 -0.14,-0.2 -0.17,-0.46 -0.17,-0.7 z"
             id="path6432"
             inkscape:connector-curvature="0" />
          <path
             d="m 29.74,78.84 c -0.32,0 -0.54,0 -0.66,0.11 -0.12,0.1 -0.18,0.19 -0.18,0.37 0,0.13 0,0.25 0.14,0.33 0.1,0.1 0.21,0.12 0.37,0.12 0.22,0 0.39,-0.1 0.52,-0.23 0.13,-0.16 0.2,-0.36 0.2,-0.62 l 0,-0.1 -0.39,0 m 0.78,-0.17 0,1.37 -0.39,0 0,-0.37 c -0.1,0.15 -0.2,0.26 -0.33,0.32 -0.14,0.1 -0.3,0.11 -0.49,0.11 -0.25,0 -0.44,-0.1 -0.59,-0.21 -0.14,-0.14 -0.21,-0.32 -0.21,-0.55 0,-0.27 0.1,-0.47 0.27,-0.61 0.18,-0.13 0.44,-0.2 0.8,-0.2 l 0.55,0 0,0 c 0,-0.18 -0.1,-0.32 -0.18,-0.42 -0.12,-0.1 -0.28,-0.14 -0.5,-0.14 -0.13,0 -0.27,0 -0.4,0 -0.12,0 -0.25,0.1 -0.37,0.15 l 0,-0.36 c 0.15,-0.1 0.28,-0.1 0.42,-0.12 0.13,0 0.27,0 0.39,0 0.35,0 0.61,0.1 0.78,0.27 0.17,0.18 0.25,0.45 0.25,0.81"
             inkscape:connector-curvature="0"
             id="path6434"
             style="fill:#808080" />
          <path
             d="m 31.33,76.72 0.39,0 0,3.32 -0.39,0 0,-3.32"
             inkscape:connector-curvature="0"
             id="path6436"
             style="fill:#808080" />
          <path
             d="m 35.5,78.01 0,-1.29 0.39,0 0,3.32 -0.39,0 0,-0.36 c -0.1,0.14 -0.19,0.25 -0.32,0.31 -0.12,0.1 -0.27,0.11 -0.45,0.11 -0.29,0 -0.52,-0.12 -0.7,-0.35 -0.18,-0.23 -0.27,-0.53 -0.27,-0.9 0,-0.38 0.1,-0.68 0.27,-0.91 0.18,-0.23 0.41,-0.35 0.7,-0.35 0.18,0 0.33,0 0.45,0.11 0.13,0.1 0.23,0.17 0.32,0.31 m -1.34,0.84 c 0,0.28 0.1,0.51 0.18,0.67 0.12,0.17 0.28,0.25 0.49,0.25 0.21,0 0.37,-0.1 0.49,-0.25 0.12,-0.16 0.18,-0.39 0.18,-0.67 0,-0.29 -0.1,-0.52 -0.18,-0.68 -0.12,-0.17 -0.28,-0.25 -0.49,-0.25 -0.21,0 -0.37,0.1 -0.49,0.25 -0.12,0.16 -0.18,0.39 -0.18,0.68"
             inkscape:connector-curvature="0"
             id="path6438"
             style="fill:#808080" />
          <path
             d="m 36.69,77.65 0.4,0 0,2.39 -0.4,0 0,-2.39 m 0,-0.93 0.4,0 0,0.5 -0.4,0 0,-0.5"
             inkscape:connector-curvature="0"
             id="path6440"
             style="fill:#808080" />
          <path
             d="m 39.42,77.72 0,0.37 c -0.11,-0.1 -0.22,-0.1 -0.34,-0.13 -0.12,0 -0.24,0 -0.37,0 -0.2,0 -0.34,0 -0.44,0.1 -0.1,0.1 -0.14,0.15 -0.14,0.27 0,0.1 0,0.16 0.1,0.21 0.1,0.1 0.21,0.1 0.42,0.15 l 0.13,0 c 0.28,0.1 0.48,0.14 0.6,0.25 0.11,0.11 0.17,0.26 0.17,0.46 0,0.22 -0.1,0.39 -0.26,0.52 -0.18,0.13 -0.42,0.2 -0.72,0.2 -0.13,0 -0.26,0 -0.4,0 -0.14,0 -0.29,-0.1 -0.44,-0.11 l 0,-0.41 c 0.14,0.1 0.29,0.14 0.43,0.17 0.14,0 0.28,0.1 0.41,0.1 0.19,0 0.33,0 0.43,-0.1 0.1,-0.1 0.15,-0.16 0.15,-0.27 0,-0.11 0,-0.19 -0.11,-0.25 -0.1,0 -0.23,-0.11 -0.47,-0.16 l -0.14,0 c -0.24,0 -0.41,-0.13 -0.52,-0.24 -0.11,-0.1 -0.16,-0.25 -0.16,-0.43 0,-0.23 0.1,-0.4 0.24,-0.52 0.15,-0.13 0.38,-0.19 0.67,-0.19 0.15,0 0.28,0 0.41,0 0.13,0 0.25,0.1 0.35,0.1"
             inkscape:connector-curvature="0"
             id="path6442"
             style="fill:#808080" />
          <path
             d="m 40.57,76.97 0,0.68 0.8,0 0,0.31 -0.8,0 0,1.29 c 0,0.19 0,0.32 0.1,0.37 0.1,0.1 0.17,0.1 0.33,0.1 l 0.4,0 0,0.33 -0.4,0 c -0.3,0 -0.51,-0.1 -0.63,-0.17 -0.11,-0.12 -0.17,-0.32 -0.17,-0.62 l 0,-1.29 -0.29,0 0,-0.31 0.29,0 0,-0.68 0.4,0"
             inkscape:connector-curvature="0"
             id="path6444"
             style="fill:#808080" />
          <path
             d="m 43.27,78.02 c 0,0 -0.1,0 -0.14,-0.1 -0.1,0 -0.11,0 -0.17,0 -0.23,0 -0.4,0.1 -0.52,0.22 -0.11,0.14 -0.17,0.35 -0.17,0.62 l 0,1.26 -0.4,0 0,-2.39 0.4,0 0,0.37 c 0.1,-0.14 0.19,-0.25 0.32,-0.32 0.13,-0.1 0.29,-0.11 0.48,-0.11 0,0 0.1,0 0.1,0 0,0 0.1,0 0.11,0 l 0,0.41"
             inkscape:connector-curvature="0"
             id="path6446"
             style="fill:#808080" />
          <path
             d="m 43.69,77.65 0.39,0 0,2.39 -0.39,0 0,-2.39 m 0,-0.93 0.39,0 0,0.5 -0.39,0 0,-0.5"
             inkscape:connector-curvature="0"
             id="path6448"
             style="fill:#808080" />
          <path
             d="m 46.61,78.85 c 0,-0.29 -0.1,-0.52 -0.18,-0.68 -0.12,-0.17 -0.28,-0.25 -0.49,-0.25 -0.21,0 -0.37,0.1 -0.49,0.25 -0.12,0.16 -0.18,0.39 -0.18,0.68 0,0.28 0.1,0.51 0.18,0.67 0.12,0.17 0.28,0.25 0.49,0.25 0.21,0 0.37,-0.1 0.49,-0.25 0.12,-0.16 0.18,-0.39 0.18,-0.67 m -1.34,-0.84 c 0.1,-0.14 0.19,-0.24 0.31,-0.31 0.13,-0.1 0.28,-0.11 0.46,-0.11 0.29,0 0.52,0.12 0.7,0.35 0.18,0.23 0.27,0.53 0.27,0.91 0,0.37 -0.1,0.67 -0.27,0.9 -0.18,0.23 -0.41,0.35 -0.7,0.35 -0.18,0 -0.33,0 -0.46,-0.11 -0.12,-0.1 -0.22,-0.17 -0.31,-0.31 l 0,0.36 -0.39,0 0,-3.32 0.39,0 0,1.29"
             inkscape:connector-curvature="0"
             id="path6450"
             style="fill:#808080" />
          <path
             d="m 47.62,79.09 0,-1.44 0.39,0 0,1.43 c 0,0.22 0.1,0.39 0.14,0.51 0.1,0.11 0.22,0.17 0.39,0.17 0.21,0 0.38,-0.1 0.5,-0.21 0.13,-0.13 0.19,-0.31 0.19,-0.55 l 0,-1.35 0.39,0 0,2.39 -0.39,0 0,-0.37 c -0.1,0.14 -0.21,0.25 -0.33,0.32 -0.13,0.1 -0.28,0.11 -0.44,0.11 -0.28,0 -0.48,-0.1 -0.62,-0.26 -0.15,-0.17 -0.22,-0.42 -0.22,-0.75 m 0.99,-1.5 0,0"
             inkscape:connector-curvature="0"
             id="path6452"
             style="fill:#808080" />
          <path
             d="m 50.82,76.97 0,0.68 0.8,0 0,0.31 -0.8,0 0,1.29 c 0,0.19 0,0.32 0.1,0.37 0.1,0.1 0.16,0.1 0.32,0.1 l 0.4,0 0,0.33 -0.4,0 c -0.3,0 -0.51,-0.1 -0.62,-0.17 -0.12,-0.12 -0.18,-0.32 -0.18,-0.62 l 0,-1.29 -0.28,0 0,-0.31 0.28,0 0,-0.68 0.4,0"
             inkscape:connector-curvature="0"
             id="path6454"
             style="fill:#808080" />
          <path
             d="m 52.14,77.65 0.39,0 0,2.39 -0.39,0 0,-2.39 m 0,-0.93 0.39,0 0,0.5 -0.39,0 0,-0.5"
             inkscape:connector-curvature="0"
             id="path6456"
             style="fill:#808080" />
          <path
             d="m 54.27,77.93 c -0.21,0 -0.37,0.1 -0.49,0.24 -0.13,0.17 -0.19,0.39 -0.19,0.68 0,0.28 0.1,0.51 0.18,0.67 0.13,0.16 0.29,0.24 0.5,0.24 0.21,0 0.38,-0.1 0.5,-0.24 0.12,-0.17 0.18,-0.39 0.18,-0.67 0,-0.29 -0.1,-0.51 -0.18,-0.68 -0.12,-0.16 -0.29,-0.24 -0.5,-0.24 m 0,-0.34 c 0.35,0 0.61,0.11 0.81,0.34 0.19,0.22 0.29,0.52 0.29,0.92 0,0.39 -0.1,0.69 -0.29,0.91 -0.2,0.23 -0.46,0.34 -0.81,0.34 -0.34,0 -0.61,-0.11 -0.8,-0.34 -0.19,-0.22 -0.29,-0.52 -0.29,-0.91 0,-0.4 0.1,-0.7 0.29,-0.92 0.19,-0.23 0.46,-0.34 0.8,-0.34"
             inkscape:connector-curvature="0"
             id="path6458"
             style="fill:#808080" />
          <path
             d="m 58,78.6 0,1.44 -0.39,0 0,-1.43 c 0,-0.23 0,-0.4 -0.14,-0.51 -0.1,-0.11 -0.22,-0.17 -0.39,-0.17 -0.21,0 -0.38,0.1 -0.5,0.21 -0.12,0.13 -0.19,0.31 -0.19,0.55 l 0,1.35 -0.39,0 0,-2.39 0.39,0 0,0.37 c 0.1,-0.14 0.21,-0.25 0.33,-0.32 0.13,-0.1 0.28,-0.11 0.45,-0.11 0.27,0 0.48,0.1 0.62,0.26 0.14,0.17 0.21,0.42 0.21,0.75"
             inkscape:connector-curvature="0"
             id="path6460"
             style="fill:#808080" />
          <path
             d="m 61.1,77.93 c -0.21,0 -0.38,0.1 -0.5,0.24 -0.12,0.17 -0.19,0.39 -0.19,0.68 0,0.28 0.1,0.51 0.19,0.67 0.12,0.16 0.28,0.24 0.5,0.24 0.2,0 0.37,-0.1 0.49,-0.24 0.12,-0.17 0.18,-0.39 0.18,-0.67 0,-0.29 -0.1,-0.51 -0.18,-0.68 -0.12,-0.16 -0.29,-0.24 -0.49,-0.24 m 0,-0.34 c 0.34,0 0.6,0.11 0.8,0.34 0.19,0.22 0.29,0.52 0.29,0.92 0,0.39 -0.1,0.69 -0.29,0.91 -0.2,0.23 -0.46,0.34 -0.8,0.34 -0.35,0 -0.61,-0.11 -0.81,-0.34 C 60.1,79.54 60,79.24 60,78.85 c 0,-0.4 0.1,-0.7 0.29,-0.92 0.2,-0.23 0.46,-0.34 0.81,-0.34"
             inkscape:connector-curvature="0"
             id="path6462"
             style="fill:#808080" />
          <path
             d="m 64.04,76.72 0,0.33 -0.37,0 c -0.14,0 -0.24,0 -0.29,0.1 -0.1,0.1 -0.1,0.16 -0.1,0.31 l 0,0.21 0.65,0 0,0.31 -0.65,0 0,2.08 -0.39,0 0,-2.08 -0.37,0 0,-0.31 0.37,0 0,-0.17 c 0,-0.26 0.1,-0.45 0.19,-0.57 0.12,-0.13 0.32,-0.19 0.58,-0.19 l 0.37,0"
             inkscape:connector-curvature="0"
             id="path6464"
             style="fill:#808080" />
          <path
             d="m 66.14,79.68 0,1.26 -0.4,0 0,-3.29 0.4,0 0,0.36 c 0.1,-0.14 0.18,-0.24 0.31,-0.31 0.12,-0.1 0.27,-0.11 0.45,-0.11 0.29,0 0.52,0.12 0.7,0.35 0.18,0.23 0.28,0.53 0.28,0.91 0,0.37 -0.1,0.67 -0.28,0.9 -0.18,0.23 -0.41,0.35 -0.7,0.35 -0.18,0 -0.33,0 -0.45,-0.11 -0.13,-0.1 -0.23,-0.17 -0.31,-0.31 m 1.33,-0.83 c 0,-0.29 -0.1,-0.52 -0.18,-0.68 -0.12,-0.17 -0.28,-0.25 -0.49,-0.25 -0.2,0 -0.37,0.1 -0.49,0.25 -0.11,0.16 -0.17,0.39 -0.17,0.68 0,0.28 0.1,0.51 0.17,0.67 0.12,0.17 0.29,0.25 0.49,0.25 0.21,0 0.37,-0.1 0.49,-0.25 0.12,-0.16 0.18,-0.39 0.18,-0.67"
             inkscape:connector-curvature="0"
             id="path6466"
             style="fill:#808080" />
          <path
             d="m 69.91,78.02 c 0,0 -0.1,0 -0.15,-0.1 -0.1,0 -0.11,0 -0.17,0 -0.22,0 -0.39,0.1 -0.51,0.22 -0.12,0.14 -0.18,0.35 -0.18,0.62 l 0,1.26 -0.39,0 0,-2.39 0.39,0 0,0.37 c 0.1,-0.14 0.19,-0.25 0.33,-0.32 0.13,-0.1 0.29,-0.11 0.48,-0.11 0,0 0.1,0 0.1,0 0,0 0.1,0 0.1,0 l 0,0.41"
             inkscape:connector-curvature="0"
             id="path6468"
             style="fill:#808080" />
          <path
             d="m 71.15,77.93 c -0.21,0 -0.37,0.1 -0.5,0.24 -0.12,0.17 -0.18,0.39 -0.18,0.68 0,0.28 0.1,0.51 0.18,0.67 0.12,0.16 0.29,0.24 0.5,0.24 0.21,0 0.38,-0.1 0.5,-0.24 0.12,-0.17 0.18,-0.39 0.18,-0.67 0,-0.29 -0.1,-0.51 -0.18,-0.68 -0.12,-0.16 -0.29,-0.24 -0.5,-0.24 m 0,-0.34 c 0.34,0 0.61,0.11 0.8,0.34 0.2,0.22 0.3,0.52 0.3,0.92 0,0.39 -0.1,0.69 -0.3,0.91 -0.19,0.23 -0.46,0.34 -0.8,0.34 -0.34,0 -0.61,-0.11 -0.8,-0.34 -0.2,-0.22 -0.29,-0.52 -0.29,-0.91 0,-0.4 0.1,-0.7 0.29,-0.92 0.19,-0.23 0.46,-0.34 0.8,-0.34"
             inkscape:connector-curvature="0"
             id="path6470"
             style="fill:#808080" />
          <path
             d="m 74.82,77.65 0,2.39 -0.39,0 0,-2.08 -1.08,0 0,2.08 -0.39,0 0,-2.08 -0.38,0 0,-0.31 0.38,0 0,-0.17 c 0,-0.25 0.1,-0.45 0.18,-0.57 0.12,-0.12 0.31,-0.19 0.57,-0.19 l 0.39,0 0,0.33 -0.37,0 c -0.14,0 -0.24,0 -0.3,0.1 -0.1,0.1 -0.1,0.16 -0.1,0.31 l 0,0.21 1.47,0 m -0.39,-0.92 0.39,0 0,0.49 -0.39,0 0,-0.49"
             inkscape:connector-curvature="0"
             id="path6472"
             style="fill:#808080" />
          <path
             d="m 76.03,76.97 0,0.68 0.81,0 0,0.31 -0.81,0 0,1.29 c 0,0.19 0,0.32 0.1,0.37 0,0.1 0.16,0.1 0.33,0.1 l 0.4,0 0,0.33 -0.4,0 c -0.31,0 -0.52,-0.1 -0.63,-0.17 -0.12,-0.12 -0.17,-0.32 -0.17,-0.62 l 0,-1.29 -0.29,0 0,-0.31 0.29,0 0,-0.68 0.39,0"
             inkscape:connector-curvature="0"
             id="path6474"
             style="fill:#808080" />
          <path
             d="m 78.88,77.72 0,0.37 c -0.12,-0.1 -0.23,-0.1 -0.35,-0.13 -0.12,0 -0.24,0 -0.37,0 -0.19,0 -0.34,0 -0.44,0.1 -0.1,0.1 -0.14,0.15 -0.14,0.27 0,0.1 0,0.16 0.1,0.21 0.1,0.1 0.21,0.1 0.42,0.15 l 0.13,0 c 0.28,0.1 0.48,0.14 0.6,0.25 0.11,0.11 0.17,0.26 0.17,0.46 0,0.22 -0.1,0.39 -0.26,0.52 -0.18,0.13 -0.42,0.2 -0.72,0.2 -0.13,0 -0.26,0 -0.4,0 -0.14,0 -0.29,-0.1 -0.44,-0.11 l 0,-0.41 c 0.15,0.1 0.29,0.14 0.43,0.17 0.14,0 0.28,0.1 0.42,0.1 0.18,0 0.32,0 0.42,-0.1 0.1,-0.1 0.15,-0.16 0.15,-0.27 0,-0.11 0,-0.19 -0.11,-0.25 -0.1,0 -0.23,-0.11 -0.47,-0.16 l -0.13,0 c -0.25,0 -0.42,-0.13 -0.53,-0.24 -0.11,-0.1 -0.16,-0.25 -0.16,-0.43 0,-0.23 0.1,-0.4 0.24,-0.52 0.16,-0.13 0.38,-0.19 0.67,-0.19 0.15,0 0.28,0 0.41,0 0.13,0 0.25,0.1 0.36,0.1"
             inkscape:connector-curvature="0"
             id="path6476"
             style="fill:#808080" />
        </g>
      </g>
    </g>
    <g
       id="layer7"
       style="display:inline">
      <path
         d="m 18,1.031 c -1.35,0 -2.44,1.135 -2.44,2.469 l 0,1.031 0,1.469 4.88,0 0,-0.03 2.09,0 0,2 C 22.44,7.89 22.39,7.783 22.28,7.719 21.46,7.221 20.5,7.316 19.78,7.75 19.09,8.167 18.58,8.919 18.59,9.813 l 0,10.057 0,0 c 0,0.53 0.17,1.19 0.66,1.71 a 0.9621,0.9621 0 0 0 0.19,0.19 l 1.78,1.85 c 0.43,0.44 1.02,0.78 1.72,0.78 0.69,0 1.29,-0.34 1.72,-0.78 l 1.78,-1.85 0.1,0 a 0.9621,0.9621 0 0 0 0.13,-0.12 c 0.43,-0.47 0.69,-1.09 0.68,-1.72 0,0 0,0 0,0 l 0,-16.41 c 0,-1.336 -1.08,-2.47 -2.43,-2.469 l -6.91,0 z"
         inkscape:connector-curvature="0"
         id="path6784"
         style="display:inline;opacity:0.1;fill:#000000;fill-opacity:1;stroke:none" />
      <path
         d="m 18,2 c -0.8,10e-4 -1.47,0.692 -1.47,1.5 l 0,1.031 0,1.469 2.94,0 0,-1 0.44,0 3.59,0 0,14.31 -0.5,0.53 -0.5,-0.53 0,-9.529 c 0,-0.509 -0.24,-0.982 -0.69,-1.25 -0.47,-0.284 -1.07,-0.23 -1.5,0.03 -0.43,0.261 -0.72,0.715 -0.72,1.25 l 0,10.099 c 0,0.36 0.1,0.75 0.38,1.06 L 21.94,23 c 0.27,0.28 0.64,0.47 1.03,0.47 0.39,0 0.76,-0.19 1.03,-0.47 l 1.94,-2 c 0.27,-0.29 0.41,-0.67 0.4,-1.06 l 0,-16.44 C 26.38,2.691 25.71,1.999 24.91,2 L 18,2 Z"
         inkscape:connector-curvature="0"
         id="path6753"
         style="display:inline;opacity:0.2;fill:#000000;fill-opacity:1;stroke:none" />
      <path
         d="m 18,2.469 c -0.54,0 -1,0.468 -1,1.031 l 0,1.031 0,1.469 2,0 0,-1.469 0.91,0 4.06,0 0,14.969 -0.94,1 -1,-1.03 0,-9.689 c 0,-0.368 -0.16,-0.69 -0.47,-0.875 -0.31,-0.185 -0.69,-0.154 -1,0.03 -0.31,0.185 -0.5,0.507 -0.5,0.875 l 0,10.099 c 0,0.27 0.1,0.55 0.25,0.75 l 1.97,2.03 c 0.19,0.2 0.45,0.31 0.72,0.31 0.27,0 0.53,-0.11 0.72,-0.31 l 1.93,-2 c 0.19,-0.2 0.29,-0.48 0.29,-0.75 l 0,-16.442 c 0,-0.563 -0.46,-1.032 -1,-1.031 l -6.91,0 z"
         inkscape:connector-curvature="0"
         id="path6747"
         style="display:inline;opacity:0.3;fill:#000000;fill-opacity:1;stroke:none" />
      <path
         d="M 18,1.937 C 17.46,1.938 17,2.406 17,2.969 L 17,4 l 0,2 2,0 0,-2 0.91,0 4.06,0 0,14.97 -0.94,1 -1,-1.03 0,-9.69 c 0,-0.368 -0.16,-0.69 -0.47,-0.875 -0.31,-0.185 -0.69,-0.154 -1,0.03 -0.31,0.186 -0.5,0.507 -0.5,0.875 l 0,10.09 c 0,0.28 0.1,0.56 0.25,0.75 l 1.97,2.04 c 0.19,0.19 0.45,0.31 0.72,0.31 0.27,0 0.53,-0.11 0.72,-0.31 l 1.93,-2 c 0.19,-0.2 0.29,-0.48 0.29,-0.75 l 0,-16.442 c 0,-0.563 -0.46,-1.032 -1,-1.032 z"
         inkscape:connector-curvature="0"
         id="Symbol"
         style="display:inline;fill:url(#linearGradient6745);fill-opacity:1;stroke:none" />
      <path
         d="m -12.01,21.65 c 0.19,-0.2 0.32,-0.47 0.31,-0.74 l 0,-14.671 c 0,-0.368 -0.21,-0.723 -0.53,-0.908 -0.32,-0.185 -0.68,-0.187 -1,0 -0.32,0.185 -0.53,0.539 -0.53,0.907 l 0,14.232 -4.06,4.06 -4.16,-4.16 0,-17.15 5.16,0 0,12.76 -0.98,0.97 -1.03,-1.03 0,-9.669 c 0,-0.368 -0.19,-0.699 -0.51,-0.884 -0.31,-0.185 -0.7,-0.163 -1.02,0.02 -0.32,0.186 -0.51,0.516 -0.5,0.884 l 0,10.099 c 0,0.28 0.1,0.55 0.27,0.74 l 2.03,2.04 c 0.19,0.19 0.46,0.31 0.74,0.31 0.28,0 0.55,-0.11 0.74,-0.31 l 2,-2.01 c 0.19,-0.19 0.32,-0.46 0.31,-0.74 l 0,-14.231 c 0,-0.563 -0.47,-1.029 -1.03,-1.028 l -7.19,0.02 c -0.56,0 -1.03,0.462 -1.03,1.026 l 0,18.633 c 0,0.28 0.1,0.55 0.27,0.74 l 5.19,5.14 c 0.22,0.23 0.54,0.33 0.86,0.29 0.22,0 0.43,-0.1 0.59,-0.26 l 5.08,-5.08 z"
         inkscape:connector-curvature="0"
         id="path6717"
         style="display:inline;fill:url(#linearGradient6719);fill-opacity:1;stroke:none" />
      <path
         d="m 18,1.937 c -0.54,10e-4 -1,0.469 -1,1.032 l 0,1 c 0,-0.563 0.46,-1.031 1,-1.031 l 6.91,0 c 0.54,0 1,0.468 1,1.031 l 0,-1 c 0,-0.563 -0.46,-1.032 -1,-1.032 l -6.91,0 z m 3.03,6.313 c -0.17,0 -0.35,0.06 -0.5,0.156 -0.31,0.186 -0.5,0.507 -0.5,0.875 l 0,0.999 c 0,-0.367 0.19,-0.688 0.5,-0.874 0.31,-0.185 0.69,-0.216 1,-0.03 0.31,0.185 0.48,0.507 0.47,0.874 L 22,9.251 C 22.01,8.882 21.84,8.56 21.53,8.375 21.38,8.282 21.2,8.242 21.03,8.25 Z m 0.97,10.69 0,1 1,1.03 0.94,-1 0,-1 -0.94,1 -1,-1.03 z"
         inkscape:connector-curvature="0"
         id="path6759"
         style="display:inline;fill:#ffffff;fill-opacity:1;stroke:none" />
      <rect
         width="2"
         height="2"
         x="-6"
         y="17"
         transform="matrix(0,-1,1,0,0,0)"
         id="rect6789"
         style="color:#000000;display:inline;overflow:visible;visibility:visible;opacity:0.2;fill:url(#linearGradient6797);fill-opacity:1;fill-rule:nonzero;stroke:none;stroke-width:0.3;marker:none;enable-background:accumulate" />
    </g>
  </g>
</svg>
