<?xml version="1.0" encoding="UTF-8" standalone="no"?>
<!-- Created with Inkscape (http://www.inkscape.org/) -->

<svg
   xmlns:dc="http://purl.org/dc/elements/1.1/"
   xmlns:cc="http://creativecommons.org/ns#"
   xmlns:rdf="http://www.w3.org/1999/02/22-rdf-syntax-ns#"
   xmlns:svg="http://www.w3.org/2000/svg"
   xmlns="http://www.w3.org/2000/svg"
   xmlns:xlink="http://www.w3.org/1999/xlink"
   xmlns:sodipodi="http://sodipodi.sourceforge.net/DTD/sodipodi-0.dtd"
   xmlns:inkscape="http://www.inkscape.org/namespaces/inkscape"
   version="1.0"
   width="96"
   height="96"
   id="svg2408"
   inkscape:version="0.91 r"
   sodipodi:docname="gnome-activity-journal.svg">
  <title
     id="title64">gnome-activity-journal</title>
  <sodipodi:namedview
     pagecolor="#ffffff"
     bordercolor="#666666"
     borderopacity="1"
     objecttolerance="10"
     gridtolerance="10"
     guidetolerance="10"
     inkscape:pageopacity="0"
     inkscape:pageshadow="2"
     inkscape:window-width="1280"
     inkscape:window-height="965"
     id="namedview59"
     showgrid="false"
     inkscape:zoom="2"
     inkscape:cx="62.2548"
     inkscape:cy="-7.42746"
     inkscape:window-x="0"
     inkscape:window-y="27"
     inkscape:window-maximized="1"
     inkscape:current-layer="svg2408" />
  <defs
     id="defs2410">
    <linearGradient
       id="linearGradient4933">
      <stop
         id="stop4935"
         style="stop-color:#ebebeb;stop-opacity:1"
         offset="0" />
      <stop
         id="stop4937"
         style="stop-color:#fafafa;stop-opacity:1"
         offset="1" />
    </linearGradient>
    <linearGradient
       id="linearGradient4917">
      <stop
         id="stop4919"
         style="stop-color:#2684a3;stop-opacity:1"
         offset="0" />
      <stop
         id="stop4921"
         style="stop-color:#46b0d4;stop-opacity:1"
         offset="1" />
    </linearGradient>
    <linearGradient
       x1="45.447727"
       y1="92.539597"
       x2="45.447727"
       y2="7.0165396"
       id="ButtonShadow"
       gradientUnits="userSpaceOnUse"
       gradientTransform="scale(1.0058652,0.994169)">
      <stop
         id="stop3750"
         style="stop-color:#000000;stop-opacity:1"
         offset="0" />
      <stop
         id="stop3752"
         style="stop-color:#000000;stop-opacity:0.58823532"
         offset="1" />
    </linearGradient>
    <linearGradient
       id="linearGradient3737">
      <stop
         id="stop3739"
         style="stop-color:#ffffff;stop-opacity:1"
         offset="0" />
      <stop
         id="stop3741"
         style="stop-color:#ffffff;stop-opacity:0"
         offset="1" />
    </linearGradient>
    <filter
       color-interpolation-filters="sRGB"
       id="filter3174">
      <feGaussianBlur
         id="feGaussianBlur3176"
         stdDeviation="1.71" />
    </filter>
    <linearGradient
       x1="36.357143"
       y1="6"
       x2="36.357143"
       y2="63.893143"
       id="linearGradient3188"
       xlink:href="#linearGradient3737"
       gradientUnits="userSpaceOnUse" />
    <filter
       x="-0.192"
       y="-0.192"
       width="1.3839999"
       height="1.3839999"
       color-interpolation-filters="sRGB"
       id="filter3794">
      <feGaussianBlur
         id="feGaussianBlur3796"
         stdDeviation="5.28" />
    </filter>
    <linearGradient
       x1="48"
       y1="20.220806"
       x2="48"
       y2="138.66119"
       id="linearGradient3613"
       xlink:href="#linearGradient3737"
       gradientUnits="userSpaceOnUse" />
    <radialGradient
       cx="48"
       cy="90.171875"
       r="42"
       fx="48"
       fy="90.171875"
       id="radialGradient3619"
       xlink:href="#linearGradient3737"
       gradientUnits="userSpaceOnUse"
       gradientTransform="matrix(1.15731,0,0,0.995908,-7.55102,0.197132)" />
    <clipPath
       id="clipPath3613">
      <rect
         width="84"
         height="84"
         rx="6"
         ry="6"
         x="6"
         y="6"
         id="rect3615"
         style="fill:#ffffff;fill-opacity:1;fill-rule:nonzero;stroke:none" />
    </clipPath>
    <linearGradient
       x1="48"
       y1="90"
       x2="48"
       y2="5.9877172"
       id="linearGradient3617"
       xlink:href="#linearGradient4917"
       gradientUnits="userSpaceOnUse" />
    <linearGradient
       x1="45.447727"
       y1="92.539597"
       x2="45.447727"
       y2="7.0165396"
       id="ButtonShadow-0"
       gradientUnits="userSpaceOnUse"
       gradientTransform="matrix(1.0058652,0,0,0.994169,100,0)">
      <stop
         id="stop3750-8"
         style="stop-color:#000000;stop-opacity:1"
         offset="0" />
      <stop
         id="stop3752-5"
         style="stop-color:#000000;stop-opacity:0.58823532"
         offset="1" />
    </linearGradient>
    <linearGradient
       x1="32.251034"
       y1="6.1317081"
       x2="32.251034"
       y2="90.238609"
       id="linearGradient3780"
       xlink:href="#ButtonShadow-0"
       gradientUnits="userSpaceOnUse"
       gradientTransform="matrix(1.0238095,0,0,1.0119048,-1.1428571,-98.071429)" />
    <linearGradient
       x1="32.251034"
       y1="6.1317081"
       x2="32.251034"
       y2="90.238609"
       id="linearGradient3772"
       xlink:href="#ButtonShadow-0"
       gradientUnits="userSpaceOnUse"
       gradientTransform="matrix(1.0238095,0,0,1.0119048,-1.1428571,-98.071429)" />
    <linearGradient
       x1="32.251034"
       y1="6.1317081"
       x2="32.251034"
       y2="90.238609"
       id="linearGradient3725"
       xlink:href="#ButtonShadow-0"
       gradientUnits="userSpaceOnUse"
       gradientTransform="matrix(1.0238095,0,0,1.0119048,-1.1428571,-98.071429)" />
    <linearGradient
       x1="32.251034"
       y1="6.1317081"
       x2="32.251034"
       y2="90.238609"
       id="linearGradient3721"
       xlink:href="#ButtonShadow-0"
       gradientUnits="userSpaceOnUse"
       gradientTransform="translate(0,-97)" />
    <linearGradient
       x1="32.251034"
       y1="6.1317081"
       x2="32.251034"
       y2="90.238609"
       id="linearGradient3026"
       xlink:href="#ButtonShadow-0"
       gradientUnits="userSpaceOnUse"
       gradientTransform="matrix(1.0238095,0,0,1.0119048,-1.1428571,-98.071429)" />
    <linearGradient
       x1="48"
       y1="80"
       x2="48"
       y2="15.501938"
       id="linearGradient4939"
       xlink:href="#linearGradient4933"
       gradientUnits="userSpaceOnUse" />
  </defs>
  <metadata
     id="metadata2413">
    <rdf:RDF>
      <cc:Work
         rdf:about="">
        <dc:format>image/svg+xml</dc:format>
        <dc:type
           rdf:resource="http://purl.org/dc/dcmitype/StillImage" />
        <dc:title>gnome-activity-journal</dc:title>
        <dc:subject>
          <rdf:Bag>
            <rdf:li>gnome-activity-journal</rdf:li>
          </rdf:Bag>
        </dc:subject>
        <dc:description>gnome-activity-journal</dc:description>
      </cc:Work>
    </rdf:RDF>
  </metadata>
  <g
     id="layer2"
     style="display:none">
    <rect
       width="86"
       height="85"
       rx="6"
       ry="6"
       x="5"
       y="7"
       id="rect3745"
       style="opacity:0.9;fill:url(#ButtonShadow);fill-opacity:1;fill-rule:nonzero;stroke:none;filter:url(#filter3174)" />
  </g>
  <g
     id="layer3">
    <path
       d="m 12,-95.03125 c -5.5110903,0 -10.03125,4.52016 -10.03125,10.03125 l 0,71 c 0,5.5110902 4.5201598,10.03125 10.03125,10.03125 l 72,0 c 5.51109,0 10.03125,-4.5201597 10.03125,-10.03125 l 0,-71 c 0,-5.51109 -4.52016,-10.03125 -10.03125,-10.03125 l -72,0 z"
       transform="scale(1,-1)"
       id="path3786"
       style="opacity:0.07999998;fill:url(#linearGradient3026);fill-opacity:1;fill-rule:nonzero;stroke:none;display:inline" />
    <path
       d="m 12,-94.03125 c -4.971633,0 -9.03125,4.059617 -9.03125,9.03125 l 0,71 c 0,4.9716329 4.0596171,9.03125 9.03125,9.03125 l 72,0 c 4.971633,0 9.03125,-4.059617 9.03125,-9.03125 l 0,-71 c 0,-4.971633 -4.059617,-9.03125 -9.03125,-9.03125 l -72,0 z"
       transform="scale(1,-1)"
       id="path3778"
       style="opacity:0.1;fill:url(#linearGradient3780);fill-opacity:1;fill-rule:nonzero;stroke:none;display:inline" />
    <path
       d="m 12,-93 c -4.4091333,0 -8,3.590867 -8,8 l 0,71 c 0,4.4091333 3.5908667,8 8,8 l 72,0 c 4.409133,0 8,-3.5908667 8,-8 l 0,-71 c 0,-4.409133 -3.590867,-8 -8,-8 l -72,0 z"
       transform="scale(1,-1)"
       id="path3770"
       style="opacity:0.2;fill:url(#linearGradient3772);fill-opacity:1;fill-rule:nonzero;stroke:none;display:inline" />
    <rect
       width="86"
       height="85"
       rx="7"
       ry="7"
       x="5"
       y="-92"
       transform="scale(1,-1)"
       id="rect3723"
       style="opacity:0.3;fill:url(#linearGradient3725);fill-opacity:1;fill-rule:nonzero;stroke:none;display:inline" />
    <rect
       width="84"
       height="84"
       rx="6"
       ry="6"
       x="6"
       y="-91"
       transform="scale(1,-1)"
       id="rect3716"
       style="opacity:0.45;fill:url(#linearGradient3721);fill-opacity:1;fill-rule:nonzero;stroke:none;display:inline" />
  </g>
  <g
     id="layer1">
    <rect
       width="84"
       height="84"
       rx="6"
       ry="6"
       x="6"
       y="6"
       id="rect2419"
       style="fill:url(#linearGradient3617);fill-opacity:1;fill-rule:nonzero;stroke:none" />
    <path
       style="opacity:0.5;fill:url(#linearGradient3188);fill-opacity:1;fill-rule:nonzero;stroke:none"
       d="M 12,6 C 8.11425,5.86322 5.41842,9.7916 6,13.4226 6.01818,37.1117 5.96366,60.8028 6.02722,84.4906 5.28212,86.832 10.5383,90.304 9.3125,89.2188 6.06854,87.1931 7.20932,83.0939 7,79.9177 7.01709,57.4405 6.96584,34.9616 7.02559,12.4854 7.23709,9.18494 10.6966,7.53688 13.6597,8 c 23.6181,0.0171 47.2379,-0.0342 70.8549,0.0256 3.3005,0.2115 4.9485,3.67101 4.4854,6.63411 -0.023,23.6263 0.047,47.2557 -0.035,70.8801 0.6394,2.1759 -4.9496,5.3488 -1.4521,3.2816 C 91.0463,86.3401 89.75,81.8397 90,78.2064 89.9794,55.9328 90.0412,33.6571 89.9691,11.3848 89.7161,7.60949 85.8108,5.47598 82.3403,6 58.8935,6 35.4468,6 12,6 Z"
       id="rect3728"
       inkscape:connector-curvature="0" />
    <path
       style="opacity:0.2;fill:url(#radialGradient3619);fill-opacity:1;fill-rule:nonzero;stroke:none"
       d="M 12,90 C 8.11425,90.1368 5.41842,86.2084 6,82.5774 6.01818,58.8883 5.96366,35.1972 6.02722,11.5094 5.92294,8.39456 10.5383,5.696 9.3125,6.78125 6.06854,8.80692 7.20932,12.9061 7,16.0823 7.0171,38.5595 6.9658,61.0384 7.0256,83.5146 7.2371,86.8151 10.6966,88.4631 13.6597,88 37.2778,87.983 60.8976,88.034 84.5146,87.974 87.8151,87.7629 89.4631,84.3034 89,81.3403 88.9765,57.714 89.0469,34.0846 88.9648,10.4602 89.6042,8.28431 84.0152,5.11138 87.5127,7.17856 91.0463,9.65991 89.75,14.1603 90,17.7936 c -0.021,22.2736 0.041,44.5493 -0.031,66.8216 -0.253,3.7753 -4.1583,5.9088 -7.6288,5.3848 z"
       id="path3615"
       inkscape:connector-curvature="0"
       sodipodi:nodetypes="ccccccccccccccc" />
  </g>
  <g
     id="layer5">
    <rect
       width="66"
       height="66"
       rx="12"
       ry="12"
       x="15"
       y="15"
       clip-path="url(#clipPath3613)"
       id="rect3171"
       style="opacity:0.1;fill:url(#linearGradient3613);fill-opacity:1;fill-rule:nonzero;stroke:#ffffff;stroke-width:0.5;stroke-linecap:round;stroke-linejoin:miter;stroke-miterlimit:4;stroke-opacity:1;stroke-dasharray:none;stroke-dashoffset:0;filter:url(#filter3794)" />
  </g>
  <g
     id="layer4">
    <path
       d="m 47.5,12.9375 c -15.9132,0 -28.8195,12.8265 -30.2812,28.9688 -0.9682,1.1104 -2.0902,2.2519 -3.0001,3.8437 -1.1023,1.9284 -1.6706,4.3806 -1.25,7.1875 0.4553,3.0375 2.2989,5.1775 4.3438,6.2813 1.1506,0.621 2.2001,0.775 3.2188,0.9375 1.8503,7.3703 -0.062,10.9355 -1.625,14.0312 -0.3809,0.7545 -0.8172,1.5382 -1.125,2.4688 -0.3251,0.9826 -0.5288,2.3283 0.062,3.6875 0.598,1.3747 1.7951,2.1834 2.9062,2.6875 1.1057,0.5016 2.3925,0.8332 4,1.1562 11.5769,2.326 30.0405,0.6886 44.75,-17.0625 5.1122,-6.1693 7.5731,-13.1167 8.3438,-20.6562 0.6247,-0.4471 1.4566,-1.0278 2.5,-2.2813 1.5279,-1.8358 3.0965,-4.5804 2.8125,-7.9375 l 0,-0.031 0.031,0 0,-0.031 c -0.01,-0.021 -0.02,-0.042 -0.031,-0.062 6e-4,-0.021 6e-4,-0.042 0,-0.062 0,7e-4 -2e-4,-0.157 0,-0.1562 0,2e-4 -0.024,-0.031 -0.031,-0.062 0,-0.024 -0.027,-0.039 -0.031,-0.062 0,-0.01 -1e-4,-0.031 0,-0.031 -0.5853,-3.0313 -2.4771,-5.2388 -4.7188,-6.4687 -1.7475,-0.9589 -3.6038,-1.284 -5.3437,-1.5 C 67.6339,18.9772 58.2985,12.9375 47.5,12.9375 Z m 3.7188,11.9688 c 8.4468,0 15.2812,7.0011 15.2812,15.9062 0,5.0802 -2.3186,9.4396 -5.8125,12.3438 -0.1241,-0.9525 -0.2873,-2.0837 -0.5,-3.2813 -0.3929,-2.7058 -0.7804,-5.2973 -1.8102,-7.2797 0.4159,-0.9403 0.75,-1.9615 0.75,-3.0938 0,-1.3493 -0.456,-2.5293 -1.0312,-3.5937 0.5218,-0.6322 0.6416,-1.3703 0.622,-2.1225 -0.019,-0.745 -0.1937,-2.081 -0.5,-3.375 -0.4351,-1.8062 -1.5197,-3.6412 -2.9375,-4.2188 -0.375,-0.1433 -0.9585,-0.284 -1.6875,-0.1875 -1.5513,0.2387 -2.6378,1.2391 -3.625,2.25 -0.7866,0.8313 -1.5004,1.7171 -1.9375,2.2813 -0.4819,0.6254 -0.5698,1.211 -0.5915,1.9976 -2.4365,1.3885 -4.125,3.9827 -4.125,6.9687 0,2.9998 1.6988,5.6072 4.1563,7 0.013,1.435 0.9514,2.4305 1.747,3.4357 0.6591,0.8541 1.5445,1.9817 2.4375,3.0938 0.8802,1.0843 1.7767,2.1958 2.6252,3.1565 -1.0106,0.2398 -1.9952,0.5625 -3.0625,0.5625 -8.4399,0 -15.2813,-7.0328 -15.2813,-15.9375 0,-8.9051 6.8344,-15.9062 15.2813,-15.9062 z"
       id="path4973"
       style="opacity:0.05;fill:#000000;fill-opacity:1"
       inkscape:connector-curvature="0"
       sodipodi:nodetypes="scssscsssssscsccccccccccscscscccscsccccccsccccsssc" />
    <path
       d="m 47.5,13.9687 c -15.4883,0 -28.0941,12.5765 -29.3437,28.4063 -1.0333,1.2044 -2.1909,2.3501 -3.0626,3.875 -0.9945,1.7398 -1.5134,3.9395 -1.125,6.5313 0.4068,2.7139 2.0205,4.5639 3.8126,5.5312 1.2661,0.6834 2.5107,0.9378 3.625,1.0625 0.014,0.031 0.016,0.062 0.031,0.094 2.1305,7.9565 -0.036,12.0402 -1.625,15.1875 -0.3925,0.7774 -0.7929,1.4975 -1.0625,2.3125 -0.2773,0.8381 -0.426,1.9176 0.031,2.9687 0.46,1.0576 1.3827,1.7061 2.375,2.1563 0.9896,0.4489 2.2079,0.7776 3.7812,1.0937 11.2845,2.2672 29.3185,0.7345 43.7813,-16.7187 5.0757,-6.1253 7.485,-12.9763 8.1875,-20.5313 0.6213,-0.4411 1.5465,-1.073 2.6562,-2.4062 1.4318,-1.7203 2.8469,-4.1952 2.5938,-7.1875 0.02,-0.1059 -0.022,-0.219 -0.031,-0.3122 -0.5042,-2.7678 -2.2128,-4.726 -4.25,-5.8438 -1.7118,-0.9392 -3.6036,-1.3015 -5.4062,-1.5 C 67.2809,19.9332 58.0874,13.9687 47.5,13.9687 Z m 3.7188,9.9063 c 9.0125,0 16.3125,7.5067 16.3125,16.9375 0,6.1062 -3.081,11.3857 -7.6875,14.375 -0.5614,-2.62 -1.4588,-12.1675 -2.6877,-12.3125 0.5559,-1.0198 0.9375,-2.144 0.9375,-3.375 0,-1.4243 -0.5208,-2.6952 -1.25,-3.8125 0.6345,-0.4202 0.8859,-1.1971 0.874,-1.782 -0.024,-1.1652 -0.277,-2.2876 -0.5,-3.2497 -0.3655,-1.4384 -1.126,-3.0464 -2.3125,-3.5313 -1.6502,-0.4829 -3.1369,0.7604 -4.1875,1.8125 -0.7461,0.7884 -1.4476,1.6672 -1.875,2.2188 -0.473,0.594 -0.3996,1.1982 -0.312,1.8745 -2.4658,1.0783 -4.1875,3.5984 -4.1875,6.4687 0,2.9033 1.7663,5.4659 4.2812,6.5313 -0.274,0.6961 -0.047,1.2204 0.28,1.8432 2.4257,3.1656 4.6212,6.3691 7.4687,8.9688 -1.6318,0.5666 -3.3408,0.9375 -5.1562,0.9375 -9.0082,0 -16.3125,-7.5381 -16.3125,-16.9688 0,-9.4308 7.2999,-16.9375 16.3125,-16.9375 z"
       id="path4969"
       style="opacity:0.1;fill:#000000;fill-opacity:1"
       inkscape:connector-curvature="0"
       sodipodi:nodetypes="scsssccsssssscsccscscsccscscccccscccsssc" />
    <path
       d="m 47.5,14.96875 c -15.054119,0 -27.337978,12.283762 -28.40625,27.78125 -1.112902,1.318067 -2.278177,2.518566 -3.125,4 -0.898949,1.572622 -1.388409,3.491768 -1.03125,5.875 0.360469,2.405312 1.756117,3.972431 3.3125,4.8125 1.316684,0.71069 2.658751,0.948909 3.8125,1.03125 0.111474,0.248645 0.21151,0.488427 0.34375,0.75 2.199383,8.213681 -0.13379,12.735325 -1.71875,15.875 -0.397885,0.788177 -0.767474,1.484651 -1,2.1875 -0.232526,0.702849 -0.327393,1.497401 0,2.25 0.327393,0.752599 0.997452,1.258123 1.875,1.65625 0.877548,0.398127 2.02719,0.722783 3.5625,1.03125 11.003516,2.210777 28.620627,0.789123 42.84375,-16.375 5.02732,-6.066845 7.357322,-12.81953 8,-20.375 0.575884,-0.406594 1.65977,-1.139979 2.84375,-2.5625 1.354972,-1.627963 2.613428,-3.903215 2.34375,-6.59375 a 1.0189446,1.0189446 0 0 0 0,-0.09375 c -0.449871,-2.469482 -1.926935,-4.155961 -3.75,-5.15625 -1.673477,-0.918212 -3.631942,-1.294893 -5.5,-1.46875 C 66.931457,20.876636 57.890497,14.96875 47.5,14.96875 z m 3.71875,7.90625 c 9.565043,0 17.3125,7.991535 17.3125,17.9375 0,9.945964 -7.749552,17.96875 -17.3125,17.96875 -9.562949,0 -17.3125,-8.022786 -17.3125,-17.96875 0,-9.945965 7.747456,-17.9375 17.3125,-17.9375 z m 2.625,5.09375 c -0.593929,0.07857 -0.937972,0.330844 -1.3125,0.625 -0.374528,0.294156 -0.737898,0.655162 -1.09375,1.03125 -0.711705,0.752177 -1.402829,1.5963 -1.8125,2.125 a 1.0189446,1.0189446 0 0 0 0.9375,1.625 c 0.262231,-0.03014 0.479902,-0.03125 0.65625,-0.03125 1.46017,0 2.763763,0.539463 3.8125,1.46875 a 1.0189446,1.0189446 0 0 0 1.6875,-0.84375 C 56.638874,33.221012 56.514519,31.992492 56.25,30.875 c -0.13226,-0.558746 -0.307267,-1.080233 -0.53125,-1.5625 -0.223983,-0.482267 -0.467461,-0.986705 -1.15625,-1.25 -0.169362,-0.06475 -0.404901,-0.135286 -0.71875,-0.09375 z m -2.625,5.5 c -3.243236,0 -5.875,2.731661 -5.875,6.03125 0,3.299589 2.623835,6.0625 5.875,6.0625 3.251161,0 5.875,-2.76291 5.875,-6.0625 0,-3.29959 -2.631768,-6.03125 -5.875,-6.03125 z M 56.0625,43.5625 A 1.0189446,1.0189446 0 0 0 55.375,43.875 c -1.080617,1.105669 -2.539489,1.78125 -4.15625,1.78125 -0.224374,0 -0.443886,0.01918 -0.625,0 a 1.0189446,1.0189446 0 0 0 -0.90625,1.625 c 0.05871,0.07624 1.766866,2.302799 3.53125,4.5 0.882192,1.0986 1.788487,2.181619 2.5,3 0.355756,0.40919 0.645878,0.742542 0.90625,1 0.130186,0.128729 0.263765,0.237255 0.40625,0.34375 0.07124,0.05325 0.139969,0.124375 0.28125,0.1875 0.141281,0.06312 0.402981,0.211221 0.875,0 0.372472,-0.166926 0.499769,-0.442772 0.5625,-0.59375 0.06273,-0.150978 0.08084,-0.252178 0.09375,-0.34375 0.02582,-0.183144 0.0363,-0.331672 0.03125,-0.5 -0.01009,-0.336655 -0.06519,-0.745372 -0.125,-1.21875 -0.119625,-0.946756 -0.307816,-2.14824 -0.53125,-3.40625 -0.446867,-2.51602 -0.986895,-5.160548 -1.125,-5.84375 A 1.0189446,1.0189446 0 0 0 56.0625,43.5625 z"
       id="path4965"
       style="opacity:0.15;fill:#000000;fill-opacity:1" />
    <path
       d="m 47.513508,16 c -14.611711,0 -26.569129,12.004534 -27.442954,27.167878 -2.410134,2.901099 -4.796278,4.940447 -4.142332,9.304067 0.63285,4.222837 4.522391,4.969296 6.812195,5.032287 0.20547,0.449266 0.420882,0.890851 0.647239,1.326841 4.64268,17.108712 -10.062497,19.972974 1.909356,22.378304 10.718804,2.153574 27.898322,0.849227 41.876396,-16.019177 4.981625,-6.011701 7.235823,-12.607969 7.815412,-20.17769 0.722547,-0.487377 5.624963,-3.970604 5.161741,-8.592105 -0.793795,-4.357387 -4.942828,-5.6057 -8.81864,-5.889878 C 66.587001,21.844518 57.708639,16 47.513508,16 z m 3.705446,5.857518 c 10.134117,0 18.349239,8.485975 18.349239,18.964116 0,10.47814 -8.215122,18.980298 -18.349239,18.980298 -10.134118,0 -18.349239,-8.502158 -18.349239,-18.980298 0,-10.478141 8.215121,-18.964116 18.349239,-18.964116 z m 2.750768,7.119633 c -0.906891,0.119967 -2.727741,2.36594 -3.527455,3.398008 0.25479,-0.02929 0.514353,-0.04855 0.776687,-0.04855 1.725323,0 3.299647,0.654886 4.514496,1.731365 -0.155385,-1.454604 -0.613574,-4.705403 -1.553375,-5.064649 -0.06283,-0.02402 -0.132073,-0.02655 -0.210353,-0.01619 z m -2.750768,5.517718 c -2.676837,0 -4.854296,2.24828 -4.854296,5.016105 0,2.767825 2.177459,5.016105 4.854296,5.016105 2.676832,0 4.838113,-2.24828 4.838113,-5.016105 0,-2.767825 -2.161281,-5.016105 -4.838113,-5.016105 z m 4.886658,10.113117 c -1.255194,1.284293 -2.981334,2.087347 -4.886658,2.087347 -0.242026,0 -0.492487,-0.0074 -0.728144,-0.03236 0.09959,0.129321 6.866397,8.891098 7.281447,8.70537 0.452233,-0.202671 -1.390308,-9.393328 -1.666645,-10.760356 z"
       inkscape:connector-curvature="0"
       id="path4959"
       style="opacity:0.3;fill:#000000;fill-opacity:1" />
    <path
       d="m 169.84375,-28.40625 c -28.21929,0 -51.3124,23.1841043 -53,52.46875 -4.65464,5.602833 -9.26295,9.541384 -8,17.96875 1.22221,8.155477 8.734,9.597098 13.15625,9.71875 0.39682,0.867658 0.81284,1.720483 1.25,2.5625 8.96631,33.041696 -19.43349,38.573386 3.6875,43.21875 20.701,4.15915 53.87944,1.640092 80.875,-30.9375 9.62091,-11.610272 13.9744,-24.349505 15.09375,-38.96875 1.39544,-0.941261 10.86337,-7.668342 9.96875,-16.59375 -1.53303,-8.4153313 -9.54598,-10.82617187 -17.03125,-11.375 -9.16377,-16.775104 -26.31035,-28.0625 -46,-28.0625 z M 177,-17.09375 c 19.5718,0 35.4375,16.38878629 35.4375,36.625 0,20.236213 -15.8657,36.65625 -35.4375,36.65625 -19.57181,0 -35.4375,-16.420037 -35.4375,-36.65625 0,-20.23621371 15.86569,-36.625 35.4375,-36.625 z m 5.3125,13.75 c -1.75146,0.2316873 -5.26803,4.5692909 -6.8125,6.5625 0.49207,-0.056549 0.99336,-0.09375 1.5,-0.09375 3.33208,0 6.37254,1.2647688 8.71875,3.34375 -0.30009,-2.8092453 -1.18498,-9.0874462 -3,-9.78125 -0.12134,-0.046378 -0.25507,-0.051269 -0.40625,-0.03125 z M 177,7.3125 c -5.16972,0 -9.375,4.342059 -9.375,9.6875 0,5.345441 4.20528,9.6875 9.375,9.6875 5.16971,0 9.34375,-4.342059 9.34375,-9.6875 0,-5.345441 -4.17404,-9.6875 -9.34375,-9.6875 z m 9.4375,19.53125 C 184.01337,29.324081 180.67971,30.875 177,30.875 c -0.46742,0 -0.95113,-0.01425 -1.40625,-0.0625 0.19234,0.249755 13.26093,17.17119 14.0625,16.8125 0.87339,-0.391417 -2.68507,-18.14114 -3.21875,-20.78125 z"
       inkscape:connector-curvature="0"
       id="path2885"
       style="fill:#298daf;fill-opacity:1" />
    <path
       d="m 47.513508,15 c -14.611711,0 -26.569129,12.004534 -27.442954,27.167878 -2.410134,2.901099 -4.796278,4.940447 -4.142332,9.304067 0.63285,4.222837 4.522391,4.969296 6.812195,5.032287 0.20547,0.449266 0.420882,0.890851 0.647239,1.326841 4.64268,17.108712 -10.062497,19.972974 1.909356,22.378304 10.718804,2.153574 27.898322,0.849227 41.876396,-16.019177 4.981625,-6.011701 7.235823,-12.607969 7.815412,-20.17769 0.722547,-0.487377 5.624963,-3.970604 5.161741,-8.592105 -0.793795,-4.357387 -4.942828,-5.6057 -8.81864,-5.889878 C 66.587001,20.844518 57.708639,15 47.513508,15 z m 3.705446,5.857518 c 10.134117,0 18.349239,8.485975 18.349239,18.964116 0,10.47814 -8.215122,18.980298 -18.349239,18.980298 -10.134118,0 -18.349239,-8.502158 -18.349239,-18.980298 0,-10.478141 8.215121,-18.964116 18.349239,-18.964116 z m 2.750768,7.119633 c -0.906891,0.119967 -2.727741,2.36594 -3.527455,3.398008 0.25479,-0.02929 0.514353,-0.04855 0.776687,-0.04855 1.725323,0 3.299647,0.654886 4.514496,1.731365 -0.155385,-1.454604 -0.613574,-4.705403 -1.553375,-5.064649 -0.06283,-0.02402 -0.132073,-0.02655 -0.210353,-0.01619 z m -2.750768,5.517718 c -2.676837,0 -4.854296,2.24828 -4.854296,5.016105 0,2.767825 2.177459,5.016105 4.854296,5.016105 2.676832,0 4.838113,-2.24828 4.838113,-5.016105 0,-2.767825 -2.161281,-5.016105 -4.838113,-5.016105 z m 4.886658,10.113117 c -1.255194,1.284293 -2.981334,2.087347 -4.886658,2.087347 -0.242026,0 -0.492487,-0.0074 -0.728144,-0.03236 0.09959,0.129321 6.866397,8.891098 7.281447,8.70537 0.452233,-0.202671 -1.390308,-9.393328 -1.666645,-10.760356 z"
       inkscape:connector-curvature="0"
       id="path4931"
       style="fill:url(#linearGradient4939);fill-opacity:1" />
    <path
       d="m 47.5,15 c -14.6117,0 -26.5637,11.9929 -27.4375,27.1563 -2.247,2.7046 -4.4576,4.6803 -4.2188,8.4687 0.1761,-3.1538 2.1785,-5.0128 4.2188,-7.4687 C 20.9363,27.9929 32.8883,16 47.5,16 c 10.1951,0 19.0988,5.8452 23.8438,14.5313 3.8758,0.2841 8.0187,1.5176 8.8125,5.875 0.019,-0.3214 0.033,-0.6661 0,-1 -0.7938,-4.3574 -4.9367,-5.5909 -8.8125,-5.875 C 66.5988,20.8452 57.6951,15 47.5,15 Z m 2.9375,16.375 c 0.3127,-0.051 0.5994,-0.044 0.875,-0.062 0.8798,-1.0471 2.0006,-2.257 2.6563,-2.3437 0.078,-0.01 0.1559,0.01 0.2187,0.031 0.8131,0.3206 1.247,2.8224 1.5313,4.0625 C 55.5634,31.6079 55.1273,28.3592 54.1875,28 c -0.8553,-0.2297 -2.7551,2.0969 -3.75,3.375 z m 0.7813,2.125 c -2.6769,0 -4.8438,2.2322 -4.8438,5 0,0.1628 -0.015,0.3411 0,0.5 0.249,-2.5276 2.3342,-4.5 4.8438,-4.5 2.5095,0 4.5652,1.9724 4.8125,4.5 0.015,-0.1589 0.031,-0.3372 0.031,-0.5 0,-2.7678 -2.1669,-5 -4.8437,-5 z m -18.3125,6.8125 c -0,0.1681 -0.031,0.3309 -0.031,0.5 0,10.4781 8.2096,19 18.3438,19 10.1341,0 18.3437,-8.5219 18.3437,-19 0,-0.1691 -0.027,-0.3319 -0.031,-0.5 -0.2593,10.2446 -8.342,18.5 -18.3125,18.5 -9.9706,0 -18.0533,-8.2554 -18.3125,-18.5 z m 23.1875,3.2813 c -1.2552,1.2842 -2.9697,2.0937 -4.875,2.0937 -0.2421,0 -0.4831,-0.01 -0.7188,-0.031 0.011,0.015 0.6428,0.8125 0.8125,1.0312 1.8685,-0.026 3.5465,-0.8304 4.7813,-2.0937 0.2244,1.1105 1.4657,7.326 1.6875,9.75 0.3988,-0.3902 -1.4142,-9.3978 -1.6875,-10.75 z M 24.3125,64.875 c -0.1623,7.534 -4.3854,10.9706 -3.75,13.0625 0.5396,-2.2865 3.9268,-6.0039 3.75,-13.0625 z"
       inkscape:connector-curvature="0"
       id="path4941"
       style="fill:#ffffff;fill-opacity:1"
       sodipodi:nodetypes="scccsccccscccccccsscscsscssscsccscccccccc" />
    <path
       d="m 51.21875,19.84375 c -10.134118,0 -18.34375,8.490609 -18.34375,18.96875 0,0.169117 0.027,0.33194 0.03125,0.5 0.259291,-10.24409 8.341947,-18.46875 18.3125,-18.46875 9.970552,0 18.053209,8.22466 18.3125,18.46875 0.0043,-0.16806 0.03125,-0.330883 0.03125,-0.5 0,-10.478141 -8.209633,-18.96875 -18.34375,-18.96875 z M 51.3125,30.3125 c -0.337181,0.401275 -0.653432,0.776556 -0.875,1.0625 0.25479,-0.02929 0.518916,-0.0625 0.78125,-0.0625 1.725323,0 3.285151,0.673521 4.5,1.75 -0.03161,-0.295927 -0.06682,-0.68861 -0.125,-1.09375 -1.174594,-0.995088 -2.649732,-1.633085 -4.28125,-1.65625 z m 28.84375,5.21875 C 79.834603,39.592638 75.663477,42.552467 75,43 74.420411,50.569721 72.169125,57.175799 67.1875,63.1875 53.209426,80.055904 36.031304,81.372324 25.3125,79.21875 c -3.159879,-0.634868 -4.46077,-1.328954 -4.75,-2.28125 -0.362408,1.535785 0.574007,2.442229 4.75,3.28125 10.718804,2.153574 27.896926,0.837154 41.875,-16.03125 C 72.169125,58.175799 74.420411,51.569721 75,44 c 0.716104,-0.483031 5.521254,-3.908726 5.15625,-8.46875 z m -33.78125,2.5 c -0.01461,0.158262 0,0.306573 0,0.46875 0,2.767825 2.166913,5.03125 4.84375,5.03125 2.676832,0 4.84375,-2.263425 4.84375,-5.03125 0,-0.162219 -0.01673,-0.310448 -0.03125,-0.46875 -0.247248,2.527621 -2.30297,4.5 -4.8125,4.5 -2.509535,0 -4.594724,-1.972379 -4.84375,-4.5 z m 4.125,7.625 c 0.09959,0.129321 6.8662,8.904478 7.28125,8.71875 0.08486,-0.03803 0.05123,-0.471357 0,-1.03125 -0.0043,0.0042 0.0049,0.02907 0,0.03125 -0.367051,0.164249 -5.17092,-6.015344 -6.46875,-7.6875 -0.03091,4.24e-4 -0.06274,0 -0.09375,0 -0.242026,0 -0.483093,-0.0063 -0.71875,-0.03125 z M 15.84375,49.6875 c -0.02643,0.553674 -0.0029,1.136319 0.09375,1.78125 0.63285,4.222837 4.522696,4.968259 6.8125,5.03125 0.20547,0.449266 0.398643,0.90776 0.625,1.34375 0.580335,2.138589 0.871893,4.029625 0.9375,5.75 0.01657,-1.966036 -0.243929,-4.194125 -0.9375,-6.75 C 23.148643,56.40776 22.95547,55.949266 22.75,55.5 c -2.289804,-0.06299 -6.17965,-0.808413 -6.8125,-5.03125 -0.04087,-0.272726 -0.07589,-0.525904 -0.09375,-0.78125 z"
       inkscape:connector-curvature="0"
       id="path4950"
       style="opacity:0;fill:#000000;fill-opacity:1" />
  </g>
</svg>
