<?xml version="1.0" encoding="UTF-8" standalone="no"?>
<!-- Created with Inkscape (http://www.inkscape.org/) -->

<svg
   xmlns:dc="http://purl.org/dc/elements/1.1/"
   xmlns:cc="http://creativecommons.org/ns#"
   xmlns:rdf="http://www.w3.org/1999/02/22-rdf-syntax-ns#"
   xmlns:svg="http://www.w3.org/2000/svg"
   xmlns="http://www.w3.org/2000/svg"
   xmlns:xlink="http://www.w3.org/1999/xlink"
   xmlns:sodipodi="http://sodipodi.sourceforge.net/DTD/sodipodi-0.dtd"
   xmlns:inkscape="http://www.inkscape.org/namespaces/inkscape"
   version="1.0"
   width="96"
   height="96"
   id="svg2408"
   style="display:inline"
   inkscape:version="0.91 r"
   sodipodi:docname="gprename.svg">
  <title
     id="title106">gprename</title>
  <sodipodi:namedview
     pagecolor="#ffffff"
     bordercolor="#666666"
     borderopacity="1"
     objecttolerance="10"
     gridtolerance="10"
     guidetolerance="10"
     inkscape:pageopacity="0"
     inkscape:pageshadow="2"
     inkscape:window-width="1280"
     inkscape:window-height="965"
     id="namedview119"
     showgrid="false"
     showguides="true"
     inkscape:zoom="3.28098"
     inkscape:cx="34.8433"
     inkscape:cy="1.16619"
     inkscape:window-x="0"
     inkscape:window-y="27"
     inkscape:window-maximized="1"
     inkscape:current-layer="svg2408" />
  <defs
     id="defs2410">
    <linearGradient
       id="linearGradient4339">
      <stop
         offset="0"
         style="stop-color:#162850;stop-opacity:1"
         id="stop4341" />
      <stop
         offset="1"
         style="stop-color:#163750;stop-opacity:0"
         id="stop4343" />
    </linearGradient>
    <linearGradient
       id="linearGradient3875">
      <stop
         id="stop3877"
         style="stop-color:#ffffff;stop-opacity:1"
         offset="0" />
      <stop
         id="stop3879"
         style="stop-color:#ffffff;stop-opacity:0.42635658"
         offset="1" />
    </linearGradient>
    <linearGradient
       x1="45.447727"
       y1="92.539597"
       x2="45.447727"
       y2="7.0165396"
       id="ButtonShadow"
       gradientUnits="userSpaceOnUse"
       gradientTransform="scale(1.0058652,0.994169)">
      <stop
         id="stop3750"
         style="stop-color:#000000;stop-opacity:1"
         offset="0" />
      <stop
         id="stop3752"
         style="stop-color:#000000;stop-opacity:0.58823532"
         offset="1" />
    </linearGradient>
    <filter
       color-interpolation-filters="sRGB"
       id="filter3174">
      <feGaussianBlur
         id="feGaussianBlur3176"
         stdDeviation="1.71" />
    </filter>
    <radialGradient
       cx="48"
       cy="90.171875"
       r="42"
       fx="48"
       fy="90.171875"
       id="radialGradient2855-1"
       xlink:href="#linearGradient3737-1-4"
       gradientUnits="userSpaceOnUse"
       gradientTransform="matrix(1.15731,0,0,0.995908,-7.55102,0.19713)" />
    <linearGradient
       id="linearGradient3737-1-4">
      <stop
         id="stop3739-7-1"
         style="stop-color:#ffffff;stop-opacity:1"
         offset="0" />
      <stop
         id="stop3741-2-0"
         style="stop-color:#ffffff;stop-opacity:0"
         offset="1" />
    </linearGradient>
    <linearGradient
       x1="36.357143"
       y1="6"
       x2="36.357143"
       y2="63.893143"
       id="linearGradient3188-9"
       xlink:href="#linearGradient3737-5"
       gradientUnits="userSpaceOnUse" />
    <linearGradient
       id="linearGradient3737-5">
      <stop
         id="stop3739-6"
         style="stop-color:#ffffff;stop-opacity:1"
         offset="0" />
      <stop
         id="stop3741-7"
         style="stop-color:#ffffff;stop-opacity:0"
         offset="1" />
    </linearGradient>
    <linearGradient
       x1="45.447727"
       y1="92.539597"
       x2="45.447727"
       y2="7.0165396"
       id="ButtonShadow-0"
       gradientUnits="userSpaceOnUse"
       gradientTransform="matrix(1.0058652,0,0,0.994169,100,0)">
      <stop
         id="stop3750-8"
         style="stop-color:#000000;stop-opacity:1"
         offset="0" />
      <stop
         id="stop3752-5"
         style="stop-color:#000000;stop-opacity:0.58823532"
         offset="1" />
    </linearGradient>
    <linearGradient
       x1="32.251034"
       y1="6.1317081"
       x2="32.251034"
       y2="90.238609"
       id="linearGradient3780"
       xlink:href="#ButtonShadow-0"
       gradientUnits="userSpaceOnUse"
       gradientTransform="matrix(1.0238095,0,0,1.0119048,-1.1428571,-98.071429)" />
    <linearGradient
       x1="32.251034"
       y1="6.1317081"
       x2="32.251034"
       y2="90.238609"
       id="linearGradient3772"
       xlink:href="#ButtonShadow-0"
       gradientUnits="userSpaceOnUse"
       gradientTransform="matrix(1.0238095,0,0,1.0119048,-1.1428571,-98.071429)" />
    <linearGradient
       x1="32.251034"
       y1="6.1317081"
       x2="32.251034"
       y2="90.238609"
       id="linearGradient3725"
       xlink:href="#ButtonShadow-0"
       gradientUnits="userSpaceOnUse"
       gradientTransform="matrix(1.0238095,0,0,1.0119048,-1.1428571,-98.071429)" />
    <linearGradient
       x1="32.251034"
       y1="6.1317081"
       x2="32.251034"
       y2="90.238609"
       id="linearGradient3721"
       xlink:href="#ButtonShadow-0"
       gradientUnits="userSpaceOnUse"
       gradientTransform="translate(0,-97)" />
    <linearGradient
       x1="32.251034"
       y1="6.1317081"
       x2="32.251034"
       y2="90.238609"
       id="linearGradient3071"
       xlink:href="#ButtonShadow-0"
       gradientUnits="userSpaceOnUse"
       gradientTransform="matrix(1.0238095,0,0,1.0119048,-1.1428571,-98.071429)" />
    <linearGradient
       id="linearGradient3700-5-1">
      <stop
         id="stop3702-0-2"
         style="stop-color:#3781c6;stop-opacity:1"
         offset="0" />
      <stop
         id="stop3704-4-9"
         style="stop-color:#88b2db;stop-opacity:1"
         offset="1" />
    </linearGradient>
    <linearGradient
       x1="48"
       y1="90"
       x2="48"
       y2="5.9877172"
       id="linearGradient3345"
       xlink:href="#linearGradient3700-5-1"
       gradientUnits="userSpaceOnUse" />
    <linearGradient
       inkscape:collect="always"
       xlink:href="#linearGradient4339"
       id="linearGradient4337"
       x1="49.181087"
       y1="28.281691"
       x2="50.239437"
       y2="68.32193"
       gradientUnits="userSpaceOnUse" />
    <linearGradient
       id="linearGradient3778">
      <stop
         offset="0"
         style="stop-color:#499119;stop-opacity:1"
         id="stop3780" />
      <stop
         offset="1"
         style="stop-color:#8fd625;stop-opacity:1"
         id="stop3782" />
    </linearGradient>
    <linearGradient
       id="linearGradient5010">
      <stop
         offset="0"
         style="stop-color:#000000;stop-opacity:1"
         id="stop5012" />
      <stop
         offset="1"
         style="stop-color:#000000;stop-opacity:0"
         id="stop5014" />
    </linearGradient>
    <filter
       id="filter3174-8"
       color-interpolation-filters="sRGB">
      <feGaussianBlur
         stdDeviation="1.71"
         id="feGaussianBlur3176-1" />
    </filter>
    <linearGradient
       gradientTransform="matrix(0.625,0,0,0.625,28.5,31.25)"
       gradientUnits="userSpaceOnUse"
       xlink:href="#linearGradient3875"
       id="linearGradient3832"
       y2="50.068527"
       x2="65.262688"
       y1="64.205269"
       x1="65.262688" />
    <linearGradient
       gradientTransform="matrix(0.9375,0,0,0.9375,-140.5,3.5)"
       gradientUnits="userSpaceOnUse"
       xlink:href="#linearGradient3778"
       id="linearGradient3773"
       y2="72"
       x2="88"
       y1="72"
       x1="56" />
    <linearGradient
       gradientTransform="translate(0,4)"
       gradientUnits="userSpaceOnUse"
       xlink:href="#linearGradient3875"
       id="linearGradient3788"
       y2="75.095024"
       x2="70"
       y1="54"
       x1="70" />
    <filter
       id="filter3806"
       color-interpolation-filters="sRGB">
      <feGaussianBlur
         stdDeviation="1.2"
         id="feGaussianBlur3808" />
    </filter>
    <linearGradient
       gradientTransform="matrix(0.625,0,0,0.625,78.5,32.25)"
       gradientUnits="userSpaceOnUse"
       xlink:href="#linearGradient5010"
       id="linearGradient3812"
       y2="50.068527"
       x2="65.262688"
       y1="64.205269"
       x1="65.262688" />
    <clipPath
       id="clipPath3823">
      <path
         style="fill:#ffffff;fill-opacity:1;stroke:none"
         id="path3825"
         inkscape:connector-curvature="0"
         d="M 108.8125,58 C 107.25437,58 106,59.254375 106,60.8125 l 0,24.375 C 106,86.745625 107.25437,88 108.8125,88 l 24.375,0 C 134.74562,88 136,86.745625 136,85.1875 l 0,-24.375 C 136,59.254375 134.74562,58 133.1875,58 l -24.375,0 z m 7.1875,4.5 10,0 0,8.75 5,0 -10,13.75 -10,-13.75 5,0 0,-8.75 z" />
    </clipPath>
    <filter
       id="filter3831"
       color-interpolation-filters="sRGB">
      <feGaussianBlur
         stdDeviation="0.6375"
         id="feGaussianBlur3833" />
    </filter>
    <linearGradient
       id="linearGradient3187">
      <stop
         offset="0"
         style="stop-color:#1e71ac;stop-opacity:1"
         id="stop3189" />
      <stop
         offset="1"
         style="stop-color:#81c1e9;stop-opacity:1"
         id="stop3191" />
    </linearGradient>
    <linearGradient
       id="linearGradient3250">
      <stop
         offset="0"
         style="stop-color:#ffffff;stop-opacity:1"
         id="stop3252" />
      <stop
         offset="0.43290177"
         style="stop-color:#ffffff;stop-opacity:0.49803922"
         id="stop3254" />
      <stop
         offset="1"
         style="stop-color:#ffffff;stop-opacity:0"
         id="stop3256" />
    </linearGradient>
    <clipPath
       id="clipPath4029">
      <path
         style="fill:url(#linearGradient4033);fill-opacity:1;stroke:none;display:inline"
         id="path4031"
         inkscape:connector-curvature="0"
         d="m 118,56 c -9.94112,0 -18,8.05887 -18,18 0,9.94112 8.05888,18 18,18 9.73052,0 17.63723,-7.725264 17.96875,-17.375 l 0,-1.25 C 135.63723,63.725255 127.73052,56 118,56 z m -6,10.75 c 5.9493,0.05747 10.83155,4.941297 11.03125,10.875 l 3.75,0.03125 -6,8.71875 -6.15625,-8.8125 3.96875,0.03125 c -0.25101,-4.905678 -4.48929,-9.950635 -11.71875,-9.625 1.52232,-0.80073 3.27178,-1.236656 5.125,-1.21875 z" />
    </clipPath>
    <linearGradient
       gradientTransform="matrix(0.30997964,0,0,0.31034484,98.14012,54.137931)"
       gradientUnits="userSpaceOnUse"
       xlink:href="#linearGradient3187"
       id="linearGradient4033"
       y2="5.9781809"
       x2="69"
       y1="122"
       x1="69" />
    <linearGradient
       gradientTransform="matrix(-0.30059886,0,0,-0.30318299,-5.285507,65.194794)"
       gradientUnits="userSpaceOnUse"
       xlink:href="#linearGradient3250"
       id="linearGradient4029"
       y2="5.1837206"
       x2="84.35965"
       y1="79.416924"
       x1="84.35965" />
    <linearGradient
       inkscape:collect="always"
       xlink:href="#ButtonShadow"
       id="linearGradient4793"
       gradientUnits="userSpaceOnUse"
       gradientTransform="scale(1.0058652,0.994169)"
       x1="45.447727"
       y1="92.539597"
       x2="45.447727"
       y2="7.0165396" />
    <linearGradient
       inkscape:collect="always"
       xlink:href="#linearGradient5010"
       id="linearGradient4803"
       gradientUnits="userSpaceOnUse"
       x1="120.64606"
       y1="87.489296"
       x2="118.33302"
       y2="67.706047"
       gradientTransform="matrix(-0.70710678,-0.70710678,0.70710678,-0.70710678,-0.204704,181.33044)" />
    <linearGradient
       inkscape:collect="always"
       xlink:href="#linearGradient5010"
       id="linearGradient4805"
       gradientUnits="userSpaceOnUse"
       x1="120.64606"
       y1="87.489296"
       x2="118.33302"
       y2="67.706047" />
    <linearGradient
       inkscape:collect="always"
       xlink:href="#linearGradient5010"
       id="linearGradient4951"
       gradientUnits="userSpaceOnUse"
       gradientTransform="matrix(-0.70710678,-0.70710678,0.70710678,-0.70710678,-0.204704,181.33044)"
       x1="120.64606"
       y1="87.489296"
       x2="118.33302"
       y2="67.706047" />
    <linearGradient
       inkscape:collect="always"
       xlink:href="#linearGradient5010"
       id="linearGradient4953"
       gradientUnits="userSpaceOnUse"
       x1="120.64606"
       y1="87.489296"
       x2="118.33302"
       y2="67.706047" />
    <linearGradient
       inkscape:collect="always"
       xlink:href="#linearGradient3250"
       id="linearGradient4955"
       gradientUnits="userSpaceOnUse"
       gradientTransform="matrix(-0.30059886,0,0,-0.30318299,-5.285507,65.194794)"
       x1="84.35965"
       y1="79.416924"
       x2="84.35965"
       y2="5.1837206" />
  </defs>
  <metadata
     id="metadata2413">
    <rdf:RDF>
      <cc:Work
         rdf:about="">
        <dc:format>image/svg+xml</dc:format>
        <dc:type
           rdf:resource="http://purl.org/dc/dcmitype/StillImage" />
        <dc:title>gprename</dc:title>
        <dc:subject>
          <rdf:Bag>
            <rdf:li>gprename</rdf:li>
            <rdf:li>rename</rdf:li>
          </rdf:Bag>
        </dc:subject>
        <dc:description>gprename, rename</dc:description>
      </cc:Work>
    </rdf:RDF>
  </metadata>
  <g
     id="layer2"
     style="display:none">
    <rect
       width="86"
       height="85"
       rx="6"
       ry="6"
       x="5"
       y="7"
       id="rect3745"
       style="opacity:0.9;fill:url(#ButtonShadow);fill-opacity:1;fill-rule:nonzero;stroke:none;filter:url(#filter3174)" />
  </g>
  <g
     id="layer5"
     style="display:inline">
    <path
       d="m 12,-95.03125 c -5.5110903,0 -10.03125,4.52016 -10.03125,10.03125 l 0,71 c 0,5.5110902 4.5201598,10.03125 10.03125,10.03125 l 72,0 c 5.51109,0 10.03125,-4.5201597 10.03125,-10.03125 l 0,-71 c 0,-5.51109 -4.52016,-10.03125 -10.03125,-10.03125 l -72,0 z"
       transform="scale(1,-1)"
       id="path3786"
       style="opacity:0.07999998;fill:url(#linearGradient3071);fill-opacity:1;fill-rule:nonzero;stroke:none;display:inline" />
    <path
       d="m 12,-94.03125 c -4.971633,0 -9.03125,4.059617 -9.03125,9.03125 l 0,71 c 0,4.9716329 4.0596171,9.03125 9.03125,9.03125 l 72,0 c 4.971633,0 9.03125,-4.059617 9.03125,-9.03125 l 0,-71 c 0,-4.971633 -4.059617,-9.03125 -9.03125,-9.03125 l -72,0 z"
       transform="scale(1,-1)"
       id="path3778"
       style="opacity:0.1;fill:url(#linearGradient3780);fill-opacity:1;fill-rule:nonzero;stroke:none;display:inline" />
    <path
       d="m 12,-93 c -4.4091333,0 -8,3.590867 -8,8 l 0,71 c 0,4.4091333 3.5908667,8 8,8 l 72,0 c 4.409133,0 8,-3.5908667 8,-8 l 0,-71 c 0,-4.409133 -3.590867,-8 -8,-8 l -72,0 z"
       transform="scale(1,-1)"
       id="path3770"
       style="opacity:0.2;fill:url(#linearGradient3772);fill-opacity:1;fill-rule:nonzero;stroke:none;display:inline" />
    <rect
       width="86"
       height="85"
       rx="7"
       ry="7"
       x="5"
       y="-92"
       transform="scale(1,-1)"
       id="rect3723"
       style="opacity:0.3;fill:url(#linearGradient3725);fill-opacity:1;fill-rule:nonzero;stroke:none;display:inline" />
    <rect
       width="84"
       height="84"
       rx="6"
       ry="6"
       x="6"
       y="-91"
       transform="scale(1,-1)"
       id="rect3716"
       style="opacity:0.45;fill:url(#linearGradient3721);fill-opacity:1;fill-rule:nonzero;stroke:none;display:inline" />
  </g>
  <rect
     style="display:inline;fill:url(#linearGradient3345);fill-opacity:1;fill-rule:nonzero;stroke:none"
     id="rect2419-8"
     y="6"
     x="6"
     ry="6"
     rx="6"
     height="84"
     width="84" />
  <path
     style="opacity:0.35;fill:url(#linearGradient3188-9);fill-opacity:1;fill-rule:nonzero;stroke:none"
     d="M 12,6 C 8.11425,5.86322 5.41842,9.7916 6,13.4226 6.01818,37.1117 5.96366,60.8028 6.02722,84.4906 5.28212,86.832 10.5383,90.304 9.3125,89.2188 6.06854,87.1931 7.20932,83.0939 7,79.9177 7.01709,57.4405 6.96584,34.9616 7.02559,12.4854 7.23709,9.18494 10.6966,7.53688 13.6597,8 c 23.6181,0.0171 47.2379,-0.0342 70.8549,0.0256 3.3005,0.2115 4.9485,3.67101 4.4854,6.63411 -0.023,23.6263 0.047,47.2557 -0.035,70.8801 0.6394,2.1759 -4.9496,5.3488 -1.4521,3.2816 C 91.0463,86.3401 89.75,81.8397 90,78.2064 89.9794,55.9328 90.0412,33.6571 89.9691,11.3848 89.7161,7.60949 85.8108,5.47598 82.3403,6 58.8935,6 35.4468,6 12,6 Z"
     id="rect3728"
     inkscape:connector-curvature="0" />
  <path
     style="opacity:0.25;fill:url(#radialGradient2855-1);fill-opacity:1;fill-rule:nonzero;stroke:none"
     d="M 12,90 C 8.11425,90.1368 5.41842,86.2084 6,82.5774 6.01818,58.8883 5.96366,35.1972 6.02722,11.5094 5.28214,9.16797 10.5383,5.69605 9.3125,6.7813 6.06855,8.80695 7.20932,12.9061 7,16.0823 c 0.0171,22.4772 -0.0342,44.9561 0.0256,67.4323 0.2115,3.3005 3.67101,4.9485 6.63411,4.4854 23.6181,-0.017 47.2379,0.034 70.8549,-0.026 C 87.8151,87.7629 89.4631,84.3034 89,81.3403 88.9765,57.714 89.0469,34.0846 88.9648,10.4602 89.6042,8.2843 84.0152,5.11146 87.5127,7.17861 91.0463,9.65994 89.75,14.1603 90,17.7936 89.9794,40.0672 90.0412,62.3429 89.9691,84.6152 89.7161,88.3905 85.8108,90.524 82.3403,90 58.8935,90 35.4468,90 12,90 Z"
     id="path3615"
     inkscape:connector-curvature="0" />
  <path
     id="path4347"
     d="m 29.699219,27 c -3.333972,0 -5.955786,1.259461 -7.863281,3.777344 C 19.945028,33.278876 19,36.777219 19,41.273438 c 0,4.36542 0.911767,7.815376 2.736328,10.349609 1.841149,2.534232 4.429701,3.800781 7.763672,3.800781 3.483254,0 6.111918,-1.349144 7.886719,-4.046875 l 0.224609,0 -0.224609,3.361328 0,0.539063 c 0,4.152872 -1.94973,6.228515 -5.847657,6.228515 -3.864752,0 -7.48051,-0.703285 -10.847656,-2.109375 l 0,5.984375 C 23.560944,66.459952 27.028001,67 31.091797,67 35.702962,67 39.170019,65.97733 41.492188,63.933594 43.830943,61.906208 45,58.922745 45,54.982422 l 0,-27.466797 -6.419922,0 -0.621094,3.505859 -0.199218,0 C 35.802509,28.340103 33.116125,27 29.699219,27 Z m 36.791015,0 c -3.48659,0 -6.11803,1.356231 -7.894531,4.070312 l -0.347656,0 -1.072266,-3.554687 -6.175781,0 L 51,67 l 7.595703,0 0,-11.109375 c 0,-0.359698 -0.132793,-1.683672 -0.398437,-3.972656 l 0.398437,0 c 1.859515,2.338033 4.424559,3.505859 7.695313,3.505859 2.174967,0 4.067261,-0.563264 5.677734,-1.691406 1.610473,-1.128142 2.847591,-2.771503 3.710938,-4.929688 C 76.559636,46.644548 77,44.102411 77,41.175781 77,36.728612 76.070452,33.253485 74.210938,30.751953 72.351423,28.25042 69.77759,27 66.490234,27 Z m -2.439453,5.984375 c 1.793104,0 3.103453,0.678116 3.933594,2.035156 0.846743,1.340692 1.269531,3.360863 1.269531,6.058594 0,5.526262 -1.699939,8.289063 -5.103515,8.289063 -1.925926,-10e-7 -3.337824,-0.638772 -4.234375,-1.914063 -0.87995,-1.275291 -1.320313,-3.383193 -1.320313,-6.326172 l 0,-0.810547 c 0.03321,-2.615982 0.482357,-4.487092 1.345703,-5.615234 0.863346,-1.144492 2.233258,-1.716797 4.109375,-1.716797 z m -31.96289,0.09766 c 2.040191,0 3.515453,0.64586 4.427734,1.9375 0.928867,1.275292 1.392578,3.376104 1.392578,6.302735 l 0,0.908203 c 0,2.583282 -0.439253,4.454392 -1.318359,5.615234 -0.879107,1.144492 -2.338714,1.716797 -4.378906,1.716797 -1.874322,0 -3.258604,-0.678116 -4.154297,-2.035156 -0.879108,-1.357041 -1.31836,-3.40947 -1.31836,-6.15625 0,-5.526262 1.783421,-8.289063 5.34961,-8.289063 z"
     style="font-style:normal;font-variant:normal;font-weight:bold;font-stretch:normal;font-size:50px;line-height:125%;font-family:'Noto Sans';-inkscape-font-specification:'Noto Sans Bold';letter-spacing:0px;word-spacing:0px;opacity:0.3;fill:#000000;fill-opacity:1;stroke:none;stroke-width:1px;stroke-linecap:butt;stroke-linejoin:miter;stroke-opacity:1"
     inkscape:connector-curvature="0" />
  <path
     style="font-style:normal;font-variant:normal;font-weight:bold;font-stretch:normal;font-size:50px;line-height:125%;font-family:'Noto Sans';-inkscape-font-specification:'Noto Sans Bold';letter-spacing:0px;word-spacing:0px;fill:#beffaa;fill-opacity:1;stroke:none;stroke-width:1px;stroke-linecap:butt;stroke-linejoin:miter;stroke-opacity:1"
     d="M 29.699219 28 C 26.365247 28 23.743433 29.259461 21.835938 31.777344 C 19.945028 34.278876 19 37.777219 19 42.273438 C 19 46.638858 19.911767 50.088814 21.736328 52.623047 C 23.577477 55.157279 26.166029 56.423828 29.5 56.423828 C 32.983254 56.423828 35.611918 55.074684 37.386719 52.376953 L 37.611328 52.376953 L 37.386719 55.738281 L 37.386719 56.277344 C 37.386719 60.430216 35.436989 62.505859 31.539062 62.505859 C 27.67431 62.505859 24.058552 61.802574 20.691406 60.396484 L 20.691406 66.380859 C 23.560944 67.459952 27.028001 68 31.091797 68 C 35.702962 68 39.170019 66.97733 41.492188 64.933594 C 43.830943 62.906208 45 59.922745 45 55.982422 L 45 28.515625 L 38.580078 28.515625 L 37.958984 32.021484 L 37.759766 32.021484 C 35.802509 29.340103 33.116125 28 29.699219 28 z M 66.490234 28 C 63.003644 28 60.372204 29.356231 58.595703 32.070312 L 58.248047 32.070312 L 57.175781 28.515625 L 51 28.515625 L 51 68 L 58.595703 68 L 58.595703 56.890625 C 58.595703 56.530927 58.46291 55.206953 58.197266 52.917969 L 58.595703 52.917969 C 60.455218 55.256002 63.020262 56.423828 66.291016 56.423828 C 68.465983 56.423828 70.358277 55.860564 71.96875 54.732422 C 73.579223 53.60428 74.816341 51.960919 75.679688 49.802734 C 76.559636 47.644548 77 45.102411 77 42.175781 C 77 37.728612 76.070452 34.253485 74.210938 31.751953 C 72.351423 29.25042 69.77759 28 66.490234 28 z M 64.050781 33.984375 C 65.843885 33.984375 67.154234 34.662491 67.984375 36.019531 C 68.831118 37.360223 69.253906 39.380394 69.253906 42.078125 C 69.253906 47.604387 67.553967 50.367188 64.150391 50.367188 C 62.224465 50.367187 60.812567 49.728416 59.916016 48.453125 C 59.036066 47.177834 58.595703 45.069932 58.595703 42.126953 L 58.595703 41.316406 C 58.628909 38.700424 59.07806 36.829314 59.941406 35.701172 C 60.804752 34.55668 62.174664 33.984375 64.050781 33.984375 z M 32.087891 34.082031 C 34.128082 34.082031 35.603344 34.727891 36.515625 36.019531 C 37.444492 37.294823 37.908203 39.395635 37.908203 42.322266 L 37.908203 43.230469 C 37.908203 45.813751 37.46895 47.684861 36.589844 48.845703 C 35.710737 49.990195 34.25113 50.5625 32.210938 50.5625 C 30.336616 50.5625 28.952334 49.884384 28.056641 48.527344 C 27.177533 47.170303 26.738281 45.117874 26.738281 42.371094 C 26.738281 36.844832 28.521702 34.082031 32.087891 34.082031 z "
     id="path4260" />
  <path
     style="font-style:normal;font-variant:normal;font-weight:bold;font-stretch:normal;font-size:50px;line-height:125%;font-family:'Noto Sans';-inkscape-font-specification:'Noto Sans Bold';letter-spacing:0px;word-spacing:0px;fill:url(#linearGradient4337);fill-opacity:1;stroke:none;stroke-width:1px;stroke-linecap:butt;stroke-linejoin:miter;stroke-opacity:1;opacity:0.25"
     d="M 29.699219 28 C 26.365247 28 23.743433 29.259461 21.835938 31.777344 C 19.945028 34.278876 19 37.777219 19 42.273438 C 19 46.638858 19.911767 50.088814 21.736328 52.623047 C 23.577477 55.157279 26.166029 56.423828 29.5 56.423828 C 32.983254 56.423828 35.611918 55.074684 37.386719 52.376953 L 37.611328 52.376953 L 37.386719 55.738281 L 37.386719 56.277344 C 37.386719 60.430216 35.436989 62.505859 31.539062 62.505859 C 27.67431 62.505859 24.058552 61.802574 20.691406 60.396484 L 20.691406 66.380859 C 23.560944 67.459952 27.028001 68 31.091797 68 C 35.702962 68 39.170019 66.97733 41.492188 64.933594 C 43.830942 62.906208 45 59.922745 45 55.982422 L 45 28.515625 L 38.580078 28.515625 L 37.958984 32.021484 L 37.759766 32.021484 C 35.802509 29.340103 33.116125 28 29.699219 28 z M 66.490234 28 C 63.003644 28 60.372204 29.356232 58.595703 32.070312 L 58.248047 32.070312 L 57.175781 28.515625 L 51 28.515625 L 51 68 L 58.595703 68 L 58.595703 56.890625 C 58.595703 56.530927 58.46291 55.206953 58.197266 52.917969 L 58.595703 52.917969 C 60.455218 55.256002 63.020262 56.423828 66.291016 56.423828 C 68.465983 56.423828 70.358277 55.860564 71.96875 54.732422 C 73.579223 53.60428 74.81634 51.960919 75.679688 49.802734 C 76.559635 47.644548 77 45.102411 77 42.175781 C 77 37.728612 76.070452 34.253485 74.210938 31.751953 C 72.351422 29.25042 69.77759 28 66.490234 28 z M 29.699219 29 C 32.85466 29 35.157272 30.153742 36.951172 32.611328 A 1.0001 1.0001 0 0 0 37.759766 33.021484 L 37.958984 33.021484 A 1.0001 1.0001 0 0 0 38.943359 32.195312 L 39.417969 29.515625 L 44 29.515625 L 44 55.982422 C 44 59.724951 42.934374 62.360365 40.837891 64.177734 A 1.0001 1.0001 0 0 0 40.832031 64.183594 C 38.756272 66.01046 35.555108 67 31.091797 67 C 27.399624 67 24.304176 66.497311 21.691406 65.611328 L 21.691406 61.736328 C 24.796632 62.846484 28.061077 63.505859 31.539062 63.505859 C 33.665526 63.505859 35.451905 62.913352 36.654297 61.632812 C 37.856689 60.352275 38.386719 58.510276 38.386719 56.277344 L 38.386719 55.771484 L 38.609375 52.443359 A 1.0001 1.0001 0 0 0 37.611328 51.376953 L 37.386719 51.376953 A 1.0001 1.0001 0 0 0 36.550781 51.828125 C 34.941022 54.274989 32.725039 55.423828 29.5 55.423828 C 26.421465 55.423828 24.220696 54.337547 22.548828 52.039062 C 20.883412 49.725874 20 46.499616 20 42.273438 C 20 37.91734 20.915695 34.652477 22.632812 32.380859 C 24.3709 30.086595 26.617091 29 29.699219 29 z M 66.490234 29 C 69.524009 29 71.717075 30.072648 73.408203 32.347656 C 75.098372 34.621375 76 37.867959 76 42.175781 C 76 45.002099 75.57424 47.413806 74.753906 49.425781 A 1.0001 1.0001 0 0 0 74.751953 49.431641 C 73.945943 51.446496 72.828339 52.909676 71.394531 53.914062 C 69.957435 54.920755 68.293332 55.423828 66.291016 55.423828 C 63.258296 55.423828 61.060532 54.409288 59.378906 52.294922 A 1.0001 1.0001 0 0 0 58.595703 51.917969 L 58.197266 51.917969 A 1.0001 1.0001 0 0 0 57.203125 53.033203 C 57.468078 55.316233 57.595703 56.777046 57.595703 56.890625 L 57.595703 67 L 52 67 L 52 29.515625 L 56.433594 29.515625 L 57.291016 32.359375 A 1.0001 1.0001 0 0 0 58.248047 33.070312 L 58.595703 33.070312 A 1.0001 1.0001 0 0 0 59.431641 32.617188 C 61.043926 30.15399 63.262968 29 66.490234 29 z M 64.050781 32.984375 C 61.972387 32.984375 60.217783 33.676614 59.144531 35.097656 C 59.144531 35.097656 59.142578 35.099609 59.142578 35.099609 C 58.059543 36.518461 57.630243 38.583622 57.595703 41.304688 A 1.0001 1.0001 0 0 0 57.595703 41.316406 L 57.595703 42.126953 C 57.595703 45.169687 58.009837 47.450595 59.09375 49.021484 A 1.0001 1.0001 0 0 0 59.097656 49.027344 C 60.187933 50.578199 62.003352 51.367186 64.150391 51.367188 C 66.122757 51.367188 67.823583 50.45336 68.830078 48.818359 C 69.836574 47.183359 70.253906 44.943793 70.253906 42.078125 C 70.253906 39.279592 69.837825 37.090692 68.832031 35.494141 C 67.834203 33.867968 66.09341 32.984375 64.050781 32.984375 z M 32.087891 33.082031 C 30.046556 33.082031 28.29267 33.974641 27.236328 35.611328 C 26.179987 37.248016 25.738281 39.50039 25.738281 42.371094 C 25.738281 45.224484 26.170178 47.454693 27.216797 49.070312 A 1.0001 1.0001 0 0 0 27.222656 49.078125 C 28.294918 50.702679 30.09542 51.5625 32.210938 51.5625 C 34.438139 51.5625 36.276075 50.895917 37.382812 49.455078 A 1.0001 1.0001 0 0 0 37.386719 49.449219 C 38.481264 48.003893 38.908203 45.927109 38.908203 43.230469 L 38.908203 42.322266 C 38.908203 39.294209 38.467911 37.00899 37.328125 35.439453 C 36.212989 33.864254 34.336936 33.082031 32.087891 33.082031 z M 64.050781 33.984375 C 65.843885 33.984375 67.154234 34.662491 67.984375 36.019531 C 68.831118 37.360223 69.253906 39.380394 69.253906 42.078125 C 69.253906 47.604387 67.553967 50.367188 64.150391 50.367188 C 62.224465 50.367187 60.812567 49.728416 59.916016 48.453125 C 59.036066 47.177834 58.595703 45.069932 58.595703 42.126953 L 58.595703 41.316406 C 58.628909 38.700424 59.07806 36.829314 59.941406 35.701172 C 60.804752 34.55668 62.174664 33.984375 64.050781 33.984375 z M 32.087891 34.082031 C 34.128082 34.082031 35.603344 34.727891 36.515625 36.019531 C 37.444492 37.294823 37.908203 39.395635 37.908203 42.322266 L 37.908203 43.230469 C 37.908203 45.813751 37.46895 47.684861 36.589844 48.845703 C 35.710737 49.990195 34.25113 50.5625 32.210938 50.5625 C 30.336616 50.5625 28.952334 49.884384 28.056641 48.527344 C 27.177533 47.170303 26.738281 45.117874 26.738281 42.371094 C 26.738281 36.844832 28.521702 34.082031 32.087891 34.082031 z "
     id="path4321" />
  <g
     id="layer2-9"
     style="display:none"
     transform="translate(-90.241379,-2.4013953)">
    <path
       d="M 11,7 48,5 85,7 c 3.324,0 6,2.676 6,6 l 0,73 c 0,3.324 -2.676,6 -6,6 L 11,92 C 7.676,92 5,89.324 5,86 L 5,13 C 5,9.676 7.676,7 11,7 Z"
       inkscape:connector-curvature="0"
       id="rect3745-5"
       style="opacity:0.9;fill:url(#linearGradient4793);fill-opacity:1;fill-rule:nonzero;stroke:none;filter:url(#filter3174-8)" />
  </g>
  <g
     id="layer3"
     transform="translate(-90.241379,-2.4013953)" />
  <g
     id="layer4"
     style="display:none"
     transform="translate(-90.241379,-2.4013953)">
    <rect
       width="30"
       height="30"
       rx="2.8125"
       ry="2.8125"
       x="-86"
       y="56"
       transform="matrix(0,-1,1,0,0,4)"
       id="rect3790"
       style="opacity:0.6;fill:#000000;fill-opacity:1;stroke:none;filter:url(#filter3806)" />
    <rect
       width="30"
       height="30"
       rx="2.8125"
       ry="2.8125"
       x="-88"
       y="56"
       transform="matrix(0,-1,1,0,0,0)"
       id="rect2993"
       style="fill:url(#linearGradient3773);fill-opacity:1;stroke:none" />
    <path
       d="M 58.8125,58 C 57.254375,58 56,59.254375 56,60.8125 l 0,24.375 c 0,0.873066 0.410816,1.641163 1.03125,2.15625 C 57.02841,87.289908 57,87.242129 57,87.1875 l 0,-24.375 C 57,61.254375 58.17075,60 59.625,60 l 22.75,0 C 83.82925,60 85,61.254375 85,62.8125 l 0,24.375 c 0,0.05463 -0.02841,0.102408 -0.03125,0.15625 C 85.589184,86.828663 86,86.060566 86,85.1875 l 0,-24.375 C 86,59.254375 84.745625,58 83.1875,58 l -24.375,0 z"
       inkscape:connector-curvature="0"
       id="rect3775"
       style="opacity:0.5;fill:url(#linearGradient3788);fill-opacity:1;stroke:none" />
    <path
       d="m 116,63.5 0,8.75 -5,0 10,13.75 10,-13.75 -5,0 0,-8.75 -10,0 z"
       inkscape:connector-curvature="0"
       transform="translate(-50,0)"
       clip-path="url(#clipPath3823)"
       id="path3810"
       style="display:inline;opacity:0.6;fill:url(#linearGradient3812);fill-opacity:1;fill-rule:nonzero;stroke:none;filter:url(#filter3831)" />
    <path
       d="m 66,62.5 0,8.75 -5,0 10,13.75 10,-13.75 -5,0 0,-8.75 -10,0 z"
       inkscape:connector-curvature="0"
       id="path4278"
       style="display:inline;fill:url(#linearGradient3832);fill-opacity:1;fill-rule:nonzero;stroke:none" />
  </g>
  <g
     id="g4938"
     transform="translate(47.475941,-19.870614)">
    <path
       inkscape:connector-curvature="0"
       d="m -32.112897,54.846715 c 1.397879,1.425159 3.057357,2.429607 4.839262,2.983106 a 0.87790088,0.87790088 0 0 0 0.861786,-1.480504 c -4.683213,-4.279507 -4.376408,-9.666818 -1.922447,-13.059379 l 2.010835,2.055029 a 0.87790088,0.87790088 0 0 0 1.480505,-0.464038 l 1.878253,-10.584505 a 0.87790088,0.87790088 0 0 0 -1.016466,-1.016466 l -10.407728,1.922446 a 0.87790088,0.87790088 0 0 0 -0.464039,1.480505 l 2.099223,2.143418 c -3.798314,4.692747 -3.655596,11.64016 0.640816,16.020388 z"
       id="path4036"
       style="display:inline;opacity:0.15;fill:url(#linearGradient4803);fill-opacity:1;stroke:none" />
    <path
       d="m 126.77481,78.668776 -5.99211,8.721478 -6.16173,-8.838877 3.96478,0.0383 c -0.25101,-4.905678 -4.4683,-9.938783 -11.69776,-9.613148 1.52232,-0.80073 3.26698,-1.251477 5.1202,-1.233571 5.9493,0.05747 10.83282,4.956046 11.03252,10.889749 l 3.7341,0.03607 z"
       inkscape:connector-curvature="0"
       transform="matrix(-0.70710678,-0.70710678,0.70710678,-0.70710678,-0.204704,181.33044)"
       clip-path="url(#clipPath4029)"
       id="path4022"
       style="display:inline;opacity:0.3;fill:url(#linearGradient4805);fill-opacity:1;stroke:none" />
    <path
       d="m -34.927914,36.766995 10.404078,-1.929954 -1.893029,10.607031 -2.77644,-2.830606 c -3.291347,3.64633 -3.868216,10.187347 1.474043,15.069088 -1.642644,-0.510241 -3.195031,-1.425176 -4.492794,-2.748262 -4.166153,-4.247427 -4.155507,-11.164414 -0.100955,-15.501385 l -2.614902,-2.665912 z"
       inkscape:connector-curvature="0"
       id="path4018"
       style="display:inline;fill:url(#linearGradient4029);fill-opacity:1;stroke:none" />
  </g>
  <g
     transform="matrix(-1,0,0,-1,47.048518,113.26674)"
     id="g4943">
    <path
       style="display:inline;opacity:0.15;fill:url(#linearGradient4951);fill-opacity:1;stroke:none"
       id="path4945"
       d="m -32.112897,54.846715 c 1.397879,1.425159 3.057357,2.429607 4.839262,2.983106 a 0.87790088,0.87790088 0 0 0 0.861786,-1.480504 c -4.683213,-4.279507 -4.376408,-9.666818 -1.922447,-13.059379 l 2.010835,2.055029 a 0.87790088,0.87790088 0 0 0 1.480505,-0.464038 l 1.878253,-10.584505 a 0.87790088,0.87790088 0 0 0 -1.016466,-1.016466 l -10.407728,1.922446 a 0.87790088,0.87790088 0 0 0 -0.464039,1.480505 l 2.099223,2.143418 c -3.798314,4.692747 -3.655596,11.64016 0.640816,16.020388 z"
       inkscape:connector-curvature="0" />
    <path
       style="display:inline;opacity:0.3;fill:url(#linearGradient4953);fill-opacity:1;stroke:none"
       id="path4947"
       clip-path="url(#clipPath4029)"
       transform="matrix(-0.70710678,-0.70710678,0.70710678,-0.70710678,-0.204704,181.33044)"
       inkscape:connector-curvature="0"
       d="m 126.77481,78.668776 -5.99211,8.721478 -6.16173,-8.838877 3.96478,0.0383 c -0.25101,-4.905678 -4.4683,-9.938783 -11.69776,-9.613148 1.52232,-0.80073 3.26698,-1.251477 5.1202,-1.233571 5.9493,0.05747 10.83282,4.956046 11.03252,10.889749 l 3.7341,0.03607 z" />
    <path
       style="display:inline;fill:url(#linearGradient4955);fill-opacity:1;stroke:none"
       id="path4949"
       inkscape:connector-curvature="0"
       d="m -34.927914,36.766995 10.404078,-1.929954 -1.893029,10.607031 -2.77644,-2.830606 c -3.291347,3.64633 -3.868216,10.187347 1.474043,15.069088 -1.642644,-0.510241 -3.195031,-1.425176 -4.492794,-2.748262 -4.166153,-4.247427 -4.155507,-11.164414 -0.100955,-15.501385 l -2.614902,-2.665912 z" />
  </g>
</svg>
