<?xml version="1.0" encoding="UTF-8" standalone="no"?>
<!-- Created with Inkscape (http://www.inkscape.org/) -->

<svg
   xmlns:dc="http://purl.org/dc/elements/1.1/"
   xmlns:cc="http://creativecommons.org/ns#"
   xmlns:rdf="http://www.w3.org/1999/02/22-rdf-syntax-ns#"
   xmlns:svg="http://www.w3.org/2000/svg"
   xmlns="http://www.w3.org/2000/svg"
   xmlns:xlink="http://www.w3.org/1999/xlink"
   xmlns:sodipodi="http://sodipodi.sourceforge.net/DTD/sodipodi-0.dtd"
   xmlns:inkscape="http://www.inkscape.org/namespaces/inkscape"
   version="1.0"
   width="96"
   height="96"
   id="svg2408"
   inkscape:version="0.91 r"
   sodipodi:docname="gtk-info.svg">
  <sodipodi:namedview
     pagecolor="#ffffff"
     bordercolor="#666666"
     borderopacity="1"
     objecttolerance="10"
     gridtolerance="10"
     guidetolerance="10"
     inkscape:pageopacity="0"
     inkscape:pageshadow="2"
     inkscape:window-width="1280"
     inkscape:window-height="969"
     id="namedview78"
     showgrid="false"
     inkscape:zoom="16"
     inkscape:cx="50.5113"
     inkscape:cy="50.0812"
     inkscape:window-x="0"
     inkscape:window-y="28"
     inkscape:window-maximized="1"
     inkscape:current-layer="svg2408" />
  <defs
     id="defs2410">
    <linearGradient
       id="linearGradient3739">
      <stop
         id="stop3742"
         style="stop-color:#ffffff;stop-opacity:1"
         offset="0" />
      <stop
         id="stop3744"
         style="stop-color:#ffffff;stop-opacity:0"
         offset="1" />
    </linearGradient>
    <linearGradient
       id="linearGradient3731">
      <stop
         id="stop3733"
         style="stop-color:#dcdcdc;stop-opacity:1"
         offset="0" />
      <stop
         id="stop3757"
         style="stop-color:#ebebeb;stop-opacity:1"
         offset="0.30654153" />
      <stop
         id="stop3737"
         style="stop-color:#ffffff;stop-opacity:1"
         offset="0.70706075" />
      <stop
         id="stop3759"
         style="stop-color:#fafafa;stop-opacity:1"
         offset="0.84501493" />
      <stop
         id="stop3735"
         style="stop-color:#f0f0f0;stop-opacity:1"
         offset="1" />
    </linearGradient>
    <linearGradient
       id="linearGradient2881">
      <stop
         id="stop2883"
         style="stop-color:#3e5e8e;stop-opacity:1"
         offset="0" />
      <stop
         id="stop2885"
         style="stop-color:#89a4cb;stop-opacity:1"
         offset="1" />
    </linearGradient>
    <linearGradient
       id="linearGradient3697">
      <stop
         id="stop3699"
         style="stop-color:#dcdcdc;stop-opacity:1"
         offset="0" />
      <stop
         id="stop3701"
         style="stop-color:#f0f0f0;stop-opacity:1"
         offset="1" />
    </linearGradient>
    <linearGradient
       id="linearGradient3614">
      <stop
         id="stop3616"
         style="stop-color:#65a31b;stop-opacity:1"
         offset="0" />
      <stop
         id="stop3618"
         style="stop-color:#a0de42;stop-opacity:1"
         offset="1" />
    </linearGradient>
    <linearGradient
       x1="45.447727"
       y1="92.539597"
       x2="45.447727"
       y2="7.0165396"
       id="ButtonShadow"
       gradientUnits="userSpaceOnUse"
       gradientTransform="scale(1.0058652,0.994169)">
      <stop
         id="stop3750"
         style="stop-color:#000000;stop-opacity:1"
         offset="0" />
      <stop
         id="stop3752"
         style="stop-color:#000000;stop-opacity:0.58823532"
         offset="1" />
    </linearGradient>
    <linearGradient
       id="linearGradient3737">
      <stop
         id="stop3739"
         style="stop-color:#ffffff;stop-opacity:1"
         offset="0" />
      <stop
         id="stop3741"
         style="stop-color:#ffffff;stop-opacity:0"
         offset="1" />
    </linearGradient>
    <filter
       color-interpolation-filters="sRGB"
       id="filter3174">
      <feGaussianBlur
         id="feGaussianBlur3176"
         stdDeviation="1.71" />
    </filter>
    <linearGradient
       x1="36.357143"
       y1="6"
       x2="36.357143"
       y2="63.893143"
       id="linearGradient3188"
       xlink:href="#linearGradient3737"
       gradientUnits="userSpaceOnUse" />
    <filter
       x="-0.192"
       y="-0.192"
       width="1.3839999"
       height="1.3839999"
       color-interpolation-filters="sRGB"
       id="filter3794">
      <feGaussianBlur
         id="feGaussianBlur3796"
         stdDeviation="5.28" />
    </filter>
    <linearGradient
       x1="48"
       y1="20.220806"
       x2="48"
       y2="138.66119"
       id="linearGradient3613"
       xlink:href="#linearGradient3737"
       gradientUnits="userSpaceOnUse" />
    <radialGradient
       cx="48"
       cy="90.171875"
       r="42"
       fx="48"
       fy="90.171875"
       id="radialGradient3619"
       xlink:href="#linearGradient3737"
       gradientUnits="userSpaceOnUse"
       gradientTransform="matrix(1.1573129,0,0,0.99590774,-7.5510206,0.19713193)" />
    <clipPath
       id="clipPath3613">
      <rect
         width="84"
         height="84"
         rx="6"
         ry="6"
         x="6"
         y="6"
         id="rect3615"
         style="fill:#ffffff;fill-opacity:1;fill-rule:nonzero;stroke:none" />
    </clipPath>
    <linearGradient
       x1="48"
       y1="90"
       x2="48"
       y2="5.9877172"
       id="linearGradient3617"
       xlink:href="#linearGradient3614"
       gradientUnits="userSpaceOnUse" />
    <linearGradient
       x1="71.671646"
       y1="62.025059"
       x2="71.671646"
       y2="26.413651"
       id="linearGradient3661"
       xlink:href="#linearGradient3697"
       gradientUnits="userSpaceOnUse"
       gradientTransform="translate(-125,0.65261)" />
    <linearGradient
       x1="48.082497"
       y1="75.561722"
       x2="46.654823"
       y2="16.972879"
       id="linearGradient3664"
       xlink:href="#linearGradient3731"
       gradientUnits="userSpaceOnUse"
       gradientTransform="translate(0,1)" />
    <linearGradient
       x1="15"
       y1="48.272732"
       x2="81"
       y2="48.272732"
       id="linearGradient3746"
       xlink:href="#linearGradient3739"
       gradientUnits="userSpaceOnUse" />
    <linearGradient
       x1="48"
       y1="90"
       x2="48"
       y2="5.9877172"
       id="linearGradient3662"
       xlink:href="#linearGradient2881"
       gradientUnits="userSpaceOnUse"
       gradientTransform="translate(100,0)" />
    <linearGradient
       x1="45.447727"
       y1="92.539597"
       x2="45.447727"
       y2="7.0165396"
       id="ButtonShadow-0"
       gradientUnits="userSpaceOnUse"
       gradientTransform="matrix(1.0058652,0,0,0.994169,100,0)">
      <stop
         id="stop3750-8"
         style="stop-color:#000000;stop-opacity:1"
         offset="0" />
      <stop
         id="stop3752-5"
         style="stop-color:#000000;stop-opacity:0.58823532"
         offset="1" />
    </linearGradient>
    <linearGradient
       x1="32.251034"
       y1="6.1317081"
       x2="32.251034"
       y2="90.238609"
       id="linearGradient3780"
       xlink:href="#ButtonShadow-0"
       gradientUnits="userSpaceOnUse"
       gradientTransform="matrix(1.0238095,0,0,1.0119048,-1.1428571,-98.071429)" />
    <linearGradient
       x1="32.251034"
       y1="6.1317081"
       x2="32.251034"
       y2="90.238609"
       id="linearGradient3772"
       xlink:href="#ButtonShadow-0"
       gradientUnits="userSpaceOnUse"
       gradientTransform="matrix(1.0238095,0,0,1.0119048,-1.1428571,-98.071429)" />
    <linearGradient
       x1="32.251034"
       y1="6.1317081"
       x2="32.251034"
       y2="90.238609"
       id="linearGradient3725"
       xlink:href="#ButtonShadow-0"
       gradientUnits="userSpaceOnUse"
       gradientTransform="matrix(1.0238095,0,0,1.0119048,-1.1428571,-98.071429)" />
    <linearGradient
       x1="32.251034"
       y1="6.1317081"
       x2="32.251034"
       y2="90.238609"
       id="linearGradient3721"
       xlink:href="#ButtonShadow-0"
       gradientUnits="userSpaceOnUse"
       gradientTransform="translate(0,-97)" />
    <linearGradient
       x1="32.251034"
       y1="6.1317081"
       x2="32.251034"
       y2="90.238609"
       id="linearGradient2918"
       xlink:href="#ButtonShadow-0"
       gradientUnits="userSpaceOnUse"
       gradientTransform="matrix(1.0238095,0,0,1.0119048,-1.1428571,-98.071429)" />
  </defs>
  <metadata
     id="metadata2413">
    <rdf:RDF>
      <cc:Work
         rdf:about="">
        <dc:format>image/svg+xml</dc:format>
        <dc:type
           rdf:resource="http://purl.org/dc/dcmitype/StillImage" />
      </cc:Work>
    </rdf:RDF>
  </metadata>
  <g
     id="layer2"
     style="display:none">
    <rect
       width="86"
       height="85"
       rx="6"
       ry="6"
       x="5"
       y="7"
       id="rect3745"
       style="opacity:0.9;fill:url(#ButtonShadow);fill-opacity:1;fill-rule:nonzero;stroke:none;filter:url(#filter3174)" />
  </g>
  <g
     id="layer7"
     style="display:inline">
    <path
       d="m 12,-95.03125 c -5.5110903,0 -10.03125,4.52016 -10.03125,10.03125 l 0,71 c 0,5.5110902 4.5201598,10.03125 10.03125,10.03125 l 72,0 c 5.51109,0 10.03125,-4.5201597 10.03125,-10.03125 l 0,-71 c 0,-5.51109 -4.52016,-10.03125 -10.03125,-10.03125 l -72,0 z"
       transform="scale(1,-1)"
       id="path3786"
       style="opacity:0.07999998;fill:url(#linearGradient2918);fill-opacity:1;fill-rule:nonzero;stroke:none;display:inline" />
    <path
       d="m 12,-94.03125 c -4.971633,0 -9.03125,4.059617 -9.03125,9.03125 l 0,71 c 0,4.9716329 4.0596171,9.03125 9.03125,9.03125 l 72,0 c 4.971633,0 9.03125,-4.059617 9.03125,-9.03125 l 0,-71 c 0,-4.971633 -4.059617,-9.03125 -9.03125,-9.03125 l -72,0 z"
       transform="scale(1,-1)"
       id="path3778"
       style="opacity:0.1;fill:url(#linearGradient3780);fill-opacity:1;fill-rule:nonzero;stroke:none;display:inline" />
    <path
       d="m 12,-93 c -4.4091333,0 -8,3.590867 -8,8 l 0,71 c 0,4.4091333 3.5908667,8 8,8 l 72,0 c 4.409133,0 8,-3.5908667 8,-8 l 0,-71 c 0,-4.409133 -3.590867,-8 -8,-8 l -72,0 z"
       transform="scale(1,-1)"
       id="path3770"
       style="opacity:0.2;fill:url(#linearGradient3772);fill-opacity:1;fill-rule:nonzero;stroke:none;display:inline" />
    <rect
       width="86"
       height="85"
       rx="7"
       ry="7"
       x="5"
       y="-92"
       transform="scale(1,-1)"
       id="rect3723"
       style="opacity:0.3;fill:url(#linearGradient3725);fill-opacity:1;fill-rule:nonzero;stroke:none;display:inline" />
    <rect
       width="84"
       height="84"
       rx="6"
       ry="6"
       x="6"
       y="-91"
       transform="scale(1,-1)"
       id="rect3716"
       style="opacity:0.45;fill:url(#linearGradient3721);fill-opacity:1;fill-rule:nonzero;stroke:none;display:inline" />
  </g>
  <g
     id="layer1"
     style="display:inline">
    <rect
       width="84"
       height="84"
       rx="6"
       ry="6"
       x="6"
       y="6"
       id="rect2419"
       style="fill:url(#linearGradient3617);fill-opacity:1;fill-rule:nonzero;stroke:none" />
    <path
       d="M 12,6 C 8.676,6 6,8.676 6,12 l 0,2 0,68 0,2 c 0,0.334721 0.04135,0.6507 0.09375,0.96875 0.0487,0.295596 0.09704,0.596915 0.1875,0.875 0.00988,0.03038 0.020892,0.0636 0.03125,0.09375 0.098865,0.287771 0.2348802,0.547452 0.375,0.8125 0.1445918,0.273507 0.3156161,0.535615 0.5,0.78125 0.1843839,0.245635 0.3737765,0.473472 0.59375,0.6875 0.439947,0.428056 0.94291,0.814526 1.5,1.09375 0.278545,0.139612 0.5734731,0.246947 0.875,0.34375 -0.2562018,-0.100222 -0.4867109,-0.236272 -0.71875,-0.375 -0.00741,-0.0044 -0.023866,0.0045 -0.03125,0 -0.031933,-0.0193 -0.062293,-0.04251 -0.09375,-0.0625 -0.120395,-0.0767 -0.2310226,-0.163513 -0.34375,-0.25 -0.1061728,-0.0808 -0.2132809,-0.161112 -0.3125,-0.25 C 8.4783201,88.557317 8.3087904,88.373362 8.15625,88.1875 8.0486711,88.057245 7.9378561,87.922215 7.84375,87.78125 7.818661,87.74287 7.805304,87.69538 7.78125,87.65625 7.716487,87.553218 7.6510225,87.451733 7.59375,87.34375 7.4927417,87.149044 7.3880752,86.928049 7.3125,86.71875 7.30454,86.69694 7.288911,86.6782 7.28125,86.65625 7.2494249,86.5643 7.2454455,86.469419 7.21875,86.375 7.1884177,86.268382 7.1483606,86.171969 7.125,86.0625 7.0521214,85.720988 7,85.364295 7,85 L 7,83 7,15 7,13 C 7,10.218152 9.2181517,8 12,8 l 2,0 68,0 2,0 c 2.781848,0 5,2.218152 5,5 l 0,2 0,68 0,2 c 0,0.364295 -0.05212,0.720988 -0.125,1.0625 -0.04415,0.206893 -0.08838,0.397658 -0.15625,0.59375 -0.0077,0.02195 -0.0233,0.04069 -0.03125,0.0625 -0.06274,0.173739 -0.138383,0.367449 -0.21875,0.53125 -0.04158,0.0828 -0.07904,0.169954 -0.125,0.25 -0.0546,0.09721 -0.126774,0.18835 -0.1875,0.28125 -0.09411,0.140965 -0.204921,0.275995 -0.3125,0.40625 -0.143174,0.17445 -0.303141,0.346998 -0.46875,0.5 -0.01117,0.0102 -0.01998,0.02115 -0.03125,0.03125 -0.138386,0.125556 -0.285091,0.234436 -0.4375,0.34375 -0.102571,0.07315 -0.204318,0.153364 -0.3125,0.21875 -0.0074,0.0045 -0.02384,-0.0044 -0.03125,0 -0.232039,0.138728 -0.462548,0.274778 -0.71875,0.375 0.301527,-0.0968 0.596455,-0.204138 0.875,-0.34375 0.55709,-0.279224 1.060053,-0.665694 1.5,-1.09375 0.219973,-0.214028 0.409366,-0.441865 0.59375,-0.6875 0.184384,-0.245635 0.355408,-0.507743 0.5,-0.78125 0.14012,-0.265048 0.276135,-0.524729 0.375,-0.8125 0.01041,-0.03078 0.02133,-0.06274 0.03125,-0.09375 0.09046,-0.278085 0.1388,-0.579404 0.1875,-0.875 C 89.95865,84.6507 90,84.334721 90,84 l 0,-2 0,-68 0,-2 C 90,8.676 87.324,6 84,6 L 12,6 z"
       inkscape:connector-curvature="0"
       id="rect3728"
       style="opacity:0.4;fill:url(#linearGradient3188);fill-opacity:1;fill-rule:nonzero;stroke:none" />
    <path
       d="M 12,90 C 8.676,90 6,87.324 6,84 L 6,82 6,14 6,12 c 0,-0.334721 0.04135,-0.6507 0.09375,-0.96875 0.0487,-0.295596 0.09704,-0.596915 0.1875,-0.875 C 6.29113,10.12587 6.302142,10.09265 6.3125,10.0625 6.411365,9.774729 6.5473802,9.515048 6.6875,9.25 6.8320918,8.976493 7.0031161,8.714385 7.1875,8.46875 7.3718839,8.223115 7.5612765,7.995278 7.78125,7.78125 8.221197,7.353194 8.72416,6.966724 9.28125,6.6875 9.559795,6.547888 9.8547231,6.440553 10.15625,6.34375 9.9000482,6.443972 9.6695391,6.580022 9.4375,6.71875 c -0.00741,0.0044 -0.023866,-0.0045 -0.03125,0 -0.031933,0.0193 -0.062293,0.04251 -0.09375,0.0625 -0.120395,0.0767 -0.2310226,0.163513 -0.34375,0.25 -0.1061728,0.0808 -0.2132809,0.161112 -0.3125,0.25 C 8.4783201,7.442683 8.3087904,7.626638 8.15625,7.8125 8.0486711,7.942755 7.9378561,8.077785 7.84375,8.21875 7.818661,8.25713 7.805304,8.30462 7.78125,8.34375 7.716487,8.446782 7.6510225,8.548267 7.59375,8.65625 7.4927417,8.850956 7.3880752,9.071951 7.3125,9.28125 7.30454,9.30306 7.288911,9.3218 7.28125,9.34375 7.2494249,9.4357 7.2454455,9.530581 7.21875,9.625 7.1884177,9.731618 7.1483606,9.828031 7.125,9.9375 7.0521214,10.279012 7,10.635705 7,11 l 0,2 0,68 0,2 c 0,2.781848 2.2181517,5 5,5 l 2,0 68,0 2,0 c 2.781848,0 5,-2.218152 5,-5 l 0,-2 0,-68 0,-2 C 89,10.635705 88.94788,10.279012 88.875,9.9375 88.83085,9.730607 88.78662,9.539842 88.71875,9.34375 88.71105,9.3218 88.69545,9.30306 88.6875,9.28125 88.62476,9.107511 88.549117,8.913801 88.46875,8.75 88.42717,8.6672 88.38971,8.580046 88.34375,8.5 88.28915,8.40279 88.216976,8.31165 88.15625,8.21875 88.06214,8.077785 87.951329,7.942755 87.84375,7.8125 87.700576,7.63805 87.540609,7.465502 87.375,7.3125 87.36383,7.3023 87.35502,7.29135 87.34375,7.28125 87.205364,7.155694 87.058659,7.046814 86.90625,6.9375 86.803679,6.86435 86.701932,6.784136 86.59375,6.71875 c -0.0074,-0.0045 -0.02384,0.0044 -0.03125,0 -0.232039,-0.138728 -0.462548,-0.274778 -0.71875,-0.375 0.301527,0.0968 0.596455,0.204138 0.875,0.34375 0.55709,0.279224 1.060053,0.665694 1.5,1.09375 0.219973,0.214028 0.409366,0.441865 0.59375,0.6875 0.184384,0.245635 0.355408,0.507743 0.5,0.78125 0.14012,0.265048 0.276135,0.524729 0.375,0.8125 0.01041,0.03078 0.02133,0.06274 0.03125,0.09375 0.09046,0.278085 0.1388,0.579404 0.1875,0.875 C 89.95865,11.3493 90,11.665279 90,12 l 0,2 0,68 0,2 c 0,3.324 -2.676,6 -6,6 l -72,0 z"
       inkscape:connector-curvature="0"
       id="path3615"
       style="opacity:0.2;fill:url(#radialGradient3619);fill-opacity:1;fill-rule:nonzero;stroke:none" />
    <rect
       width="84"
       height="84"
       rx="6"
       ry="6"
       x="106"
       y="6"
       id="rect3659"
       style="fill:url(#linearGradient3662);fill-opacity:1;fill-rule:nonzero;stroke:none" />
  </g>
  <g
     id="layer5"
     style="display:inline">
    <rect
       width="66"
       height="66"
       rx="12"
       ry="12"
       x="15"
       y="15"
       clip-path="url(#clipPath3613)"
       id="rect3171"
       style="opacity:0.1;fill:url(#linearGradient3613);fill-opacity:1;fill-rule:nonzero;stroke:#ffffff;stroke-width:0.5;stroke-linecap:round;stroke-linejoin:miter;stroke-miterlimit:4;stroke-opacity:1;stroke-dasharray:none;stroke-dashoffset:0;filter:url(#filter3794)" />
  </g>
  <g
     id="layer3">
    <path
       style="display:inline;opacity:0.05;fill:#000000;fill-opacity:1;stroke:none"
       d="m 48,14.75 c -13.5636,-0.074 -27.8318,6.5179 -34.2586,18.9024 -4.795,8.9414 -3.6969,20.4742 2.5537,28.4276 2.4158,3.2283 5.4427,5.9768 8.7987,8.2012 -0.5789,3.0676 -3.7472,4.547 -6.3126,5.3438 -1.776,0.8742 -2.8308,3.2786 -2,5.2812 0.5736,1.7453 2.5099,2.8527 4.2365,2.7288 7.4087,0.7098 15.0016,-1.9226 20.4511,-6.9788 14.5057,2.476 30.8286,-3.0927 39.1935,-15.5676 C 87.0972,51.774 86.6681,38.5408 79.7512,29.6023 72.4754,19.7729 60.0168,14.7208 48,14.75 Z"
       id="path3724"
       inkscape:connector-curvature="0"
       sodipodi:nodetypes="ccccccccccc" />
    <path
       id="path3720"
       transform="translate(0,1)"
       style="display:inline;opacity:0.05;fill:#000000;fill-opacity:1;stroke:none"
       d="m 48,14.9375 c -19.5792,0 -36.0625,13.1484 -36.0625,30.0625 0,9.945 5.9764,18.4908 14.5938,23.875 -0.22,0.8336 -0.4365,1.6873 -1.0625,2.6563 -1.0314,1.5963 -2.7242,2.6098 -5.5313,3.9375 -4.8095,2.2748 -1.4075,5.7794 0.6238,5.937 9.7682,0.758 16.58,-3.2481 20.5625,-7 2.2149,0.3695 4.4887,0.6562 6.875,0.6562 C 67.5792,75.0625 84.0625,61.9141 84.0625,45 84.0625,28.0859 67.5792,14.9375 48,14.9375 Z m 2.7813,15.125 c 0.6014,0 0.5914,-0.013 1,0.375 0.015,0.015 0.014,0.015 0.031,0.031 0.01,0.011 0.021,0.021 0.031,0.031 0.4632,0.4365 0.3437,0.1713 0.3437,0.7188 0,0.5575 0.084,0.3637 -0.3125,0.7187 -0.014,0.013 -0.018,0.019 -0.031,0.031 -0.3717,0.3389 -0.4608,0.375 -1.0625,0.375 -0.6068,0 -0.713,-0.035 -1.0938,-0.375 -0.024,-0.022 -0.01,-0.013 -0.031,-0.031 -0.3961,-0.355 -0.3126,-0.1612 -0.3125,-0.7187 -10e-5,-0.587 -0.1327,-0.3065 0.3437,-0.75 0.4389,-0.4087 0.4745,-0.4063 1.0938,-0.4063 z m -3.4688,12.375 c 0.9189,0.035 1.783,0.4582 1.8125,0.8125 0.3255,3.9129 -1.7671,8.3701 -2.625,12.125 -0.3605,1.5779 -0.1875,3.0802 0.2188,4.4688 -1.3738,-0.1123 -1.8248,-2.0165 -1.8179,-2.7557 0.4045,-5.3324 3.4739,-10.3468 2.4116,-14.6506 z"
       inkscape:connector-curvature="0"
       sodipodi:nodetypes="ssccssccssccccsccsccccccccsccc" />
    <path
       style="display:inline;opacity:0.12;fill:#000000;fill-opacity:1;stroke:none"
       d="m 48,17.0313 c -12.7099,-0.072 -26.1192,6.0051 -32.1904,17.6049 -4.5508,8.4108 -3.3502,19.2857 2.6283,26.6789 2.5549,3.3151 5.8077,6.0621 9.4059,8.1849 -0.7206,4.0513 -4.0759,7.2495 -8.031,8.1553 -1.671,0.7888 -1.1543,3.6109 0.718,3.6868 7.377,0.929 15.0179,-1.8017 20.25,-7.0625 13.6796,2.5799 29.2414,-2.173 37.5082,-13.7676 6.1961,-8.3983 6.1961,-20.6256 0,-29.0239 C 71.5167,21.8817 59.5169,16.998 48,17.0313 Z m 2.7813,12.9375 c 3.5091,-0.2282 2.9478,5.3984 -0.5485,4.4308 -3.002,-0.508 -2.3895,-4.5324 0.5485,-4.4308 z m -1.4375,12.9375 c 2.0161,2.2835 0.012,6.2171 -0.6239,9.2116 -0.7671,3.0278 -2.4075,7.2171 0.061,9.7229 -2.3269,1.1758 -5.6094,-1.3819 -4.7502,-4.8599 1.2391,-8.2637 3.3233,-13.0224 0.3991,-14.8598 1.6931,-0.6915 4.2745,0.061 4.914,0.7852 z"
       id="path3716"
       inkscape:connector-curvature="0"
       sodipodi:nodetypes="cccccccccccccsccccs" />
    <path
       style="display:inline;opacity:0.24;fill:#000000;fill-opacity:1;stroke:none"
       d="m 48,18.0313 c -12.3354,-0.072 -25.3721,5.7756 -31.2852,17.034 -4.4659,8.2238 -3.1793,18.8737 2.74,26.0329 2.5843,3.2771 5.8793,5.9612 9.514,7.9956 -0.6286,4.6675 -4.3714,8.4015 -8.8504,9.5464 -1.1297,2.8597 3.957,1.6775 5.628,1.7794 C 31.3163,79.9222 36.5735,77.2249 40.4688,73.25 53.676,75.8085 68.7381,71.5547 77.0276,60.5533 83.0547,52.834 83.629,41.4233 78.2339,33.2171 71.8673,23.1214 59.6385,17.9887 48,18.0313 Z m 2.7813,10.9375 c 5.4376,-0.1777 4.1889,7.4949 -1.3789,6.2294 -3.61,-1.2695 -2.2773,-6.3957 1.3789,-6.2294 z M 50.125,42.281 c 1.8352,2.7416 0.4438,6.2166 -0.1851,9.148 -0.7054,2.931 -2.2246,6.0838 -1.0761,9.0893 0.4956,2.0133 6.1316,0.5168 2.6897,1.6371 -2.6887,1.1622 -6.9096,1.6348 -8.5424,-1.3967 -0.8876,-3.3534 0.8976,-6.7139 1.6377,-9.94 1.5264,-3.1115 1.726,-9.5414 -3.4612,-8.225 2.6139,-1.4263 6.4353,-2.5517 8.9374,-0.3127 z"
       id="path3712"
       inkscape:connector-curvature="0"
       sodipodi:nodetypes="ccccccccccccccccccccc" />
    <path
       d="m 48,18 c -18.2254,0 -33,12.0883 -33,27 0,9.4984 5.9998,17.8435 15.0625,22.6563 -0.3446,2.5087 -1.914,8.6498 -9.3437,10.75 9.6229,1.0458 16.0136,-3.6464 19.4062,-7.1875 C 42.6485,71.7243 45.2861,72 48,72 66.2254,72 81,59.9117 81,45 81,30.0883 66.2254,18 48,18 Z m 2.7813,9 c 1.2342,0 2.2876,0.4272 3.1562,1.25 0.8838,0.8229 1.3125,1.8107 1.3125,2.9688 0,1.1581 -0.4287,2.1459 -1.3125,2.9687 -0.8686,0.8076 -1.922,1.2188 -3.1562,1.2188 -1.2343,0 -2.3038,-0.4112 -3.1875,-1.2188 -0.8839,-0.8228 -1.3126,-1.8106 -1.3125,-2.9687 -1e-4,-1.1581 0.4286,-2.1459 1.3125,-2.9688 C 48.4775,27.4272 49.547,27 50.7813,27 Z m -4.1875,12.1875 c 4.3632,-0.01 6.1256,2.634 5.5622,6.2813 -0.4333,2.9081 -1.4303,5.7463 -2.25,8.6562 -0.3278,1.1707 -0.4815,2.1701 -0.5938,3.375 0,0.8838 0.1975,1.4925 0.5938,1.8125 1.6987,0.7767 3.1592,0.4512 4.875,-0.1875 l -0.5,2.0625 c -2.1918,0.9018 -4.6092,1.8022 -6.7497,1.8125 -5.3855,0.042 -6.5426,-3.8735 -5.3125,-8.25 0.8438,-3.3301 2.184,-6.7538 2.4687,-10.0312 0,-0.8534 -0.2126,-1.4715 -0.563,-1.8067 -1.775,-0.844 -3.1577,-0.3735 -4.7807,0.1817 l 0.5,-2.0625 c 2.2371,-0.8204 4.4861,-1.827 6.75,-1.8438 z"
       inkscape:connector-curvature="0"
       id="path3620"
       style="display:inline;fill:url(#linearGradient3664);fill-opacity:1;stroke:none"
       sodipodi:nodetypes="sscccsssccccccccccccccccccccccc" />
    <path
       d="m -52,18 c -18.225397,0 -33,12.088312 -33,27 0,9.498438 5.99976,17.843462 15.0625,22.65625 -0.344625,2.508754 -1.914014,8.649817 -9.34375,10.75 9.622915,1.045823 16.013601,-3.646306 19.40625,-7.1875 C -57.351493,71.724251 -54.713933,72 -52,72 -33.774603,72 -19,59.911688 -19,45 -19,30.088312 -33.774603,18 -52,18 z"
       inkscape:connector-curvature="0"
       id="path3625"
       style="opacity:0.4;fill:#d40000;fill-opacity:1;stroke:none;display:inline" />
    <path
       d="m -52,18 c -18.225397,0 -33,12.088312 -33,27 0,9.498438 5.99976,17.843462 15.0625,22.65625 -0.344625,2.508754 -1.914014,8.649817 -9.34375,10.75 9.622915,1.045823 16.013601,-3.646306 19.40625,-7.1875 C -57.351493,71.724251 -54.713933,72 -52,72 -33.774603,72 -19,59.911688 -19,45 -19,30.088312 -33.774603,18 -52,18 z m 0,2.9375 c 16.920322,0 30.0625,11.100368 30.0625,24.0625 0,12.962132 -13.142178,24.0625 -30.0625,24.0625 -2.514011,0 -4.943414,-0.281692 -7.28125,-0.75 A 2.9517629,2.9517629 0 0 0 -62,69.1875 c -1.62088,1.691849 -4.004104,3.567605 -7.125,4.875 1.341535,-2.353896 1.934715,-4.614792 2.125,-6 a 2.9517629,2.9517629 0 0 0 -1.5625,-3 c -8.291128,-4.403022 -13.5,-11.80694 -13.5,-20.0625 0,-12.962132 13.142178,-24.0625 30.0625,-24.0625 z"
       inkscape:connector-curvature="0"
       id="path3811"
       style="opacity:0.05;fill:#000000;fill-opacity:1;stroke:none;display:inline" />
    <path
       d="m -52,18 c -18.225397,0 -33,12.088312 -33,27 0,9.498438 5.99976,17.843462 15.0625,22.65625 -0.344625,2.508754 -1.914014,8.649817 -9.34375,10.75 9.622915,1.045823 16.013601,-3.646306 19.40625,-7.1875 C -57.351493,71.724251 -54.713933,72 -52,72 -33.774603,72 -19,59.911688 -19,45 -19,30.088312 -33.774603,18 -52,18 z m 0,1.875 c 17.393221,0 31.125,11.456439 31.125,25.125 0,13.668561 -13.731779,25.125 -31.125,25.125 -2.586453,0 -5.094885,-0.268215 -7.5,-0.75 a 1.8821808,1.8821808 0 0 0 -1.71875,0.53125 c -2.229762,2.327391 -5.862118,5.104965 -10.90625,6.21875 0.603013,-0.636706 1.319873,-1.240512 1.75,-1.90625 1.573141,-2.434865 2.115946,-4.881651 2.3125,-6.3125 A 1.8821808,1.8821808 0 0 0 -69.0625,66 C -77.633225,61.448498 -83.125,53.705921 -83.125,45 -83.125,31.331439 -69.393221,19.875 -52,19.875 z"
       inkscape:connector-curvature="0"
       id="path3804"
       style="opacity:0.07999998;fill:#000000;fill-opacity:1;stroke:none;display:inline" />
    <path
       d="m -52,18 c -18.225397,0 -33,12.088312 -33,27 0,9.498438 5.99976,17.843462 15.0625,22.65625 -0.344625,2.508754 -1.914014,8.649817 -9.34375,10.75 9.622915,1.045823 16.013601,-3.646306 19.40625,-7.1875 C -57.351493,71.724251 -54.713933,72 -52,72 -33.774603,72 -19,59.911688 -19,45 -19,30.088312 -33.774603,18 -52,18 z m 0,1.0625 c 17.7572,0 31.9375,11.725217 31.9375,25.9375 0,14.212283 -14.1803,25.9375 -31.9375,25.9375 -2.642211,0 -5.199353,-0.257842 -7.65625,-0.75 A 1.0589482,1.0589482 0 0 0 -60.625,70.5 c -2.643757,2.759512 -7.248859,6.049087 -13.78125,6.71875 1.442602,-1.037266 2.550304,-2.240676 3.34375,-3.46875 1.481728,-2.293379 2.001549,-4.583837 2.1875,-5.9375 a 1.0589482,1.0589482 0 0 0 -0.5625,-1.09375 c -8.785923,-4.665784 -14.5,-12.666196 -14.5,-21.71875 0,-14.212283 14.1803,-25.9375 31.9375,-25.9375 z"
       inkscape:connector-curvature="0"
       id="path3797"
       style="opacity:0.15;fill:#000000;fill-opacity:1;stroke:none;display:inline" />
    <path
       style="display:inline;fill:url(#linearGradient3746);fill-opacity:1;stroke:none"
       d="M 48,18 C 36.0264,17.9285 23.3556,23.5683 17.5933,34.4904 15.8306,37.9063 14.862,41.7731 15.0312,45.625 15.6286,35.0695 23.9067,26.4939 33.3984,22.7822 47.0525,17.279 64.298,19.8857 74.4923,30.9127 78.2608,35.0195 80.7446,40.3941 80.9688,46 81.5617,35.829 74.5596,26.6975 65.7867,22.2536 60.3295,19.3912 54.1495,17.997 48,18 Z m -1.5938,14.2188 c -0.7983,2.7187 1.6174,5.0981 4.1608,5.216 3.3492,0.1553 5.0042,-3.2014 4.3831,-4.677 -1.4965,3.747 -7.5657,3.4239 -8.5439,-0.539 z m -1.885,13.6866 c 0.276,-1.2054 0.2566,-2.3051 -0.3926,-2.9812 -1.386,-0.7316 -2.7804,-0.5229 -3.6429,-0.2018 -1.0033,0.3736 -1.3529,0.9545 -1.1633,1.2436 1.8877,-1.1569 4.4492,-0.2619 5.1988,1.9394 z m 7.6663,-0.7492 c -0.4474,4.3115 -3.3267,11.0305 -2.839,12.8654 0.2046,0.1856 0.7228,-2.8917 1.1891,-4.138 0.713,-2.8716 1.978,-5.7087 1.6499,-8.7274 z m -10.375,13.9063 c -0.4681,7.8957 10.1339,5.9357 12.3503,2.1692 -5.0414,2.3807 -11.1755,3.0579 -12.3503,-2.1692 z m -12.125,10.375 c -1.0475,4.359 -4.631,7.8887 -8.9687,8.9687 2.9729,0.8152 5.7768,-0.3519 7.2205,-3.0828 0.8342,-1.5886 2.6042,-4.3179 1.7482,-5.8859 z"
       id="path3666"
       inkscape:connector-curvature="0"
       sodipodi:nodetypes="cccccccccsccccsccccccccccccc" />
    <path
       d="m -49.214466,27 c -1.234296,3.5e-5 -2.303701,0.427178 -3.1875,1.25 -0.883818,0.82289 -1.312508,1.810687 -1.3125,2.96875 -8e-6,1.158126 0.428682,2.145922 1.3125,2.96875 0.883799,0.807646 1.953204,1.218776 3.1875,1.21875 1.234272,2.6e-5 2.287664,-0.411104 3.15625,-1.21875 0.883793,-0.822828 1.312484,-1.810624 1.3125,-2.96875 -1.6e-5,-1.158063 -0.428707,-2.14586 -1.3125,-2.96875 -0.868586,-0.822822 -1.921978,-1.249965 -3.15625,-1.25 z m -4.1875,12.1875 c -1.005722,2.3e-5 -2.059887,0.196808 -3.1875,0.5625 -1.127622,0.350498 -2.328217,0.778414 -3.5625,1.28125 l -0.5,2.0625 c 0.365713,-0.137123 0.809642,-0.285099 1.3125,-0.4375 0.518093,-0.152351 1.012378,-0.24998 1.5,-0.25 0.990471,2e-5 1.649519,0.196031 2,0.53125 0.35047,0.335258 0.531245,0.927935 0.53125,1.78125 -5e-6,0.472398 -0.0656,0.983469 -0.1875,1.5625 -0.106672,0.563825 -0.238637,1.172515 -0.40625,1.8125 l -1.875,6.65625 c -0.167622,0.700962 -0.26756,1.342455 -0.34375,1.90625 -0.0762,0.548581 -0.125003,1.091672 -0.125,1.625 -3e-6,1.371429 0.494282,2.507207 1.5,3.40625 1.020947,0.88381 2.452672,1.3125 4.28125,1.3125 1.188562,0 2.225941,-0.148745 3.125,-0.46875 0.899034,-0.304762 2.116414,-0.749469 3.625,-1.34375 l 0.5,-2.0625 c -0.259065,0.121915 -0.670968,0.269876 -1.25,0.4375 -0.579062,0.152397 -1.105371,0.21875 -1.5625,0.21875 -0.975251,0 -1.666321,-0.148745 -2.0625,-0.46875 -0.396201,-0.319995 -0.593761,-0.928681 -0.59375,-1.8125 -1.1e-5,-0.350472 0.06558,-0.876781 0.1875,-1.5625 0.121894,-0.685709 0.253858,-1.279162 0.40625,-1.8125 l 1.875,-6.65625 c 0.182844,-0.609509 0.31404,-1.268556 0.375,-2 0.07618,-0.731411 0.09373,-1.241707 0.09375,-1.53125 -1.5e-5,-1.401884 -0.478287,-2.537659 -1.46875,-3.40625 -0.97525,-0.883788 -2.374178,-1.343727 -4.1875,-1.34375 z"
       inkscape:connector-curvature="0"
       id="path3659"
       style="font-size:48px;font-style:italic;font-variant:normal;font-weight:bold;font-stretch:normal;text-align:start;line-height:100%;writing-mode:tb-rl;text-anchor:start;fill:url(#linearGradient3661);fill-opacity:1;stroke:none;display:inline;font-family:Georgia;-inkscape-font-specification:Georgia Bold Italic" />
  </g>
</svg>
