<?xml version="1.0" encoding="UTF-8" standalone="no"?>
<svg
   xmlns:dc="http://purl.org/dc/elements/1.1/"
   xmlns:cc="http://creativecommons.org/ns#"
   xmlns:rdf="http://www.w3.org/1999/02/22-rdf-syntax-ns#"
   xmlns:svg="http://www.w3.org/2000/svg"
   xmlns="http://www.w3.org/2000/svg"
   xmlns:xlink="http://www.w3.org/1999/xlink"
   xmlns:sodipodi="http://sodipodi.sourceforge.net/DTD/sodipodi-0.dtd"
   xmlns:inkscape="http://www.inkscape.org/namespaces/inkscape"
   viewBox="0 0 96 96"
   id="svg2"
   version="1.1"
   inkscape:version="0.91 r"
   sodipodi:docname="library-internet-radio.svg">
  <title
     id="title189">library-internet-radio</title>
  <metadata
     id="metadata253">
    <rdf:RDF>
      <cc:Work
         rdf:about="">
        <dc:format>image/svg+xml</dc:format>
        <dc:type
           rdf:resource="http://purl.org/dc/dcmitype/StillImage" />
        <dc:title>library-internet-radio</dc:title>
        <dc:subject>
          <rdf:Bag>
            <rdf:li>library-internet-radio</rdf:li>
            <rdf:li>internet-radio</rdf:li>
            <rdf:li>radio</rdf:li>
          </rdf:Bag>
        </dc:subject>
        <dc:description>library-internet-radio, internet-radio, radio</dc:description>
      </cc:Work>
    </rdf:RDF>
  </metadata>
  <sodipodi:namedview
     pagecolor="#ffffff"
     bordercolor="#666666"
     borderopacity="1"
     objecttolerance="10"
     gridtolerance="10"
     guidetolerance="10"
     inkscape:pageopacity="0"
     inkscape:pageshadow="2"
     inkscape:window-width="1280"
     inkscape:window-height="965"
     id="namedview251"
     showgrid="false"
     inkscape:zoom="4"
     inkscape:cx="116.616"
     inkscape:cy="5.73156"
     inkscape:window-x="0"
     inkscape:window-y="27"
     inkscape:window-maximized="1"
     inkscape:current-layer="svg2" />
  <defs
     id="defs4">
    <clipPath
       id="clipPath3613">
      <path
         fill="#fff"
         d="m12,6h72a6,6 0 0,1 6,6v72a6,6 0 0,1 -6,6h-72a6,6 0 0,1 -6-6v-72a6,6 0 0,1 6-6"
         id="path7" />
    </clipPath>
    <clipPath
       id="clipPath3835">
      <path
         fill="#fff"
         d="m27.6818,112.2727c0,4.4572 3.5883,8.0455 8.0455,8.0455h96.5455c4.4572,0 8.0455-3.5883 8.0455-8.0455v-96.5455c0-4.4572-3.5883-8.0455-8.0455-8.0455h-96.5455c-4.4572,0-8.0455,3.5883-8.0455,8.0455v96.5455zm8.0036-5.4055 0-85.7763c0-2.9715 2.3922-5.3636 5.3636-5.3636h85.8601c2.9715,0 5.3636,2.3922 5.3636,5.3636v85.7763c0,2.9715-2.3922,5.3636-5.3636,5.3636h-85.8601c-2.9715,0-5.3636-2.3922-5.3636-5.3636z"
         id="path10" />
    </clipPath>
    <filter
       width="1.384"
       x="-.192"
       y="-.192"
       height="1.384"
       color-interpolation-filters="sRGB"
       id="filter3794">
      <feGaussianBlur
         stdDeviation="5.28"
         id="feGaussianBlur13" />
    </filter>
    <linearGradient
       gradientTransform="matrix(0,-1,1,0,0,96)"
       id="linearGradient3787"
       xlink:href="#linearGradient3187"
       x1="13"
       x2="83"
       gradientUnits="userSpaceOnUse" />
    <linearGradient
       id="linearGradient3949-1">
      <stop
         offset="0"
         stop-color="#6262e2"
         id="stop17" />
      <stop
         offset="1"
         stop-color="#8787ed"
         id="stop19" />
    </linearGradient>
    <linearGradient
       id="linearGradient3873-5">
      <stop
         offset="0"
         stop-color="#ebebeb"
         id="stop22" />
      <stop
         offset="1"
         stop-color="#aaa"
         id="stop24" />
    </linearGradient>
    <linearGradient
       gradientTransform="matrix(0 -.71429 .71429 0 18.57143 87.14286)"
       id="linearGradient4629"
       xlink:href="#linearGradient4535"
       x1="24"
       x2="47.8"
       gradientUnits="userSpaceOnUse" />
    <linearGradient
       id="linearGradient3955-6"
       xlink:href="#linearGradient3949-1"
       y1="22"
       y2="40.028"
       x2="0"
       gradientUnits="userSpaceOnUse" />
    <linearGradient
       id="linearGradient3436-8">
      <stop
         offset="0"
         stop-color="#fff"
         id="stop29" />
      <stop
         offset="1"
         stop-color="#fff"
         stop-opacity="0"
         id="stop31" />
    </linearGradient>
    <linearGradient
       id="linearGradient4078"
       xlink:href="#linearGradient3436-8"
       y1="41"
       y2="17.913"
       x2="0"
       gradientUnits="userSpaceOnUse" />
    <linearGradient
       id="linearGradient4567"
       xlink:href="#linearGradient4535"
       x1="65"
       x2="69"
       gradientUnits="userSpaceOnUse"
       gradientTransform="matrix(0,1,-1,0,94,-40)" />
    <linearGradient
       id="linearGradient4618"
       xlink:href="#linearGradient4499"
       x1="24"
       x2="38"
       gradientUnits="userSpaceOnUse" />
    <linearGradient
       id="linearGradient4608"
       xlink:href="#linearGradient4507"
       x1="24"
       x2="38"
       gradientUnits="userSpaceOnUse"
       gradientTransform="matrix(0,1,1,0,0,34)" />
    <linearGradient
       gradientTransform="matrix(0,-1,1,0,-32,98)"
       id="linearGradient4541"
       xlink:href="#linearGradient4535"
       x1="26"
       x2="53.019"
       gradientUnits="userSpaceOnUse" />
    <linearGradient
       id="linearGradient4505"
       xlink:href="#linearGradient4499"
       x1="26"
       x2="40"
       gradientUnits="userSpaceOnUse"
       gradientTransform="matrix(0,-1,1,0,-32,98)" />
    <linearGradient
       id="linearGradient4218"
       xlink:href="#linearGradient4212"
       y1="22"
       y2="45"
       x2="0"
       gradientUnits="userSpaceOnUse" />
    <linearGradient
       id="linearGradient4495"
       xlink:href="#linearGradient4507"
       x1="54"
       x2="72"
       gradientUnits="userSpaceOnUse"
       gradientTransform="matrix(0,1,1,0,-30,2)" />
    <linearGradient
       id="linearGradient4226"
       xlink:href="#linearGradient4212"
       y1="22"
       y2="44"
       x2="0"
       gradientUnits="userSpaceOnUse" />
    <linearGradient
       id="linearGradient3809"
       xlink:href="#linearGradient3803"
       y1="16"
       y2="64"
       x2="0"
       gradientUnits="userSpaceOnUse" />
    <linearGradient
       id="linearGradient3737-7">
      <stop
         offset="0"
         stop-color="#fff"
         id="stop44" />
      <stop
         offset="1"
         stop-color="#fff"
         stop-opacity="0"
         id="stop46" />
    </linearGradient>
    <linearGradient
       id="linearGradient3187">
      <stop
         offset="0"
         stop-color="#3d3d3d"
         id="stop49" />
      <stop
         offset="1"
         stop-color="#696969"
         id="stop51" />
    </linearGradient>
    <linearGradient
       id="linearGradient3188"
       xlink:href="#linearGradient3737"
       y1="6"
       y2="63.893"
       x2="0"
       gradientUnits="userSpaceOnUse" />
    <linearGradient
       id="linearGradient3737">
      <stop
         offset="0"
         stop-color="#fff"
         id="stop55" />
      <stop
         offset="1"
         stop-color="#fff"
         stop-opacity="0"
         id="stop57" />
    </linearGradient>
    <linearGradient
       id="linearGradient3803">
      <stop
         offset="0"
         stop-color="#fff"
         id="stop60" />
      <stop
         offset="1"
         stop-color="#fff"
         stop-opacity="0"
         id="stop62" />
    </linearGradient>
    <linearGradient
       id="linearGradient4212">
      <stop
         offset="0"
         stop-color="#3737c8"
         id="stop65" />
      <stop
         offset="1"
         stop-color="#3737c8"
         stop-opacity="0"
         id="stop67" />
    </linearGradient>
    <linearGradient
       id="linearGradient4535">
      <stop
         offset="0"
         id="stop70" />
      <stop
         offset="1"
         stop-opacity="0"
         id="stop72" />
    </linearGradient>
    <linearGradient
       id="linearGradient4499">
      <stop
         offset="0"
         stop-color="#cacaca"
         id="stop75" />
      <stop
         offset="1"
         stop-color="#fff"
         id="stop77" />
    </linearGradient>
    <linearGradient
       id="linearGradient4507">
      <stop
         offset="0"
         stop-color="#ebebeb"
         id="stop80" />
      <stop
         offset="1"
         stop-color="#696969"
         id="stop82" />
    </linearGradient>
    <linearGradient
       id="linearGradient3774"
       xlink:href="#linearGradient3670"
       y1="90"
       y2="5.988"
       x2="0"
       gradientUnits="userSpaceOnUse" />
    <linearGradient
       gradientTransform="translate(0 -97)"
       id="linearGradient3721-5"
       xlink:href="#ButtonShadow-0"
       y1="6.132"
       y2="90.239"
       x2="0"
       gradientUnits="userSpaceOnUse" />
    <linearGradient
       id="linearGradient3670">
      <stop
         offset="0"
         stop-color="#895025"
         id="stop87" />
      <stop
         offset="1"
         stop-color="#bf7d4e"
         id="stop89" />
    </linearGradient>
    <linearGradient
       gradientTransform="matrix(1.02381 0 0 1.0119 -1.14286 -98.07143)"
       id="linearGradient3780"
       xlink:href="#ButtonShadow-0"
       y1="6.132"
       y2="90.239"
       x2="0"
       gradientUnits="userSpaceOnUse" />
    <linearGradient
       id="linearGradient2908"
       xlink:href="#linearGradient3737-7"
       y1="20.221"
       y2="138.661"
       x2="0"
       gradientUnits="userSpaceOnUse" />
    <linearGradient
       gradientTransform="matrix(1.00587 0 0 .99417 100 0)"
       id="ButtonShadow-0"
       y1="92.54"
       y2="7.017"
       x2="0"
       gradientUnits="userSpaceOnUse">
      <stop
         offset="0"
         id="stop94" />
      <stop
         offset="1"
         stop-opacity=".588"
         id="stop96" />
    </linearGradient>
    <radialGradient
       cx="48.016"
       cy="79.971"
       gradientTransform="matrix(1,0,0,1.00092,0,-0.04412)"
       r="33.984"
       id="radialGradient3815"
       xlink:href="#linearGradient3803"
       gradientUnits="userSpaceOnUse" />
    <radialGradient
       cx="69"
       cy="33"
       r="2.5"
       id="radialGradient3933-5"
       gradientUnits="userSpaceOnUse">
      <stop
         offset="0"
         stop-color="#9e9e9e"
         id="stop100" />
      <stop
         offset="1"
         stop-color="#494949"
         id="stop102" />
    </radialGradient>
    <radialGradient
       cx="69"
       cy="33"
       r="2.5"
       id="radialGradient3929-2"
       xlink:href="#linearGradient3873-5"
       gradientUnits="userSpaceOnUse" />
    <radialGradient
       cx="69"
       cy="26"
       r="3.5"
       id="radialGradient3909-1"
       xlink:href="#linearGradient3873-5"
       gradientUnits="userSpaceOnUse" />
    <radialGradient
       cx="48"
       cy="90.172"
       gradientTransform="matrix(1.15731,0,0,0.99591,-7.55102,0.19713)"
       r="42"
       id="radialGradient2874"
       gradientUnits="userSpaceOnUse">
      <stop
         offset="0"
         stop-color="#fff"
         id="stop107" />
      <stop
         offset="1"
         stop-color="#fff"
         stop-opacity="0"
         id="stop109" />
    </radialGradient>
    <radialGradient
       inkscape:collect="always"
       xlink:href="#linearGradient3873-5"
       id="radialGradient3606"
       gradientUnits="userSpaceOnUse"
       cx="69"
       cy="33"
       r="2.5" />
    <radialGradient
       inkscape:collect="always"
       xlink:href="#linearGradient3873-5"
       id="radialGradient3608"
       gradientUnits="userSpaceOnUse"
       cx="69"
       cy="33"
       r="2.5" />
    <radialGradient
       inkscape:collect="always"
       xlink:href="#linearGradient3873-5"
       id="radialGradient3610"
       gradientUnits="userSpaceOnUse"
       cx="69"
       cy="33"
       r="2.5" />
    <radialGradient
       inkscape:collect="always"
       xlink:href="#linearGradient3873-5"
       id="radialGradient3612"
       gradientUnits="userSpaceOnUse"
       cx="69"
       cy="33"
       r="2.5" />
    <radialGradient
       inkscape:collect="always"
       xlink:href="#linearGradient3873-5"
       id="radialGradient3614"
       gradientUnits="userSpaceOnUse"
       cx="69"
       cy="33"
       r="2.5" />
  </defs>
  <path
     opacity=".08"
     fill="url(#linearGradient3780)"
     d="m12-95.0312c-5.5111,0-10.0312,4.5202-10.0312,10.0312v71c0,5.5111 4.5202,10.0312 10.0312,10.0312h72c5.5111,0 10.0312-4.5202 10.0312-10.0312v-71c0-5.5111-4.5202-10.0312-10.0312-10.0312h-72z"
     transform="scale(1 -1)"
     id="path111" />
  <path
     opacity=".1"
     fill="url(#linearGradient3780)"
     d="m12-94.0312c-4.9716,0-9.0312,4.0596-9.0312,9.0312v71c0,4.9716 4.0596,9.0312 9.0312,9.0312h72c4.9716,0 9.0312-4.0596 9.0312-9.0312v-71c0-4.9716-4.0596-9.0312-9.0312-9.0312h-72z"
     transform="scale(1 -1)"
     id="path113" />
  <path
     opacity=".2"
     fill="url(#linearGradient3780)"
     d="m12-93c-4.4091,0-8,3.5909-8,8v71c0,4.4091 3.5909,8 8,8h72c4.4091,0 8-3.5909 8-8v-71c0-4.4091-3.5909-8-8-8h-72z"
     transform="scale(1 -1)"
     id="path115" />
  <path
     opacity=".3"
     fill="url(#linearGradient3780)"
     d="m12-92h72a7,7 0 0,1 7,7v71a7,7 0 0,1 -7,7h-72a7,7 0 0,1 -7-7v-71a7,7 0 0,1 7-7"
     transform="scale(1 -1)"
     id="path117" />
  <path
     opacity=".45"
     fill="url(#linearGradient3721-5)"
     d="m12-91h72a6,6 0 0,1 6,6v72a6,6 0 0,1 -6,6h-72a6,6 0 0,1 -6-6v-72a6,6 0 0,1 6-6"
     transform="scale(1 -1)"
     id="path119" />
  <path
     fill="url(#linearGradient3774)"
     d="m12,6h72a6,6 0 0,1 6,6v72a6,6 0 0,1 -6,6h-72a6,6 0 0,1 -6-6v-72a6,6 0 0,1 6-6"
     id="path121" />
  <path
     style="color:#000000;fill:#1a1a1a"
     inkscape:connector-curvature="0"
     id="path125"
     d="m 16.0255,11.9809 63.9745,0 a 4,4 0 0 1 4,4 L 84,80 a 4,4 0 0 1 -4,4 l -63.9745,0 a 4,4 0 0 1 -4,-4 l 0,-64.0191 a 4,4 0 0 1 4,-4" />
  <path
     inkscape:connector-curvature="0"
     style="color:#000000;fill:url(#linearGradient3787)"
     id="path127"
     d="m 13,80 0,-64 a 3,3 0 0 1 3,-3 l 64,0 a 3,3 0 0 1 3,3 l 0,64 a 3,3 0 0 1 -3,3 l -64,0 a 3,3 0 0 1 -3,-3" />
  <path
     style="color:#000000;opacity:0.2"
     inkscape:connector-curvature="0"
     id="path129"
     d="m 16,13 c -1.662,0 -3,1.338 -3,3 l 0,64 c 0,1.662 1.338,3 3,3 l 64,0 c 1.662,0 3,-1.338 3,-3 l 0,-64 c 0,-1.662 -1.338,-3 -3,-3 l -64,0 z m 0,0.875 64,0 c 1.1947,0 2.125,0.9303 2.125,2.125 l 0,64 c 0,1.1947 -0.9303,2.125 -2.125,2.125 l -64,0 c -1.1947,0 -2.125,-0.9303 -2.125,-2.125 l 0,-64 c 0,-1.1947 0.9303,-2.125 2.125,-2.125 z" />
  <path
     inkscape:connector-curvature="0"
     style="color:#000000;opacity:0.1;fill:url(#linearGradient3809)"
     id="path131"
     d="m 16.0312,13.9688 c -1.108,0 -2,0.892 -2,2 l 0,64.0312 c 0,1.108 0.892,2 2,2 L 80,82 c 1.108,0 2,-0.892 2,-2 l 0,-64.0312 c 0,-1.108 -0.892,-2 -2,-2 l -63.9688,0 z m 0,1.125 63.9688,0 c 0.5096,0 0.875,0.3654 0.875,0.875 l 0,64.0312 c 0,0.5096 -0.3654,0.875 -0.875,0.875 l -63.9688,0 c -0.5096,0 -0.875,-0.3654 -0.875,-0.875 l 0,-64.0312 c 0,-0.5096 0.3654,-0.875 0.875,-0.875 z" />
  <path
     inkscape:connector-curvature="0"
     style="color:#000000;opacity:0.2;fill:url(#radialGradient3815)"
     id="path133"
     d="m 16.0312,82 c -1.108,0 -2,-0.892 -2,-2 l 0,-44.0312 c 0,-1.108 0.892,-2 2,-2 l 63.9688,0 c 1.108,0 2,0.892 2,2 L 82,80 c 0,1.108 -0.892,2 -2,2 l -63.9688,0 z m 0,-1.125 63.9688,0 c 0.5096,0 0.875,-0.3654 0.875,-0.875 l 0,-44.0312 c 0,-0.5096 -0.3654,-0.875 -0.875,-0.875 l -63.9688,0 c -0.5096,0 -0.875,0.3654 -0.875,0.875 l 0,44.0312 c 0,0.5096 0.3654,0.875 0.875,0.875 z" />
  <path
     style="color:#000000;opacity:0.2;fill:#ffffff"
     inkscape:connector-curvature="0"
     id="path135"
     d="m 12.0312,80 0,1 c 0,2.216 1.784,4 4,4 L 80,85 c 2.216,0 4,-1.784 4,-4 l 0,-1 c 0,2.216 -1.784,4 -4,4 l -63.9688,0 c -2.216,0 -4,-1.784 -4,-4 z" />
  <path
     style="opacity:0.5;fill:#582100;fill-rule:evenodd"
     clip-path="url(#clipPath3835)"
     d="m 32.7169,7.4181 c -0.047,2.8468 -0.085,7.7069 0.018,1.84243 z m -0.064,6.8345 C 32.6236,10.8954 32.4018,0.606108 31.7392,9.21037 32.5326,12.9476 32.8996,25.4292 32.691,15.1701 l -0.038,-0.9175 -2e-4,0 z m 0.097,2.257 c 0.4297,2.8759 -0.084,-13.2512 0.023,-3.2006 l 0,1.3554 -0.019,1.8452 z m 3.376,23.8093 c 0.214,-1.4681 0.4439,-20.4224 0.1813,-7.976 -0.076,2.6583 -0.1364,5.317 -0.1813,7.976 z M 36.576,24.6155 c 0.537,-11.1079 0.6234,19.0011 0.5779,6.5351 0.01,-2.9607 -0.3978,-17.8504 -0.5779,-6.5351 z m 0.1929,-4.6411 c 0.077,-3.8768 -1.2094,-20.424551 -0.4113,-8.7855 0.1691,2.9269 0.2935,5.8562 0.4113,8.7855 z m 0.032,-0.4768 C 37.0981,16.2629 38.0832,5.56304 37.792,7.70669 37.3436,11.626 37.0399,15.5604 36.8009,19.4976 Z m 3.601,-13.7961 c 0.9664,17.7986 0,35.6289 0.6152,53.4357 0.2733,-17.3139 -0.08,-34.6285 -0.2607,-51.9414 0.7007,9.0395 1.1938,18.0982 2.2002,27.1114 -0.6174,-8.8578 -0.5539,-22.71 -2.293,-28.43408 0.1905,2.85153 -0.2512,-2.86827 -0.2617,-0.17162 z m 4.2435,9.1867 c 0.023,-3.8576 0.066,-14.417024 0.02,-5.11268 -0.019,3.52688 -0.1748,13.23908 -0.112,13.16888 0.049,-2.6852 0.063,-5.3708 0.092,-8.0562 z m 0.5471,4.4504 c -0.4835,3.7572 -0.103,0.8211 0,0 z m 0.1929,-1.653 c -0.2064,34.6295 0.5393,69.3253 -0.715,103.9104 2.9631,3.104 0.4869,-8.618 1.1451,-10.837 C 45.2629,79.6426 45.4121,48.5196 45.4498,17.3995 l -0.064,0.2861 z m 0.064,-0.2861 c 0.4599,-2.7947 0.2669,-4.7641 0,0 z m 0.3537,-3.5921 c 1.1378,-3.6561 -0.3855,-12.968263 -0.1134,-4.40232 0.039,1.46742 0.085,2.93462 0.1134,4.40232 z m 0.3537,-2.9245 c 0.5255,-3.15518 0.8816,-8.34149 0.2009,-1.75947 z m 0,0.5086 C 46.9823,49.1101 45.6384,87.7189 47.4495,122.642 46.4903,85.3797 46.3922,45.1631 46.1568,11.3915 Z M 42.0415,113.622 c 0.1533,3.292 0.8956,13.088 0.353,4.321 -0.4137,-16.831 0.3033,-33.692 0.7324,-50.5073 0.4365,18.519 0.3659,37.0463 0.8446,55.5643 -1.065,-18.297 1.9763,-81.7696 -2.2523,-36.8627 -0.2116,9.1615 -0.072,18.3317 0.3223,27.4847 z m -1.3184,-1.748 c -0.6944,3.927 0.6448,16.538 0.6318,6.162 -0.3658,-15.998 0.036,-32.0029 -0.3546,-48.0008 -0.2787,13.9445 -0.1998,27.8926 -0.2772,41.8388 z m -0.1932,9.06 C 40.7313,104.395 41.384,87.8364 40.4233,71.3083 39.1763,88.5035 39.8552,105.775 39.9183,123 c 1.3442,0.177 0.1113,-1.482 0.6116,-2.066 z M 37.2182,36.2499 c 0.051,5.6922 -0.1797,18.1955 0.215,19.5497 -0.052,-6.5167 -0.1253,-13.0333 -0.215,-19.5497 z m 0.2251,20.8531 c -0.541,-4.8427 -0.1741,7.4065 -0.3083,9.746 -0.011,10.1024 0.067,20.2057 -0.1089,30.3072 0.7794,-13.1368 0.2736,-26.3 0.4177,-39.4491 1.089,11.8734 0.5859,23.8152 -0.064,35.6981 0.9041,-12.0766 1.009,-24.2254 0.063,-36.3022 z m -0.064,36.3021 c -0.5709,6.388 -1.0756,20.4539 -0.8227,21.9929 0.2412,-7.332 0.6727,-14.657 0.8227,-21.9929 z M 36.4787,109.84 c -0.1625,-11.0436 -1.0965,13.542 -0.6106,10.184 0.1669,-3.397 0.4056,-6.789 0.6106,-10.184 z m -0.7074,12.365 -0.016,0.792 z m 0.064,-9.886 c -0.4848,4.204 -1.1857,14.513 -0.4285,5.006 0.1406,-1.669 0.2831,-3.337 0.4285,-5.006 z m 0,-0.413 c 1.4847,-21.3763 0.1709,-42.8306 0.3613,-64.2376 -0.047,-7.6193 -1.2283,6.1468 -1.5655,8.8267 -1.1681,12.2041 -1.5286,24.4669 -1.7537,36.7192 -0.029,-3.4501 0.043,-13.6573 -0.044,-12.615 -0.054,3.9331 -0.1222,12.7095 0.024,13.5662 0.3374,-16.5319 0.866,-33.0985 3.2037,-49.4917 -0.2283,22.4099 -0.2722,44.8213 -0.2252,67.2322 z m -2.958,-17.6109 c -0.075,8.2009 -0.2064,23.6769 -0.047,27.3269 0.1092,-9.088 -0.049,-18.219 0.047,-27.3269 z m -0.096,1.5576 c -0.1582,3.0552 -0.6836,13.8693 -0.5204,11.6273 0.2059,-3.874 0.3785,-7.7503 0.5204,-11.6273 z M 32.1702,109.14 c -0.2672,3.479 -0.367,17.795 -0.1836,7.728 0.056,-2.576 0.1182,-5.152 0.1836,-7.728 z m -0.2894,13.224 0.053,0.538 z m -0.032,-0.222 c -0.1424,-4.311 -0.5116,2.092 0,0 z m -0.2251,-1.526 c 0.248,-4.31 0.6771,-15.035 0.1797,-5.182 -0.09,1.726 -0.1656,3.453 -0.1797,5.182 z m -0.032,-0.382 C 29.892,103.633 29.8823,86.928 29.4374,70.2632 c 0.011,17.4971 1.238,34.9618 1.6075,52.4508 1.1983,0.332 0.06,-1.972 0.5468,-2.48 z M 29.4692,77.0023 c 0.1143,-3.958 -0.6063,-8.0705 -0.5359,-1.3109 0.053,9.3395 0.1006,18.684 0.6002,28.0126 0.032,-8.9006 -0.063,-17.8017 -0.064,-26.7017 z m -0.5466,-3.1788 -0.1094,1.0554 z m -0.1286,1.5576 c -0.5448,9.044 -0.4623,23.8805 -0.9233,29.3489 -0.1013,-4.608 -0.069,-14.3543 -0.171,-15.5687 -4e-4,10.6856 0.3763,21.3717 0.097,32.0567 0.2096,-3.532 0.091,-17.095 0.3927,-6.882 -0.1649,3.782 1.538,11.201 0.8359,3.336 C 28.5062,103.581 28.7238,89.4775 28.794,75.3811 Z m -1.0932,12.7471 c -0.9792,10.5435 -0.8995,21.1668 -0.725,31.7358 -0.1417,-10.581 -0.1014,-21.1801 0.725,-31.7358 z m 0,-0.6358 c 0.1265,-13.4007 -0.9024,-26.772 -1.5435,-40.1484 0.6008,13.3787 1.6092,26.7483 1.5435,40.1484 z M 26.1575,48.4247 c -0.044,16.4339 -0.046,32.8691 0,49.3034 0.068,-16.4344 0,-32.8689 0,-49.3034 z m -0.032,-0.6676 C 25.7947,34.7692 25.771,21.7761 25.7721,8.7847 c -1.8153,9.4817 -0.1684,19.2284 -0.2127,28.8175 0.1692,3.386 0.367,6.7705 0.5661,10.1549 z M 25.7716,8.7848 c 0.1889,6.2292 0.531,4.1466 0,0 z m 0.2894,5.2451 c 0.078,11.1046 0.01,22.2096 0.096,33.3141 0,-10.808 -0.013,-21.6161 -0.064,-32.424 0.8642,14.2463 2.9267,28.4331 2.7866,42.7276 0.5818,-16.5709 -2.3849,-32.9847 -2.5609,-49.5303 -0.4841,1.59857 -0.1951,5.0975 -0.2577,5.9126 z m 2.7973,31.1842 C 29.289,55.2897 29.3001,38.8423 29.2088,35.837 29.056,26.1492 28.5104,16.4708 27.7331,6.8141 c 0.8115,12.7825 1.1257,25.593 1.1252,38.4 z m 0.4501,-1.049 c 0.5069,-9.8364 1.0634,-19.6705 1.7041,-29.4994 -0.7008,9.8247 -1.3366,19.6558 -1.7041,29.4994 z m 1.7041,-29.4994 c 0.3565,-3.7981 0.6803,-13.66358 0.2685,-4.6547 -0.077,1.5522 -0.1692,3.1037 -0.2685,4.6547 z m -1.7041,30.3259 c -0.3817,6.41 -0.01,20.4883 0.1038,22.0239 0.024,-7.3415 -0.093,-14.6825 -0.1038,-22.0239 z M 29.437,68.1652 C 31.0552,51.3844 32.2164,34.5441 32.5558,17.6855 32.1084,34.5419 31.0256,51.3788 29.437,68.1652 Z m 0,0.3815 -10e-5,1.1118 z m -0.032,0.2543 -0.1361,1.3301 z m -0.1608,1.5258 c -0.1205,-4.8455 -0.3904,-9.6698 -0.3121,-1.9655 -0.083,1.7089 0.017,7.1536 0.3121,1.9655 z M 29.1154,52.1122 c -0.4053,3.0544 -0.1544,13.8564 -0.1033,5.563 0.029,-1.8544 0.05,-3.7091 0.1033,-5.563 z m -0.2251,7.5656 c -0.1285,4.8928 -0.464,14.0033 -0.213,16.727 0.2761,-5.5641 0.1071,-11.1546 0.213,-16.727 z m -0.3537,18.0239 c -0.423,3.8762 -1.1102,13.5173 -0.3823,4.6374 0.1383,-1.5449 0.2786,-3.0897 0.3823,-4.6374 z m 3.5689,31.8833 c 0.3605,-7.874 0.6752,-25.1722 0.6445,-27.0593 -0.1602,9.021 -0.4183,18.0403 -0.6445,27.0593 z m 0.6752,-28.8635 c 0.2925,-20.0877 0.6813,-40.1868 -0.032,-60.2704 -0.6828,20.0848 -0.1406,40.1822 0.032,60.2704 z m 0.096,-2.257 c 0.067,-3.5438 0.2178,-19.2011 0.088,-8.1975 -0.036,2.7324 -0.071,5.4649 -0.088,8.1975 z M 33.038,64.5413 c 0.081,-5.9433 0.2765,-18.9906 0.1776,-20.414 -0.071,6.8046 -0.071,13.6098 -0.1776,20.414 z m 0.1929,-21.7749 c 0.1267,-6.5786 0.4358,-21.0394 -0.3076,-22.5893 0.08,7.53 0.3149,15.0583 0.3076,22.5893 z m 2.8616,1.5576 0.1511,-1.2718 z m 0,-0.1589 c -0.08,-0.5953 -0.023,0.7928 0,0 z m 0.1608,-1.2397 6e-4,-1.1102 z m 0.064,-0.4768 c 0.6119,-2.9257 0.9203,-6.9478 0.2074,-1.5026 z m 0.032,0.1907 c -0.3849,3.1938 1.4426,16.0176 0.5618,6.9701 -0.1713,-2.3246 -0.368,-4.6473 -0.5618,-6.9701 z m 0.096,62.2097 c 0.4715,-4.215 0.7086,-10.0795 0.1907,-2.403 l -0.093,1.202 -0.097,1.201 z M 45.3847,5.0021 c 0.025,3.66654 0.015,8.6672 0.061,2.30556 l 0,-1.18137 -0.059,-1.12419 z m 3.7297,0 C 48.4592,44.332 49.9738,83.6843 48.3427,123 50.8765,83.777 49.1655,40.7948 49.1144,5.0021 Z M 49.661,116.579 c -0.1318,5.248 0.5106,-3.275 0,0 z m 0.1929,-95.8736 c 1.0992,44.3102 -0.9662,42.6127 -0.1579,3.3556 l 0.077,-1.6779 0.081,-1.6777 z m 0,-1.0172 c 0.089,-3.2664 0.056,-15.63001 -0.011,-12.85032 -0.018,4.28342 0.011,8.56692 0.011,12.85032 z m 0.032,-0.604 c 0.4049,-4.5671 1.0756,-15.97294 0.3455,-5.5051 -0.1278,1.8342 -0.2443,3.6692 -0.3455,5.5051 z m 2.5716,-0.763 c -0.2189,-3.3856 -0.9684,-17.740993 -0.4874,-7.6587 0.1365,2.5545 0.3036,5.1072 0.4874,7.6587 z m 0,-0.604 c 0.1974,-3.6622 -0.1057,-18.326861 -0.042,-7.94687 0.024,2.64887 0.038,5.29787 0.042,7.94687 z m 0.032,0.4768 c 0.2917,5.4915 1.3951,17.5119 1.4952,18.8241 C 53.4989,30.7424 52.9139,24.4744 52.4895,18.194 Z m 2.8935,2.2888 c 0.3641,-4.3633 0.3274,-17.75081 -0.1416,-6.7569 -0.7997,25.7431 -1.0559,33.936 0.1416,6.7569 z M 55.7058,9.5476 c 0.1922,8.2308 0.1296,16.4676 0.4887,24.6943 -0.051,-8.8928 0.9696,-22.3727 -0.4872,-28.42322 -0.1273,1.24545 0.1851,2.4859 0,3.72892 z m 0.7395,2.5748 c 0.2541,-4.16564 -0.037,-9.62969 0.01,-2.2252 l 0,1.1126 z m 0.064,0.7629 c 0,3.3691 -0.2233,17.0902 0.059,7.4158 0.081,-2.4709 0.1206,-4.9479 -0.059,-7.4158 z m 0.1608,4.4186 c 0.086,4.1329 0.3262,7.8708 0.3342,1.1569 0.066,-3.7421 0.6547,-18.167547 0.6072,-7.5315 0.06,3.7628 0,12.1455 0.064,3.7006 0.071,-3.6499 0.034,-14.101278 -0.6439,-5.1777 -0.174,2.6147 -0.1908,5.2368 -0.3617,7.8517 z m 2.5076,-2.6702 C 59.6274,10.3779 58.8264,0.684378 59.0004,9.98314 58.9678,70.942 59.149,68.4936 59.1777,14.6337 Z m -1.1889,94.9833 c 1.6558,-3.334 0.8679,-18.7046 0.4132,-8.025 -0.164,2.674 -0.2769,5.35 -0.4132,8.025 z m 1.5427,-0.191 c 0.277,5.508 0.5292,-4.56 0,0 z m 0.4501,0.413 c 0.412,4.69 1.056,7.601 0.8964,1.114 0.04,-3.57 1.0068,-15.2405 0.5637,-13.1732 -0.5133,4.0162 -0.9592,8.0412 -1.4601,12.0592 z M 63.2933,5.0019 c -2.5672,7.7062 -0.2769,16.3567 -0.8857,24.4748 -1.0492,40.8506 0.2205,-8.8244 0.8857,-24.4748 z m -1.2215,16.7206 c 0.023,4.3072 0.047,8.6765 0.029,1.8347 0.029,-4.4245 -0.014,-16.89098 -0.2236,-5.5478 -0.3246,58.087 0.093,54.3609 0.1945,3.7131 z m 0.032,-11.1894 c 0.047,-3.41451 -0.095,-7.63489 -0.045,-1.92694 l 0.012,1.73454 z m 3.1824,-5.5312 c -1.0884,10.8654 -0.028,21.8622 -0.4078,32.7799 -0.035,67.8592 0.2238,-2.9962 0.4081,-32.7799 z m 0,10e-5 c 3.2034,90.9895 0.094,78.4494 0.2885,-3e-4 l -0.2894,0 z M 69.21,20.1014 C 69.0271,16.2142 68.7089,5.56825 68.5245,6.44879 68.9713,41.0187 70.1982,60.8915 69.21,20.1014 Z M 72.1038,5.002 C 71.113,9.46336 71.4891,19.4197 70.8237,20.4896 70.2451,16.2432 70.7381,6.98568 69.5145,5.922 c 0.5387,6.4466 0.291,13.5298 1.3624,19.675 0.4522,-6.8624 0.5913,-13.7448 1.2269,-20.595 z M 70.497,123 c 0.6044,-6.818 -0.3001,-22.475 0.2296,-24.0269 0.059,8.0099 -0.084,16.0189 -0.2296,24.0269 z m 0.2889,-0.414 c 3.1263,-4.52 0.9299,-14.349 2.9393,-18.362 -0.5362,6.179 -1.795,12.273 -2.9393,18.362 z m 3.0542,-9.568 c 0.053,3.503 0.4185,13.867 0.1745,4.816 -0.044,-3.796 -0.3561,-13.491 -0.1742,-4.816 z M 74.6439,11.9634 c -0.03,-3.18003 -0.1021,-7.71357 -0.078,-1.6949 -0.1921,60.8231 0.2883,52.6779 0.078,1.6949 z m 0.5788,1.8437 c 0.54,-3.5502 -0.4617,-12.37679 -0.3726,-4.09791 0.1972,48.20211 -0.07,47.07571 0.3727,4.09791 z m -5.5946,96.0959 c -0.3243,3.676 -1.5345,17.739 -0.5378,7.226 1.0175,-15.576 2.0051,-26.4642 0.5378,-7.226 z m -4.4365,4.069 c 0.09,4.568 -0.9168,8.982 -1.0622,1.829 -0.3935,-5.023 -0.474,-8.203 -0.102,-1.15 0.016,3.631 1.3703,12.369 1.1078,3.895 0.025,-3.454 0.7021,-12.125 0.2173,-3.99 -1.2035,3.175 0.6152,12.268 1.4554,4.495 -0.5717,-23.5267 -1.0318,-27.8622 -1.6163,-5.079 z m -0.5473,7.374 c -1.0541,1.611 0.9798,2.578 0,0 z m -0.9646,-12.619 c -0.451,4.025 -1.8888,20.55 -0.7781,8.922 0.2736,-2.973 0.5327,-5.947 0.7781,-8.922 z m -2.8616,7.692 c -0.7827,3.999 1.6016,9.268 0.2665,1.848 z m 0.032,5.786 c -0.2729,-6.795 -1.2482,-10.553 -1.9683,-6.271 0.7593,-3.23 0.4588,-11.926 -0.3172,-3.638 -0.7503,1.779 0.5502,12.594 2.2855,9.909 z m -1.9935,-3.274 c -1.4047,3.23 0.7585,5.303 0,0 z m -0.6431,2.733 c 0.017,-3.705 -0.4581,-5.712 -0.5615,-5.045 0.7461,-10.958 -1.1319,9.179 0.5615,5.045 z m -0.7395,-3.019 c -0.935,6.645 -0.072,3.514 0,0 z m 0.4178,-6.231 c 0.1467,7.861 0.4415,-6.373 0,0 z m -1.7359,-1.367 c 0.1469,5.526 0.011,-5.969 -6e-4,-1.376 z m 0,0.7 c -0.4998,-2.099 0.069,9.342 0,1.628 z m 0,5.308 c -0.1604,2.005 0.207,2.843 0,0 z m 0.064,0.191 c 0.2331,-4.32 -0.1124,-3.79 0,0 z m 0.2251,0.572 c -0.8716,2.316 0.8463,0.688 0,0 z m 0.064,1.144 c -1.2259,0.416 1.147,1.292 0,0 z m -0.2894,0.477 c -0.3022,5.12 0.1532,3.332 0,0 z m -0.096,-0.09 c 0.3103,-0.739 -1.269,-0.122 0,0 z m -0.3858,-0.35 -0.1319,-0.07 z m -0.1286,-0.03 c -1.404,4.651 0.1365,3.755 0,0 z m -0.3537,-0.159 c 0.2644,-1.766 -1.6343,-0.582 0,0 z m -2.9577,-8.398 c -0.049,3.596 -0.1586,17.005 -0.025,7.177 0.1074,-3.818 0.1502,-19.7852 0.037,-8.851 l -0.012,1.674 2e-4,0 z m 3.3747,2.002 c -0.6043,3.793 0.1543,8.383 0.143,1.561 z m -4.4371,-2.702 c -1.599,3.649 -0.2908,19.206 0.2631,8.508 -0.075,-2.836 -0.3332,-5.67 -0.2631,-8.508 z m -0.5787,3.306 c 0.2901,-6.362 -1.1205,5.491 0,0 z m -0.3858,2.066 c -0.214,4.904 0.085,10.013 -10e-5,2.269 l 0,-1.135 z m -0.064,0.35 c 0.073,-5.907 -0.6922,4.998 0,0 z m -0.2894,1.685 c -0.1839,4.825 0.074,7.236 0,1.58 z m -0.2244,1.367 c -1.2962,5.565 0.6246,4.976 0,0 z M 60.625,5.0019 c -0.051,7.8438 -0.4832,25.06 -0.01,26.9409 0.047,-8.7084 1.3065,-19.3138 0.01,-26.9409 z m 15.4654,0 c 0.1398,6.1128 0.7317,2.78318 0,0 z M 76.6365,123 c 0.783,-7.444 0.4964,-24.2859 0.024,-25.8835 C 76.3548,105.741 76.5254,114.374 76.6365,123 Z M 77.6333,5.0019 c -0.3198,9.8501 0.9781,19.668 0.7549,29.5175 C 77.6362,24.698 77.9395,14.839 77.6333,5.0019 Z m 1.8001,12.9696 c 0.4005,-4.0663 -0.4792,-19.02081 -0.5717,-7.6394 -0.022,5.768 -0.1153,21.8385 0.4908,21.1657 0.1958,-4.5065 0.043,-9.0177 0.081,-13.5263 z m -0.2901,91.0095 c 0.2198,3.855 -0.187,11.248 0.2822,12.892 0.3928,-70.2848 -0.3173,-82.0401 -0.2832,-12.892 z M 79.9478,5.0019 c -0.2463,10.8136 0.1449,21.6303 -0.089,32.4441 -0.128,-10.8146 0.014,-21.6297 0.089,-32.4441 z M 79.2415,123 c -0.042,-3.208 -0.1169,-16.349 -0.1945,-7.074 0.011,2.359 0.063,4.718 0.1945,7.074 z m 6.6556,-12.398 C 84.4229,77.6066 86.4199,44.5128 84.9807,11.555 85.3882,6.74859 83.6967,3.05856 84.5491,10.1301 86.2174,43.6057 81.8345,77.2197 85.8971,110.602 Z M 85.0611,10.3422 c -0.075,8.6046 1.5617,22.6894 1.6192,27.8385 -0.6847,-11.013 0.2074,-22.0544 0.4226,-33.04466 -1.1639,0.74275 -1.1736,3.76514 -2.0418,5.20616 z m 3.2157,103.1528 c 0.099,1.129 0.01,15.248 0.7132,4.945 -0.1296,-24.0726 -0.9988,-29.1213 -0.7132,-4.945 z m 0.8361,-2.13 c 0.011,3.813 0.4414,16.789 0.4456,6.821 0.2413,-21.4044 0.4327,-30.505 -0.4456,-6.821 z M 87.6341,7.1316 c 0.2611,37.2557 3.681,49.7415 0.9621,10.0411 -0.3007,-3.3489 -0.6255,-6.6956 -0.9621,-10.0411 z m -0.033,0.2225 c -0.3271,-6.17126 -0.5609,5.0806 0,0 z m 0.032,-0.2225 c 0.9501,-2.68815 -0.6962,-3.11198 0,0 z m 2.2825,12.3656 c -0.1155,-3.4228 0.085,-14.40244 -0.064,-13.066 -0.01,34.6552 0.033,53.2677 0.064,13.066 z m 1.8967,0.2861 c 0.2268,-3.4026 0.4225,-15.5229 -0.9534,-12.65181 0.1935,4.22541 0.5156,8.44471 0.9534,12.65181 z m 0.1929,-6.9934 c 0.1709,-4.66125 -0.055,-10.35564 0.02,-2.4198 l -0.01,1.2099 -0.012,1.2099 z m 0.032,0.6993 c -0.8153,3.6315 1.0564,19.074 0.6427,8.1637 -0.1671,-2.7249 -0.4782,-5.4386 -0.6427,-8.1637 z m 0.7074,8.3285 c 0.1079,-4.2579 0.01,-13.86667 -0.1081,-14.77893 0.048,4.92623 0.085,9.85253 0.1081,14.77893 z m 0.064,0.5404 c 0.2285,4.6961 0.5801,15.0125 1.2374,16.0966 -0.044,-5.3879 -0.7372,-10.7396 -1.2374,-16.0966 z m 2.0574,-11.698 c 0.687,-3.60149 -0.6759,-7.63857 -0.4018,-1.30342 -0.03,8.58572 0.298,17.17092 0.1063,25.75632 -0.055,-8.1519 0.077,-16.3041 0.2955,-24.4529 z m 0.1299,-2.6067 c -0.042,8.7276 -0.076,22.6686 -0.1684,28.1667 0.029,-9.9932 0.1332,-19.9859 0.2324,-29.9786 -0.022,0.60393 -0.044,1.2079 -0.064,1.8119 z m 0.064,-1.8119 0.029,-1.23362 z M 94.0001,117.818 c 0.3241,-4.143 -0.012,-14.263 0.8944,-15.218 -0.06,5.083 -0.508,10.152 -0.8944,15.218 z m 0.5461,5.181 c 0.6705,-5.737 -0.098,-19.152 0.1614,-20.046 -0.023,6.682 -0.084,13.364 -0.1614,20.046 z m 0,0 c 0.5399,-7.609 -2.3877,-1.231 0,0 z m -0.5466,-5.181 c -1.1847,-57.8351 -1.6673,-37.0992 -0.547,5.181 0.202,-1.725 0.4013,-3.45 0.547,-5.181 z m -4.0824,-7.725 c 0.1911,-2.265 0.154,-14.9394 0.01,-4.975 -0.025,1.656 0.01,3.325 -0.01,4.975 z m -0.065,2.04 c -0.079,4.249 -0.021,14.814 0.01,5.095 0,-1.698 -0.01,-3.396 -0.01,-5.095 z m -1.5756,1.367 c -0.2181,3.028 0.1364,13.383 0.064,4.732 -0.029,-1.577 -0.051,-3.155 -0.064,-4.732 z m -2.3796,-2.893 c 0.08,3.567 2.8463,17.901 1.1309,7.767 -0.4428,-2.579 -0.8233,-5.169 -1.1309,-7.767 z m 0.032,0.477 c -1.14,-11.4939 -0.6933,3.557 -0.8483,7.677 1.0162,9.218 1.6677,-3.02 0.817,-6.236 l 0.031,-1.441 0,0 z M 95.6073,5.0015 c 1.466,63.5243 4.3527,51.356 0.2904,0.0206 z m 3.022,9.2821 C 99.1291,11.5881 98.2368,0.589386 98.0955,8.63277 98.7937,63.6325 97.9762,64.2432 98.6293,14.2836 Z m 0.097,-7.343 C 99.233,51.893 100.72,49.4131 98.9869,9.97098 98.9532,10.2809 98.6769,4.21233 98.7263,6.9406 Z M 101.725,119.82 c 0.109,5.848 0.06,-9.026 0.08,-11.679 -0.02,-40.7574 -0.101,-11.3911 -0.08,11.679 z m 2.247,-0.09 c 0.675,5.304 -0.757,-8.178 -0.615,-10.982 -1.671,-40.8899 -1.127,-12.6855 0.615,10.982 z m 0.289,1.367 c 1.968,3.929 0.509,-7.313 0.9,-9.257 -0.02,-3.719 -0.524,-14.8219 -0.896,-13.5359 -0.22,7.5949 0.04,15.2029 0,22.7929 z M 103.526,12.6943 c 0.8,-2.99206 -1.505,-11.43488 -0.852,-3.63064 0.456,6.38884 0.384,19.15124 0.864,21.55934 0.147,-5.9752 0,-11.9546 -0.01,-17.9287 z m 1.666,97.7167 c 0.357,-34.7365 -1.52,-69.4553 -1.334,-104.18702 -0.209,34.72092 -0.81,69.50712 1.334,104.18702 z m 0,0 c -0.02,3.416 1.549,17.128 0.587,7.453 -0.228,-2.482 -0.43,-4.966 -0.587,-7.453 z M 98.6296,5.0015 c -1.0196,2.72551 1.0213,0.30977 0,0 z m 1.5434,0 c 0.07,3.16908 0.06,16.2016 0.109,6.8918 0.04,-2.29655 0.119,-4.6017 -0.109,-6.8918 z m 3.698,0 0,0.44097 z m 2.475,0 c 0.691,39.3282 0.764,78.6645 0.58,117.9975 1,-37.0092 1.146,-77.2926 1.261,-110.9213 0.12,-2.26657 1.387,-6.53039 -1.841,-7.0762 z m 3.73,0 c -1.23,40.0324 -0.627,80.8397 -0.518,117.9975 0.198,-36.6207 -0.4,-73.2751 0.386,-109.8737 0,-2.5215 2.075,-5.98361 0.135,-8.1238 z m 0.836,0.3815 c -0.05,42.9227 0.263,34.1226 0.03,-0.3814 l -0.03,0.3815 z M 113.87,5.0015 C 113.683,44.3114 109.164,83.826 114.325,122.999 113.561,83.7115 111.71,44.1015 113.87,5.0015 Z m 1.959,18.6915 c 0,-5.1016 -0.344,-16.3122 -0.498,-17.52368 0.226,5.83928 0.397,11.68088 0.498,17.52368 z m 1.415,-7.7245 c 0.283,-3.3928 0.151,-15.910735 -0.09,-6.56081 0.179,2.18361 0.105,4.38151 0.09,6.56081 z m 0.1,-0.445 c -0.596,8.1692 1.513,-0.5068 0.574,-3.2826 -0.334,1.0658 -0.29,2.2137 -0.574,3.2826 z m 0.74,-3.9417 c 1.532,-3.85943 -0.677,-9.11619 -0.05,-2.05484 l 0.03,1.02874 z m 0.882,-2.78943 c -0.638,8.76643 1.913,-5.54968 0.09,-2.68498 -0.127,0.80783 0.04,1.87864 -0.09,2.68498 z m -0.275,3.48873 c -0.779,3.2813 -0.1,15.8137 0,13.0051 0.356,-4.3284 0.1,-8.6721 0,-13.0051 z m 0.225,9.3775 c 0.332,-4.2939 1.265,-14.22686 1.42,-15.14182 -0.609,5.03332 -1.104,10.08132 -1.42,15.14182 z m 3.529,-15.3535 c -1.528,1.14891 -0.253,12.5052 -0.706,17.399 -0.441,79.2329 -0.382,29.2348 -0.765,-18.7024 -1.914,98.8643 0.617,88.2948 1.471,1.3034 z m -5.464,94.0379 c 0.46,6.645 -1.214,18.437 0.563,21.852 1.044,-4.885 -0.141,-13.713 0.646,-16.695 3.023,31.339 1.994,1.738 -1.209,-5.157 z m -1.959,13.448 c 0.684,3.603 1.106,12.29 0.06,4.297 -0.345,-2.084 0.07,-2.912 -0.06,-4.297 z M 122.969,5.0018 c 1.78,86.1098 1.151,69.9562 1.786,10e-5 -2.035,7.1039 0.172,14.9366 -0.394,22.3334 -0.588,-7.1872 0.269,-16.2144 -1.392,-22.3335 z m 2.477,8.0423 c 0.151,-4.23353 0.239,-10.88076 0.01,-2.7566 -0.153,5.9513 -0.148,11.9054 -0.286,17.857 0.06,-5.033 0.178,-10.0748 0.272,-15.1004 z m -0.607,-8.0424 c 0.02,5.5123 0.281,17.6062 0.274,18.9251 -0.1,-6.3083 -0.186,-12.6167 -0.274,-18.9251 z m 2.085,14.4954 c -0.05,-3.3028 0.858,-14.11792 0.329,-11.87064 -0.217,8.60344 -0.489,17.20544 -0.656,25.81004 -0.112,-8.274 -0.159,-22.9479 -0.357,-27.24353 0.24,12.30993 0.159,24.62293 0.282,36.93403 0.194,-7.8756 0.21,-15.7543 0.402,-23.6299 z m 1.64,99.3379 c 0.775,9.024 -0.04,-8.004 -0.02,-10.765 -0.206,-6.695 -0.517,-13.3971 -1.364,-20.0458 -0.273,10.2912 0.81,20.5488 1.386,30.8108 z m -1.615,4.164 c 0.977,-9.655 -0.589,-19.4 -0.167,-29.1043 -0.09,-4.0954 0.05,-19.3809 0.1,-8.1222 0.1,12.4083 0.06,24.8195 0.07,37.2265 z m 0.26,-9.472 c 0.243,4.58 1.12,12.884 0.266,3.41 -0.33,-4.433 -0.488,-11.752 -0.266,-3.41 z m -3.562,6.039 c 0.455,6.166 0.721,-11.541 0.827,-15.165 0.178,-6.7446 -0.04,-3.536 -0.23,1.336 -0.208,4.609 -0.386,9.22 -0.597,13.829 z m -1.865,3.433 c 0.921,-4.75 1.657,-15.312 1.836,-16.447 -0.628,5.481 -1.225,10.965 -1.836,16.447 z M 131.524,5.0016 c 0.14,3.53978 -0.21,18.7835 0.03,8.0412 0.03,-2.6804 0.02,-5.36118 -0.03,-8.0412 z m 0,10.9033 c -0.404,34.9067 -3.105,69.8736 -0.478,104.7491 0.516,3.148 -0.654,-8.128 -0.609,-10.757 -1.284,-25.4365 0.349,-50.8862 0.678,-76.324 0.352,28.0632 -0.09,56.1331 -0.06,84.194 0.399,7.479 1.225,2.815 0.83,-1.79 -0.223,-27.7189 -0.629,-55.4435 -0.03,-83.1609 0.04,28.6657 0.127,57.3394 0.221,85.9999 1.134,10.902 -0.172,-19.5123 0.388,-6.165 -0.05,-4.443 -0.246,-20.265 -0.173,-8.104 -0.27,-25.8382 -0.06,-51.6782 -0.274,-77.5164 -0.287,9.5199 0.04,-6.7289 -0.08,-9.9635 -0.03,-4.384 -0.02,-11.24747 -0.312,-2.8193 l -0.09,1.6571 -0.01,0 z m 0.321,-6.6755 c 0.363,-4.03792 -0.21,-5.6338 0,0 z m 0.129,11.857 c 0.02,11.0078 0.503,-5.8363 0.196,-9.2141 -0.102,-3.54892 -0.05,-9.79518 -0.08,-2.84854 -0.03,4.01954 -0.06,8.05154 -0.117,12.06264 z m 0.322,-0.2861 0.01,0.499 z m 0.03,-0.5404 c 0.06,-3.6606 1.639,-14.60937 0.339,-14.09584 -0.667,4.65004 0.04,9.40654 -0.339,14.09584 z m 0.771,-9.3775 c -0.155,31.5876 0.08,63.1738 0.156,94.7606 0.04,-33.5474 0.333,-67.0943 0.09,-100.6413 0.06,1.9618 -0.1,3.95045 -0.246,5.8807 z m -0.803,11.0941 c -0.276,24.2641 -0.17,48.5303 -0.04,72.7949 -0.07,-24.265 0.428,-48.5309 0.04,-72.7949 z m 0.193,92.0585 c 0.04,5.173 0.183,6.801 0,0 z m -1.319,-83.73 c 0.156,-4.5014 0.292,-15.7493 0.05,-5.3947 -0.03,1.7981 -0.03,3.5965 -0.05,5.3947 z m 3.794,-25.2716 c -0.851,37.2028 -1.126,74.419 -1.431,111.6296 -0.05,4.141 0.121,8.628 0.24,1.972 -0.21,-36.283 0.62,-72.5705 1.104,-108.84882 0.04,-1.58454 0.08,-3.17207 0.09,-4.75278 z m -1.511,114.6286 c -0.272,-4.024 -0.08,-18.061 -0.194,-7.396 -0.281,1.036 -0.465,14.888 0.194,7.396 z M 135.38,5.0969 c -0.04,119.0691 1.321,119.6911 0.1,11.8687 -0.09,-3.9062 0.235,-8.19966 -0.1,-11.8687 z m 1.093,0.2225 c 1.079,17.543 0.493,35.1636 2.184,52.673 -1.623,-17.5138 -1.051,-35.1324 -2.184,-52.673 z m 2.187,52.0373 c 0.67,0.9485 0.198,-10.3014 0.454,-13.9062 0.127,-12.4146 0.08,-24.8355 -0.452,-37.2411 -0.189,17.0477 -0.247,34.1033 0,51.1473 z m 0.253,2.7656 c -0.599,-0.362 0.06,11.2328 -0.131,15.0921 0.06,15.6123 -0.06,31.2276 -0.609,46.8316 2.534,-9.404 -0.09,-19.918 0.65,-29.786 -0.06,-10.7126 0.02,-21.4253 0.09,-32.1377 z M 111.201,118.93 c 0.795,9.633 1.093,-4.9 0.705,-7.646 -0.936,-63.1595 -1,-36.7074 -0.705,7.646 z M 26.1578,97.9185 c 0.4829,6.4025 -1.331,17.0415 0.3808,20.9075 -0.184,-6.955 -0.3398,-13.933 -0.3808,-20.9075 z m 3.376,6.0085 c -0.099,3.332 0.1995,6.711 0,0 z m 0.032,5.086 c -0.3051,3.514 0.3683,17.986 0.1522,7.799 -0.061,-2.599 -0.1141,-5.199 -0.1522,-7.799 z m 60.3504,3.147 c -0.055,4.237 0.1271,14.765 0.03,5.08 -0.015,-1.693 -0.026,-3.387 -0.03,-5.08 z m 0.4502,4.1 c -0.039,3.186 0.2421,7.647 0.047,1.686 z m -53.8556,1.208 c -0.2667,4.641 0.094,5.881 0,0 z"
     id="path137"
     inkscape:connector-curvature="0"
     transform="matrix(0,0.74576,-0.74576,0,95.7288,-14.018)"
     sodipodi:nodetypes="cccccccccccccccccccccccccccccccccccccccccccccccccccccccccccccccccccccccccccccccccccccccccccccccccccccccccccccccccccccccccccccccccccccccccccccccccccccccccccccccccccccccccccccccccccccccccccccccccccccccccccccccccccccccccccccccccccccccccccccccccccccccccccccccccccccccccccccccccccccccccccccccccccccccccccccccccccccccccccccccccccccccccccccccccccccccccccccccccccccccccccccccccccccccccccccccccccccccccccccccccccccccccccccccccccccccccccccccccccccccccccccccccccccccccccccccccccccccccccccccccccccccccccccccccccccccccccccccccccccccccccccccccccccccccccccccccccccccccccccccccccccccccccccccccccccccccccccccccccccccccccccccccccccccccccccccccccccccccccccccccccccccccccccccccccccccccccccccccccccccccccccccccccccccccccccccccccccccccccccccccccccccccccccccc" />
  <path
     opacity=".15"
     fill="url(#linearGradient2908)"
     filter="url(#filter3794)"
     stroke="#fff"
     stroke-linecap="round"
     stroke-width=".5"
     d="m27,15h42a12,12 0 0,1 12,12v42a12,12 0 0,1 -12,12h-42a12,12 0 0,1 -12-12v-42a12,12 0 0,1 12-12"
     clip-path="url(#clipPath3613)"
     id="path139" />
  <path
     style="opacity:0.35;fill:url(#linearGradient3188)"
     d="M 12,6 C 8.11425,5.86322 5.41842,9.7916 6,13.4226 6.01817,37.1117 5.96368,60.8028 6.02721,84.4906 5.28209,86.8321 10.5384,90.3041 9.3125,89.2189 6.06848,87.1934 7.20936,83.0941 7,79.918 7.01709,57.4408 6.96584,34.9619 7.02559,12.4857 7.23712,9.18528 10.6966,7.53718 13.6597,8.0003 37.2778,8.01738 60.8976,7.96615 84.5146,8.02589 87.815,8.23742 89.4631,11.6969 89,14.66 c -0.023,23.6263 0.047,47.2557 -0.035,70.8801 0.6395,2.1759 -4.9497,5.3487 -1.452,3.2815 3.5336,-2.4814 2.2373,-6.9817 2.4873,-10.6151 -0.021,-22.2736 0.041,-44.5493 -0.031,-66.8216 C 89.7162,7.60958 85.8109,5.47608 82.3404,6.0001 58.8936,6.00003 35.4467,6.00023 12,6 Z"
     id="path141"
     inkscape:connector-curvature="0" />
  <path
     style="opacity:0.2;fill:url(#radialGradient2874)"
     d="M 12,90 C 8.11425,90.1368 5.41842,86.2084 6,82.5774 6.01817,58.8883 5.96368,35.1972 6.02721,11.5094 5.28209,9.16789 10.5384,5.69592 9.3125,6.7811 6.06848,8.80663 7.20936,12.9059 7,16.082 c 0.0171,22.4772 -0.0342,44.9561 0.0256,67.4323 0.21153,3.3004 3.67101,4.9485 6.63411,4.4854 23.6181,-0.017 47.2379,0.034 70.8549,-0.026 3.3004,-0.2115 4.9485,-3.671 4.4854,-6.6341 -0.023,-23.6263 0.047,-47.2557 -0.035,-70.8801 0.6395,-2.17591 -4.9497,-5.34874 -1.452,-3.28154 3.5336,2.48139 2.2373,6.98174 2.4873,10.61514 -0.021,22.2736 0.041,44.5493 -0.031,66.8216 -0.253,3.7753 -4.1583,5.9088 -7.6288,5.3848 C 58.8936,90 35.4467,89.9998 12,90 Z"
     id="path143"
     inkscape:connector-curvature="0" />
  <path
     style="color:#000000;opacity:0.1"
     inkscape:connector-curvature="0"
     id="path147"
     d="m 64.9996,73.9998 a 8.99997,8.99997 0 0 0 0,-18 8.99997,8.99997 0 1 0 0,18 z" />
  <path
     style="color:#000000;opacity:0.3"
     inkscape:connector-curvature="0"
     id="path149"
     d="m 65.0002,73.0001 a 8.00002,8.00002 0 0 0 0,-16.0001 8.00002,8.00002 0 1 0 0,16.0001 z" />
  <path
     style="color:#000000;opacity:0.1"
     inkscape:connector-curvature="0"
     id="path151"
     d="m 22.0002,64.9999 a 11,11 0 0 0 21.9999,0 11,11 0 1 0 -21.9999,0 z" />
  <path
     style="color:#000000;opacity:0.3"
     inkscape:connector-curvature="0"
     id="path153"
     d="m 23.0001,64.9999 a 9.99999,9.99999 0 0 0 20,0 9.99999,9.99999 0 1 0 -20,0 z" />
  <path
     inkscape:connector-curvature="0"
     style="color:#000000;opacity:0.3;fill:url(#linearGradient4078)"
     id="path155"
     d="m 26,20.9688 c -1.6694,0 -3.0312,1.3619 -3.0312,3.0312 l 0,14 c 0,1.6694 1.3619,3.0312 3.0312,3.0312 l 28,0 c 1.6694,0 3.0312,-1.3619 3.0312,-3.0312 l 0,-14 c 0,-1.6694 -1.3619,-3.0312 -3.0312,-3.0312 l -28,0 z" />
  <path
     inkscape:connector-curvature="0"
     style="color:#000000;fill:url(#linearGradient3955-6)"
     id="path157"
     d="m 26,22 28,0 a 2,2 0 0 1 2,2 l 0,14 a 2,2 0 0 1 -2,2 l -28,0 a 2,2 0 0 1 -2,-2 l 0,-14 a 2,2 0 0 1 2,-2" />
  <path
     style="color:#000000;line-height:120.000005%;opacity:0.7;fill:#ffffff"
     d="m 36.4375,23.75 c -0.1092,0.016 -0.071,0.2107 -0.094,0.2812 l 0.4374,0 c -0.043,0.1108 -0.022,0.241 -0.031,0.3438 -0.023,0.1715 -0.049,0.273 -0.031,0.498 l 0.2187,0 c 0.091,-0.1581 0.041,-0.3384 0.06,-0.498 0.047,-0.1152 0.02,-0.2212 0.031,-0.3438 l 0.4355,0 0,-0.2812 -1.0273,0 z m 4.9063,0 c -0.045,0.065 -0.041,0.1458 -0.063,0.2188 l -0.2167,0 0,0.4355 -0.029,0 0,0.248 c -0.028,0.07 -0.021,0.1468 -0.031,0.2188 l 0.2168,0 c -0.02,0.05 -0.02,0.1051 -0.029,0.1562 l -0.1562,0 c -0.089,0.1321 -0.041,0.2582 -0.062,0.4043 l -0.031,0 0,0.2168 c -0.01,0.092 -0.02,0.1608 -0.031,0.2481 l 0.2812,0 0,-0.2481 0.031,-0.1562 0,-0.2168 0.029,0 0,-0.2168 0.996,0 0,0.1543 -0.031,0 0,0.2793 -0.031,0.1562 0,0.2481 0.2188,0 c 0.039,-0.055 0.04,-0.1235 0.06,-0.1856 l 0,-0.2187 0.031,0 0,-0.2793 0,-0.1856 -0.1856,0 0,-0.1562 0.1856,0 c 0.062,-0.083 0.043,-0.1989 0.061,-0.2813 -0.02,-0.1181 0.022,-0.2436 0.031,-0.3418 l 0,-0.2792 -0.1856,0 0,-0.2188 -0.062,0 -0.996,0 z m -2.0313,0 0,0.2168 -0.2187,0 0,0.2792 -0.031,0.125 0,0.2168 -0.031,0 0,0.2793 0.1895,0 0,0.1563 -0.2168,0 0,0.1855 0,0.062 -0.031,0.1563 0,0.2187 -0.031,0 0,0.2481 0.2793,0 0,-0.2481 c 0.028,-0.07 0.021,-0.1467 0.031,-0.2187 l 0,-0.2188 c 0.02,-0.049 0.021,-0.102 0.031,-0.1523 l 0.5606,0 0,0.2148 0.062,0 c -0.028,0.07 -0.021,0.1468 -0.031,0.2188 l 0.06,0 0,0.2187 0.062,0 0,0.1856 0.2168,0 c 0.059,-0.073 0.045,-0.1753 0.062,-0.2481 l -0.062,0 0,-0.2187 -0.059,0 0,-0.2188 -0.062,0 c 0.02,-0.049 0.021,-0.102 0.031,-0.1523 l 0.2148,0 0,-0.1875 0.2188,0 0,-0.2188 0.031,0 0,-0.4023 0.031,0 0,-0.2812 -0.2188,0 c 0.028,-0.07 0.021,-0.1448 0.031,-0.2168 -0.3848,8e-4 -0.7858,-5e-4 -1.1211,0 z m -12.7187,0.029 c -0.083,0 -0.07,0.1386 -0.094,0.1876 l -0.2188,0 0,0.2812 c -0.041,0.1195 -0.018,0.2196 -0.029,0.3418 0,0.1045 -0.02,0.1832 -0.031,0.2812 l 0.2168,0 c -0.028,0.07 -0.019,0.1448 -0.029,0.2168 l 1.0586,0 c -0.051,0.1095 -0.021,0.2292 -0.031,0.3438 0,0.096 -0.02,0.1961 -0.029,0.2793 l 0,0.1562 -1.0273,0 c -0.062,0.08 -0.042,0.1652 -0.062,0.25 l 1.1211,0 0,-0.1875 0.1875,0 c 0.045,-0.065 0.041,-0.1458 0.062,-0.2187 l 0,-0.2793 c 0.054,-0.1445 0.019,-0.2665 0.029,-0.4043 l -0.1875,0 0,-0.2188 -1.0293,0 c -2e-4,-0.1893 0.049,-0.3191 0.031,-0.5605 l 0.031,0 0,-0.2188 1.0605,0 0,-0.25 -1.0292,0 z m 1.9687,0 c -0.045,-0.015 -0.041,0.039 -0.062,0.063 l -0.031,0.125 -0.2168,0 0,0.2812 -0.029,0.1562 c -0.025,0.1519 -0.021,0.3242 -0.031,0.4668 l 0.2168,0 -0.029,0.1563 -0.1562,0 c -0.088,0.1351 -0.043,0.2972 -0.062,0.4355 l -0.031,0 c 0.043,0.1722 -0.022,0.2844 -0.031,0.4043 l 0,0.062 0.2187,0 -0.031,0.125 0,0.062 1.121,0 0,-0.25 -1.0273,0 0,-0.2168 c 0.05,-0.1208 0.022,-0.2655 0.031,-0.375 l 0.031,0 0,-0.1875 1.0586,0 0,-0.2793 -1.0273,0 0,-0.2187 0.031,-0.125 0,-0.2168 c -0.01,-0.075 0.02,-0.1457 0.029,-0.2188 l 0.998,0 0.063,0 0,-0.25 -0.063,0 -0.9687,0 z m 3.8437,0 0,0.063 0,0.125 -0.2187,0 0,0.2187 -0.031,0 0,0.4355 -0.029,0 0,0.25 0.1855,0 0,0.1563 -0.2168,0 0,0.1855 c 0.012,0.076 -0.022,0.1544 -0.031,0.2188 l 0,0.2187 -0.029,0 0,0.2793 0.1875,0 0,0.1875 1.0585,0 c 0.058,-0.071 0.042,-0.1696 0.061,-0.25 l -1.0606,0 c 0.046,-0.121 0.021,-0.2564 0.031,-0.373 l 0.031,0 c -0.021,-0.1433 0.029,-0.2475 0.031,-0.4063 l 0.998,0 c 0.061,-0.081 0.041,-0.1881 0.061,-0.2793 l -1.0586,0 c 0.051,-0.1095 0.021,-0.2291 0.031,-0.3437 l 0.031,0 0,-0.4356 1.0273,0 c 0.057,-0.072 0.044,-0.1681 0.062,-0.25 l -1.1211,0 z m 1.9688,0 0,0.063 0,0.125 -0.2188,0 0,0.2187 -0.029,0 0,0.2793 -0.031,0.125 0,0.2812 0.2168,0 0.031,-0.062 c 0.05,-0.1172 0.02,-0.2206 0.031,-0.3437 -0.01,-0.075 0.021,-0.144 0.031,-0.2168 l 0,-0.2188 1.0274,0 c 0.057,-0.072 0.044,-0.168 0.062,-0.25 l -1.1211,0 z m 8.9062,0 0,0.25 0.4043,0 0,0.2188 -0.029,0.1562 0,0.1856 c 0,0.1045 -0.02,0.1813 -0.031,0.2793 l 0.2793,0 0,-0.062 0,-0.2168 c 0.031,-0.059 0.021,-0.1244 0.031,-0.1856 l 0,-0.1562 c -0.01,-0.075 0.019,-0.1458 0.029,-0.2188 l 0.3438,0 0.029,0 -0.029,0.1563 0,0.2187 -0.031,0 0,0.061 0,0.2168 c -0.031,0.059 -0.021,0.1259 -0.031,0.1875 l 0.2793,0 0,-0.2481 c 0,-0.054 0.021,-0.1043 0.031,-0.1562 l 0,-0.2168 0.031,0 0,-0.2812 -0.2188,0 c 0.032,-0.059 0.021,-0.1257 0.031,-0.1876 l -1.1192,0 z m 2.0313,0 c -0.057,0.072 -0.042,0.1694 -0.062,0.25 l 0.4375,0 c -0.045,0.1215 -0.022,0.2631 -0.031,0.375 l -0.031,0 c 0.021,0.1408 -0.021,0.2763 -0.031,0.4024 l 0,0.2187 0,0.061 -0.031,0.125 0,0.2187 c 0.014,0.076 -0.021,0.1459 -0.031,0.2188 l 0,0.061 -0.029,0.1563 -0.375,0 c -0.058,0.071 -0.041,0.1676 -0.061,0.248 l 1.1191,0 0,-0.248 -0.4043,0 0,-0.1563 0.031,0 0,-0.2793 c 0.053,-0.1499 0.018,-0.2654 0.029,-0.4043 0.028,-0.07 0.021,-0.1467 0.031,-0.2187 -0.013,-0.143 0.02,-0.2712 0.029,-0.4024 l 0,-0.1562 0.031,0 0,-0.2188 0.4355,0 0,-0.25 -1.0566,0 z m 1.9375,0 0,0.1876 -0.1875,0 c -0.045,0.065 -0.039,0.1458 -0.06,0.2187 l 0,0.2187 c 0.01,0.064 -0.019,0.1235 -0.029,0.1856 l 0,0.2168 0,0.062 0.248,0 0,-0.062 0,-0.125 0,-0.029 0.031,0 0,-0.062 0,-0.125 0,-0.061 c 0.028,-0.07 0.019,-0.1467 0.029,-0.2187 l 0,-0.1563 0.9942,0 0,0.1563 -0.029,0 0,0.4355 -0.031,0 0,0.2481 0.2168,0 0.031,-0.062 c 0.051,-0.1095 0.021,-0.2272 0.031,-0.3418 l 0.031,0 0,-0.2793 c 0.028,-0.07 0.019,-0.1469 0.029,-0.2187 l -0.2168,0 0,-0.1876 -1.0879,0 z m -7.8125,0.094 0.031,0 0,0.031 -0.031,0 0,-0.031 z m 2.1875,0 0.031,0 0,0.031 -0.031,0 0,-0.031 z M 30.2188,24 l 0,0.2188 -0.031,0 0,0.248 c -0.047,0.1317 -0.022,0.2854 -0.031,0.4062 l 0.2188,0 c 0.087,-0.1293 0.041,-0.2634 0.062,-0.4062 l 0.029,0 0,-0.4668 -0.248,0 z m 9.1562,0.031 0.9648,0 0,0.3438 0,0.027 -0.031,0 0,0.25 -0.029,0.1563 -0.9981,0 c 0.028,-0.07 0.021,-0.1468 0.031,-0.2188 0.053,-0.1347 0.02,-0.2578 0.031,-0.4023 l 0.031,-0.1563 z m 1.9668,0 0,0 0.996,0 -0.031,0.1563 0,0.2461 c 0,0.054 -0.021,0.1043 -0.031,0.1562 l 0,0.2188 -0.031,0 -0.9649,0 0,-0.2188 c 0.051,-0.1138 0.018,-0.2171 0.029,-0.3398 l 0.031,0 c -4e-4,-0.073 10e-4,-0.1458 0,-0.2188 z m -14.9356,0.063 0.031,0 0,0.029 -0.031,0 0,-0.029 z m 14.0626,0 0.031,0 0,0.029 -0.031,0 0,-0.029 z m 0.7187,0 0.031,0 0,0.029 -0.031,0 0,-0.029 z m -8.9063,0.2187 0.031,0 0,0.031 -0.031,0 0,-0.031 z m 16.0938,0 0.031,0 0,0.031 -0.031,0 0,-0.031 z m -21.625,0.625 0.031,0 0,0.031 -0.031,0 0,-0.031 z m 1.9688,0 0.031,0 0,0.031 -0.031,0 0,-0.031 z m 3.7187,0 0.031,0 0,0.031 -0.031,0 0,-0.031 z m -2.3125,0.094 0,0.2168 -0.031,0 0,0.2188 c 0,0.082 -0.021,0.1454 -0.031,0.2187 l 0,0.2481 0.1875,0 0,0.2187 1.0605,0 c 0.061,-0.081 0.041,-0.1881 0.061,-0.2793 l -1.0586,0 c 0.048,-0.1127 0.021,-0.2333 0.031,-0.3437 l 0.029,0 0,-0.2813 c 0.028,-0.07 0.021,-0.1447 0.031,-0.2168 l -0.2793,0 z m 3.9375,0 0,0.2168 -0.031,0 0,0.4063 -0.031,0 0,0.2793 0.1875,0 0,0.1875 1.0605,0 c 0.058,-0.071 0.041,-0.1696 0.061,-0.25 l -0.061,0 -0.998,0 c 0.044,-0.1265 0.021,-0.2522 0.031,-0.3731 l 0.031,0 0,-0.4668 -0.25,0 z m 2.6563,0 c -0.04,0.056 -0.04,0.1249 -0.063,0.1876 l 0,0.2167 c -0.033,0.1828 -0.05,0.3321 -0.031,0.4668 l 0.2188,0 c 0.091,-0.1454 0.044,-0.3181 0.062,-0.4668 0.046,-0.1359 0.025,-0.2937 0.031,-0.4043 l -0.2187,0 z m 6.875,0 0,0.4356 -0.031,0 0,0.1875 c 0.01,0.074 -0.021,0.1443 -0.031,0.2168 l -0.371,0 c -0.058,0.071 -0.043,0.1676 -0.062,0.248 l 1.1191,0 0,-0.1855 0.2187,0 0,-0.2188 0.031,0 0,-0.2793 0,-0.1562 0.031,0 0,-0.2481 -0.2187,0 c -0.038,0.056 -0.041,0.1246 -0.062,0.1876 l 0,0.248 -0.029,0 c 0.022,0.1367 -0.02,0.2843 -0.029,0.4043 l -0.3437,0 0,-0.2168 c 0.039,-0.075 0.021,-0.1457 0.031,-0.2188 l 0,-0.1562 0.031,0 0,-0.2481 -0.2832,0 z m 3.375,0 -0.031,0.063 -0.031,0.125 0,0.2792 c 0,0.054 -0.021,0.1044 -0.031,0.1563 l 0,0.2793 0.1875,0 0,0.1855 1.0859,0 0,-0.1855 0.1875,0 c 0.064,-0.092 0.041,-0.1841 0.062,-0.2793 0.052,-0.146 0.02,-0.2791 0.031,-0.4355 0.032,-0.059 0.021,-0.1255 0.031,-0.1876 l -0.2812,0 0,0.1876 c 0.013,0.075 -0.021,0.1445 -0.031,0.2167 0.012,0.076 -0.02,0.1543 -0.029,0.2188 l 0,0.2168 -0.9941,0 0,-0.1563 0.031,0 0,-0.2793 c 0.053,-0.1327 0.021,-0.2737 0.031,-0.4043 l -0.2187,0 z m -4.625,0.3126 0.031,0 0,0.031 -0.031,0 0,-0.031 z m -12.125,0.031 0.031,0 0,0.031 -0.031,0 0,-0.031 z m 9.8437,0.1875 0.031,0 0,0.031 -0.031,0 0,-0.031 z M 30.375,26 l 0.031,0 0,0.031 -0.031,0 0,-0.031 z m 0.062,1.6875 0,0.2187 -0.1875,0 -0.031,0.061 -0.031,0.1562 c 0.01,0.055 0.015,0.1031 0,0.1875 0.01,0.075 -0.021,0.146 -0.031,0.2188 l 0,0.2793 0.1876,0 0,0.1562 -0.2168,0 0,0.1875 -0.031,0 0,0.2188 c 0.01,0.075 -0.021,0.144 -0.031,0.2168 l 0,0.25 0.2167,0 c 0.059,-0.073 0.046,-0.1769 0.065,-0.25 l 0,-0.2168 0.031,-0.1563 0,-0.2187 0.5918,0 c -0.014,0.073 -0.022,0.1537 -0.031,0.2187 l 0.061,0 0,0.2168 0.062,0 0,0.2188 0.062,0 c -0.031,0.059 -0.021,0.1259 -0.031,0.1875 l 0.2793,0 0,-0.25 -0.061,0 c 0.028,-0.07 0.019,-0.1448 0.029,-0.2168 l -0.062,0 0,-0.2188 -0.061,0 0,-0.1562 0.1875,0 c 0.039,-0.056 0.04,-0.125 0.061,-0.1875 l 0.2188,0 0,-0.061 0,-0.1562 0,-0.062 c 0.028,-0.07 0.021,-0.1468 0.031,-0.2188 l 0,-0.1875 c 0.028,-0.07 0.021,-0.1447 0.031,-0.2168 l -0.2188,0 0,-0.2187 -1.0898,0 z m 1.9687,0.031 0,0.1874 -0.2187,0 0,0.061 0,0.2187 -0.031,0.1563 0,0.1875 c 0,0.1044 -0.02,0.1814 -0.031,0.2793 l 0.2812,0 0,-0.062 0,-0.2168 0.031,-0.125 0,-0.062 0,-0.1563 c -0.01,-0.075 0.021,-0.1459 0.031,-0.2187 l 0.9648,0 0,0.375 -0.029,0 0,0.1875 c 0.01,0.095 -0.021,0.1858 -0.031,0.2793 l 0.2793,0 0,-0.2168 0.031,0 0,-0.4063 0.031,0 0,-0.2793 -0.2187,0 c 0.031,-0.059 0.021,-0.126 0.031,-0.1874 l -1.1211,0 z m 1.9688,0 0,0.1874 -0.2188,0 0,0.2168 c 0.011,0.075 -0.021,0.146 -0.031,0.2188 l 0,0.062 0,0.125 c 0.011,0.1398 -0.051,0.2007 -0.031,0.2793 l 0.2187,0 c 0.069,-0.085 0.042,-0.1909 0.062,-0.2793 l 0,-0.125 0.031,0 0,-0.062 0,-0.2188 0.029,-0.1562 0.9961,0 c 0.059,-0.073 0.044,-0.175 0.062,-0.248 -0.3733,-4e-4 -0.7458,-3e-4 -1.1191,0 z m 1.75,0.1874 0,0.2793 -0.031,0.1563 0,0.1875 c 0.012,0.076 -0.022,0.1543 -0.031,0.2187 l 0,0.061 0.2187,0 -0.031,0.1562 -0.2188,0 0,0.2188 c 0.011,0.065 -0.021,0.125 -0.031,0.1875 l 0,0.2187 c -0.01,0.095 -0.02,0.1957 -0.029,0.2793 l 0.2793,0 0,-0.2793 c 0.028,-0.07 0.021,-0.1467 0.031,-0.2187 l 0,-0.1875 0.031,-0.1563 0.998,0 c -0.028,0.07 -0.021,0.1468 -0.031,0.2188 l 0,0.125 c 0.01,0.075 -0.021,0.1459 -0.031,0.2187 l 0,0.2793 0.2481,0 0,-0.2187 0.031,0 0,-0.2793 c 0.031,-0.059 0.021,-0.1259 0.031,-0.1875 l 0,-0.2188 -0.1875,0 0,-0.2168 -0.1856,0 0,-0.1562 0.029,0 c 0.039,-0.056 0.043,-0.125 0.062,-0.1875 l 0.031,0 c 0.045,-0.065 0.04,-0.1459 0.061,-0.2188 l 0.062,0 0,-0.2793 -0.248,0 0,0.063 0,0.1562 -0.096,0 0,0.2168 -0.092,0 0,0.2187 -0.031,0 c -0.039,0.056 -0.039,0.125 -0.06,0.1875 l -0.5605,0 0,-0.2187 c 0.03,-0.059 0.021,-0.1259 0.031,-0.1875 l 0,-0.1563 c 0.052,-0.088 0.018,-0.1875 0.027,-0.2793 l -0.2773,0 z m -5.6562,0.063 0.996,0 0,0.2167 -0.029,0.125 0,0.2188 -0.031,0 0,0.2187 -0.9981,0 c 0.029,-0.07 0.021,-0.1467 0.031,-0.2187 l 0,-0.2188 c 0.031,-0.059 0.021,-0.1239 0.031,-0.1855 l 0,-0.1562 z m 3.0937,0.06 0.031,0 0,0.031 -0.031,0 0,-0.031 z m -2.0313,0.625 0.031,0 0,0.031 -0.031,0 0,-0.031 z m 0.5626,0.3125 0,0.1875 c 0.014,0.076 -0.021,0.1458 -0.031,0.2187 l 0,0.2168 -0.031,0 0,0.2813 0.2188,0 c -0.031,0.059 -0.021,0.1259 -0.031,0.1875 l 1.121,0 0,-0.1875 0.2188,0 0,-0.2813 c 0.028,-0.07 0.021,-0.1448 0.031,-0.2168 0.042,-0.068 0.021,-0.1463 0.031,-0.2187 l 0,-0.1875 -0.2188,0 c -0.039,0.056 -0.041,0.125 -0.062,0.1875 l 0,0.2187 c 0.01,0.074 -0.019,0.144 -0.029,0.2168 0.01,0.075 -0.021,0.146 -0.031,0.2188 l -0.9668,0 0,-0.2188 0.031,-0.1562 0,-0.2793 c 0.03,-0.059 0.021,-0.1259 0.031,-0.1875 l -0.2812,0 z m 1.9687,0 0,0.1875 c 0.014,0.076 -0.021,0.1458 -0.031,0.2187 l 0,0.2168 -0.031,0 0,0.2813 0.2188,0 c -0.031,0.059 -0.021,0.1259 -0.031,0.1875 l 1.1211,0 0,-0.25 -1.0586,0 c 0.023,-0.1326 0.041,-0.2406 0.062,-0.375 l 0,-0.1856 c 0,-0.1004 0.018,-0.1852 0.029,-0.2812 l -0.2793,0 z m -2.9375,0.3125 0.031,0 0,0.031 -0.031,0 0,-0.031 z m 1.0312,0.4375 0.031,0 0,0.031 -0.031,0 0,-0.031 z m 1.3672,1.9043 -1.1172,0 0,0.2188 -0.2187,0 0,0.1875 c 0.012,0.076 -0.022,0.1527 -0.031,0.2168 l 0,0.062 0,0.1562 c -0.01,0.1041 -0.019,0.1832 -0.029,0.2813 l 0.1855,0 0,0.1543 -0.2168,0 0,0.061 0,0.125 c -0.01,0.1042 -0.02,0.1832 -0.031,0.2813 l 0,0.1562 -0.029,0 0,0.2481 0.2773,0 0,-0.2481 0.031,-0.1562 0,-0.2813 0.031,-0.125 0,-0.031 0.9961,0 c 0,0.054 -0.021,0.1042 -0.031,0.1562 l 0,0.2188 c 0,0.095 -0.022,0.1959 -0.031,0.2793 -0.031,0.059 -0.021,0.1258 -0.031,0.1875 l 0.2813,0 0,-0.1875 c 0.01,-0.1036 0.019,-0.1818 0.029,-0.2793 0.028,-0.071 0.021,-0.1466 0.031,-0.2188 l 0,-0.1875 -0.1875,0 0,-0.1543 0.2168,0 0,-0.2187 0.031,0 0,-0.4356 0.031,0 0,-0.25 -0.2187,0 c 0.028,-0.071 0.021,-0.1465 0.031,-0.2187 z m 1.9707,0.031 -1.0566,0 c -0.058,0.071 -0.042,0.1696 -0.062,0.25 l 0.8418,0 0,0.1562 -0.094,0 0,0.2168 -0.092,0 0,0.061 0,0.125 -0.031,0 c -0.062,0.083 -0.042,0.1974 -0.06,0.2793 l 0.2812,0 0,-0.2168 0.09,0 0,-0.2188 0.031,0 c 0.039,-0.056 0.041,-0.1249 0.062,-0.1875 l 0.031,0 c 0.064,-0.091 0.039,-0.1839 0.059,-0.2793 l 0,-0.1875 z m 1.9707,0 -1.0898,0 0,0.25 0.8105,0 0,0.1562 -0.031,0 c -0.052,0.07 -0.042,0.1458 -0.062,0.2168 l -0.031,0 -0.031,0.061 -0.027,0.125 -0.062,0 0,0.2793 0.2167,0 0.031,-0.061 0.031,-0.1562 0.06,0 0,-0.2188 0.094,0 0,-0.1875 0.092,0 0,-0.4668 z m -4.9336,0.096 0.031,0 0,0.031 -0.031,0 0,-0.031 z m -1.0624,0.125 0,0.062 0,0.125 0,0.061 -0.031,0.1562 0,0.2188 -0.031,0 0,0.06 0,0.1875 0.2813,0 0,-0.1875 0,-0.06 c 0.028,-0.071 0.021,-0.1466 0.031,-0.2188 l 0,-0.1562 0,-0.061 0.029,-0.125 0,-0.062 -0.2792,0 z m 1,0.031 0.9648,0 0,0.3437 -0.031,0 0,0.2793 -0.031,0.1563 -0.9649,0 0,-0.2168 0.029,-0.1563 0,-0.2812 0.033,-0.125 z m 4.8437,0.061 0.031,0 0,0.031 -0.031,0 0,-0.031 z m -3.7813,0.4063 0.031,0 0,0.031 -0.031,0 0,-0.031 z m -3.4062,0.5312 0,0.2188 -0.031,0 0,0.2168 c 0.01,0.065 -0.021,0.1248 -0.031,0.1875 l 0,0.2187 0,0.062 0.1875,0 0,0.2168 1.0547,0 c 0.045,-0.064 0.041,-0.1443 0.062,-0.2168 l 0.2187,0 0,-0.2812 0.029,-0.125 0,-0.2793 c 0.028,-0.071 0.021,-0.1466 0.031,-0.2188 l -0.2793,0 0,0.2188 c 0.01,0.074 -0.021,0.1445 -0.031,0.2168 l 0,0.062 0,0.125 -0.031,0 0,0.2187 -0.9942,0 c 0.026,-0.071 0.019,-0.1465 0.029,-0.2187 l 0,-0.1875 c 0.028,-0.07 0.019,-0.1453 0.029,-0.2168 l 0,-0.2188 -0.2441,0 z m 4.375,0 0,0.2188 -0.094,0 0,0.1855 -0.092,0 0,0.2188 -0.031,0 c -0.045,0.065 -0.041,0.1456 -0.062,0.2187 l 0,0.2481 1.0918,0 0,-0.2481 -0.8105,0 0,-0.1562 0.029,0 c 0.045,-0.065 0.041,-0.1457 0.063,-0.2188 l 0.031,0 c 0.049,-0.065 0.044,-0.1538 0.062,-0.2187 l 0.031,0 c 0.06,-0.072 0.041,-0.1753 0.058,-0.2481 l -0.2773,0 z m 1.9688,0 0,0.1875 0,0.031 -0.031,0 -0.031,0.06 -0.031,0.125 -0.029,0 c -0.045,0.065 -0.04,0.1459 -0.06,0.2188 l -0.031,0 c -0.097,0.1443 -0.041,0.3029 -0.062,0.4668 l 1.0606,0 c 0.058,-0.071 0.041,-0.1678 0.06,-0.2481 l -0.8418,0 0,-0.1562 0.094,0 0,-0.2188 0.094,0 0,-0.062 0,-0.1562 0.092,0 0,-0.2481 -0.2812,0 z m -5.0313,0.75 0.031,0 0,0.031 -0.031,0 0,-0.031 z M 31,33.873 l 0.031,0 0,0.031 -0.031,0 0,-0.031 z m 13.25,1.6836 0,0 0,0.2187 -0.1875,0 -0.031,0.061 -0.027,0.125 0,0.2187 c 0.01,0.075 -0.021,0.1458 -0.031,0.2188 l 0,0.2793 0.1835,0 0,0.1562 -0.2148,0 0,0.1875 -0.031,0 0,0.062 0,0.1563 c 0.01,0.064 -0.021,0.1235 -0.031,0.1855 l 0,0.2813 0.25,0 0,-0.2188 0.027,0 0,-0.1875 c -0.01,-0.074 0.021,-0.1444 0.031,-0.2168 l 0,-0.2187 0.998,0 0,0.1562 c 0.01,0.075 -0.021,0.1458 -0.031,0.2188 l 0,0.2168 -0.031,0 0,0.25 0.2813,0 0,-0.25 c 0.019,-0.079 0.02,-0.1405 0.031,-0.2168 l 0,-0.2188 c 0.029,-0.06 0.019,-0.1256 0.029,-0.1875 l -0.2168,0 0,-0.1562 0.1875,0 c 0.058,-0.084 0.041,-0.197 0.059,-0.2793 0.028,-0.07 0.021,-0.1466 0.031,-0.2188 l 0,-0.1875 c 0,-0.054 0.021,-0.1042 0.031,-0.1562 l 0,-0.062 -0.062,0 -0.1562,0 0,-0.2188 c -0.3628,0 -0.7251,-10e-5 -1.0879,0 z m -13.7812,0 c -0.045,0.065 -0.042,0.1457 -0.063,0.2187 l -0.1562,0 -0.029,0.061 c -0.044,0.1364 -0.019,0.2546 -0.029,0.375 l -0.031,0 0,0.248 c -0.028,0.07 -0.021,0.1468 -0.031,0.2188 l 0.2793,0 0,-0.2793 c 0.05,-0.1196 0.02,-0.2198 0.031,-0.3438 l 0.031,0 0,-0.2187 1.0605,0 0,-0.2793 c -0.3536,-1e-4 -0.7087,0 -1.0624,0 z m 3.9374,0 c -0.045,0.065 -0.041,0.1457 -0.062,0.2187 l -0.1563,0 -0.029,0.061 c -0.051,0.1096 -0.021,0.2291 -0.031,0.3437 l -0.029,0 c 0.019,0.1494 -0.021,0.3014 -0.031,0.4356 l 0,0.062 0.2188,0 c -0.021,0.05 -0.021,0.1052 -0.031,0.1562 l -0.1562,0 c -0.062,0.08 -0.042,0.1652 -0.062,0.25 l 0,0.1563 -0.031,0 c 0.017,0.1597 -0.021,0.3218 -0.031,0.4668 l 0.2812,0 0,-0.2813 c 0.031,-0.059 0.021,-0.1239 0.031,-0.1855 l 0,-0.1563 0.031,0 0,-0.2187 0.9961,0 0,0.1562 -0.029,0 c 0.023,0.1469 -0.021,0.2761 -0.031,0.4043 l 0,0.2813 0.2168,0 c 0.071,-0.079 0.044,-0.1902 0.062,-0.2813 -0.011,-0.1021 0.018,-0.1092 0.031,-0.1855 l 0,-0.4063 -0.1875,0 0,-0.1562 0.1875,0 0.031,-0.062 0.031,-0.1563 0,-0.2793 c 0.039,-0.075 0.021,-0.1455 0.031,-0.2187 l 0,-0.1856 -0.1874,0 0,-0.2187 -1.0626,0 z m 1.9376,0 0,0.2187 -0.1876,0 c -0.046,0.064 -0.038,0.1444 -0.058,0.2168 l 0,0.062 0,0.125 c 0.011,0.076 -0.022,0.1541 -0.031,0.2188 l 0,0.2793 0.1836,0 0,0.2187 1.0293,0 c 0.019,0.1176 -0.019,0.238 -0.029,0.3438 l 0,0.2168 -0.031,0 0,0.2187 -1.0586,0 0,0.2481 1.0586,0 c 0.039,-0.056 0.039,-0.1232 0.06,-0.1856 l 0.2168,0 0,-0.2812 0.031,-0.1563 0,-0.2793 c 0.031,-0.059 0.021,-0.1258 0.031,-0.1875 l -0.2188,0 c 0.028,-0.071 0.021,-0.1465 0.031,-0.2187 l -1.0586,0 c 0.028,-0.07 0.021,-0.1448 0.031,-0.2168 l 0,-0.2188 0.031,-0.125 0,-0.2187 1.0586,0 0,-0.2793 -1.0898,0 z m 1.9687,0 0,0.2187 -0.2187,0 0,0.2168 c 0.01,0.065 -0.019,0.125 -0.029,0.1875 l 0,0.2188 c -0.01,0.104 -0.018,0.1816 -0.029,0.2793 l 0.1855,0 0,0.2187 1.0605,0 -0.031,0.125 0,0.2188 -0.031,0 0,0.2168 c 0.01,0.075 -0.021,0.1459 -0.031,0.2187 l -0.9961,0 c -0.061,0.08 -0.041,0.1637 -0.062,0.2481 l 1.1211,0 0,-0.1856 0.1562,0 0.063,0 0,-0.2812 c 0.028,-0.07 0.021,-0.1447 0.031,-0.2168 0.053,-0.1335 0.021,-0.2753 0.031,-0.4063 l -0.1874,0 0,-0.2187 -1.0606,0 c 0.028,-0.07 0.021,-0.1447 0.031,-0.2168 0.043,-0.068 0.021,-0.1464 0.031,-0.2188 l 0,-0.1875 0.031,-0.1562 0.998,0 c 0.062,-0.092 0.038,-0.184 0.059,-0.2793 l -1.1211,0 z m 2.0313,0 c -0.064,0.092 -0.041,0.1843 -0.063,0.2793 l 0.4376,0 c -0.028,0.07 -0.021,0.1465 -0.031,0.2187 l 0,0.125 c 0.014,0.076 -0.019,0.1457 -0.029,0.2188 l 0,0.2168 -0.031,0 0,0.2812 -0.031,0.125 0,0.2188 c 0.01,0.074 -0.021,0.1445 -0.031,0.2168 l 0,0.2187 -0.4356,0 0,0.2481 1.0918,0 0,-0.2481 -0.4062,0 0,-0.1562 0.031,0 0,-0.2793 c 0.052,-0.1173 0.02,-0.2205 0.031,-0.3438 -0.01,-0.075 0.021,-0.1457 0.031,-0.2187 l 0,-0.2188 0.029,0 0,-0.248 c 0,-0.053 0.019,-0.1043 0.029,-0.1563 l 0,-0.2187 0.4375,0 0,-0.2793 -1.0605,0 z m 1.9687,0 -0.031,0.062 -0.031,0.1562 -0.1562,0 c -0.042,0.065 -0.039,0.1444 -0.059,0.2168 l 0,0.2188 -0.031,0 0,0.1875 c -0.01,0.1036 -0.02,0.1818 -0.031,0.2793 l 0.2773,0 0,-0.2793 c 0.051,-0.1097 0.021,-0.229 0.031,-0.3438 l 0.031,0 0,-0.2187 1.0605,0 0,-0.2793 -1.0605,0 z m -11.5625,0.125 0.031,0 0,0.031 -0.031,0 0,-0.031 z m 3.9375,0 0.031,0 0,0.031 -0.031,0 0,-0.031 z m 3.75,0 0.031,0 0,0.031 -0.031,0 0,-0.031 z m 2.1875,0 0.031,0 0,0.031 -0.031,0 0,-0.031 z m 1.9688,0 0.031,0 0,0.031 -0.031,0 0,-0.031 z m -10.4376,0.125 0,0.1875 c 0,0.094 -0.021,0.1861 -0.031,0.2793 l 0,0.1562 -0.031,0 0,0.25 0.2187,0 c 0.062,-0.08 0.041,-0.1652 0.062,-0.25 l 0,-0.1562 0.031,0 0,-0.2793 c 0.031,-0.059 0.019,-0.1259 0.029,-0.1875 l -0.2793,0 z m 13.8126,0 0,0.1875 0,0.2168 -0.031,0 0,0.2187 c -0.01,0.093 -0.02,0.1619 -0.031,0.25 l 0.2813,0 0,-0.25 c 0.028,-0.07 0.021,-0.1465 0.031,-0.2187 l 0,-0.2168 c 0.031,-0.059 0.021,-0.1258 0.031,-0.1875 l -0.2812,0 z m -11.5626,0.031 0.9981,0 -0.031,0.125 0,0.2793 -0.031,0.1563 0,0.2187 -0.9961,0 0,-0.2187 0.029,-0.1563 0,-0.2168 0.031,0 0,-0.1875 z m 9.875,0 0.9981,0 c 0.02,0.1176 -0.022,0.2412 -0.031,0.3418 l 0,0.2188 -0.031,0 0,0.2187 -0.031,0 -0.8105,0 -0.1562,0 c 0.028,-0.07 0.021,-0.1465 0.031,-0.2187 l 0,-0.1563 0,-0.062 c 0.051,-0.1167 0.02,-0.2192 0.031,-0.3418 z m -5.9374,0.9063 0.031,0 0,0.031 -0.031,0 0,-0.031 z m 0.8437,0 0.031,0 0,0.031 -0.031,0 0,-0.031 z m -9.0313,0.094 c -0.038,0.056 -0.043,0.1251 -0.062,0.1875 l 0,0.2168 -0.029,0 0,0.062 0,0.1563 c -0.01,0.1038 -0.018,0.1816 -0.029,0.2793 l 0.2168,0 0,0.1875 1.0918,0 0,-0.2481 -1.0293,0 c -0.015,-0.1525 0.018,-0.2841 0.029,-0.4375 l 0,-0.125 0,-0.031 0.031,0 0,-0.2481 -0.2188,0 z m 1.9063,0 0,0.2188 c 0.01,0.075 -0.021,0.144 -0.031,0.2168 l 0,0.1875 -0.031,0 0,0.2812 0.1875,0 0.031,0 c -0.028,0.07 -0.021,0.1453 -0.031,0.2168 l 0.062,0 0.998,0 c 0.064,-0.092 0.04,-0.1838 0.061,-0.2793 l -0.061,0 -0.998,0 c 0.028,-0.07 0.021,-0.1466 0.031,-0.2187 l 0,-0.125 0.029,0 0,-0.2188 c 0.01,-0.1039 0.02,-0.1817 0.031,-0.2793 l -0.2793,0 z m 9.9375,0 -0.031,0.062 c -0.051,0.1092 -0.021,0.2277 -0.031,0.3418 l -0.029,0 0,0.061 0,0.1562 c -0.01,0.1035 -0.018,0.1822 -0.029,0.2793 l 0.2149,0 0,0.1875 1.0917,0 0,-0.248 -1.0293,0 0,-0.1563 c -0.01,-0.075 0.021,-0.1457 0.031,-0.2187 l 0,-0.061 0,-0.125 0,-0.031 0.031,0 0,-0.2481 -0.063,0 -0.125,0 -0.031,0 z m 3.9375,0 -0.031,0.062 -0.031,0.1563 0,0.059 0,0.1562 -0.029,0 0,0.1875 c 0.01,0.075 -0.019,0.1458 -0.029,0.2188 l 0,0.062 0.2148,0 0,0.2168 0.063,0 1.0292,0 0,-0.2793 -1.0292,0 0,-0.2188 c 0.031,-0.059 0.021,-0.1257 0.031,-0.1875 l 0,-0.1562 0.031,0 0,-0.061 0,-0.1562 0,-0.061 -0.2187,0 z m -10.5313,0.3125 0.031,0 0,0.031 -0.031,0 0,-0.031 z m 1.9376,0.4375 0.031,0 0,0.031 -0.031,0 0,-0.031 z"
     id="path191"
     inkscape:connector-curvature="0" />
  <g
     style="color:#000000;stroke:#000000"
     id="g159">
    <path
       inkscape:connector-curvature="0"
       style="fill:url(#radialGradient3909-1);stroke-width:0.667;stroke-opacity:0.683"
       id="path161"
       transform="matrix(1.5,0,0,1.5,-36.5,-13.5)"
       d="m 72,27 a 3,3 0 1 1 -6,0 3,3 0 1 1 6,0 z" />
    <path
       inkscape:connector-curvature="0"
       style="fill:url(#radialGradient3606);stroke-width:0.8;stroke-opacity:0.856"
       id="path163"
       transform="matrix(1.25,0,0,1.25,-59.25,6.5)"
       d="m 71,34 a 2,2 0 1 1 -4,0 2,2 0 1 1 4,0 z" />
  </g>
  <path
     inkscape:connector-curvature="0"
     style="color:#000000;fill:url(#linearGradient4608)"
     id="path165"
     d="m 65,72 a 7,7 0 0 0 0,-14 7,7 0 1 0 0,14 z" />
  <path
     inkscape:connector-curvature="0"
     style="color:#000000;fill:url(#linearGradient4495)"
     id="path167"
     d="m 33,74 a 9,9 0 0 0 0,-18 9,9 0 1 0 0,18 z" />
  <g
     style="color:#000000;stroke:#000000;stroke-width:0.8"
     id="g169">
    <g
       style="stroke-opacity:0.856"
       id="g171">
      <path
         inkscape:connector-curvature="0"
         style="fill:url(#radialGradient3608)"
         id="path173"
         transform="matrix(1.25,0,0,1.25,-51.25,6.5)"
         d="m 71,34 a 2,2 0 1 1 -4,0 2,2 0 1 1 4,0 z" />
      <path
         inkscape:connector-curvature="0"
         style="fill:url(#radialGradient3610)"
         id="path175"
         transform="matrix(1.25,0,0,1.25,-43.25,6.5)"
         d="m 71,34 a 2,2 0 1 1 -4,0 2,2 0 1 1 4,0 z" />
      <path
         inkscape:connector-curvature="0"
         style="fill:url(#radialGradient3612)"
         id="path177"
         transform="matrix(1.25,0,0,1.25,-35.25,6.5)"
         d="m 71,34 a 2,2 0 1 1 -4,0 2,2 0 1 1 4,0 z" />
      <path
         inkscape:connector-curvature="0"
         style="fill:url(#radialGradient3614)"
         id="path179"
         transform="matrix(1.25,0,0,1.25,-27.25,6.5)"
         d="m 71,34 a 2,2 0 1 1 -4,0 2,2 0 1 1 4,0 z" />
      <path
         inkscape:connector-curvature="0"
         style="fill:url(#radialGradient3929-2)"
         id="path181"
         transform="matrix(1.25,0,0,1.25,-19.25,6.5)"
         d="m 71,34 a 2,2 0 1 1 -4,0 2,2 0 1 1 4,0 z" />
    </g>
    <path
       inkscape:connector-curvature="0"
       style="fill:url(#radialGradient3933-5);stroke-opacity:0.716"
       id="path183"
       transform="matrix(1.25,0,0,1.25,-19.25,-5.5)"
       d="m 71,34 a 2,2 0 1 1 -4,0 2,2 0 1 1 4,0 z" />
  </g>
  <path
     inkscape:connector-curvature="0"
     style="color:#000000;opacity:0.15;fill:url(#linearGradient4226)"
     id="path185"
     d="m 26,22 c -1.108,0 -2,0.892 -2,2 l 0,14 c 0,1.108 0.892,2 2,2 l 28,0 c 1.108,0 2,-0.892 2,-2 l 0,-14 c 0,-1.108 -0.892,-2 -2,-2 l -28,0 z m 0,2 28,0 0,14 -28,0 0,-14 z" />
  <path
     inkscape:connector-curvature="0"
     style="color:#000000;opacity:0.6;fill:url(#linearGradient4218)"
     id="path187"
     d="m 26,22 c -1.108,0 -2,0.892 -2,2 l 0,14 c 0,1.108 0.892,2 2,2 l 28,0 c 1.108,0 2,-0.892 2,-2 l 0,-14 c 0,-1.108 -0.892,-2 -2,-2 l -28,0 z m 0,1 28,0 c 0.5656,0 1,0.4344 1,1 l 0,14 c 0,0.5656 -0.4344,1 -1,1 l -28,0 c -0.5656,0 -1,-0.4344 -1,-1 l 0,-14 c 0,-0.5656 0.4344,-1 1,-1 z" />
  <path
     style="color:#000000;opacity:0.6;fill:#afafe9"
     inkscape:connector-curvature="0"
     id="path189"
     d="m 26,31 28,0 0,4 -28,0 z" />
  <path
     inkscape:connector-curvature="0"
     style="color:#000000;opacity:0.5;fill:url(#linearGradient4505)"
     id="path193"
     d="M 40,65 37.9497,69.9497 33,72 28.0503,69.9497 26,65 28.0503,60.0503 33,58 l 4.9497,2.0503 z" />
  <path
     inkscape:connector-curvature="0"
     style="color:#000000;opacity:0.6;fill:url(#linearGradient4541)"
     id="path195"
     d="M 26,65 28.0625,69.9375 33,72 37.9375,69.9375 40,65 37.9375,60.0625 33,58 28.0625,60.0625 26,65 Z m 1,0 1.75,-4.25 L 33,59 37.25,60.75 39,65 37.25,69.25 33,71 28.75,69.25 27,65 Z" />
  <g
     style="color:#000000;fill:#ffffff"
     id="g197">
    <path
       inkscape:connector-curvature="0"
       id="path199"
       d="M 33,59 28.75,60.7813 27,65 27.2188,65.5 28.75,61.75 33,60 37.25,61.75 38.7813,65.5 39,65 37.25,60.7813 33,59 Z" />
    <path
       style="opacity:0.3"
       inkscape:connector-curvature="0"
       id="path201"
       d="m 44,57 a 1,1 0 1 1 -2,0 1,1 0 1 1 2,0 z" />
    <path
       style="opacity:0.3"
       inkscape:connector-curvature="0"
       id="path203"
       transform="matrix(0.86603,0.5,-0.5,0.86603,36.9212,-7.79165)"
       d="m 44,57 a 1,1 0 1 1 -2,0 1,1 0 1 1 2,0 z" />
    <path
       style="opacity:0.3"
       inkscape:connector-curvature="0"
       id="path205"
       transform="matrix(0.5,0.86603,-0.86603,0.5,72.7917,3.92116)"
       d="m 44,57 a 1,1 0 1 1 -2,0 1,1 0 1 1 2,0 z" />
    <path
       style="opacity:0.3"
       inkscape:connector-curvature="0"
       id="path207"
       transform="matrix(0,1,-1,0,98,32)"
       d="m 44,57 a 1,1 0 1 1 -2,0 1,1 0 1 1 2,0 z" />
    <path
       style="opacity:0.3"
       inkscape:connector-curvature="0"
       id="path209"
       transform="matrix(-0.5,0.86603,-0.86603,-0.5,105.792,68.9212)"
       d="m 44,57 a 1,1 0 1 1 -2,0 1,1 0 1 1 2,0 z" />
    <path
       style="opacity:0.3"
       inkscape:connector-curvature="0"
       id="path211"
       transform="matrix(-0.86603,0.5,-0.5,-0.86603,94.0788,104.792)"
       d="m 44,57 a 1,1 0 1 1 -2,0 1,1 0 1 1 2,0 z" />
    <path
       style="opacity:0.3"
       inkscape:connector-curvature="0"
       id="path213"
       transform="matrix(-1,0,0,-1,66,130)"
       d="m 44,57 a 1,1 0 1 1 -2,0 1,1 0 1 1 2,0 z" />
  </g>
  <path
     inkscape:connector-curvature="0"
     style="color:#000000;opacity:0.3;fill:url(#linearGradient4567)"
     id="path215"
     d="m 67,29 a 2,2 0 1 1 0,-4 2,2 0 0 1 0,4 z" />
  <g
     fill="#fff"
     line-height="125%"
     id="g217">
    <path
       d="m 24.5644,17.8151 c 0,0.1419 0,0.2839 0,0.4258 0.2347,0 0.4694,0 0.7041,0 0,0.074 0,0.1485 0,0.2227 -0.2347,0 -0.4694,0 -0.7041,0 0,0.1683 0,0.3366 0,0.5049 -0.096,0 -0.1921,0 -0.2881,0 0,-0.4587 0,-0.9173 0,-1.376 0.3382,0 0.6764,0 1.0146,0 0,0.074 0,0.1485 0,0.2227 -0.2422,0 -0.4844,0 -0.7266,0"
       id="path219"
       inkscape:connector-curvature="0" />
    <path
       d="m 25.749,18.988 c -0.1091,0 -0.229,-0.04 -0.2832,-0.1405 -0.052,-0.096 -0.055,-0.2169 -0.018,-0.3187 0.045,-0.1122 0.1643,-0.1722 0.2788,-0.1873 0.1084,-0.015 0.2183,-0.01 0.3275,-0.013 0.025,0.01 0.01,-0.028 0.014,-0.043 10e-5,-0.071 -0.01,-0.1601 -0.075,-0.1985 -0.055,-0.023 -0.1244,-0.024 -0.1766,0.01 -0.044,0.027 -0.051,0.086 -0.062,0.1262 -0.094,-0 -0.1887,-0.01 -0.283,-0.014 0.017,-0.1182 0.095,-0.2276 0.208,-0.2705 0.1236,-0.049 0.2629,-0.054 0.3922,-0.027 0.123,0.026 0.2303,0.1214 0.2575,0.2458 0.022,0.095 0.011,0.1921 0.013,0.2882 0,0.096 -0,0.1917 0,0.2872 1e-4,0.06 0.058,0.096 0.1136,0.081 0.038,-0.018 0.029,0.016 0.03,0.041 0,0.034 0,0.068 0,0.1025 -0.094,0.024 -0.2005,0.043 -0.2927,0 -0.064,-0.033 -0.089,-0.1088 -0.095,-0.1762 -0.026,0.023 -0.043,0.067 -0.073,0.092 -0.071,0.079 -0.1755,0.1181 -0.2807,0.1156 m 0.3193,-0.5088 c -0.093,0 -0.1891,-0.01 -0.2782,0.024 -0.068,0.026 -0.087,0.1059 -0.079,0.1716 8e-4,0.059 0.044,0.1161 0.105,0.1202 0.1109,0.015 0.2123,-0.073 0.2396,-0.1768 0.015,-0.045 0.013,-0.093 0.013,-0.1394"
       id="path221"
       inkscape:connector-curvature="0" />
    <path
       d="m 27.0507,18.988 c -0.139,0 -0.2871,-0.041 -0.377,-0.1536 -0.1082,-0.1333 -0.1257,-0.3151 -0.114,-0.4805 0.01,-0.1516 0.077,-0.3092 0.2108,-0.39 0.1209,-0.072 0.2702,-0.086 0.4064,-0.059 0.1272,0.026 0.2359,0.1189 0.2852,0.2385 0.047,0.1098 0.06,0.2311 0.06,0.3496 -0.2259,0 -0.4518,0 -0.6777,0 9e-4,0.098 0.015,0.2115 0.098,0.2748 0.065,0.047 0.1573,0.047 0.2279,0.013 0.042,-0.019 0.064,-0.067 0.08,-0.1025 0.085,0.01 0.1706,0.015 0.2559,0.022 -0.041,0.1032 -0.1145,0.197 -0.2188,0.2408 -0.074,0.036 -0.1561,0.046 -0.2372,0.046 m 0,-0.9229 c -0.078,-0 -0.154,0.046 -0.179,0.1209 -0.018,0.043 -0.024,0.089 -0.025,0.1349 0.1367,0 0.2735,0 0.4102,0 -0,-0.092 -0.033,-0.1988 -0.1245,-0.2398 -0.026,-0.011 -0.054,-0.016 -0.082,-0.016"
       id="path223"
       inkscape:connector-curvature="0" />
    <path
       d="m 28.416,18.9684 c -5e-4,-0.2148 0,-0.4296 -8e-4,-0.6444 -0,-0.058 -0.02,-0.1181 -0.053,-0.1663 -0.073,-0.095 -0.2334,-0.071 -0.295,0.025 -0.062,0.083 -0.064,0.1898 -0.062,0.2889 0,0.1659 0,0.3317 0,0.4975 -0.091,0 -0.1829,0 -0.2744,0 10e-5,-0.3521 -10e-5,-0.7042 0,-1.0563 0.087,0 0.1745,0 0.2617,0 0,0.07 0,0.14 0,0.21 0.043,-0.1 0.1229,-0.19 0.2316,-0.2168 0.1206,-0.03 0.2645,-0.016 0.3545,0.077 0.093,0.096 0.1048,0.2368 0.1022,0.3636 0,0.2074 0,0.4147 0,0.6221 -0.091,0 -0.1823,0 -0.2734,0"
       id="path225"
       inkscape:connector-curvature="0" />
    <path
       d="m 28.8808,18.9684 c 0,-0.065 0,-0.1295 0,-0.1943 0.1758,-0.2214 0.3515,-0.4427 0.5273,-0.6641 -0.1624,0 -0.3249,0 -0.4873,0 0,-0.066 0,-0.1321 0,-0.1982 0.2633,0 0.5267,0 0.79,0 0,0.065 0,0.1309 0,0.1963 -0.1748,0.2201 -0.3496,0.4401 -0.5244,0.6602 0.1908,0 0.3815,0 0.5723,0 0,0.067 0,0.1335 0,0.2002 -0.2926,0 -0.5853,0 -0.8779,0"
       id="path227"
       inkscape:connector-curvature="0" />
    <path
       d="m 30.1982,18.988 c -0.1091,0 -0.229,-0.04 -0.2832,-0.1405 -0.052,-0.096 -0.055,-0.2169 -0.017,-0.3187 0.045,-0.1122 0.1643,-0.1722 0.2788,-0.1873 0.1084,-0.015 0.2183,-0.01 0.3275,-0.013 0.025,0.01 0.01,-0.028 0.014,-0.043 10e-5,-0.071 -0.01,-0.1601 -0.075,-0.1985 -0.055,-0.023 -0.1244,-0.024 -0.1766,0.01 -0.043,0.027 -0.051,0.086 -0.062,0.1262 -0.094,-0 -0.1887,-0.01 -0.283,-0.014 0.017,-0.1182 0.095,-0.2276 0.208,-0.2705 0.1236,-0.049 0.2629,-0.054 0.3922,-0.027 0.123,0.026 0.2303,0.1214 0.2575,0.2458 0.022,0.095 0.011,0.1921 0.013,0.2882 0,0.096 -0,0.1917 0,0.2872 10e-5,0.06 0.058,0.096 0.1136,0.081 0.038,-0.018 0.029,0.016 0.03,0.041 0,0.034 0,0.068 0,0.1025 -0.094,0.024 -0.2005,0.043 -0.2927,0 -0.064,-0.033 -0.089,-0.1088 -0.095,-0.1762 -0.026,0.023 -0.043,0.067 -0.073,0.092 -0.071,0.079 -0.1755,0.1181 -0.2807,0.1156 m 0.3193,-0.5088 c -0.093,0 -0.1891,-0.01 -0.2782,0.024 -0.068,0.026 -0.087,0.1059 -0.079,0.1716 8e-4,0.059 0.044,0.1161 0.105,0.1202 0.1109,0.015 0.2123,-0.073 0.2396,-0.1768 0.015,-0.045 0.013,-0.093 0.013,-0.1394"
       id="path229"
       inkscape:connector-curvature="0" />
    <path
       d="m31.833,17.7448 0,.5117 .7676,0 0,.1543-.7676,0 0,.5576-.1865,0 0-1.376 .9775,0 0,.1523-.791,0"
       id="path231" />
    <path
       d="m 34.039,18.9684 c 9e-4,-0.3524 -0,-0.7048 0,-1.0572 -9e-4,-0.04 0.01,-0.1437 0,-0.1414 -0.061,0.2282 -0.155,0.4453 -0.2363,0.6665 -0.067,0.1774 -0.1345,0.3547 -0.2017,0.532 -0.044,0 -0.087,0 -0.1309,0 -0.1251,-0.3273 -0.2528,-0.6537 -0.3762,-0.9816 -0.026,-0.076 -0.049,-0.1524 -0.071,-0.2293 0.011,0.3176 0.01,0.6354 0.01,0.9532 0,0.086 0,0.1719 0,0.2578 -0.055,0 -0.1107,0 -0.166,0 0,-0.4587 0,-0.9173 0,-1.376 0.082,0 0.1634,0 0.2451,0 0.1243,0.3256 0.251,0.6504 0.3738,0.9765 0.021,0.064 0.039,0.1302 0.054,0.1963 0.042,-0.1804 0.1189,-0.3501 0.1814,-0.524 0.081,-0.2163 0.1629,-0.4325 0.2444,-0.6488 0.08,0 0.1595,0 0.2393,0 0,0.4587 0,0.9173 0,1.376 -0.056,0 -0.112,0 -0.168,0"
       id="path233"
       inkscape:connector-curvature="0" />
    <path
       d="m 36.0644,18.9684 c -0.1191,-0.1904 -0.2383,-0.3809 -0.3574,-0.5713 -0.1429,0 -0.2858,0 -0.4287,0 0,0.1904 0,0.3809 0,0.5713 -0.062,0 -0.1243,0 -0.1865,0 0,-0.4587 0,-0.9173 0,-1.376 0.2302,6e-4 0.4603,-0 0.6905,10e-4 0.1511,0.01 0.3212,0.059 0.397,0.2007 0.087,0.165 0.05,0.398 -0.108,0.5076 -0.053,0.04 -0.1174,0.063 -0.1826,0.074 0.1302,0.1976 0.2604,0.3952 0.3906,0.5928 -0.072,0 -0.1432,0 -0.2148,0 m -0.027,-0.9805 c 0.01,-0.099 -0.06,-0.1944 -0.1554,-0.2221 -0.1106,-0.037 -0.2284,-0.02 -0.3428,-0.024 -0.087,0 -0.1737,0 -0.2606,0 0,0.1693 0,0.3385 0,0.5078 0.166,-0 0.3322,0 0.4982,-0 0.1087,-0 0.224,-0.068 0.2502,-0.1807 0.01,-0.026 0.01,-0.052 0.01,-0.079 z"
       id="path235"
       inkscape:connector-curvature="0" />
    <path
       d="m 36.7773,18.988 c -0.102,0 -0.2151,-0.032 -0.2705,-0.1237 -0.057,-0.094 -0.061,-0.2133 -0.03,-0.3165 0.039,-0.1156 0.1547,-0.1857 0.2706,-0.2034 0.1335,-0.024 0.2694,-0.016 0.4043,-0.021 0,-0.086 0.01,-0.1861 -0.063,-0.2499 -0.074,-0.059 -0.1774,-0.053 -0.2655,-0.038 -0.074,0.011 -0.1288,0.079 -0.1336,0.1521 -0.01,0.013 -0.038,-6e-4 -0.055,0 -0.043,-0 -0.087,-0.01 -0.1297,-0.012 0.013,-0.1013 0.075,-0.1983 0.1712,-0.2388 0.1179,-0.052 0.2524,-0.055 0.378,-0.036 0.1113,0.017 0.2179,0.09 0.253,0.2006 0.033,0.097 0.019,0.2 0.022,0.3003 0,0.1147 -0,0.2295 0,0.344 0,0.052 0.028,0.1158 0.09,0.112 0.029,0 0.077,-0.024 0.065,0.023 0,0.027 0,0.053 0,0.079 -0.078,0.016 -0.1636,0.029 -0.2384,-0 -0.069,-0.036 -0.086,-0.1205 -0.09,-0.1916 -0.027,0.024 -0.044,0.069 -0.073,0.097 -0.074,0.091 -0.194,0.1265 -0.3073,0.1247 z m 0.04,-0.1318 c 0.1419,0.01 0.2777,-0.093 0.3183,-0.228 0.021,-0.058 0.015,-0.1206 0.016,-0.1812 -0.1167,0 -0.2349,-0 -0.3501,0.02 -0.078,0.016 -0.1504,0.077 -0.159,0.1597 -0.013,0.077 0,0.1755 0.083,0.211 0.029,0.014 0.061,0.018 0.092,0.018 z"
       id="path237"
       inkscape:connector-curvature="0" />
    <path
       d="m 38.2881,18.7985 c -0.042,0.099 -0.1378,0.171 -0.2453,0.1832 -0.1328,0.021 -0.2893,-0 -0.3727,-0.1203 -0.094,-0.135 -0.1018,-0.3079 -0.099,-0.4671 0.01,-0.1508 0.032,-0.3191 0.151,-0.4244 0.1079,-0.091 0.2655,-0.094 0.3945,-0.053 0.078,0.025 0.1358,0.091 0.1734,0.1588 -0,-0.1855 -0,-0.3711 -0,-0.5566 0.059,0 0.1172,0 0.1758,0 3e-4,0.4406 -7e-4,0.8812 5e-4,1.3218 -0.01,0.038 0.027,0.1192 -0.012,0.1274 -0.05,0 -0.1005,0 -0.1508,0 -0.011,-0.055 -0,-0.121 -0.014,-0.1699 M 37.7548,18.439 c 0,0.115 0,0.2427 0.074,0.3397 0.069,0.085 0.1951,0.087 0.2907,0.053 0.1058,-0.039 0.1469,-0.1585 0.1601,-0.261 0.014,-0.137 0.019,-0.2826 -0.036,-0.4118 -0.034,-0.085 -0.1231,-0.1349 -0.2122,-0.1368 -0.086,-0.01 -0.1827,0.024 -0.2221,0.1069 -0.049,0.095 -0.052,0.2052 -0.054,0.3094"
       id="path239"
       inkscape:connector-curvature="0" />
    <path
       d="m38.7334,17.6872 0-.168 .1758,0 0,.168-.1758,0m0,1.2812 0-1.0566 .1758,0 0,1.0566-.1758,0"
       id="path241" />
    <path
       d="m 40.0732,18.4391 c -3e-4,0.1513 -0.026,0.3182 -0.1378,0.4295 -0.1136,0.1124 -0.2855,0.1332 -0.4371,0.112 -0.1225,-0.016 -0.2387,-0.088 -0.2963,-0.1991 -0.076,-0.1405 -0.081,-0.3074 -0.067,-0.4632 0.014,-0.1395 0.071,-0.2873 0.1975,-0.3616 0.1207,-0.071 0.2689,-0.075 0.4037,-0.053 0.1162,0.02 0.2243,0.093 0.2743,0.2015 0.05,0.1029 0.062,0.2203 0.062,0.3333 m -0.1846,0 c -0,-0.1152 -0.01,-0.2416 -0.08,-0.3369 -0.063,-0.079 -0.1749,-0.088 -0.2676,-0.075 -0.078,0.01 -0.1476,0.06 -0.1797,0.1318 -0.053,0.1162 -0.051,0.2481 -0.045,0.3731 0.01,0.1054 0.036,0.2247 0.1291,0.2878 0.083,0.049 0.1884,0.047 0.2775,0.017 0.1,-0.039 0.1417,-0.1503 0.1554,-0.2485 0.01,-0.049 0.01,-0.099 0.01,-0.1494"
       id="path243"
       inkscape:connector-curvature="0" />
  </g>
  <g
     color="#000"
     id="g245">
    <path
       fill="url(#linearGradient4618)"
       d="m38,65a7,7 0 1,1 -14,0 7,7 0 1,1 14,0z"
       transform="matrix(0 .71429 .71429 0 18.57143 42.85714)"
       id="path247" />
    <path
       opacity=".6"
       fill="url(#linearGradient4629)"
       d="m65,70c-2.7614,0-5-2.2386-5-5 0-2.7614 2.2386-5 5-5 2.7614,0 5,2.2386 5,5 0,2.7614-2.2386,5-5,5zm0-1c2.2091,0 4-1.7909 4-4 0-2.2091-1.7909-4-4-4-2.2091,0-4,1.7909-4,4 0,2.2091 1.7909,4 4,4z"
       id="path249" />
  </g>
</svg>
