<?xml version="1.0" encoding="UTF-8" standalone="no"?>
<!-- Created with Inkscape (http://www.inkscape.org/) -->

<svg
   xmlns:dc="http://purl.org/dc/elements/1.1/"
   xmlns:cc="http://creativecommons.org/ns#"
   xmlns:rdf="http://www.w3.org/1999/02/22-rdf-syntax-ns#"
   xmlns:svg="http://www.w3.org/2000/svg"
   xmlns="http://www.w3.org/2000/svg"
   xmlns:xlink="http://www.w3.org/1999/xlink"
   xmlns:sodipodi="http://sodipodi.sourceforge.net/DTD/sodipodi-0.dtd"
   xmlns:inkscape="http://www.inkscape.org/namespaces/inkscape"
   version="1.0"
   width="96"
   height="96"
   id="svg2408"
   style="display:inline"
   inkscape:version="0.91 r"
   sodipodi:docname="libreoffice-main.svg">
  <title
     id="title127">libreoffice-main</title>
  <sodipodi:namedview
     pagecolor="#ffffff"
     bordercolor="#666666"
     borderopacity="1"
     objecttolerance="10"
     gridtolerance="10"
     guidetolerance="10"
     inkscape:pageopacity="0"
     inkscape:pageshadow="2"
     inkscape:window-width="1280"
     inkscape:window-height="965"
     id="namedview87"
     showgrid="false"
     inkscape:zoom="2.82843"
     inkscape:cx="19.0801"
     inkscape:cy="70.0501"
     inkscape:window-x="0"
     inkscape:window-y="27"
     inkscape:window-maximized="1"
     inkscape:current-layer="svg2408" />
  <defs
     id="defs2410">
    <linearGradient
       id="linearGradient3914">
      <stop
         id="stop3916"
         style="stop-color:#000000;stop-opacity:1"
         offset="0" />
      <stop
         id="stop3918"
         style="stop-color:#000000;stop-opacity:0"
         offset="1" />
    </linearGradient>
    <linearGradient
       id="linearGradient3873">
      <stop
         id="stop3875"
         style="stop-color:#dfdfdf;stop-opacity:1"
         offset="0" />
      <stop
         id="stop3877"
         style="stop-color:#fefefe;stop-opacity:1"
         offset="1" />
    </linearGradient>
    <linearGradient
       id="linearGradient3856">
      <stop
         id="stop3858"
         style="stop-color:#b3b3b3;stop-opacity:1"
         offset="0" />
      <stop
         id="stop3860"
         style="stop-color:#e6e6e6;stop-opacity:1"
         offset="1" />
    </linearGradient>
    <linearGradient
       x1="45.447727"
       y1="92.539597"
       x2="45.447727"
       y2="7.0165396"
       id="ButtonShadow"
       gradientUnits="userSpaceOnUse"
       gradientTransform="scale(1.0058652,0.994169)">
      <stop
         id="stop3750"
         style="stop-color:#000000;stop-opacity:1"
         offset="0" />
      <stop
         id="stop3752"
         style="stop-color:#000000;stop-opacity:0.58823532"
         offset="1" />
    </linearGradient>
    <linearGradient
       id="linearGradient3737">
      <stop
         id="stop3739"
         style="stop-color:#ffffff;stop-opacity:1"
         offset="0" />
      <stop
         id="stop3741"
         style="stop-color:#ffffff;stop-opacity:0"
         offset="1" />
    </linearGradient>
    <linearGradient
       id="linearGradient3700">
      <stop
         id="stop3702"
         style="stop-color:#2276c5;stop-opacity:1"
         offset="0" />
      <stop
         id="stop3704"
         style="stop-color:#68baf4;stop-opacity:1"
         offset="1" />
    </linearGradient>
    <filter
       color-interpolation-filters="sRGB"
       id="filter3174">
      <feGaussianBlur
         id="feGaussianBlur3176"
         stdDeviation="1.71" />
    </filter>
    <filter
       x="-0.192"
       y="-0.192"
       width="1.3839999"
       height="1.3839999"
       color-interpolation-filters="sRGB"
       id="filter3794">
      <feGaussianBlur
         id="feGaussianBlur3796"
         stdDeviation="5.28" />
    </filter>
    <linearGradient
       x1="48"
       y1="20.220806"
       x2="48"
       y2="138.66119"
       id="linearGradient3613"
       xlink:href="#linearGradient3737"
       gradientUnits="userSpaceOnUse" />
    <clipPath
       id="clipPath3613">
      <rect
         width="84"
         height="84"
         rx="6"
         ry="6"
         x="6"
         y="6"
         id="rect3615"
         style="fill:#ffffff;fill-opacity:1;fill-rule:nonzero;stroke:none" />
    </clipPath>
    <linearGradient
       x1="45.447727"
       y1="92.539597"
       x2="45.447727"
       y2="7.0165396"
       id="ButtonShadow-0"
       gradientUnits="userSpaceOnUse"
       gradientTransform="matrix(1.0058652,0,0,0.994169,100,0)">
      <stop
         id="stop3750-8"
         style="stop-color:#000000;stop-opacity:1"
         offset="0" />
      <stop
         id="stop3752-5"
         style="stop-color:#000000;stop-opacity:0.58823532"
         offset="1" />
    </linearGradient>
    <linearGradient
       x1="48"
       y1="90"
       x2="48"
       y2="5.9877172"
       id="linearGradient3047"
       xlink:href="#linearGradient3700"
       gradientUnits="userSpaceOnUse"
       gradientTransform="translate(100,0)" />
    <radialGradient
       cx="48"
       cy="90.171875"
       r="42"
       fx="48"
       fy="90.171875"
       id="radialGradient3879"
       xlink:href="#linearGradient3737"
       gradientUnits="userSpaceOnUse"
       gradientTransform="matrix(1.15731,0,0,0.995908,-7.55102,0.197132)" />
    <linearGradient
       x1="36.357143"
       y1="6"
       x2="36.357143"
       y2="63.893143"
       id="linearGradient3885"
       xlink:href="#linearGradient3737"
       gradientUnits="userSpaceOnUse" />
    <linearGradient
       x1="32"
       y1="26"
       x2="32"
       y2="84"
       id="linearGradient3901"
       xlink:href="#linearGradient3737"
       gradientUnits="userSpaceOnUse"
       gradientTransform="translate(0,-20)" />
    <linearGradient
       x1="48"
       y1="80"
       x2="48"
       y2="16"
       id="linearGradient3879"
       xlink:href="#linearGradient3873"
       gradientUnits="userSpaceOnUse" />
    <radialGradient
       cx="47.999981"
       cy="47.999424"
       r="34.937546"
       fx="47.999981"
       fy="47.999424"
       id="radialGradient3920"
       xlink:href="#linearGradient3914"
       gradientUnits="userSpaceOnUse"
       gradientTransform="matrix(1.3452582,-3.8835319e-8,3.3050848e-8,1.1448837,-16.572388,-6.9543292)" />
    <linearGradient
       x1="49"
       y1="91"
       x2="49"
       y2="7"
       id="linearGradient3920"
       xlink:href="#ButtonShadow-0"
       gradientUnits="userSpaceOnUse" />
    <linearGradient
       x1="38"
       y1="94"
       x2="38"
       y2="5"
       id="linearGradient3927"
       xlink:href="#ButtonShadow-0"
       gradientUnits="userSpaceOnUse" />
    <linearGradient
       x1="45"
       y1="95"
       x2="45"
       y2="4"
       id="linearGradient3929"
       xlink:href="#ButtonShadow-0"
       gradientUnits="userSpaceOnUse" />
    <linearGradient
       x1="50"
       y1="92"
       x2="50"
       y2="7"
       id="linearGradient3933"
       xlink:href="#ButtonShadow-0"
       gradientUnits="userSpaceOnUse" />
    <linearGradient
       x1="47"
       y1="93"
       x2="47"
       y2="6"
       id="linearGradient3940"
       xlink:href="#ButtonShadow-0"
       gradientUnits="userSpaceOnUse" />
    <linearGradient
       x1="32"
       y1="88"
       x2="32"
       y2="8"
       id="linearGradient3949"
       xlink:href="#linearGradient3856"
       gradientUnits="userSpaceOnUse" />
    <linearGradient
       id="linearGradient10292">
      <stop
         id="stop10294"
         style="stop-color:#666666;stop-opacity:1"
         offset="0" />
      <stop
         id="stop10296"
         style="stop-color:#333333;stop-opacity:1"
         offset="1" />
    </linearGradient>
    <linearGradient
       x1="39"
       y1="6"
       x2="39"
       y2="90"
       id="linearGradient4240"
       xlink:href="#linearGradient10292"
       gradientUnits="userSpaceOnUse" />
    <linearGradient
       x1="121.30617"
       y1="976.37823"
       x2="121.30617"
       y2="992.4245"
       id="linearGradient4320"
       xlink:href="#linearGradient10292"
       gradientUnits="userSpaceOnUse"
       gradientTransform="matrix(4.4806049,0,0,4.4787412,-651.59679,-4376.6526)" />
  </defs>
  <metadata
     id="metadata2413">
    <rdf:RDF>
      <cc:Work
         rdf:about="">
        <dc:format>image/svg+xml</dc:format>
        <dc:type
           rdf:resource="http://purl.org/dc/dcmitype/StillImage" />
        <dc:title>libreoffice-main</dc:title>
        <dc:subject>
          <rdf:Bag>
            <rdf:li>libreoffice-main</rdf:li>
            <rdf:li>office</rdf:li>
          </rdf:Bag>
        </dc:subject>
        <dc:description>libreoffice-main, office</dc:description>
      </cc:Work>
    </rdf:RDF>
  </metadata>
  <g
     id="layer2"
     style="display:none">
    <rect
       width="86"
       height="85"
       rx="6"
       ry="6"
       x="5"
       y="7"
       id="rect3745"
       style="opacity:0.9;fill:url(#ButtonShadow);fill-opacity:1;fill-rule:nonzero;stroke:none;filter:url(#filter3174)" />
  </g>
  <g
     id="layer3"
     style="display:inline">
    <path
       d="M 55.1875,4.03125 C 40.4541,4.21081 24.581,4.09375 11.6875,4.09375 8.27166,4.10756 5.47301,6.16236 3.78125,8.84375 2.61096,10.6986 1.85918,12.9424 2.125,15.2812 l -0.0312,0 c 0.0207,23.5444 -0.0416,47.0763 0.0312,70.6251 0.36594,1.5366 0.70507,3.2406 1.62475,4.3732 2.28973,2.8198 5.35978,4.946 9.03125,4.625 l 0.094,0 c 24.0039,-0.021 48.023,0.041 72.0313,-0.031 0.021,8e-4 0.042,8e-4 0.062,0 5.2327,-0.4244 9.3637,-5.3489 8.9375,-10.625 0,-14.6355 0,-29.271 0,-43.9065 -0.01,-0.086 -0.029,-0.1703 -0.062,-0.25 -0.9251,-2.4702 -2.5932,-4.4414 -4.2188,-6 2.2179,-0.09 4.3455,-1.8787 4.25,-4.3125 0,-0.025 0.033,-0.038 0.031,-0.062 -0.076,-5.674 0.1624,-11.4145 -0.125,-17.1563 -0.01,-0.021 -0.02,-0.042 -0.031,-0.062 C 93.0709,7.15066 87.742,3.44486 82.4688,4.125 l 0,-0.0312 -14.875,0 c -0.011,-1.9e-4 -0.021,-1.9e-4 -0.031,0 -2.4316,0.0949 -3.934,2.36719 -3.875,4.5625 C 62.3916,7.38628 61.1406,6.13422 60,5.0625 58.4476,4.17179 56.7686,4.01857 55.1875,4.03125 Z"
       id="path3911"
       style="display:inline;opacity:0.08;fill:url(#linearGradient3929);fill-opacity:1;fill-rule:nonzero;stroke:none"
       inkscape:connector-curvature="0"
       sodipodi:nodetypes="ccscccsccccccccscccccccccc" />
    <path
       d="M 11.6875,4.96875 C 6.43207,4.99 2.4048,10.5902 2.96875,15.2666 2.98947,38.813 2.92717,62.3608 3,85.9063 c 0.42997,4.8251 5.00259,8.5944 9.7946,8.125 24.037,-0.021 48.0755,0.041 72.1117,-0.031 4.7551,-0.3856 8.5631,-4.9469 8.125,-9.76 l 0,-43.8962 C 91.728,36.0404 87.2024,33.7039 84.4403,30.3191 76.1382,22.1677 67.9524,13.888 59.5668,5.82794 57.3187,4.52973 54.3733,4.97816 50.6355,4.96875 Z m 55.9063,0 c -2.7592,0.10765 -4.216,3.91814 -2.2188,5.81245 7.4288,7.2845 14.7592,14.7093 22.25,21.9063 2.147,1.6008 5.5605,-0.2202 5.4063,-2.9062 -0.079,-5.7262 0.1608,-11.4778 -0.125,-17.1876 C 92.2885,7.72749 87.3132,4.28071 82.48,4.96875 Z"
       inkscape:connector-curvature="0"
       id="path3904"
       style="display:inline;opacity:0.1;fill:url(#linearGradient3927);fill-opacity:1;fill-rule:nonzero;stroke:none"
       sodipodi:nodetypes="cccccccccccccccccc" />
    <path
       d="m 11.7187,6.03125 c -4.67488,0.016 -8.33586,4.64955 -7.68745,9.20535 0.0208,23.5251 -0.0416,47.0518 0.0312,70.5759 0.0787,2.311 1.99913,4.959 3.5,5.8125 3.32515,2.2003 7.49945,1.0599 11.24465,1.3438 22.0016,-0.021 44.0048,0.041 66.0054,-0.031 4.4715,-0.3282 7.7292,-4.8028 7.1563,-9.1741 l 0,-43.2946 C 90.5354,36.5138 86.3093,34.2772 83.6909,31.0697 75.4397,22.9547 67.278,14.7407 58.9601,6.69849 58.2767,5.91372 55.3096,6.0425 50.8482,6.03125 Z m 55.9688,0 c -2.2052,0.10754 -2.9663,3.27281 -1.117,4.44145 7.2399,7.0966 14.3733,14.3261 21.6795,21.3398 1.8365,1.3232 4.2485,-0.7137 3.7188,-2.7732 C 91.8747,23.4979 92.1635,17.9299 91.8125,12.4062 91.0782,8.16663 86.6663,5.46169 82.5161,6.03125 Z"
       inkscape:connector-curvature="0"
       id="path3899"
       style="display:inline;opacity:0.2;fill:url(#linearGradient3940);fill-opacity:1;fill-rule:nonzero;stroke:none"
       sodipodi:nodetypes="ccccccccccccccccccc" />
    <path
       d="M 11.75,7 C 7.58302,7.03453 4.39965,11.169 5,15.2092 5.0208,38.7122 4.9583,62.2169 5.03125,85.7188 5.33646,89.6964 9.33277,92.5341 13.201,92 37.0401,91.9792 60.8809,92.0416 84.7188,91.9688 88.7136,91.6694 91.529,87.653 91,83.7908 L 91,40.5625 C 89.387,36.9673 85.5122,34.7835 83.004,31.7578 74.7995,23.6764 66.6605,15.5223 58.4042,7.4975 56.104,6.51211 53.4459,7.2093 50.9853,7 Z M 67.7813,7 C 66.1972,7.12187 66.1939,8.91509 67.4222,9.94753 74.5867,16.9718 81.6475,24.1228 88.8765,31.0682 90.2752,31.8154 91.4198,30.1297 91,28.8451 90.9052,23.4314 91.1961,17.9873 90.8438,12.5937 90.2111,8.79869 86.2235,6.47877 82.549,7 Z"
       inkscape:connector-curvature="0"
       id="path3883"
       style="display:inline;opacity:0.3;fill:url(#linearGradient3933);fill-opacity:1;fill-rule:nonzero;stroke:none"
       sodipodi:nodetypes="cccccccccccccccccc" />
    <path
       d="m 12,7 c -3.324,0 -6,2.676 -6,6 0,24 0,48 0,72 0,3.324 2.676,6 6,6 l 7,0 65,0 c 3.324,0 6,-2.676 6,-6 0,-15.5783 0,-31.485 0,-44.8437 -0.066,-0.6334 -0.3586,-1.2408 -0.8125,-1.6875 C 79.652,28.9 68.0834,17.3646 58.5313,7.8125 58.0767,7.35229 57.4566,7.05915 56.8125,7 L 12.7187,7 Z m 55.3125,0 c -1.1849,0.12351 -1.692,1.56981 -0.8437,2.40625 L 87.5938,30.5313 C 88.4512,31.3924 89.9237,30.8379 90,29.625 90.0001,23.9455 90,18.0781 90,13 90,9.676 87.324,7 84,7 Z"
       inkscape:connector-curvature="0"
       id="path3873"
       style="display:inline;opacity:0.45;fill:url(#linearGradient3920);fill-opacity:1;fill-rule:nonzero;stroke:none"
       sodipodi:nodetypes="sccscsccccccscccccsc" />
  </g>
  <g
     id="layer1"
     style="display:inline">
    <path
       d="M 12,6 C 8.676,6 6,8.676 6,12 l 0,11 0,50 0,11 c 0,3.324 2.676,6 6,6 l 7,0 65,0 c 3.324,0 6,-2.676 6,-6 L 90,83.2813 90,73 90,39.4375 c 0,-0.094 0,-0.1876 0,-0.2812 -0.066,-0.6334 -0.3586,-1.2408 -0.8125,-1.6875 C 79.652,27.9 68.0834,16.3646 58.5313,6.8125 58.0767,6.35229 57.4566,6.05915 56.8125,6 L 12.7187,6 Z m 55.3125,0 c -1.1849,0.12351 -1.692,1.56981 -0.8437,2.40625 L 87.5938,29.5313 C 88.4512,30.3924 89.9237,29.8379 90,28.625 90.0001,22.6345 90,17.4358 90,12 90,8.676 87.324,6 84,6 Z"
       inkscape:connector-curvature="0"
       id="path3054"
       style="fill:url(#linearGradient4240);fill-opacity:1;fill-rule:nonzero;stroke:none"
       sodipodi:nodetypes="ssccsscssccccccccscccccsc" />
    <path
       style="opacity:0.15;fill:url(#radialGradient3879);fill-opacity:1;fill-rule:nonzero;stroke:none"
       d="M 10.1562,6.34375 C 6.76691,7.26351 5.62374,10.8878 6,14 6.02058,37.5381 5.95884,61.0783 6.03086,84.6152 6.2839,88.3905 9.15805,89.7115 13.6598,90 37.3113,89.9794 60.9649,90.0411 84.6152,89.9691 88.2701,89.7218 90.4927,85.9798 90,82.5699 89.9716,67.3419 90.0568,52.105 89.9575,36.8824 89.0791,34.171 88.793,36.2318 89,37.8894 88.983,53.0976 89.034,68.3075 88.974,83.5146 88.7625,86.8151 86.0842,88.2131 82.3398,88 58.7218,87.983 35.102,88.034 11.485,87.974 8.18492,87.7629 6.53688,84.3034 7,81.3402 7.02348,57.714 6.95306,34.0846 7.03517,10.4602 7.2269,8.64438 8.46146,7.01884 10.1562,6.34375 Z"
       id="path3615"
       inkscape:connector-curvature="0"
       sodipodi:nodetypes="cccccccccccccc" />
    <rect
       width="84"
       height="84"
       rx="6"
       ry="6"
       x="106"
       y="6"
       id="rect3045"
       style="fill:url(#linearGradient3047);fill-opacity:1;fill-rule:nonzero;stroke:none" />
    <path
       d="m 114,6 26,26 0,4 -30,-30 z"
       inkscape:connector-curvature="0"
       id="path3049"
       style="fill:#ff00ff;stroke:none" />
    <path
       d="m 67.3125,6 a 1.4099078,1.4099078 0 0 0 -1.125,2 L 82,8 84,8 c 2.781848,0 5,2.218152 5,5 l 0,2 0,14.875 a 1.4099078,1.4099078 0 0 0 1,-1.125 1.4099078,1.4099078 0 0 0 0,-0.125 1.4099078,1.4099078 0 0 0 0,-0.09375 L 90,16 90,14 90,12.28125 90,12 C 90,8.676 87.324,6 84,6 L 67.3125,6 z"
       inkscape:connector-curvature="0"
       id="path3881"
       style="opacity:0.2;fill:url(#linearGradient3885);fill-opacity:1;fill-rule:nonzero;stroke:none" />
    <path
       d="M 12,6 C 8.676,6 6,8.676 6,12 l 0,72 c 0,2.9085 2.04223,5.3174 4.7812,5.875 C 8.57613,89.3388 6.96875,87.3842 6.96875,85 l 0,-72 c 0,-2.8049 2.22636,-5.03125 5.03125,-5.03125 14.9063,0 29.8125,0 44.7188,0 0.5737,0.0361 0.8312,0.23567 1.1248,0.531 9.5687,9.53555 21.1041,21.10405 30.6562,30.65635 0.6129,0.5764 0.5107,0.953 0.531,1.2806 l 0,44.5625 c 0,2.3842 -1.6074,4.3388 -3.8125,4.875 C 87.9578,89.3174 90,86.9085 90,84 L 90,39.1563 C 89.9338,38.5229 89.6414,37.9155 89.1875,37.4688 79.652,27.9 68.0834,16.3646 58.5313,6.8125 58.0767,6.35229 57.4566,6.05915 56.8125,6 41.875,6 26.9375,6 12,6 Z"
       inkscape:connector-curvature="0"
       id="path3888"
       style="opacity:0.2;fill:url(#linearGradient3901);fill-opacity:1;fill-rule:nonzero;stroke:none"
       sodipodi:nodetypes="ccccccccccccccccccc" />
    <path
       d="m -152.02625,-3.741835 c -1.15757,0 -2.22285,1.023711 -2.22285,2.266604 l 0,67.201748 c 0,1.08285 1.01251,2.22285 2.17034,2.22285 l 53.7684,0 c 1.29579,0 2.31036,-1.08534 2.31036,-2.17034 L -96,24 c 0,-1.182972 -0.1434,-1.736346 -0.98015,-2.572902 l -23.89999,-23.882482 c -0.83684,-0.836446 -1.47695,-1.268027 -2.66041,-1.268948 l -28.4857,-0.0175 z m 38.88232,0.0087 c -1.91483,0 -2.00143,1.993315 -0.9889,3.01047 L -99.238,14.242173 C -98.023,15.46268 -96,15.169532 -96,13.244531 l 0,-14.684794 c 0,-1.183644 -1.07142,-2.292858 -2.2491,-2.292858 l -14.89483,0 z"
       inkscape:connector-curvature="0"
       id="path6862"
       style="font-size:medium;font-style:normal;font-variant:normal;font-weight:normal;font-stretch:normal;text-indent:0pt;text-align:start;text-decoration:none;line-height:normal;letter-spacing:normal;word-spacing:normal;text-transform:none;direction:ltr;text-anchor:start;color:#000000;fill:url(#linearGradient4320);fill-opacity:1;stroke:none;stroke-width:2;marker:none;visibility:visible;display:inline;overflow:visible;font-family:Andale Mono" />
  </g>
  <g
     id="layer6"
     style="display:inline">
    <path
       d="m 14,12.03125 c -1.155927,0 -1.96875,0.812823 -1.96875,1.96875 l 0,9 0,33 0,17 0,8.28125 0,0.71875 c 0,1.077732 0.717552,1.836973 1.75,1.9375 0.07491,0.0073 0.140555,0.03125 0.21875,0.03125 l 5,0 58,0 5,0 c 0.07224,0 0.1493,-0.0086 0.21875,-0.03125 1.032448,-0.100527 1.75,-0.859768 1.75,-1.9375 l 0,-0.71875 0,-8.28125 0,-17 0,-16.0625 C 74.652678,30.64918 65.364507,21.333257 56.0625,12.03125 l -41.34375,0 -0.71875,0 z"
       inkscape:connector-curvature="0"
       id="path3846"
       style="fill:url(#linearGradient3949);fill-opacity:1;fill-rule:nonzero;stroke:none;display:inline" />
    <path
       d="M 17.90625,17.0625 C 17.446299,17.10552 17.057,17.538075 17.0625,18 l 0,9 0,42 0,9 c -0.0037,0.491884 0.445616,0.941233 0.9375,0.9375 l 5,0 55,0 C 78.491884,78.9412 78.941233,78.491884 78.9375,78 l 0,-9 0,-27.40625 C 78.9348,41.349509 78.83124,41.10791 78.65625,40.9375 L 55.0625,17.34375 C 54.89209,17.16876 54.650491,17.065218 54.40625,17.0625 L 18,17.0625 c -0.03122,-0.0016 -0.06253,-0.0016 -0.09375,0 z"
       inkscape:connector-curvature="0"
       id="path3910"
       style="opacity:0.6;fill:url(#radialGradient3920);fill-opacity:1;fill-rule:nonzero;stroke:none;display:inline" />
    <path
       d="m 18,18 0,9 0,42 0,9 5,0 55,0 0,-9 L 78,41.59375 54.40625,18 z"
       inkscape:connector-curvature="0"
       id="path3868"
       style="fill:url(#linearGradient3879);fill-opacity:1;fill-rule:nonzero;stroke:none;display:inline" />
    <path
       d="m 18,18 0,9 0,42 0,9 5,0 55,0 0,-9 L 78,41.59375 54.40625,18 z m 1,1 35.03125,0 L 77,41.96875 77,69 l 0,8 -54,0 -4,0 0,-8 0,-42 z"
       inkscape:connector-curvature="0"
       id="path3882"
       style="opacity:0.7;fill:#ffffff;fill-opacity:1;fill-rule:nonzero;stroke:none;display:inline" />
    <path
       d="m 14,12.03125 c -1.155927,0 -1.96875,0.812823 -1.96875,1.96875 l 0,9 0,33 0,17 0,8.28125 0,0.71875 c 0,1.077732 0.717552,1.836973 1.75,1.9375 0.07491,0.0073 0.140555,0.03125 0.21875,0.03125 l 5,0 58,0 5,0 c 0.07224,0 0.1493,-0.0086 0.21875,-0.03125 1.032448,-0.100527 1.75,-0.859768 1.75,-1.9375 l 0,-0.71875 0,-8.28125 0,-17 0,-16.0625 C 74.652678,30.64918 65.364507,21.333257 56.0625,12.03125 l -41.34375,0 -0.71875,0 z M 14,13 l 0.71875,0 40.9375,0 C 64.769843,22.114133 73.870942,31.240801 83,40.34375 L 83,56 83,73 83,81.28125 83,82 c 0,0.648416 -0.267049,0.909555 -0.875,0.96875 A 0.96731774,0.96731774 0 0 0 82,83 l -5,0 -58,0 -5,0 c 0.119302,0 0.09888,-0.0094 -0.125,-0.03125 C 13.267049,82.909555 13,82.648416 13,82 L 13,81.28125 13,73 13,56 13,23 13,14 c 0,-0.702508 0.297492,-1 1,-1 z"
       inkscape:connector-curvature="0"
       id="path3952"
       style="opacity:0.1;fill:#000000;fill-opacity:1;fill-rule:nonzero;stroke:none;display:inline" />
    <path
       d="m 14,12.03125 c -1.155927,0 -1.96875,0.812823 -1.96875,1.96875 l 0,1 c 0,-1.155927 0.812823,-1.96875 1.96875,-1.96875 l 0.71875,0 41.34375,0 c 9.302007,9.302007 18.590178,18.61793 27.90625,27.90625 l 0,-1 C 74.652678,30.64918 65.364507,21.333257 56.0625,12.03125 l -41.34375,0 -0.71875,0 z"
       inkscape:connector-curvature="0"
       id="path3851"
       style="opacity:0.2;fill:#000000;fill-opacity:1;fill-rule:nonzero;stroke:none;display:inline" />
    <path
       d="m 14,12.03125 c -1.155927,0 -1.96875,0.812823 -1.96875,1.96875 l 0,9 0,33 0,17 0,8.28125 0,0.71875 c 0,1.077732 0.717552,1.836973 1.75,1.9375 0.07491,0.0073 0.140555,0.03125 0.21875,0.03125 l 5,0 58,0 5,0 c 0.07224,0 0.1493,-0.0086 0.21875,-0.03125 1.032448,-0.100527 1.75,-0.859768 1.75,-1.9375 l 0,-0.71875 0,-8.28125 0,-17 0,-16.0625 C 74.652678,30.64918 65.364507,21.333257 56.0625,12.03125 l -41.34375,0 -0.71875,0 z"
       inkscape:connector-curvature="0"
       id="path3982"
       style="fill:url(#linearGradient3949);fill-opacity:1;fill-rule:nonzero;stroke:none;display:inline" />
    <path
       d="M 17.90625,17.0625 C 17.446299,17.10552 17.057,17.538075 17.0625,18 l 0,9 0,42 0,9 c -0.0037,0.491884 0.445616,0.941233 0.9375,0.9375 l 5,0 55,0 C 78.491884,78.9412 78.941233,78.491884 78.9375,78 l 0,-9 0,-27.40625 C 78.9348,41.349509 78.83124,41.10791 78.65625,40.9375 L 55.0625,17.34375 C 54.89209,17.16876 54.650491,17.065218 54.40625,17.0625 L 18,17.0625 c -0.03122,-0.0016 -0.06253,-0.0016 -0.09375,0 z"
       inkscape:connector-curvature="0"
       id="path3984"
       style="opacity:0.6;fill:url(#radialGradient3920);fill-opacity:1;fill-rule:nonzero;stroke:none;display:inline" />
    <path
       d="m 18,18 0,9 0,42 0,9 5,0 55,0 0,-9 L 78,41.59375 54.40625,18 z"
       inkscape:connector-curvature="0"
       id="path3986"
       style="fill:url(#linearGradient3879);fill-opacity:1;fill-rule:nonzero;stroke:none;display:inline" />
    <path
       d="m 18,18 0,9 0,42 0,9 5,0 55,0 0,-9 L 78,41.59375 54.40625,18 z m 1,1 35.03125,0 L 77,41.96875 77,69 l 0,8 -54,0 -4,0 0,-8 0,-42 z"
       inkscape:connector-curvature="0"
       id="path3988"
       style="opacity:0.7;fill:#ffffff;fill-opacity:1;fill-rule:nonzero;stroke:none;display:inline" />
    <path
       d="m 14,12.03125 c -1.155927,0 -1.96875,0.812823 -1.96875,1.96875 l 0,9 0,33 0,17 0,8.28125 0,0.71875 c 0,1.077732 0.717552,1.836973 1.75,1.9375 0.07491,0.0073 0.140555,0.03125 0.21875,0.03125 l 5,0 58,0 5,0 c 0.07224,0 0.1493,-0.0086 0.21875,-0.03125 1.032448,-0.100527 1.75,-0.859768 1.75,-1.9375 l 0,-0.71875 0,-8.28125 0,-17 0,-16.0625 C 74.652678,30.64918 65.364507,21.333257 56.0625,12.03125 l -41.34375,0 -0.71875,0 z M 14,13 l 0.71875,0 40.9375,0 C 64.769843,22.114133 73.870942,31.240801 83,40.34375 L 83,56 83,73 83,81.28125 83,82 c 0,0.648416 -0.267049,0.909555 -0.875,0.96875 A 0.96731774,0.96731774 0 0 0 82,83 l -5,0 -58,0 -5,0 c 0.119302,0 0.09888,-0.0094 -0.125,-0.03125 C 13.267049,82.909555 13,82.648416 13,82 L 13,81.28125 13,73 13,56 13,23 13,14 c 0,-0.702508 0.297492,-1 1,-1 z"
       inkscape:connector-curvature="0"
       id="path3990"
       style="opacity:0.1;fill:#000000;fill-opacity:1;fill-rule:nonzero;stroke:none;display:inline" />
    <path
       d="m 14,12.03125 c -1.155927,0 -1.96875,0.812823 -1.96875,1.96875 l 0,1 c 0,-1.155927 0.812823,-1.96875 1.96875,-1.96875 l 0.71875,0 41.34375,0 c 9.302007,9.302007 18.590178,18.61793 27.90625,27.90625 l 0,-1 C 74.652678,30.64918 65.364507,21.333257 56.0625,12.03125 l -41.34375,0 -0.71875,0 z"
       inkscape:connector-curvature="0"
       id="path3992"
       style="opacity:0.2;fill:#000000;fill-opacity:1;fill-rule:nonzero;stroke:none;display:inline" />
    <path
       d="m 14,12.03125 c -1.155927,0 -1.96875,0.812823 -1.96875,1.96875 l 0,9 0,33 0,17 0,8.28125 0,0.71875 c 0,1.077732 0.717552,1.836973 1.75,1.9375 0.07491,0.0073 0.140555,0.03125 0.21875,0.03125 l 5,0 58,0 5,0 c 0.07224,0 0.1493,-0.0086 0.21875,-0.03125 1.032448,-0.100527 1.75,-0.859768 1.75,-1.9375 l 0,-0.71875 0,-8.28125 0,-17 0,-16.0625 C 74.652678,30.64918 65.364507,21.333257 56.0625,12.03125 l -41.34375,0 -0.71875,0 z"
       inkscape:connector-curvature="0"
       id="path3994"
       style="fill:url(#linearGradient3949);fill-opacity:1;fill-rule:nonzero;stroke:none;display:inline" />
    <path
       d="M 17.90625,17.0625 C 17.446299,17.10552 17.057,17.538075 17.0625,18 l 0,9 0,42 0,9 c -0.0037,0.491884 0.445616,0.941233 0.9375,0.9375 l 5,0 55,0 C 78.491884,78.9412 78.941233,78.491884 78.9375,78 l 0,-9 0,-27.40625 C 78.9348,41.349509 78.83124,41.10791 78.65625,40.9375 L 55.0625,17.34375 C 54.89209,17.16876 54.650491,17.065218 54.40625,17.0625 L 18,17.0625 c -0.03122,-0.0016 -0.06253,-0.0016 -0.09375,0 z"
       inkscape:connector-curvature="0"
       id="path3996"
       style="opacity:0.6;fill:url(#radialGradient3920);fill-opacity:1;fill-rule:nonzero;stroke:none;display:inline" />
    <path
       d="m 18,18 0,9 0,42 0,9 5,0 55,0 0,-9 L 78,41.59375 54.40625,18 z"
       inkscape:connector-curvature="0"
       id="path3998"
       style="fill:url(#linearGradient3879);fill-opacity:1;fill-rule:nonzero;stroke:none;display:inline" />
    <path
       d="m 18,18 0,9 0,42 0,9 5,0 55,0 0,-9 L 78,41.59375 54.40625,18 z m 1,1 35.03125,0 L 77,41.96875 77,69 l 0,8 -54,0 -4,0 0,-8 0,-42 z"
       inkscape:connector-curvature="0"
       id="path4000"
       style="opacity:0.7;fill:#ffffff;fill-opacity:1;fill-rule:nonzero;stroke:none;display:inline" />
    <path
       d="m 14,12.0312 c -1.1559,0 -1.9688,0.8129 -1.9688,1.9688 10e-5,23.7464 0,47.587 0,68 0,1.0777 0.7176,1.837 1.75,1.9375 22.7073,0.064 45.4861,0.031 68.2188,0.031 1.6432,-0.016 2.0775,-0.9865 1.9688,-2.6875 l 0,-41.3438 C 74.6527,30.6492 65.3645,21.3333 56.0625,12.0312 Z M 14,13 55.6563,13 C 64.7698,22.1141 73.8709,31.2408 83,40.3438 83,54.2292 83,68.1146 83,82 c 0,0.6484 -0.267,0.9096 -0.875,0.9688 -0.042,0.01 -0.084,0.018 -0.125,0.031 l -68,0 C 13.4235,82.9472 13.1893,82.4004 13,82 c 0,-22.6667 0,-45.3333 0,-68 0,-0.7025 0.2975,-1 1,-1 z"
       inkscape:connector-curvature="0"
       id="path4002"
       style="display:inline;opacity:0.1;fill:#000000;fill-opacity:1;fill-rule:nonzero;stroke:none"
       sodipodi:nodetypes="ccccccccccccccccccc" />
    <path
       d="m 14,12.0312 c -1.1559,0 -1.9688,0.8129 -1.9688,1.9688 l 0,1 c 0,-1.1559 0.8129,-1.9688 1.9688,-1.9688 14.0208,10e-5 28.0417,0 42.0625,0 9.302,9.3021 18.5902,18.618 27.9063,27.9063 l 0,-1 C 74.6527,30.6492 65.3645,21.3333 56.0625,12.0312 c -14.0208,10e-5 -28.0417,0 -42.0625,0 z"
       inkscape:connector-curvature="0"
       id="path4004"
       style="display:inline;opacity:0.2;fill:#000000;fill-opacity:1;fill-rule:nonzero;stroke:none"
       sodipodi:nodetypes="csccccccc" />
  </g>
  <g
     id="layer5"
     style="display:none">
    <rect
       width="66"
       height="66"
       rx="12"
       ry="12"
       x="15"
       y="15"
       clip-path="url(#clipPath3613)"
       id="rect3171"
       style="opacity:0.1;fill:url(#linearGradient3613);fill-opacity:1;fill-rule:nonzero;stroke:#ffffff;stroke-width:0.5;stroke-linecap:round;stroke-linejoin:miter;stroke-miterlimit:4;stroke-opacity:1;stroke-dasharray:none;stroke-dashoffset:0;filter:url(#filter3794)" />
  </g>
</svg>
