<?xml version="1.0" encoding="UTF-8" standalone="no"?>
<!-- Created with Inkscape (http://www.inkscape.org/) -->

<svg
   xmlns:dc="http://purl.org/dc/elements/1.1/"
   xmlns:cc="http://creativecommons.org/ns#"
   xmlns:rdf="http://www.w3.org/1999/02/22-rdf-syntax-ns#"
   xmlns:svg="http://www.w3.org/2000/svg"
   xmlns="http://www.w3.org/2000/svg"
   xmlns:xlink="http://www.w3.org/1999/xlink"
   xmlns:sodipodi="http://sodipodi.sourceforge.net/DTD/sodipodi-0.dtd"
   xmlns:inkscape="http://www.inkscape.org/namespaces/inkscape"
   version="1.0"
   width="96"
   height="96"
   id="svg2408"
   inkscape:version="0.91 r"
   sodipodi:docname="miro.svg">
  <title
     id="title5292">miro</title>
  <sodipodi:namedview
     pagecolor="#ffffff"
     bordercolor="#666666"
     borderopacity="1"
     objecttolerance="10"
     gridtolerance="10"
     guidetolerance="10"
     inkscape:pageopacity="0"
     inkscape:pageshadow="2"
     inkscape:window-width="1280"
     inkscape:window-height="965"
     id="namedview233"
     showgrid="false"
     inkscape:zoom="4.91667"
     inkscape:cx="104.58"
     inkscape:cy="37.2791"
     inkscape:window-x="0"
     inkscape:window-y="27"
     inkscape:window-maximized="1"
     inkscape:current-layer="svg2408" />
  <defs
     id="defs2410">
    <linearGradient
       id="linearGradient5342">
      <stop
         id="stop5344"
         style="stop-color:#d7f7fd;stop-opacity:1"
         offset="0" />
      <stop
         id="stop5346"
         style="stop-color:#ffffff;stop-opacity:1"
         offset="1" />
    </linearGradient>
    <linearGradient
       id="linearGradient3767">
      <stop
         id="stop3769"
         style="stop-color:#3e3e3e;stop-opacity:1"
         offset="0" />
      <stop
         id="stop3771"
         style="stop-color:#bbbbbb;stop-opacity:0"
         offset="1" />
    </linearGradient>
    <linearGradient
       id="linearGradient3960">
      <stop
         id="stop3962"
         style="stop-color:#ffffff;stop-opacity:1"
         offset="0" />
      <stop
         id="stop3964"
         style="stop-color:#ffffff;stop-opacity:0"
         offset="1" />
    </linearGradient>
    <linearGradient
       id="linearGradient3948">
      <stop
         id="stop3950"
         style="stop-color:#5a5a5a;stop-opacity:1"
         offset="0" />
      <stop
         id="stop3952"
         style="stop-color:#737373;stop-opacity:1"
         offset="1" />
    </linearGradient>
    <linearGradient
       id="linearGradient3777">
      <stop
         id="stop3779"
         style="stop-color:#272727;stop-opacity:1"
         offset="0" />
      <stop
         id="stop3781"
         style="stop-color:#737373;stop-opacity:1"
         offset="1" />
    </linearGradient>
    <linearGradient
       id="linearGradient3224">
      <stop
         id="stop3226"
         style="stop-color:#e0d8b8;stop-opacity:1"
         offset="0" />
      <stop
         id="stop3228"
         style="stop-color:#b6a357;stop-opacity:1"
         offset="1" />
    </linearGradient>
    <linearGradient
       id="linearGradient3187">
      <stop
         id="stop3189"
         style="stop-color:#b4b4b4;stop-opacity:1"
         offset="0" />
      <stop
         id="stop3191"
         style="stop-color:#e6e6e6;stop-opacity:1"
         offset="1" />
    </linearGradient>
    <linearGradient
       x1="45.447727"
       y1="92.539597"
       x2="45.447727"
       y2="7.0165396"
       id="ButtonShadow"
       gradientUnits="userSpaceOnUse"
       gradientTransform="scale(1.0058652,0.994169)">
      <stop
         id="stop3750"
         style="stop-color:#000000;stop-opacity:1"
         offset="0" />
      <stop
         id="stop3752"
         style="stop-color:#000000;stop-opacity:0.58823532"
         offset="1" />
    </linearGradient>
    <linearGradient
       id="linearGradient3737">
      <stop
         id="stop3739"
         style="stop-color:#ffffff;stop-opacity:1"
         offset="0" />
      <stop
         id="stop3741"
         style="stop-color:#ffffff;stop-opacity:0"
         offset="1" />
    </linearGradient>
    <filter
       color-interpolation-filters="sRGB"
       id="filter3174">
      <feGaussianBlur
         id="feGaussianBlur3176"
         stdDeviation="1.71" />
    </filter>
    <linearGradient
       x1="36.357143"
       y1="6"
       x2="36.357143"
       y2="63.893143"
       id="linearGradient3188"
       xlink:href="#linearGradient3737"
       gradientUnits="userSpaceOnUse" />
    <radialGradient
       cx="47.098362"
       cy="78.286942"
       r="38.957481"
       fx="47.098362"
       fy="78.286942"
       id="radialGradient3205"
       xlink:href="#linearGradient3948"
       gradientUnits="userSpaceOnUse"
       gradientTransform="matrix(2.206273,0,-1.566824e-8,1.3123934,-56.813483,-119.24409)" />
    <linearGradient
       id="linearGradient3737-7">
      <stop
         id="stop3739-2"
         style="stop-color:#ffffff;stop-opacity:1"
         offset="0" />
      <stop
         id="stop3741-7"
         style="stop-color:#ffffff;stop-opacity:0"
         offset="1" />
    </linearGradient>
    <radialGradient
       cx="48"
       cy="90.171875"
       r="42"
       fx="48"
       fy="90.171875"
       id="radialGradient2874"
       xlink:href="#linearGradient3737-7"
       gradientUnits="userSpaceOnUse"
       gradientTransform="matrix(1.1573129,0,0,0.99590774,-7.551021,0.1971319)" />
    <linearGradient
       x1="48"
       y1="90"
       x2="48"
       y2="5.9877172"
       id="linearGradient3668"
       xlink:href="#linearGradient3187"
       gradientUnits="userSpaceOnUse" />
    <linearGradient
       id="linearGradient3737-40">
      <stop
         id="stop3739-7"
         style="stop-color:#ffffff;stop-opacity:1"
         offset="0" />
      <stop
         id="stop3741-9"
         style="stop-color:#ffffff;stop-opacity:0"
         offset="1" />
    </linearGradient>
    <clipPath
       id="clipPath3613-2">
      <rect
         width="84"
         height="84"
         rx="6"
         ry="6"
         x="6"
         y="6"
         id="rect3615-7"
         style="fill:#ffffff;fill-opacity:1;fill-rule:nonzero;stroke:none" />
    </clipPath>
    <filter
       x="-0.192"
       y="-0.192"
       width="1.3839999"
       height="1.3839999"
       color-interpolation-filters="sRGB"
       id="filter3794-6">
      <feGaussianBlur
         id="feGaussianBlur3796-2"
         stdDeviation="5.28" />
    </filter>
    <linearGradient
       x1="48"
       y1="20.220806"
       x2="48"
       y2="138.66119"
       id="linearGradient2881"
       xlink:href="#linearGradient3737-40"
       gradientUnits="userSpaceOnUse" />
    <clipPath
       id="clipPath3837">
      <path
         d="m 14,108.25 c -3.242433,0 -5.84375,2.7675 -5.84375,6.1875 l 0,66.15625 c 0,3.42 2.601317,6.1875 5.84375,6.1875 l 66.1875,0 c 3.242433,0 5.875,-2.7675 5.875,-6.1875 l 0,-66.15625 c 0,-3.42 -2.632567,-6.1875 -5.875,-6.1875 L 14,108.25 z M 48,118 c 0.604567,0 1.192865,0.015 1.78125,0.0312 0.01409,1.5e-4 0.04842,-1.5e-4 0.0625,0 8.345348,0.0889 12.216194,0.77855 16.875,2.03125 C 78.02046,122.63389 78,127.66183 78,144 c 0,16.15961 0.02953,20.46537 -11.28125,23.9375 -4.658806,1.2527 -8.529652,1.94235 -16.875,2.03125 -0.01408,1.5e-4 -0.0484,-1.5e-4 -0.0625,0 C 49.192865,169.98495 48.604568,170 48,170 c -0.604568,0 -1.192865,-0.015 -1.78125,-0.0312 -0.0141,-1.5e-4 -0.04842,1.5e-4 -0.0625,0 -8.345348,-0.089 -12.216194,-0.77855 -16.875,-2.03125 C 17.97047,164.46542 18,160.15961 18,144 c 0,-16.33817 -0.02046,-21.36606 11.28125,-23.9375 4.658806,-1.2527 8.529652,-1.94235 16.875,-2.03125 0.01408,-1.5e-4 0.04841,1.5e-4 0.0625,0 C 46.807135,118.01505 47.395433,118 48,118 z"
         inkscape:connector-curvature="0"
         id="path3839"
         style="fill:url(#radialGradient3841);fill-opacity:1;stroke:none" />
    </clipPath>
    <radialGradient
       cx="47.098362"
       cy="78.286942"
       r="38.957481"
       fx="47.098362"
       fy="78.286942"
       id="radialGradient3841"
       xlink:href="#linearGradient3224"
       gradientUnits="userSpaceOnUse"
       gradientTransform="matrix(2.206273,0,-1.566824e-8,1.3123934,-56.813483,75.781269)" />
    <filter
       x="-0.168"
       y="-0.19384617"
       width="1.336"
       height="1.3876923"
       color-interpolation-filters="sRGB"
       id="filter3847">
      <feGaussianBlur
         id="feGaussianBlur3849"
         stdDeviation="4.2000001" />
    </filter>
    <linearGradient
       x1="50.629463"
       y1="81.089287"
       x2="50.629463"
       y2="74.654137"
       id="linearGradient3994"
       xlink:href="#linearGradient3960"
       gradientUnits="userSpaceOnUse"
       gradientTransform="translate(0,30)" />
    <linearGradient
       x1="49.384521"
       y1="81.177032"
       x2="49.384521"
       y2="73.447845"
       id="linearGradient4099"
       xlink:href="#linearGradient3737-7"
       gradientUnits="userSpaceOnUse" />
    <linearGradient
       x1="48.17857"
       y1="72.25"
       x2="48.17857"
       y2="79.839813"
       id="linearGradient4101"
       xlink:href="#linearGradient3948"
       gradientUnits="userSpaceOnUse" />
    <linearGradient
       x1="48.17857"
       y1="72.25"
       x2="48.17857"
       y2="79.839813"
       id="linearGradient4103"
       xlink:href="#linearGradient3948"
       gradientUnits="userSpaceOnUse"
       gradientTransform="translate(1,0)" />
    <linearGradient
       x1="48.17857"
       y1="72.25"
       x2="48.17857"
       y2="79.839813"
       id="linearGradient4105"
       xlink:href="#linearGradient3948"
       gradientUnits="userSpaceOnUse"
       gradientTransform="translate(2,0)" />
    <linearGradient
       x1="48.17857"
       y1="72.25"
       x2="48.17857"
       y2="79.839813"
       id="linearGradient4107"
       xlink:href="#linearGradient3948"
       gradientUnits="userSpaceOnUse"
       gradientTransform="translate(-1,0)" />
    <linearGradient
       x1="48.17857"
       y1="72.25"
       x2="48.17857"
       y2="79.839813"
       id="linearGradient4109"
       xlink:href="#linearGradient3948"
       gradientUnits="userSpaceOnUse"
       gradientTransform="translate(3,0)" />
    <linearGradient
       x1="48.17857"
       y1="72.25"
       x2="48.17857"
       y2="79.839813"
       id="linearGradient4111"
       xlink:href="#linearGradient3948"
       gradientUnits="userSpaceOnUse"
       gradientTransform="translate(-2,0)" />
    <linearGradient
       x1="48.17857"
       y1="72.25"
       x2="48.17857"
       y2="79.839813"
       id="linearGradient4113"
       xlink:href="#linearGradient3948"
       gradientUnits="userSpaceOnUse"
       gradientTransform="translate(4,0)" />
    <linearGradient
       id="linearGradient3237">
      <stop
         id="stop3239"
         style="stop-color:#737373;stop-opacity:1"
         offset="0" />
      <stop
         id="stop3241"
         style="stop-color:#ffffff;stop-opacity:1"
         offset="1" />
    </linearGradient>
    <linearGradient
       x1="26.360342"
       y1="103.13425"
       x2="26.360342"
       y2="108.67809"
       id="linearGradient3785"
       xlink:href="#linearGradient3237"
       gradientUnits="userSpaceOnUse" />
    <linearGradient
       x1="26.360342"
       y1="112.60857"
       x2="26.360342"
       y2="99.665756"
       id="linearGradient3787"
       xlink:href="#linearGradient3237"
       gradientUnits="userSpaceOnUse" />
    <linearGradient
       x1="21.026215"
       y1="106.13716"
       x2="35.10936"
       y2="106.13716"
       id="linearGradient3789"
       xlink:href="#linearGradient3767"
       gradientUnits="userSpaceOnUse" />
    <linearGradient
       x1="26.360342"
       y1="103.13425"
       x2="26.360342"
       y2="108.67809"
       id="linearGradient3802"
       xlink:href="#linearGradient3237"
       gradientUnits="userSpaceOnUse" />
    <linearGradient
       x1="26.360342"
       y1="112.60857"
       x2="26.360342"
       y2="99.665756"
       id="linearGradient3804"
       xlink:href="#linearGradient3237"
       gradientUnits="userSpaceOnUse" />
    <linearGradient
       x1="21.026215"
       y1="106.13716"
       x2="35.10936"
       y2="106.13716"
       id="linearGradient3806"
       xlink:href="#linearGradient3767"
       gradientUnits="userSpaceOnUse" />
    <clipPath
       id="clipPath5265">
      <path
         d="m 138,78 c -0.60457,0 -1.19286,0.01496 -1.78125,0.03125 -0.0141,1.46e-4 -0.0484,-1.5e-4 -0.0625,0 -8.34535,0.08895 -12.21619,0.778548 -16.875,2.03125 C 107.97954,82.633894 108,87.661827 108,104 c 0,16.15961 -0.0295,20.46542 11.28125,23.9375 4.65881,1.2527 8.52965,1.9423 16.875,2.03125 0.0141,1.5e-4 0.0484,-1.5e-4 0.0625,0 0.58839,0.0163 1.17668,0.0312 1.78125,0.0312 0.60457,0 1.19286,-0.015 1.78125,-0.0312 0.0141,-1.5e-4 0.0484,1.5e-4 0.0625,0 8.34535,-0.0889 12.21619,-0.77855 16.875,-2.03125 C 168.02953,124.46542 168,120.15961 168,104 c 0,-16.338173 0.0205,-21.366106 -11.28125,-23.9375 -4.65881,-1.252702 -8.52965,-1.9423 -16.875,-2.03125 -0.0141,-1.5e-4 -0.0484,1.46e-4 -0.0625,0 C 139.19286,78.01496 138.60457,78 138,78 z"
         inkscape:connector-curvature="0"
         id="path5267"
         style="fill:#ff0000;fill-opacity:1;stroke:none;display:inline" />
    </clipPath>
    <clipPath
       id="clipPath5740">
      <path
         d="m -314.23249,22.116961 c 16.36611,-32.543992 44.40385,-72.185682 81.29447,-93.852916 36.89061,-21.667234 82.63409,-25.360012 109.31525,15.388065 1.03032,123.91031 -64.85413,134.30066 -88.55152,133.276608 -59.78214,-2.583421 -102.0582,-54.811757 -102.0582,-54.811757 z"
         inkscape:connector-curvature="0"
         id="path5742"
         style="fill:#ff0000;stroke:none" />
    </clipPath>
    <linearGradient
       x1="-95.538361"
       y1="28.862101"
       x2="-95.538361"
       y2="-39.457481"
       id="linearGradient6016"
       xlink:href="#linearGradient5342"
       gradientUnits="userSpaceOnUse" />
    <linearGradient
       x1="-400.01169"
       y1="-85.681915"
       x2="-400.01169"
       y2="-9.0587626"
       id="linearGradient6023"
       xlink:href="#linearGradient3737"
       gradientUnits="userSpaceOnUse"
       gradientTransform="matrix(0.220332,0,0,0.220332,140.505,46.0347)" />
    <linearGradient
       x1="123.9678"
       y1="17.683645"
       x2="123.9678"
       y2="69.870628"
       id="linearGradient3888"
       xlink:href="#linearGradient3777"
       gradientUnits="userSpaceOnUse"
       gradientTransform="translate(-80,0)" />
    <filter
       x="-0.13439994"
       y="-0.15507701"
       width="1.2687999"
       height="1.310154"
       color-interpolation-filters="sRGB"
       id="filter3925">
      <feGaussianBlur
         id="feGaussianBlur3927"
         stdDeviation="3.3599985" />
    </filter>
    <linearGradient
       x1="48.714283"
       y1="16.321428"
       x2="48.714283"
       y2="77.289909"
       id="linearGradient3931"
       xlink:href="#linearGradient3737-7"
       gradientUnits="userSpaceOnUse"
       gradientTransform="matrix(0.875588,0,0,0.510552,5.97176,11.2857)" />
    <linearGradient
       x1="45.447727"
       y1="92.539597"
       x2="45.447727"
       y2="7.0165396"
       id="ButtonShadow-0"
       gradientUnits="userSpaceOnUse"
       gradientTransform="matrix(1.0058652,0,0,0.994169,100,0)">
      <stop
         id="stop3750-8"
         style="stop-color:#000000;stop-opacity:1"
         offset="0" />
      <stop
         id="stop3752-5"
         style="stop-color:#000000;stop-opacity:0.58823532"
         offset="1" />
    </linearGradient>
    <linearGradient
       x1="32.251034"
       y1="6.1317081"
       x2="32.251034"
       y2="90.238609"
       id="linearGradient3780"
       xlink:href="#ButtonShadow-0"
       gradientUnits="userSpaceOnUse"
       gradientTransform="matrix(1.0238095,0,0,1.0119048,-1.1428571,-98.071429)" />
    <linearGradient
       x1="32.251034"
       y1="6.1317081"
       x2="32.251034"
       y2="90.238609"
       id="linearGradient3772"
       xlink:href="#ButtonShadow-0"
       gradientUnits="userSpaceOnUse"
       gradientTransform="matrix(1.0238095,0,0,1.0119048,-1.1428571,-98.071429)" />
    <linearGradient
       x1="32.251034"
       y1="6.1317081"
       x2="32.251034"
       y2="90.238609"
       id="linearGradient3725"
       xlink:href="#ButtonShadow-0"
       gradientUnits="userSpaceOnUse"
       gradientTransform="matrix(1.0238095,0,0,1.0119048,-1.1428571,-98.071429)" />
    <linearGradient
       x1="32.251034"
       y1="6.1317081"
       x2="32.251034"
       y2="90.238609"
       id="linearGradient3721"
       xlink:href="#ButtonShadow-0"
       gradientUnits="userSpaceOnUse"
       gradientTransform="translate(0,-97)" />
    <linearGradient
       x1="32.251034"
       y1="6.1317081"
       x2="32.251034"
       y2="90.238609"
       id="linearGradient3071"
       xlink:href="#ButtonShadow-0"
       gradientUnits="userSpaceOnUse"
       gradientTransform="matrix(1.0238095,0,0,1.0119048,-1.1428571,-98.071429)" />
  </defs>
  <metadata
     id="metadata2413">
    <rdf:RDF>
      <cc:Work
         rdf:about="">
        <dc:format>image/svg+xml</dc:format>
        <dc:type
           rdf:resource="http://purl.org/dc/dcmitype/StillImage" />
        <dc:title>miro</dc:title>
        <dc:subject>
          <rdf:Bag>
            <rdf:li>miro</rdf:li>
            <rdf:li>youtube</rdf:li>
            <rdf:li>tv</rdf:li>
          </rdf:Bag>
        </dc:subject>
        <dc:description>miro, youtube, tv</dc:description>
      </cc:Work>
    </rdf:RDF>
  </metadata>
  <g
     id="layer2"
     style="display:none">
    <rect
       width="86"
       height="85"
       rx="6"
       ry="6"
       x="5"
       y="7"
       id="rect3745"
       style="opacity:0.9;fill:url(#ButtonShadow);fill-opacity:1;fill-rule:nonzero;stroke:none;filter:url(#filter3174)" />
  </g>
  <g
     id="layer7"
     style="display:inline">
    <path
       d="m 12,-95.03125 c -5.5110903,0 -10.03125,4.52016 -10.03125,10.03125 l 0,71 c 0,5.5110902 4.5201598,10.03125 10.03125,10.03125 l 72,0 c 5.51109,0 10.03125,-4.5201597 10.03125,-10.03125 l 0,-71 c 0,-5.51109 -4.52016,-10.03125 -10.03125,-10.03125 l -72,0 z"
       transform="scale(1,-1)"
       id="path3786"
       style="opacity:0.07999998;fill:url(#linearGradient3071);fill-opacity:1;fill-rule:nonzero;stroke:none;display:inline" />
    <path
       d="m 12,-94.03125 c -4.971633,0 -9.03125,4.059617 -9.03125,9.03125 l 0,71 c 0,4.9716329 4.0596171,9.03125 9.03125,9.03125 l 72,0 c 4.971633,0 9.03125,-4.059617 9.03125,-9.03125 l 0,-71 c 0,-4.971633 -4.059617,-9.03125 -9.03125,-9.03125 l -72,0 z"
       transform="scale(1,-1)"
       id="path3778"
       style="opacity:0.1;fill:url(#linearGradient3780);fill-opacity:1;fill-rule:nonzero;stroke:none;display:inline" />
    <path
       d="m 12,-93 c -4.4091333,0 -8,3.590867 -8,8 l 0,71 c 0,4.4091333 3.5908667,8 8,8 l 72,0 c 4.409133,0 8,-3.5908667 8,-8 l 0,-71 c 0,-4.409133 -3.590867,-8 -8,-8 l -72,0 z"
       transform="scale(1,-1)"
       id="path3770"
       style="opacity:0.2;fill:url(#linearGradient3772);fill-opacity:1;fill-rule:nonzero;stroke:none;display:inline" />
    <rect
       width="86"
       height="85"
       rx="7"
       ry="7"
       x="5"
       y="-92"
       transform="scale(1,-1)"
       id="rect3723"
       style="opacity:0.3;fill:url(#linearGradient3725);fill-opacity:1;fill-rule:nonzero;stroke:none;display:inline" />
    <rect
       width="84"
       height="84"
       rx="6"
       ry="6"
       x="6"
       y="-91"
       transform="scale(1,-1)"
       id="rect3716"
       style="opacity:0.45;fill:url(#linearGradient3721);fill-opacity:1;fill-rule:nonzero;stroke:none;display:inline" />
  </g>
  <g
     id="layer3">
    <rect
       width="77.914963"
       height="78.516495"
       rx="5.8527675"
       ry="6.1732869"
       x="8.1408806"
       y="-86.770927"
       transform="scale(1,-1)"
       id="rect3461"
       style="fill:url(#radialGradient3205);fill-opacity:1;stroke:none" />
  </g>
  <g
     id="layer4"
     style="display:none">
    <rect
       width="66"
       height="66"
       rx="12"
       ry="12"
       x="15"
       y="15"
       clip-path="url(#clipPath3613-2)"
       id="rect3171"
       style="opacity:0.1;fill:url(#linearGradient2881);fill-opacity:1;fill-rule:nonzero;stroke:#ffffff;stroke-width:0.5;stroke-linecap:round;stroke-linejoin:miter;stroke-miterlimit:4;stroke-opacity:1;stroke-dasharray:none;stroke-dashoffset:0;filter:url(#filter3794-6)" />
  </g>
  <path
     style="display:inline;fill:url(#linearGradient3888);fill-opacity:1;stroke:none"
     id="path5249"
     inkscape:connector-curvature="0"
     d="m 48,18 c -0.6046,0 -1.1929,0.015 -1.7812,0.031 -0.014,10e-5 -0.048,-2e-4 -0.062,0 -8.3454,0.089 -12.2162,0.7785 -16.875,2.0312 C 17.9795,22.6339 18,27.6618 18,44 c 0,16.1596 -0.029,20.4654 11.2813,23.9375 4.6588,1.2527 8.5296,1.9423 16.875,2.0313 0.014,1e-4 0.048,-2e-4 0.062,0 C 46.8071,69.9851 47.3954,70 48,70 c 0.6046,0 1.1929,-0.015 1.7813,-0.031 0.014,-2e-4 0.048,1e-4 0.062,0 8.3453,-0.089 12.2161,-0.7786 16.875,-2.0313 C 78.0295,64.4654 78,60.1596 78,44 78,27.6618 78.02,22.6339 66.7188,20.0625 c -4.6589,-1.2527 -8.5297,-1.9423 -16.875,-2.0312 -0.014,-2e-4 -0.048,10e-5 -0.062,0 C 49.1929,18.015 48.6046,18 48,18 Z" />
  <path
     style="display:inline;opacity:0.5;fill:#ffffff;fill-opacity:1;stroke:none;filter:url(#filter3847)"
     id="path3826"
     clip-path="url(#clipPath3837)"
     transform="translate(0,-100)"
     inkscape:connector-curvature="0"
     d="m 48,118 c -0.6046,0 -1.1929,0.02 -1.7812,0.03 -0.014,0 -0.049,0 -0.062,0 -8.3454,0.09 -12.2162,0.779 -16.875,2.031 C 17.9795,122.634 18,127.662 18,144 c 0,16.16 -0.029,20.465 11.2813,23.937 4.6588,1.253 8.5296,1.943 16.875,2.032 0.014,0 0.048,0 0.062,0 0.5883,0.02 1.1766,0.03 1.7812,0.03 0.6046,0 1.1929,-0.01 1.7813,-0.03 0.014,0 0.048,0 0.062,0 8.3453,-0.09 12.2161,-0.779 16.875,-2.031 C 78.0295,164.465 78,160.16 78,144 c 0,-16.338 0.02,-21.366 -11.2812,-23.937 -4.6589,-1.253 -8.5297,-1.943 -16.875,-2.032 -0.014,0 -0.049,0 -0.062,0 C 49.1929,118.015 48.6046,118 48,118 Z" />
  <path
     style="display:inline;opacity:0.6;fill:#1a1a1a;fill-opacity:1;stroke:none"
     id="path5247"
     inkscape:connector-curvature="0"
     d="m 48,18 c -0.6046,0 -1.1929,0.015 -1.7812,0.031 -0.014,10e-5 -0.048,-2e-4 -0.062,0 -8.3454,0.089 -12.2162,0.7785 -16.875,2.0312 C 17.9795,22.6339 18,27.6618 18,44 c 0,16.1596 -0.029,20.4654 11.2813,23.9375 4.6588,1.2527 8.5296,1.9423 16.875,2.0313 0.014,1e-4 0.048,-2e-4 0.062,0 C 46.8071,69.985 47.3954,70 48,70 c 0.6046,0 1.1929,-0.015 1.7813,-0.031 0.014,-2e-4 0.048,1e-4 0.062,0 8.3453,-0.089 12.2161,-0.7786 16.875,-2.0313 C 78.0295,64.4654 78,60.1596 78,44 78,27.6618 78.02,22.6339 66.7188,20.0625 c -4.6589,-1.2527 -8.5297,-1.9423 -16.875,-2.0312 -0.014,-2e-4 -0.048,10e-5 -0.062,0 C 49.1929,18.015 48.6046,18 48,18 Z" />
  <path
     style="display:inline;opacity:0.7;fill:none;stroke:#000000;stroke-width:5;stroke-miterlimit:4;stroke-dasharray:none;filter:url(#filter3925)"
     clip-path="url(#clipPath5265)"
     d="m 138,78 c -6.813,-0.019 -13.679,0.4497 -20.232,2.4409 -3.756,0.8655 -7.58,3.1732 -8.613,7.1271 -1.656,6.1749 -0.998,12.655 -1.153,18.979 0.175,5.152 -0.398,10.681 1.993,15.432 2.521,4.285 7.778,5.615 12.285,6.7 7.957,1.636 16.16,1.447 24.231,1.031 5.872,-0.569 12.072,-1.502 17.032,-4.922 4.14,-3.09 4.232,-8.767 4.402,-13.45 -0,-6.991 0.354,-14.0232 -0.464,-20.9814 -0.379,-3.6405 -2.359,-7.2794 -5.881,-8.7056 -6.901,-2.7727 -14.421,-3.6184 -21.816,-3.6197 C 139.189,78.0148 138.595,77.9999 138,78 Z"
     id="path5259"
     inkscape:connector-curvature="0"
     transform="translate(-90,-60)" />
  <path
     style="display:inline;opacity:0.7;fill:url(#linearGradient3931);fill-opacity:1;stroke:none"
     id="path3902"
     inkscape:connector-curvature="0"
     d="m 48,20.4756 c -0.5294,0 -1.0445,0.01 -1.5596,0.016 -0.012,1e-4 -0.042,-10e-5 -0.055,0 -7.3071,0.045 -10.6963,0.3975 -14.7755,1.037 -9.8957,1.3129 -9.8777,3.8799 -9.8777,12.2214 0,8.2503 -0.026,10.4487 9.8777,12.2213 4.0792,0.6396 7.4684,0.9917 14.7755,1.0371 0.012,10e-5 0.042,-1e-4 0.055,0 0.5151,0.01 1.0302,0.016 1.5596,0.016 0.5294,0 1.0445,-0.01 1.5596,-0.016 0.012,-1e-4 0.042,10e-5 0.055,0 7.3071,-0.045 10.6963,-0.3975 14.7755,-1.0371 9.9036,-1.7726 9.8777,-3.971 9.8777,-12.2213 0,-8.3415 0.018,-10.9085 -9.8777,-12.2214 -4.0792,-0.6395 -7.4684,-0.9916 -14.7755,-1.037 -0.012,-10e-5 -0.042,1e-4 -0.055,0 -0.5151,-0.01 -1.0302,-0.016 -1.5596,-0.016 z" />
  <path
     inkscape:connector-curvature="0"
     style="opacity:0.6;fill:url(#linearGradient4099);fill-opacity:1;stroke:none"
     id="path4097"
     d="m 45,70.9688 c -1.1004,0 -2.0312,0.9308 -2.0312,2.0312 l 0,0.875 C 42.8907,72.8418 42.0505,71.9688 41,71.9688 c -1.1004,0 -2.0312,0.9308 -2.0312,2.0312 l 0,0.875 C 38.8907,73.8418 38.0505,72.9688 37,72.9688 c -1.1004,0 -2.0312,0.9308 -2.0312,2.0312 l 0,2 c 0,1.1004 0.9308,2.0313 2.0312,2.0313 1.0505,0 1.8907,-0.8731 1.9688,-1.9063 l 0,0.875 c 0,1.1004 0.9308,2.0313 2.0312,2.0313 1.0505,0 1.8907,-0.8731 1.9688,-1.9063 l 0,0.875 c 0,1.1004 0.9308,2.0313 2.0312,2.0313 1.0754,0 1.9597,-0.9019 2,-1.9688 0.04,1.0669 0.9246,1.9688 2,1.9688 1.0754,0 1.9597,-0.9019 2,-1.9688 0.04,1.0669 0.9246,1.9688 2,1.9688 1.1004,0 2.0313,-0.9309 2.0313,-2.0313 l 0,-0.875 c 0.078,1.0332 0.9182,1.9063 1.9687,1.9063 1.1004,0 2.0313,-0.9309 2.0313,-2.0313 l 0,-0.875 c 0.078,1.0332 0.9182,1.9063 1.9687,1.9063 1.1004,0 2.0313,-0.9309 2.0313,-2.0313 l 0,-2 c 0,-1.1004 -0.9309,-2.0312 -2.0313,-2.0312 -1.0505,0 -1.8907,0.873 -1.9687,1.9062 l 0,-0.875 c 0,-1.1004 -0.9309,-2.0312 -2.0313,-2.0312 -1.0505,0 -1.8907,0.873 -1.9687,1.9062 l 0,-0.875 c 0,-1.1004 -0.9309,-2.0312 -2.0313,-2.0312 -1.0754,0 -1.9597,0.9018 -2,1.9687 -0.04,-1.0669 -0.9246,-1.9687 -2,-1.9687 -1.0754,0 -1.9597,0.9018 -2,1.9687 -0.04,-1.0669 -0.9246,-1.9687 -2,-1.9687 z" />
  <g
     id="g4026">
    <path
       style="fill:url(#linearGradient4101);fill-opacity:1;stroke:none"
       id="path4010"
       inkscape:connector-curvature="0"
       d="m 45,72 c -0.554,0 -1,0.446 -1,1 l 0,6 c 0,0.554 0.446,1 1,1 0.554,0 1,-0.446 1,-1 l 0,-6 c 0,-0.554 -0.446,-1 -1,-1 z" />
    <path
       style="fill:url(#linearGradient4103);fill-opacity:1;stroke:none"
       id="path4008"
       inkscape:connector-curvature="0"
       d="m 49,72 c -0.554,0 -1,0.446 -1,1 l 0,6 c 0,0.554 0.446,1 1,1 0.554,0 1,-0.446 1,-1 l 0,-6 c 0,-0.554 -0.446,-1 -1,-1 z" />
    <path
       style="fill:url(#linearGradient4105);fill-opacity:1;stroke:none"
       id="path4006"
       inkscape:connector-curvature="0"
       d="m 53,72 c -0.554,0 -1,0.446 -1,1 l 0,6 c 0,0.554 0.446,1 1,1 0.554,0 1,-0.446 1,-1 l 0,-6 c 0,-0.554 -0.446,-1 -1,-1 z" />
    <path
       style="fill:url(#linearGradient4107);fill-opacity:1;stroke:none"
       id="path4004"
       inkscape:connector-curvature="0"
       d="m 41,73 c -0.554,0 -1,0.446 -1,1 l 0,4 c 0,0.554 0.446,1 1,1 0.554,0 1,-0.446 1,-1 l 0,-4 c 0,-0.554 -0.446,-1 -1,-1 z" />
    <path
       style="fill:url(#linearGradient4109);fill-opacity:1;stroke:none"
       id="path4002"
       inkscape:connector-curvature="0"
       d="m 57,73 c -0.554,0 -1,0.446 -1,1 l 0,4 c 0,0.554 0.446,1 1,1 0.554,0 1,-0.446 1,-1 l 0,-4 c 0,-0.554 -0.446,-1 -1,-1 z" />
    <path
       style="fill:url(#linearGradient4111);fill-opacity:1;stroke:none"
       id="path4000"
       inkscape:connector-curvature="0"
       d="m 37,74 c -0.554,0 -1,0.446 -1,1 l 0,2 c 0,0.554 0.446,1 1,1 0.554,0 1,-0.446 1,-1 l 0,-2 c 0,-0.554 -0.446,-1 -1,-1 z" />
    <path
       style="fill:url(#linearGradient4113);fill-opacity:1;stroke:none"
       id="rect3933"
       inkscape:connector-curvature="0"
       d="m 61,74 c -0.554,0 -1,0.446 -1,1 l 0,2 c 0,0.554 0.446,1 1,1 0.554,0 1,-0.446 1,-1 l 0,-2 c 0,-0.554 -0.446,-1 -1,-1 z" />
  </g>
  <path
     inkscape:connector-curvature="0"
     style="opacity:0.8;fill:url(#linearGradient3994);fill-opacity:1;stroke:none"
     id="path3990"
     d="m 45,100.969 c -0.9053,0 -1.5638,0.698 -1.8125,1.531 -0.3443,-0.272 -0.7224,-0.531 -1.1875,-0.531 -0.9053,0 -1.5638,0.698 -1.8125,1.531 -0.3443,-0.272 -0.7224,-0.531 -1.1875,-0.531 -1.1004,0 -2.0312,0.931 -2.0312,2.031 l 0,2 c 0,1.1 0.9308,2.031 2.0312,2.031 0.4651,0 0.8432,-0.259 1.1875,-0.531 0.2487,0.833 0.9072,1.531 1.8125,1.531 0.4651,0 0.8432,-0.259 1.1875,-0.531 0.2487,0.833 0.9072,1.531 1.8125,1.531 0.6353,0 1.128,-0.373 1.5,-0.843 0.372,0.47 0.8647,0.843 1.5,0.843 0.6353,0 1.128,-0.373 1.5,-0.843 0.372,0.47 0.8647,0.843 1.5,0.843 0.9053,0 1.5638,-0.698 1.8125,-1.531 0.3443,0.272 0.7224,0.531 1.1875,0.531 0.9053,0 1.5638,-0.698 1.8125,-1.531 0.3443,0.272 0.7224,0.531 1.1875,0.531 1.1004,0 2.0313,-0.931 2.0313,-2.031 l 0,-2 c 0,-1.1 -0.9309,-2.031 -2.0313,-2.031 -0.4651,0 -0.8432,0.259 -1.1875,0.531 -0.2487,-0.833 -0.9072,-1.531 -1.8125,-1.531 -0.4651,0 -0.8432,0.259 -1.1875,0.531 -0.2487,-0.833 -0.9072,-1.531 -1.8125,-1.531 -0.6353,0 -1.128,0.373 -1.5,0.844 -0.372,-0.471 -0.8647,-0.844 -1.5,-0.844 -0.6353,0 -1.128,0.373 -1.5,0.844 -0.372,-0.471 -0.8647,-0.844 -1.5,-0.844 z" />
  <g
     id="g3779"
     transform="translate(0,-1)">
    <path
       inkscape:connector-curvature="0"
       style="opacity:0.2;fill:#000000;fill-opacity:1;stroke:none"
       id="path3777"
       transform="matrix(1.18794,0,0,1.18794,0.65,-18.0922)"
       d="m 23.8649,79.2062 a 5.0508,5.0508 0 1 1 -10.1016,0 5.0508,5.0508 0 1 1 10.1016,0 z" />
    <path
       inkscape:connector-curvature="0"
       style="opacity:0.6;fill:#000000;fill-opacity:1;stroke:none"
       id="path3775"
       transform="matrix(0.98995,0,0,0.98995,4.375,-2.41015)"
       d="m 23.8649,79.2062 a 5.0508,5.0508 0 1 1 -10.1016,0 5.0508,5.0508 0 1 1 10.1016,0 z" />
    <path
       inkscape:connector-curvature="0"
       style="fill:url(#linearGradient3785);fill-opacity:1;stroke:url(#linearGradient3787);stroke-width:3.962082;stroke-linecap:square;stroke-miterlimit:4;stroke-dasharray:none;stroke-opacity:1"
       id="path3235"
       transform="matrix(0.757178,0,0,0.757178,3.04054,-5.36468)"
       d="m 30.9828,106.137 a 4.62245,4.62245 0 1 1 -9.2449,0 4.62245,4.62245 0 1 1 9.2449,0 z" />
    <path
       inkscape:connector-curvature="0"
       style="fill:none;stroke:url(#linearGradient3789);stroke-width:1.317351;stroke-linecap:square;stroke-miterlimit:4;stroke-dasharray:none;stroke-opacity:1"
       id="path2993"
       transform="matrix(0,-0.759099,0.759099,0,-57.5686,95.0101)"
       d="m 30.9828,106.137 a 4.62245,4.62245 0 1 1 -9.2449,0 4.62245,4.62245 0 1 1 9.2449,0 z" />
  </g>
  <g
     id="g3791"
     transform="translate(50,-1)">
    <path
       inkscape:connector-curvature="0"
       style="opacity:0.2;fill:#000000;fill-opacity:1;stroke:none"
       id="path3793"
       transform="matrix(1.18794,0,0,1.18794,0.65,-18.0922)"
       d="m 23.8649,79.2062 a 5.0508,5.0508 0 1 1 -10.1016,0 5.0508,5.0508 0 1 1 10.1016,0 z" />
    <path
       inkscape:connector-curvature="0"
       style="opacity:0.6;fill:#000000;fill-opacity:1;stroke:none"
       id="path3795"
       transform="matrix(0.98995,0,0,0.98995,4.375,-2.41015)"
       d="m 23.8649,79.2062 a 5.0508,5.0508 0 1 1 -10.1016,0 5.0508,5.0508 0 1 1 10.1016,0 z" />
    <path
       inkscape:connector-curvature="0"
       style="fill:url(#linearGradient3802);fill-opacity:1;stroke:url(#linearGradient3804);stroke-width:3.962082;stroke-linecap:square;stroke-miterlimit:4;stroke-dasharray:none;stroke-opacity:1"
       id="path3797"
       transform="matrix(0.757178,0,0,0.757178,3.04054,-5.36468)"
       d="m 30.9828,106.137 a 4.62245,4.62245 0 1 1 -9.2449,0 4.62245,4.62245 0 1 1 9.2449,0 z" />
    <path
       inkscape:connector-curvature="0"
       style="fill:none;stroke:url(#linearGradient3806);stroke-width:1.317351;stroke-linecap:square;stroke-miterlimit:4;stroke-dasharray:none;stroke-opacity:1"
       id="path3800"
       transform="matrix(0,-0.759099,0.759099,0,-57.5686,95.0101)"
       d="m 30.9828,106.137 a 4.62245,4.62245 0 1 1 -9.2449,0 4.62245,4.62245 0 1 1 9.2449,0 z" />
  </g>
  <path
     style="display:inline;opacity:0.3;fill:#ffffff;fill-opacity:1;stroke:none"
     id="path3914"
     inkscape:connector-curvature="0"
     d="m 21.0625,47.4688 c 0.057,5.9741 0.2876,9.9445 1.1563,12.125 1.0239,2.5701 2.6285,3.7936 7.8437,5.4062 0.01,0 0.021,0 0.031,0 0.03,0.01 0.032,0.022 0.062,0.031 4.4735,1.1986 7.9017,1.8196 16.0312,1.9062 -0.081,-9e-4 -0.045,0 0.062,0 a 3.03242,3.03242 0 0 1 0.062,0 c 0.5839,0.016 1.133,0.031 1.6875,0.031 0.5545,0 1.1036,-0.015 1.6875,-0.031 a 3.03242,3.03242 0 0 1 0.062,0 c 0.1075,0 0.1434,-9e-4 0.062,0 8.1295,-0.087 11.5577,-0.7076 16.0313,-1.9062 0.032,-0.01 0.061,-0.023 0.094,-0.031 5.2152,-1.6126 6.8198,-2.8361 7.8438,-5.4062 0.8686,-2.1805 1.0995,-6.1509 1.1562,-12.125 -0.092,4.9148 -0.382,8.1814 -1.1562,10.125 -1.024,2.5701 -2.6286,3.7936 -7.8438,5.4062 -0.032,0.01 -0.061,0.023 -0.094,0.031 -4.4736,1.1986 -7.9018,1.8195 -16.0313,1.9062 0.081,-9e-4 0.045,0 -0.062,0 a 3.03242,3.03242 0 0 0 -0.062,0 c -0.5839,0.016 -1.133,0.031 -1.6875,0.031 -0.5545,0 -1.1036,-0.015 -1.6875,-0.031 a 3.03242,3.03242 0 0 0 -0.062,0 c -0.1075,0 -0.1434,-9e-4 -0.062,0 -8.1295,-0.087 -11.5577,-0.7076 -16.0312,-1.9062 -0.031,-0.01 -0.032,-0.022 -0.062,-0.031 -0.01,0 -0.021,0 -0.031,0 -5.2152,-1.6126 -6.8198,-2.8361 -7.8437,-5.4062 -0.7743,-1.9436 -1.0643,-5.2102 -1.1563,-10.125 z" />
  <path
     inkscape:connector-curvature="0"
     style="opacity:0.08;fill:#000000;fill-opacity:1;stroke:none"
     id="path4661"
     d="m 56.0313,24.9063 c -5.02,-0.3787 -10.1036,1.1935 -14.5625,3.8125 -8.8916,5.2223 -15.2883,14.4012 -19.0625,21.9062 0,0 -0.092,0.2128 -0.094,0.2188 0,0 0,0.025 0,0.031 0,0.013 0,0.016 0,0.031 0,0.016 0,0.051 0,0.062 0,0.01 -0.031,0 -0.031,0 -0.018,0.046 -0.027,0.082 -0.031,0.094 -0.01,0.023 -0.062,0.1559 -0.062,0.1563 -2e-4,7e-4 -0.031,0.1867 -0.031,0.1875 0,0 -0.031,0.1825 -0.031,0.1875 0,0 0,0.025 0,0.031 0,0.012 0,0.016 0,0.031 0,0.033 0,0.1237 0,0.1562 0,0.039 0,0.031 0,0.031 0,7e-4 0,0.218 0,0.2187 0,0.016 0,0.019 0,0.031 0,0.01 0,0.027 0,0.031 0,0 0.03,0.2465 0.031,0.25 8e-4,0 -4e-4,0.03 0,0.031 0,0 0.03,-0.01 0.031,0 0,0.012 0,0.047 0,0.062 10e-5,7e-4 0.062,0.218 0.062,0.2187 10e-5,3e-4 0.02,0.027 0.031,0.062 0,0.011 0,0.047 0,0.062 0,0.016 0,0.019 0,0.031 0,0.01 0,0.026 0,0.031 2e-4,7e-4 0.1559,0.3744 0.1562,0.375 2e-4,3e-4 0.078,0.1016 0.094,0.125 0.016,0.023 0.031,0.031 0.031,0.031 0,0.01 0,0.027 0,0.031 l 1,-0.5 -0.9062,0.6563 c 0,0 0.05,0.046 0.094,0.094 0.015,0.019 0.019,0.017 0.031,0.031 0.016,0.017 0.026,0.058 0.031,0.062 0.017,0.017 0.05,0.051 0.062,0.062 0.014,0.013 0.023,0.024 0.031,0.031 9e-4,0 0.03,0 0.031,0 0.5237,0.6546 10.0265,12.4085 24.4375,13.0313 3.1618,0.1366 8.9115,-0.5643 13.875,-5.1875 4.9697,-4.629 8.774,-12.9296 8.6563,-27.0938 0,0 -0.023,-0.1176 -0.031,-0.1875 0,0 0,-0.026 0,-0.031 0,-0.01 0,-0.026 0,-0.031 0,-1e-4 6e-4,-0.027 0,-0.031 0,-0.01 -0.028,-0.038 -0.031,-0.062 0,-0.016 0,-0.02 0,-0.031 0,0 0,-0.031 0,-0.031 -0.017,-0.1194 -0.031,-0.2496 -0.031,-0.25 -2e-4,-8e-4 -0.062,-0.2181 -0.062,-0.2188 0,-0.016 0,-0.019 0,-0.031 0,-0.01 0,-0.027 0,-0.031 0,0 -0.1524,-0.3064 -0.1562,-0.3125 0,-0.01 0,-0.029 0,-0.031 0,0 -0.028,0 -0.031,0 -0.01,-0.01 0.01,-0.02 0,-0.031 -0.01,-0.012 -0.026,-0.023 -0.031,-0.031 0,0 0,-0.027 0,-0.031 -10e-5,-10e-5 -0.02,-0.041 -0.031,-0.062 -0.028,-0.056 -0.08,-0.1291 -0.094,-0.1562 0,0 0,-0.031 0,-0.031 a 1.11605,1.11605 0 0 0 -0.031,0 c -0.013,-0.02 -0.018,-0.043 -0.031,-0.062 a 1.11605,1.11605 0 0 0 -0.25,-0.25 C 65.7208,27.7893 60.958,25.2778 56.0313,24.9063 Z" />
  <path
     inkscape:connector-curvature="0"
     style="opacity:0.12;fill:#000000;fill-opacity:1;stroke:none"
     id="path4657"
     d="m 55.9375,26.0313 c -4.7314,-0.3569 -9.5996,1.1268 -13.9062,3.6562 -8.5975,5.0496 -14.9154,14.0609 -18.625,21.4375 -4e-4,7e-4 -0.031,0.1243 -0.031,0.125 -3e-4,7e-4 -0.062,0.1243 -0.062,0.125 -2e-4,7e-4 -0.031,0.093 -0.031,0.094 -2e-4,7e-4 -0.031,0.1242 -0.031,0.125 -10e-5,7e-4 10e-5,0.1242 0,0.125 -10e-5,7e-4 0,0.1555 0,0.1562 0,7e-4 0,0.1243 0,0.125 0,7e-4 -10e-5,0.1243 0,0.125 10e-5,7e-4 0.031,0.1243 0.031,0.125 10e-5,7e-4 0.031,0.1243 0.031,0.125 2e-4,7e-4 0.031,0.093 0.031,0.094 2e-4,6e-4 0.031,0.1243 0.031,0.125 3e-4,6e-4 0.062,0.1243 0.062,0.125 3e-4,6e-4 0.062,0.093 0.062,0.094 4e-4,6e-4 0.062,0.1244 0.062,0.125 3e-4,4e-4 0.039,0.033 0.062,0.062 0.012,0.015 0.031,0.031 0.031,0.031 0.082,0.1027 9.6889,12.141 23.7812,12.75 2.9425,0.1271 8.374,-0.508 13.0625,-4.875 4.6903,-4.3687 8.3974,-12.3181 8.2813,-26.2813 -1e-4,-7e-4 -0.031,-0.1243 -0.031,-0.125 -1e-4,-7e-4 1e-4,-0.1243 0,-0.125 -1e-4,-7e-4 -0.031,-0.1555 -0.031,-0.1562 -2e-4,-8e-4 -0.031,-0.1243 -0.031,-0.125 -2e-4,-8e-4 -0.031,-0.1244 -0.031,-0.125 -3e-4,-7e-4 -0.062,-0.093 -0.062,-0.094 -4e-4,-7e-4 -0.062,-0.1244 -0.062,-0.125 -3e-4,-5e-4 -0.045,-0.066 -0.062,-0.094 0,-0.01 0,-0.024 0,-0.031 l -0.031,0 c -3.207,-4.8734 -7.7673,-7.2368 -12.5,-7.5937 z" />
  <path
     inkscape:connector-curvature="0"
     style="opacity:0.25;fill:#000000;fill-opacity:1;stroke:none"
     id="path4653"
     d="M 55.875,26.9063 C 51.3672,26.5662 46.656,27.9781 42.4688,30.4375 34.1003,35.3526 27.8463,44.2245 24.1875,51.5 a 0.892752,0.892752 0 0 0 0.125,0.9688 c 0,0 9.4833,11.8466 23.1563,12.4375 2.7769,0.12 7.9632,-0.4575 12.4375,-4.625 4.4742,-4.1676 8.1148,-11.8473 8,-25.6563 A 0.892752,0.892752 0 0 0 67.75,34.125 C 64.6761,29.4305 60.3849,27.2464 55.875,26.9063 Z" />
  <path
     style="opacity:0.41;fill:#000000;fill-opacity:1;stroke:none"
     id="path6102"
     inkscape:connector-curvature="0"
     d="M 25,51.9077 C 28.606,44.7373 34.7836,36.0029 42.9118,31.229 51.0399,26.455 61.1187,25.6413 66.9974,34.6194 67.2244,61.9208 52.7079,64.2101 47.4867,63.9845 34.3148,63.4153 25,51.9077 25,51.9077 Z" />
  <path
     style="fill:#db292d;fill-opacity:1;stroke:none"
     id="path5746"
     inkscape:connector-curvature="0"
     d="M 25,50.9077 C 28.606,43.7373 34.7836,35.0029 42.9118,30.229 51.0399,25.455 61.1187,24.6413 66.9974,33.6194 67.2244,60.9208 52.7079,63.2101 47.4867,62.9845 34.3148,62.4153 25,50.9077 25,50.9077 Z" />
  <g
     id="g5666"
     clip-path="url(#clipPath5740)"
     transform="matrix(0.220332,0,0,0.220332,94.2354,46.0347)">
    <rect
       style="fill:#f49057;fill-opacity:1;stroke:none"
       id="rect5354"
       y="-56"
       x="-208"
       height="16"
       width="24" />
    <rect
       style="fill:#ce2025;fill-opacity:1;stroke:none"
       id="rect5358"
       y="-56"
       x="-184"
       height="16"
       width="24" />
    <rect
       style="fill:#dd2e36;fill-opacity:1;stroke:none"
       id="rect5360"
       y="-56"
       x="-160"
       height="16"
       width="24" />
    <rect
       style="fill:#e2594b;fill-opacity:1;stroke:none"
       id="rect5362"
       y="-56"
       x="-136"
       height="16"
       width="24" />
    <rect
       style="fill:#df4341;fill-opacity:1;stroke:none"
       id="rect5364"
       y="-56"
       x="-232"
       height="16"
       width="24" />
    <rect
       style="fill:#e47d57;fill-opacity:1;stroke:none"
       id="rect5366"
       y="-56"
       x="-256"
       height="16"
       width="24" />
    <rect
       style="fill:#f48e55;fill-opacity:1;stroke:none"
       id="rect5368"
       y="-56"
       x="-280"
       height="16"
       width="24" />
    <rect
       style="fill:#f2605b;fill-opacity:1;stroke:none"
       id="rect5370"
       y="-72"
       x="-208"
       height="16"
       width="24" />
    <rect
       style="fill:#e78c66;fill-opacity:1;stroke:none"
       id="rect5372"
       y="-72"
       x="-184"
       height="16"
       width="24" />
    <rect
       style="fill:#d65b53;fill-opacity:1;stroke:none"
       id="rect5374"
       y="-72"
       x="-160"
       height="16"
       width="24" />
    <rect
       style="fill:#e24e4a;fill-opacity:1;stroke:none"
       id="rect5376"
       y="-72"
       x="-136"
       height="16"
       width="24" />
    <rect
       style="fill:#e97e6a;fill-opacity:1;stroke:none"
       id="rect5378"
       y="-72"
       x="-232"
       height="16"
       width="24" />
    <rect
       style="fill:#f6a16b;fill-opacity:1;stroke:none"
       id="rect5380"
       y="-72"
       x="-256"
       height="16"
       width="24" />
    <rect
       style="fill:#f7b07d;fill-opacity:1;stroke:none"
       id="rect5384"
       y="-88"
       x="-208"
       height="16"
       width="24" />
    <rect
       style="fill:#f7ae7a;fill-opacity:1;stroke:none"
       id="rect5386"
       y="-88"
       x="-184"
       height="16"
       width="24" />
    <rect
       style="fill:#eb9d77;fill-opacity:1;stroke:none"
       id="rect5388"
       y="-88"
       x="-160"
       height="16"
       width="24" />
    <rect
       style="fill:#f7ae7a;fill-opacity:1;stroke:none"
       id="rect5392"
       y="-88"
       x="-232"
       height="16"
       width="24" />
    <rect
       style="fill:#ffff00;fill-opacity:1;stroke:none"
       id="rect5394"
       y="-88"
       x="-256"
       height="16"
       width="24" />
    <rect
       style="fill:#df4341;fill-opacity:1;stroke:none"
       id="rect5398"
       y="-40"
       x="-208"
       height="18"
       width="24" />
    <rect
       style="fill:#a9192a;fill-opacity:1;stroke:none"
       id="rect5400"
       y="-40"
       x="-184"
       height="18"
       width="24" />
    <rect
       style="fill:#c20c15;fill-opacity:1;stroke:none"
       id="rect5402"
       y="-40"
       x="-160"
       height="18"
       width="24" />
    <rect
       style="fill:#a9192a;fill-opacity:1;stroke:none"
       id="rect5404"
       y="-40"
       x="-136"
       height="18"
       width="24" />
    <rect
       style="fill:#df4341;fill-opacity:1;stroke:none"
       id="rect5406"
       y="-40"
       x="-232"
       height="18"
       width="24" />
    <rect
       style="fill:#e47d57;fill-opacity:1;stroke:none"
       id="rect5408"
       y="-40"
       x="-256"
       height="18"
       width="24" />
    <rect
       style="fill:#e06842;fill-opacity:1;stroke:none"
       id="rect5410"
       y="-40"
       x="-280"
       height="18"
       width="24" />
    <rect
       style="fill:#f38043;fill-opacity:1;stroke:none"
       id="rect5412"
       y="-40"
       x="-304"
       height="18"
       width="24" />
    <rect
       style="fill:#a9192a;fill-opacity:1;stroke:none"
       id="rect5414"
       y="-22"
       x="-208"
       height="18"
       width="24" />
    <rect
       style="fill:#9d1014;fill-opacity:1;stroke:none"
       id="rect5416"
       y="-22"
       x="-184"
       height="18"
       width="24" />
    <rect
       style="fill:#891c2f;fill-opacity:1;stroke:none"
       id="rect5418"
       y="-22"
       x="-160"
       height="18"
       width="24" />
    <rect
       style="fill:#c20c15;fill-opacity:1;stroke:none"
       id="rect5420"
       y="-22"
       x="-136"
       height="18"
       width="24" />
    <rect
       style="fill:#e70c0d;fill-opacity:1;stroke:none"
       id="rect5422"
       y="-22"
       x="-232"
       height="18"
       width="24" />
    <rect
       style="fill:#df6842;fill-opacity:1;stroke:none"
       id="rect5424"
       y="-22"
       x="-256"
       height="18"
       width="24" />
    <rect
       style="fill:#cb0c2e;fill-opacity:1;stroke:none"
       id="rect5426"
       y="-22"
       x="-280"
       height="18"
       width="24" />
    <rect
       style="fill:#e92f33;fill-opacity:1;stroke:none"
       id="rect5428"
       y="-22"
       x="-304"
       height="18"
       width="24" />
    <rect
       style="fill:#cb2e2e;fill-opacity:1;stroke:none"
       id="rect5430"
       y="-4"
       x="-208"
       height="16"
       width="24" />
    <rect
       style="fill:#a01418;fill-opacity:1;stroke:none"
       id="rect5432"
       y="-4"
       x="-184"
       height="16"
       width="24" />
    <rect
       style="fill:#b60c0d;fill-opacity:1;stroke:none"
       id="rect5434"
       y="-4"
       x="-160"
       height="16"
       width="24" />
    <rect
       style="fill:#891c2f;fill-opacity:1;stroke:none"
       id="rect5436"
       y="-4"
       x="-136"
       height="16"
       width="24" />
    <rect
       style="fill:#7f1c3d;fill-opacity:1;stroke:none"
       id="rect5438"
       y="-4"
       x="-232"
       height="16"
       width="24" />
    <rect
       style="fill:#cd0b2d;fill-opacity:1;stroke:none"
       id="rect5440"
       y="-4"
       x="-256"
       height="16"
       width="24" />
    <rect
       style="fill:#e04e42;fill-opacity:1;stroke:none"
       id="rect5442"
       y="-4"
       x="-280"
       height="16"
       width="24" />
    <rect
       style="fill:#db292d;fill-opacity:1;stroke:none"
       id="rect5444"
       y="-4"
       x="-304"
       height="16"
       width="24" />
    <rect
       style="fill:#b20000;fill-opacity:1;stroke:none"
       id="rect5446"
       y="-4"
       x="-328"
       height="16"
       width="24" />
    <rect
       style="fill:#7f1c3d;fill-opacity:1;stroke:none"
       id="rect5448"
       y="12"
       x="-208"
       height="17"
       width="24" />
    <rect
       style="fill:#a70d1e;fill-opacity:1;stroke:none"
       id="rect5450"
       y="12"
       x="-184"
       height="17"
       width="24" />
    <rect
       style="fill:#7f1c3d;fill-opacity:1;stroke:none"
       id="rect5452"
       y="12"
       x="-160"
       height="17"
       width="24" />
    <rect
       style="fill:#c20d15;fill-opacity:1;stroke:none"
       id="rect5454"
       y="12"
       x="-136"
       height="17"
       width="24" />
    <rect
       style="fill:#c6262e;fill-opacity:1;stroke:none"
       id="rect5456"
       y="12"
       x="-232"
       height="17"
       width="24" />
    <rect
       style="fill:#ab1629;fill-opacity:1;stroke:none"
       id="rect5458"
       y="12"
       x="-256"
       height="17"
       width="24" />
    <rect
       style="fill:#891c2f;fill-opacity:1;stroke:none"
       id="rect5460"
       y="12"
       x="-280"
       height="17"
       width="24" />
    <rect
       style="fill:#cb2e2e;fill-opacity:1;stroke:none"
       id="rect5462"
       y="12"
       x="-304"
       height="17"
       width="24" />
    <rect
       style="fill:#c0020c;fill-opacity:1;stroke:none"
       id="rect5464"
       y="12"
       x="-328"
       height="17"
       width="24" />
    <rect
       style="fill:#a9192a;fill-opacity:1;stroke:none"
       id="rect5466"
       y="29"
       x="-208"
       height="17"
       width="24" />
    <rect
       style="fill:#891c2f;fill-opacity:1;stroke:none"
       id="rect5468"
       y="29"
       x="-184"
       height="17"
       width="24" />
    <rect
       style="fill:#71165c;fill-opacity:1;stroke:none"
       id="rect5470"
       y="29"
       x="-160"
       height="17"
       width="24" />
    <rect
       style="fill:#7f1c3d;fill-opacity:1;stroke:none"
       id="rect5474"
       y="29"
       x="-232"
       height="17"
       width="24" />
    <rect
       style="fill:#891c2f;fill-opacity:1;stroke:none"
       id="rect5476"
       y="29"
       x="-256"
       height="17"
       width="24" />
    <rect
       style="fill:#ac1729;fill-opacity:1;stroke:none"
       id="rect5478"
       y="29"
       x="-280"
       height="17"
       width="24" />
    <rect
       style="fill:#881b2e;fill-opacity:1;stroke:none"
       id="rect5480"
       y="29"
       x="-304"
       height="17"
       width="24" />
    <rect
       style="fill:#c73400;fill-opacity:1;stroke:none"
       id="rect5482"
       y="29"
       x="-328"
       height="17"
       width="24" />
    <rect
       style="fill:#7f1c3d;fill-opacity:1;stroke:none"
       id="rect5484"
       y="46"
       x="-208"
       height="17"
       width="24" />
    <rect
       style="fill:#71165c;fill-opacity:1;stroke:none"
       id="rect5486"
       y="46"
       x="-184"
       height="17"
       width="24" />
    <rect
       style="fill:#7f1c3d;fill-opacity:1;stroke:none"
       id="rect5488"
       y="46"
       x="-160"
       height="17"
       width="24" />
    <rect
       style="fill:#a9192a;fill-opacity:1;stroke:none"
       id="rect5490"
       y="46"
       x="-232"
       height="17"
       width="24" />
    <rect
       style="fill:#7f1c3d;fill-opacity:1;stroke:none"
       id="rect5492"
       y="46"
       x="-256"
       height="17"
       width="24" />
    <rect
       style="fill:#690b54;fill-opacity:1;stroke:none"
       id="rect5494"
       y="46"
       x="-280"
       height="17"
       width="24" />
    <rect
       style="fill:#b20001;fill-opacity:1;stroke:none"
       id="rect5496"
       y="46"
       x="-304"
       height="17"
       width="24" />
    <rect
       style="fill:#71165c;fill-opacity:1;stroke:none"
       id="rect5500"
       y="63"
       x="-208"
       height="17"
       width="24" />
    <rect
       style="fill:#7f1c3d;fill-opacity:1;stroke:none"
       id="rect5502"
       y="63"
       x="-184"
       height="17"
       width="24" />
    <rect
       style="fill:#71165c;fill-opacity:1;stroke:none"
       id="rect5506"
       y="63"
       x="-232"
       height="17"
       width="24" />
    <rect
       style="fill:#7f1c3d;fill-opacity:1;stroke:none"
       id="rect5508"
       y="63"
       x="-256"
       height="17"
       width="24" />
    <rect
       style="fill:#a9192a;fill-opacity:1;stroke:none"
       id="rect5510"
       y="63"
       x="-280"
       height="17"
       width="24" />
  </g>
  <g
     id="g5350"
     transform="matrix(0.21875,0,0,0.21875,61.0175,46.0797)">
    <path
       style="fill:url(#linearGradient6016);fill-opacity:1;stroke:none"
       id="rect5320"
       inkscape:connector-curvature="0"
       d="m -106.344,-39.0625 0,67.5313 21.9377,0 0,-45.7501 c 0,-3.3239 2.5727,-6 5.75,-6 l 4.5625,0 c 3.1774,0 5.7188,2.6761 5.7188,6 l 0,45.7501 21.1875,0 0,-45.7501 c 0,-3.3239 2.5727,-6 5.75,-6 l 4.5312,0 c 3.1774,0 5.75,2.6761 5.75,6 l 0,45.7501 21.93755,0 0,-47.5313 c 0,-11.08 -8.92005,-20 -20.00005,-20 l -77.1252,0 z" />
    <path
       style="fill:#b9daf3;fill-opacity:1;stroke:none"
       id="path5331"
       inkscape:connector-curvature="0"
       d="m -106.344,-39.0625 0,5.9375 77.1252,0 c 11.08,0 20.00005,8.92 20.00005,20 l 0,-5.9375 c 0,-11.08 -8.92005,-20 -20.00005,-20 l -77.1252,0 z" />
  </g>
  <path
     style="opacity:0.3;fill:url(#linearGradient6023);fill-opacity:1;stroke:none"
     id="path5756"
     inkscape:connector-curvature="0"
     d="M 25,50.9077 C 28.606,43.7373 34.7836,35.0029 42.9118,30.229 51.0399,25.455 61.1187,24.6413 66.9974,33.6194 67.2244,60.9208 52.7079,63.2101 47.4867,62.9845 34.3148,62.4153 25,50.9077 25,50.9077 Z" />
  <path
     style="opacity:0.5;fill:#da3900;fill-opacity:1;stroke:none"
     id="path5744"
     inkscape:connector-curvature="0"
     d="m 54.1832,26.7281 c -3.7877,0.084 -7.7153,1.4091 -11.2713,3.4978 -8.1282,4.7739 -14.3029,13.5131 -17.9089,20.6836 0,0 0.1553,0.1827 0.2823,0.3305 3.6411,-7.0631 9.7034,-15.4793 17.6266,-20.1328 8.1281,-4.774 18.2063,-5.5836 24.085,3.3945 0,-0.2925 0,-0.583 0,-0.8814 -3.3068,-5.0501 -7.9438,-7.0005 -12.8137,-6.8922 z" />
  <path
     style="opacity:0.5;fill:#800000;fill-opacity:1;stroke:none"
     id="path5751"
     inkscape:connector-curvature="0"
     d="M 66.9969,33.999 C 66.7726,60.1098 52.6235,62.3272 47.4838,62.1051 35.4133,61.5835 26.6779,51.9784 25.2853,50.3587 c -0.094,0.1827 -0.1913,0.3699 -0.2823,0.5508 0,0 9.3089,11.5077 22.4808,12.0769 5.1967,0.2246 19.6017,-2.0475 19.5131,-28.9874 z" />
  <g
     id="layer1"
     style="display:inline">
    <rect
       width="73"
       height="73"
       rx="3.9460001"
       ry="3.945946"
       x="11.5"
       y="11.5"
       id="rect3690"
       style="opacity:0.05;fill:none;stroke:#000000;stroke-width:9;stroke-miterlimit:4;stroke-opacity:1;stroke-dasharray:none" />
    <rect
       width="73"
       height="73"
       rx="3.9460001"
       ry="3.945946"
       x="11.5"
       y="11.5"
       id="rect3688"
       style="opacity:0.1;fill:none;stroke:#000000;stroke-width:7;stroke-miterlimit:4;stroke-opacity:1;stroke-dasharray:none" />
    <rect
       width="73"
       height="73"
       rx="3.9460001"
       ry="3.945946"
       x="11.5"
       y="11.5"
       id="rect3686"
       style="opacity:0.2;fill:none;stroke:#000000;stroke-width:5;stroke-miterlimit:4;stroke-opacity:1;stroke-dasharray:none" />
    <rect
       width="73"
       height="73"
       rx="3.9460001"
       ry="3.945946"
       x="11.5"
       y="11.5"
       id="rect3682"
       style="fill:none;stroke:#333333;stroke-width:3;stroke-miterlimit:4;stroke-opacity:1;stroke-dasharray:none" />
    <path
       d="M 12,6 C 8.676,6 6,8.676 6,12 l 0,72 c 0,3.324 2.676,6 6,6 l 72,0 c 3.324,0 6,-2.676 6,-6 L 90,12 C 90,8.676 87.324,6 84,6 L 12,6 z m 4,6 64,0 c 2.216,0 4,1.784 4,4 l 0,64 c 0,2.216 -1.784,4 -4,4 l -64,0 c -2.216,0 -4,-1.784 -4,-4 l 0,-64 c 0,-2.216 1.784,-4 4,-4 z"
       inkscape:connector-curvature="0"
       id="rect2419-2"
       style="fill:url(#linearGradient3668);fill-opacity:1;fill-rule:nonzero;stroke:none" />
    <path
       d="M 12,6 C 8.676,6 6,8.676 6,12 l 0,2 0,68 0,2 c 0,0.334721 0.04135,0.6507 0.09375,0.96875 0.0487,0.295596 0.09704,0.596915 0.1875,0.875 0.0099,0.03038 0.02089,0.0636 0.03125,0.09375 0.09886,0.287771 0.23488,0.547452 0.375,0.8125 0.144592,0.273507 0.315616,0.535615 0.5,0.78125 0.184384,0.245635 0.373776,0.473472 0.59375,0.6875 0.439947,0.428056 0.94291,0.814526 1.5,1.09375 0.278545,0.139612 0.573473,0.246947 0.875,0.34375 -0.256202,-0.100222 -0.486711,-0.236272 -0.71875,-0.375 -0.0074,-0.0044 -0.02387,0.0045 -0.03125,0 -0.03193,-0.0193 -0.06229,-0.04251 -0.09375,-0.0625 -0.120395,-0.0767 -0.231023,-0.163513 -0.34375,-0.25 -0.106173,-0.0808 -0.213281,-0.161112 -0.3125,-0.25 C 8.47832,88.557317 8.30879,88.373362 8.15625,88.1875 8.048671,88.057245 7.937856,87.922215 7.84375,87.78125 7.81866,87.74287 7.8053,87.69538 7.78125,87.65625 7.71649,87.553218 7.651022,87.451733 7.59375,87.34375 7.492742,87.149044 7.388075,86.928049 7.3125,86.71875 7.3045,86.69694 7.28891,86.6782 7.28125,86.65625 7.24942,86.5643 7.24545,86.469419 7.21875,86.375 7.188418,86.268382 7.148361,86.171969 7.125,86.0625 7.052121,85.720988 7,85.364295 7,85 L 7,83 7,15 7,13 C 7,10.218152 9.218152,8 12,8 l 2,0 68,0 2,0 c 2.781848,0 5,2.218152 5,5 l 0,2 0,68 0,2 c 0,0.364295 -0.05212,0.720988 -0.125,1.0625 -0.04415,0.206893 -0.08838,0.397658 -0.15625,0.59375 -0.0077,0.02195 -0.0233,0.04069 -0.03125,0.0625 -0.06274,0.173739 -0.138383,0.367449 -0.21875,0.53125 -0.04158,0.0828 -0.07904,0.169954 -0.125,0.25 -0.0546,0.09721 -0.126774,0.18835 -0.1875,0.28125 -0.09411,0.140965 -0.204921,0.275995 -0.3125,0.40625 -0.143174,0.17445 -0.303141,0.346998 -0.46875,0.5 -0.01117,0.0102 -0.01998,0.02115 -0.03125,0.03125 -0.138386,0.125556 -0.285091,0.234436 -0.4375,0.34375 -0.102571,0.07315 -0.204318,0.153364 -0.3125,0.21875 -0.0074,0.0045 -0.02384,-0.0044 -0.03125,0 -0.232039,0.138728 -0.462548,0.274778 -0.71875,0.375 0.301527,-0.0968 0.596455,-0.204138 0.875,-0.34375 0.55709,-0.279224 1.060053,-0.665694 1.5,-1.09375 0.219973,-0.214028 0.409366,-0.441865 0.59375,-0.6875 0.184384,-0.245635 0.355408,-0.507743 0.5,-0.78125 0.14012,-0.265048 0.276135,-0.524729 0.375,-0.8125 0.01041,-0.03078 0.02133,-0.06274 0.03125,-0.09375 0.09046,-0.278085 0.1388,-0.579404 0.1875,-0.875 C 89.95865,84.6507 90,84.334721 90,84 l 0,-2 0,-68 0,-2 C 90,8.676 87.324,6 84,6 L 12,6 z"
       inkscape:connector-curvature="0"
       id="rect3728"
       style="opacity:0.4;fill:url(#linearGradient3188);fill-opacity:1;fill-rule:nonzero;stroke:none" />
    <path
       d="M 12,90 C 8.676,90 6,87.324 6,84 L 6,82 6,14 6,12 c 0,-0.334721 0.04135,-0.6507 0.09375,-0.96875 0.0487,-0.295596 0.09704,-0.596915 0.1875,-0.875 C 6.29113,10.12587 6.302142,10.09265 6.3125,10.0625 6.411365,9.774729 6.5473802,9.515048 6.6875,9.25 6.8320918,8.976493 7.0031161,8.714385 7.1875,8.46875 7.3718839,8.223115 7.5612765,7.995278 7.78125,7.78125 8.221197,7.353194 8.72416,6.966724 9.28125,6.6875 9.559795,6.547888 9.8547231,6.440553 10.15625,6.34375 9.9000482,6.443972 9.6695391,6.580022 9.4375,6.71875 c -0.00741,0.0044 -0.023866,-0.0045 -0.03125,0 -0.031933,0.0193 -0.062293,0.04251 -0.09375,0.0625 -0.120395,0.0767 -0.2310226,0.163513 -0.34375,0.25 -0.1061728,0.0808 -0.2132809,0.161112 -0.3125,0.25 C 8.4783201,7.442683 8.3087904,7.626638 8.15625,7.8125 8.0486711,7.942755 7.9378561,8.077785 7.84375,8.21875 7.818661,8.25713 7.805304,8.30462 7.78125,8.34375 7.716487,8.446782 7.6510225,8.548267 7.59375,8.65625 7.4927417,8.850956 7.3880752,9.071951 7.3125,9.28125 7.30454,9.30306 7.288911,9.3218 7.28125,9.34375 7.2494249,9.4357 7.2454455,9.530581 7.21875,9.625 7.1884177,9.731618 7.1483606,9.828031 7.125,9.9375 7.0521214,10.279012 7,10.635705 7,11 l 0,2 0,68 0,2 c 0,2.781848 2.2181517,5 5,5 l 2,0 68,0 2,0 c 2.781848,0 5,-2.218152 5,-5 l 0,-2 0,-68 0,-2 C 89,10.635705 88.94788,10.279012 88.875,9.9375 88.83085,9.730607 88.78662,9.539842 88.71875,9.34375 88.71105,9.3218 88.69545,9.30306 88.6875,9.28125 88.62476,9.107511 88.549117,8.913801 88.46875,8.75 88.42717,8.6672 88.38971,8.580046 88.34375,8.5 88.28915,8.40279 88.216976,8.31165 88.15625,8.21875 88.06214,8.077785 87.951329,7.942755 87.84375,7.8125 87.700576,7.63805 87.540609,7.465502 87.375,7.3125 87.36383,7.3023 87.35502,7.29135 87.34375,7.28125 87.205364,7.155694 87.058659,7.046814 86.90625,6.9375 86.803679,6.86435 86.701932,6.784136 86.59375,6.71875 c -0.0074,-0.0045 -0.02384,0.0044 -0.03125,0 -0.232039,-0.138728 -0.462548,-0.274778 -0.71875,-0.375 0.301527,0.0968 0.596455,0.204138 0.875,0.34375 0.55709,0.279224 1.060053,0.665694 1.5,1.09375 0.219973,0.214028 0.409366,0.441865 0.59375,0.6875 0.184384,0.245635 0.355408,0.507743 0.5,0.78125 0.14012,0.265048 0.276135,0.524729 0.375,0.8125 0.01041,0.03078 0.02133,0.06274 0.03125,0.09375 0.09046,0.278085 0.1388,0.579404 0.1875,0.875 C 89.95865,11.3493 90,11.665279 90,12 l 0,2 0,68 0,2 c 0,3.324 -2.676,6 -6,6 l -72,0 z"
       inkscape:connector-curvature="0"
       id="path3615"
       style="opacity:0.2;fill:url(#radialGradient2874);fill-opacity:1;fill-rule:nonzero;stroke:none" />
    <path
       d="m 12,80 0,1 c 0,2.216 1.784,4 4,4 l 64,0 c 2.216,0 4,-1.784 4,-4 l 0,-1 c 0,2.216 -1.784,4 -4,4 l -64,0 c -2.216,0 -4,-1.784 -4,-4 z"
       inkscape:connector-curvature="0"
       id="path3692"
       style="opacity:0.2;fill:#d59266;fill-opacity:1;fill-rule:nonzero;stroke:none" />
  </g>
</svg>
