<?xml version="1.0" encoding="UTF-8" standalone="no"?>
<svg
   xmlns:dc="http://purl.org/dc/elements/1.1/"
   xmlns:cc="http://creativecommons.org/ns#"
   xmlns:rdf="http://www.w3.org/1999/02/22-rdf-syntax-ns#"
   xmlns:svg="http://www.w3.org/2000/svg"
   xmlns="http://www.w3.org/2000/svg"
   xmlns:xlink="http://www.w3.org/1999/xlink"
   xmlns:sodipodi="http://sodipodi.sourceforge.net/DTD/sodipodi-0.dtd"
   xmlns:inkscape="http://www.inkscape.org/namespaces/inkscape"
   viewBox="0 0 96 96"
   id="svg2"
   version="1.1"
   inkscape:version="0.91 r"
   sodipodi:docname="spotify.svg">
  <title
     id="title97">spotify</title>
  <metadata
     id="metadata76">
    <rdf:RDF>
      <cc:Work
         rdf:about="">
        <dc:format>image/svg+xml</dc:format>
        <dc:type
           rdf:resource="http://purl.org/dc/dcmitype/StillImage" />
        <dc:title>spotify</dc:title>
        <dc:subject>
          <rdf:Bag>
            <rdf:li>spotify</rdf:li>
            <rdf:li>sound</rdf:li>
            <rdf:li>streaming</rdf:li>
          </rdf:Bag>
        </dc:subject>
        <dc:description>spotify, sound, streaming</dc:description>
      </cc:Work>
    </rdf:RDF>
  </metadata>
  <sodipodi:namedview
     pagecolor="#ffffff"
     bordercolor="#666666"
     borderopacity="1"
     objecttolerance="10"
     gridtolerance="10"
     guidetolerance="10"
     inkscape:pageopacity="0"
     inkscape:pageshadow="2"
     inkscape:window-width="1280"
     inkscape:window-height="965"
     id="namedview74"
     showgrid="false"
     inkscape:zoom="16"
     inkscape:cx="71.2431"
     inkscape:cy="33.1292"
     inkscape:window-x="0"
     inkscape:window-y="27"
     inkscape:window-maximized="1"
     inkscape:current-layer="svg2" />
  <defs
     id="defs4">
    <clipPath
       id="clipPath3613">
      <path
         fill="#fff"
         d="m12,6h72a6,6 0 0,1 6,6v72a6,6 0 0,1 -6,6h-72a6,6 0 0,1 -6-6v-72a6,6 0 0,1 6-6"
         id="path7" />
    </clipPath>
    <filter
       width="1.384"
       x="-.192"
       y="-.192"
       height="1.384"
       color-interpolation-filters="sRGB"
       id="filter3794-6">
      <feGaussianBlur
         stdDeviation="5.28"
         id="feGaussianBlur10" />
    </filter>
    <linearGradient
       gradientTransform="translate(0 -97)"
       id="linearGradient3721"
       xlink:href="#ButtonShadow-0"
       y1="6.132"
       y2="90.239"
       x2="0"
       gradientUnits="userSpaceOnUse" />
    <linearGradient
       id="linearGradient2908"
       xlink:href="#linearGradient3737-9"
       y1="20.221"
       y2="138.661"
       x2="0"
       gradientUnits="userSpaceOnUse" />
    <linearGradient
       gradientTransform="matrix(1.02381 0 0 1.0119 -1.14286 -98.07143)"
       id="linearGradient3780"
       xlink:href="#ButtonShadow-0"
       y1="6.132"
       y2="90.239"
       x2="0"
       gradientUnits="userSpaceOnUse" />
    <linearGradient
       gradientTransform="matrix(1.00587 0 0 .99417 100 0)"
       id="ButtonShadow-0"
       y1="92.54"
       y2="7.017"
       x2="0"
       gradientUnits="userSpaceOnUse">
      <stop
         offset="0"
         id="stop16" />
      <stop
         offset="1"
         stop-opacity=".588"
         id="stop18" />
    </linearGradient>
    <linearGradient
       id="linearGradient3737">
      <stop
         offset="0"
         stop-color="#fff"
         id="stop21" />
      <stop
         offset="1"
         stop-color="#fff"
         stop-opacity="0"
         id="stop23" />
    </linearGradient>
    <linearGradient
       id="linearGradient3700">
      <stop
         offset="0"
         stop-color="#7fb718"
         id="stop26" />
      <stop
         offset="1"
         stop-color="#7fb718"
         id="stop28" />
    </linearGradient>
    <linearGradient
       id="linearGradient3706"
       xlink:href="#linearGradient3700"
       y1="90"
       y2="5.988"
       x2="0"
       gradientUnits="userSpaceOnUse" />
    <linearGradient
       id="linearGradient3188"
       xlink:href="#linearGradient3737"
       y1="6"
       y2="63.893"
       x2="0"
       gradientUnits="userSpaceOnUse" />
    <linearGradient
       id="linearGradient3737-9">
      <stop
         offset="0"
         stop-color="#fff"
         id="stop33" />
      <stop
         offset="1"
         stop-color="#fff"
         stop-opacity="0"
         id="stop35" />
    </linearGradient>
    <radialGradient
       cx="48"
       cy="90.172"
       gradientTransform="matrix(1.15731,0,0,0.99591,-7.55102,0.19713)"
       r="42"
       id="radialGradient2874"
       gradientUnits="userSpaceOnUse">
      <stop
         offset="0"
         stop-color="#fff"
         id="stop38" />
      <stop
         offset="1"
         stop-color="#fff"
         stop-opacity="0"
         id="stop40" />
    </radialGradient>
  </defs>
  <path
     opacity=".08"
     fill="url(#linearGradient3780)"
     d="m12-95.0312c-5.5111,0-10.0312,4.5202-10.0312,10.0312v71c0,5.5111 4.5202,10.0312 10.0312,10.0312h72c5.5111,0 10.0312-4.5202 10.0312-10.0312v-71c0-5.5111-4.5202-10.0312-10.0312-10.0312h-72z"
     transform="scale(1 -1)"
     id="path42" />
  <path
     opacity=".1"
     fill="url(#linearGradient3780)"
     d="m12-94.0312c-4.9716,0-9.0312,4.0596-9.0312,9.0312v71c0,4.9716 4.0596,9.0312 9.0312,9.0312h72c4.9716,0 9.0312-4.0596 9.0312-9.0312v-71c0-4.9716-4.0596-9.0312-9.0312-9.0312h-72z"
     transform="scale(1 -1)"
     id="path44" />
  <path
     opacity=".2"
     fill="url(#linearGradient3780)"
     d="m12-93c-4.4091,0-8,3.5909-8,8v71c0,4.4091 3.5909,8 8,8h72c4.4091,0 8-3.5909 8-8v-71c0-4.4091-3.5909-8-8-8h-72z"
     transform="scale(1 -1)"
     id="path46" />
  <path
     opacity=".3"
     fill="url(#linearGradient3780)"
     d="m12-92h72a7,7 0 0,1 7,7v71a7,7 0 0,1 -7,7h-72a7,7 0 0,1 -7-7v-71a7,7 0 0,1 7-7"
     transform="scale(1 -1)"
     id="path48" />
  <path
     opacity=".45"
     fill="url(#linearGradient3721)"
     d="m12-91h72a6,6 0 0,1 6,6v72a6,6 0 0,1 -6,6h-72a6,6 0 0,1 -6-6v-72a6,6 0 0,1 6-6"
     transform="scale(1 -1)"
     id="path50" />
  <path
     fill="url(#linearGradient3706)"
     d="m12,6h72a6,6 0 0,1 6,6v72a6,6 0 0,1 -6,6h-72a6,6 0 0,1 -6-6v-72a6,6 0 0,1 6-6"
     id="path52" />
  <path
     style="opacity:0.5;fill:url(#linearGradient3188)"
     d="M 12,6 C 8.11425,5.86322 5.41842,9.7916 6,13.4226 6.01817,37.1117 5.96368,60.8028 6.02721,84.4906 5.28209,86.8321 10.5384,90.3041 9.3125,89.2189 6.06848,87.1934 7.20936,83.0941 7,79.918 7.01709,57.4408 6.96584,34.9619 7.02559,12.4857 7.23712,9.18528 10.6966,7.53718 13.6597,8.0003 37.2778,8.01738 60.8976,7.96615 84.5146,8.02589 87.815,8.23742 89.4631,11.6969 89,14.66 c -0.023,23.6263 0.047,47.2557 -0.035,70.8801 0.6395,2.1759 -4.9497,5.3487 -1.452,3.2815 3.5336,-2.4814 2.2373,-6.9817 2.4873,-10.6151 -0.021,-22.2736 0.041,-44.5493 -0.031,-66.8216 C 89.7162,7.60958 85.8109,5.47608 82.3404,6.0001 58.8936,6.00003 35.4467,6.00023 12,6 Z"
     id="path54"
     inkscape:connector-curvature="0" />
  <path
     style="opacity:0.25;fill:url(#radialGradient2874)"
     d="M 12,90 C 8.11425,90.1368 5.41842,86.2084 6,82.5774 6.01817,58.8883 5.96368,35.1972 6.02721,11.5094 5.28209,9.16789 10.5384,5.69592 9.3125,6.7811 6.06848,8.80663 7.20936,12.9059 7,16.082 c 0.0171,22.4772 -0.0342,44.9561 0.0256,67.4323 0.21153,3.3004 3.67101,4.9485 6.63411,4.4854 23.6181,-0.017 47.2379,0.034 70.8549,-0.026 3.3004,-0.2115 4.9485,-3.671 4.4854,-6.6341 -0.023,-23.6263 0.047,-47.2557 -0.035,-70.8801 0.6395,-2.17591 -4.9497,-5.34874 -1.452,-3.28154 3.5336,2.48139 2.2373,6.98174 2.4873,10.61514 -0.021,22.2736 0.041,44.5493 -0.031,66.8216 -0.253,3.7753 -4.1583,5.9088 -7.6288,5.3848 C 58.8936,90 35.4467,89.9998 12,90 Z"
     id="path56"
     inkscape:connector-curvature="0" />
  <path
     d="m 27,15 42,0 a 12,12 0 0 1 12,12 l 0,42 A 12,12 0 0 1 69,81 L 27,81 A 12,12 0 0 1 15,69 L 15,27 A 12,12 0 0 1 27,15"
     clip-path="url(#clipPath3613)"
     id="path58"
     style="opacity:0.15;fill:url(#linearGradient2908);stroke:#ffffff;stroke-width:0.5;stroke-linecap:round;filter:url(#filter3794-6)"
     inkscape:connector-curvature="0"
     transform="translate(0,-0.25)" />
  <path
     d="m 70.7812,58.5312 c -1.996,0.028 -3.6709,-0.113 -5.1563,1.2185 -0.2727,0.317 -0.5843,0.8267 -0.7188,1.375 -0.1535,0.8104 -0.1556,1.3526 -0.1562,2.0625 -0.2273,-0.035 -0.4779,0.022 -0.6876,0.031 l 0,-1.9687 c 0.01,-0.7969 -0.6406,-1.4449 -1.4375,-1.4375 l -2.3124,0 c -0.7969,-0.01 -1.4449,0.6406 -1.4375,1.4375 l 0,0.9375 c -0.051,0.3996 0.077,0.68 0.124,1 -0.7021,0.06 -1.3475,0 -2.0938,0 l 0,-1.9375 c 0.01,-0.7969 -0.6406,-1.4449 -1.4375,-1.4375 l -2.3124,0 c -0.8223,-0.01 -1.4812,0.6788 -1.4375,1.5 0.035,0.6245 0.047,1.3053 0.062,1.9057 -0.1502,-0.033 -0.27,0.083 -0.4062,0.125 -1.1294,-2.1455 -3.2833,-3.5264 -5.8125,-3.5625 -3.0653,-0.044 -5.6983,1.8935 -6.625,4.9062 l 0,0.031 c -1.0378,-1.0492 -2.4267,-1.7491 -4,-1.75 -0.9655,-6e-4 -1.8237,0.2549 -2.5938,0.625 -0.2671,-0.2613 -0.6263,-0.4072 -1,-0.4062 l -1.8125,0 -1.1875,0 0,-1.0625 c 0.025,-0.8091 -0.628,-1.4766 -1.4375,-1.4688 -0.9967,-0.012 -2.1043,-0.171 -2.5313,0.3125 -0.1146,0.072 -0.1256,0.2067 -0.2188,0.3125 -1.103,-0.6214 -2.3153,-0.993 -3.5312,-0.9375 -1.8586,0.085 -3.6821,0.936 -4.875,2.5 -0.634,0.8312 -0.9036,1.8225 -0.9688,2.8125 -0.065,0.99 0.061,2.0154 0.5312,2.9375 0.4953,0.9709 1.2847,1.8196 2.3125,2.3438 1.0278,0.5241 2.2127,0.7652 3.8125,0.9688 2.2661,0.021 3.2821,2.0939 0.34,2.1494 -0.7993,-0.017 -1.7954,-0.7701 -2.2706,-1.5388 -0.2366,-0.3828 -0.4493,-0.6766 -1.0587,-0.9794 -0.8654,-0.3447 -1.5257,-0.2615 -2.4482,-0.2812 -0.7969,-0.01 -1.4449,0.3533 -1.4375,1.1502 -0.014,2.5585 -0.4451,7.34 2.3122,7.0624 1.3027,0.1818 2.0941,-0.5251 2.4372,-1.6245 1.038,0.6094 2.1419,1.0312 3.4062,1.0312 1.448,0 2.7044,-0.5116 3.7812,-1.2812 -0.2517,0.7431 -0.1875,1.378 -0.1875,2.1563 -0.01,0.7969 0.6406,1.4449 1.4375,1.4375 l 5.0624,0 c 0.8231,-0.01 1.468,-0.7104 1.4062,-1.5312 0.033,-0.7267 -0.194,-1.4805 -0.3745,-2.0624 2.2023,0.4123 4.6363,-0.47 5.9375,-2.5312 0.4805,-0.7611 0.7309,-1.591 0.9062,-2.5 0.7688,0.8086 1.6781,1.4715 2.8125,1.8438 1.7532,0.4283 3.478,0.035 5,-0.5 1.5951,-0.8138 2.6794,-2.2745 3.2812,-3.9375 0.099,1.6223 -0.031,3.4257 0.3438,4.8437 0.2907,1.0555 1.2202,1.8482 1.9688,2.2188 1.4374,0.6203 2.7931,0.6532 4.1562,0.3123 0.2391,0.1641 0.5225,0.2513 0.8125,0.25 l 4.8437,0 c 0.1709,-10e-4 0.3403,-0.033 0.5,-0.094 0.177,0.08 0.3684,0.1221 0.5625,0.125 1.6459,-0.041 3.2917,-0.083 4.9376,-0.124 0.7371,-0.024 1.3337,-0.6074 1.375,-1.3438 0.04,-0.5938 0.082,-1.1875 0.124,-1.7812 0.062,-0.8208 -0.5831,-1.523 -1.4062,-1.5312 -0.064,-1.6798 -0.031,-3.1611 -0.031,-4.875 l 0.375,0 c 1.0514,2.788 2.0875,5.5818 3.125,8.375 0.09,0.508 -1.0318,0.3035 -1.5312,0.3438 -0.7357,0.058 -1.3053,0.6682 -1.3125,1.4062 l 0,1.9063 c -0.01,0.8223 0.6782,1.2257 1.5,1.1944 1.118,-0.042 2.3608,0.1059 3.375,-0.038 2.8087,-1.3832 3.3781,-5.4774 4.1876,-7.9063 0.9336,-2.8031 1.4639,-4.3569 1.7812,-5.125 0.1638,-0.5634 0.365,-0.5394 0.5624,-0.7812 3.3753,1.6408 5.8194,-0.04 4.8753,-3.1563 -0.4681,-0.8572 -1.1743,-0.8935 -2,-0.9063 -0.4322,-0.1243 -1.0503,-0.072 -1.281,0.031 -0.5324,-0.1664 -1.1138,-0.1415 -1.4998,0.031 -0.1747,-0.09 -0.3662,-0.1435 -0.5625,-0.1562 l -4.4376,0 c -0.5227,0 -1.0025,0.2896 -1.25,0.75 -0.2475,-0.4604 -0.7273,-0.7483 -1.25,-0.75 l -3.0625,0 -1.6562,0 c 0,-0.029 -5e-4,-0.052 0,-0.062 l 0.1562,0 c 0.7068,0.081 1.3146,-0.2548 1.75,-0.625 0.3962,-0.3368 0.3807,-0.7868 0.4062,-1.0312 0.046,-0.5129 0.031,-0.9666 0.031,-1.5 0.01,-0.8095 -0.6597,-1.4628 -1.4688,-1.4375 z m -25.3126,6.0625 c 1.3089,-0.043 1.4872,1.385 1.4779,2.6412 -0.084,1.3762 -0.5549,2.5645 -1.6678,2.5285 -0.9273,-0.03 -1.3681,-1.4943 -1.3726,-2.3262 -0.019,-1.3916 0.5528,-2.81 1.5625,-2.8435 z M 23.7812,66.875 c -1.4451,-0.3565 -2.6186,-0.2899 -3.9063,-1.0313 1.0474,-1.3904 3.0106,-0.1665 3.9063,1.0313 z M 75.8124,66.25 c -0.041,0.6682 0.2184,0.8279 0.6875,1.2188 -0.1509,0.4996 -0.3308,1.0744 -0.5312,1.7188 -0.2592,-0.6856 -0.5027,-1.3375 -0.7188,-1.9688 0.4671,-0.1962 0.453,-0.5491 0.5625,-0.9688 z m -16.9375,1.3438 0,5.4375 c -0.075,0.025 -0.1356,0.1152 -0.2188,0.1562 -0.5125,-0.3835 -1.138,-0.3249 -1.7498,-0.3125 0.018,-1.7705 0,-3.1578 0,-4.937 0.7421,0.1189 1.3945,-0.088 1.9687,-0.3438 z m 5.2188,0 c 0.1908,0.1759 0.4557,0.1734 0.6563,0.2498 l 0,5.1875 c -0.2371,0.3532 -0.381,-0.04 -0.5937,-0.062 -0.041,-1.9519 -0.062,-3.458 -0.062,-5.3747 z m -36.6562,0.062 c 0.278,0.307 0.125,0.9436 0.125,1.3752 -0.3311,-0.6319 -0.7621,-0.8774 -1.3438,-1.1559 0.4262,-0.01 0.8458,-0.1357 1.2188,-0.2193 z m 6.7812,0.062 c 1.2669,0.1154 1.3384,1.6898 1.4095,2.5952 0.033,1.3314 -0.3136,2.4396 -1.3368,2.4877 -1.3682,0.064 -1.413,-1.8272 -1.4165,-2.5202 0.043,-1.3731 0.3438,-2.4925 1.3438,-2.5624 z"
     transform="translate(0,2)"
     id="path60"
     inkscape:connector-curvature="0"
     style="fill:#599227"
     sodipodi:nodetypes="ccccccccccccccccccccccccccccccccsscccccccccsccccccccccccccccccccccccccccsccccccccccccccccsccccscscscccccccccccccccccccccccccccsccc" />
  <path
     d="m 70.8165,61.9599 -1.8028,0.052 c -1.6724,0.069 -1.8292,0.1328 -2.2993,0.6793 -0.4439,0.5161 -0.5226,0.7858 -0.5226,2.247 l 0,1.6722 -0.9406,0 -0.9667,0 0.052,0.8884 c 0.064,0.8884 0.078,0.9025 0.9667,0.9667 l 0.8884,0.052 0,3.8931 0,3.8669 -0.6271,0 c -0.6075,0 -0.6271,0.023 -0.6271,0.9406 l 0,0.9667 c 1.6335,-0.06 3.4672,-0.031 4.9382,-0.064 0.024,-0.5937 0.012,-1.163 0.042,-1.8431 -0.467,0 -0.9339,0 -1.4009,0 l 0,-3.8931 0,-3.8931 1.4109,0.026 1.4109,0 1.8551,4.9382 1.829,4.9643 -0.3658,0.7577 c -0.3507,0.7172 -0.4274,0.7765 -1.4632,0.8361 l -1.1235,0.078 0,0.9406 0,0.8783 1.6983,0.01 c 1.3818,-0.017 1.7504,-0.1566 2.0902,-0.4964 0.2589,-0.2589 1.23,-2.8509 2.4822,-6.6104 1.8702,-5.6151 2.1211,-6.2141 2.5867,-6.323 0.4287,-0.1003 0.5208,-0.2532 0.5748,-0.9929 l 0.052,-0.8884 -2.2209,0 -2.2209,0 0,0.9406 c 0,0.8683 0.04,0.9406 0.5226,0.9406 0.2888,0 0.5487,0.1045 0.5487,0.209 0,0.1569 -1.6583,5.4645 -2.038,6.532 -0.086,0.2424 -1.7277,-3.9099 -2.5083,-6.3491 -0.08,-0.2496 0.024,-0.3696 0.3658,-0.418 0.4035,-0.057 0.4946,-0.2191 0.5487,-0.9667 l 0.078,-0.8884 -3.057,0 -3.057,0 0,-1.2541 c 0,-1.4191 0.2285,-1.6722 1.5416,-1.6722 0.737,0 0.7577,-0.014 0.7577,-0.8622 l 0,-0.8622 z M 45.5246,63.214 c -2.5379,-0.036 -4.4218,1.365 -5.1995,3.8931 -1.0815,3.516 0.4592,6.9105 3.6057,7.9429 0.8756,0.2873 2.9839,0.059 3.9192,-0.418 2.5449,-1.2983 3.732,-5.0124 2.5867,-8.0735 -0.7848,-2.0975 -2.577,-3.3111 -4.9121,-3.3444 z m 7.6294,0.026 c 0.045,1.0883 0.061,2.1771 0.078,3.266 l -0.8622,0.078 c -0.8503,0.063 -0.871,0.074 -0.7577,0.7316 0.1922,1.1156 0.2708,1.1758 0.9145,1.1758 l 0.6271,0 0.052,3.8408 c 0.086,4.3571 0.1996,4.7572 1.5154,5.4085 1.143,0.5658 3.2095,0.5956 3.3183,0.052 0.04,-0.2022 0.045,-0.6229 0,-0.9406 -0.073,-0.517 -0.1576,-0.5748 -0.8884,-0.5748 -0.5363,0 -0.9781,-0.142 -1.2541,-0.418 -0.3862,-0.3862 -0.418,-0.7071 -0.418,-3.8931 l 0,-3.475 2.4821,0 c 0.052,-0.6271 0.1044,-1.2541 0.1566,-1.8812 l -2.6389,0 0,-3.3705 -1.1758,0 -1.1496,0 z m 7.1591,0 0,0.9406 c 0,1.0376 0.1089,1.1254 1.4109,1.1496 l 0.9145,0.026 0,-2.1163 -2.3254,0 z m -39.61,0.5487 c -1.4666,0.067 -2.9012,0.7358 -3.8147,1.9335 -0.7869,1.0317 -0.9179,2.9707 -0.2874,4.2066 0.8039,1.5758 1.9528,2.1707 5.0166,2.5605 0.9545,0.1214 2.0132,0.3476 2.3515,0.5226 1.3495,0.6978 1.6721,2.1221 0.7316,3.2399 -1.481,1.7601 -4.7553,1.1855 -6.1662,-1.0974 -0.4335,-0.7014 -0.556,-0.7577 -1.5154,-0.7577 l -1.019,0 0,2.4299 c 0,1.3363 0.089,2.5983 0.209,2.8218 0.2487,0.4646 1.3526,0.5752 1.6199,0.1568 0.092,-0.1444 0.2023,-0.7703 0.2613,-1.3848 l 0.1045,-1.1235 0.8884,0.7577 c 1.1913,1.0221 2.1188,1.3848 3.6318,1.3848 1.505,0 2.5671,-0.4095 3.5273,-1.3325 0.927,-0.8911 1.3064,-1.8253 1.3064,-3.2921 0,-3.0704 -1.766,-4.4443 -6.3752,-4.9643 -2.1212,-0.2393 -3.3511,-1.5245 -2.5867,-2.6912 0.5936,-0.906 1.3623,-1.2803 2.6651,-1.2803 1.4126,0 2.697,0.7215 3.3966,1.9073 0.7603,0.8968 1.1432,0.6685 2.2311,0.6794 9e-4,-1.587 0.011,-2.9261 0.041,-4.3631 l -0.9406,0 c -0.9185,0 -0.9667,0.02 -0.9667,0.6271 0,0.3466 -0.046,0.6271 -0.1045,0.6271 -0.059,0 -0.4773,-0.2654 -0.9406,-0.6009 -0.9683,-0.7014 -2.1253,-1.0188 -3.266,-0.9667 z m 24.6126,1.3587 c 1.7458,0 2.6726,0.8285 3.0308,2.7173 0.2453,2.6722 -0.3902,5.3926 -3.1092,5.4607 -1.9017,-0.03 -2.7535,-2.5594 -2.7696,-3.8931 0.1039,-2.2975 0.7676,-4.2251 2.848,-4.285 z M 34.943,66.4016 c -1.3857,-8e-4 -2.1782,0.279 -2.848,1.019 -0.5481,0.6057 -0.7577,0.5598 -0.7577,-0.1829 l 0,-0.6271 -1.8028,0 -1.7767,0 0,0.9406 c 0,0.9103 0.02,0.9406 0.6271,0.9406 l 0.6271,0 0,5.6959 0,5.6698 -0.6271,0 c -0.6069,0 -0.6271,0.03 -0.6271,0.9406 l 0,0.9406 2.5344,0 2.5344,0 -0.078,-0.8883 c -0.06,-0.8357 -0.089,-0.9079 -0.6793,-0.9145 l -0.6602,0 c -0.032,-1.0573 -0.01,-2.1746 -0.019,-3.2398 0.05,0 0.4145,0.2821 0.7838,0.6271 1.8248,1.7046 4.9761,1.1974 6.3752,-1.019 0.7104,-1.1254 0.9654,-2.2001 0.9667,-4.076 0,-3.6139 -1.7337,-5.8249 -4.5724,-5.8265 z m 24.1161,0.209 0,0.8361 c 0,0.7936 0.032,0.8361 0.6271,0.8361 l 0.6271,0 0,3.9976 0,3.9976 -0.6271,0 c -0.6069,0 -0.6271,0.03 -0.6271,0.9406 l 0,0.9406 4.8337,0 0,-0.9145 c 0,-0.8598 -0.041,-0.9576 -0.5748,-1.019 l -0.5748,-0.052 -0.078,-4.7814 -0.052,-4.7814 -3.5534,0 z m 23.8549,0 c -0.5785,0 -0.7023,0.075 -0.6009,0.3397 0.1036,0.2699 0.1559,0.2795 0.3135,0.052 0.1299,-0.1872 0.1817,-0.03 0.1306,0.4964 -0.053,0.5453 -0.01,0.7838 0.1829,0.7838 0.1748,0 0.2854,-0.2794 0.2874,-0.7838 0,-0.586 0.057,-0.7047 0.209,-0.4703 0.174,0.2693 0.1801,0.2619 0.1829,-0.052 0,-0.2801 -0.1503,-0.3658 -0.7055,-0.3658 z m 2.4299,0 c -0.1223,0.041 -0.2439,0.215 -0.3397,0.5748 l -0.1568,0.5748 -0.209,-0.5748 c -0.3011,-0.8626 -0.6793,-0.7156 -0.6793,0.2613 0,0.8683 0.2883,1.2059 0.3135,0.3658 l 0.026,-0.4703 0.2352,0.4703 c 0.1254,0.26 0.294,0.4703 0.3919,0.4703 0.098,0 0.1738,-0.2103 0.1829,-0.4703 0.016,-0.4457 0.061,-0.3929 0.3135,0.418 0.168,0.5393 0.3135,0.2359 0.3135,-0.6793 0,-0.679 -0.1881,-1.0089 -0.3919,-0.9406 z m -51.2631,1.6983 c 0.6415,-0.062 1.289,0.07 1.6983,0.3919 1.1944,0.9395 1.6838,4.1397 0.9145,6.0094 -0.6656,1.6176 -2.3477,2.2034 -3.684,1.3064 -1.1048,-0.7415 -1.5677,-1.8525 -1.5677,-3.7363 0,-1.7945 0.5254,-3.0161 1.5677,-3.6318 0.3044,-0.1798 0.6863,-0.3022 1.0712,-0.3397 z"
     id="path62"
     inkscape:connector-curvature="0"
     style="fill:#ffffff"
     sodipodi:nodetypes="cccsccccccccssccccccccccccccccsscccccssscccccccsssccccsccccccccscccccssscccccccccsccccccsccccscscccccssssssccccsscccccccccccscccsscccssccccccccscccccscccssccsccccccccccscccccccccscccssssccccccscccc" />
  <g
     stroke-linecap="round"
     id="g64">
    <path
       fill="#59962e"
       stroke="#59962e"
       d="m43.4037,60.0319c3.8839-.6696 6.6071,.8482 6.6071,.8482"
       id="path66" />
    <path
       fill="#4b8123"
       stroke="#4b8123"
       stroke-width="1.4"
       d="m42.9126,57.7673c4.7321-1.0268 8.125,1.0714 8.125,1.0714"
       id="path68" />
    <path
       fill="#3c721e"
       stroke="#3b6f1d"
       stroke-width="1.8"
       d="m42.574,54.9962c5.2679-1.2946 9.5536,1.0268 9.5536,1.0268"
       id="path70" />
  </g>
  <path
     d="m 47.2999,16.4791 c -1.306,0.038 -2.6174,0.1809 -3.9376,0.4922 a 1.4925,1.4925 0 0 0 0.6836,2.8985 c 8.9981,-2.1218 18.0036,3.4163 20.1254,12.4143 0.5704,2.4191 0.5798,4.981 0.055,7.4103 a 1.4862,1.4862 0 1 0 2.8985,0.5742 C 67.743,37.4072 67.7417,34.4771 67.0698,31.6278 64.8906,22.3866 56.4418,16.2119 47.2999,16.479 Z m 0.4375,6.3986 c -0.6595,0.01 -1.3203,0.052 -1.9961,0.1641 a 1.4948,1.4948 0 1 0 0.4649,2.9532 c 5.6248,-0.9353 10.9047,2.8246 11.8401,8.4494 0.167,1.0042 0.188,2.026 0.055,3.0352 a 1.4908,1.4908 0 1 0 2.9532,0.4102 c 0.1719,-1.3006 0.1605,-2.6434 -0.055,-3.9376 -1.049,-6.3081 -6.448,-10.8414 -12.6057,-11.0744 -0.2199,-0.01 -0.4364,0 -0.6563,0 z m -8.6955,3.7462 a 1.4862,1.4862 0 0 0 -0.875,0.4922 c -4.7567,5.1405 -4.6832,13.1561 0.1641,18.2113 5.0581,5.2751 13.4558,5.4409 18.7309,0.3828 A 1.4907,1.4907 0 0 0 55.0384,43.55 C 50.9227,47.4964 44.4103,47.3649 40.4639,43.2492 36.6849,39.308 36.6461,33.1472 40.3545,29.1395 a 1.4862,1.4862 0 0 0 -1.1485,-2.5157 1.4862,1.4862 0 0 0 -0.1641,0 z m 8.8596,5.086 c -2.4353,0 -4.4024,1.9945 -4.4024,4.4298 0,2.4353 1.9671,4.4024 4.4024,4.4024 2.4353,0 4.4024,-1.9671 4.4024,-4.4024 0,-2.4353 -1.9671,-4.4298 -4.4024,-4.4298 z"
     id="path72"
     inkscape:connector-curvature="0"
     style="fill:#4b8123" />
</svg>
