<?xml version="1.0" encoding="UTF-8" standalone="no"?>
<!-- Created with Inkscape (http://www.inkscape.org/) -->

<svg
   xmlns:dc="http://purl.org/dc/elements/1.1/"
   xmlns:cc="http://creativecommons.org/ns#"
   xmlns:rdf="http://www.w3.org/1999/02/22-rdf-syntax-ns#"
   xmlns:svg="http://www.w3.org/2000/svg"
   xmlns="http://www.w3.org/2000/svg"
   xmlns:xlink="http://www.w3.org/1999/xlink"
   xmlns:sodipodi="http://sodipodi.sourceforge.net/DTD/sodipodi-0.dtd"
   xmlns:inkscape="http://www.inkscape.org/namespaces/inkscape"
   version="1.0"
   width="96"
   height="96"
   id="svg2408"
   inkscape:version="0.91 r"
   sodipodi:docname="x-gish.svg">
  <title
     id="title124">gish</title>
  <sodipodi:namedview
     pagecolor="#ffffff"
     bordercolor="#666666"
     borderopacity="1"
     objecttolerance="10"
     gridtolerance="10"
     guidetolerance="10"
     inkscape:pageopacity="0"
     inkscape:pageshadow="2"
     inkscape:window-width="1280"
     inkscape:window-height="965"
     id="namedview116"
     showgrid="false"
     inkscape:zoom="4.91667"
     inkscape:cx="20.5434"
     inkscape:cy="44.5709"
     inkscape:window-x="0"
     inkscape:window-y="27"
     inkscape:window-maximized="1"
     inkscape:current-layer="svg2408" />
  <defs
     id="defs2410">
    <linearGradient
       id="linearGradient4411">
      <stop
         id="stop4413"
         style="stop-color:#806451;stop-opacity:1"
         offset="0" />
      <stop
         id="stop4415"
         style="stop-color:#c5a590;stop-opacity:1"
         offset="1" />
    </linearGradient>
    <linearGradient
       id="linearGradient4137">
      <stop
         id="stop4139"
         style="stop-color:#fad34b;stop-opacity:1"
         offset="0" />
      <stop
         id="stop4141"
         style="stop-color:#fabc37;stop-opacity:1"
         offset="1" />
    </linearGradient>
    <linearGradient
       id="linearGradient4096">
      <stop
         id="stop4098"
         style="stop-color:#74686c;stop-opacity:1"
         offset="0" />
      <stop
         id="stop4100"
         style="stop-color:#e4e1e2;stop-opacity:1"
         offset="1" />
    </linearGradient>
    <linearGradient
       id="linearGradient4072">
      <stop
         id="stop4074"
         style="stop-color:#3d566e;stop-opacity:1"
         offset="0" />
      <stop
         id="stop4076"
         style="stop-color:#3d566e;stop-opacity:0"
         offset="1" />
    </linearGradient>
    <linearGradient
       id="linearGradient4015">
      <stop
         id="stop4017"
         style="stop-color:#ffffff;stop-opacity:1"
         offset="0" />
      <stop
         id="stop4019"
         style="stop-color:#ffffff;stop-opacity:0"
         offset="1" />
    </linearGradient>
    <linearGradient
       x1="45.447727"
       y1="92.539597"
       x2="45.447727"
       y2="7.0165396"
       id="ButtonShadow"
       gradientUnits="userSpaceOnUse"
       gradientTransform="scale(1.0058652,0.994169)">
      <stop
         id="stop3750"
         style="stop-color:#000000;stop-opacity:1"
         offset="0" />
      <stop
         id="stop3752"
         style="stop-color:#000000;stop-opacity:0.58823532"
         offset="1" />
    </linearGradient>
    <linearGradient
       id="linearGradient3737">
      <stop
         id="stop3739"
         style="stop-color:#ffffff;stop-opacity:1"
         offset="0" />
      <stop
         id="stop3741"
         style="stop-color:#ffffff;stop-opacity:0"
         offset="1" />
    </linearGradient>
    <filter
       color-interpolation-filters="sRGB"
       id="filter3174">
      <feGaussianBlur
         id="feGaussianBlur3176"
         stdDeviation="1.71" />
    </filter>
    <linearGradient
       x1="36.357143"
       y1="6"
       x2="36.357143"
       y2="63.893143"
       id="linearGradient3188"
       xlink:href="#linearGradient3737"
       gradientUnits="userSpaceOnUse" />
    <filter
       x="-0.192"
       y="-0.192"
       width="1.3839999"
       height="1.3839999"
       color-interpolation-filters="sRGB"
       id="filter3794">
      <feGaussianBlur
         id="feGaussianBlur3796"
         stdDeviation="5.28" />
    </filter>
    <linearGradient
       x1="48"
       y1="20.220806"
       x2="48"
       y2="138.66119"
       id="linearGradient3613"
       xlink:href="#linearGradient3737"
       gradientUnits="userSpaceOnUse" />
    <radialGradient
       cx="48"
       cy="90.171875"
       r="42"
       fx="48"
       fy="90.171875"
       id="radialGradient3619"
       xlink:href="#linearGradient3737"
       gradientUnits="userSpaceOnUse"
       gradientTransform="matrix(1.15731,0,0,0.995908,-7.55102,0.197132)" />
    <clipPath
       id="clipPath3613">
      <rect
         width="84"
         height="84"
         rx="6"
         ry="6"
         x="6"
         y="6"
         id="rect3615"
         style="fill:#ffffff;fill-opacity:1;fill-rule:nonzero;stroke:none" />
    </clipPath>
    <linearGradient
       x1="48"
       y1="90"
       x2="48"
       y2="5.9877172"
       id="linearGradient3617"
       xlink:href="#linearGradient4411"
       gradientUnits="userSpaceOnUse" />
    <linearGradient
       x1="45.447727"
       y1="92.539597"
       x2="45.447727"
       y2="7.0165396"
       id="ButtonShadow-0"
       gradientUnits="userSpaceOnUse"
       gradientTransform="matrix(1.0058652,0,0,0.994169,100,0)">
      <stop
         id="stop3750-8"
         style="stop-color:#000000;stop-opacity:1"
         offset="0" />
      <stop
         id="stop3752-5"
         style="stop-color:#000000;stop-opacity:0.58823532"
         offset="1" />
    </linearGradient>
    <linearGradient
       x1="32.251034"
       y1="6.1317081"
       x2="32.251034"
       y2="90.238609"
       id="linearGradient3780"
       xlink:href="#ButtonShadow-0"
       gradientUnits="userSpaceOnUse"
       gradientTransform="matrix(1.0238095,0,0,1.0119048,-1.1428571,-98.071429)" />
    <linearGradient
       x1="32.251034"
       y1="6.1317081"
       x2="32.251034"
       y2="90.238609"
       id="linearGradient3772"
       xlink:href="#ButtonShadow-0"
       gradientUnits="userSpaceOnUse"
       gradientTransform="matrix(1.0238095,0,0,1.0119048,-1.1428571,-98.071429)" />
    <linearGradient
       x1="32.251034"
       y1="6.1317081"
       x2="32.251034"
       y2="90.238609"
       id="linearGradient3725"
       xlink:href="#ButtonShadow-0"
       gradientUnits="userSpaceOnUse"
       gradientTransform="matrix(1.0238095,0,0,1.0119048,-1.1428571,-98.071429)" />
    <linearGradient
       x1="32.251034"
       y1="6.1317081"
       x2="32.251034"
       y2="90.238609"
       id="linearGradient3721"
       xlink:href="#ButtonShadow-0"
       gradientUnits="userSpaceOnUse"
       gradientTransform="translate(0,-97)" />
    <linearGradient
       x1="32.251034"
       y1="6.1317081"
       x2="32.251034"
       y2="90.238609"
       id="linearGradient3026"
       xlink:href="#ButtonShadow-0"
       gradientUnits="userSpaceOnUse"
       gradientTransform="matrix(1.0238095,0,0,1.0119048,-1.1428571,-98.071429)" />
    <radialGradient
       cx="-495.98746"
       cy="-87.834587"
       r="88.03125"
       fx="-495.98746"
       fy="-87.834587"
       id="radialGradient4289"
       xlink:href="#linearGradient4072"
       gradientUnits="userSpaceOnUse"
       gradientTransform="matrix(1,0,0,1.020044,0,19.475803)" />
    <radialGradient
       cx="-174.5798"
       cy="109.85793"
       r="8.8871508"
       fx="-174.5798"
       fy="109.85793"
       id="radialGradient4291"
       xlink:href="#linearGradient4015"
       gradientUnits="userSpaceOnUse"
       gradientTransform="matrix(1.4045539,-0.00938817,0.00459488,0.78380632,70.122153,22.111605)" />
    <radialGradient
       cx="-174.5798"
       cy="109.85793"
       r="8.8871508"
       fx="-174.5798"
       fy="109.85793"
       id="radialGradient4293"
       xlink:href="#linearGradient4015"
       gradientUnits="userSpaceOnUse"
       gradientTransform="matrix(1.5221657,0.05440008,-0.01699086,0.54206939,93.026167,59.804466)" />
    <radialGradient
       cx="-174.5798"
       cy="109.85793"
       r="8.8871508"
       fx="-174.5798"
       fy="109.85793"
       id="radialGradient4295"
       xlink:href="#linearGradient4015"
       gradientUnits="userSpaceOnUse"
       gradientTransform="matrix(1.3664816,-0.03305183,0.01875702,0.76369477,61.919675,20.189822)" />
    <radialGradient
       cx="-174.5798"
       cy="109.85793"
       r="8.8871508"
       fx="-174.5798"
       fy="109.85793"
       id="radialGradient4297"
       xlink:href="#linearGradient4015"
       gradientUnits="userSpaceOnUse"
       gradientTransform="matrix(1.3664816,-0.03305183,0.01875702,0.76369477,61.919675,20.189822)" />
    <radialGradient
       cx="-174.5798"
       cy="109.85793"
       r="8.8871508"
       fx="-174.5798"
       fy="109.85793"
       id="radialGradient4299"
       xlink:href="#linearGradient4015"
       gradientUnits="userSpaceOnUse"
       gradientTransform="matrix(1.0744883,0.00593562,0.00544351,0.60648574,12.406137,44.266902)" />
    <linearGradient
       x1="-516.70276"
       y1="20.883038"
       x2="-518.81342"
       y2="29.600176"
       id="linearGradient4301"
       xlink:href="#linearGradient4096"
       gradientUnits="userSpaceOnUse" />
    <linearGradient
       x1="-130.89725"
       y1="16.472939"
       x2="-128.05614"
       y2="38.053318"
       id="linearGradient4303"
       xlink:href="#linearGradient4096"
       gradientUnits="userSpaceOnUse"
       gradientTransform="translate(-250,0)" />
    <radialGradient
       cx="-500.14664"
       cy="-15.092947"
       r="26.649689"
       fx="-500.14664"
       fy="-15.092947"
       id="radialGradient4305"
       xlink:href="#linearGradient4137"
       gradientUnits="userSpaceOnUse"
       gradientTransform="matrix(1,0,0,0.33422727,0,-10.048473)" />
    <radialGradient
       cx="-400.11536"
       cy="-16.508318"
       r="15.88463"
       fx="-400.11536"
       fy="-16.508318"
       id="radialGradient4307"
       xlink:href="#linearGradient4137"
       gradientUnits="userSpaceOnUse"
       gradientTransform="matrix(1,0,0,0.5352161,0,-7.6728004)" />
    <clipPath
       id="clipPath4401">
      <rect
         width="84"
         height="84"
         rx="6"
         ry="6"
         x="-87.640152"
         y="7.9819665"
         transform="matrix(0,-1,1,0,0,0)"
         id="rect4403"
         style="fill:#ff00ff;fill-opacity:1;fill-rule:nonzero;stroke:none" />
    </clipPath>
  </defs>
  <metadata
     id="metadata2413">
    <rdf:RDF>
      <cc:Work
         rdf:about="">
        <dc:format>image/svg+xml</dc:format>
        <dc:type
           rdf:resource="http://purl.org/dc/dcmitype/StillImage" />
        <dc:title>gish</dc:title>
        <dc:subject>
          <rdf:Bag>
            <rdf:li>gish</rdf:li>
            <rdf:li>x-gish</rdf:li>
            <rdf:li>game</rdf:li>
            <rdf:li>adventure</rdf:li>
          </rdf:Bag>
        </dc:subject>
        <dc:description>gish, x-gish, game, adventure</dc:description>
      </cc:Work>
    </rdf:RDF>
  </metadata>
  <g
     id="layer2"
     style="display:none">
    <rect
       width="86"
       height="85"
       rx="6"
       ry="6"
       x="5"
       y="7"
       id="rect3745"
       style="opacity:0.9;fill:url(#ButtonShadow);fill-opacity:1;fill-rule:nonzero;stroke:none;filter:url(#filter3174)" />
  </g>
  <g
     id="layer3">
    <path
       d="m 12,-95.03125 c -5.5110903,0 -10.03125,4.52016 -10.03125,10.03125 l 0,71 c 0,5.5110902 4.5201598,10.03125 10.03125,10.03125 l 72,0 c 5.51109,0 10.03125,-4.5201597 10.03125,-10.03125 l 0,-71 c 0,-5.51109 -4.52016,-10.03125 -10.03125,-10.03125 l -72,0 z"
       transform="scale(1,-1)"
       id="path3786"
       style="opacity:0.07999998;fill:url(#linearGradient3026);fill-opacity:1;fill-rule:nonzero;stroke:none;display:inline" />
    <path
       d="m 12,-94.03125 c -4.971633,0 -9.03125,4.059617 -9.03125,9.03125 l 0,71 c 0,4.9716329 4.0596171,9.03125 9.03125,9.03125 l 72,0 c 4.971633,0 9.03125,-4.059617 9.03125,-9.03125 l 0,-71 c 0,-4.971633 -4.059617,-9.03125 -9.03125,-9.03125 l -72,0 z"
       transform="scale(1,-1)"
       id="path3778"
       style="opacity:0.1;fill:url(#linearGradient3780);fill-opacity:1;fill-rule:nonzero;stroke:none;display:inline" />
    <path
       d="m 12,-93 c -4.4091333,0 -8,3.590867 -8,8 l 0,71 c 0,4.4091333 3.5908667,8 8,8 l 72,0 c 4.409133,0 8,-3.5908667 8,-8 l 0,-71 c 0,-4.409133 -3.590867,-8 -8,-8 l -72,0 z"
       transform="scale(1,-1)"
       id="path3770"
       style="opacity:0.2;fill:url(#linearGradient3772);fill-opacity:1;fill-rule:nonzero;stroke:none;display:inline" />
    <rect
       width="86"
       height="85"
       rx="7"
       ry="7"
       x="5"
       y="-92"
       transform="scale(1,-1)"
       id="rect3723"
       style="opacity:0.3;fill:url(#linearGradient3725);fill-opacity:1;fill-rule:nonzero;stroke:none;display:inline" />
    <rect
       width="84"
       height="84"
       rx="6"
       ry="6"
       x="6"
       y="-91"
       transform="scale(1,-1)"
       id="rect3716"
       style="opacity:0.45;fill:url(#linearGradient3721);fill-opacity:1;fill-rule:nonzero;stroke:none;display:inline" />
  </g>
  <g
     id="layer1">
    <rect
       width="84"
       height="84"
       rx="6"
       ry="6"
       x="6"
       y="6"
       id="rect2419"
       style="fill:url(#linearGradient3617);fill-opacity:1;fill-rule:nonzero;stroke:none" />
    <path
       style="opacity:0.25;fill:url(#linearGradient3188);fill-opacity:1;fill-rule:nonzero;stroke:none"
       d="M 12,6 C 8.11425,5.86322 5.41842,9.7916 6,13.4226 6.01818,37.1117 5.96366,60.8028 6.02722,84.4906 5.28212,86.832 10.5383,90.304 9.3125,89.2188 6.06854,87.1931 7.20932,83.0939 7,79.9177 7.01709,57.4405 6.96584,34.9616 7.02559,12.4854 7.23709,9.18494 10.6966,7.53688 13.6597,8 c 23.6181,0.0171 47.2379,-0.0342 70.8549,0.0256 3.3005,0.2115 4.9485,3.67101 4.4854,6.63411 -0.023,23.6263 0.047,47.2557 -0.035,70.8801 0.6394,2.1759 -4.9496,5.3488 -1.4521,3.2816 C 91.0463,86.3401 89.75,81.8397 90,78.2064 89.9794,55.9328 90.0412,33.6571 89.9691,11.3848 89.7161,7.60949 85.8108,5.47598 82.3403,6 58.8935,6 35.4468,6 12,6 Z"
       id="rect3728"
       inkscape:connector-curvature="0" />
    <path
       style="opacity:0.12;fill:url(#radialGradient3619);fill-opacity:1;fill-rule:nonzero;stroke:none"
       d="M 12,90 C 8.11425,90.1368 5.41842,86.2084 6,82.5774 6.01818,58.8883 5.96366,35.1972 6.02722,11.5094 5.28212,9.16796 10.5383,5.696 9.3125,6.78125 6.06854,8.80692 7.20932,12.9061 7,16.0823 c 0.0171,22.4772 -0.0342,44.9561 0.0256,67.4323 0.2115,3.3005 3.67101,4.9485 6.63411,4.4854 23.6181,-0.017 47.2379,0.034 70.8549,-0.026 C 87.8151,87.7629 89.4631,84.3034 89,81.3403 88.9765,57.714 89.0469,34.0846 88.9648,10.4602 89.6042,8.28431 84.0152,5.11138 87.5127,7.17856 91.0463,9.65991 89.75,14.1603 90,17.7936 89.9794,40.0672 90.0412,62.3429 89.9691,84.6152 89.7161,88.3905 85.8108,90.524 82.3403,90 58.8935,90 35.4468,90 12,90 Z"
       id="path3615"
       inkscape:connector-curvature="0" />
  </g>
  <g
     id="layer6"
     style="display:inline">
    <g
       transform="matrix(0,1,-1,0,93.640151,-1.9819675)"
       clip-path="url(#clipPath4401)"
       id="g4200"
       style="display:inline">
      <path
         d="m 48,48 56.00433,18.145814 -0.48222,15.992731 z"
         inkscape:connector-curvature="0"
         id="path3821"
         style="opacity:0.13500001;fill:#ffffff;fill-opacity:1;stroke:none" />
      <path
         d="m 48,47.999999 -63.091402,18.544943 -5.454315,-17.76856 z"
         inkscape:connector-curvature="0"
         id="path3823"
         style="opacity:0.13500001;fill:#ffffff;fill-opacity:1;stroke:none" />
      <path
         d="M 48,48 59.996457,-16.081437 91.185519,-5.3754521 z"
         inkscape:connector-curvature="0"
         id="path3827"
         style="opacity:0.13500001;fill:#ffffff;fill-opacity:1;stroke:none" />
      <path
         d="m 48,48 58.87421,-28.540741 6.60701,25.181206 z"
         inkscape:connector-curvature="0"
         id="path3829"
         style="opacity:0.13500001;fill:#ffffff;fill-opacity:1;stroke:none" />
      <path
         d="M 48,48 16.754067,104.42421 -18.253418,94.376948 z"
         inkscape:connector-curvature="0"
         id="path3831"
         style="opacity:0.13500001;fill:#ffffff;fill-opacity:1;stroke:none" />
      <path
         d="M 48,48 -13.807825,28.077089 -3.5083336,2.3612922 z"
         inkscape:connector-curvature="0"
         id="path3833"
         style="opacity:0.13500001;fill:#ffffff;fill-opacity:1;stroke:none" />
      <path
         d="m 48,48 1.297552,65.93585 -13.436067,1.80377 z"
         inkscape:connector-curvature="0"
         id="path3837"
         style="opacity:0.13500001;fill:#ffffff;fill-opacity:1;stroke:none" />
      <path
         d="M 47.999999,47.999999 88.186743,93.793286 81.290444,108.23077 47.999999,47.999999 z"
         inkscape:connector-curvature="0"
         id="path3849"
         style="opacity:0.13500001;fill:#ffffff;fill-opacity:1;stroke:none" />
      <path
         d="M 48.000001,48 21.330348,-1.1835747 29.482451,-14.95104 z"
         inkscape:connector-curvature="0"
         id="path3851"
         style="opacity:0.13500001;fill:#ffffff;fill-opacity:1;stroke:none" />
    </g>
  </g>
  <g
     id="layer5"
     style="display:inline">
    <rect
       width="66"
       height="66"
       rx="12"
       ry="12"
       x="15"
       y="15"
       clip-path="url(#clipPath3613)"
       id="rect3171"
       style="opacity:0.2;fill:url(#linearGradient3613);fill-opacity:1;fill-rule:nonzero;stroke:#ffffff;stroke-width:0.5;stroke-linecap:round;stroke-linejoin:miter;stroke-miterlimit:4;stroke-opacity:1;stroke-dasharray:none;stroke-dashoffset:0;filter:url(#filter3794)" />
  </g>
  <g
     id="layer4">
    <path
       d="m 51.4375,16.9688 c -6.1914,-0.1 -12.7465,2.0825 -16.4982,7.2666 -3.2117,3.988 -6.4852,7.9621 -10.5933,11.0765 -4.4175,3.9428 -9.8092,8.0476 -10.4318,14.4102 -0.6751,4.4506 -0.2569,9.0983 1.9076,13.1012 1.4434,2.8973 4.078,4.9634 6.8032,6.583 -1.1776,4.3285 4.1983,5.2725 7.2928,5.5053 3.9524,0.3317 7.3987,-1.5507 11.276,-0.2061 3.19,-0.2005 5.5545,2.5145 8.8602,2.2585 2.9047,0.2118 5.4266,2.4854 8.5958,2.2238 4.6434,0.5854 9.324,-0.2958 13.922,-0.9191 2.9447,-0.7586 6.7997,-1.1209 8.272,-4.1749 2.9737,-0.45 6.8083,-4.1429 3.9121,-7.3757 C 83.7769,65.0731 80.14,64.8744 81.986,62.5186 83.4188,57.7631 82.1027,52.7929 80.99,48.1288 78.872,43.6927 74.7438,40.518 73.241,35.7441 71.5703,30.4159 68.4678,25.4083 64.1775,21.809 c -3.5886,-2.077 -7.1332,-4.6697 -11.464,-4.7845 -0.4247,-0.036 -0.8503,-0.043 -1.276,-0.056 z"
       inkscape:connector-curvature="0"
       id="path4548"
       style="opacity:0.05;fill:#ffffff"
       sodipodi:nodetypes="ccccccccccccccccccc" />
    <path
       d="m 51.4375,17.96875 c -4.241318,-0.04173 -8.786544,1.062708 -11.8125,3.125 -1.781583,1.214203 -2.991843,2.541075 -7.78125,8.46875 -0.997316,1.234336 -2.92477,3.177522 -5.25,5.125 -4.395446,3.681367 -8.114402,7.172247 -9.65625,9.5 -1.575765,2.37897 -2.216928,5.217719 -2.28125,8.9375 -0.01593,0.921386 0.02279,1.848639 0.0625,2.59375 0.0384,0.720518 0.02039,1.354448 0.25,2.0625 0.171053,0.527346 0.521662,1.524422 0.75,2.25 0.639463,2.03199 1.943698,4.248155 3.46875,5.625 0.792437,0.715425 1.811999,1.517686 2.8125,2.21875 0.636413,0.445943 1.197785,0.741031 1.78125,1.0625 -0.354186,0.710748 -0.55563,1.520906 -0.21875,2.375 0.47852,1.213195 1.644367,1.783876 2.6875,1.9375 0.358878,0.05285 1.349433,0.277163 1.90625,0.40625 1.557072,0.360973 3.328835,0.339191 4.9375,0.1875 0.795779,-0.07504 1.56628,-0.176424 2.28125,-0.375 0.430576,-0.119588 0.697429,-0.333396 1,-0.53125 0.30087,0.07471 0.603355,0.135983 0.875,0.1875 0.623639,0.118272 1.396638,0.253974 2.25,0.375 1.67407,0.237421 3.413686,0.4375 4.53125,0.4375 0.280998,0 0.311866,0.03562 0.21875,0 -0.09312,-0.03562 -0.0897,-0.05075 0.09375,0.125 0.863203,0.827 1.932686,1.185806 3.03125,1.46875 1.121055,0.288737 2.410158,0.46539 3.71875,0.46875 0.462885,0.0012 0.812047,0.05613 0.84375,0.0625 0.823662,0.717523 1.857842,1.187471 3.09375,1.5 1.516167,0.383399 3.394966,0.625651 5.9375,0.84375 1.216089,0.104307 2.837042,-0.108344 8.03125,-0.625 2.282856,-0.22707 4.602758,-0.666997 6.46875,-1.21875 0.927006,-0.274106 1.730877,-0.559738 2.4375,-0.90625 0.573482,-0.281222 1.5637,-0.769274 2,-1.90625 0.102179,-0.266267 0.05928,-0.501261 0.0625,-0.75 0.634988,-0.110056 1.299776,-0.198781 1.875,-0.40625 0.486805,-0.175579 0.975704,-0.36238 1.4375,-0.65625 0.407252,-0.25916 0.983541,-0.755447 1.28125,-1.53125 0.526615,-1.372354 -0.161586,-2.647109 -0.84375,-3.375 -0.549899,-0.58676 -1.219518,-0.966892 -1.90625,-1.3125 l 0.03125,-0.03125 c -0.265138,-0.215021 -0.256776,-0.167393 -0.21875,-0.125 0.01054,0.01175 -0.09518,-0.05466 -0.0625,-0.03125 -0.09844,-0.07053 -0.246797,-0.200089 -0.46875,-0.3125 -0.363014,-0.183861 -0.747776,-0.174459 -1.125,-0.25 1.688824,-2.914801 2.094412,-6.884769 1.28125,-10.9375 -0.225066,-1.121731 -0.529018,-2.683618 -0.625,-3.3125 -0.06878,-0.450633 -0.175245,-0.904639 -0.28125,-1.3125 -0.09242,-0.355605 -0.178463,-0.765988 -0.4375,-1.25 -0.946342,-1.768269 -3.398982,-5.190417 -4.71875,-6.625 C 74.849219,41.163535 74.205372,40.124127 73.59375,38.9375 72.982128,37.750873 72.376015,36.3837 72,35.1875 71.072656,32.237373 69.651963,29.615545 67.40625,26.65625 65.407835,24.022844 64.039634,22.609924 62.21875,21.8125 62.326712,21.85978 61.886264,21.66476 61.5,21.4375 61.113736,21.21024 60.647056,20.902082 60.28125,20.65625 57.625235,18.871348 54.705424,18.00091 51.4375,17.96875 z"
       id="path4544"
       style="opacity:0.05;fill:#ffffff" />
    <path
       d="M 51.4375,19.03125 C 47.406504,18.99159 42.965683,20.127871 40.21875,22 c -1.670768,1.138679 -2.747137,2.328877 -7.53125,8.25 -1.079112,1.335571 -3.04128,3.269238 -5.40625,5.25 -4.36113,3.652626 -8.076632,7.226725 -9.4375,9.28125 -1.436141,2.168177 -2.062682,4.771122 -2.125,8.375 -0.01517,0.877396 0.02324,1.763453 0.0625,2.5 0.03926,0.736547 0.05085,1.263475 0.21875,1.78125 0.164208,0.506243 0.514527,1.533 0.75,2.28125 0.574077,1.824216 1.849177,3.94495 3.15625,5.125 0.75165,0.678601 1.759081,1.483798 2.71875,2.15625 0.959669,0.672452 1.751458,1.209374 2.46875,1.46875 0.362559,0.131103 0.31469,0.182152 0.28125,0.03125 -0.03344,-0.150902 0.03503,-0.08465 -0.25,0.21875 -0.544283,0.579367 -0.866763,1.4161 -0.5625,2.1875 0.304263,0.7714 1.048284,1.1641 1.84375,1.28125 0.454912,0.067 1.421432,0.272121 2,0.40625 1.373823,0.318491 3.065172,0.331639 4.59375,0.1875 0.764289,-0.07207 1.481157,-0.173608 2.09375,-0.34375 0.457137,-0.126965 0.81881,-0.378575 1.1875,-0.65625 0.0091,0.0028 0.02197,0.02799 0.03125,0.03125 0.10293,0.03613 0.201899,0.06548 0.3125,0.09375 0.221202,0.05653 0.504113,0.09776 0.8125,0.15625 0.616774,0.11697 1.39138,0.25766 2.21875,0.375 1.654741,0.23468 3.408185,0.4375 4.375,0.4375 0.595395,0 0.667351,0.02767 1.0625,0.40625 0.649781,0.622529 1.529367,0.952658 2.5625,1.21875 1.033133,0.266092 2.226997,0.434392 3.4375,0.4375 0.490249,0.0013 0.855232,0.02085 1.0625,0.0625 0.207268,0.04165 0.215506,0.121857 0.0625,-0.0625 0.650962,0.78437 1.652394,1.237171 3.0625,1.59375 1.410106,0.356579 3.261554,0.59636 5.78125,0.8125 0.970858,0.08327 2.646185,-0.10801 7.84375,-0.625 2.213958,-0.220217 4.464254,-0.659475 6.25,-1.1875 0.892873,-0.264013 1.659147,-0.538685 2.28125,-0.84375 0.622103,-0.305065 1.161309,-0.511325 1.46875,-1.3125 0.211447,-0.551005 0.02309,-0.944086 -0.125,-1.21875 0.943675,-0.09405 1.899732,-0.278371 2.6875,-0.5625 0.453684,-0.163633 0.863981,-0.336738 1.21875,-0.5625 0.354769,-0.225762 0.671891,-0.470716 0.875,-1 0.333301,-0.868579 -0.09987,-1.689668 -0.625,-2.25 -0.466976,-0.498279 -1.09183,-0.887691 -1.78125,-1.21875 -0.0057,-0.0027 0.0057,-0.02854 0,-0.03125 -0.05478,-0.04443 -0.152932,-0.07784 -0.21875,-0.125 -0.106471,-0.07628 -0.202086,-0.147002 -0.34375,-0.21875 -0.511667,-0.259152 -1.091829,-0.359389 -1.71875,-0.375 -0.03265,-8.13e-4 -0.06082,3.03e-4 -0.09375,0 -0.02433,-2.24e-4 -0.03802,-0.0313 -0.0625,-0.03125 l 0,0.03125 c -0.02342,-0.005 -0.04326,0.0036 -0.0625,0 -0.03024,-0.0057 -0.07117,-0.02721 -0.09375,-0.03125 -0.09991,-0.01787 -0.235165,-0.0189 -0.34375,-0.03125 2.227357,-2.543679 2.879344,-6.961675 1.96875,-11.5 -0.227376,-1.133246 -0.520438,-2.689899 -0.625,-3.375 -0.06145,-0.402646 -0.150848,-0.806006 -0.25,-1.1875 -0.09915,-0.381494 -0.16706,-0.701103 -0.34375,-1.03125 -0.837688,-1.565246 -3.393907,-5.135994 -4.5625,-6.40625 -0.979521,-1.06475 -2.634,-4.193858 -3.4375,-6.75 -0.889375,-2.829337 -2.212922,-5.297236 -4.40625,-8.1875 -1.965633,-2.590208 -3.196177,-3.805845 -4.78125,-4.5 -0.197936,-0.08668 -1.304497,-0.7196 -2.09375,-1.25 -2.496002,-1.67737 -5.167933,-2.500919 -8.25,-2.53125 z"
       id="path4540"
       style="opacity:0.05;fill:#ffffff" />
    <g
       transform="matrix(0.25869404,0,0,0.25869404,170.18225,46.267587)"
       id="g4257">
      <path
         d="m -421.5,116.32844 c -19.27885,-1.65374 -28.23493,-3.89427 -31.55433,-7.8939 -0.79401,-0.95672 -3.23153,-1.43974 -7.31811,-1.45016 -8.73102,-0.0223 -17.25682,-2.25501 -20.50919,-5.37098 -2.00898,-1.92472 -3.7784,-2.6134 -6.71462,-2.6134 -6.22822,0 -27.72657,-3.02303 -28.9971,-4.07748 -0.74465,-0.618 -1.54545,-0.4602 -2.30421,0.45405 -2.70863,3.2637 -19.06533,4.78452 -28.33809,2.63483 -2.34539,-0.54373 -5.90227,-1.22982 -7.90416,-1.52464 -4.52747,-0.66677 -5.80745,-3.84954 -2.82491,-7.02431 3.05357,-3.25038 2.51457,-5.86184 -1.51027,-7.31725 -3.45992,-1.25112 -13.44522,-8.16355 -18.87861,-13.06891 -4.12928,-3.72799 -9.23345,-12.05139 -11.1764,-18.22541 -0.92615,-2.94298 -2.19479,-6.92588 -2.81921,-8.85088 -0.64128,-1.97701 -1.04717,-8.59721 -0.93277,-15.21396 0.23421,-13.54691 2.55022,-22.82867 7.59772,-30.44901 4.53175,-6.84168 18.96568,-20.999754 35.68426,-35.002263 9.26307,-7.758207 17.02817,-15.273381 21.5,-20.807998 18.47828,-22.869892 22.2643,-27.034787 28.33895,-31.174858 9.55363,-6.511108 26.36079,-10.904061 41.16105,-10.758431 11.29703,0.11116 20.6161,2.95607 29.71665,9.071851 3.18084,2.137599 7.06401,4.447388 8.62925,5.132864 5.3422,2.339534 9.63687,6.424731 17.11819,16.283254 8.3004,10.937855 13.14899,19.900826 16.45514,30.418551 3.26572,10.389076 9.43765,22.4066 14.12337,27.5 3.82519,4.15799 14.19512,18.83863 16.9717,24.02672 0.6561,1.22594 1.5447,4.53394 1.97467,7.35113 0.42997,2.81718 1.50895,8.74642 2.39773,13.17608 3.49537,17.4208 0.46921,34.59016 -7.5015,42.56087 C -361.25166,76.25166 -363,78.225 -363,78.5 c 0,0.275 2.5875,0.5044 5.75,0.50977 9.73845,0.0165 20.71663,6.72588 18.87176,11.53351 -1.00572,2.62088 -9.18974,5.54187 -16.79002,5.9926 -3.91787,0.23235 -7.35778,0.65683 -7.64424,0.94329 -0.28646,0.28645 0.11667,0.5358 0.89583,0.5541 2.30031,0.054 6.18391,3.82793 5.57421,5.41677 -1.41691,3.69243 -18.9573,8.89482 -35.55668,10.54592 -20.084,1.99771 -27.07843,2.54885 -29.60086,2.33248 z"
         inkscape:connector-curvature="0"
         id="path4197"
         style="fill:#000000" />
      <path
         d="m -480.17738,-93.945411 c -12.92995,4.784046 -27.40667,11.149978 -34.17776,25.299034 -5.66168,11.8308 -17.50502,21.019179 -27.34829,29.056383 -12.21188,6.746 -26.37501,23.434653 -34.62302,34.0000689 -7.99207,12.0046998 -8.68187,16.3064111 -12.06739,30.8299691 -3.31912,13.980465 5.15606,28.996149 11.59088,40.210775 7.83904,8.644672 22.43809,13.39413 28.18684,20.820313 -7.14613,0.05415 -12.17767,9.134034 -2.26372,9.649417 9.46461,1.263004 25.547,4.218301 30.87977,-3.839037 -8.16854,-9.481347 5.80582,3.049695 10.93711,1.818217 12.53777,4.899704 25.17013,-1.048193 37.95158,0.132871 5.25179,-0.390069 17.38304,2.562666 5.63505,1.328517 -6.12549,-2.906298 -18.08288,3.745479 -7.57231,7.661153 13.53948,-2.12372 24.26668,4.37028 35.63959,9.46247 17.18831,3.05483 28.8673,0.61943 45.1445,-0.17843 8.13405,-4.1459 20.99637,-2.27819 26.88863,-9.79705 -12.5442,-6.175758 -24.28392,-13.302724 -38.15427,-16.830446 -10.93461,-3.212377 -27.92175,13.2358 -30.02459,13.202747 11.14168,-8.66909 22.92894,-21.256286 38.57779,-15.015706 13.48728,3.542677 24.76782,10.941261 39.79917,10.62416 14.20305,-0.299627 14.884,-15.842425 0.84501,-15.22109 -5.88551,-1.457646 -20.89378,2.734655 -20.93206,2.163459 13.48284,-4.031945 17.5665,-18.649099 21.06138,-29.485475 -0.19866,-13.80805 -0.51505,-28.056882 -6.42379,-40.655475 -8.86616,-9.9370303 -14.95233,-23.501929 -24.29597,-33.120447 -5.22287,-10.811415 -9.3264,-22.215725 -15.76768,-32.628765 -5.72341,-8.683103 -10.54136,-21.92339 -20.38122,-26.038508 -8.97873,-6.493418 -18.38914,-13.462305 -29.28279,-15.228586 -10.01218,-1.152395 -20.37388,-1.716482 -29.82244,1.779461 z"
         inkscape:connector-curvature="0"
         id="path4199"
         style="fill:#1e202b;fill-opacity:1;stroke:none" />
      <path
         d="m -465.469,-96.5937 c -5.023,0.1519 -9.994,0.9082 -14.718,2.6562 -12.93,4.784 -27.386,11.1322 -34.157,25.2813 -5.661,11.8308 -17.531,21.0252 -27.375,29.0624 -12.212,6.7461 -26.345,23.4346 -34.593,34.00005 -6.454,9.69427 -8.18,14.44409 -10.375,23.53125 -1.438,8.7562 -1.576,17.5405 1.593,26.3438 8.143,17.1614 27.062,28.3507 46.125,27.3749 24.468,5.2817 48.99,-1.8899 73.407,-3.5937 20.01,0.5857 41.931,8.9533 59.906,-4.1562 13.258,-12.5631 16.51,-32.2113 19.312,-49.4376 4.166,-21.31159 -34.228,-23.27457 -17.031,-45.375 2.831,-6.6928 4.076,-14.015 3.969,-21.4375 -0.415,-0.711 -0.847,-1.4225 -1.281,-2.125 -5.724,-8.6831 -10.536,-21.9161 -20.375,-26.0312 -8.979,-6.4934 -18.388,-13.4525 -29.282,-15.2188 -5.006,-0.5761 -10.102,-1.0269 -15.125,-0.8749 z m 117.5,177 c -3.029,0.3566 -6.015,1.2511 -9,1.6249 -4.562,0.7254 -5.124,6.9385 -1,8.7813 1.562,1.0816 2.972,2.3533 4.438,3.5312 10.122,-1.1418 12.173,-10.5894 5.562,-13.9374 z m -197.312,7.25 c -3.132,-0.01 -5.875,0.1665 -6.875,0.4999 -1.073,0.3577 -2.305,1.0843 -3.531,1.875 -0,0.012 -0.02,0.019 -0.03,0.031 -1.597,2.5789 -0.733,5.5538 4.844,5.8437 6.925,0.9241 17.386,2.7712 24.594,0.5313 -1.098,-1.2505 -2.583,-2.3222 -3,-3.1563 -0.878,-1.7562 -1.931,-2.5242 -3.313,-3.9062 -1.177,-1.1772 -7.467,-1.7085 -12.687,-1.7187 z m 140,2.9375 c -6.738,-0.04 -13.353,0.9497 -19.875,2.6874 -4.289,2.9618 -7.562,5.6071 -8.406,5.5938 2.016,-1.5693 4.078,-3.2464 6.156,-4.9375 -3.333,0.9782 -6.654,2.1181 -9.938,3.4375 -11.086,0.3965 -24.923,-6.7503 -35.937,-3.5 0.724,0.024 1.43,0.089 2.156,0.1562 5.252,-0.39 17.404,2.5779 5.656,1.3438 -6.125,-2.9063 -18.104,3.7406 -7.593,7.656 13.539,-2.123 24.283,4.377 35.656,9.469 17.188,3.055 28.879,0.61 45.156,-0.188 13.346,-2.964 20.983,-2.293 26.875,-9.812 -6.04,-2.9737 -11.911,-6.1557 -17.906,-9.0625 -7.433,-1.2825 -14.999,-2.7787 -22,-2.8437 z"
         inkscape:connector-curvature="0"
         id="path4201"
         style="fill:#282b37;fill-opacity:1;stroke:none"
         sodipodi:nodetypes="ssscccccccccccccsccccccsccccsscccccccccccccccc" />
      <path
         d="m -465.46875,-96.59375 c -5.02302,0.151922 -9.99447,0.908278 -14.71875,2.65625 -12.92995,4.784046 -27.38516,11.132194 -34.15625,25.28125 -5.66168,11.8308 -17.53173,21.025296 -27.375,29.0625 -12.21188,6.746 -26.34574,23.434584 -34.59375,34 -7.99207,12.0046998 -8.70823,16.320192 -12.09375,30.84375 -0.41489,1.747558 -0.64541,3.510787 -0.71875,5.28125 0.006,0.03044 -0.006,0.06334 0,0.09375 1.0409,5.564711 3.22992,10.737324 7.40625,15.09375 16.15955,22.776221 44.40677,27.207817 70.34375,24.28125 28.79542,-9.871112 55.57991,-5.783459 84.0625,-7.25 24.95366,-1.10116 41.10075,-34.806345 30.3125,-56.03125 -17.15091,-10.1523548 -20.07307,-32.565112 -9.75,-48.40625 -0.94336,-7.149283 -0.29458,-15.25412 -0.0312,-23.28125 -3.73993,-6.528615 -7.97788,-12.895124 -14.28125,-15.53125 -8.97873,-6.493418 -18.3876,-13.452469 -29.28125,-15.21875 -5.00609,-0.576198 -10.10198,-1.026922 -15.125,-0.875 z M -346.5625,81.3125 c -9.38559,0.604354 -10.5715,7.99715 -7.5625,13.125 9.81907,-0.762722 12.50167,-9.151238 7.5625,-13.125 z m -195.375,7.53125 c -5.46872,0.0084 -10.46905,2.612946 -13.34375,5.78125 0.88186,0.704671 2.31704,1.172641 4.40625,1.28125 6.1559,0.821474 15.08608,2.336213 22.0625,1.09375 0.0877,-2.788592 -2.3167,-5.616638 -8.59375,-7.53125 -1.5207,-0.421111 -3.04503,-0.62729 -4.53125,-0.625 z m 141.90625,2.59375 c -11.15558,2.285998 -21.37692,4.855766 -31.5,6.34375 -0.94546,0.638552 -1.70911,1.098813 -2.03125,1.09375 0.40133,-0.312267 0.81559,-0.647378 1.21875,-0.96875 -11.28459,1.592785 -22.46408,1.762926 -34.6875,-1.40625 -3.74357,2.107047 -5.92676,4.18222 -6.9375,6.15625 0.28544,0.12733 0.57779,0.25264 0.90625,0.375 13.53948,-2.12372 24.28334,4.37656 35.65625,9.46875 17.18831,3.05483 28.87905,0.61036 45.15625,-0.1875 6.67016,-3.39976 16.51534,-2.75835 23.09375,-6.5625 -5.533,-8.912106 -21.82305,-10.697584 -30.875,-14.3125 z"
         inkscape:connector-curvature="0"
         id="path4203"
         style="fill:#2f3540;fill-opacity:1;stroke:none" />
      <path
         d="m -465.469,-96.5937 c -5.023,0.1519 -9.994,0.9082 -14.718,2.6562 -12.93,4.784 -27.386,11.1322 -34.157,25.2813 -5.661,11.8308 -17.531,21.0252 -27.375,29.0624 -12.212,6.7461 -26.345,23.4346 -34.593,34.00005 -7.668,11.51775 -8.665,16.05165 -11.719,29.21875 0.572,8.6059 3.392,16.9494 9.469,23.2188 9.977,8.7122 22.588,15.5919 35.625,16.5 15.58,1.0852 31.168,-3.5666 46.718,-3.6875 15.168,-0.5957 29.666,-7.379 44.969,-4.9688 15.181,0.2148 27.607,0.1491 39.969,-8.9687 9.822,-7.2448 10.138,-22.2583 11.719,-33.6563 -7.492,-11.371235 -20.998,-25.3323 -17.25,-39.5 7.847,-13.7423 5.247,-31.7802 4.031,-46.5 -2.362,-2.8438 -5.043,-5.208 -8.281,-6.5625 -8.979,-6.4934 -18.388,-13.4525 -29.282,-15.2188 -5.006,-0.5761 -10.102,-1.0269 -15.125,-0.8749 z m 115.313,179.6874 c -3.58,4.0962 -1.309,7.34 2.5,9.2188 3.035,-2.108 4.12,-5.383 3.156,-8.125 -1.891,-0.3388 -3.792,-0.6451 -5.656,-1.0938 z M -546.437,89.75 c -3.691,0.1729 -7.29,1.7249 -9.75,3.75 0.58,1.2852 2.233,2.2462 5.312,2.4062 5.81,0.7753 14.095,2.1694 20.875,1.2813 -0.314,-1.5245 -1.389,-3.2831 -3.562,-5.2813 -2.173,-1.2045 -4.768,-1.305 -7.188,-1.1562 -1.819,-0.8032 -3.757,-1.0905 -5.687,-1 z m 147.187,5.4062 c -15.425,1.3195 -22.184,6.5508 -37.562,7.6248 -13.039,-1.371 -25.765,-5.2617 -38.938,-2.531 -0.348,0.153 -0.664,0.308 -0.969,0.469 0.599,0.815 1.755,1.604 3.657,2.312 13.539,-2.123 24.283,4.377 35.656,9.469 17.188,3.055 28.879,0.61 45.156,-0.188 5.708,-3.848 14.436,-1.843 23.25,-6.656 -4.701,-6.6582 -24.204,-9.2552 -30.25,-10.4998 z"
         inkscape:connector-curvature="0"
         id="path4205"
         style="fill:#3a434f;fill-opacity:1;stroke:none"
         sodipodi:nodetypes="sssccccsccscccccsccccscccccsccccccccc" />
      <path
         d="m -465.469,-96.5937 c -5.023,0.1519 -9.994,0.9082 -14.718,2.6562 -12.93,4.784 -27.386,11.1322 -34.157,25.2813 -5.661,11.8308 -17.531,21.0252 -27.375,29.0624 -10.344,5.7146 -22.043,18.5321 -30.406,28.7501 0.03,1.40178 0.233,2.78695 0.688,4.12495 6.097,1.6659 14.485,-1.25126 19.156,-4.46875 8.336,-3.5645 29.854,-26.447 38.084,-27.89 3.688,11.2571 21.729,12.6454 45.631,-0.7488 7.502,-4.0531 26.975,-18.9823 20.816,-43.705 19.564,3.7065 58.79,49.241 47.063,29.0625 -11.723,-19.7916 -27.731,-37.2905 -49.657,-41.25 -5.006,-0.5761 -10.102,-1.0269 -15.125,-0.8749 z"
         inkscape:connector-curvature="0"
         id="path4207"
         style="fill:url(#radialGradient4289);fill-opacity:1;stroke:none"
         sodipodi:nodetypes="ssscccccccccs" />
      <path
         d="m -165.69265,109.85793 a 8.8871508,4.8201499 0 1 1 -0.004,-0.13665 l -8.88357,0.13665 z"
         transform="matrix(1.066159,0.05911526,-0.05536191,0.99846635,-235.68188,8.6812584)"
         id="path4209"
         style="opacity:0.6;color:#000000;fill:url(#radialGradient4291);fill-opacity:1;fill-rule:nonzero;stroke:none;stroke-width:1.5;marker:none;visibility:visible;display:inline;overflow:visible;enable-background:accumulate" />
      <path
         d="m -165.69265,109.85793 a 8.8871508,7.8436995 0 1 1 -17.7743,0 8.8871508,7.8436995 0 1 1 17.7743,0 z"
         transform="matrix(0.60179659,0.03336778,-0.03124919,0.56358727,-359.37755,44.429702)"
         id="path4211"
         style="opacity:0.6;color:#000000;fill:url(#radialGradient4293);fill-opacity:1;fill-rule:nonzero;stroke:none;stroke-width:1.5;marker:none;visibility:visible;display:inline;overflow:visible;enable-background:accumulate" />
      <path
         d="m -165.69265,109.85793 a 8.8871508,4.8201499 0 1 1 -17.7743,0 8.8871508,4.8201499 0 1 1 17.7743,0 z"
         transform="matrix(1.2096105,-0.26158417,0.25383961,1.1591096,-299.13433,-129.72509)"
         id="path4213"
         style="opacity:0.6;color:#000000;fill:url(#radialGradient4295);fill-opacity:1;fill-rule:nonzero;stroke:none;stroke-width:1.5;marker:none;visibility:visible;display:inline;overflow:visible;enable-background:accumulate" />
      <path
         d="m -165.69265,109.85793 a 8.8871508,4.8201499 0 1 1 -17.7743,0 8.8871508,4.8201499 0 1 1 17.7743,0 z"
         transform="matrix(1.3365889,0.26929176,-0.30956163,1.3557953,-246.52526,-99.218443)"
         id="path4215"
         style="opacity:0.6;color:#000000;fill:url(#radialGradient4297);fill-opacity:1;fill-rule:nonzero;stroke:none;stroke-width:1.5;marker:none;visibility:visible;display:inline;overflow:visible;enable-background:accumulate" />
      <path
         d="m -165.69265,109.85793 a 8.8871508,5.9859719 0 1 1 -17.7743,0 8.8871508,5.9859719 0 1 1 17.7743,0 z"
         transform="matrix(2.5137816,-2.5412335,2.4901606,2.664966,-317.01202,-798.5476)"
         id="path4217"
         style="opacity:0.6;color:#000000;fill:url(#radialGradient4299);fill-opacity:1;fill-rule:nonzero;stroke:none;stroke-width:1.5;marker:none;visibility:visible;display:inline;overflow:visible;enable-background:accumulate" />
      <path
         d="m -464.19541,20.3839 c -18.73997,2.123967 -39.67108,-2.999791 -57.95105,-6.404224 -11.88638,-2.213699 -26.22967,-4.8476291 -29.00631,8.452256 -2.07007,9.915474 3.21635,17.421274 12.24938,19.796795 14.03789,3.691704 33.70275,-3.628246 51.03964,-6.98686 9.63118,-1.865812 22.17093,-4.404731 32.95491,-5.21249 14.13202,-1.058539 27.9265,-2.8994 42.48226,-1.967152 15.93314,1.020465 31.83515,4.73115 48.14263,10.670591 9.0608,3.300085 6.2609,-19.300762 -0.17108,-24.945667 -6.01802,-5.2816038 -14.34346,-5.311906 -22.28655,-2.121318 -24.28276,9.753926 -51.39671,5.764785 -77.45383,8.718069 z"
         inkscape:connector-curvature="0"
         id="path4219"
         style="fill:#000000;stroke:none" />
      <path
         d="m -125.1875,14.15625 c -2.98639,-0.209904 -6.41017,0.402046 -9.84375,1.78125 -25.78653,10.357961 -53.38458,6.17053 -78.625,9.03125 C -233.60266,27.229453 -254.91557,21.868017 -273,18.5 c -5.93672,-1.105645 -12.20705,-2.10666 -16.46875,-1.53125 -2.13085,0.287705 -3.64416,0.891304 -4.71875,1.78125 -1.07459,0.889946 -1.94293,2.106381 -2.46875,4.625 -0.82716,3.96204 -0.16065,6.94178 1.34375,9.28125 1.5044,2.33947 4.01569,4.152787 7.59375,5.09375 11.56866,3.042341 31.04592,-3.559123 48.96875,-7.03125 9.597,-1.859191 22.26256,-4.439525 33.5,-5.28125 13.95733,-1.045454 27.96625,-2.937616 43.09375,-1.96875 16.18809,1.036794 32.29011,4.76187 48.65625,10.65625 0.21195,-0.840776 0.4663,-2.279678 0.34375,-4.21875 -0.31485,-4.982 -3.16832,-11.624658 -4.34375,-12.65625 -2.21785,-1.946452 -4.70434,-2.884073 -7.6875,-3.09375 z"
         transform="translate(-249.69874,-0.30125936)"
         id="path4221"
         style="fill:#1c1620;fill-opacity:1;stroke:none" />
      <path
         style="opacity:0.4;fill:#000000;fill-opacity:1;stroke:none"
         d="m -376.031,13.8125 c -8.014,0.2838 -15.002,5.0265 -22.896,6.1504 -7.909,1.7444 -15.994,2.5391 -24.073,2.9433 7.556,-0.5469 15.165,1.6275 22.583,-0.434 7.526,-1.1727 14.511,-4.3235 21.788,-6.3337 4.577,-0.8567 10.319,-0.2282 13.191,3.8615 -1.384,-4.4471 -6.331,-6.2316 -10.593,-6.1875 z M -535.625,16.5 c -7.48,-1.5198 -13.157,5.8646 -10.693,12.8994 2.333,6.8099 -0.865,-5.0678 2.003,-7.2602 4.198,-5.6168 12.229,-3.3459 18.149,-2.7383 18.609,3.1132 37.165,8.3985 56.173,7.6212 13.305,-2.128 26.786,-2.8687 40.212,-3.8659 -13.408,0.1643 -26.804,0.7097 -40.151,1.9809 -21.534,0.8608 -42.285,-5.9187 -63.455,-8.5188 -0.745,-0.059 -1.491,-0.1006 -2.238,-0.1183 z m 105.844,6.6562 c 2.628,-0.058 9.337,-0.3774 3.19,-0.1513 -1.063,0.044 -2.127,0.097 -3.19,0.1513 z"
         id="path4223"
         inkscape:connector-curvature="0" />
      <path
         style="fill:#000000;stroke:none"
         d="m -514.978,17.4416 c -4.23,-0.2995 -8.484,-0.3418 -12.719,-0.2075 -1.676,0.3037 -3.834,0.3431 -4.824,1.9711 -0.655,1.5606 -0.06,3.3117 0.481,4.8211 1.885,4.6083 5.705,8.3334 10.25,10.3097 1.747,0.7494 3.712,1.1341 5.573,0.5643 2.671,-0.7585 5.222,-1.9184 7.675,-3.2106 2.942,-1.6704 5.932,-3.5561 7.915,-6.3629 0.878,-1.1269 0.618,-2.6545 -0.134,-3.7679 -0.673,-1.5696 -2.592,-1.6115 -4.043,-1.7832 -1.872,-0.1191 -3.466,-1.244 -5.291,-1.5907 -1.598,-0.4102 -3.241,-0.6164 -4.883,-0.7434 z"
         id="path4225"
         inkscape:connector-curvature="0" />
      <path
         d="m -527.16943,18.385648 c -6.20955,2.003961 5.07866,11.646943 9.6294,13.47218 3.47088,-0.787942 12.22578,-6.160744 12.50789,-10.128381 -7.8714,-4.533998 -12.9193,-3.413395 -22.13729,-3.343799 z"
         inkscape:connector-curvature="0"
         id="path4227"
         style="fill:url(#linearGradient4301);fill-opacity:1;stroke:none" />
      <path
         d="m -374.05259,12.916911 c 0,0 -2.28684,-0.08393 -5.82394,0.615093 -3.5371,0.699023 -7.07149,0.933385 -10.32393,3.372717 -1.01038,0.752081 -3.14238,1.141848 -2.89329,2.376529 0.87964,4.318226 4.16978,6.898634 6.8125,8.375 2.64272,1.476366 5.09375,2.0625 5.09375,2.0625 0.63628,0.159705 1.31961,0.12664 1.9375,-0.09375 0,0 2.77512,-0.969549 5.15625,-3.46875 2.38113,-2.499201 4.42067,-6.966749 3.25,-12.625 -0.32617,-1.575616 -1.60457,-0.737851 -3.20884,-0.614339 z"
         inkscape:connector-curvature="0"
         id="path4229"
         style="fill:#000000;stroke:none" />
      <path
         d="m -389.81717,18.622318 c 4.72864,-3.546477 15.69047,-4.406229 15.69047,-4.406229 1.93444,9.349803 -6.2332,12.251467 -6.2332,12.251467 0,0 -8.27511,-2.041912 -9.45727,-7.845238 z"
         inkscape:connector-curvature="0"
         id="path4231"
         style="fill:url(#linearGradient4303);fill-opacity:1;stroke:none" />
      <path
         d="m -394.03125,-28.375 c -3.55818,-0.03405 -7.30057,1.113152 -10.84375,3.375 -2.77281,1.770071 -6.03501,4.682553 -8.8125,7.5 -1.38626,1.406207 -2.6507,2.760081 -3.625,4 -0.48739,0.620262 -0.89678,1.2075 -1.25,1.8125 -0.29298,0.501826 -0.8125,1.247511 -0.8125,2.65625 0,0.4665658 0.0198,0.9647958 0.15625,1.53125 0.068,0.2822122 0.17526,0.6323266 0.4375,1.09375 0.10993,0.1934292 0.32746,0.5866155 0.78125,0.96875 0.50373,0.42419 1.33716,0.8392204 2.34375,0.8125 0.6152,-0.017897 0.7542,-0.069001 0.5,-0.03125 0.0488,-0.00724 0.11236,-0.014227 0.21875,-0.03125 0.18857,-0.030174 0.44194,-0.073653 0.75,-0.125 0.62481,-0.1041431 1.49738,-0.2559972 2.5625,-0.4375 2.13388,-0.3636265 5.02316,-0.8595776 8.1875,-1.40625 3.13121,-0.5409487 6.2755,-1.0494646 8.78125,-1.40625 1.24847,-0.1777662 2.41842,-0.3112244 3.28125,-0.40625 0.43142,-0.047513 0.77445,-0.1006987 1.03125,-0.125 0.2568,-0.024301 0.53362,-0.03158 0.40625,-0.03125 2.65423,-0.00686 5.16452,-0.7240377 6.96875,-2.5 1.84382,-1.814926 2.48379,-4.606146 1.84375,-7.15625 -1.55831,-6.208779 -6.94058,-10.036666 -12.90625,-10.09375 z"
         id="path4233"
         style="fill:#000000;fill-opacity:1" />
      <path
         d="m -393.50158,-24.221401 c -5.76943,-0.07096 -12.05904,0.424431 -16.17377,4.225711 -3.24129,2.906256 -5.54664,5.026605 -7.96174,8.672655 -1.0573,1.7900931 -1.16034,2.8815935 -0.84474,5.055289 1.37662,0.5039143 7.67342,-0.8451248 8.99336,-1.3140326 9.9906,-3.5491624 10.45151,-2.1413144 18.08963,-2.8365124 3.1386,0.03285 5.40459,-0.59601 6.47828,-3.776395 1.18585,-3.490581 -3.63858,-3.750366 -6.01341,-6.31006 -2.34012,-2.430812 0.79934,-3.709465 -2.56761,-3.716655 z"
         inkscape:connector-curvature="0"
         id="path4235"
         style="fill:#57250f;fill-opacity:1" />
      <path
         style="fill:#000000;fill-opacity:1"
         d="m -504,-28.5625 c -4.82,-0.1152 -9.796,0.5994 -13.913,3.2815 -4.678,2.8966 -9.558,6.0455 -12.475,10.8478 -1.685,2.7185 -1.255,7.05321 1.887,8.49044 1.588,0.59645 4.274,0.85268 6.422,1.0723 13.054,1.14632 26.195,1.07473 39.231,2.4402 3.366,0.31546 6.852,1.3971 10.181,0.36855 3.029,-0.94953 4.747,-4.74875 3.052,-7.53801 -2.629,-3.81038 -6.62,-6.38688 -10.166,-9.26438 -4.635,-3.3089 -9.221,-7.05 -14.765,-8.6959 -3.072,-0.8476 -6.284,-0.9953 -9.454,-1.0025 z"
         id="path4237"
         inkscape:connector-curvature="0" />
      <path
         d="m -519.42312,-23.682474 c -4.34198,2.722091 -8.25986,5.495805 -10.8284,10.067905 -2.10712,3.6201014 1.52801,6.3665007 4.44018,6.2866935 4.59456,0.7607164 10.76521,-1.8967733 15.40636,-1.5824397 11.61965,0.6235818 21.58625,3.5671638 33.11676,5.2647094 2.19871,0.2164495 5.06375,0.1910268 6.11012,-2.1826053 1.29043,-2.8209059 -1.9732,-4.7722729 -3.60643,-6.5505869 -4.761,-4.00383 -9.11097,-7.557064 -14.41227,-10.818457 -7.32312,-2.634378 -18.51458,-2.600643 -30.22632,-0.485219 z"
         inkscape:connector-curvature="0"
         id="path4239"
         style="fill:#57250f;fill-opacity:1" />
      <path
         d="m -473.52155,-6.96514 c 0.66395,-1.07429 -12.27909,-11.28137 -18.74787,-14.78486 -3.26949,-1.77075 -5.77086,-2.25 -11.74363,-2.25 -7.1686,0 -7.93242,0.22297 -13.77983,4.02254 -6.18477,4.01878 -9.86804,8.09905 -8.82887,9.78046 0.30285,0.49003 9.00414,1.23812 19.3362,1.66243 10.33205,0.4243 21.26055,1.1048 24.28555,1.51222 8.19413,1.10361 8.82938,1.10744 9.47845,0.0572 z"
         inkscape:connector-curvature="0"
         id="path4241"
         style="fill:url(#radialGradient4305);fill-opacity:1" />
      <path
         d="m -404,-10 c 6.325,-1.09271 12.65149,-1.98972 14.05887,-1.99337 4.09972,-0.0106 6.35513,-2.22101 5.54792,-5.43716 -1.9535,-7.78336 -10.48976,-9.94769 -18.66101,-4.73142 -4.65877,2.97401 -12.94578,11.3851 -12.94578,13.13961 0,0.56229 0.1125,1.01936 0.25,1.01571 0.1375,-0.004 5.425,-0.90066 11.75,-1.99337 z"
         inkscape:connector-curvature="0"
         id="path4243"
         style="fill:url(#radialGradient4307);fill-opacity:1" />
      <path
         d="m -516.84554,-25.332503 c -7.97981,2.588509 -15.17852,7.558608 -20.81722,13.682447 -3.53903,4.7186473 6.94705,11.13018026 6.9126,5.9681063 -5.17792,-4.5715603 1.70809,-10.4528223 5.46594,-13.2621943 2.72365,-2.258408 6.1157,-3.665819 8.43868,-6.388359 z"
         inkscape:connector-curvature="0"
         id="path4245"
         style="fill:#000000;stroke:none" />
      <path
         d="m -478.04923,-17.164859 c 5.33858,2.27039 9.49246,7.527988 10.6388,13.1969543 1.35103,2.99935031 -5.12627,7.5395855 -2.20416,2.4868863 0.80281,-6.5566289 -6.03766,-10.3080736 -8.43464,-15.6838406 z"
         inkscape:connector-curvature="0"
         id="path4247"
         style="fill:#000000;stroke:none" />
      <path
         style="fill:#303842;fill-opacity:1;stroke:none"
         d="m -438.96,-37.0445 c 1.435,0.721 3.009,1.8625 3.113,3.6117 1.578,6.3191 1.971,13.1535 -0.193,19.3852 -1.126,2.5796 -3.287,4.47567 -5.083,6.57278 -1.109,0.90193 -2.785,0.12191 -3.316,-1.07033 -1.238,-1.87205 -0.814,-4.27805 -0.02,-6.23565 0.767,-2.0668 1.511,-4.1741 1.638,-6.3937 0.485,-3.441 1.069,-6.8975 2.318,-10.1557 0.588,-1.8842 1.097,-3.7927 1.547,-5.7143 z"
         id="path4249"
         inkscape:connector-curvature="0" />
      <path
         d="m -436.52441,-11.470539 c -7.34646,2.5879684 -2.78794,-8.484146 -1.30792,-11.892613 2.31382,-9.26456 2.40586,5.465615 1.30792,11.892613 z"
         inkscape:connector-curvature="0"
         id="path4251"
         style="fill:#000000;stroke:none" />
      <path
         d="m -409.60336,-23.43545 c 3.01198,-8.951228 14.9515,-11.270281 16.8822,-20.857679 2.77812,-1.514209 1.22602,8.791692 -1.82108,9.740525 -3.78344,5.021037 -9.03419,9.181687 -15.06112,11.117154 z"
         inkscape:connector-curvature="0"
         id="path4253"
         style="fill:#000000;stroke:none" />
      <path
         d="m -389.92464,-8.352401 c 4.13609,-1.3872141 15.77261,3.492675 14.58408,-5.520811 -5.01674,-0.20755 -10.04024,3.213662 -14.58408,5.520811 z"
         inkscape:connector-curvature="0"
         id="path4255"
         style="fill:#000000;stroke:none" />
    </g>
  </g>
</svg>
