<?xml version="1.0" encoding="UTF-8" standalone="no"?>
<!-- Created with Inkscape (http://www.inkscape.org/) -->

<svg
   xmlns:dc="http://purl.org/dc/elements/1.1/"
   xmlns:cc="http://creativecommons.org/ns#"
   xmlns:rdf="http://www.w3.org/1999/02/22-rdf-syntax-ns#"
   xmlns:svg="http://www.w3.org/2000/svg"
   xmlns="http://www.w3.org/2000/svg"
   xmlns:xlink="http://www.w3.org/1999/xlink"
   xmlns:sodipodi="http://sodipodi.sourceforge.net/DTD/sodipodi-0.dtd"
   xmlns:inkscape="http://www.inkscape.org/namespaces/inkscape"
   version="1.0"
   width="96"
   height="96"
   id="svg2408"
   inkscape:version="0.91 r"
   sodipodi:docname="xfwm4.svg">
  <title
     id="title104">xwfm4</title>
  <metadata
     id="metadata102">
    <rdf:RDF>
      <cc:Work
         rdf:about="">
        <dc:format>image/svg+xml</dc:format>
        <dc:type
           rdf:resource="http://purl.org/dc/dcmitype/StillImage" />
        <dc:title>xwfm4</dc:title>
        <dc:subject>
          <rdf:Bag>
            <rdf:li>xwfm4</rdf:li>
            <rdf:li>xfce</rdf:li>
          </rdf:Bag>
        </dc:subject>
        <dc:description>xwfm4, xfce</dc:description>
      </cc:Work>
    </rdf:RDF>
  </metadata>
  <sodipodi:namedview
     pagecolor="#ffffff"
     bordercolor="#666666"
     borderopacity="1"
     objecttolerance="10"
     gridtolerance="10"
     guidetolerance="10"
     inkscape:pageopacity="0"
     inkscape:pageshadow="2"
     inkscape:window-width="1280"
     inkscape:window-height="965"
     id="namedview100"
     showgrid="false"
     inkscape:zoom="3.47661"
     inkscape:cx="-12.7646"
     inkscape:cy="37.0042"
     inkscape:window-x="0"
     inkscape:window-y="27"
     inkscape:window-maximized="1"
     inkscape:current-layer="svg2408" />
  <defs
     id="defs2410">
    <linearGradient
       id="linearGradient3794">
      <stop
         id="stop3796"
         style="stop-color:#ae0000;stop-opacity:1"
         offset="0" />
      <stop
         id="stop3798"
         style="stop-color:#ff3131;stop-opacity:1"
         offset="1" />
    </linearGradient>
    <linearGradient
       id="linearGradient3761">
      <stop
         id="stop3763"
         style="stop-color:#333333;stop-opacity:1"
         offset="0" />
      <stop
         id="stop3765"
         style="stop-color:#515151;stop-opacity:1"
         offset="1" />
    </linearGradient>
    <linearGradient
       id="linearGradient3678">
      <stop
         id="stop3680"
         style="stop-color:#888888;stop-opacity:1"
         offset="0" />
      <stop
         id="stop3682"
         style="stop-color:#acacac;stop-opacity:1"
         offset="1" />
    </linearGradient>
    <linearGradient
       id="linearGradient3664">
      <stop
         id="stop3666"
         style="stop-color:#c8c8c8;stop-opacity:1"
         offset="0" />
      <stop
         id="stop3668"
         style="stop-color:#c8c8c8;stop-opacity:1"
         offset="0.79100895" />
      <stop
         id="stop3672"
         style="stop-color:#dadada;stop-opacity:1"
         offset="0.91459841" />
      <stop
         id="stop3670"
         style="stop-color:#f0f0f0;stop-opacity:1"
         offset="1" />
    </linearGradient>
    <linearGradient
       x1="45.447727"
       y1="92.539597"
       x2="45.447727"
       y2="7.0165396"
       id="ButtonShadow"
       gradientUnits="userSpaceOnUse"
       gradientTransform="scale(1.0058652,0.994169)">
      <stop
         id="stop3750"
         style="stop-color:#000000;stop-opacity:1"
         offset="0" />
      <stop
         id="stop3752"
         style="stop-color:#000000;stop-opacity:0.58823532"
         offset="1" />
    </linearGradient>
    <linearGradient
       id="linearGradient3737">
      <stop
         id="stop3739"
         style="stop-color:#ffffff;stop-opacity:1"
         offset="0" />
      <stop
         id="stop3741"
         style="stop-color:#ffffff;stop-opacity:0"
         offset="1" />
    </linearGradient>
    <filter
       color-interpolation-filters="sRGB"
       id="filter3174">
      <feGaussianBlur
         id="feGaussianBlur3176"
         stdDeviation="1.71" />
    </filter>
    <linearGradient
       x1="36.357143"
       y1="6"
       x2="36.357143"
       y2="63.893143"
       id="linearGradient3188"
       xlink:href="#linearGradient3737"
       gradientUnits="userSpaceOnUse" />
    <filter
       x="-0.192"
       y="-0.192"
       width="1.3839999"
       height="1.3839999"
       color-interpolation-filters="sRGB"
       id="filter3794">
      <feGaussianBlur
         id="feGaussianBlur3796"
         stdDeviation="5.28" />
    </filter>
    <linearGradient
       x1="48"
       y1="20.220806"
       x2="48"
       y2="138.66119"
       id="linearGradient3613"
       xlink:href="#linearGradient3737"
       gradientUnits="userSpaceOnUse" />
    <radialGradient
       cx="48"
       cy="90.171875"
       r="42"
       fx="48"
       fy="90.171875"
       id="radialGradient3619"
       xlink:href="#linearGradient3737"
       gradientUnits="userSpaceOnUse"
       gradientTransform="matrix(1.15731,0,0,0.995908,-7.55102,0.197132)" />
    <clipPath
       id="clipPath3613">
      <rect
         width="84"
         height="84"
         rx="6"
         ry="6"
         x="6"
         y="6"
         id="rect3615"
         style="fill:#ffffff;fill-opacity:1;fill-rule:nonzero;stroke:none" />
    </clipPath>
    <linearGradient
       x1="48"
       y1="90"
       x2="48"
       y2="5.9877172"
       id="linearGradient3617"
       xlink:href="#linearGradient3664"
       gradientUnits="userSpaceOnUse" />
    <linearGradient
       x1="45.447727"
       y1="92.539597"
       x2="45.447727"
       y2="7.0165396"
       id="ButtonShadow-0"
       gradientUnits="userSpaceOnUse"
       gradientTransform="matrix(1.0058652,0,0,0.994169,100,0)">
      <stop
         id="stop3750-8"
         style="stop-color:#000000;stop-opacity:1"
         offset="0" />
      <stop
         id="stop3752-5"
         style="stop-color:#000000;stop-opacity:0.58823532"
         offset="1" />
    </linearGradient>
    <linearGradient
       x1="32.251034"
       y1="6.1317081"
       x2="32.251034"
       y2="90.238609"
       id="linearGradient3780"
       xlink:href="#ButtonShadow-0"
       gradientUnits="userSpaceOnUse"
       gradientTransform="matrix(1.0238095,0,0,1.0119048,-1.1428571,-98.071429)" />
    <linearGradient
       x1="32.251034"
       y1="6.1317081"
       x2="32.251034"
       y2="90.238609"
       id="linearGradient3772"
       xlink:href="#ButtonShadow-0"
       gradientUnits="userSpaceOnUse"
       gradientTransform="matrix(1.0238095,0,0,1.0119048,-1.1428571,-98.071429)" />
    <linearGradient
       x1="32.251034"
       y1="6.1317081"
       x2="32.251034"
       y2="90.238609"
       id="linearGradient3725"
       xlink:href="#ButtonShadow-0"
       gradientUnits="userSpaceOnUse"
       gradientTransform="matrix(1.0238095,0,0,1.0119048,-1.1428571,-98.071429)" />
    <linearGradient
       x1="32.251034"
       y1="6.1317081"
       x2="32.251034"
       y2="90.238609"
       id="linearGradient3721"
       xlink:href="#ButtonShadow-0"
       gradientUnits="userSpaceOnUse"
       gradientTransform="translate(0,-97)" />
    <linearGradient
       x1="32.251034"
       y1="6.1317081"
       x2="32.251034"
       y2="90.238609"
       id="linearGradient3026"
       xlink:href="#ButtonShadow-0"
       gradientUnits="userSpaceOnUse"
       gradientTransform="matrix(1.0238095,0,0,1.0119048,-1.1428571,-98.071429)" />
    <linearGradient
       x1="48"
       y1="24"
       x2="48"
       y2="80"
       id="linearGradient3684"
       xlink:href="#linearGradient3678"
       gradientUnits="userSpaceOnUse" />
    <linearGradient
       x1="15"
       y1="10"
       x2="15"
       y2="6"
       id="linearGradient3767"
       xlink:href="#linearGradient3761"
       gradientUnits="userSpaceOnUse" />
    <linearGradient
       x1="15"
       y1="10"
       x2="15"
       y2="6"
       id="linearGradient3785"
       xlink:href="#linearGradient3761"
       gradientUnits="userSpaceOnUse"
       gradientTransform="translate(67,0)" />
    <linearGradient
       x1="15"
       y1="10"
       x2="15"
       y2="6"
       id="linearGradient3800"
       xlink:href="#linearGradient3794"
       gradientUnits="userSpaceOnUse"
       gradientTransform="translate(67,0)" />
  </defs>
  <g
     id="layer2"
     style="display:none">
    <rect
       width="86"
       height="85"
       rx="6"
       ry="6"
       x="5"
       y="7"
       id="rect3745"
       style="opacity:0.9;fill:url(#ButtonShadow);fill-opacity:1;fill-rule:nonzero;stroke:none;filter:url(#filter3174)" />
  </g>
  <g
     id="layer3">
    <path
       d="m 12,-95.03125 c -5.5110903,0 -10.03125,4.52016 -10.03125,10.03125 l 0,71 c 0,5.5110902 4.5201598,10.03125 10.03125,10.03125 l 72,0 c 5.51109,0 10.03125,-4.5201597 10.03125,-10.03125 l 0,-71 c 0,-5.51109 -4.52016,-10.03125 -10.03125,-10.03125 l -72,0 z"
       transform="scale(1,-1)"
       id="path3786"
       style="opacity:0.07999998;fill:url(#linearGradient3026);fill-opacity:1;fill-rule:nonzero;stroke:none;display:inline" />
    <path
       d="m 12,-94.03125 c -4.971633,0 -9.03125,4.059617 -9.03125,9.03125 l 0,71 c 0,4.9716329 4.0596171,9.03125 9.03125,9.03125 l 72,0 c 4.971633,0 9.03125,-4.059617 9.03125,-9.03125 l 0,-71 c 0,-4.971633 -4.059617,-9.03125 -9.03125,-9.03125 l -72,0 z"
       transform="scale(1,-1)"
       id="path3778"
       style="opacity:0.1;fill:url(#linearGradient3780);fill-opacity:1;fill-rule:nonzero;stroke:none;display:inline" />
    <path
       d="m 12,-93 c -4.4091333,0 -8,3.590867 -8,8 l 0,71 c 0,4.4091333 3.5908667,8 8,8 l 72,0 c 4.409133,0 8,-3.5908667 8,-8 l 0,-71 c 0,-4.409133 -3.590867,-8 -8,-8 l -72,0 z"
       transform="scale(1,-1)"
       id="path3770"
       style="opacity:0.2;fill:url(#linearGradient3772);fill-opacity:1;fill-rule:nonzero;stroke:none;display:inline" />
    <rect
       width="86"
       height="85"
       rx="7"
       ry="7"
       x="5"
       y="-92"
       transform="scale(1,-1)"
       id="rect3723"
       style="opacity:0.3;fill:url(#linearGradient3725);fill-opacity:1;fill-rule:nonzero;stroke:none;display:inline" />
    <rect
       width="84"
       height="84"
       rx="6"
       ry="6"
       x="6"
       y="-91"
       transform="scale(1,-1)"
       id="rect3716"
       style="opacity:0.45;fill:url(#linearGradient3721);fill-opacity:1;fill-rule:nonzero;stroke:none;display:inline" />
  </g>
  <g
     id="layer1">
    <rect
       width="84"
       height="84"
       rx="6"
       ry="6"
       x="6"
       y="6"
       id="rect2419"
       style="fill:url(#linearGradient3617);fill-opacity:1;fill-rule:nonzero;stroke:none" />
    <path
       style="opacity:0.5;fill:url(#linearGradient3188);fill-opacity:1;fill-rule:nonzero;stroke:none"
       d="M 12,6 C 8.11425,5.86322 5.41842,9.7916 6,13.4226 6.01818,37.1117 5.96366,60.8028 6.02722,84.4906 5.28212,86.832 10.5383,90.304 9.3125,89.2188 6.06854,87.1931 7.20932,83.0939 7,79.9177 7.01709,57.4405 6.96584,34.9616 7.02559,12.4854 7.23709,9.18494 10.6966,7.53688 13.6597,8 c 23.6181,0.0171 47.2379,-0.0342 70.8549,0.0256 3.3005,0.2115 4.9485,3.67101 4.4854,6.63411 -0.023,23.6263 0.047,47.2557 -0.035,70.8801 0.6394,2.1759 -4.9496,5.3488 -1.4521,3.2816 C 91.0463,86.3401 89.75,81.8397 90,78.2064 89.9794,55.9328 90.0412,33.6571 89.9691,11.3848 89.7161,7.60949 85.8108,5.47598 82.3403,6 58.8935,6 35.4468,6 12,6 Z"
       id="rect3728"
       inkscape:connector-curvature="0" />
    <path
       style="opacity:0.2;fill:url(#radialGradient3619);fill-opacity:1;fill-rule:nonzero;stroke:none"
       d="M 12,90 C 8.11425,90.1368 5.41842,86.2084 6,82.5774 6.01818,58.8883 5.96366,35.1972 6.02722,11.5094 5.28212,9.16796 10.5383,5.696 9.3125,6.78125 6.06854,8.80692 7.20932,12.9061 7,16.0823 c 0.0171,22.4772 -0.0342,44.9561 0.0256,67.4323 0.2115,3.3005 3.67101,4.9485 6.63411,4.4854 23.6181,-0.017 47.2379,0.034 70.8549,-0.026 C 87.8151,87.7629 89.4631,84.3034 89,81.3403 88.9765,57.714 89.0469,34.0846 88.9648,10.4602 89.6042,8.28431 84.0152,5.11138 87.5127,7.17856 91.0463,9.65991 89.75,14.1603 90,17.7936 89.9794,40.0672 90.0412,62.3429 89.9691,84.6152 89.7161,88.3905 85.8108,90.524 82.3403,90 58.8935,90 35.4468,90 12,90 Z"
       id="path3615"
       inkscape:connector-curvature="0" />
    <rect
       width="74"
       height="60"
       x="11"
       y="23"
       id="rect3674"
       style="opacity:0.98999999;color:#000000;fill:url(#linearGradient3684);fill-opacity:1;fill-rule:nonzero;stroke:none;stroke-width:1.5;marker:none;visibility:visible;display:inline;overflow:visible;enable-background:accumulate" />
    <rect
       width="72"
       height="58"
       x="12"
       y="24"
       id="rect3676"
       style="opacity:0.98999999;color:#000000;fill:#ffffff;fill-opacity:1;fill-rule:nonzero;stroke:none;stroke-width:1.5;marker:none;visibility:visible;display:inline;overflow:visible;enable-background:accumulate" />
    <g
       transform="matrix(0.64183214,0,0,0.64183214,18.906417,6.8593268)"
       id="g3715"
       style="font-size:8px;font-style:normal;font-variant:normal;font-weight:bold;font-stretch:normal;text-align:start;line-height:125%;writing-mode:lr-tb;text-anchor:start;fill:#f9f9f9;fill-opacity:1;stroke:none;font-family:Droid Sans;-inkscape-font-specification:Abandoned Bitplane Bold">
      <path
         style="fill:#f9f9f9"
         d="m 19.0262,14.9498 c 0.018,0.5675 -0.2779,1.147 -0.7949,1.4052 -0.634,0.3275 -1.3908,0.3084 -2.0695,0.1501 -0.191,-0.087 -0.5496,-0.098 -0.616,-0.3033 0,-0.3522 0,-0.7045 0,-1.0567 0.5737,0.2713 1.2088,0.5639 1.8584,0.4358 0.2671,-0.049 0.4549,-0.3048 0.4384,-0.5725 0,-0.3781 -0.3546,-0.6101 -0.6472,-0.7742 -0.4934,-0.2798 -1.0656,-0.5123 -1.3613,-1.0289 -0.2852,-0.4618 -0.2848,-1.0663 -0.08,-1.5589 0.2357,-0.553 0.8334,-0.8582 1.412,-0.893 0.6357,-0.06 1.2685,0.1176 1.8371,0.3917 -0.1302,0.3138 -0.2604,0.6276 -0.3906,0.9414 -0.4404,-0.2036 -0.9337,-0.4127 -1.4272,-0.3045 -0.3365,0.083 -0.4633,0.4907 -0.3534,0.7913 0.1455,0.3274 0.5096,0.4617 0.7992,0.6337 0.5093,0.2751 1.0785,0.5852 1.2978,1.1568 0.073,0.186 0.098,0.3874 0.098,0.586 z"
         id="path3717"
         inkscape:connector-curvature="0" />
      <path
         style="fill:#f9f9f9"
         d="m 19.3661,12.1685 c 0.4349,0 0.8698,0 1.3047,0 0.2507,0.8894 0.5158,1.7751 0.7568,2.667 0.058,0.2007 0.034,0.4727 0.099,0.6377 0.047,-0.6349 0.2738,-1.2343 0.4318,-1.8464 0.136,-0.4861 0.2721,-0.9722 0.4081,-1.4583 0.4375,0 0.875,0 1.3125,0 -0.592,1.6839 -1.1778,3.3699 -1.7735,5.0523 -0.1978,0.5373 -0.6004,1.0512 -1.1839,1.1813 -0.3545,0.087 -0.7272,0.063 -1.0817,-0.011 0,-0.3151 0,-0.6302 0,-0.9453 0.3541,0.071 0.8031,0.1174 1.0625,-0.1919 0.1685,-0.1914 0.2296,-0.4443 0.3125,-0.6792 -0.5495,-1.4688 -1.0989,-2.9375 -1.6484,-4.4063 z"
         id="path3719"
         inkscape:connector-curvature="0" />
      <path
         style="fill:#f9f9f9"
         d="m 27.2137,15.2388 c 0.016,0.4437 -0.2075,0.8948 -0.6018,1.1119 -0.5294,0.2982 -1.1618,0.2898 -1.7488,0.2309 -0.2734,-0.035 -0.5427,-0.1076 -0.7939,-0.2217 0,-0.3281 0,-0.6562 0,-0.9844 0.4512,0.2139 0.9445,0.3724 1.4482,0.3655 0.2173,4e-4 0.4967,-0.095 0.5183,-0.3484 0.04,-0.234 -0.1836,-0.3734 -0.3614,-0.4636 -0.4498,-0.2587 -0.9899,-0.391 -1.3473,-0.7878 -0.2744,-0.322 -0.3155,-0.7882 -0.2198,-1.1863 0.1127,-0.4213 0.5087,-0.7007 0.919,-0.7903 0.6922,-0.1687 1.4336,-0.06 2.0712,0.2484 0.1257,0.017 0.016,0.1244 3e-4,0.1953 -0.097,0.2271 -0.1935,0.4542 -0.2902,0.6813 -0.4081,-0.186 -0.8557,-0.387 -1.3145,-0.2988 -0.2482,0.028 -0.3349,0.3784 -0.1489,0.5317 0.3007,0.2356 0.676,0.3455 1.0103,0.5235 0.3586,0.1672 0.7219,0.4297 0.8187,0.836 0.03,0.1164 0.04,0.2369 0.041,0.3568 z"
         id="path3721"
         inkscape:connector-curvature="0" />
      <path
         style="fill:#f9f9f9"
         d="m 29.9208,15.6646 c 0.2137,0.039 0.5166,-0.1386 0.6562,-0.1001 0,0.2833 0,0.5667 0,0.8501 -0.4793,0.2182 -1.0426,0.2613 -1.5488,0.1147 -0.4394,-0.1309 -0.6945,-0.5831 -0.7325,-1.0186 -0.036,-0.4175 -0.013,-0.8375 -0.02,-1.2562 0,-0.3972 0,-0.7943 0,-1.1915 -0.1901,0 -0.3802,0 -0.5703,0 0,-0.1679 0,-0.3359 0,-0.5039 0.2188,-0.1328 0.4375,-0.2656 0.6563,-0.3984 0.1145,-0.3073 0.2291,-0.6146 0.3437,-0.9219 0.2539,0 0.5078,0 0.7617,0 0,0.3099 0,0.6198 0,0.9297 0.3542,0 0.7084,0 1.0625,0 0,0.2982 0,0.5964 0,0.8945 -0.3541,0 -0.7083,0 -1.0625,0 0,0.732 -0.01,1.4643 0,2.1961 0.01,0.2383 0.2108,0.4195 0.4488,0.4055"
         id="path3723"
         inkscape:connector-curvature="0" />
      <path
         style="fill:#f9f9f9"
         d="m 33.2254,12.9342 c -0.3497,-0.016 -0.6557,0.2635 -0.7174,0.6001 0,0.098 -0.1335,0.351 0.035,0.3217 0.4787,0 0.9574,0 1.4362,0 0,-0.35 -0.1378,-0.7603 -0.4991,-0.8823 -0.082,-0.028 -0.1686,-0.04 -0.2549,-0.039 z m 0.1524,3.6796 c -0.6348,0.01 -1.3154,-0.2095 -1.709,-0.7339 -0.4337,-0.5643 -0.4855,-1.3205 -0.4038,-2.0031 0.076,-0.6242 0.3865,-1.2648 0.9648,-1.5645 0.513,-0.264 1.1332,-0.2883 1.6808,-0.1241 0.5243,0.1494 0.9324,0.5895 1.0808,1.1087 0.1447,0.4365 0.1023,0.9001 0.109,1.3521 -0.888,0 -1.776,0 -2.664,0 0,0.391 0.1712,0.8216 0.5525,0.9844 0.3349,0.1469 0.7171,0.096 1.066,0.037 0.2778,-0.056 0.5437,-0.1588 0.7956,-0.2873 0,0.3073 0,0.6146 0,0.9218 -0.4499,0.2455 -0.9676,0.3102 -1.4727,0.3086 z"
         id="path3725"
         inkscape:connector-curvature="0" />
      <path
         style="fill:#f9f9f9"
         d="m 39.8661,16.5357 c -0.3972,0 -0.7943,0 -1.1914,0 -0,-0.9065 0.01,-1.8133 -0.01,-2.7196 -0.014,-0.2943 -0.1007,-0.6879 -0.4367,-0.7616 -0.315,-0.075 -0.6725,0.087 -0.7792,0.4035 -0.2069,0.5483 -0.1311,1.1443 -0.1463,1.7181 0,0.4532 0,0.9064 0,1.3596 -0.3972,0 -0.7943,0 -1.1914,0 0,-1.4557 0,-2.9114 0,-4.3672 0.3034,0 0.6067,0 0.9101,0 0.053,0.1862 0.1068,0.3724 0.1602,0.5586 0.1894,-0.064 0.2719,-0.3752 0.5015,-0.4465 0.4857,-0.2682 1.1163,-0.2585 1.6026,0 0.2299,0.068 0.2902,0.3974 0.4848,0.4435 0.1474,-0.1914 0.3324,-0.4132 0.5803,-0.5071 0.4787,-0.197 1.0647,-0.188 1.5141,0.082 0.4695,0.2973 0.5661,0.9046 0.5589,1.4172 0,0.9389 0,1.8778 0,2.8167 -0.3985,0 -0.7969,0 -1.1953,0 -0,-0.9065 0.01,-1.8133 -0.01,-2.7196 -0.014,-0.2943 -0.1007,-0.6878 -0.4367,-0.7616 -0.3191,-0.075 -0.6836,0.091 -0.7879,0.4135 -0.2012,0.5213 -0.1206,1.0876 -0.1376,1.6332 0,0.4781 0,0.9563 0,1.4345 z"
         id="path3727"
         inkscape:connector-curvature="0" />
      <path
         style="fill:#f9f9f9"
         d="m 49.0614,16.5357 c -0.2351,-1.0627 -0.4721,-2.1249 -0.6702,-3.1953 -0.023,-0.084 -0.073,-0.5242 -0.1138,-0.2245 -0.1698,0.9231 -0.3416,1.8461 -0.566,2.7578 -0.051,0.2206 -0.1026,0.4413 -0.1539,0.662 -0.4271,0 -0.8542,0 -1.2813,0 -0.3919,-1.4557 -0.7838,-2.9114 -1.1758,-4.3672 0.3946,0 0.7891,0 1.1836,0 0.166,0.7497 0.3526,1.4951 0.503,2.2481 0.07,0.3976 0.129,0.7973 0.1845,1.1972 0.063,-0.1724 0.058,-0.4464 0.1036,-0.6565 0.1048,-0.7267 0.3007,-1.4359 0.4549,-2.1532 0.048,-0.2118 0.096,-0.4237 0.1447,-0.6356 0.4375,0 0.875,0 1.3125,0 0.1728,0.8173 0.3682,1.6302 0.5234,2.451 0.051,0.3303 0.1148,0.6599 0.1328,0.9943 0.083,-0.2223 0.088,-0.5504 0.1467,-0.8103 0.1339,-0.7984 0.3509,-1.5797 0.5287,-2.369 0.03,-0.083 0.028,-0.2083 0.078,-0.266 0.3841,0 0.7682,0 1.1524,0 -0.3972,1.4558 -0.7943,2.9115 -1.1914,4.3672 -0.4323,0 -0.8646,0 -1.2969,0 z"
         id="path3729"
         inkscape:connector-curvature="0" />
      <path
         style="fill:#f9f9f9"
         d="m 52.1278,11.0396 c -0.022,-0.2603 0.1569,-0.5278 0.425,-0.5611 0.2813,-0.051 0.655,-0.031 0.8039,0.2562 0.1489,0.289 0.064,0.7355 -0.2738,0.8457 -0.2638,0.073 -0.5951,0.079 -0.8084,-0.1177 -0.1079,-0.1121 -0.1493,-0.2708 -0.1467,-0.4231 z m 1.2422,5.4961 c -0.3972,0 -0.7943,0 -1.1914,0 0,-1.4557 0,-2.9114 0,-4.3672 0.3971,0 0.7942,0 1.1914,0 0,1.4558 0,2.9115 0,4.3672 z"
         id="path3731"
         inkscape:connector-curvature="0" />
      <path
         style="fill:#f9f9f9"
         d="m 58.4051,16.5357 c -0.3971,0 -0.7942,0 -1.1914,0 -0,-0.8975 0,-1.7952 -0,-2.6927 -0.017,-0.2795 -0.072,-0.6255 -0.3536,-0.7578 -0.3191,-0.1248 -0.7363,-10e-5 -0.8812,0.3255 -0.2115,0.4792 -0.1598,1.0149 -0.1679,1.5262 0,0.5329 0,1.0659 0,1.5988 -0.3972,0 -0.7943,0 -1.1914,0 0,-1.4557 0,-2.9114 0,-4.3672 0.3034,0 0.6067,0 0.9101,0 0.053,0.1862 0.1068,0.3724 0.1602,0.5586 0.1724,-0.024 0.2145,-0.3103 0.3988,-0.3738 0.4619,-0.321 1.0982,-0.3451 1.6063,-0.1215 0.4666,0.2136 0.6805,0.7429 0.7056,1.2285 0.017,0.547 0,1.0947 0.01,1.642 0,0.4778 0,0.9556 0,1.4334 z"
         id="path3733"
         inkscape:connector-curvature="0" />
      <path
         style="fill:#f9f9f9"
         d="m 60.9169,16.6138 c -0.5277,0.018 -1.0142,-0.3305 -1.2272,-0.8034 -0.3138,-0.6588 -0.3272,-1.4168 -0.2375,-2.1282 0.087,-0.6027 0.3758,-1.2641 0.9799,-1.5003 0.5428,-0.2163 1.2276,-0.068 1.5795,0.4144 0.049,0.1037 0.1759,0.2075 0.1148,0.016 -0.077,-0.4174 -0.077,-0.8415 -0.073,-1.2642 0,-0.2968 0,-0.5937 0,-0.8905 0.3971,0 0.7942,0 1.1914,0 0,2.026 0,4.0521 0,6.0781 -0.3034,0 -0.6068,0 -0.9102,0 -0.077,-0.1888 -0.1536,-0.3776 -0.2305,-0.5664 -0.1701,0.077 -0.2486,0.3507 -0.4497,0.4351 -0.2164,0.1448 -0.4786,0.2127 -0.7378,0.2094 z m 0.4335,-0.9492 c 0.2992,0.023 0.5941,-0.1627 0.6787,-0.4551 0.144,-0.4518 0.1213,-0.9392 0.067,-1.4043 -0.037,-0.3285 -0.2272,-0.6996 -0.592,-0.7379 -0.2959,-0.069 -0.6263,0.078 -0.7339,0.371 -0.189,0.4631 -0.1774,0.9828 -0.1159,1.4711 0.042,0.3183 0.2037,0.6934 0.5607,0.744 0.044,0.01 0.09,0.011 0.135,0.011 z"
         id="path3735"
         inkscape:connector-curvature="0" />
      <path
         style="fill:#f9f9f9"
         d="m 65.4833,14.3443 c 0.01,0.3863 0.023,0.8211 0.2898,1.1279 0.2978,0.292 0.89,0.2418 1.0852,-0.1474 0.209,-0.4162 0.197,-0.9027 0.1656,-1.3558 -0.035,-0.3349 -0.1326,-0.7459 -0.4867,-0.876 -0.3227,-0.1165 -0.7522,-0.02 -0.896,0.32 -0.1364,0.2885 -0.1545,0.6174 -0.1579,0.9313 z m 2.7734,0 c 0.01,0.6703 -0.1767,1.4011 -0.7116,1.847 -0.5023,0.4175 -1.2138,0.5018 -1.835,0.3586 -0.5773,-0.1344 -1.0529,-0.5821 -1.2583,-1.1334 -0.2277,-0.5842 -0.2335,-1.2391 -0.1038,-1.8467 0.1262,-0.5723 0.5037,-1.1073 1.0614,-1.3255 0.5399,-0.2113 1.1689,-0.2184 1.7048,0.01 0.6304,0.2683 1.014,0.9188 1.1054,1.5776 0.026,0.1696 0.037,0.3412 0.037,0.5127 z"
         id="path3737"
         inkscape:connector-curvature="0" />
      <path
         style="fill:#f9f9f9"
         d="m 72.6239,16.5357 c -0.2351,-1.0627 -0.4721,-2.1249 -0.6702,-3.1953 -0.023,-0.084 -0.073,-0.5242 -0.1138,-0.2245 -0.1698,0.9231 -0.3416,1.8461 -0.566,2.7578 -0.051,0.2206 -0.1026,0.4413 -0.1539,0.662 -0.4271,0 -0.8542,0 -1.2813,0 -0.3919,-1.4557 -0.7838,-2.9114 -1.1758,-4.3672 0.3946,0 0.7891,0 1.1836,0 0.166,0.7497 0.3526,1.4951 0.503,2.2481 0.07,0.3976 0.129,0.7973 0.1845,1.1972 0.063,-0.1724 0.058,-0.4464 0.1036,-0.6565 0.1048,-0.7267 0.3007,-1.4359 0.4549,-2.1532 0.048,-0.2118 0.096,-0.4237 0.1447,-0.6356 0.4375,0 0.875,0 1.3125,0 0.1728,0.8173 0.3682,1.6302 0.5234,2.451 0.051,0.3303 0.1148,0.6599 0.1328,0.9943 0.083,-0.2223 0.088,-0.5504 0.1467,-0.8103 0.1339,-0.7984 0.3509,-1.5797 0.5287,-2.369 0.031,-0.083 0.028,-0.2083 0.079,-0.266 0.3841,0 0.7682,0 1.1524,0 -0.3972,1.4558 -0.7943,2.9115 -1.1914,4.3672 -0.4323,0 -0.8646,0 -1.2969,0 z"
         id="path3739"
         inkscape:connector-curvature="0" />
    </g>
    <g
       transform="matrix(0.64183214,0,0,0.64183214,18.906417,6.3589584)"
       id="text3686"
       style="font-size:8px;font-style:normal;font-variant:normal;font-weight:bold;font-stretch:normal;text-align:start;line-height:125%;writing-mode:lr-tb;text-anchor:start;fill:#4d4d4d;fill-opacity:1;stroke:none;font-family:Droid Sans;-inkscape-font-specification:Abandoned Bitplane Bold">
      <path
         d="m 19.0262,14.9498 c 0.018,0.5675 -0.2779,1.147 -0.7949,1.4052 -0.634,0.3275 -1.3908,0.3084 -2.0695,0.1501 -0.191,-0.087 -0.5496,-0.098 -0.616,-0.3033 0,-0.3522 0,-0.7045 0,-1.0567 0.5737,0.2713 1.2088,0.5639 1.8584,0.4358 0.2671,-0.049 0.4549,-0.3048 0.4384,-0.5725 0,-0.3781 -0.3546,-0.6101 -0.6472,-0.7742 -0.4934,-0.2798 -1.0656,-0.5123 -1.3613,-1.0289 -0.2852,-0.4618 -0.2848,-1.0663 -0.08,-1.5589 0.2357,-0.553 0.8334,-0.8582 1.412,-0.893 0.6357,-0.06 1.2685,0.1176 1.8371,0.3917 -0.1302,0.3138 -0.2604,0.6276 -0.3906,0.9414 -0.4404,-0.2036 -0.9337,-0.4127 -1.4272,-0.3045 -0.3365,0.083 -0.4633,0.4907 -0.3534,0.7913 0.1455,0.3274 0.5096,0.4617 0.7992,0.6337 0.5093,0.2751 1.0785,0.5852 1.2978,1.1568 0.073,0.186 0.098,0.3874 0.098,0.586 z"
         id="path3691"
         inkscape:connector-curvature="0" />
      <path
         d="m 19.3661,12.1685 c 0.4349,0 0.8698,0 1.3047,0 0.2507,0.8894 0.5158,1.7751 0.7568,2.667 0.058,0.2007 0.034,0.4727 0.099,0.6377 0.047,-0.6349 0.2738,-1.2343 0.4318,-1.8464 0.136,-0.4861 0.2721,-0.9722 0.4081,-1.4583 0.4375,0 0.875,0 1.3125,0 -0.592,1.6839 -1.1778,3.3699 -1.7735,5.0523 -0.1978,0.5373 -0.6004,1.0512 -1.1839,1.1813 -0.3545,0.087 -0.7272,0.063 -1.0817,-0.011 0,-0.3151 0,-0.6302 0,-0.9453 0.3541,0.071 0.8031,0.1174 1.0625,-0.1919 0.1685,-0.1914 0.2296,-0.4443 0.3125,-0.6792 -0.5495,-1.4688 -1.0989,-2.9375 -1.6484,-4.4063 z"
         id="path3693"
         inkscape:connector-curvature="0" />
      <path
         d="m 27.2137,15.2388 c 0.016,0.4437 -0.2075,0.8948 -0.6018,1.1119 -0.5294,0.2982 -1.1618,0.2898 -1.7488,0.2309 -0.2734,-0.035 -0.5427,-0.1076 -0.7939,-0.2217 0,-0.3281 0,-0.6562 0,-0.9844 0.4512,0.2139 0.9445,0.3724 1.4482,0.3655 0.2173,4e-4 0.4967,-0.095 0.5183,-0.3484 0.04,-0.234 -0.1836,-0.3734 -0.3614,-0.4636 -0.4498,-0.2587 -0.9899,-0.391 -1.3473,-0.7878 -0.2744,-0.322 -0.3155,-0.7882 -0.2198,-1.1863 0.1127,-0.4213 0.5087,-0.7007 0.919,-0.7903 0.6922,-0.1687 1.4336,-0.06 2.0712,0.2484 0.1257,0.017 0.016,0.1244 3e-4,0.1953 -0.097,0.2271 -0.1935,0.4542 -0.2902,0.6813 -0.4081,-0.186 -0.8557,-0.387 -1.3145,-0.2988 -0.2482,0.028 -0.3349,0.3784 -0.1489,0.5317 0.3007,0.2356 0.676,0.3455 1.0103,0.5235 0.3586,0.1672 0.7219,0.4297 0.8187,0.836 0.03,0.1164 0.04,0.2369 0.041,0.3568 z"
         id="path3695"
         inkscape:connector-curvature="0" />
      <path
         d="m 29.9208,15.6646 c 0.2137,0.039 0.5166,-0.1386 0.6562,-0.1001 0,0.2833 0,0.5667 0,0.8501 -0.4793,0.2182 -1.0426,0.2613 -1.5488,0.1147 -0.4394,-0.1309 -0.6945,-0.5831 -0.7325,-1.0186 -0.036,-0.4175 -0.013,-0.8375 -0.02,-1.2562 0,-0.3972 0,-0.7943 0,-1.1915 -0.1901,0 -0.3802,0 -0.5703,0 0,-0.1679 0,-0.3359 0,-0.5039 0.2188,-0.1328 0.4375,-0.2656 0.6563,-0.3984 0.1145,-0.3073 0.2291,-0.6146 0.3437,-0.9219 0.2539,0 0.5078,0 0.7617,0 0,0.3099 0,0.6198 0,0.9297 0.3542,0 0.7084,0 1.0625,0 0,0.2982 0,0.5964 0,0.8945 -0.3541,0 -0.7083,0 -1.0625,0 0,0.732 -0.01,1.4643 0,2.1961 0.01,0.2383 0.2108,0.4195 0.4488,0.4055"
         id="path3697"
         inkscape:connector-curvature="0" />
      <path
         d="m 33.2254,12.9342 c -0.3497,-0.016 -0.6557,0.2635 -0.7174,0.6001 0,0.098 -0.1335,0.351 0.035,0.3217 0.4787,0 0.9574,0 1.4362,0 0,-0.35 -0.1378,-0.7603 -0.4991,-0.8823 -0.082,-0.028 -0.1686,-0.04 -0.2549,-0.039 z m 0.1524,3.6796 c -0.6348,0.01 -1.3154,-0.2095 -1.709,-0.7339 -0.4337,-0.5643 -0.4855,-1.3205 -0.4038,-2.0031 0.076,-0.6242 0.3865,-1.2648 0.9648,-1.5645 0.513,-0.264 1.1332,-0.2883 1.6808,-0.1241 0.5243,0.1494 0.9324,0.5895 1.0808,1.1087 0.1447,0.4365 0.1023,0.9001 0.109,1.3521 -0.888,0 -1.776,0 -2.664,0 0,0.391 0.1712,0.8216 0.5525,0.9844 0.3349,0.1469 0.7171,0.096 1.066,0.037 0.2778,-0.056 0.5437,-0.1588 0.7956,-0.2873 0,0.3073 0,0.6146 0,0.9218 -0.4499,0.2455 -0.9676,0.3102 -1.4727,0.3086 z"
         id="path3699"
         inkscape:connector-curvature="0" />
      <path
         d="m 39.8661,16.5357 c -0.3972,0 -0.7943,0 -1.1914,0 -0,-0.9065 0.01,-1.8133 -0.01,-2.7196 -0.014,-0.2943 -0.1007,-0.6879 -0.4367,-0.7616 -0.315,-0.075 -0.6725,0.087 -0.7792,0.4035 -0.2069,0.5483 -0.1311,1.1443 -0.1463,1.7181 0,0.4532 0,0.9064 0,1.3596 -0.3972,0 -0.7943,0 -1.1914,0 0,-1.4557 0,-2.9114 0,-4.3672 0.3034,0 0.6067,0 0.9101,0 0.053,0.1862 0.1068,0.3724 0.1602,0.5586 0.1894,-0.064 0.2719,-0.3752 0.5015,-0.4465 0.4857,-0.2682 1.1163,-0.2585 1.6026,0 0.2299,0.068 0.2902,0.3974 0.4848,0.4435 0.1474,-0.1914 0.3324,-0.4132 0.5803,-0.5071 0.4787,-0.197 1.0647,-0.188 1.5141,0.082 0.4695,0.2973 0.5661,0.9046 0.5589,1.4172 0,0.9389 0,1.8778 0,2.8167 -0.3985,0 -0.7969,0 -1.1953,0 -0,-0.9065 0.01,-1.8133 -0.01,-2.7196 -0.014,-0.2943 -0.1007,-0.6878 -0.4367,-0.7616 -0.3191,-0.075 -0.6836,0.091 -0.7879,0.4135 -0.2012,0.5213 -0.1206,1.0876 -0.1376,1.6332 0,0.4781 0,0.9563 0,1.4345 z"
         id="path3701"
         inkscape:connector-curvature="0" />
      <path
         d="m 49.0614,16.5357 c -0.2351,-1.0627 -0.4721,-2.1249 -0.6702,-3.1953 -0.023,-0.084 -0.073,-0.5242 -0.1138,-0.2245 -0.1698,0.9231 -0.3416,1.8461 -0.566,2.7578 -0.051,0.2206 -0.1026,0.4413 -0.1539,0.662 -0.4271,0 -0.8542,0 -1.2813,0 -0.3919,-1.4557 -0.7838,-2.9114 -1.1758,-4.3672 0.3946,0 0.7891,0 1.1836,0 0.166,0.7497 0.3526,1.4951 0.503,2.2481 0.07,0.3976 0.129,0.7973 0.1845,1.1972 0.063,-0.1724 0.058,-0.4464 0.1036,-0.6565 0.1048,-0.7267 0.3007,-1.4359 0.4549,-2.1532 0.048,-0.2118 0.096,-0.4237 0.1447,-0.6356 0.4375,0 0.875,0 1.3125,0 0.1728,0.8173 0.3682,1.6302 0.5234,2.451 0.051,0.3303 0.1148,0.6599 0.1328,0.9943 0.083,-0.2223 0.088,-0.5504 0.1467,-0.8103 0.1339,-0.7984 0.3509,-1.5797 0.5287,-2.369 0.03,-0.083 0.028,-0.2083 0.078,-0.266 0.3841,0 0.7682,0 1.1524,0 -0.3972,1.4558 -0.7943,2.9115 -1.1914,4.3672 -0.4323,0 -0.8646,0 -1.2969,0 z"
         id="path3703"
         inkscape:connector-curvature="0" />
      <path
         d="m 52.1278,11.0396 c -0.022,-0.2603 0.1569,-0.5278 0.425,-0.5611 0.2813,-0.051 0.655,-0.031 0.8039,0.2562 0.1489,0.289 0.064,0.7355 -0.2738,0.8457 -0.2638,0.073 -0.5951,0.079 -0.8084,-0.1177 -0.1079,-0.1121 -0.1493,-0.2708 -0.1467,-0.4231 z m 1.2422,5.4961 c -0.3972,0 -0.7943,0 -1.1914,0 0,-1.4557 0,-2.9114 0,-4.3672 0.3971,0 0.7942,0 1.1914,0 0,1.4558 0,2.9115 0,4.3672 z"
         id="path3705"
         inkscape:connector-curvature="0" />
      <path
         d="m 58.4051,16.5357 c -0.3971,0 -0.7942,0 -1.1914,0 -0,-0.8975 0,-1.7952 -0,-2.6927 -0.017,-0.2795 -0.072,-0.6255 -0.3536,-0.7578 -0.3191,-0.1248 -0.7363,-10e-5 -0.8812,0.3255 -0.2115,0.4792 -0.1598,1.0149 -0.1679,1.5262 0,0.5329 0,1.0659 0,1.5988 -0.3972,0 -0.7943,0 -1.1914,0 0,-1.4557 0,-2.9114 0,-4.3672 0.3034,0 0.6067,0 0.9101,0 0.053,0.1862 0.1068,0.3724 0.1602,0.5586 0.1724,-0.024 0.2145,-0.3103 0.3988,-0.3738 0.4619,-0.321 1.0982,-0.3451 1.6063,-0.1215 0.4666,0.2136 0.6805,0.7429 0.7056,1.2285 0.017,0.547 0,1.0947 0.01,1.642 0,0.4778 0,0.9556 0,1.4334 z"
         id="path3707"
         inkscape:connector-curvature="0" />
      <path
         d="m 60.9169,16.6138 c -0.5277,0.018 -1.0142,-0.3305 -1.2272,-0.8034 -0.3138,-0.6588 -0.3272,-1.4168 -0.2375,-2.1282 0.087,-0.6027 0.3758,-1.2641 0.9799,-1.5003 0.5428,-0.2163 1.2276,-0.068 1.5795,0.4144 0.049,0.1037 0.1759,0.2075 0.1148,0.016 -0.077,-0.4174 -0.077,-0.8415 -0.073,-1.2642 0,-0.2968 0,-0.5937 0,-0.8905 0.3971,0 0.7942,0 1.1914,0 0,2.026 0,4.0521 0,6.0781 -0.3034,0 -0.6068,0 -0.9102,0 -0.077,-0.1888 -0.1536,-0.3776 -0.2305,-0.5664 -0.1701,0.077 -0.2486,0.3507 -0.4497,0.4351 -0.2164,0.1448 -0.4786,0.2127 -0.7378,0.2094 z m 0.4335,-0.9492 c 0.2992,0.023 0.5941,-0.1627 0.6787,-0.4551 0.144,-0.4518 0.1213,-0.9392 0.067,-1.4043 -0.037,-0.3285 -0.2272,-0.6996 -0.592,-0.7379 -0.2959,-0.069 -0.6263,0.078 -0.7339,0.371 -0.189,0.4631 -0.1774,0.9828 -0.1159,1.4711 0.042,0.3183 0.2037,0.6934 0.5607,0.744 0.044,0.01 0.09,0.011 0.135,0.011 z"
         id="path3709"
         inkscape:connector-curvature="0" />
      <path
         d="m 65.4833,14.3443 c 0.01,0.3863 0.023,0.8211 0.2898,1.1279 0.2978,0.292 0.89,0.2418 1.0852,-0.1474 0.209,-0.4162 0.197,-0.9027 0.1656,-1.3558 -0.035,-0.3349 -0.1326,-0.7459 -0.4867,-0.876 -0.3227,-0.1165 -0.7522,-0.02 -0.896,0.32 -0.1364,0.2885 -0.1545,0.6174 -0.1579,0.9313 z m 2.7734,0 c 0.01,0.6703 -0.1767,1.4011 -0.7116,1.847 -0.5023,0.4175 -1.2138,0.5018 -1.835,0.3586 -0.5773,-0.1344 -1.0529,-0.5821 -1.2583,-1.1334 -0.2277,-0.5842 -0.2335,-1.2391 -0.1038,-1.8467 0.1262,-0.5723 0.5037,-1.1073 1.0614,-1.3255 0.5399,-0.2113 1.1689,-0.2184 1.7048,0.01 0.6304,0.2683 1.014,0.9188 1.1054,1.5776 0.026,0.1696 0.037,0.3412 0.037,0.5127 z"
         id="path3711"
         inkscape:connector-curvature="0" />
      <path
         d="m 72.6239,16.5357 c -0.2351,-1.0627 -0.4721,-2.1249 -0.6702,-3.1953 -0.023,-0.084 -0.073,-0.5242 -0.1138,-0.2245 -0.1698,0.9231 -0.3416,1.8461 -0.566,2.7578 -0.051,0.2206 -0.1026,0.4413 -0.1539,0.662 -0.4271,0 -0.8542,0 -1.2813,0 -0.3919,-1.4557 -0.7838,-2.9114 -1.1758,-4.3672 0.3946,0 0.7891,0 1.1836,0 0.166,0.7497 0.3526,1.4951 0.503,2.2481 0.07,0.3976 0.129,0.7973 0.1845,1.1972 0.063,-0.1724 0.058,-0.4464 0.1036,-0.6565 0.1048,-0.7267 0.3007,-1.4359 0.4549,-2.1532 0.048,-0.2118 0.096,-0.4237 0.1447,-0.6356 0.4375,0 0.875,0 1.3125,0 0.1728,0.8173 0.3682,1.6302 0.5234,2.451 0.051,0.3303 0.1148,0.6599 0.1328,0.9943 0.083,-0.2223 0.088,-0.5504 0.1467,-0.8103 0.1339,-0.7984 0.3509,-1.5797 0.5287,-2.369 0.031,-0.083 0.028,-0.2083 0.079,-0.266 0.3841,0 0.7682,0 1.1524,0 -0.3972,1.4558 -0.7943,2.9115 -1.1914,4.3672 -0.4323,0 -0.8646,0 -1.2969,0 z"
         id="path3713"
         inkscape:connector-curvature="0" />
    </g>
    <path
       d="m 12,6 0,2.5 c 0,0.831 0.669,1.5 1.5,1.5 l 3,0 C 17.331,10 18,9.331 18,8.5 L 18,6 12,6 z"
       id="rect3741"
       style="color:#000000;fill:url(#linearGradient3767);fill-opacity:1;fill-rule:nonzero;stroke:none;stroke-width:1.5;marker:none;visibility:visible;display:inline;overflow:visible;enable-background:accumulate" />
    <path
       d="m 12,8.5 0,1 c 0,0.831 0.669,1.5 1.5,1.5 l 3,0 C 17.331,11 18,10.331 18,9.5 l 0,-1 C 18,9.331 17.331,10 16.5,10 l -3,0 C 12.669,10 12,9.331 12,8.5 z"
       id="path3756"
       style="opacity:0.8;color:#000000;fill:#ffffff;fill-opacity:1;fill-rule:nonzero;stroke:none;stroke-width:1.5;marker:none;visibility:visible;display:inline;overflow:visible;enable-background:accumulate" />
    <path
       d="m 12,6 0,1 6,0 0,-1 -6,0 z"
       id="path3769"
       style="opacity:0.2;color:#000000;fill:#ffffff;fill-opacity:1;fill-rule:nonzero;stroke:none;stroke-width:1.5;marker:none;visibility:visible;display:inline;overflow:visible;enable-background:accumulate" />
    <path
       d="m 67,6 0,2.5 c 0,0.831 0.669,1.5 1.5,1.5 l 15,0 C 84.331,10 85,9.331 85,8.5 L 85,6 67,6 z"
       id="path3779"
       style="color:#000000;fill:url(#linearGradient3785);fill-opacity:1;fill-rule:nonzero;stroke:none;stroke-width:1.5;marker:none;visibility:visible;display:inline;overflow:visible;enable-background:accumulate" />
    <path
       d="m 67,8.5 0,1 c 0,0.831 0.669,1.5 1.5,1.5 l 15,0 C 84.331,11 85,10.331 85,9.5 l 0,-1 C 85,9.331 84.331,10 83.5,10 l -15,0 C 67.669,10 67,9.331 67,8.5 z"
       id="path3781"
       style="opacity:0.8;color:#000000;fill:#ffffff;fill-opacity:1;fill-rule:nonzero;stroke:none;stroke-width:1.5;marker:none;visibility:visible;display:inline;overflow:visible;enable-background:accumulate" />
    <path
       d="m 79,6 0,4 4.5,0 C 84.331,10 85,9.331 85,8.5 L 85,6 79,6 z"
       id="path3787"
       style="color:#000000;fill:url(#linearGradient3800);fill-opacity:1;fill-rule:nonzero;stroke:none;stroke-width:1.5;marker:none;visibility:visible;display:inline;overflow:visible;enable-background:accumulate" />
    <path
       d="M 67,6 67,7 85,7 85,6 67,6 z"
       id="path3783"
       style="opacity:0.2;color:#000000;fill:#ffffff;fill-opacity:1;fill-rule:nonzero;stroke:none;stroke-width:1.5;marker:none;visibility:visible;display:inline;overflow:visible;enable-background:accumulate" />
    <path
       d="m 67,6 0,2.5 c 0,0.831 0.669,1.5 1.5,1.5 l 15,0 C 84.331,10 85,9.331 85,8.5 L 85,6 84,6 84,8 c 0,0.554 -0.446,1 -1,1 L 69,9 C 68.446,9 68,8.554 68,8 l 0,-2 -1,0 z"
       id="path3802"
       style="opacity:0.1;color:#000000;fill:#000000;fill-opacity:1;fill-rule:nonzero;stroke:none;stroke-width:1.5;marker:none;visibility:visible;display:inline;overflow:visible;enable-background:accumulate" />
    <path
       d="m 14,7.4806265 2,0 L 15,9 14,7.4806265 z"
       id="path3811"
       style="fill:#ffffff;stroke:none" />
    <rect
       width="2"
       height="0.74366587"
       x="69"
       y="8.0320415"
       id="rect3815"
       style="color:#000000;fill:#ffffff;fill-opacity:1;fill-rule:nonzero;stroke:none;stroke-width:1.5;marker:none;visibility:visible;display:inline;overflow:visible;enable-background:accumulate" />
    <path
       d="m 75,7 0,2 2,0 0,-2 -2,0 z m 0.53125,0.53125 0.9375,0 0,0.9375 -0.9375,0 0,-0.9375 z"
       id="rect3817"
       style="color:#000000;fill:#ffffff;fill-opacity:1;fill-rule:nonzero;stroke:none;stroke-width:1.5;marker:none;visibility:visible;display:inline;overflow:visible;enable-background:accumulate" />
    <path
       d="m 81.395586,7 -0.375,0.375 0.59375,0.59375 -0.59375,0.59375 0.375,0.40625 0.59375,-0.59375 0.59375,0.59375 L 82.989336,8.5625 82.395586,7.96875 82.989336,7.375 82.583086,7 81.989336,7.59375 81.395586,7 z"
       id="rect3822"
       style="color:#000000;fill:#ffffff;fill-opacity:1;fill-rule:nonzero;stroke:none;stroke-width:1.5;marker:none;visibility:visible;display:inline;overflow:visible;enable-background:accumulate" />
  </g>
  <g
     id="layer5"
     style="display:none">
    <rect
       width="66"
       height="66"
       rx="12"
       ry="12"
       x="15"
       y="15"
       clip-path="url(#clipPath3613)"
       id="rect3171"
       style="opacity:0.1;fill:url(#linearGradient3613);fill-opacity:1;fill-rule:nonzero;stroke:#ffffff;stroke-width:0.5;stroke-linecap:round;stroke-linejoin:miter;stroke-miterlimit:4;stroke-opacity:1;stroke-dasharray:none;stroke-dashoffset:0;filter:url(#filter3794)" />
  </g>
</svg>
