<?xml version="1.0" encoding="UTF-8" standalone="no"?>
<!-- Created with Inkscape (http://www.inkscape.org/) -->

<svg
   xmlns:dc="http://purl.org/dc/elements/1.1/"
   xmlns:cc="http://creativecommons.org/ns#"
   xmlns:rdf="http://www.w3.org/1999/02/22-rdf-syntax-ns#"
   xmlns:svg="http://www.w3.org/2000/svg"
   xmlns="http://www.w3.org/2000/svg"
   xmlns:xlink="http://www.w3.org/1999/xlink"
   xmlns:sodipodi="http://sodipodi.sourceforge.net/DTD/sodipodi-0.dtd"
   xmlns:inkscape="http://www.inkscape.org/namespaces/inkscape"
   version="1.0"
   width="96"
   height="96"
   id="svg2408"
   inkscape:version="0.91 r"
   sodipodi:docname="xoscope.svg"
   inkscape:export-filename="/media/Daten/projekte/ICONS/Faenza-Fresh/apps v0.2/xoscope.png"
   inkscape:export-xdpi="45"
   inkscape:export-ydpi="45">
  <title
     id="title65">xoscope</title>
  <sodipodi:namedview
     pagecolor="#ffffff"
     bordercolor="#666666"
     borderopacity="1"
     objecttolerance="10"
     gridtolerance="10"
     guidetolerance="10"
     inkscape:pageopacity="0"
     inkscape:pageshadow="2"
     inkscape:window-width="1280"
     inkscape:window-height="965"
     id="namedview59"
     showgrid="false"
     inkscape:zoom="1.68229"
     inkscape:cx="-34.8552"
     inkscape:cy="38.79"
     inkscape:window-x="0"
     inkscape:window-y="27"
     inkscape:window-maximized="1"
     inkscape:current-layer="svg2408" />
  <defs
     id="defs2410">
    <linearGradient
       id="linearGradient3807">
      <stop
         offset="0"
         style="stop-color:#0f0f0f;stop-opacity:1;"
         id="stop3809" />
      <stop
         offset="1"
         style="stop-color:#494949;stop-opacity:1;"
         id="stop3811" />
    </linearGradient>
    <linearGradient
       id="linearGradient3825">
      <stop
         id="stop3827"
         style="stop-color:#501616;stop-opacity:1"
         offset="0" />
      <stop
         id="stop3829"
         style="stop-color:#501616;stop-opacity:0"
         offset="1" />
    </linearGradient>
    <linearGradient
       id="linearGradient3694">
      <stop
         id="stop3696"
         style="stop-color:#e6e6e6;stop-opacity:1"
         offset="0" />
      <stop
         id="stop3698"
         style="stop-color:#f5f5f5;stop-opacity:1"
         offset="1" />
    </linearGradient>
    <linearGradient
       id="linearGradient3688">
      <stop
         id="stop3690"
         style="stop-color:#b30707;stop-opacity:1"
         offset="0" />
      <stop
         id="stop3692"
         style="stop-color:#e42c0d;stop-opacity:1"
         offset="1" />
    </linearGradient>
    <linearGradient
       x1="45.447727"
       y1="92.539597"
       x2="45.447727"
       y2="7.0165396"
       id="ButtonShadow"
       gradientUnits="userSpaceOnUse"
       gradientTransform="scale(1.0058652,0.994169)">
      <stop
         id="stop3750"
         style="stop-color:#000000;stop-opacity:1"
         offset="0" />
      <stop
         id="stop3752"
         style="stop-color:#000000;stop-opacity:0.58823532"
         offset="1" />
    </linearGradient>
    <linearGradient
       id="linearGradient3737">
      <stop
         id="stop3739"
         style="stop-color:#ffffff;stop-opacity:1"
         offset="0" />
      <stop
         id="stop3741"
         style="stop-color:#ffffff;stop-opacity:0"
         offset="1" />
    </linearGradient>
    <filter
       color-interpolation-filters="sRGB"
       id="filter3174">
      <feGaussianBlur
         id="feGaussianBlur3176"
         stdDeviation="1.71" />
    </filter>
    <linearGradient
       x1="36.357143"
       y1="6"
       x2="36.357143"
       y2="63.893143"
       id="linearGradient3188"
       xlink:href="#linearGradient3737"
       gradientUnits="userSpaceOnUse" />
    <filter
       x="-0.192"
       y="-0.192"
       width="1.3839999"
       height="1.3839999"
       color-interpolation-filters="sRGB"
       id="filter3794">
      <feGaussianBlur
         id="feGaussianBlur3796"
         stdDeviation="5.28" />
    </filter>
    <linearGradient
       x1="48"
       y1="20.220806"
       x2="48"
       y2="138.66119"
       id="linearGradient3613"
       xlink:href="#linearGradient3737"
       gradientUnits="userSpaceOnUse" />
    <radialGradient
       cx="48"
       cy="90.171875"
       r="42"
       fx="48"
       fy="90.171875"
       id="radialGradient3619"
       xlink:href="#linearGradient3737"
       gradientUnits="userSpaceOnUse"
       gradientTransform="matrix(1.1573129,0,0,0.99590774,-7.5510206,0.19713193)" />
    <clipPath
       id="clipPath3613">
      <rect
         width="84"
         height="84"
         rx="6"
         ry="6"
         x="6"
         y="6"
         id="rect3615"
         style="fill:#ffffff;fill-opacity:1;fill-rule:nonzero;stroke:none" />
    </clipPath>
    <linearGradient
       x1="48"
       y1="90"
       x2="48"
       y2="5.9877172"
       id="linearGradient3617"
       xlink:href="#linearGradient3807"
       gradientUnits="userSpaceOnUse" />
    <linearGradient
       x1="45.447727"
       y1="92.539597"
       x2="45.447727"
       y2="7.0165396"
       id="ButtonShadow-0"
       gradientUnits="userSpaceOnUse"
       gradientTransform="matrix(1.0058652,0,0,0.994169,100,0)">
      <stop
         id="stop3750-8"
         style="stop-color:#000000;stop-opacity:1"
         offset="0" />
      <stop
         id="stop3752-5"
         style="stop-color:#000000;stop-opacity:0.58823532"
         offset="1" />
    </linearGradient>
    <linearGradient
       x1="32.251034"
       y1="6.1317081"
       x2="32.251034"
       y2="90.238609"
       id="linearGradient3780"
       xlink:href="#ButtonShadow-0"
       gradientUnits="userSpaceOnUse"
       gradientTransform="matrix(1.0238095,0,0,1.0119048,-1.1428571,-98.071429)" />
    <linearGradient
       x1="32.251034"
       y1="6.1317081"
       x2="32.251034"
       y2="90.238609"
       id="linearGradient3772"
       xlink:href="#ButtonShadow-0"
       gradientUnits="userSpaceOnUse"
       gradientTransform="matrix(1.0238095,0,0,1.0119048,-1.1428571,-98.071429)" />
    <linearGradient
       x1="32.251034"
       y1="6.1317081"
       x2="32.251034"
       y2="90.238609"
       id="linearGradient3725"
       xlink:href="#ButtonShadow-0"
       gradientUnits="userSpaceOnUse"
       gradientTransform="matrix(1.0238095,0,0,1.0119048,-1.1428571,-98.071429)" />
    <linearGradient
       x1="32.251034"
       y1="6.1317081"
       x2="32.251034"
       y2="90.238609"
       id="linearGradient3721"
       xlink:href="#ButtonShadow-0"
       gradientUnits="userSpaceOnUse"
       gradientTransform="translate(0,-97)" />
    <linearGradient
       x1="32.251034"
       y1="6.1317081"
       x2="32.251034"
       y2="90.238609"
       id="linearGradient3026"
       xlink:href="#ButtonShadow-0"
       gradientUnits="userSpaceOnUse"
       gradientTransform="matrix(1.0238095,0,0,1.0119048,-1.1428571,-98.071429)" />
    <linearGradient
       x1="62.336792"
       y1="79.015236"
       x2="62.336792"
       y2="12.797539"
       id="linearGradient2936"
       xlink:href="#linearGradient3694"
       gradientUnits="userSpaceOnUse"
       gradientTransform="matrix(0.87485882,0,0,0.90698611,2.762671,6.33428)" />
    <linearGradient
       x1="55"
       y1="18"
       x2="55"
       y2="112"
       id="linearGradient3831"
       xlink:href="#linearGradient3825"
       gradientUnits="userSpaceOnUse" />
    <linearGradient
       inkscape:collect="always"
       xlink:href="#linearGradient3807"
       id="linearGradient3049"
       gradientUnits="userSpaceOnUse"
       x1="48"
       y1="90"
       x2="48"
       y2="5.9877172" />
    <linearGradient
       inkscape:collect="always"
       xlink:href="#linearGradient3737"
       id="linearGradient3051"
       gradientUnits="userSpaceOnUse"
       x1="36.357143"
       y1="6"
       x2="36.357143"
       y2="63.893143" />
    <radialGradient
       inkscape:collect="always"
       xlink:href="#linearGradient3737"
       id="radialGradient3053"
       gradientUnits="userSpaceOnUse"
       gradientTransform="matrix(1.1573129,0,0,0.99590774,-7.5510206,0.19713193)"
       cx="48"
       cy="90.171875"
       fx="48"
       fy="90.171875"
       r="42" />
    <radialGradient
       inkscape:collect="always"
       xlink:href="#linearGradient3737"
       id="radialGradient3073"
       gradientUnits="userSpaceOnUse"
       gradientTransform="matrix(1.15731,0,0,0.995908,-7.55102,0.197132)"
       cx="48"
       cy="90.171875"
       fx="48"
       fy="90.171875"
       r="42" />
    <linearGradient
       inkscape:collect="always"
       xlink:href="#linearGradient3737"
       id="linearGradient3076"
       gradientUnits="userSpaceOnUse"
       x1="36.357143"
       y1="6"
       x2="36.357143"
       y2="63.893143" />
    <linearGradient
       inkscape:collect="always"
       xlink:href="#linearGradient3807"
       id="linearGradient3079"
       gradientUnits="userSpaceOnUse"
       x1="48"
       y1="90"
       x2="48"
       y2="5.9877172" />
  </defs>
  <metadata
     id="metadata2413">
    <rdf:RDF>
      <cc:Work
         rdf:about="">
        <dc:format>image/svg+xml</dc:format>
        <dc:type
           rdf:resource="http://purl.org/dc/dcmitype/StillImage" />
        <dc:title>xoscope</dc:title>
        <dc:subject>
          <rdf:Bag>
            <rdf:li>xoscope</rdf:li>
          </rdf:Bag>
        </dc:subject>
        <dc:description>xoscope</dc:description>
      </cc:Work>
    </rdf:RDF>
  </metadata>
  <g
     id="layer2"
     style="display:none">
    <rect
       width="86"
       height="85"
       rx="6"
       ry="6"
       x="5"
       y="7"
       id="rect3745"
       style="opacity:0.9;fill:url(#ButtonShadow);fill-opacity:1;fill-rule:nonzero;stroke:none;filter:url(#filter3174)" />
  </g>
  <g
     id="layer3">
    <path
       d="m 12,-95.03125 c -5.5110903,0 -10.03125,4.52016 -10.03125,10.03125 l 0,71 c 0,5.5110902 4.5201598,10.03125 10.03125,10.03125 l 72,0 c 5.51109,0 10.03125,-4.5201597 10.03125,-10.03125 l 0,-71 c 0,-5.51109 -4.52016,-10.03125 -10.03125,-10.03125 l -72,0 z"
       transform="scale(1,-1)"
       id="path3786"
       style="opacity:0.07999998;fill:url(#linearGradient3026);fill-opacity:1;fill-rule:nonzero;stroke:none;display:inline" />
    <path
       d="m 12,-94.03125 c -4.971633,0 -9.03125,4.059617 -9.03125,9.03125 l 0,71 c 0,4.9716329 4.0596171,9.03125 9.03125,9.03125 l 72,0 c 4.971633,0 9.03125,-4.059617 9.03125,-9.03125 l 0,-71 c 0,-4.971633 -4.059617,-9.03125 -9.03125,-9.03125 l -72,0 z"
       transform="scale(1,-1)"
       id="path3778"
       style="opacity:0.1;fill:url(#linearGradient3780);fill-opacity:1;fill-rule:nonzero;stroke:none;display:inline" />
    <path
       d="m 12,-93 c -4.4091333,0 -8,3.590867 -8,8 l 0,71 c 0,4.4091333 3.5908667,8 8,8 l 72,0 c 4.409133,0 8,-3.5908667 8,-8 l 0,-71 c 0,-4.409133 -3.590867,-8 -8,-8 l -72,0 z"
       transform="scale(1,-1)"
       id="path3770"
       style="opacity:0.2;fill:url(#linearGradient3772);fill-opacity:1;fill-rule:nonzero;stroke:none;display:inline" />
    <rect
       width="86"
       height="85"
       rx="7"
       ry="7"
       x="5"
       y="-92"
       transform="scale(1,-1)"
       id="rect3723"
       style="opacity:0.3;fill:url(#linearGradient3725);fill-opacity:1;fill-rule:nonzero;stroke:none;display:inline" />
    <rect
       width="84"
       height="84"
       rx="6"
       ry="6"
       x="6"
       y="-91"
       transform="scale(1,-1)"
       id="rect3716"
       style="opacity:0.45;fill:url(#linearGradient3721);fill-opacity:1;fill-rule:nonzero;stroke:none;display:inline" />
  </g>
  <rect
     style="fill:url(#linearGradient3079);fill-opacity:1;fill-rule:nonzero;stroke:none"
     id="rect2419"
     y="6"
     x="6"
     ry="6"
     rx="6"
     height="84"
     width="84" />
  <path
     style="font-size:medium;font-style:normal;font-variant:normal;font-weight:normal;font-stretch:normal;text-indent:0;text-align:start;text-decoration:none;line-height:normal;letter-spacing:normal;word-spacing:normal;text-transform:none;direction:ltr;block-progression:tb;writing-mode:lr-tb;text-anchor:start;baseline-shift:baseline;color:#000000;fill:#ffff00;fill-opacity:1;stroke:none;stroke-width:2.70000005;marker:none;visibility:visible;display:inline;overflow:visible;enable-background:accumulate;font-family:Sans;-inkscape-font-specification:Sans"
     d="M 53.8125 17.96875 A 1.350135 1.350135 0 0 0 52.59375 19.25 L 52.59375 19.40625 L 49.84375 63.3125 L 46.375 38.625 A 1.350135 1.350135 0 0 0 43.6875 38.5625 L 41.09375 52.65625 L 39.46875 47.71875 A 1.350135 1.350135 0 0 0 36.84375 47.9375 L 34.34375 64.84375 L 29.28125 30.71875 A 1.350135 1.350135 0 0 0 26.625 30.6875 L 23.25 50.3125 L 6 50.3125 L 6 53.03125 L 24.375 53.03125 A 1.350135 1.350135 0 0 0 25.71875 51.90625 L 27.84375 39.4375 L 33 74.21875 A 1.350135 1.350135 0 0 0 35.65625 74.21875 L 38.6875 53.96875 L 40.1875 58.53125 A 1.350135 1.350135 0 0 0 42.78125 58.375 L 44.84375 47.1875 L 49.03125 76.875 A 1.350135 1.350135 0 0 0 51.71875 76.75 L 51.71875 76.5 L 53.9375 40.875 L 54.46875 49.125 A 1.350135 1.350135 0 0 0 57.125 49.34375 L 59.5625 38.65625 L 62.28125 58.0625 A 1.350135 1.350135 0 0 0 64.9375 58.15625 L 66.6875 50.3125 L 66.875 51.84375 A 1.350135 1.350135 0 0 0 68.21875 53.03125 L 90 53.03125 L 90 50.3125 L 69.40625 50.3125 L 68.375 42.3125 A 1.350135 1.350135 0 0 0 65.71875 42.21875 L 63.90625 50.3125 L 61.21875 31.03125 A 1.350135 1.350135 0 0 0 58.5625 30.90625 L 56.5625 39.65625 L 55.28125 19.40625 L 55.28125 19.25 A 1.350135 1.350135 0 0 0 53.8125 17.96875 z "
     id="path3036" />
  <path
     style="opacity:0.35;fill:url(#linearGradient3076);fill-opacity:1;fill-rule:nonzero;stroke:none"
     d="M 12,6 C 8.11425,5.86322 5.41842,9.7916 6,13.4226 6.01818,37.1117 5.96366,60.8028 6.02722,84.4906 5.28212,86.832 10.5383,90.304 9.3125,89.2188 6.06854,87.1931 7.20932,83.0939 7,79.9177 7.01709,57.4405 6.96584,34.9616 7.02559,12.4854 7.23709,9.18494 10.6966,7.53688 13.6597,8 c 23.6181,0.0171 47.2379,-0.0342 70.8549,0.0256 3.3005,0.2115 4.9485,3.67101 4.4854,6.63411 -0.023,23.6263 0.047,47.2557 -0.035,70.8801 0.6394,2.1759 -4.9496,5.3488 -1.4521,3.2816 C 91.0463,86.3401 89.75,81.8397 90,78.2064 89.9794,55.9328 90.0412,33.6571 89.9691,11.3848 89.7161,7.60949 85.8108,5.47598 82.3403,6 58.8935,6 35.4468,6 12,6 Z"
     id="rect3728"
     inkscape:connector-curvature="0" />
  <path
     style="opacity:0.2;fill:url(#radialGradient3073);fill-opacity:1;fill-rule:nonzero;stroke:none"
     d="M 12,90 C 8.11425,90.1368 5.41842,86.2084 6,82.5774 6.01818,58.8883 5.96366,35.1972 6.02722,11.5094 5.28212,9.16796 10.5383,5.696 9.3125,6.78125 6.06854,8.80692 7.20932,12.9061 7,16.0823 c 0.0171,22.4772 -0.0342,44.9561 0.0256,67.4323 0.2115,3.3005 3.67101,4.9485 6.63411,4.4854 23.6181,-0.017 47.2379,0.034 70.8549,-0.026 C 87.8151,87.7629 89.4631,84.3034 89,81.3403 88.9765,57.714 89.0469,34.0846 88.9648,10.4602 89.6042,8.28431 84.0152,5.11138 87.5127,7.17856 91.0463,9.65991 89.75,14.1603 90,17.7936 89.9794,40.0672 90.0412,62.3429 89.9691,84.6152 89.7161,88.3905 85.8108,90.524 82.3403,90 58.8935,90 35.4468,90 12,90 Z"
     id="path3615"
     inkscape:connector-curvature="0" />
  <g
     id="layer5"
     transform="translate(108.18576,0)">
    <rect
       width="66"
       height="66"
       rx="12"
       ry="12"
       x="15"
       y="15"
       clip-path="url(#clipPath3613)"
       id="rect3171"
       style="opacity:0.1;fill:url(#linearGradient3613);fill-opacity:1;fill-rule:nonzero;stroke:#ffffff;stroke-width:0.5;stroke-linecap:round;stroke-linejoin:miter;stroke-miterlimit:4;stroke-opacity:1;stroke-dasharray:none;stroke-dashoffset:0;filter:url(#filter3794)" />
  </g>
  <path
     sodipodi:nodetypes="ccccccccccccccc"
     inkscape:connector-curvature="0"
     id="path3034"
     d="m -1.3126933,-32.599945 25.6965933,0 3.566564,-20.764706 6.377709,43.095975 3.863777,-25.857585 3.26935,9.96904 3.566563,-19.318885 5.349846,37.8823537 3.566563,-57.3622287 1.863777,29.721362 4.080495,-17.832817 3.716083,26.668731 3.417044,-15.374614 1.188855,9.173375 29.102167,0"
     style="fill:none;stroke:#ffff00;stroke-width:2.70000005;stroke-linecap:round;stroke-linejoin:round;stroke-miterlimit:4;stroke-opacity:1;stroke-dasharray:none" />
</svg>
