<?xml version="1.0" encoding="UTF-8" standalone="no"?>
<!-- Created with Inkscape (http://www.inkscape.org/) -->

<svg
   xmlns:dc="http://purl.org/dc/elements/1.1/"
   xmlns:cc="http://creativecommons.org/ns#"
   xmlns:rdf="http://www.w3.org/1999/02/22-rdf-syntax-ns#"
   xmlns:svg="http://www.w3.org/2000/svg"
   xmlns="http://www.w3.org/2000/svg"
   xmlns:xlink="http://www.w3.org/1999/xlink"
   xmlns:sodipodi="http://sodipodi.sourceforge.net/DTD/sodipodi-0.dtd"
   xmlns:inkscape="http://www.inkscape.org/namespaces/inkscape"
   version="1.0"
   width="96"
   height="96"
   id="svg2408"
   inkscape:version="0.91 r"
   sodipodi:docname="xournal.svg">
  <title
     id="title84">xournal</title>
  <sodipodi:namedview
     pagecolor="#ffffff"
     bordercolor="#666666"
     borderopacity="1"
     objecttolerance="10"
     gridtolerance="10"
     guidetolerance="10"
     inkscape:pageopacity="0"
     inkscape:pageshadow="2"
     inkscape:window-width="1280"
     inkscape:window-height="965"
     id="namedview79"
     showgrid="false"
     inkscape:zoom="3.47661"
     inkscape:cx="23.1327"
     inkscape:cy="60.9127"
     inkscape:window-x="0"
     inkscape:window-y="27"
     inkscape:window-maximized="1"
     inkscape:current-layer="svg2408" />
  <defs
     id="defs2410">
    <linearGradient
       id="linearGradient4161">
      <stop
         id="stop4163"
         style="stop-color:#000000;stop-opacity:1"
         offset="0" />
      <stop
         id="stop4165"
         style="stop-color:#000000;stop-opacity:0"
         offset="1" />
    </linearGradient>
    <linearGradient
       id="linearGradient3597">
      <stop
         id="stop3599"
         style="stop-color:#dcdcdc;stop-opacity:1"
         offset="0" />
      <stop
         id="stop3601"
         style="stop-color:#f5f5f5;stop-opacity:1"
         offset="1" />
    </linearGradient>
    <linearGradient
       x1="45.447727"
       y1="92.539597"
       x2="45.447727"
       y2="7.0165396"
       id="ButtonShadow"
       gradientUnits="userSpaceOnUse"
       gradientTransform="scale(1.0058652,0.994169)">
      <stop
         id="stop3750"
         style="stop-color:#000000;stop-opacity:1"
         offset="0" />
      <stop
         id="stop3752"
         style="stop-color:#000000;stop-opacity:0.58823532"
         offset="1" />
    </linearGradient>
    <linearGradient
       id="linearGradient3737">
      <stop
         id="stop3739"
         style="stop-color:#ffffff;stop-opacity:1"
         offset="0" />
      <stop
         id="stop3741"
         style="stop-color:#ffffff;stop-opacity:0"
         offset="1" />
    </linearGradient>
    <filter
       color-interpolation-filters="sRGB"
       id="filter3174">
      <feGaussianBlur
         id="feGaussianBlur3176"
         stdDeviation="1.71" />
    </filter>
    <linearGradient
       x1="36.357143"
       y1="6"
       x2="36.357143"
       y2="63.893143"
       id="linearGradient3188"
       xlink:href="#linearGradient3737"
       gradientUnits="userSpaceOnUse" />
    <linearGradient
       x1="45.447727"
       y1="92.539597"
       x2="45.447727"
       y2="7.0165396"
       id="linearGradient3638"
       xlink:href="#ButtonShadow"
       gradientUnits="userSpaceOnUse"
       gradientTransform="scale(1.0058652,0.994169)" />
    <linearGradient
       x1="48"
       y1="90"
       x2="48"
       y2="5.9877172"
       id="linearGradient3646"
       xlink:href="#linearGradient3597"
       gradientUnits="userSpaceOnUse" />
    <linearGradient
       id="linearGradient3737-6">
      <stop
         id="stop3739-6"
         style="stop-color:#ffffff;stop-opacity:1"
         offset="0" />
      <stop
         id="stop3741-4"
         style="stop-color:#ffffff;stop-opacity:0"
         offset="1" />
    </linearGradient>
    <radialGradient
       cx="48"
       cy="90.171875"
       r="42"
       fx="48"
       fy="90.171875"
       id="radialGradient2855"
       xlink:href="#linearGradient3737-6"
       gradientUnits="userSpaceOnUse"
       gradientTransform="matrix(1.15731,0,0,0.995908,-7.55102,0.197132)" />
    <linearGradient
       x1="45.447727"
       y1="92.539597"
       x2="45.447727"
       y2="7.0165396"
       id="ButtonShadow-0"
       gradientUnits="userSpaceOnUse"
       gradientTransform="matrix(1.0058652,0,0,0.994169,100,0)">
      <stop
         id="stop3750-8"
         style="stop-color:#000000;stop-opacity:1"
         offset="0" />
      <stop
         id="stop3752-5"
         style="stop-color:#000000;stop-opacity:0.58823532"
         offset="1" />
    </linearGradient>
    <linearGradient
       x1="48"
       y1="90"
       x2="48"
       y2="5.9877172"
       id="linearGradient3779"
       xlink:href="#ButtonShadow"
       gradientUnits="userSpaceOnUse"
       gradientTransform="matrix(1.0238095,0,0,1.0119048,-1.142857,0.92857143)" />
    <linearGradient
       x1="48"
       y1="90"
       x2="48"
       y2="5.9877172"
       id="linearGradient3786"
       xlink:href="#ButtonShadow-0"
       gradientUnits="userSpaceOnUse"
       gradientTransform="translate(0,1)" />
    <linearGradient
       x1="48"
       y1="90"
       x2="48"
       y2="5.9877172"
       id="linearGradient3794"
       xlink:href="#ButtonShadow"
       gradientUnits="userSpaceOnUse"
       gradientTransform="matrix(1.0238095,0,0,1.0119048,-1.142857,0.92857143)" />
    <linearGradient
       x1="48"
       y1="90"
       x2="48"
       y2="5.9877172"
       id="linearGradient3816"
       xlink:href="#ButtonShadow"
       gradientUnits="userSpaceOnUse"
       gradientTransform="matrix(1.0238095,0,0,1.0119048,-1.142857,0.92857143)" />
    <linearGradient
       x1="48"
       y1="90"
       x2="48"
       y2="5.9877172"
       id="linearGradient3824"
       xlink:href="#ButtonShadow"
       gradientUnits="userSpaceOnUse"
       gradientTransform="matrix(1.0238095,0,0,1.0119048,-1.142857,0.92857143)" />
    <linearGradient
       x1="32"
       y1="80"
       x2="84"
       y2="-10.066642"
       id="linearGradient4167"
       xlink:href="#linearGradient4161"
       gradientUnits="userSpaceOnUse" />
    <linearGradient
       x1="103.94804"
       y1="79.295097"
       x2="137.92665"
       y2="36.916862"
       id="linearGradient3946"
       xlink:href="#linearGradient3936"
       gradientUnits="userSpaceOnUse"
       gradientTransform="matrix(0.69626781,0.5250827,-0.5250827,0.69626781,12.350518,-40.12692)" />
    <linearGradient
       id="linearGradient3936">
      <stop
         id="stop3938"
         style="stop-color:#000000;stop-opacity:1"
         offset="0" />
      <stop
         id="stop3940"
         style="stop-color:#000000;stop-opacity:0"
         offset="1" />
    </linearGradient>
    <radialGradient
       cx="425.51019"
       cy="356.62274"
       r="143.34167"
       fx="425.51019"
       fy="356.62274"
       id="radialGradient3890"
       xlink:href="#linearGradient3294"
       gradientUnits="userSpaceOnUse"
       gradientTransform="matrix(-0.02122419,-0.01702548,0.22621343,-0.28200081,-136.43035,244.91947)" />
    <linearGradient
       id="linearGradient3294">
      <stop
         id="stop3296"
         style="stop-color:#7bade5;stop-opacity:1"
         offset="0" />
      <stop
         id="stop3302"
         style="stop-color:#255995;stop-opacity:1"
         offset="0.50094414" />
      <stop
         id="stop3298"
         style="stop-color:#062951;stop-opacity:1"
         offset="1" />
    </linearGradient>
    <radialGradient
       cx="289.44067"
       cy="390.45248"
       r="17.67668"
       fx="289.44067"
       fy="390.45248"
       id="radialGradient3892"
       xlink:href="#linearGradient3202"
       gradientUnits="userSpaceOnUse"
       gradientTransform="matrix(0.08730492,0.06948468,-0.10650365,0.13381795,-66.303078,90.119143)" />
    <linearGradient
       id="linearGradient3202">
      <stop
         id="stop3204"
         style="stop-color:#2b2b2b;stop-opacity:1"
         offset="0" />
      <stop
         id="stop3250"
         style="stop-color:#828383;stop-opacity:1"
         offset="0.5" />
      <stop
         id="stop3206"
         style="stop-color:#dadbdb;stop-opacity:1"
         offset="1" />
    </linearGradient>
    <radialGradient
       cx="283.50717"
       cy="382.14804"
       r="17.67668"
       fx="283.50717"
       fy="382.14804"
       id="radialGradient3894"
       xlink:href="#linearGradient3202"
       gradientUnits="userSpaceOnUse"
       gradientTransform="matrix(0.08730492,0.06948468,-0.10650365,0.13381795,-44.944061,65.934759)" />
    <radialGradient
       cx="418.45551"
       cy="181.18982"
       r="63.068935"
       fx="418.45551"
       fy="181.18982"
       id="radialGradient3896"
       xlink:href="#linearGradient3242"
       gradientUnits="userSpaceOnUse"
       gradientTransform="matrix(-0.01380294,-0.0125728,0.35517379,-0.38992442,-103.15415,193.49332)" />
    <linearGradient
       id="linearGradient3242">
      <stop
         id="stop3244"
         style="stop-color:#282828;stop-opacity:1"
         offset="0" />
      <stop
         id="stop3252"
         style="stop-color:#969696;stop-opacity:1"
         offset="0.39253417" />
      <stop
         id="stop3246"
         style="stop-color:#e3e3e3;stop-opacity:1"
         offset="1" />
    </linearGradient>
    <linearGradient
       x1="102.76233"
       y1="78.680206"
       x2="144.10181"
       y2="27.597383"
       id="linearGradient3007"
       xlink:href="#linearGradient3936"
       gradientUnits="userSpaceOnUse"
       gradientTransform="matrix(0.83325086,0.25728138,-0.25728138,0.83325086,-22.972667,-24.070257)" />
  </defs>
  <metadata
     id="metadata2413">
    <rdf:RDF>
      <cc:Work
         rdf:about="">
        <dc:format>image/svg+xml</dc:format>
        <dc:type
           rdf:resource="http://purl.org/dc/dcmitype/StillImage" />
        <dc:title>xournal</dc:title>
        <dc:subject>
          <rdf:Bag>
            <rdf:li>xournal</rdf:li>
          </rdf:Bag>
        </dc:subject>
        <dc:coverage></dc:coverage>
        <dc:description>xournal</dc:description>
      </cc:Work>
    </rdf:RDF>
  </metadata>
  <g
     id="layer2"
     style="display:none">
    <path
       d="M 11,7 C 7.676,7 5,9.676 5,13 l 0,73 c 0,3.324 2.676,6 6,6 l 74,0 c 3.324,0 6,-2.676 6,-6 L 91,13 C 91,9.676 88.324,7 85,7 l -5,0 0,2.5 c 1.470291,0.740605 2.5,2.242377 2.5,4 0,2.484 -2.016,4.5 -4.5,4.5 -2.484,0 -4.5,-2.016 -4.5,-4.5 0,-1.757623 1.029709,-3.259395 2.5,-4 L 76,7 68,7 68,9.5 c 1.470291,0.740605 2.5,2.242377 2.5,4 0,2.484 -2.016,4.5 -4.5,4.5 -2.484,0 -4.5,-2.016 -4.5,-4.5 0,-1.757623 1.029709,-3.259395 2.5,-4 L 64,7 56,7 56,9.5 c 1.470291,0.740605 2.5,2.242377 2.5,4 0,2.484 -2.016,4.5 -4.5,4.5 -2.484,0 -4.5,-2.016 -4.5,-4.5 0,-1.757623 1.029709,-3.259395 2.5,-4 L 52,7 44,7 44,9.5 c 1.470291,0.740605 2.5,2.242377 2.5,4 0,2.484 -2.016,4.5 -4.5,4.5 -2.484,0 -4.5,-2.016 -4.5,-4.5 0,-1.757623 1.029709,-3.259395 2.5,-4 L 40,7 32,7 32,9.5 c 1.470291,0.740605 2.5,2.242377 2.5,4 0,2.484 -2.016,4.5 -4.5,4.5 -2.484,0 -4.5,-2.016 -4.5,-4.5 0,-1.757623 1.029709,-3.259395 2.5,-4 L 28,7 20,7 20,9.5 c 1.470291,0.740605 2.5,2.242377 2.5,4 0,2.484 -2.016,4.5 -4.5,4.5 -2.484,0 -4.5,-2.016 -4.5,-4.5 0,-1.757623 1.029709,-3.259395 2.5,-4 L 16,7 11,7 z"
       inkscape:connector-curvature="0"
       id="rect3745"
       style="opacity:0.9;fill:url(#linearGradient3638);fill-opacity:1;fill-rule:nonzero;stroke:none;filter:url(#filter3174)" />
  </g>
  <g
     id="layer4"
     style="display:inline">
    <path
       d="m 20.90625,4.03125 c -1.119919,-0.039226 -2.394393,0.038225 -3.5,0.8125 A 0.90582636,0.90582636 0 0 0 17.21875,5.0625 C 17.094183,4.9385935 17.048059,4.7179548 16.90625,4.625 16.341303,4.2546802 15.714665,4.1396259 15.125,4.09375 c -1.179329,-0.091752 -2.375524,0.078075 -3.03125,0 a 0.90582636,0.90582636 0 0 0 -0.0625,0 C 5.9816915,3.9141658 1.3742267,9.7444122 2.09375,15.53125 c 5.52e-5,0.04167 -5.43e-5,0.08333 0,0.125 0.030515,23.419957 -0.077539,46.822793 0.03125,70.25 a 0.90582636,0.90582636 0 0 0 0,0.0625 c 0.4299168,5.796659 6.1856257,9.608197 11.65625,8.9375 0.04188,-0.0051 0.08315,0.0057 0.125,0 23.668957,-0.03053 47.323899,0.07754 71,-0.03125 a 0.90582636,0.90582636 0 0 0 0.0625,0 c 5.796659,-0.429919 9.608197,-6.185626 8.9375,-11.65625 -0.0051,-0.04188 0.0057,-0.08315 0,-0.125 -0.03051,-23.335574 0.07754,-46.657154 -0.03125,-70 a 0.90582636,0.90582636 0 0 0 0,-0.0625 C 93.450077,7.3019206 87.818966,3.5647439 82.40625,4.125 82.305272,4.1044147 82.196845,4.1080516 82.09375,4.09375 81.209443,3.9710759 80.244737,4.0664552 79.40625,4.5 79.136849,4.6392956 78.942767,4.8965714 78.71875,5.125 78.346059,4.7009612 77.882551,4.3154705 77.25,4.15625 A 0.90582636,0.90582636 0 0 0 77.03125,4.125 C 73.998155,4.1595539 70.801892,3.8872293 67.625,4.25 a 0.90582636,0.90582636 0 0 0 -0.3125,0.09375 c -0.414294,0.2141609 -0.60892,0.6109323 -0.875,0.9375 -0.185439,-0.2140684 -0.27292,-0.5465295 -0.5,-0.6875 C 65.351372,4.2298839 64.704792,4.1051672 64.09375,4.0625 62.871666,3.9771657 61.642064,4.1750297 60.9375,4.09375 a 0.90582636,0.90582636 0 0 0 -0.21875,0 c -0.812752,0.1113555 -1.850439,-0.02345 -2.96875,-0.0625 -1.118311,-0.03905 -2.392948,0.037212 -3.5,0.8125 A 0.90582636,0.90582636 0 0 0 54.0625,5.0625 c -0.01486,0.019982 -0.01689,0.042383 -0.03125,0.0625 C 53.880774,4.9736149 53.829948,4.7015813 53.65625,4.59375 53.070122,4.2298839 52.423542,4.1051672 51.8125,4.0625 50.590416,3.9771657 49.360814,4.1750297 48.65625,4.09375 a 0.90582636,0.90582636 0 0 0 -0.21875,0 c -0.812752,0.1113555 -1.850439,-0.02345 -2.96875,-0.0625 -1.118311,-0.03905 -2.392948,0.037212 -3.5,0.8125 A 0.90582636,0.90582636 0 0 0 41.78125,5.0625 C 41.766387,5.0824821 41.764365,5.1048835 41.75,5.125 41.599524,4.9736149 41.548698,4.7015813 41.375,4.59375 40.788872,4.2298839 40.142292,4.1051672 39.53125,4.0625 38.309166,3.9771657 37.079564,4.1750297 36.375,4.09375 a 0.90582636,0.90582636 0 0 0 -0.21875,0 c -0.812752,0.1113555 -1.850439,-0.02345 -2.96875,-0.0625 -1.118311,-0.03905 -2.392948,0.037212 -3.5,0.8125 A 0.90582636,0.90582636 0 0 0 29.5,5.0625 c -0.01486,0.019982 -0.01688,0.042383 -0.03125,0.0625 C 29.318274,4.9736149 29.267448,4.7015813 29.09375,4.59375 28.507622,4.2298839 27.861042,4.1051672 27.25,4.0625 26.027916,3.9771657 24.798314,4.1750297 24.09375,4.09375 a 0.90582636,0.90582636 0 0 0 -0.21875,0 C 23.066879,4.2044711 22.025911,4.0704666 20.90625,4.03125 z M 78.75,12.34375 c 0.201026,0.225089 0.344561,0.493603 0.625,0.65625 l 0,0.03125 c 0.04503,0.02958 0.0521,0.03375 0.09375,0.0625 0.98578,0.680457 1.084241,1.153991 1,1.53125 -0.0878,0.3932 -0.571145,0.932733 -1.21875,1.21875 -0.647605,0.286017 -1.366204,0.296382 -1.71875,0.09375 -0.336521,-0.193422 -0.587454,-0.625484 -0.4375,-1.8125 0.131473,-0.348897 0.622364,-0.737477 1.28125,-1.3125 0.136052,-0.118736 0.238546,-0.325605 0.375,-0.46875 z M 17.28125,12.4375 c 0.408191,0.450973 0.863545,0.813739 1.1875,1.09375 0.28627,0.247438 0.456812,0.458741 0.53125,0.625 0.07444,0.166259 0.09357,0.303898 -0.03125,0.6875 a 0.90582636,0.90582636 0 0 0 0,0.03125 c -0.325433,1.095545 -0.743516,1.310614 -1.15625,1.375 -0.412734,0.06439 -0.993831,-0.126184 -1.46875,-0.5625 -0.474919,-0.436316 -0.770592,-1.059696 -0.75,-1.5 0.02059,-0.440304 0.200828,-0.854569 1.21875,-1.28125 a 0.90582636,0.90582636 0 0 0 0.28125,-0.1875 c 0.09005,-0.08243 0.109697,-0.192714 0.1875,-0.28125 z m 12.28125,0 c 0.408191,0.450973 0.863545,0.813739 1.1875,1.09375 0.28627,0.247438 0.456812,0.458741 0.53125,0.625 0.07444,0.166259 0.09357,0.303898 -0.03125,0.6875 a 0.90582636,0.90582636 0 0 0 0,0.03125 c -0.325434,1.095545 -0.743517,1.310614 -1.15625,1.375 -0.412733,0.06439 -0.993831,-0.126184 -1.46875,-0.5625 -0.474919,-0.436316 -0.770592,-1.059696 -0.75,-1.5 0.02059,-0.440304 0.200828,-0.854569 1.21875,-1.28125 a 0.90582636,0.90582636 0 0 0 0.28125,-0.1875 c 0.09005,-0.08243 0.109697,-0.192714 0.1875,-0.28125 z m 12.28125,0 c 0.408191,0.450973 0.863545,0.813739 1.1875,1.09375 0.28627,0.247438 0.456812,0.458741 0.53125,0.625 0.07444,0.166259 0.09357,0.303898 -0.03125,0.6875 a 0.90582636,0.90582636 0 0 0 0,0.03125 c -0.325433,1.095545 -0.743516,1.310614 -1.15625,1.375 -0.412734,0.06439 -0.993831,-0.126184 -1.46875,-0.5625 -0.474919,-0.436316 -0.770592,-1.059696 -0.75,-1.5 0.02059,-0.440304 0.200828,-0.854569 1.21875,-1.28125 a 0.90582636,0.90582636 0 0 0 0.28125,-0.1875 c 0.09005,-0.08243 0.109697,-0.192714 0.1875,-0.28125 z m 12.28125,0 c 0.408343,0.450688 0.86385,0.814129 1.1875,1.09375 0.286,0.247093 0.456928,0.458802 0.53125,0.625 0.07432,0.166198 0.09375,0.302764 -0.03125,0.6875 a 0.90582636,0.90582636 0 0 0 0,0.03125 c -0.31729,1.091755 -0.713819,1.31137 -1.125,1.375 -0.411181,0.06363 -1.021672,-0.156233 -1.5,-0.59375 -0.478328,-0.437517 -0.769167,-1.031139 -0.75,-1.46875 0.01917,-0.437611 0.198808,-0.856404 1.21875,-1.28125 a 0.90582636,0.90582636 0 0 0 0.28125,-0.1875 c 0.09005,-0.08243 0.109697,-0.192714 0.1875,-0.28125 z m 12.25,0 c 0.39574,0.436423 0.835222,0.790037 1.15625,1.0625 0.301951,0.256272 0.513511,0.453631 0.59375,0.625 0.08024,0.171369 0.09739,0.323744 -0.03125,0.71875 a 0.90582636,0.90582636 0 0 0 0,0.03125 c -0.31729,1.091755 -0.713819,1.31137 -1.125,1.375 -0.411181,0.06363 -1.021672,-0.156233 -1.5,-0.59375 -0.478328,-0.437517 -0.769167,-1.031139 -0.75,-1.46875 0.01917,-0.437611 0.198808,-0.856404 1.21875,-1.28125 a 0.90582636,0.90582636 0 0 0 0.28125,-0.1875 c 0.08798,-0.08054 0.08078,-0.1955 0.15625,-0.28125 z"
       id="path3822"
       style="opacity:0.07999998;fill:url(#linearGradient3824);fill-opacity:1;fill-rule:nonzero;stroke:none" />
    <path
       d="M 12,7 C 8.122,7 5,10.122 5,14 l 0,71 c 0,3.878 3.122,7 7,7 l 72,0 c 3.878,0 7,-3.122 7,-7 L 91,14 C 91,10.122 87.878,7 84,7 l -3.25,0 0,3.53125 c 1.505298,0.749421 2.5625,2.283953 2.5625,4.0625 0,2.513571 -2.050607,4.5625 -4.59375,4.5625 -2.543143,0 -4.625,-2.048929 -4.625,-4.5625 0,-1.778547 1.057202,-3.313079 2.5625,-4.0625 l 0,-3.53125 -8.1875,0 0,3.53125 c 1.505298,0.749421 2.5625,2.283953 2.5625,4.0625 0,2.513571 -2.050607,4.5625 -4.59375,4.5625 -2.543142,0 -4.625,-2.048929 -4.625,-4.5625 0,-1.778547 1.057202,-3.313079 2.5625,-4.0625 l 0,-3.53125 -8.1875,0 0,3.53125 c 1.505298,0.749421 2.5625,2.283953 2.5625,4.0625 0,2.513571 -2.050607,4.5625 -4.59375,4.5625 -2.543143,0 -4.625,-2.048929 -4.625,-4.5625 0,-1.778547 1.057202,-3.313079 2.5625,-4.0625 l 0,-3.53125 -8.1875,0 0,3.53125 c 1.505298,0.749421 2.5625,2.283953 2.5625,4.0625 0,2.513571 -2.081857,4.5625 -4.625,4.5625 -2.543143,0 -4.59375,-2.048929 -4.59375,-4.5625 0,-1.778547 1.057202,-3.313079 2.5625,-4.0625 l 0,-3.53125 -8.1875,0 0,3.53125 c 1.505298,0.749421 2.5625,2.283953 2.5625,4.0625 0,2.513571 -2.081858,4.5625 -4.625,4.5625 -2.543143,0 -4.59375,-2.048929 -4.59375,-4.5625 0,-1.778547 1.057202,-3.313079 2.5625,-4.0625 l 0,-3.53125 -8.1875,0 0,3.53125 c 1.505298,0.749421 2.5625,2.283953 2.5625,4.0625 0,2.513571 -2.081857,4.5625 -4.625,4.5625 -2.543143,0 -4.59375,-2.048929 -4.59375,-4.5625 0,-1.778547 1.057202,-3.313079 2.5625,-4.0625 L 15.25,7 12,7 z"
       inkscape:connector-curvature="0"
       id="path2961"
       style="opacity:0.3;fill:url(#linearGradient3779);fill-opacity:1;fill-rule:nonzero;stroke:none" />
    <path
       d="M 12,7 C 8.676,7 6,9.676 6,13 l 0,72 c 0,3.324 2.676,6 6,6 l 72,0 c 3.324,0 6,-2.676 6,-6 L 90,13 C 90,9.676 87.324,7 84,7 l -4,0 0,3.5 c 1.470291,0.740605 2.5,2.242377 2.5,4 0,2.484 -2.016,4.5 -4.5,4.5 -2.484,0 -4.5,-2.016 -4.5,-4.5 0,-1.757623 1.029709,-3.259395 2.5,-4 l 0,-3.5 -8,0 0,3.5 c 1.470291,0.740605 2.5,2.242377 2.5,4 0,2.484 -2.016,4.5 -4.5,4.5 -2.484,0 -4.5,-2.016 -4.5,-4.5 0,-1.757623 1.029709,-3.259395 2.5,-4 l 0,-3.5 -8,0 0,3.5 c 1.470291,0.740605 2.5,2.242377 2.5,4 0,2.484 -2.016,4.5 -4.5,4.5 -2.484,0 -4.5,-2.016 -4.5,-4.5 0,-1.757623 1.029709,-3.259395 2.5,-4 l 0,-3.5 -8,0 0,3.5 c 1.470291,0.740605 2.5,2.242377 2.5,4 0,2.484 -2.016,4.5 -4.5,4.5 -2.484,0 -4.5,-2.016 -4.5,-4.5 0,-1.757623 1.029709,-3.259395 2.5,-4 l 0,-3.5 -8,0 0,3.5 c 1.470291,0.740605 2.5,2.242377 2.5,4 0,2.484 -2.016,4.5 -4.5,4.5 -2.484,0 -4.5,-2.016 -4.5,-4.5 0,-1.757623 1.029709,-3.259395 2.5,-4 l 0,-3.5 -8,0 0,3.5 c 1.470291,0.740605 2.5,2.242377 2.5,4 0,2.484 -2.016,4.5 -4.5,4.5 -2.484,0 -4.5,-2.016 -4.5,-4.5 0,-1.757623 1.029709,-3.259395 2.5,-4 L 16,7 12,7 z"
       inkscape:connector-curvature="0"
       id="path3781"
       style="opacity:0.45;fill:url(#linearGradient3786);fill-opacity:1;fill-rule:nonzero;stroke:none" />
    <path
       d="M 12,6.03125 C 7.6091626,6.03125 4.03125,9.6091626 4.03125,14 l 0,71 c 0,4.390837 3.5779126,7.96875 7.96875,7.96875 l 72,0 c 4.390837,0 7.96875,-3.577913 7.96875,-7.96875 l 0,-71 C 91.96875,9.6091626 88.390837,6.03125 84,6.03125 l -3.25,0 A 0.955629,0.955629 0 0 0 79.78125,7 l 0,3.53125 A 0.955629,0.955629 0 0 0 80.3125,11.375 c 1.199222,0.597039 2.03125,1.818861 2.03125,3.21875 0,1.993879 -1.595085,3.59375 -3.625,3.59375 -2.029915,0 -3.65625,-1.607791 -3.65625,-3.59375 0,-1.399889 0.832028,-2.621711 2.03125,-3.21875 A 0.955629,0.955629 0 0 0 77.625,10.53125 L 77.625,7 A 0.955629,0.955629 0 0 0 76.65625,6.03125 l -8.1875,0 A 0.955629,0.955629 0 0 0 67.5,7 l 0,3.53125 a 0.955629,0.955629 0 0 0 0.53125,0.84375 c 1.199222,0.597039 2.03125,1.818861 2.03125,3.21875 0,1.993879 -1.595085,3.59375 -3.625,3.59375 -2.029913,0 -3.65625,-1.607791 -3.65625,-3.59375 0,-1.399889 0.832028,-2.621711 2.03125,-3.21875 a 0.955629,0.955629 0 0 0 0.53125,-0.84375 L 65.34375,7 A 0.955629,0.955629 0 0 0 64.375,6.03125 l -8.1875,0 A 0.955629,0.955629 0 0 0 55.21875,7 l 0,3.53125 A 0.955629,0.955629 0 0 0 55.75,11.375 c 1.199222,0.597039 2.03125,1.818861 2.03125,3.21875 0,1.993879 -1.595085,3.59375 -3.625,3.59375 -2.029915,0 -3.65625,-1.607791 -3.65625,-3.59375 0,-1.399889 0.832028,-2.621711 2.03125,-3.21875 A 0.955629,0.955629 0 0 0 53.0625,10.53125 L 53.0625,7 A 0.955629,0.955629 0 0 0 52.09375,6.03125 l -8.1875,0 A 0.955629,0.955629 0 0 0 42.9375,7 l 0,3.53125 a 0.955629,0.955629 0 0 0 0.53125,0.84375 c 1.199222,0.597039 2.03125,1.818861 2.03125,3.21875 0,1.985959 -1.626335,3.59375 -3.65625,3.59375 -2.029915,0 -3.625,-1.599871 -3.625,-3.59375 0,-1.399889 0.832028,-2.621711 2.03125,-3.21875 a 0.955629,0.955629 0 0 0 0.53125,-0.84375 L 40.78125,7 A 0.955629,0.955629 0 0 0 39.8125,6.03125 l -8.1875,0 A 0.955629,0.955629 0 0 0 30.65625,7 l 0,3.53125 A 0.955629,0.955629 0 0 0 31.1875,11.375 c 1.199222,0.597039 2.03125,1.818861 2.03125,3.21875 0,1.985959 -1.626337,3.59375 -3.65625,3.59375 -2.029915,0 -3.625,-1.599871 -3.625,-3.59375 0,-1.399889 0.832028,-2.621711 2.03125,-3.21875 A 0.955629,0.955629 0 0 0 28.5,10.53125 L 28.5,7 A 0.955629,0.955629 0 0 0 27.53125,6.03125 l -8.1875,0 A 0.955629,0.955629 0 0 0 18.375,7 l 0,3.53125 a 0.955629,0.955629 0 0 0 0.53125,0.84375 c 1.199222,0.597039 2.03125,1.818861 2.03125,3.21875 0,1.985959 -1.626335,3.59375 -3.65625,3.59375 -2.029915,0 -3.625,-1.599871 -3.625,-3.59375 0,-1.399889 0.832028,-2.621711 2.03125,-3.21875 a 0.955629,0.955629 0 0 0 0.53125,-0.84375 L 16.21875,7 A 0.955629,0.955629 0 0 0 15.25,6.03125 l -3.25,0 z"
       id="path3792"
       style="opacity:0.15;fill:url(#linearGradient3794);fill-opacity:1;fill-rule:nonzero;stroke:none" />
    <path
       d="M 12,5 C 6.517113,4.8372377 2.2743415,10.246897 3,15.518889 3.0310699,38.984167 2.937795,62.452616 3.046752,85.915907 3.437013,91.177878 8.7605277,94.678026 13.772037,94 37.486265,93.96892 61.203666,94.06221 84.915907,93.95325 90.177878,93.562987 93.678026,88.239472 93,83.227963 92.968931,59.847068 93.062204,36.463001 92.953248,13.084093 92.562987,7.8221216 87.239472,4.3219737 82.227963,5 80.693824,4.6872529 78.552448,5.3363878 78.75,7.2531482 c 0.224121,1.6435449 -0.700479,4.0831528 1.125,5.0281018 5.178641,3.401619 -4.621409,7.77131 -3.677467,1.595936 0.488417,-1.496372 2.882779,-1.913998 2.458717,-3.852232 -0.121979,-1.7118672 0.649566,-4.4211695 -1.625,-4.993704 -3.090776,0.035211 -6.255859,-0.2240392 -9.3125,0.125 -2.070773,1.0704447 -1.005692,3.804248 -1.21875,5.65625 0.307784,1.807323 3.218034,2.044863 2.481093,4.30775 -1.524417,5.24533 -8.338137,-0.995549 -3.387343,-3.05775 1.466276,-1.342226 0.531716,-3.6816652 0.75,-5.4375 C 65.659569,4.1795396 62.680465,5.213366 60.830925,5 58.847293,5.2717785 56.508376,4.3842144 54.78125,5.59375 53.665319,7.0939901 54.340582,9.1951775 54.25,10.9375 c 0.414508,1.696213 3.166521,1.976837 2.449843,4.18275 C 55.175425,20.36558 48.361706,14.124701 53.3125,12.0625 54.778776,10.720274 53.844216,8.3808348 54.0625,6.625 53.378319,4.1795396 50.399215,5.213366 48.549675,5 46.566043,5.2717785 44.227126,4.3842144 42.5,5.59375 c -1.115931,1.5002401 -0.440668,3.6014275 -0.53125,5.34375 0.412301,1.6952 3.165202,1.973895 2.448391,4.176784 C 42.85645,20.368226 36.089545,14.133906 41.03125,12.0625 42.497526,10.720274 41.562966,8.3808348 41.78125,6.625 41.097069,4.1795396 38.117965,5.213366 36.268425,5 34.284793,5.2717785 31.945876,4.3842144 30.21875,5.59375 29.102819,7.0939901 29.778082,9.1951775 29.6875,10.9375 c 0.412301,1.6952 3.165202,1.973895 2.448391,4.176784 C 30.575199,20.368226 23.808296,14.133906 28.75,12.0625 30.216276,10.720274 29.281716,8.3808348 29.5,6.625 28.815819,4.1795396 25.836715,5.213366 23.987175,5 22.003543,5.2717785 19.664626,4.3842144 17.9375,5.59375 c -1.115931,1.5002401 -0.440668,3.6014275 -0.53125,5.34375 0.412301,1.6952 3.165202,1.973895 2.448391,4.176784 C 18.29395,20.368226 11.527045,14.133906 16.46875,12.0625 17.935026,10.720274 17.000466,8.3808348 17.21875,6.625 16.617248,4.2128879 13.760418,5.2096077 12,5 z"
       inkscape:connector-curvature="0"
       id="path3800"
       style="opacity:0.1;fill:url(#linearGradient3816);fill-opacity:1;fill-rule:nonzero;stroke:none" />
  </g>
  <g
     id="layer1">
    <path
       d="M 12,6 C 8.676,6 6,8.676 6,12 l 0,72 c 0,3.324 2.676,6 6,6 l 72,0 c 3.324,0 6,-2.676 6,-6 L 90,12 C 90,8.676 87.324,6 84,6 l -4,0 0,3.5 c 1.470291,0.740605 2.5,2.242377 2.5,4 0,2.484 -2.016,4.5 -4.5,4.5 -2.484,0 -4.5,-2.016 -4.5,-4.5 0,-1.757623 1.029709,-3.259395 2.5,-4 L 76,6 68,6 68,9.5 c 1.470291,0.740605 2.5,2.242377 2.5,4 0,2.484 -2.016,4.5 -4.5,4.5 -2.484,0 -4.5,-2.016 -4.5,-4.5 0,-1.757623 1.029709,-3.259395 2.5,-4 L 64,6 56,6 56,9.5 c 1.470291,0.740605 2.5,2.242377 2.5,4 0,2.484 -2.016,4.5 -4.5,4.5 -2.484,0 -4.5,-2.016 -4.5,-4.5 0,-1.757623 1.029709,-3.259395 2.5,-4 L 52,6 44,6 44,9.5 c 1.470291,0.740605 2.5,2.242377 2.5,4 0,2.484 -2.016,4.5 -4.5,4.5 -2.484,0 -4.5,-2.016 -4.5,-4.5 0,-1.757623 1.029709,-3.259395 2.5,-4 L 40,6 32,6 32,9.5 c 1.470291,0.740605 2.5,2.242377 2.5,4 0,2.484 -2.016,4.5 -4.5,4.5 -2.484,0 -4.5,-2.016 -4.5,-4.5 0,-1.757623 1.029709,-3.259395 2.5,-4 L 28,6 20,6 20,9.5 c 1.470291,0.740605 2.5,2.242377 2.5,4 0,2.484 -2.016,4.5 -4.5,4.5 -2.484,0 -4.5,-2.016 -4.5,-4.5 0,-1.757623 1.029709,-3.259395 2.5,-4 L 16,6 12,6 z"
       inkscape:connector-curvature="0"
       id="rect2419"
       style="fill:url(#linearGradient3646);fill-opacity:1;fill-rule:nonzero;stroke:none" />
    <path
       style="opacity:0.5;fill:url(#linearGradient3188);fill-opacity:1;fill-rule:nonzero;stroke:none"
       d="M 12,6 C 8.11425,5.86322 5.41842,9.7916 6,13.4226 6.01818,37.1117 5.96366,60.8028 6.02722,84.4906 5.28212,86.832 10.5383,90.304 9.3125,89.2188 6.06854,87.1931 7.20932,83.0939 7,79.9177 7.01709,57.4405 6.96584,34.9616 7.02559,12.4854 7.23709,9.18494 10.6966,7.53688 13.6597,8 15.3075,8.23538 16.5632,8.07874 16,6.10318 14.8871,5.86717 13.2862,6.06548 12,6 Z m 8,0 C 19.4443,8.01271 20.6355,8.27847 22.371,8 24.2473,8 26.1237,8 28,8 28.5557,5.98729 27.3645,5.72153 25.629,6 23.7527,6 21.8763,6 20,6 Z M 32,6 C 31.4443,8.01271 32.6355,8.27847 34.371,8 36.2473,8 38.1237,8 40,8 40.5557,5.98729 39.3645,5.72153 37.629,6 35.7527,6 33.8763,6 32,6 Z M 44,6 C 43.4443,8.01271 44.6355,8.27847 46.371,8 48.2473,8 50.1237,8 52,8 52.5557,5.98729 51.3645,5.72153 49.629,6 47.7527,6 45.8763,6 44,6 Z M 56,6 C 55.4443,8.01271 56.6355,8.27847 58.371,8 60.2473,8 62.1237,8 64,8 64.5557,5.98729 63.3645,5.72153 61.629,6 59.7527,6 57.8763,6 56,6 Z M 68,6 C 67.4443,8.01271 68.6355,8.27847 70.371,8 72.2473,8 74.1237,8 76,8 76.5557,5.98729 75.3645,5.72153 73.629,6 71.7527,6 69.8763,6 68,6 Z m 12,0 c -0.5069,1.91926 0.5124,2.31229 2.2371,2 2.814,-0.3823 6.1496,0.86124 6.6622,3.9865 0.2337,9.5277 0.035,19.0824 0.1007,28.6205 -0.023,14.9772 0.047,29.9575 -0.035,44.9328 0.6394,2.1759 -4.9496,5.3488 -1.4521,3.2816 C 91.0463,86.3401 89.75,81.8397 90,78.2064 89.9794,55.9328 90.0412,33.6571 89.9691,11.3848 89.7161,7.60949 85.8108,5.47598 82.3403,6 81.5602,6 80.7801,6 80,6 Z"
       id="rect3728"
       inkscape:connector-curvature="0" />
    <path
       style="opacity:0.6;fill:url(#radialGradient2855);fill-opacity:1;fill-rule:nonzero;stroke:none"
       d="M 12,90 C 8.11425,90.1368 5.41842,86.2084 6,82.5774 6.01818,58.8883 5.96366,35.1972 6.02722,11.5094 5.28212,9.16796 10.5383,5.696 9.3125,6.78125 6.06854,8.80692 7.20932,12.9061 7,16.0823 c 0.0171,22.4772 -0.0342,44.9561 0.0256,67.4323 0.2115,3.3005 3.67101,4.9485 6.63411,4.4854 23.6181,-0.017 47.2379,0.034 70.8549,-0.026 C 87.8151,87.7629 89.4631,84.3034 89,81.3403 88.9765,57.714 89.0469,34.0846 88.9648,10.4602 89.6042,8.28431 84.0152,5.11138 87.5127,7.17856 91.0463,9.65991 89.75,14.1603 90,17.7936 89.9794,40.0672 90.0412,62.3429 89.9691,84.6152 89.7161,88.3905 85.8108,90.524 82.3403,90 58.8935,90 35.4468,90 12,90 Z"
       id="path3615"
       inkscape:connector-curvature="0" />
    <path
       style="font-style:italic;font-variant:normal;font-weight:normal;font-stretch:normal;font-size:62.900974px;line-height:125%;font-family:'Andy MT';text-align:start;writing-mode:lr-tb;text-anchor:start;opacity:0.9;fill:url(#linearGradient4167);fill-opacity:1;stroke:none"
       d="m 64.3418,26.1738 c -1.2298,0.048 -2.5416,0.4052 -3.459,1 -4.0326,4.3839 -7.3252,9.0902 -11.9457,14.2047 -5.1639,-5.8653 -7.337,-10.1492 -12.5894,-14.9215 -3.5345,-0.1784 -5.6349,0.8141 -6.3008,2.9785 -0.3832,1.3255 11.363,14.3912 13.039,18.5899 -9.8616,14.0405 -15.3655,22.883 -16.5097,26.5273 -1.2525,4.0274 2.2932,7.1589 5.7793,3.9727 2.882,-3.8877 6.2541,-6.1315 10.5078,-9.1074 0.3517,-3.144 -2.5109,-2.6539 -4.6621,-1.2774 3.2441,-5.663 6.2901,-10.1085 9.6445,-15.8828 6.1187,6.7635 8.3411,10.3953 15.668,16.8145 2.5062,0.098 5.1472,-0.984 6.4629,-3.2598 C 67.8226,61.566 55.4653,50.4437 52.8651,46.995 58.5208,40.5023 63.9709,33.6765 67.6035,28.8438 c 0.6097,-1.9723 -1.212,-2.7504 -3.2617,-2.67 z"
       id="text1485-8"
       inkscape:connector-curvature="0"
       sodipodi:nodetypes="cccccccccccccccc" />
  </g>
  <g
     id="layer3"
     style="display:inline">
    <path
       d="m 100.25085,29.749688 c 0,0 -0.24013,0.147954 -0.2466,0.152032 -1.91413,-0.29277 -7.195521,0.911613 -21.815671,10.519583 -0.01299,-0.01637 -0.106074,-0.118318 -0.106074,-0.118318 l -0.577427,0.392142 c 0.06463,0.07623 0.122536,0.152144 0.186111,0.228593 -9.752609,6.078691 -20.271669,13.297387 -21.111692,13.874325 -5.61e-4,-0.0011 -0.01797,-0.03404 -0.01795,-0.03407 l -0.0099,-0.06012 -0.04208,0.04405 c -5.04e-4,-0.0013 -0.01795,-0.03408 -0.01795,-0.03408 l -0.763901,0.534216 c 0.0057,0.01107 0.01225,0.023 0.01795,0.03407 l -0.03403,0.01801 0.01795,0.03408 c 2.9e-5,5.5e-5 0.0337,0.06347 0.03601,0.06816 -9.130156,7.158434 -14.95685,12.690832 -14.845966,13.441688 0.149164,1.010026 17.551468,-8.029539 18.283322,-8.501405 0.02452,0.02613 0.150036,0.160333 0.150113,0.160436 l 0.026,0.008 0.8401,-0.59625 -0.01796,-0.03407 c -1.2e-4,-1.12e-4 -0.0566,-0.07086 -0.06199,-0.07618 1.753038,-1.012948 11.334596,-6.587701 21.479715,-13.21878 0.122224,0.214489 0.233987,0.443029 0.233987,0.443029 l 0.577426,-0.392141 c -0.01577,-0.032 -0.03746,-0.06962 -0.05395,-0.102229 0.753038,-0.444553 16.637715,-9.84466 18.862007,-14.255185 0.20235,-0.112061 0.28623,-0.167809 0.48515,-0.278025 0,0 0.17913,-1.584127 -1.47245,-2.251506 z"
       inkscape:connector-curvature="0"
       id="path3902"
       style="opacity:0.25;fill:url(#linearGradient3007);fill-opacity:1" />
    <g
       transform="matrix(0.77030699,0.12230296,-0.12230296,0.77030699,140.2074,-59.200558)"
       id="g3861"
       style="display:inline">
      <g
         transform="matrix(0.21052296,0,0,0.21052296,-139.34468,79.702555)"
         id="g4820">
        <path
           d="m 279.476,404.243 c -0.007,-0.004 -7.446,-4.112 -16.804,-11.401 l 0,0 c -8.082,-6.285 -13.538,-12.214 -13.544,-12.22 l 0,0 -0.122,-0.133 3.646,-4.669 0.157,-0.205 0.169,0.197 c 0.017,0.01 5.4,6.295 13.725,12.78 l 0,0 c 7.913,6.157 16.594,10.586 16.612,10.595 l 0,0 0.229,0.117 -3.911,5.026 -0.157,-0.087 0,0 z m -16.542,-11.737 c 8.545,6.656 15.469,10.644 16.589,11.275 l 0,0 3.372,-4.334 c -1.423,-0.743 -9.253,-4.919 -16.453,-10.521 l 0,0 c -7.504,-5.845 -12.637,-11.533 -13.614,-12.645 l 0,0 -3.264,4.184 c 0.849,0.905 6.01,6.32 13.37,12.041 l 0,0 z"
           inkscape:connector-curvature="0"
           id="path4824"
           style="fill:#4d4d4d" />
      </g>
      <path
         d="m -80.520491,164.42315 c 0,0 11.20545,-12.0216 22.173568,-25.25929 l 0.479092,0.14793 c 0,0 22.746706,-24.92865 17.182764,-26.94694 0,0 -2.781971,-5.50939 -24.601354,21.00116 l -0.04196,0.39783 c -10.067183,11.61004 -21.252943,25.76582 -21.252943,25.76582 -8.640035,12.42004 -13.770056,21.60008 -13.345768,22.48723 0.576731,1.20589 19.440079,-17.47293 19.4066,-17.59374 z"
         inkscape:connector-curvature="0"
         id="path3254"
         style="fill:url(#radialGradient3890);fill-opacity:1;fill-rule:evenodd;stroke:#07213e;stroke-width:0.64106208;stroke-linecap:butt;stroke-linejoin:miter;stroke-miterlimit:4;stroke-opacity:1;stroke-dasharray:none" />
      <path
         d="m -86.947753,159.76108 c 2.449296,2.50716 6.441455,5.05288 6.441455,5.05288 l 0.790716,-1.00286 c -2.709026,-1.41579 -6.480025,-5.0143 -6.480025,-5.0143 l -0.752146,0.96428 z"
         inkscape:connector-curvature="0"
         id="path2430"
         style="fill:url(#radialGradient3892);fill-opacity:1;fill-rule:evenodd;stroke:none" />
      <path
         d="m -65.762308,133.68669 c 4.320018,2.75787 7.714317,6.09431 7.714317,6.09431 l 0.578572,-0.675 c -2.304024,-2.43794 -7.723275,-6.12627 -7.723275,-6.12627 l -0.569614,0.70696 z"
         inkscape:connector-curvature="0"
         id="path3236"
         style="fill:url(#radialGradient3894);fill-opacity:1;fill-rule:evenodd;stroke:none" />
      <path
         d="m -42.031143,111.66232 c 2.275724,0.19285 2.661442,2.19858 2.661442,2.19858 -10.375759,10.80004 -25.572963,26.49868 -25.572963,26.49868 l -0.771432,-0.65572 c 13.384341,-16.04578 23.682953,-28.04154 23.682953,-28.04154"
         inkscape:connector-curvature="0"
         id="path3240"
         style="fill:url(#radialGradient3896);fill-opacity:1;fill-rule:evenodd;stroke:none" />
    </g>
    <path
       d="m 109.95771,52.357972 c 0,0 -0.2761,0.05757 -0.28358,0.05921 -1.70079,-0.925703 -7.07719,-1.587379 -24.092038,2.481663 -0.0067,-0.0198 -0.05957,-0.147319 -0.05957,-0.147319 l -0.676312,0.172626 c 0.03489,0.09365 0.06356,0.184727 0.09737,0.278229 -11.237749,2.403517 -23.583681,5.618813 -24.569754,5.876022 -1.32e-4,-0.0012 -0.0053,-0.03811 -0.0053,-0.03814 l 0.0111,-0.0599 -0.05454,0.02713 c -1.7e-5,-0.0014 -0.0053,-0.03813 -0.0053,-0.03813 l -0.899964,0.242889 c 0.0016,0.01234 0.0038,0.0258 0.0053,0.03814 l -0.03814,0.0054 0.0053,0.03814 c 8e-6,6.2e-5 0.01014,0.07114 0.0107,0.07634 -11.01918,3.630515 -18.378948,6.854114 -18.529771,7.597975 -0.202878,1.000623 19.235486,-1.588561 20.084125,-1.7837 0.01418,0.0329 0.08664,0.201771 0.08667,0.201895 l 0.02172,0.0164 0.992708,-0.275348 -0.0053,-0.03814 c -7.3e-5,-1.47e-4 -0.02917,-0.08588 -0.03242,-0.09271 1.992914,-0.357073 12.898567,-2.344749 24.693155,-5.134434 0.04208,0.243256 0.06954,0.496172 0.06954,0.496172 l 0.676312,-0.172625 c -0.004,-0.03545 -0.01157,-0.07822 -0.01601,-0.114475 0.859296,-0.162283 18.992809,-3.606194 22.583309,-6.998615 0.2284,-0.03664 0.32621,-0.06058 0.55076,-0.09665 0,0 0.70669,-1.42903 -0.61989,-2.617848 z"
       inkscape:connector-curvature="0"
       id="path3944"
       style="opacity:0.4;fill:url(#linearGradient3946);fill-opacity:1" />
  </g>
</svg>
