<?xml version="1.0" encoding="UTF-8" standalone="no"?>
<!-- Created with Inkscape (http://www.inkscape.org/) -->

<svg
   xmlns:dc="http://purl.org/dc/elements/1.1/"
   xmlns:cc="http://creativecommons.org/ns#"
   xmlns:rdf="http://www.w3.org/1999/02/22-rdf-syntax-ns#"
   xmlns:svg="http://www.w3.org/2000/svg"
   xmlns="http://www.w3.org/2000/svg"
   xmlns:xlink="http://www.w3.org/1999/xlink"
   xmlns:sodipodi="http://sodipodi.sourceforge.net/DTD/sodipodi-0.dtd"
   xmlns:inkscape="http://www.inkscape.org/namespaces/inkscape"
   version="1.0"
   width="96"
   height="96"
   id="svg2408"
   style="display:inline"
   inkscape:version="0.91 r"
   sodipodi:docname="yumex.svg">
  <title
     id="title257">yumex</title>
  <sodipodi:namedview
     pagecolor="#ffffff"
     bordercolor="#666666"
     borderopacity="1"
     objecttolerance="10"
     gridtolerance="10"
     guidetolerance="10"
     inkscape:pageopacity="0"
     inkscape:pageshadow="2"
     inkscape:window-width="1280"
     inkscape:window-height="965"
     id="namedview214"
     showgrid="false"
     inkscape:zoom="3.47661"
     inkscape:cx="5.44171"
     inkscape:cy="17.3686"
     inkscape:window-x="0"
     inkscape:window-y="27"
     inkscape:window-maximized="1"
     inkscape:current-layer="svg2408" />
  <defs
     id="defs2410">
    <linearGradient
       id="linearGradient3778">
      <stop
         id="stop3780"
         style="stop-color:#499119;stop-opacity:1"
         offset="0" />
      <stop
         id="stop3782"
         style="stop-color:#8fd625;stop-opacity:1"
         offset="1" />
    </linearGradient>
    <linearGradient
       id="linearGradient4426">
      <stop
         id="stop4428"
         style="stop-color:#71461e;stop-opacity:1"
         offset="0" />
      <stop
         id="stop4430"
         style="stop-color:#71461e;stop-opacity:0"
         offset="1" />
    </linearGradient>
    <linearGradient
       id="linearGradient4414">
      <stop
         id="stop4416"
         style="stop-color:#dac3a2;stop-opacity:1"
         offset="0" />
      <stop
         id="stop4418"
         style="stop-color:#dac3a2;stop-opacity:0"
         offset="1" />
    </linearGradient>
    <linearGradient
       id="linearGradient4370">
      <stop
         id="stop4372"
         style="stop-color:#8a5b30;stop-opacity:1"
         offset="0" />
      <stop
         id="stop4374"
         style="stop-color:#8a5b30;stop-opacity:0"
         offset="1" />
    </linearGradient>
    <linearGradient
       id="linearGradient4295">
      <stop
         id="stop4297"
         style="stop-color:#b88f56;stop-opacity:1"
         offset="0" />
      <stop
         id="stop4299"
         style="stop-color:#d9bd98;stop-opacity:1"
         offset="1" />
    </linearGradient>
    <linearGradient
       id="linearGradient4289">
      <stop
         id="stop4291"
         style="stop-color:#996c3b;stop-opacity:1"
         offset="0" />
      <stop
         id="stop4293"
         style="stop-color:#c19e6d;stop-opacity:1"
         offset="1" />
    </linearGradient>
    <linearGradient
       id="linearGradient5092">
      <stop
         id="stop5094"
         style="stop-color:#be9f6a;stop-opacity:1"
         offset="0" />
      <stop
         id="stop5096"
         style="stop-color:#e5d2b2;stop-opacity:1"
         offset="1" />
    </linearGradient>
    <linearGradient
       id="linearGradient5010">
      <stop
         id="stop5012"
         style="stop-color:#000000;stop-opacity:1"
         offset="0" />
      <stop
         id="stop5014"
         style="stop-color:#000000;stop-opacity:0"
         offset="1" />
    </linearGradient>
    <linearGradient
       x1="45.447727"
       y1="92.539597"
       x2="45.447727"
       y2="7.0165396"
       id="ButtonShadow"
       gradientUnits="userSpaceOnUse"
       gradientTransform="scale(1.0058652,0.994169)">
      <stop
         id="stop3750"
         style="stop-color:#000000;stop-opacity:1"
         offset="0" />
      <stop
         id="stop3752"
         style="stop-color:#000000;stop-opacity:0.58823532"
         offset="1" />
    </linearGradient>
    <linearGradient
       id="linearGradient3737">
      <stop
         id="stop3739"
         style="stop-color:#ffffff;stop-opacity:1"
         offset="0" />
      <stop
         id="stop3741"
         style="stop-color:#ffffff;stop-opacity:0"
         offset="1" />
    </linearGradient>
    <linearGradient
       x1="54.187183"
       y1="90"
       x2="54.187183"
       y2="39.852562"
       id="linearGradient3706"
       xlink:href="#linearGradient4289"
       gradientUnits="userSpaceOnUse" />
    <filter
       color-interpolation-filters="sRGB"
       id="filter3174">
      <feGaussianBlur
         id="feGaussianBlur3176"
         stdDeviation="1.71" />
    </filter>
    <filter
       x="-0.31155673"
       y="-0.42628157"
       width="1.6231135"
       height="1.8525631"
       color-interpolation-filters="sRGB"
       id="filter4362">
      <feGaussianBlur
         id="feGaussianBlur4364"
         stdDeviation="6.2124381" />
    </filter>
    <linearGradient
       x1="47.079498"
       y1="32.782871"
       x2="6.5962563"
       y2="9.4098616"
       id="linearGradient5100"
       xlink:href="#linearGradient5092"
       gradientUnits="userSpaceOnUse" />
    <linearGradient
       x1="48"
       y1="42"
       x2="6.7812738"
       y2="18.202358"
       id="linearGradient2489"
       xlink:href="#linearGradient4295"
       gradientUnits="userSpaceOnUse" />
    <linearGradient
       x1="47.226776"
       y1="29.039698"
       x2="6.3304405"
       y2="18.081558"
       id="linearGradient3264"
       xlink:href="#linearGradient4295"
       gradientUnits="userSpaceOnUse"
       gradientTransform="matrix(-1,0,0,1,96,0)" />
    <linearGradient
       x1="23.142857"
       y1="42"
       x2="66.964287"
       y2="6"
       id="linearGradient3285"
       xlink:href="#linearGradient3737"
       gradientUnits="userSpaceOnUse" />
    <linearGradient
       x1="8"
       y1="38.127232"
       x2="8"
       y2="71.877235"
       id="linearGradient4376"
       xlink:href="#linearGradient4370"
       gradientUnits="userSpaceOnUse" />
    <linearGradient
       x1="10"
       y1="40.263424"
       x2="10"
       y2="89.666374"
       id="linearGradient4394"
       xlink:href="#linearGradient3737"
       gradientUnits="userSpaceOnUse" />
    <linearGradient
       x1="8"
       y1="38.127232"
       x2="8"
       y2="87.029526"
       id="linearGradient4400"
       xlink:href="#linearGradient4370"
       gradientUnits="userSpaceOnUse"
       gradientTransform="matrix(-1,0,0,1,96,0)" />
    <linearGradient
       x1="10"
       y1="40.263424"
       x2="10"
       y2="89.666374"
       id="linearGradient4402"
       xlink:href="#linearGradient3737"
       gradientUnits="userSpaceOnUse"
       gradientTransform="matrix(-1,0,0,1,96,0)" />
    <linearGradient
       x1="8.9651041"
       y1="44.040279"
       x2="8.9651041"
       y2="52.263294"
       id="linearGradient4420"
       xlink:href="#linearGradient4414"
       gradientUnits="userSpaceOnUse" />
    <linearGradient
       x1="8.9651041"
       y1="44.040279"
       x2="8.9651041"
       y2="52.263294"
       id="linearGradient4424"
       xlink:href="#linearGradient4414"
       gradientUnits="userSpaceOnUse"
       gradientTransform="matrix(-1,0,0,1,96.086934,0)" />
    <radialGradient
       cx="48"
       cy="73.14563"
       r="42"
       fx="48"
       fy="73.14563"
       id="radialGradient4432"
       xlink:href="#linearGradient4426"
       gradientUnits="userSpaceOnUse"
       gradientTransform="matrix(0.867765,0,0,0.09523809,6.3472804,36.190476)" />
    <linearGradient
       x1="65.262688"
       y1="64.205269"
       x2="65.262688"
       y2="50.068527"
       id="linearGradient3832"
       xlink:href="#linearGradient3737"
       gradientUnits="userSpaceOnUse"
       gradientTransform="matrix(0.625,0,0,0.625,28.5,31.25)" />
    <linearGradient
       id="linearGradient3737-4">
      <stop
         id="stop3739-1"
         style="stop-color:#ffffff;stop-opacity:1"
         offset="0" />
      <stop
         id="stop3741-8"
         style="stop-color:#ffffff;stop-opacity:0"
         offset="1" />
    </linearGradient>
    <radialGradient
       cx="48"
       cy="90.171875"
       r="42"
       fx="48"
       fy="90.171875"
       id="radialGradient2858"
       xlink:href="#linearGradient3737-4"
       gradientUnits="userSpaceOnUse"
       gradientTransform="matrix(1.15731,0,0,0.995908,-7.55102,0.197132)" />
    <linearGradient
       x1="56"
       y1="72"
       x2="88"
       y2="72"
       id="linearGradient3773"
       xlink:href="#linearGradient3778"
       gradientUnits="userSpaceOnUse"
       gradientTransform="matrix(0.9375,0,0,0.9375,-140.5,3.5)" />
    <linearGradient
       x1="70"
       y1="54"
       x2="70"
       y2="75.095024"
       id="linearGradient3788"
       xlink:href="#linearGradient3737"
       gradientUnits="userSpaceOnUse"
       gradientTransform="translate(0,4)" />
    <filter
       color-interpolation-filters="sRGB"
       id="filter3806">
      <feGaussianBlur
         id="feGaussianBlur3808"
         stdDeviation="1.2" />
    </filter>
    <linearGradient
       x1="65.262688"
       y1="64.205269"
       x2="65.262688"
       y2="50.068527"
       id="linearGradient3812"
       xlink:href="#linearGradient5010"
       gradientUnits="userSpaceOnUse"
       gradientTransform="matrix(0.625,0,0,0.625,78.5,32.25)" />
    <clipPath
       id="clipPath3823">
      <path
         d="M 108.8125,58 C 107.25437,58 106,59.254375 106,60.8125 l 0,24.375 C 106,86.745625 107.25437,88 108.8125,88 l 24.375,0 C 134.74562,88 136,86.745625 136,85.1875 l 0,-24.375 C 136,59.254375 134.74562,58 133.1875,58 l -24.375,0 z m 7.1875,4.5 10,0 0,8.75 5,0 -10,13.75 -10,-13.75 5,0 0,-8.75 z"
         inkscape:connector-curvature="0"
         id="path3825"
         style="fill:#ffffff;fill-opacity:1;stroke:none" />
    </clipPath>
    <filter
       color-interpolation-filters="sRGB"
       id="filter3831">
      <feGaussianBlur
         id="feGaussianBlur3833"
         stdDeviation="0.6375" />
    </filter>
    <linearGradient
       x1="51.42857"
       y1="72.785713"
       x2="90.714287"
       y2="72.785713"
       id="linearGradient3844"
       xlink:href="#linearGradient3778"
       gradientUnits="userSpaceOnUse" />
    <linearGradient
       x1="65.262688"
       y1="64.205269"
       x2="65.262688"
       y2="43.780487"
       id="linearGradient3871"
       xlink:href="#linearGradient3737"
       gradientUnits="userSpaceOnUse"
       gradientTransform="matrix(0.625,0,0,0.625,25.5,33.25)" />
    <clipPath
       id="clipPath3894">
      <path
         d="m 128,56 c -9.94113,0 -18,8.058875 -18,18 0,9.941125 8.05887,18 18,18 9.94113,0 18,-8.058875 18,-18 0,-9.941125 -8.05887,-18 -18,-18 z m -6,4.5 12,0 0,13.75 5,0 -11,13.75 -11,-13.75 5,0 0,-13.75 z"
         inkscape:connector-curvature="0"
         id="path3896"
         style="fill:#ffffff;fill-opacity:1;stroke:none" />
    </clipPath>
    <linearGradient
       x1="123.07514"
       y1="75.788338"
       x2="123.07514"
       y2="59.878803"
       id="linearGradient3908"
       xlink:href="#linearGradient5010"
       gradientUnits="userSpaceOnUse" />
    <linearGradient
       x1="64.321426"
       y1="55.310268"
       x2="64.321426"
       y2="84.889679"
       id="linearGradient3857-6"
       xlink:href="#linearGradient3737-1"
       gradientUnits="userSpaceOnUse"
       gradientTransform="translate(-2,0)" />
    <linearGradient
       id="linearGradient3737-1">
      <stop
         id="stop3739-5"
         style="stop-color:#ffffff;stop-opacity:1"
         offset="0" />
      <stop
         id="stop3741-9"
         style="stop-color:#ffffff;stop-opacity:0"
         offset="1" />
    </linearGradient>
    <clipPath
       id="clipPath3871-0">
      <path
         d="M 0,95.999997 0,156 l 96.000001,0 0,-60.000003 -96.000001,0 z M 68,116 c 9.941125,0 18,8.05888 18,18 0,9.94112 -8.058875,18 -18,18 -9.941125,0 -18,-8.05888 -18,-18 0,-9.94112 8.058875,-18 18,-18 z"
         inkscape:connector-curvature="0"
         id="path3873-2"
         style="fill:#ffffff;fill-opacity:1;stroke:none" />
    </clipPath>
    <linearGradient
       x1="123.07514"
       y1="75.788338"
       x2="123.07514"
       y2="59.878803"
       id="linearGradient3878"
       xlink:href="#linearGradient5010"
       gradientUnits="userSpaceOnUse" />
    <linearGradient
       x1="123.07514"
       y1="75.788338"
       x2="123.07514"
       y2="59.878803"
       id="linearGradient3886"
       xlink:href="#linearGradient5010"
       gradientUnits="userSpaceOnUse" />
    <linearGradient
       x1="50.499405"
       y1="19.881863"
       x2="50.499405"
       y2="47.295406"
       id="linearGradient3277-5"
       xlink:href="#linearGradient4309-1"
       gradientUnits="userSpaceOnUse"
       gradientTransform="matrix(1.0200612,0,0,1.0200612,-5.2981966,5.7562054)" />
    <linearGradient
       x1="52.25"
       y1="47.247101"
       x2="52.25"
       y2="0.2393"
       id="linearGradient4309-1"
       gradientUnits="userSpaceOnUse">
      <stop
         id="stop4311-3"
         style="stop-color:#d8cab2;stop-opacity:1"
         offset="0" />
      <stop
         id="stop4321-4"
         style="stop-color:#d2b98c;stop-opacity:1"
         offset="0.45710954" />
      <stop
         id="stop4323-7"
         style="stop-color:#f9f7ef;stop-opacity:1"
         offset="0.48590001" />
      <stop
         id="stop4325-1"
         style="stop-color:#ffffff;stop-opacity:1"
         offset="0.49110001" />
      <stop
         id="stop4327-9"
         style="stop-color:#fbf9f4;stop-opacity:1"
         offset="0.49180001" />
      <stop
         id="stop4329-7"
         style="stop-color:#efe7d0;stop-opacity:1"
         offset="0.4946" />
      <stop
         id="stop4331-9"
         style="stop-color:#e4d6b0;stop-opacity:1"
         offset="0.49770001" />
      <stop
         id="stop4333-5"
         style="stop-color:#dac894;stop-opacity:1"
         offset="0.5011" />
      <stop
         id="stop4335-2"
         style="stop-color:#c7a572;stop-opacity:1"
         offset="0.50489998" />
      <stop
         id="stop4347-5"
         style="stop-color:#d7c198;stop-opacity:1"
         offset="1" />
    </linearGradient>
    <linearGradient
       x1="46.795631"
       y1="60.307007"
       x2="46.795631"
       y2="6.0179305"
       id="linearGradient3942"
       xlink:href="#linearGradient3928"
       gradientUnits="userSpaceOnUse" />
    <linearGradient
       id="linearGradient3928">
      <stop
         id="stop3930"
         style="stop-color:#3a240f;stop-opacity:1"
         offset="0" />
      <stop
         id="stop3932"
         style="stop-color:#3a240f;stop-opacity:0"
         offset="1" />
    </linearGradient>
    <linearGradient
       x1="48.40115"
       y1="61.990967"
       x2="48.40115"
       y2="4.6666145"
       id="linearGradient3934"
       xlink:href="#linearGradient3928"
       gradientUnits="userSpaceOnUse" />
    <linearGradient
       x1="45.447727"
       y1="92.539597"
       x2="45.447727"
       y2="7.0165396"
       id="ButtonShadow-0"
       gradientUnits="userSpaceOnUse"
       gradientTransform="matrix(1.0058652,0,0,0.994169,100,0)">
      <stop
         id="stop3750-8"
         style="stop-color:#000000;stop-opacity:1"
         offset="0" />
      <stop
         id="stop3752-5"
         style="stop-color:#000000;stop-opacity:0.58823532"
         offset="1" />
    </linearGradient>
    <linearGradient
       x1="32.251034"
       y1="6.1317081"
       x2="32.251034"
       y2="90.238609"
       id="linearGradient3780"
       xlink:href="#ButtonShadow-0"
       gradientUnits="userSpaceOnUse"
       gradientTransform="matrix(1.0238095,0,0,1.0119048,-1.1428571,-98.071429)" />
    <linearGradient
       x1="32.251034"
       y1="6.1317081"
       x2="32.251034"
       y2="90.238609"
       id="linearGradient3772"
       xlink:href="#ButtonShadow-0"
       gradientUnits="userSpaceOnUse"
       gradientTransform="matrix(1.0238095,0,0,1.0119048,-1.1428571,-98.071429)" />
    <linearGradient
       x1="32.251034"
       y1="6.1317081"
       x2="32.251034"
       y2="90.238609"
       id="linearGradient3725"
       xlink:href="#ButtonShadow-0"
       gradientUnits="userSpaceOnUse"
       gradientTransform="matrix(1.0238095,0,0,1.0119048,-1.1428571,-98.071429)" />
    <linearGradient
       x1="32.251034"
       y1="6.1317081"
       x2="32.251034"
       y2="90.238609"
       id="linearGradient3721"
       xlink:href="#ButtonShadow-0"
       gradientUnits="userSpaceOnUse"
       gradientTransform="translate(0,-97)" />
    <linearGradient
       x1="32.251034"
       y1="6.1317081"
       x2="32.251034"
       y2="90.238609"
       id="linearGradient2969"
       xlink:href="#ButtonShadow-0"
       gradientUnits="userSpaceOnUse"
       gradientTransform="matrix(1.0238095,0,0,1.0119048,-1.1428571,-98.071429)" />
  </defs>
  <metadata
     id="metadata2413">
    <rdf:RDF>
      <cc:Work
         rdf:about="">
        <dc:format>image/svg+xml</dc:format>
        <dc:type
           rdf:resource="http://purl.org/dc/dcmitype/StillImage" />
        <dc:title>yumex</dc:title>
        <dc:subject>
          <rdf:Bag>
            <rdf:li>yumex</rdf:li>
          </rdf:Bag>
        </dc:subject>
        <dc:description>yumex</dc:description>
      </cc:Work>
    </rdf:RDF>
  </metadata>
  <g
     id="layer2"
     style="display:none">
    <path
       d="M 11,7 48,5 85,7 c 3.324,0 6,2.676 6,6 l 0,73 c 0,3.324 -2.676,6 -6,6 L 11,92 C 7.676,92 5,89.324 5,86 L 5,13 C 5,9.676 7.676,7 11,7 z"
       inkscape:connector-curvature="0"
       id="rect3745"
       style="opacity:0.9;fill:url(#ButtonShadow);fill-opacity:1;fill-rule:nonzero;stroke:none;filter:url(#filter3174)" />
  </g>
  <g
     id="layer3"
     style="display:inline">
    <path
       d="m 12,-95.03125 c -5.5110903,0 -10.03125,4.52016 -10.03125,10.03125 l 0,71 c 0,5.5110902 4.5201598,10.03125 10.03125,10.03125 l 72,0 c 5.51109,0 10.03125,-4.5201597 10.03125,-10.03125 l 0,-71 c 0,-5.51109 -4.52016,-10.03125 -10.03125,-10.03125 l -72,0 z"
       transform="scale(1,-1)"
       id="path3786"
       style="opacity:0.07999998;fill:url(#linearGradient2969);fill-opacity:1;fill-rule:nonzero;stroke:none;display:inline" />
    <path
       d="m 12,-94.03125 c -4.971633,0 -9.03125,4.059617 -9.03125,9.03125 l 0,71 c 0,4.9716329 4.0596171,9.03125 9.03125,9.03125 l 72,0 c 4.971633,0 9.03125,-4.059617 9.03125,-9.03125 l 0,-71 c 0,-4.971633 -4.059617,-9.03125 -9.03125,-9.03125 l -72,0 z"
       transform="scale(1,-1)"
       id="path3778"
       style="opacity:0.1;fill:url(#linearGradient3780);fill-opacity:1;fill-rule:nonzero;stroke:none;display:inline" />
    <path
       d="m 12,-93 c -4.4091333,0 -8,3.590867 -8,8 l 0,71 c 0,4.4091333 3.5908667,8 8,8 l 72,0 c 4.409133,0 8,-3.5908667 8,-8 l 0,-71 c 0,-4.409133 -3.590867,-8 -8,-8 l -72,0 z"
       transform="scale(1,-1)"
       id="path3770"
       style="opacity:0.2;fill:url(#linearGradient3772);fill-opacity:1;fill-rule:nonzero;stroke:none;display:inline" />
    <rect
       width="86"
       height="85"
       rx="7"
       ry="7"
       x="5"
       y="-92"
       transform="scale(1,-1)"
       id="rect3723"
       style="opacity:0.3;fill:url(#linearGradient3725);fill-opacity:1;fill-rule:nonzero;stroke:none;display:inline" />
    <rect
       width="84"
       height="84"
       rx="6"
       ry="6"
       x="6"
       y="-91"
       transform="scale(1,-1)"
       id="rect3716"
       style="opacity:0.45;fill:url(#linearGradient3721);fill-opacity:1;fill-rule:nonzero;stroke:none;display:inline" />
  </g>
  <g
     id="layer1"
     style="display:inline">
    <path
       d="m 6,36 0,48 c 0,1.781762 0.7745675,3.371709 2,4.46875 L 8,36 6,36 z"
       inkscape:connector-curvature="0"
       id="rect5138"
       style="fill:url(#linearGradient4376);fill-opacity:1;fill-rule:nonzero;stroke:none" />
    <rect
       width="84"
       height="84"
       rx="6"
       ry="6"
       x="6"
       y="6"
       id="rect2419"
       style="fill:url(#linearGradient3706);fill-opacity:1;fill-rule:nonzero;stroke:none" />
    <path
       d="m 6,36 0,2 c 0,3.324 2.676,6 6,6 l 72,0 c 3.324,0 6,-2.676 6,-6 l 0,-2 c 0,3.324 -2.676,6 -6,6 L 12,42 C 8.676,42 6,39.324 6,36 z"
       inkscape:connector-curvature="0"
       id="path3287"
       style="fill:url(#radialGradient4432);fill-opacity:1;fill-rule:nonzero;stroke:none" />
    <path
       d="m 90,36 0,48 c 0,1.781762 -0.774567,3.371709 -2,4.46875 L 88,36 l 2,0 z"
       inkscape:connector-curvature="0"
       id="path4396"
       style="fill:url(#linearGradient4400);fill-opacity:1;fill-rule:nonzero;stroke:none" />
    <rect
       width="84"
       height="24"
       rx="6"
       ry="6"
       x="6"
       y="18"
       id="rect2483"
       style="fill:#3c2510;fill-opacity:1;fill-rule:nonzero;stroke:none" />
    <path
       d="m 88,36 0,52.46875 c -0.576856,0.516417 -1.254924,0.923089 -2,1.1875 L 86,36 l 2,0 z"
       inkscape:connector-curvature="0"
       id="path4398"
       style="opacity:0.3;fill:url(#linearGradient4402);fill-opacity:1;fill-rule:nonzero;stroke:none" />
    <path
       d="m 8,36 0,52.46875 c 0.5768558,0.516417 1.254924,0.923089 2,1.1875 L 10,36 8,36 z"
       inkscape:connector-curvature="0"
       id="path4378"
       style="opacity:0.3;fill:url(#linearGradient4394);fill-opacity:1;fill-rule:nonzero;stroke:none" />
    <path
       d="M 12,6 C 8.7734181,6 6,8.2592995 6,13 L 6,15 6,35.65625 48,35.69067 48,6 14,6 12,6 z"
       inkscape:connector-curvature="0"
       id="path5055"
       style="fill:url(#linearGradient5100);fill-opacity:1;fill-rule:nonzero;stroke:none" />
    <rect
       width="47.855976"
       height="34.976532"
       rx="6"
       ry="6"
       x="12.753176"
       y="41.956837"
       transform="matrix(1,0,0,0.8555957,10,8.5841304)"
       id="rect4356"
       style="opacity:0.3;fill:#dac7a8;fill-opacity:1;fill-rule:nonzero;stroke:none;filter:url(#filter4362)" />
    <path
       d="M 12,6 C 8.676,6 6,8.676 6,12 l 0,24 c 0,3.324 2.676,6 6,6 L 48,40 48,4 12,6 z"
       inkscape:connector-curvature="0"
       id="rect2481"
       style="fill:url(#linearGradient2489);fill-opacity:1;fill-rule:nonzero;stroke:none" />
    <path
       d="m 84,6 c 3.324,0 6,2.676 6,6 l 0,24 c 0,3.324 -2.676,6 -6,6 L 48,40 48,4 84,6 z"
       inkscape:connector-curvature="0"
       id="path3262"
       style="fill:url(#linearGradient3264);fill-opacity:1;fill-rule:nonzero;stroke:none" />
    <path
       d="M 12,6 C 8.676,6 6,8.676 6,12 l 0,24 c 0,3.324 2.676,6 6,6 l 36,-2 36,2 c 3.324,0 6,-2.676 6,-6 L 90,12 C 90,8.676 87.324,6 84,6 L 48,4 12,6 z m 0,2 36,-2 36,2 c 2.245802,0 4,1.7541975 4,4 l 0,24 c 0,2.245802 -1.754198,4 -4,4 L 48,38 12,40 C 9.7541975,40 8,38.245802 8,36 L 8,12 C 8,9.7541975 9.7541975,8 12,8 z"
       inkscape:connector-curvature="0"
       id="rect3266"
       style="opacity:0.3;fill:url(#linearGradient3285);fill-opacity:1;fill-rule:nonzero;stroke:none" />
    <path
       d="m 6.1871843,37.284884 c 2.3991123,5.555839 1.894036,16.036171 1.894036,16.036171 L 9.9121217,53.068517 C 9.6595836,44.861028 10.354063,41.83057 14.89975,41.704301 7.7307581,40.509469 6.1871843,37.284884 6.1871843,37.284884 z"
       inkscape:connector-curvature="0"
       id="path4404"
       style="fill:url(#linearGradient4420);fill-opacity:1;fill-rule:evenodd;stroke:none" />
    <path
       d="m 89.89975,37.284884 c -2.399112,5.555839 -1.894036,16.036171 -1.894036,16.036171 L 86.174813,53.068517 C 86.427351,44.861028 85.732871,41.83057 81.187184,41.704301 88.356176,40.509469 89.89975,37.284884 89.89975,37.284884 z"
       inkscape:connector-curvature="0"
       id="path4422"
       style="fill:url(#linearGradient4424);fill-opacity:1;fill-rule:evenodd;stroke:none" />
    <path
       style="opacity:0.2;fill:url(#radialGradient2858);fill-opacity:1;fill-rule:nonzero;stroke:none"
       d="M 12,90 C 8.11425,90.1368 5.41842,86.2084 6,82.5774 6.01818,58.8883 5.96366,35.1972 6.02722,11.5094 5.28212,9.16796 10.5383,5.696 9.3125,6.78125 6.06854,8.80692 7.20932,12.9061 7,16.0823 c 0.0171,22.4772 -0.0342,44.9561 0.0256,67.4323 0.2115,3.3005 3.67101,4.9485 6.63411,4.4854 23.6181,-0.017 47.2379,0.034 70.8549,-0.026 C 87.8151,87.7629 89.4631,84.3034 89,81.3403 88.9765,57.714 89.0469,34.0846 88.9648,10.4602 89.6042,8.28431 84.0152,5.11138 87.5127,7.17856 91.0463,9.65991 89.75,14.1603 90,17.7936 89.9794,40.0672 90.0412,62.3429 89.9691,84.6152 89.7161,88.3905 85.8108,90.524 82.3403,90 58.8935,90 35.4468,90 12,90 Z"
       id="path3615"
       inkscape:connector-curvature="0" />
    <path
       d="M 54.120367,7 42.000001,7 42.060185,31.062224 42.194833,60 47.881674,59.50527 53.925535,58.979939 53.958175,53.428766 54.060182,31.062224 54.120362,7 z"
       inkscape:connector-curvature="0"
       id="path5008"
       style="opacity:0.5;fill:#3a240f;fill-opacity:1;display:inline" />
    <path
       d="m 41.6875,5.125 c 0.0042,-7.112e-4 -0.191651,0.032337 -0.1875,0.03125 0.0042,-0.00109 -0.160287,0.063954 -0.15625,0.0625 0.004,-0.00145 -0.160141,0.064309 -0.15625,0.0625 0.0039,-0.00181 -0.128713,0.06465 -0.125,0.0625 0.0037,-0.00215 -0.159756,0.096223 -0.15625,0.09375 0.0035,-0.00247 -0.128271,0.1277772 -0.125,0.125 0.0033,-0.00278 -0.128009,0.096809 -0.125,0.09375 0.003,-0.00306 -0.127724,0.1283156 -0.125,0.125 0.0027,-0.00332 -0.09617,0.1597959 -0.09375,0.15625 0.0024,-0.00355 -0.09584,0.1287479 -0.09375,0.125 0.0021,-0.00375 -0.06424,0.1601697 -0.0625,0.15625 0.0017,-0.00392 -0.06389,0.1603101 -0.0625,0.15625 0.0014,-0.00406 -0.03227,0.160418 -0.03125,0.15625 0.001,-0.00417 -0.06314,0.1604925 -0.0625,0.15625 6.42e-4,-0.00424 -2.6e-4,0.1917829 0,0.1875 2.08e-4,-0.00343 7.69e-4,0.08233 0,0.125 l 0,0.03125 L 40.1875,31.0625 40.3125,60 a 1.0057838,1.0057838 0 0 0 0,0.03125 c -4.2e-5,-0.0025 1.68e-4,0.0962 0,0.09375 -1.68e-4,-0.0025 2.94e-4,0.09619 0,0.09375 -2.94e-4,-0.0024 0.03167,0.09617 0.03125,0.09375 -4.19e-4,-0.0024 5.42e-4,0.09615 0,0.09375 -5.42e-4,-0.0024 0.03191,0.09611 0.03125,0.09375 -6.64e-4,-0.0024 0.03204,0.09608 0.03125,0.09375 -7.85e-4,-0.0023 0.03215,0.06479 0.03125,0.0625 -9.03e-4,-0.0023 0.03227,0.09599 0.03125,0.09375 -0.001,-0.0022 0.06363,0.09593 0.0625,0.09375 -0.0011,-0.0022 0.03249,0.09587 0.03125,0.09375 -0.0012,-0.0021 0.06385,0.06455 0.0625,0.0625 -0.0014,-0.0021 0.0327,0.09573 0.03125,0.09375 -0.0015,-0.002 0.06405,0.0644 0.0625,0.0625 -0.0016,-0.0019 0.06415,0.09557 0.0625,0.09375 -0.0016,-0.0018 0.06424,0.06423 0.0625,0.0625 -0.0017,-0.0017 0.09558,0.06414 0.09375,0.0625 -0.0018,-0.0016 0.06441,0.06405 0.0625,0.0625 -0.0019,-0.0015 0.06448,0.06395 0.0625,0.0625 -0.002,-0.0014 0.09581,0.06384 0.09375,0.0625 -0.0021,-0.0013 0.06462,0.03249 0.0625,0.03125 -0.0021,-0.0012 0.09593,0.06363 0.09375,0.0625 -0.0022,-0.0011 0.09599,0.03226 0.09375,0.03125 -0.0022,-0.001 0.09604,0.03215 0.09375,0.03125 -0.0023,-8.97e-4 0.09608,0.03203 0.09375,0.03125 -0.0023,-7.79e-4 0.09612,0.03191 0.09375,0.03125 -0.0024,-6.58e-4 0.09615,0.03179 0.09375,0.03125 -0.0024,-5.36e-4 0.09617,4.12e-4 0.09375,0 -0.0024,-4.12e-4 0.09619,0.03154 0.09375,0.03125 -0.0024,-2.88e-4 0.0962,1.62e-4 0.09375,0 -0.0025,-1.62e-4 0.09621,3.6e-5 0.09375,0 -0.0025,-3.6e-5 0.0962,-9e-5 0.09375,0 -0.0025,9e-5 0.0962,-2.16e-4 0.09375,0 l 5.6875,-0.5 6.03125,-0.53125 c -8.93e-4,5.1e-5 0.02019,0.0012 0.03125,0 0.04424,-0.0047 0.128538,-5.37e-4 0.125,0 -0.0044,6.71e-4 0.19184,-0.06358 0.1875,-0.0625 -0.0043,0.0011 0.160471,-0.03273 0.15625,-0.03125 -0.0042,0.0015 0.160314,-0.06437 0.15625,-0.0625 -0.0041,0.0019 0.160122,-0.09599 0.15625,-0.09375 -0.0039,0.0022 0.159897,-0.09634 0.15625,-0.09375 -0.0036,0.0026 0.128389,-0.09667 0.125,-0.09375 -0.0034,0.0029 0.128103,-0.128222 0.125,-0.125 -0.0031,0.0032 0.127789,-0.128497 0.125,-0.125 -0.0028,0.0035 0.0962,-0.159992 0.09375,-0.15625 -0.0025,0.0037 0.09584,-0.160204 0.09375,-0.15625 -0.0021,0.004 0.09546,-0.160382 0.09375,-0.15625 -0.0017,0.0041 0.06382,-0.160524 0.0625,-0.15625 -0.0013,0.0043 0.03217,-0.160628 0.03125,-0.15625 -9.16e-4,0.0044 0.03175,-0.191944 0.03125,-0.1875 -5.04e-4,0.0044 8.7e-5,-0.160722 0,-0.15625 a 1.0057838,1.0057838 0 0 0 0,-0.03125 L 55.84375,53.4375 55.9375,31.0625 56,7 c -7.3e-5,0.00479 -4.06e-4,-0.1610265 0,-0.15625 4.06e-4,0.00478 -0.03213,-0.1922121 -0.03125,-0.1875 8.81e-4,0.00471 -0.0326,-0.1921004 -0.03125,-0.1875 0.0013,0.0046 -0.0643,-0.1919427 -0.0625,-0.1875 0.0018,0.00444 -0.09599,-0.1604906 -0.09375,-0.15625 0.0022,0.00424 -0.0964,-0.160246 -0.09375,-0.15625 0.0026,0.004 -0.09678,-0.1599614 -0.09375,-0.15625 0.003,0.00371 -0.12839,-0.1596397 -0.125,-0.15625 0.0034,0.00339 -0.159961,-0.1280341 -0.15625,-0.125 0.0037,0.00303 -0.160246,-0.096398 -0.15625,-0.09375 0.004,0.00265 -0.160491,-0.095986 -0.15625,-0.09375 0.0042,0.00224 -0.160693,-0.095551 -0.15625,-0.09375 0.0044,0.0018 -0.1921,-0.063848 -0.1875,-0.0625 0.0046,0.00135 -0.192212,-0.032132 -0.1875,-0.03125 0.0047,8.815e-4 -0.192277,-0.031656 -0.1875,-0.03125 0.0048,4.063e-4 -0.161043,7.3e-5 -0.15625,0 l -12.03125,0 c 0.0026,2.364e-4 -0.04386,0.00229 -0.09375,0 -0.03326,-0.00153 -0.06424,0 -0.0625,0 0.0043,0 -0.19183,3.94e-4 -0.1875,0 a 1.0057838,1.0057838 0 0 0 -0.0625,0 z"
       id="path3926"
       style="opacity:0.1;fill:url(#linearGradient3934);fill-opacity:1;display:inline" />
    <path
       d="M 42,6.125 A 0.8619805,0.8619805 0 0 0 41.125,7 L 41.1875,31.0625 41.3125,60 a 0.8619805,0.8619805 0 0 0 0.9375,0.84375 l 5.6875,-0.5 L 54,59.8125 a 0.8619805,0.8619805 0 0 0 0.8125,-0.84375 L 54.84375,53.4375 54.9375,31.0625 55,7 A 0.8619805,0.8619805 0 0 0 54.125,6.125 L 42,6.125 z"
       id="path3922"
       style="opacity:0.2;fill:url(#linearGradient3942);fill-opacity:1;display:inline" />
    <path
       d="M 54.060184,4.3686547 48.000001,3.926713 41.939817,4.3686547 42.000001,30.062224 42.134649,59 l 5.686841,-0.494729 6.043862,-0.525332 0.03264,-5.551173 0.102006,-22.366542 0.06018,-25.6935693 z"
       inkscape:connector-curvature="0"
       id="polygon120"
       style="fill:url(#linearGradient3277-5);fill-opacity:1;display:inline" />
    <rect
       width="1"
       height="35.714287"
       x="47"
       y="4.1250005"
       id="rect4363"
       style="opacity:0.2;fill:#8d6137;fill-opacity:1;fill-rule:nonzero;stroke:none;display:inline" />
    <rect
       width="1"
       height="35.714287"
       x="48"
       y="4.1250005"
       id="rect4365"
       style="opacity:0.2;fill:#ffffff;fill-opacity:1;fill-rule:nonzero;stroke:none;display:inline" />
  </g>
  <g
     id="layer5">
    <g
       transform="translate(0,-2)"
       id="g3745"
       style="display:inline">
      <rect
         width="14"
         height="19"
         rx="1.8666667"
         ry="2"
         x="15.5"
         y="49.5"
         id="rect3739"
         style="fill:none;stroke:#825023;stroke-width:1;stroke-opacity:1" />
      <path
         d="m 18.25,66 0,-9.25 -1.25,0 2.5,-4.75 2.5,4.75 -1.25,0 0,9.25 -2.5,0 z"
         inkscape:connector-curvature="0"
         id="path3741"
         style="fill:#825023;fill-opacity:1;fill-rule:nonzero;stroke:none" />
      <path
         d="m 24.25,66 0,-9.25 -1.25,0 2.5,-4.75 2.5,4.75 -1.25,0 0,9.25 -2.5,0 z"
         inkscape:connector-curvature="0"
         id="path3743"
         style="fill:#825023;fill-opacity:1;fill-rule:nonzero;stroke:none" />
    </g>
    <g
       id="text3750"
       style="font-size:2px;font-style:normal;font-variant:normal;font-weight:bold;font-stretch:normal;text-align:start;line-height:125%;writing-mode:lr-tb;text-anchor:start;fill:#553417;fill-opacity:1;stroke:none;display:inline;font-family:Arial Black;-inkscape-font-specification:'Arial Black, Bold'">
      <path
         d="m 15.148438,74.082314 1.093749,0 0,0.307617 -0.649414,0 0,0.25 0.554688,0 0,0.289062 -0.554688,0 0,0.584961 -0.444335,0 0,-1.43164"
         inkscape:connector-curvature="0"
         id="path3137" />
      <path
         d="m 17.175781,75.277626 -0.503906,0 -0.06934,0.236328 -0.452148,0 0.538086,-1.43164 0.482421,0 0.538086,1.43164 -0.46289,0 -0.07031,-0.236328 m -0.09277,-0.30957 -0.158203,-0.514649 -0.157227,0.514649 0.31543,0"
         inkscape:connector-curvature="0"
         id="path3139" />
      <path
         d="m 17.848633,74.082314 1.185547,0 0,0.305664 -0.742188,0 0,0.227539 0.688477,0 0,0.291992 -0.688477,0 0,0.282226 0.763672,0 0,0.324219 -1.207031,0 0,-1.43164"
         inkscape:connector-curvature="0"
         id="path3141" />
      <path
         d="m 19.297852,74.082314 0.413085,0 0.539063,0.791992 0,-0.791992 0.416992,0 0,1.43164 -0.416992,0 -0.536133,-0.786133 0,0.786133 -0.416015,0 0,-1.43164"
         inkscape:connector-curvature="0"
         id="path3143" />
      <path
         d="m 20.926758,74.082314 1.251953,0 0,0.286132 -0.802734,0.837891 0.832031,0 0,0.307617 -1.358399,0 0,-0.296875 0.793946,-0.829101 -0.716797,0 0,-0.305664"
         inkscape:connector-curvature="0"
         id="path3145" />
      <path
         d="m 23.289062,75.277626 -0.503906,0 -0.06934,0.236328 -0.452148,0 0.538086,-1.43164 0.482422,0 0.538086,1.43164 -0.462891,0 -0.07031,-0.236328 m -0.09277,-0.30957 -0.158203,-0.514649 -0.157227,0.514649 0.31543,0"
         inkscape:connector-curvature="0"
         id="path3147" />
    </g>
    <g
       id="text3754"
       style="font-size:1.5px;font-style:normal;font-variant:normal;font-weight:normal;font-stretch:normal;text-align:start;line-height:125%;writing-mode:lr-tb;text-anchor:start;fill:#553417;fill-opacity:1;stroke:none;display:inline;font-family:Arial;-inkscape-font-specification:Arial">
      <path
         d="m 15.109863,81.513954 0,-1.07373 0.14209,0 0,0.53247 0.533203,-0.53247 0.192627,0 -0.450439,0.435058 0.470215,0.638672 -0.1875,0 -0.382325,-0.543457 -0.175781,0.171387 0,0.37207 -0.14209,0"
         inkscape:connector-curvature="0"
         id="path3037" />
      <path
         d="m 16.6333,81.2635 c 0.045,0.01 0.091,0.011 0.1362,0.017 -0.026,0.1065 -0.105,0.2012 -0.2117,0.2326 -0.1058,0.031 -0.2257,0.026 -0.324,-0.026 -0.1033,-0.055 -0.1618,-0.1678 -0.1728,-0.2812 -0.013,-0.1284 0,-0.2706 0.091,-0.3714 0.078,-0.093 0.2073,-0.1286 0.325,-0.1115 0.1296,0.014 0.241,0.1149 0.2755,0.2397 0.019,0.063 0.024,0.1307 0.021,0.1967 -0.1934,0 -0.3867,0 -0.5801,0 0,0.089 0.037,0.1844 0.1164,0.2322 0.089,0.055 0.222,0.042 0.2833,-0.048 0.017,-0.024 0.03,-0.052 0.04,-0.08 m -0.4329,-0.2132 c 0.1448,0 0.2896,0 0.4344,0 -0,-0.069 -0.029,-0.1427 -0.088,-0.184 -0.092,-0.069 -0.2379,-0.046 -0.3023,0.05 -0.028,0.039 -0.041,0.087 -0.044,0.134 z"
         id="path3039"
         inkscape:connector-curvature="0" />
      <path
         d="m 17.4683,81.2635 c 0.045,0.01 0.091,0.011 0.1362,0.017 -0.026,0.1065 -0.1051,0.2012 -0.2117,0.2326 -0.1058,0.031 -0.2257,0.026 -0.3241,-0.026 -0.1032,-0.055 -0.1618,-0.1678 -0.1727,-0.2812 -0.013,-0.1284 0,-0.2706 0.091,-0.3714 0.078,-0.093 0.2072,-0.1286 0.3249,-0.1115 0.1296,0.014 0.2411,0.1149 0.2756,0.2397 0.019,0.063 0.024,0.1307 0.021,0.1967 -0.1934,0 -0.3868,0 -0.5801,0 0,0.089 0.037,0.1844 0.1164,0.2322 0.088,0.055 0.222,0.042 0.2833,-0.048 0.017,-0.024 0.03,-0.052 0.04,-0.08 m -0.4329,-0.2132 c 0.1448,0 0.2896,0 0.4343,0 -0,-0.069 -0.029,-0.1427 -0.088,-0.184 -0.092,-0.069 -0.2379,-0.046 -0.3023,0.05 -0.028,0.039 -0.041,0.087 -0.044,0.134 z"
         id="path3041"
         inkscape:connector-curvature="0" />
      <path
         d="m 17.7708,81.812 c 0,-0.3586 0,-0.7172 0,-1.0759 0.04,0 0.08,0 0.1201,0 0,0.034 0,0.067 0,0.1011 0.048,-0.071 0.1291,-0.1202 0.2161,-0.1185 0.1138,-0.01 0.2282,0.056 0.2815,0.1572 0.069,0.1301 0.075,0.2899 0.027,0.4281 -0.034,0.1017 -0.1167,0.1858 -0.2205,0.2149 -0.094,0.029 -0.2052,0.01 -0.2742,-0.065 -0.02,-0.032 -0.019,-0.01 -0.018,0.013 0,0.1151 0,0.2302 0,0.3453 -0.044,0 -0.088,0 -0.1318,0 m 0.1193,-0.6827 c -6e-4,0.093 0.017,0.1984 0.097,0.2567 0.075,0.06 0.1925,0.045 0.2532,-0.028 0.071,-0.078 0.075,-0.1928 0.069,-0.2928 -0,-0.088 -0.044,-0.1829 -0.1262,-0.225 -0.072,-0.038 -0.1643,-0.014 -0.2159,0.046 -0.062,0.064 -0.077,0.1572 -0.077,0.2426 z"
         id="path3043"
         inkscape:connector-curvature="0" />
      <path
         d="m 19.022461,80.591835 0,-0.151611 0.131836,0 0,0.151611 -0.131836,0 m 0,0.922119 0,-0.777832 0.131836,0 0,0.777832 -0.131836,0"
         inkscape:connector-curvature="0"
         id="path3045" />
      <path
         d="m 19.3557,81.514 c 0,-0.2593 0,-0.5186 0,-0.7779 0.04,0 0.079,0 0.1187,0 0,0.037 0,0.074 0,0.1106 0.051,-0.082 0.1466,-0.13 0.2425,-0.1281 0.081,-6e-4 0.1711,0.025 0.2226,0.092 0.049,0.067 0.049,0.1527 0.048,0.2317 0,0.1574 0,0.3148 0,0.4722 -0.044,0 -0.088,0 -0.1319,0 -3e-4,-0.1673 7e-4,-0.3347 -5e-4,-0.502 -0,-0.054 -0.011,-0.1171 -0.06,-0.1489 -0.078,-0.054 -0.1938,-0.033 -0.2576,0.034 -0.051,0.063 -0.05,0.1479 -0.05,0.2246 0,0.1307 0,0.2615 0,0.3923 -0.044,0 -0.088,0 -0.1318,0"
         id="path3047"
         inkscape:connector-curvature="0" />
      <path
         d="m 21.1143,81.418 c -0.076,0.067 -0.1736,0.1139 -0.2768,0.1134 -0.087,0 -0.1845,-0.02 -0.2368,-0.096 -0.066,-0.091 -0.046,-0.2319 0.045,-0.2995 0.085,-0.066 0.1963,-0.064 0.2971,-0.08 0.054,-0.01 0.1085,-0.018 0.1606,-0.035 0,-0.055 0,-0.1248 -0.05,-0.1584 -0.064,-0.041 -0.1455,-0.04 -0.2176,-0.026 -0.057,0.01 -0.098,0.057 -0.1132,0.1105 -8e-4,0.028 -0.016,0.032 -0.039,0.025 -0.033,-0 -0.066,-0.01 -0.099,-0.014 0.015,-0.081 0.06,-0.1619 0.1385,-0.1966 0.1,-0.047 0.2149,-0.051 0.3223,-0.034 0.072,0.013 0.1481,0.052 0.1732,0.125 0.025,0.068 0.016,0.1423 0.018,0.2137 0,0.1182 -0,0.2368 0.01,0.3545 -5e-4,0.031 0.032,0.076 0.027,0.093 -0.044,0 -0.087,0 -0.1312,0 -0.015,-0.03 -0.023,-0.063 -0.026,-0.096 m -0.011,-0.2944 c -0.097,0.039 -0.2037,0.043 -0.3046,0.067 -0.06,0.011 -0.1066,0.072 -0.095,0.1335 0.01,0.062 0.069,0.1006 0.1278,0.1026 0.099,0.011 0.2118,-0.033 0.2527,-0.129 0.022,-0.055 0.018,-0.116 0.019,-0.1744"
         id="path3049"
         inkscape:connector-curvature="0" />
      <path
         d="m 21.8049,81.2818 c 0.044,-0.01 0.087,-0.014 0.1304,-0.02 0.01,0.068 0.052,0.1343 0.1212,0.1514 0.064,0.016 0.1366,0.016 0.1969,-0.014 0.051,-0.026 0.083,-0.098 0.047,-0.1481 -0.032,-0.039 -0.087,-0.045 -0.1328,-0.06 -0.083,-0.023 -0.1702,-0.04 -0.247,-0.081 -0.087,-0.048 -0.1167,-0.1652 -0.076,-0.2527 0.03,-0.068 0.097,-0.1114 0.1677,-0.1269 0.097,-0.023 0.2034,-0.015 0.2937,0.028 0.066,0.03 0.1031,0.099 0.1138,0.1682 0.01,0.017 -0.024,0.01 -0.035,0.014 -0.031,0 -0.061,0.01 -0.092,0.013 -0.01,-0.062 -0.056,-0.1139 -0.1172,-0.1227 -0.059,-0.01 -0.1243,-0.01 -0.1773,0.022 -0.04,0.024 -0.06,0.082 -0.028,0.1201 0.037,0.044 0.099,0.047 0.1495,0.064 0.082,0.024 0.1687,0.041 0.2447,0.083 0.065,0.038 0.095,0.1168 0.085,0.1893 -0.01,0.099 -0.092,0.1787 -0.1855,0.2039 -0.091,0.026 -0.1909,0.023 -0.2814,-0 -0.087,-0.026 -0.1488,-0.1042 -0.1695,-0.1903 -0,-0.012 -0.01,-0.025 -0.01,-0.037 z"
         id="path3051"
         inkscape:connector-curvature="0" />
      <path
         d="m 23.1152,81.418 c -0.076,0.067 -0.1735,0.1139 -0.2767,0.1134 -0.087,0 -0.1845,-0.02 -0.2368,-0.096 -0.066,-0.091 -0.046,-0.2319 0.045,-0.2995 0.085,-0.066 0.1964,-0.064 0.2972,-0.08 0.054,-0.01 0.1085,-0.018 0.1605,-0.035 0,-0.055 0,-0.1248 -0.05,-0.1584 -0.064,-0.041 -0.1455,-0.04 -0.2177,-0.026 -0.057,0.01 -0.098,0.057 -0.1131,0.1105 -8e-4,0.028 -0.016,0.032 -0.039,0.025 -0.033,-0 -0.066,-0.01 -0.099,-0.014 0.015,-0.081 0.06,-0.1619 0.1385,-0.1966 0.1,-0.047 0.2149,-0.051 0.3222,-0.034 0.072,0.013 0.1482,0.052 0.1733,0.125 0.025,0.068 0.016,0.1423 0.018,0.2137 0,0.1182 -0,0.2368 0.01,0.3545 -6e-4,0.031 0.032,0.076 0.027,0.093 -0.044,0 -0.087,0 -0.1311,0 -0.015,-0.03 -0.023,-0.063 -0.026,-0.096 m -0.011,-0.2944 c -0.097,0.039 -0.2037,0.043 -0.3046,0.067 -0.06,0.011 -0.1066,0.072 -0.095,0.1335 0.01,0.062 0.069,0.1006 0.1277,0.1026 0.099,0.011 0.2119,-0.033 0.2528,-0.129 0.022,-0.055 0.018,-0.116 0.019,-0.1744"
         id="path3053"
         inkscape:connector-curvature="0" />
      <path
         d="m 23.474121,81.513954 0,-0.675293 -0.116455,0 0,-0.102539 0.116455,0 0,-0.08276 c 0,-0.05224 0.0046,-0.09106 0.01392,-0.116455 0.0127,-0.03418 0.03491,-0.06177 0.06665,-0.08276 0.03223,-0.02148 0.07715,-0.03223 0.134766,-0.03223 0.03711,1e-6 0.07813,0.0044 0.123047,0.01318 l -0.01977,0.11499 c -0.02735,-0.0049 -0.05322,-0.0073 -0.07764,-0.0073 -0.04004,10e-7 -0.06836,0.0085 -0.08496,0.02564 -0.0166,0.01709 -0.0249,0.04907 -0.0249,0.09595 l 0,0.07178 0.151611,0 0,0.102539 -0.151611,0 0,0.675293 -0.131104,0"
         inkscape:connector-curvature="0"
         id="path3055" />
      <path
         d="m 24.3911,81.2635 c 0.045,0.01 0.091,0.011 0.1362,0.017 -0.026,0.1065 -0.105,0.2011 -0.2117,0.2326 -0.1058,0.031 -0.2257,0.026 -0.324,-0.026 -0.1033,-0.055 -0.1618,-0.1678 -0.1728,-0.2812 -0.013,-0.1284 0,-0.2706 0.091,-0.3714 0.078,-0.093 0.2072,-0.1286 0.3249,-0.1115 0.1296,0.014 0.241,0.1149 0.2755,0.2397 0.019,0.063 0.024,0.1307 0.021,0.1967 -0.1934,0 -0.3867,0 -0.5801,0 0,0.089 0.037,0.1844 0.1164,0.2322 0.089,0.055 0.222,0.042 0.2833,-0.048 0.017,-0.024 0.03,-0.052 0.041,-0.08 m -0.4328,-0.2132 c 0.1447,0 0.2895,0 0.4343,0 -0,-0.069 -0.029,-0.1427 -0.088,-0.184 -0.092,-0.069 -0.2379,-0.046 -0.3023,0.05 -0.028,0.039 -0.041,0.087 -0.044,0.134 z"
         id="path3057"
         inkscape:connector-curvature="0" />
      <path
         d="m 25.1096,81.812 c 0,-0.3586 0,-0.7172 0,-1.0759 0.04,0 0.08,0 0.1201,0 0,0.034 0,0.067 0,0.1011 0.048,-0.071 0.1292,-0.1202 0.2162,-0.1185 0.1138,-0.01 0.2282,0.056 0.2814,0.1572 0.069,0.1301 0.075,0.2899 0.027,0.4281 -0.034,0.1017 -0.1167,0.1858 -0.2205,0.2149 -0.095,0.029 -0.2053,0.01 -0.2742,-0.065 -0.02,-0.032 -0.019,-0.01 -0.018,0.013 0,0.1151 0,0.2302 0,0.3453 -0.044,0 -0.088,0 -0.1319,0 m 0.1194,-0.6827 c -7e-4,0.093 0.017,0.1984 0.097,0.2567 0.075,0.06 0.1925,0.045 0.2533,-0.028 0.071,-0.078 0.075,-0.1928 0.069,-0.2928 -0,-0.088 -0.044,-0.1829 -0.1262,-0.225 -0.072,-0.038 -0.1644,-0.014 -0.2159,0.046 -0.062,0.064 -0.077,0.1572 -0.077,0.2426 z"
         id="path3059"
         inkscape:connector-curvature="0" />
      <path
         d="m 25.94165,81.513954 0,-1.07373 0.131836,0 0,1.07373 -0.131836,0"
         inkscape:connector-curvature="0"
         id="path3061" />
      <path
         d="m 26.7861,81.418 c -0.076,0.067 -0.1735,0.1139 -0.2767,0.1134 -0.087,0 -0.1845,-0.02 -0.2368,-0.096 -0.066,-0.091 -0.046,-0.2319 0.045,-0.2995 0.085,-0.066 0.1964,-0.064 0.2972,-0.08 0.054,-0.01 0.1085,-0.018 0.1605,-0.035 0,-0.055 0,-0.1248 -0.05,-0.1584 -0.064,-0.041 -0.1455,-0.04 -0.2177,-0.026 -0.057,0.01 -0.098,0.057 -0.1131,0.1105 -8e-4,0.028 -0.016,0.032 -0.039,0.025 -0.033,-0 -0.066,-0.01 -0.099,-0.014 0.015,-0.081 0.06,-0.1619 0.1385,-0.1966 0.1,-0.047 0.2149,-0.051 0.3222,-0.034 0.072,0.013 0.1482,0.052 0.1733,0.125 0.025,0.068 0.016,0.1423 0.018,0.2137 0,0.1182 -0,0.2368 0.01,0.3545 -5e-4,0.031 0.033,0.076 0.027,0.093 -0.044,0 -0.087,0 -0.1312,0 -0.015,-0.03 -0.023,-0.063 -0.026,-0.096 m -0.011,-0.2944 c -0.097,0.039 -0.2037,0.043 -0.3046,0.067 -0.06,0.011 -0.1066,0.072 -0.095,0.1335 0.01,0.062 0.069,0.1006 0.1278,0.1026 0.099,0.011 0.2119,-0.033 0.2528,-0.129 0.022,-0.055 0.018,-0.116 0.019,-0.1744"
         id="path3063"
         inkscape:connector-curvature="0" />
      <path
         d="m 27.6211,81.229 c 0.043,0.01 0.086,0.011 0.1296,0.017 -0.014,0.1077 -0.079,0.2112 -0.1801,0.2562 -0.1004,0.044 -0.2216,0.039 -0.3189,-0.011 -0.098,-0.05 -0.156,-0.1542 -0.1708,-0.2605 -0.017,-0.1237 -0.01,-0.2581 0.058,-0.3672 0.068,-0.1082 0.2046,-0.1548 0.3276,-0.1431 0.1013,0.01 0.2013,0.064 0.2441,0.1577 0.01,0.025 0.038,0.072 0.02,0.088 -0.04,0.01 -0.08,0.012 -0.1198,0.018 -0.014,-0.073 -0.068,-0.1446 -0.1455,-0.155 -0.085,-0.015 -0.1775,0.027 -0.2179,0.1044 -0.044,0.086 -0.043,0.1867 -0.032,0.2801 0.01,0.075 0.044,0.1516 0.1138,0.1868 0.084,0.044 0.2042,0.025 0.2556,-0.06 0.021,-0.034 0.032,-0.073 0.037,-0.1118 z"
         id="path3065"
         inkscape:connector-curvature="0" />
      <path
         d="m 28.396,81.2635 c 0.045,0.01 0.091,0.011 0.1362,0.017 -0.026,0.1065 -0.105,0.2012 -0.2117,0.2326 -0.1058,0.031 -0.2257,0.026 -0.324,-0.026 -0.1033,-0.055 -0.1618,-0.1678 -0.1728,-0.2812 -0.013,-0.1284 0,-0.2706 0.091,-0.3714 0.078,-0.093 0.2073,-0.1286 0.325,-0.1115 0.1296,0.014 0.241,0.1149 0.2755,0.2397 0.019,0.063 0.024,0.1307 0.021,0.1967 -0.1934,0 -0.3867,0 -0.5801,0 0,0.089 0.037,0.1844 0.1164,0.2322 0.088,0.055 0.222,0.042 0.2833,-0.048 0.018,-0.024 0.03,-0.052 0.041,-0.08 m -0.4329,-0.2132 c 0.1448,0 0.2896,0 0.4344,0 -0,-0.069 -0.029,-0.1427 -0.088,-0.184 -0.092,-0.069 -0.2379,-0.046 -0.3023,0.05 -0.028,0.039 -0.041,0.087 -0.044,0.134 z"
         id="path3067"
         inkscape:connector-curvature="0" />
      <path
         d="m 16.077393,83.388954 -0.23584,0 -0.09375,-0.243896 -0.429199,0 -0.08862,0.243896 -0.22998,0 0.418213,-1.07373 0.229248,0 0.429932,1.07373 m -0.39917,-0.424805 -0.14795,-0.398437 -0.145019,0.398437 0.292969,0"
         inkscape:connector-curvature="0"
         id="path3069"
         style="font-weight:bold;fill:#553417;-inkscape-font-specification:Abandoned Bitplane Bold" />
      <path
         style="font-weight:bold;-inkscape-font-specification:'Abandoned Bitplane Bold';fill:#553417"
         d="m 16.905,83.389 c -0.064,0 -0.1274,0 -0.1911,0 0,-0.038 0,-0.076 0,-0.1143 -0.071,0.1077 -0.2158,0.1604 -0.3384,0.1167 -0.1262,-0.043 -0.2083,-0.1687 -0.2233,-0.2976 -0.015,-0.1224 -0.01,-0.256 0.059,-0.3626 0.065,-0.1011 0.1916,-0.1542 0.3096,-0.1338 0.07,0.011 0.1323,0.052 0.1779,0.1045 0,-0.1289 0,-0.2578 0,-0.3867 0.069,0 0.1372,0 0.2058,0 0,0.3579 0,0.7158 0,1.0738 z m -0.5493,-0.4058 c 10e-5,0.081 0.01,0.1759 0.077,0.2293 0.067,0.054 0.1761,0.036 0.2231,-0.036 0.052,-0.077 0.048,-0.1753 0.037,-0.263 -0.01,-0.074 -0.06,-0.1493 -0.138,-0.16 -0.085,-0.017 -0.1686,0.047 -0.1872,0.1288 -0.01,0.033 -0.012,0.067 -0.012,0.1013 z"
         id="path3071"
         inkscape:connector-curvature="0" />
      <path
         style="font-weight:bold;-inkscape-font-specification:'Abandoned Bitplane Bold';fill:#553417"
         d="m 17.0933,82.6111 c 0.063,0 0.1264,0 0.1897,0 0,0.035 0,0.071 0,0.1062 0.065,-0.084 0.1716,-0.1368 0.2785,-0.1218 0.077,0.01 0.1478,0.053 0.1836,0.1218 0.063,-0.081 0.1644,-0.1354 0.2685,-0.1225 0.099,0 0.1953,0.073 0.2137,0.1728 0.017,0.095 0.01,0.1923 0.01,0.2885 0,0.1109 0,0.2219 0,0.3329 -0.069,0 -0.1372,0 -0.2058,0 -8e-4,-0.1658 0,-0.3316 -0,-0.4974 -0,-0.049 -0.01,-0.112 -0.062,-0.1322 -0.076,-0.031 -0.167,0.024 -0.1843,0.1022 -0.023,0.098 -0.012,0.1991 -0.015,0.2987 0,0.076 0,0.1525 0,0.2287 -0.069,0 -0.1372,0 -0.2058,0 -8e-4,-0.1667 0,-0.3335 -0,-0.5001 -7e-4,-0.049 -0.01,-0.1134 -0.063,-0.1316 -0.075,-0.025 -0.1663,0.021 -0.1855,0.1 -0.022,0.098 -0.012,0.1993 -0.014,0.299 0,0.078 0,0.1554 0,0.2331 -0.069,0 -0.1372,0 -0.2058,0 0,-0.2593 0,-0.5186 0,-0.7779 z"
         id="path3073"
         inkscape:connector-curvature="0" />
      <path
         d="m 18.44165,82.505653 0,-0.190429 0.205811,0 0,0.190429 -0.205811,0 m 0,0.883301 0,-0.777832 0.205811,0 0,0.777832 -0.205811,0"
         inkscape:connector-curvature="0"
         id="path3075"
         style="font-weight:bold;fill:#553417;-inkscape-font-specification:Abandoned Bitplane Bold" />
      <path
         style="font-weight:bold;-inkscape-font-specification:'Abandoned Bitplane Bold';fill:#553417"
         d="m 19.5652,83.389 c -0.069,0 -0.1372,0 -0.2058,0 -6e-4,-0.1557 0,-0.3114 -0,-0.467 -0,-0.054 -0,-0.1179 -0.055,-0.1505 -0.084,-0.054 -0.2101,0 -0.2292,0.1 -0.018,0.098 -0.01,0.1983 -0.012,0.2975 0,0.073 0,0.1468 0,0.2202 -0.069,0 -0.1372,0 -0.2058,0 0,-0.2593 0,-0.5186 0,-0.7779 0.064,0 0.1274,0 0.1912,0 0,0.038 0,0.076 0,0.1143 0.061,-0.083 0.1609,-0.1371 0.2648,-0.1318 0.089,0 0.1882,0.041 0.2257,0.1278 0.036,0.084 0.026,0.1764 0.027,0.2651 0,0.1342 0,0.2683 0,0.4025"
         id="path3077"
         inkscape:connector-curvature="0" />
      <path
         d="m 19.774658,82.505653 0,-0.190429 0.205811,0 0,0.190429 -0.205811,0 m 0,0.883301 0,-0.777832 0.205811,0 0,0.777832 -0.205811,0"
         inkscape:connector-curvature="0"
         id="path3079"
         style="font-weight:bold;fill:#553417;-inkscape-font-specification:Abandoned Bitplane Bold" />
      <path
         style="font-weight:bold;-inkscape-font-specification:'Abandoned Bitplane Bold';fill:#553417"
         d="m 20.1182,83.167 c 0.069,-0.011 0.1377,-0.021 0.2065,-0.032 0.01,0.059 0.056,0.1103 0.1164,0.118 0.059,0.01 0.1274,0.01 0.1763,-0.03 0.033,-0.028 0.027,-0.092 -0.019,-0.1025 -0.073,-0.023 -0.1487,-0.034 -0.2216,-0.058 -0.075,-0.022 -0.1586,-0.049 -0.2011,-0.1201 -0.053,-0.087 -0.033,-0.2106 0.046,-0.2762 0.079,-0.069 0.191,-0.076 0.2911,-0.072 0.09,0 0.1905,0.023 0.2501,0.097 0.026,0.031 0.044,0.069 0.056,0.1078 -0.065,0.012 -0.1294,0.024 -0.1941,0.036 -0.012,-0.053 -0.063,-0.09 -0.1162,-0.092 -0.051,-0 -0.1084,-0 -0.1523,0.025 -0.035,0.026 -0.014,0.079 0.025,0.086 0.1285,0.049 0.2751,0.051 0.3909,0.1314 0.079,0.058 0.091,0.1751 0.051,0.2592 -0.043,0.088 -0.1357,0.1413 -0.2304,0.1538 -0.1124,0.015 -0.2341,0.011 -0.335,-0.045 -0.069,-0.04 -0.12,-0.1089 -0.1389,-0.1866"
         id="path3081"
         inkscape:connector-curvature="0" />
      <path
         style="font-weight:bold;-inkscape-font-specification:'Abandoned Bitplane Bold';fill:#553417"
         d="m 21.3823,82.6111 c 0,0.055 0,0.1094 0,0.1641 -0.047,0 -0.094,0 -0.1406,0 8e-4,0.1372 -0,0.2746 0,0.4118 0,0.057 0.073,0.055 0.1123,0.038 0.029,-0.02 0.028,0 0.029,0.026 0,0.042 0.01,0.083 0.014,0.125 -0.079,0.032 -0.1697,0.042 -0.2516,0.017 -0.048,-0.015 -0.09,-0.053 -0.1,-0.1036 -0.019,-0.082 -0.011,-0.1676 -0.013,-0.2514 0,-0.087 0,-0.1749 0,-0.2623 -0.032,0 -0.063,0 -0.095,0 0,-0.055 0,-0.1094 0,-0.1641 0.032,0 0.063,0 0.095,0 0,-0.051 0,-0.103 0,-0.1545 0.069,-0.04 0.1377,-0.08 0.2065,-0.1201 0,0.091 0,0.1831 0,0.2746 0.047,0 0.094,0 0.1407,0"
         id="path3083"
         inkscape:connector-curvature="0" />
      <path
         style="font-weight:bold;-inkscape-font-specification:'Abandoned Bitplane Bold';fill:#553417"
         d="m 21.7236,83.389 c -0.069,0 -0.1372,0 -0.2058,0 0,-0.2593 0,-0.5186 0,-0.7779 0.064,0 0.1275,0 0.1912,0 0,0.037 0,0.074 0,0.1106 0.034,-0.053 0.075,-0.1132 0.1413,-0.1247 0.059,-0.011 0.1206,0 0.1714,0.035 -0.021,0.06 -0.042,0.1196 -0.064,0.1794 -0.048,-0.034 -0.12,-0.05 -0.1699,-0.01 -0.048,0.043 -0.055,0.113 -0.06,0.174 -0.01,0.137 -0,0.2744 -0,0.4116 l 0,0 z"
         id="path3085"
         inkscape:connector-curvature="0" />
      <path
         style="font-weight:bold;-inkscape-font-specification:'Abandoned Bitplane Bold';fill:#553417"
         d="m 22.2634,82.8484 c -0.062,-0.011 -0.1245,-0.022 -0.1867,-0.034 0.022,-0.087 0.081,-0.1703 0.1701,-0.1978 0.096,-0.031 0.2005,-0.028 0.2994,-0.013 0.08,0.014 0.1663,0.064 0.1828,0.1495 0.019,0.095 0.01,0.1921 0.011,0.2882 5e-4,0.089 -0.01,0.1804 0.015,0.2679 0,0.025 0.034,0.066 0.025,0.079 -0.066,0 -0.1314,0 -0.1971,0 -0.014,-0.022 -0.015,-0.08 -0.034,-0.079 -0.076,0.075 -0.1864,0.1099 -0.2912,0.092 -0.092,-0.01 -0.178,-0.079 -0.1962,-0.1725 -0.021,-0.091 0.015,-0.1969 0.1002,-0.2425 0.1177,-0.061 0.2556,-0.057 0.3777,-0.106 0,-0.043 -0,-0.097 -0.047,-0.116 -0.049,-0.018 -0.1065,-0.02 -0.1568,-0 -0.038,0.014 -0.059,0.051 -0.071,0.087 z m 0.2754,0.167 c -0.075,0.026 -0.1567,0.031 -0.2298,0.063 -0.046,0.022 -0.061,0.084 -0.035,0.1263 0.029,0.055 0.1013,0.069 0.1561,0.048 0.056,-0.018 0.1053,-0.066 0.1064,-0.1277 0,-0.036 0,-0.073 0,-0.1092"
         id="path3087"
         inkscape:connector-curvature="0" />
      <path
         style="font-weight:bold;-inkscape-font-specification:'Abandoned Bitplane Bold';fill:#553417"
         d="m 23.3013,82.6111 c 0,0.055 0,0.1094 0,0.1641 -0.047,0 -0.094,0 -0.1407,0 8e-4,0.1372 -0,0.2746 0,0.4118 0,0.057 0.073,0.055 0.1124,0.038 0.029,-0.02 0.028,0 0.029,0.026 0,0.042 0.01,0.083 0.014,0.125 -0.079,0.032 -0.1697,0.042 -0.2516,0.017 -0.048,-0.015 -0.09,-0.053 -0.1,-0.1036 -0.019,-0.082 -0.011,-0.1676 -0.013,-0.2514 0,-0.087 0,-0.1749 0,-0.2623 -0.032,0 -0.063,0 -0.095,0 0,-0.055 0,-0.1094 0,-0.1641 0.032,0 0.063,0 0.095,0 0,-0.051 0,-0.103 0,-0.1545 0.069,-0.04 0.1377,-0.08 0.2066,-0.1201 0,0.091 0,0.1831 0,0.2746 0.047,0 0.094,0 0.1406,0"
         id="path3089"
         inkscape:connector-curvature="0" />
      <path
         style="font-weight:bold;-inkscape-font-specification:'Abandoned Bitplane Bold';fill:#553417"
         d="m 23.3979,82.9891 c 2e-4,-0.1458 0.08,-0.2969 0.217,-0.3569 0.1188,-0.053 0.2628,-0.053 0.3794,0.01 0.1205,0.062 0.2001,0.1919 0.2054,0.3271 0.01,0.1228 -0.032,0.2516 -0.124,0.3358 -0.1219,0.119 -0.3179,0.1331 -0.4678,0.063 -0.1027,-0.044 -0.1759,-0.1423 -0.1973,-0.251 -0.01,-0.041 -0.013,-0.082 -0.013,-0.124 z M 23.6089,83 c -0,0.081 0.025,0.172 0.1,0.2148 0.078,0.047 0.1886,0.023 0.2384,-0.054 0.047,-0.072 0.049,-0.1647 0.033,-0.2466 -0.017,-0.084 -0.092,-0.1563 -0.1806,-0.1531 -0.091,-0 -0.168,0.073 -0.1827,0.1596 -0.01,0.026 -0.01,0.053 -0.01,0.079 z"
         id="path3091"
         inkscape:connector-curvature="0" />
      <path
         style="font-weight:bold;-inkscape-font-specification:'Abandoned Bitplane Bold';fill:#553417"
         d="m 24.5596,83.389 c -0.069,0 -0.1372,0 -0.2058,0 0,-0.2593 0,-0.5186 0,-0.7779 0.064,0 0.1274,0 0.1911,0 0,0.037 0,0.074 0,0.1106 0.034,-0.053 0.075,-0.1132 0.1414,-0.1247 0.059,-0.011 0.1206,0 0.1714,0.035 -0.021,0.06 -0.043,0.1196 -0.064,0.1794 -0.049,-0.034 -0.1199,-0.05 -0.1699,-0.01 -0.048,0.043 -0.055,0.113 -0.06,0.174 -0.01,0.137 -0,0.2744 -0,0.4116 l 0,0 z"
         id="path3093"
         inkscape:connector-curvature="0" />
      <path
         style="font-weight:bold;-inkscape-font-specification:'Abandoned Bitplane Bold';fill:#553417"
         d="m 24.873,83.167 c 0.069,-0.011 0.1377,-0.021 0.2066,-0.032 0.01,0.059 0.056,0.1103 0.1164,0.118 0.059,0.01 0.1274,0.01 0.1763,-0.03 0.033,-0.028 0.027,-0.092 -0.019,-0.1025 -0.073,-0.023 -0.1488,-0.034 -0.2216,-0.058 -0.075,-0.022 -0.1587,-0.049 -0.2011,-0.1201 -0.053,-0.087 -0.033,-0.2106 0.046,-0.2762 0.079,-0.069 0.1909,-0.076 0.2911,-0.072 0.09,0 0.1905,0.023 0.2501,0.097 0.026,0.031 0.044,0.069 0.055,0.1078 -0.065,0.012 -0.1294,0.024 -0.1941,0.036 -0.012,-0.053 -0.063,-0.09 -0.1161,-0.092 -0.051,-0 -0.1084,-0 -0.1523,0.025 -0.035,0.026 -0.014,0.079 0.025,0.086 0.1285,0.049 0.2751,0.051 0.3909,0.1314 0.079,0.058 0.091,0.1751 0.051,0.2592 -0.043,0.088 -0.1356,0.1413 -0.2303,0.1538 -0.1124,0.015 -0.2341,0.011 -0.335,-0.045 -0.069,-0.04 -0.12,-0.1089 -0.1389,-0.1866"
         id="path3095"
         inkscape:connector-curvature="0" />
      <path
         style="font-weight:bold;-inkscape-font-specification:'Abandoned Bitplane Bold';fill:#553417"
         d="m 26.1489,82.9891 c 2e-4,-0.1458 0.08,-0.2969 0.217,-0.3569 0.1187,-0.053 0.2628,-0.053 0.3794,0.01 0.1204,0.062 0.2001,0.1919 0.2054,0.3271 0.01,0.1228 -0.032,0.2516 -0.1241,0.3358 -0.1218,0.119 -0.3178,0.1331 -0.4677,0.063 -0.1027,-0.044 -0.1759,-0.1423 -0.1973,-0.251 -0.01,-0.041 -0.013,-0.082 -0.013,-0.124 z M 26.3599,83 c -0,0.081 0.025,0.172 0.1,0.2148 0.078,0.047 0.1886,0.023 0.2383,-0.054 0.047,-0.072 0.049,-0.1647 0.033,-0.2466 -0.017,-0.084 -0.092,-0.1563 -0.1806,-0.1531 -0.091,-0 -0.168,0.073 -0.1827,0.1596 -0.01,0.026 -0.01,0.053 -0.01,0.079 z"
         id="path3097"
         inkscape:connector-curvature="0" />
      <path
         style="font-weight:bold;-inkscape-font-specification:'Abandoned Bitplane Bold';fill:#553417"
         d="m 27.821,83.389 c -0.069,0 -0.1372,0 -0.2058,0 -6e-4,-0.1557 0,-0.3114 -0,-0.467 -0,-0.054 -0,-0.1179 -0.055,-0.1505 -0.084,-0.054 -0.2101,0 -0.2291,0.1 -0.018,0.098 -0.01,0.1983 -0.012,0.2975 0,0.073 0,0.1468 0,0.2202 -0.069,0 -0.1372,0 -0.2058,0 0,-0.2593 0,-0.5186 0,-0.7779 0.064,0 0.1274,0 0.1911,0 0,0.038 0,0.076 0,0.1143 0.061,-0.083 0.161,-0.1371 0.2648,-0.1318 0.089,0 0.1882,0.041 0.2258,0.1278 0.036,0.084 0.025,0.1764 0.027,0.2651 0,0.1342 0,0.2683 0,0.4025"
         id="path3099"
         inkscape:connector-curvature="0" />
      <path
         d="m 28.030518,83.388954 0,-1.07373 0.20581,0 0,1.07373 -0.20581,0"
         inkscape:connector-curvature="0"
         id="path3101"
         style="font-weight:bold;fill:#553417;-inkscape-font-specification:Abandoned Bitplane Bold" />
      <path
         style="font-weight:bold;-inkscape-font-specification:'Abandoned Bitplane Bold';fill:#553417"
         d="m 28.3491,82.6111 c 0.073,0 0.146,0 0.219,0 0.062,0.1841 0.124,0.3682 0.186,0.5523 0.061,-0.1841 0.1211,-0.3682 0.1817,-0.5523 0.071,0 0.1421,0 0.2131,0 -0.1103,0.3002 -0.2201,0.6005 -0.3304,0.9006 -0.029,0.076 -0.08,0.1525 -0.163,0.1754 -0.077,0.024 -0.1601,0.021 -0.2383,0.01 -0.01,-0.054 -0.012,-0.1074 -0.018,-0.1612 0.064,0.012 0.1461,0.023 0.1934,-0.033 0.024,-0.033 0.051,-0.074 0.05,-0.1146 -0.098,-0.2574 -0.1953,-0.5149 -0.293,-0.7724"
         id="path3103"
         inkscape:connector-curvature="0" />
    </g>
    <g
       id="text3762"
       style="font-size:1.5px;font-style:normal;font-variant:normal;font-weight:bold;font-stretch:normal;text-align:start;line-height:125%;writing-mode:lr-tb;text-anchor:start;fill:#553417;fill-opacity:1;stroke:none;display:inline;font-family:Arial Black;-inkscape-font-specification:'Arial Black, Bold'">
      <path
         d="m 15.052,78.1587 c 0.1052,-0.01 0.2105,-0.013 0.3157,-0.02 0.01,0.074 0.046,0.1525 0.123,0.1732 0.07,0.02 0.1661,0.012 0.2035,-0.06 0.03,-0.056 -0.012,-0.1221 -0.068,-0.1403 -0.1025,-0.041 -0.2149,-0.049 -0.3158,-0.095 -0.098,-0.038 -0.1926,-0.112 -0.2123,-0.2203 -0.029,-0.1262 0.042,-0.2624 0.1573,-0.3181 0.1159,-0.059 0.2513,-0.061 0.3785,-0.053 0.119,0.01 0.2503,0.053 0.3105,0.1646 0.023,0.044 0.05,0.1103 0.041,0.1521 -0.1023,0.01 -0.2046,0.012 -0.3069,0.018 -0.01,-0.062 -0.049,-0.1242 -0.1142,-0.1338 -0.056,-0.011 -0.1357,-0.01 -0.1607,0.055 -0.021,0.05 0.031,0.088 0.075,0.096 0.1431,0.037 0.2966,0.058 0.4221,0.1414 0.1155,0.075 0.1527,0.2311 0.1082,0.3566 -0.041,0.1249 -0.1565,0.2141 -0.2832,0.2392 -0.1294,0.026 -0.2652,0.023 -0.3939,-0.01 -0.089,-0.019 -0.1705,-0.074 -0.2166,-0.1538 -0.037,-0.059 -0.057,-0.1276 -0.062,-0.1966"
         id="path3106"
         inkscape:connector-curvature="0" />
      <path
         d="m 16.1375,78.1272 c -0,-0.1192 0.049,-0.239 0.1433,-0.3136 0.1133,-0.093 0.2706,-0.108 0.4109,-0.087 0.1187,0.017 0.2321,0.085 0.2897,0.1924 0.062,0.1139 0.066,0.2568 0.016,0.3759 -0.051,0.119 -0.1658,0.2033 -0.2921,0.2251 -0.1389,0.024 -0.2938,0.013 -0.4109,-0.072 -0.094,-0.068 -0.1534,-0.1807 -0.1563,-0.2971 -4e-4,-0.01 -5e-4,-0.016 -5e-4,-0.024 z m 0.2988,-7e-4 c -10e-4,0.07 0.016,0.1524 0.083,0.1879 0.066,0.037 0.1579,0.01 0.1887,-0.062 0.028,-0.065 0.029,-0.1392 0.016,-0.2077 -0.012,-0.071 -0.079,-0.1317 -0.153,-0.1207 -0.075,0.01 -0.1252,0.078 -0.1309,0.1486 -0,0.018 -0,0.036 -0,0.053 z"
         id="path3108"
         inkscape:connector-curvature="0" />
      <path
         d="m 17.5078,77.7361 c 0.047,0 0.095,0 0.1421,0 0,0.073 0,0.1455 0,0.2183 -0.047,0 -0.095,0 -0.1421,0 0,0.1865 0,0.373 0,0.5596 -0.1,0 -0.1992,0 -0.2988,0 0,-0.1866 0,-0.3731 0,-0.5596 -0.037,0 -0.074,0 -0.1113,0 0,-0.073 0,-0.1455 0,-0.2183 0.037,0 0.074,0 0.1113,0 10e-5,-0.076 0,-0.1571 0.042,-0.2236 0.049,-0.072 0.1414,-0.091 0.2232,-0.091 0.08,-6e-4 0.1602,0.01 0.2398,0.018 -0.011,0.06 -0.022,0.1201 -0.033,0.1802 -0.047,-0.01 -0.1008,-0.02 -0.1443,0.01 -0.033,0.026 -0.027,0.073 -0.029,0.1106"
         id="path3110"
         inkscape:connector-curvature="0" />
      <path
         d="m 18.1187,77.4402 c 0,0.099 0,0.1973 0,0.2959 0.055,0 0.1093,0 0.164,0 0,0.073 0,0.145 0,0.2176 -0.055,0 -0.1094,0 -0.164,0 7e-4,0.1029 -0,0.2058 0,0.3087 -0,0.054 0.058,0.068 0.099,0.053 0.026,-0 0.062,-0.029 0.056,0.013 0.01,0.06 0.013,0.1192 0.019,0.1788 -0.1085,0.022 -0.2228,0.036 -0.3319,0.011 -0.076,-0.018 -0.1271,-0.091 -0.1341,-0.1665 -0.013,-0.1001 -0.01,-0.2014 -0.01,-0.3021 0,-0.032 0,-0.064 0,-0.096 -0.037,0 -0.073,0 -0.1099,0 0,-0.073 0,-0.1451 0,-0.2176 0.037,0 0.073,0 0.1099,0 0,-0.048 0,-0.095 0,-0.1428 0.1,-0.051 0.1992,-0.102 0.2988,-0.1531"
         id="path3112"
         inkscape:connector-curvature="0" />
      <path
         d="m 18.336182,77.736122 0.288574,0 0.125244,0.48999 0.158203,-0.48999 0.268799,0 0.164062,0.48999 0.125245,-0.48999 0.286377,0 -0.286377,0.777832 -0.265137,0 -0.157471,-0.468017 -0.152344,0.468017 -0.266601,0 -0.288574,-0.777832"
         inkscape:connector-curvature="0"
         id="path3114" />
      <path
         d="m 20.0933,77.9881 c -0.095,-0.01 -0.19,-0.02 -0.2849,-0.03 0.013,-0.072 0.049,-0.1421 0.1135,-0.1796 0.081,-0.051 0.1802,-0.056 0.273,-0.06 0.099,0 0.2024,-10e-4 0.2968,0.035 0.067,0.025 0.1164,0.084 0.1348,0.1518 0.025,0.074 0.014,0.152 0.017,0.2282 0,0.092 -0,0.1834 0,0.2748 -0.01,0.035 0.035,0.086 0.027,0.1061 -0.091,0 -0.1817,0 -0.2725,0 -0.021,-0.025 -0.025,-0.076 -0.036,-0.092 -0.062,0.063 -0.1464,0.099 -0.2337,0.1062 -0.099,0.01 -0.214,0 -0.2874,-0.074 -0.09,-0.088 -0.077,-0.2607 0.034,-0.3251 0.092,-0.053 0.2012,-0.058 0.3022,-0.084 0.059,-0.012 0.1161,-0.029 0.1716,-0.051 0,-0.044 -0.02,-0.096 -0.07,-0.097 -0.053,-0 -0.1141,-0 -0.1558,0.032 -0.016,0.016 -0.025,0.037 -0.033,0.058 m 0.2585,0.1567 c -0.076,0.031 -0.1597,0.038 -0.2317,0.078 -0.052,0.029 -0.047,0.1151 0.01,0.135 0.076,0.026 0.1733,-0.01 0.208,-0.083 0.017,-0.041 0.013,-0.086 0.014,-0.1294 z"
         id="path3116"
         inkscape:connector-curvature="0" />
      <path
         d="m 20.8264,77.7361 c 0.093,0 0.1861,0 0.2791,0 0,0.043 0,0.085 0,0.1275 0.029,-0.059 0.069,-0.1237 0.1376,-0.139 0.067,-0.017 0.1363,0 0.1956,0.035 -0.031,0.071 -0.062,0.1416 -0.092,0.2124 -0.047,-0.021 -0.1081,-0.036 -0.1516,8e-4 -0.051,0.046 -0.058,0.1204 -0.065,0.1848 -0.01,0.099 -0,0.1989 -0,0.2984 0,0.019 0,0.039 0,0.058 -0.1,0 -0.1997,0 -0.2996,0 0,-0.2593 0,-0.5186 0,-0.7779"
         id="path3118"
         inkscape:connector-curvature="0" />
      <path
         d="m 22.3755,78.199 c -0.1992,0 -0.3984,0 -0.5977,0 0,0.061 0.035,0.1262 0.096,0.1478 0.068,0.026 0.1508,-4e-4 0.1913,-0.061 0.098,0.01 0.1958,0.018 0.2937,0.027 -0.053,0.097 -0.1421,0.18 -0.2536,0.2012 -0.1123,0.023 -0.2298,0.025 -0.3424,0 -0.1498,-0.028 -0.2624,-0.1652 -0.2823,-0.3129 -0.02,-0.1318 0.01,-0.2785 0.1108,-0.372 0.092,-0.091 0.2281,-0.1181 0.3537,-0.1124 0.1157,0 0.2404,0.029 0.3226,0.1166 0.094,0.095 0.1112,0.2357 0.1081,0.3634 m -0.3032,-0.1428 c -0,-0.062 -0.03,-0.135 -0.097,-0.154 -0.065,-0.022 -0.1448,0.01 -0.175,0.069 -0.01,0.022 -0.038,0.08 -0.01,0.085 0.094,0 0.1877,0 0.2816,0 z"
         id="path3120"
         inkscape:connector-curvature="0" />
      <path
         d="m 23.0171,77.7361 c 0.093,0 0.1855,0 0.2783,0 0,0.038 0,0.076 0,0.1135 0.058,-0.073 0.1422,-0.128 0.2373,-0.13 0.086,-0.01 0.185,0.011 0.2387,0.086 0.019,0.028 0.03,0.059 0.055,0.017 0.058,-0.062 0.1381,-0.1042 0.2242,-0.1038 0.097,-0.01 0.2055,0.031 0.2504,0.1225 0.051,0.1022 0.033,0.2188 0.036,0.3288 0,0.1146 0,0.2291 0,0.3437 -0.1,0 -0.1992,0 -0.2988,0 -8e-4,-0.156 0,-0.312 -0,-0.4678 -0,-0.064 -0.071,-0.1122 -0.1306,-0.089 -0.072,0.022 -0.083,0.1062 -0.08,0.1704 0,0.1287 0,0.2573 0,0.386 -0.1,0 -0.1992,0 -0.2989,0 -8e-4,-0.1572 0,-0.3144 -0,-0.4715 0,-0.064 -0.07,-0.1099 -0.1282,-0.086 -0.072,0.023 -0.084,0.1081 -0.081,0.1731 0,0.1282 0,0.2565 0,0.3847 -0.1,0 -0.1993,0 -0.2989,0 0,-0.2593 0,-0.5186 0,-0.7779"
         id="path3122"
         inkscape:connector-curvature="0" />
      <path
         d="m 24.7866,77.9881 c -0.095,-0.01 -0.1899,-0.02 -0.2849,-0.03 0.013,-0.072 0.049,-0.1421 0.1135,-0.1796 0.081,-0.051 0.1802,-0.056 0.2731,-0.06 0.099,0 0.2024,-10e-4 0.2968,0.035 0.067,0.025 0.1163,0.084 0.1347,0.1518 0.026,0.074 0.014,0.152 0.017,0.2282 0,0.092 -0,0.1834 0,0.2748 -0.01,0.035 0.035,0.086 0.028,0.1061 -0.091,0 -0.1817,0 -0.2726,0 -0.021,-0.025 -0.025,-0.076 -0.036,-0.092 -0.062,0.063 -0.1464,0.099 -0.2337,0.1062 -0.099,0.01 -0.214,0 -0.2875,-0.074 -0.09,-0.088 -0.077,-0.2607 0.034,-0.3251 0.092,-0.053 0.2011,-0.058 0.3022,-0.084 0.059,-0.012 0.1161,-0.029 0.1716,-0.051 0,-0.044 -0.02,-0.096 -0.07,-0.097 -0.053,-0 -0.1141,-0 -0.1558,0.032 -0.016,0.016 -0.025,0.037 -0.033,0.058 m 0.2586,0.1567 c -0.076,0.031 -0.1597,0.038 -0.2318,0.078 -0.052,0.029 -0.047,0.1151 0.01,0.135 0.076,0.026 0.1733,-0.01 0.208,-0.083 0.018,-0.041 0.014,-0.086 0.014,-0.1294 z"
         id="path3124"
         inkscape:connector-curvature="0" />
      <path
         d="m 25.5168,77.7361 c 0.093,0 0.1851,0 0.2776,0 0,0.042 0,0.085 0,0.1267 0.056,-0.072 0.1336,-0.1326 0.2268,-0.141 0.091,-0.012 0.1955,0.01 0.2564,0.08 0.062,0.075 0.063,0.1773 0.062,0.2702 0,0.1473 0,0.2945 0,0.4418 -0.1,0 -0.1998,0 -0.2996,0 -3e-4,-0.1485 5e-4,-0.297 -4e-4,-0.4454 3e-4,-0.046 -0.02,-0.1004 -0.069,-0.1121 -0.058,-0.018 -0.1271,0.016 -0.1421,0.077 -0.02,0.072 -0.011,0.1478 -0.013,0.2218 0,0.086 0,0.1727 0,0.2591 -0.099,0 -0.1987,0 -0.2981,0 0,-0.2593 0,-0.5186 0,-0.7779"
         id="path3126"
         inkscape:connector-curvature="0" />
      <path
         d="m 26.7905,77.9881 c -0.095,-0.01 -0.1899,-0.02 -0.2849,-0.03 0.013,-0.072 0.049,-0.1421 0.1135,-0.1796 0.081,-0.051 0.1802,-0.056 0.2731,-0.06 0.099,0 0.2024,-10e-4 0.2968,0.035 0.067,0.025 0.1163,0.084 0.1348,0.1518 0.025,0.074 0.014,0.152 0.017,0.2282 0,0.092 -0,0.1834 0,0.2748 -0,0.035 0.035,0.086 0.028,0.1061 -0.091,0 -0.1817,0 -0.2726,0 -0.021,-0.025 -0.025,-0.076 -0.036,-0.092 -0.062,0.063 -0.1464,0.099 -0.2337,0.1062 -0.099,0.01 -0.214,0 -0.2875,-0.074 -0.09,-0.088 -0.077,-0.2607 0.034,-0.3251 0.092,-0.053 0.2012,-0.058 0.3022,-0.084 0.059,-0.012 0.1161,-0.029 0.1716,-0.051 0,-0.044 -0.02,-0.096 -0.07,-0.097 -0.053,-0 -0.1141,-0 -0.1558,0.032 -0.016,0.016 -0.025,0.037 -0.033,0.058 m 0.2586,0.1567 c -0.076,0.031 -0.1597,0.038 -0.2318,0.078 -0.052,0.029 -0.047,0.1151 0.01,0.135 0.076,0.026 0.1733,-0.01 0.208,-0.083 0.018,-0.041 0.014,-0.086 0.014,-0.1294 z"
         id="path3128"
         inkscape:connector-curvature="0" />
      <path
         d="m 28.0854,77.7361 c 0.093,0 0.1861,0 0.2791,0 10e-5,0.2624 -3e-4,0.5249 2e-4,0.7873 -0.01,0.1221 -0.086,0.2429 -0.2067,0.2773 -0.1248,0.037 -0.2581,0.035 -0.386,0.017 -0.085,-0.011 -0.1748,-0.049 -0.2156,-0.1293 -0.026,-0.048 -0.031,-0.1038 -0.026,-0.1572 0.096,0.011 0.1929,0.022 0.2893,0.033 0.01,0.058 0.072,0.082 0.1244,0.078 0.05,0 0.1027,-0.029 0.1122,-0.082 0.014,-0.063 0.01,-0.1272 0.01,-0.1908 -0.098,0.1306 -0.3086,0.1507 -0.4299,0.042 -0.096,-0.081 -0.1309,-0.2113 -0.1267,-0.3327 -4e-4,-0.1145 0.036,-0.2401 0.1351,-0.3073 0.091,-0.063 0.2151,-0.068 0.3169,-0.03 0.052,0.02 0.097,0.072 0.1258,0.1062 0,-0.037 0,-0.075 0,-0.1122 m -0.2805,0.3772 c -0,0.064 0.021,0.1412 0.09,0.1599 0.064,0.022 0.1404,-0.016 0.1598,-0.081 0.021,-0.075 0.02,-0.1718 -0.043,-0.2272 -0.057,-0.053 -0.1646,-0.034 -0.1905,0.043 -0.013,0.034 -0.016,0.07 -0.016,0.1059 z"
         id="path3130"
         inkscape:connector-curvature="0" />
      <path
         d="m 29.4097,78.199 c -0.1993,0 -0.3985,0 -0.5977,0 0,0.061 0.035,0.1262 0.096,0.1478 0.068,0.026 0.1508,-4e-4 0.1913,-0.061 0.098,0.01 0.1958,0.018 0.2937,0.027 -0.053,0.097 -0.1421,0.18 -0.2536,0.2012 -0.1123,0.023 -0.2299,0.025 -0.3424,0 -0.1499,-0.028 -0.2624,-0.1652 -0.2824,-0.3129 -0.02,-0.1317 0.01,-0.2785 0.1108,-0.372 0.093,-0.091 0.2282,-0.1181 0.3537,-0.1124 0.1158,0 0.2405,0.029 0.3227,0.1166 0.094,0.095 0.1112,0.2357 0.1081,0.3634 m -0.3033,-0.1428 c -0,-0.062 -0.03,-0.135 -0.097,-0.154 -0.065,-0.022 -0.1449,0.01 -0.175,0.069 -0.01,0.022 -0.038,0.08 -0.01,0.085 0.094,0 0.1877,0 0.2816,0 z"
         id="path3132"
         inkscape:connector-curvature="0" />
      <path
         d="m 29.551,77.7361 c 0.093,0 0.1861,0 0.2791,0 0,0.043 0,0.085 0,0.1275 0.029,-0.059 0.069,-0.1237 0.1376,-0.139 0.067,-0.017 0.1364,0 0.1956,0.035 -0.031,0.071 -0.061,0.1416 -0.092,0.2124 -0.047,-0.021 -0.1081,-0.036 -0.1516,8e-4 -0.051,0.046 -0.058,0.1204 -0.065,0.1848 -0.01,0.099 -0,0.1989 -0,0.2984 0,0.019 0,0.039 0,0.058 -0.1,0 -0.1997,0 -0.2996,0 0,-0.2593 0,-0.5186 0,-0.7779"
         id="path3134"
         inkscape:connector-curvature="0" />
    </g>
  </g>
  <g
     id="layer4"
     style="display:none">
    <rect
       width="30"
       height="30"
       rx="2.8125"
       ry="2.8125"
       x="-86"
       y="56"
       transform="matrix(0,-1,1,0,0,4)"
       id="rect3790"
       style="opacity:0.6;fill:#000000;fill-opacity:1;stroke:none;filter:url(#filter3806)" />
    <rect
       width="30"
       height="30"
       rx="2.8125"
       ry="2.8125"
       x="-88"
       y="56"
       transform="matrix(0,-1,1,0,0,0)"
       id="rect2993"
       style="fill:url(#linearGradient3773);fill-opacity:1;stroke:none" />
    <path
       d="M 58.8125,58 C 57.254375,58 56,59.254375 56,60.8125 l 0,24.375 c 0,0.873066 0.410816,1.641163 1.03125,2.15625 C 57.02841,87.289908 57,87.242129 57,87.1875 l 0,-24.375 C 57,61.254375 58.17075,60 59.625,60 l 22.75,0 C 83.82925,60 85,61.254375 85,62.8125 l 0,24.375 c 0,0.05463 -0.02841,0.102408 -0.03125,0.15625 C 85.589184,86.828663 86,86.060566 86,85.1875 l 0,-24.375 C 86,59.254375 84.745625,58 83.1875,58 l -24.375,0 z"
       inkscape:connector-curvature="0"
       id="rect3775"
       style="opacity:0.5;fill:url(#linearGradient3788);fill-opacity:1;stroke:none" />
    <path
       d="m 116,63.5 0,8.75 -5,0 10,13.75 10,-13.75 -5,0 0,-8.75 -10,0 z"
       inkscape:connector-curvature="0"
       transform="translate(-50,0)"
       clip-path="url(#clipPath3823)"
       id="path3810"
       style="opacity:0.6;fill:url(#linearGradient3812);fill-opacity:1;fill-rule:nonzero;stroke:none;display:inline;filter:url(#filter3831)" />
    <path
       d="m 66,62.5 0,8.75 -5,0 10,13.75 10,-13.75 -5,0 0,-8.75 -10,0 z"
       inkscape:connector-curvature="0"
       id="path4278"
       style="fill:url(#linearGradient3832);fill-opacity:1;fill-rule:nonzero;stroke:none;display:inline" />
  </g>
  <g
     id="layer6">
    <path
       d="m 68,116 c -11.060103,0 -20,8.93989 -20,20 0,11.06011 8.939897,20 20,20 11.060103,0 20,-8.93989 20,-20 0,-11.06011 -8.939897,-20 -20,-20 z"
       transform="translate(0,-61)"
       id="path3950"
       style="opacity:0.05;fill:#000000;fill-opacity:1;stroke:none;display:inline" />
    <path
       d="m 68,117 c -10.515528,0 -19,8.48447 -19,19 0,10.51553 8.484472,19 19,19 10.515528,0 19,-8.48447 19,-19 0,-10.51553 -8.484472,-19 -19,-19 z"
       transform="translate(0,-61)"
       id="path3946"
       style="opacity:0.15;fill:#000000;fill-opacity:1;stroke:none;display:inline" />
    <rect
       width="36"
       height="36"
       rx="18"
       ry="18"
       x="50"
       y="118"
       transform="translate(0,-61)"
       clip-path="url(#clipPath3871-0)"
       id="rect3859"
       style="opacity:0.31000001;fill:#000000;fill-opacity:1;stroke:none;display:inline" />
    <path
       d="m 90.714283,72.785713 a 19.642857,19.642857 0 1 1 -39.285713,0 19.642857,19.642857 0 1 1 39.285713,0 z"
       transform="matrix(0,-0.91636366,0.91636366,0,1.3018175,139.12727)"
       id="path3836"
       style="fill:url(#linearGradient3844);fill-opacity:1;stroke:none" />
    <path
       d="m 121.8125,60.03125 a 0.92847237,0.92847237 0 0 0 -0.125,0.03125 c 0.0117,-0.0026 -0.13641,0.03484 -0.125,0.03125 0.0114,-0.0036 -0.13605,0.03582 -0.125,0.03125 0.011,-0.0046 -0.13561,0.06802 -0.125,0.0625 0.0106,-0.0055 -0.10383,0.06893 -0.0937,0.0625 0.0101,-0.0064 -0.13448,0.06979 -0.125,0.0625 0.009,-0.0073 -0.10256,0.101837 -0.0937,0.09375 0.009,-0.0081 -0.10182,0.102577 -0.0937,0.09375 0.008,-0.0088 -0.0698,0.103248 -0.0625,0.09375 0.007,-0.0095 -0.10015,0.103847 -0.0937,0.09375 0.006,-0.0101 -0.068,0.135619 -0.0625,0.125 0.005,-0.01062 -0.0358,0.136059 -0.0312,0.125 0.005,-0.01106 -0.0661,0.105164 -0.0625,0.09375 0.004,-0.01141 -0.0338,0.136682 -0.0312,0.125 0.003,-0.01168 -0.002,0.13686 0,0.125 0.002,-0.01186 -0.0317,0.136948 -0.0312,0.125 3.6e-4,-0.009 5e-5,0.057 0,0.09375 -2e-5,0.01225 1.4e-4,0.03424 0,0.03125 l 0,12.25 -3.53125,0 c 0.01,3.6e-5 -0.10334,6.39e-4 -0.0937,0 0.01,-6.39e-4 -0.10327,0.03256 -0.0937,0.03125 0.01,-0.0013 -0.1344,0.002 -0.125,0 0.009,-0.002 -0.10299,0.03388 -0.0937,0.03125 0.009,-0.0026 -0.10278,0.03453 -0.0937,0.03125 0.009,-0.0033 -0.10253,0.03515 -0.0937,0.03125 0.009,-0.0039 -0.10223,0.06701 -0.0937,0.0625 0.008,-0.0045 -0.1019,0.03635 -0.0937,0.03125 0.008,-0.0051 -0.0703,0.06816 -0.0625,0.0625 0.008,-0.0057 -0.1011,0.06869 -0.0937,0.0625 0.007,-0.0062 -0.0694,0.06919 -0.0625,0.0625 0.007,-0.0067 -0.10016,0.100909 -0.0937,0.09375 0.006,-0.0072 -0.0684,0.07009 -0.0625,0.0625 0.006,-0.0076 -0.0678,0.101737 -0.0625,0.09375 0.005,-0.008 -0.036,0.102093 -0.0312,0.09375 0.005,-0.0083 -0.0667,0.102407 -0.0625,0.09375 0.004,-0.0087 -0.0348,0.07143 -0.0312,0.0625 0.004,-0.0089 -0.0342,0.134156 -0.0312,0.125 0.003,-0.0092 -0.0335,0.103088 -0.0312,0.09375 0.002,-0.0093 -0.0328,0.103224 -0.0312,0.09375 0.002,-0.0095 -9.3e-4,0.103313 0,0.09375 9.3e-4,-0.0096 -2.5e-4,0.103355 0,0.09375 2.5e-4,-0.0096 4.2e-4,0.134599 0,0.125 -4.2e-4,-0.0096 0.001,0.103296 0,0.09375 -0.001,-0.0095 0.002,0.103195 0,0.09375 -0.002,-0.0094 0.0337,0.103048 0.0312,0.09375 -0.002,-0.0093 0.0343,0.102854 0.0312,0.09375 -0.003,-0.0091 0.0349,0.102616 0.0312,0.09375 -0.004,-0.0089 0.0668,0.102334 0.0625,0.09375 -0.004,-0.0086 0.0362,0.102009 0.0312,0.09375 -0.005,-0.0083 0.068,0.101643 0.0625,0.09375 -0.005,-0.0079 0.0685,0.101239 0.0625,0.09375 l 11,13.71875 c -0.002,-0.0024 -0.0109,0.01827 0,0.03125 0.0164,0.01947 0.0343,0.03469 0.0312,0.03125 -0.005,-0.0057 0.0679,0.06794 0.0625,0.0625 -0.005,-0.0054 0.0682,0.06763 0.0625,0.0625 -0.006,-0.0051 0.0685,0.0673 0.0625,0.0625 -0.006,-0.0048 0.0688,0.0357 0.0625,0.03125 -0.006,-0.0045 0.069,0.06659 0.0625,0.0625 -0.007,-0.0041 0.10047,0.03497 0.0937,0.03125 -0.007,-0.0037 0.0694,0.03459 0.0625,0.03125 -0.007,-0.0033 0.0696,0.03419 0.0625,0.03125 -0.007,-0.0029 0.101,0.03379 0.0937,0.03125 -0.007,-0.0025 0.0699,0.03338 0.0625,0.03125 -0.007,-0.0021 0.10124,0.03296 0.0937,0.03125 -0.007,-0.0017 0.0701,0.0013 0.0625,0 -0.008,-0.0013 0.10138,0.03211 0.0937,0.03125 -0.008,-8.62e-4 0.0702,4.32e-4 0.0625,0 -0.008,-4.32e-4 0.10143,0 0.0937,0 -0.008,0 0.10142,-4.32e-4 0.0937,0 -0.008,4.32e-4 0.0701,-8.62e-4 0.0625,0 -0.008,8.62e-4 0.10132,-0.03254 0.0937,-0.03125 -0.008,0.0013 0.07,-0.0017 0.0625,0 -0.007,0.0017 0.10113,-0.03338 0.0937,-0.03125 -0.007,0.0021 0.0697,-0.03379 0.0625,-0.03125 -0.007,0.0025 0.10084,-0.03419 0.0937,-0.03125 -0.007,0.0029 0.0694,-0.03459 0.0625,-0.03125 -0.007,0.0033 0.0692,-0.03497 0.0625,-0.03125 -0.007,0.0037 0.10025,-0.03534 0.0937,-0.03125 -0.006,0.0041 0.0688,-0.06695 0.0625,-0.0625 -0.006,0.0045 0.0685,-0.03605 0.0625,-0.03125 -0.006,0.0048 0.0682,-0.06763 0.0625,-0.0625 -0.006,0.0051 0.0679,-0.06794 0.0625,-0.0625 -0.005,0.0054 0.0676,-0.06824 0.0625,-0.0625 -0.003,0.0034 0.0148,-0.01178 0.0312,-0.03125 0.0109,-0.01298 0.002,-0.03365 0,-0.03125 l 11,-13.71875 c -0.006,0.0075 0.068,-0.101643 0.0625,-0.09375 -0.005,0.0079 0.0674,-0.102009 0.0625,-0.09375 -0.005,0.0083 0.0356,-0.102334 0.0312,-0.09375 -0.004,0.0086 0.0662,-0.102616 0.0625,-0.09375 -0.004,0.0089 0.0343,-0.102854 0.0312,-0.09375 -0.003,0.0091 0.0337,-0.103048 0.0312,-0.09375 -0.002,0.0093 0.033,-0.103195 0.0312,-0.09375 -0.002,0.0094 0.001,-0.103296 0,-0.09375 -0.001,0.0095 4.2e-4,-0.103349 0,-0.09375 -4.2e-4,0.0096 -2.5e-4,-0.134605 0,-0.125 2.5e-4,0.0096 -9.3e-4,-0.103313 0,-0.09375 9.3e-4,0.0096 -0.002,-0.103224 0,-0.09375 0.002,0.0095 -0.0335,-0.103088 -0.0312,-0.09375 0.002,0.0093 -0.0342,-0.102906 -0.0312,-0.09375 0.003,0.0092 -0.0348,-0.133929 -0.0312,-0.125 0.004,0.0089 -0.0354,-0.07116 -0.0312,-0.0625 0.004,0.0087 -0.0673,-0.102093 -0.0625,-0.09375 0.005,0.0083 -0.0366,-0.101737 -0.0312,-0.09375 0.005,0.008 -0.0684,-0.101342 -0.0625,-0.09375 0.006,0.0076 -0.0689,-0.06966 -0.0625,-0.0625 0.006,0.0072 -0.10065,-0.10044 -0.0937,-0.09375 0.007,0.0067 -0.0699,-0.06869 -0.0625,-0.0625 0.007,0.0062 -0.10152,-0.06816 -0.0937,-0.0625 0.008,0.0057 -0.0707,-0.0676 -0.0625,-0.0625 0.008,0.0051 -0.10223,-0.03576 -0.0937,-0.03125 0.008,0.0045 -0.10253,-0.0664 -0.0937,-0.0625 0.009,0.0039 -0.10278,-0.03453 -0.0937,-0.03125 0.009,0.0033 -0.10299,-0.03388 -0.0937,-0.03125 0.009,0.0026 -0.10315,-0.03323 -0.0937,-0.03125 0.009,0.002 -0.13452,-0.0013 -0.125,0 0.01,0.0013 -0.10334,-0.03189 -0.0937,-0.03125 0.01,6.39e-4 -0.10336,3.6e-5 -0.0937,0 l -3.53125,0 0,-12.25 0,-0.03125 c -6e-5,-0.02323 -1.2e-4,-0.06711 0,-0.0625 1.8e-4,0.0069 -5.3e-4,-0.06939 0,-0.0625 5.3e-4,0.0069 -0.0321,-0.06936 -0.0312,-0.0625 8.8e-4,0.0069 -0.001,-0.100552 0,-0.09375 0.001,0.0068 -0.002,-0.06923 0,-0.0625 0.002,0.0067 -0.0332,-0.06914 -0.0312,-0.0625 0.002,0.0066 -0.0335,-0.06904 -0.0312,-0.0625 0.002,0.0065 -0.0338,-0.100167 -0.0312,-0.09375 0.003,0.0064 -0.0341,-0.06878 -0.0312,-0.0625 0.003,0.0063 -0.0344,-0.06862 -0.0312,-0.0625 0.003,0.0061 -0.0348,-0.06846 -0.0312,-0.0625 0.004,0.006 -0.0351,-0.06827 -0.0312,-0.0625 0.004,0.0058 -0.0353,-0.06807 -0.0312,-0.0625 0.004,0.0056 -0.0669,-0.06786 -0.0625,-0.0625 0.004,0.0054 -0.0359,-0.03638 -0.0312,-0.03125 0.005,0.0051 -0.0674,-0.06739 -0.0625,-0.0625 0.005,0.0049 -0.0676,-0.06713 -0.0625,-0.0625 0.005,0.0046 -0.0366,-0.03562 -0.0312,-0.03125 0.005,0.0044 -0.0681,-0.06659 -0.0625,-0.0625 0.006,0.0041 -0.0683,-0.03505 -0.0625,-0.03125 0.006,0.0038 -0.0685,-0.03476 -0.0625,-0.03125 0.006,0.0035 -0.0686,-0.03445 -0.0625,-0.03125 0.006,0.0032 -0.0688,-0.03414 -0.0625,-0.03125 0.006,0.0029 -0.0689,-0.03382 -0.0625,-0.03125 0.006,0.0026 -0.10029,-0.03349 -0.0937,-0.03125 0.007,0.0022 -0.0691,-0.03316 -0.0625,-0.03125 0.007,0.0019 -0.0692,-0.03282 -0.0625,-0.03125 0.007,0.0016 -0.0693,-0.0012 -0.0625,0 0.007,0.0012 -0.10061,-8.78e-4 -0.0937,0 0.007,8.78e-4 -0.0694,-0.03178 -0.0625,-0.03125 0.007,5.3e-4 -0.0694,-1.81e-4 -0.0625,0 0.005,1.21e-4 -0.0393,5.9e-5 -0.0625,0 l -0.0312,0 -11.90625,0 c 0.005,3.31e-4 -0.0348,8.89e-4 -0.0625,0 0.003,1.65e-4 -0.0174,3.89e-4 -0.0312,0 0.005,0 -0.0348,-7.79e-4 -0.0625,0 0.003,0 -0.0174,-4.44e-4 -0.0312,0 -0.0277,8.89e-4 -0.068,3.31e-4 -0.0625,0 z"
       transform="translate(-60,0)"
       id="path3884"
       style="opacity:0.05;fill:url(#linearGradient3886);fill-opacity:1;fill-rule:nonzero;stroke:none;display:inline" />
    <path
       d="m 122,61.5 0,13.75 -5,0 11,13.75 11,-13.75 -5,0 0,-13.75 -12,0 z"
       inkscape:connector-curvature="0"
       transform="translate(-60,0)"
       clip-path="url(#clipPath3894)"
       id="path3886"
       style="opacity:0.3;fill:url(#linearGradient3908);fill-opacity:1;fill-rule:nonzero;stroke:none;display:inline" />
    <path
       d="M 121.9375,60.96875 A 0.51873381,0.51873381 0 0 0 121.46875,61.5 l 0,13.21875 -4.46875,0 a 0.51873381,0.51873381 0 0 0 -0.40625,0.84375 l 11,13.75 a 0.51873381,0.51873381 0 0 0 0.8125,0 l 11,-13.75 A 0.51873381,0.51873381 0 0 0 139,74.71875 l -4.46875,0 0,-13.21875 A 0.51873381,0.51873381 0 0 0 134,60.96875 l -12,0 a 0.51873381,0.51873381 0 0 0 -0.0625,0 z"
       transform="translate(-60,0)"
       id="path3876"
       style="opacity:0.15;fill:url(#linearGradient3878);fill-opacity:1;fill-rule:nonzero;stroke:none;display:inline" />
    <path
       d="m 62,60.5 0,13.75 -5,0 11,13.75 11,-13.75 -5,0 0,-13.75 -12,0 z"
       inkscape:connector-curvature="0"
       id="path3867"
       style="fill:url(#linearGradient3871);fill-opacity:1;fill-rule:nonzero;stroke:none;display:inline" />
    <g
       id="g4106"
       style="display:inline">
      <path
         d="m 68,56 c -9.941125,0 -18,8.058875 -18,18 0,3.6617 1.09067,7.063961 2.96875,9.90625 C 51.722125,81.541769 51,78.858787 51,76 c 0,-9.388841 7.611159,-17 17,-17 9.388841,0 17,7.611159 17,17 0,2.858787 -0.722125,5.541769 -1.96875,7.90625 C 84.90933,81.063961 86,77.6617 86,74 86,64.058875 77.941125,56 68,56 z"
         inkscape:connector-curvature="0"
         id="path3846"
         style="opacity:0.3;fill:url(#linearGradient3857-6);fill-opacity:1;stroke:none" />
      <path
         d="m 68,56 c -9.94112,0 -18,8.05887 -18,18 0,0.168593 0.02664,0.33252 0.03125,0.5 C 50.298212,64.79197 58.227473,57 68,57 c 9.73052,0 17.63723,7.725255 17.96875,17.375 l 0,-1 C 85.63723,63.725255 77.73052,56 68,56 z"
         inkscape:connector-curvature="0"
         id="path4097"
         style="opacity:0.3;fill:#ffffff;fill-opacity:1;stroke:none;display:inline" />
    </g>
  </g>
</svg>
